<?xml version="1.0" encoding="utf-8"?>
<svg viewBox="76.237 340.544 72.554 10.408" width="72.554" height="10.408" xmlns="http://www.w3.org/2000/svg">
  <path d="M 84.621 350.894 L 81.109 350.885 L 81.002 349.451 L 79.792 349.416 L 79.595 350.911 L 76.237 350.911 L 76.248 340.656 L 84.042 340.693 L 84.621 350.894 Z M 80.432 343.212 C 80.432 343.212 79.836 342.994 79.758 345.203 C 79.758 345.203 81.164 345.214 81.164 345.19 C 81.132 342.987 80.432 343.212 80.432 343.212 Z" style="white-space: pre; fill: rgb(101, 142, 82);"/>
  <path d="M 136.248 344.48 C 136.161 345.104 136.065 345.143 135.354 346.08 C 135.186 346.184 136.168 345.67 136.129 348.028 L 136.089 350.943 L 132.306 350.881 L 132.232 348.689 L 131.746 348.629 L 131.683 350.912 L 127.501 350.872 L 127.722 340.84 L 133.074 340.806 C 133.484 340.806 135.066 340.667 135.776 341.078 C 136.486 341.489 136.313 342.339 136.31 342.837 C 136.307 343.335 136.325 343.919 136.248 344.48 Z M 132.43 344.193 C 132.467 343.925 132.448 343.702 132.374 343.527 C 132.3 343.347 132.192 343.256 132.049 343.256 L 131.789 343.263 L 131.686 345.159 L 131.785 345.142 C 131.93 345.142 132.063 345.051 132.188 344.865 C 132.311 344.682 132.392 344.458 132.43 344.193 Z" style="white-space: pre; fill: rgb(101, 142, 82);"/>
  <path d="M 142.688 350.872 L 142.92 340.853 L 148.791 340.888 L 148.741 343.859 L 146.497 343.829 C 145.855 343.885 146.213 344.371 146.47 344.4 L 148.737 344.537 L 148.652 347.144 L 146.296 347.185 C 145.765 347.136 145.317 347.588 146.292 347.65 L 148.771 347.658 L 148.747 350.9 L 142.688 350.872 Z" style="white-space: pre; fill: rgb(101, 142, 82);"/>
  <path style="stroke-width: 0px; fill: rgb(101, 142, 82);" d="M 119.808 340.846 L 119.818 344.668 L 121.298 344.689 L 121.312 350.875 L 126.442 350.934 L 126.401 344.721 L 127.399 344.73 L 127.51 340.862 L 119.808 340.846 Z"/>
  <path d="M 136.395 350.919 L 136.627 340.802 L 142.498 340.837 L 142.448 343.838 L 140.204 343.807 C 139.562 343.864 139.92 344.355 140.177 344.384 L 142.444 344.522 L 142.359 347.155 L 140.003 347.196 C 139.472 347.147 139.024 347.603 139.999 347.666 L 142.478 347.674 L 142.454 350.948 L 136.395 350.919 Z" style="white-space: pre; fill: rgb(101, 142, 82);"/>
  <path d="M 114.585 350.85 L 110.76 350.841 L 110.644 349.42 L 109.326 349.385 L 109.112 350.866 L 105.455 350.866 L 106.548 340.737 L 113.47 340.759 L 114.585 350.85 Z M 110.023 343.238 C 110.023 343.238 109.374 343.022 109.289 345.211 C 109.289 345.211 110.82 345.221 110.82 345.198 C 110.786 343.015 110.023 343.238 110.023 343.238 Z" style="white-space: pre; fill: rgb(101, 142, 82);"/>
  <path d="M 88.545 340.642 C 91.06 340.642 92.796 340.222 92.795 344.564 C 92.795 344.949 92.8 347.188 92.8 347.624 C 92.8 351.055 91.425 350.934 88.545 350.934 L 84.976 350.934 L 84.455 340.642 L 88.545 340.642 Z M 88.002 343.163 L 87.993 346.384 L 88.663 346.476 C 89.77 346.476 89.84 345.959 89.837 344.993 L 89.832 344.263 C 89.75 343.698 89.605 343.115 88.498 343.115 L 88.002 343.163 Z" style="white-space: pre; fill: rgb(101, 142, 82);"/>
  <path d="M 96.728 340.647 C 99.242 340.647 100.979 340.231 100.978 344.532 C 100.978 344.914 100.983 347.131 100.983 347.563 C 100.983 350.962 99.608 350.842 96.728 350.842 L 93.159 350.842 L 93.159 340.647 L 96.728 340.647 Z M 96.185 343.144 L 96.175 346.335 L 96.845 346.426 C 97.952 346.426 98.022 345.913 98.02 344.957 L 98.014 344.234 C 97.932 343.674 97.787 343.097 96.68 343.097 L 96.185 343.144 Z" style="white-space: pre; fill: rgb(101, 142, 82);"/>
</svg>