<?xml version="1.0"?><svg width="640" height="480" xmlns="http://www.w3.org/2000/svg" xmlns:xlink="http://www.w3.org/1999/xlink">
 <title>blue earth icon</title>
 <defs>
  <linearGradient id="linearGradient37658">
   <stop stop-color="#2f7aff" offset="0" id="stop37660"/>
   <stop stop-color="#0000b3" offset="1" id="stop37662"/>
  </linearGradient>
  <linearGradient id="linearGradient20137">
   <stop stop-color="#00bf00" offset="0" id="stop20139"/>
   <stop stop-color="#007500" offset="1" id="stop20141"/>
  </linearGradient>
  <radialGradient xlink:href="#linearGradient20137" r="188.61865" id="radialGradient20143" gradientUnits="userSpaceOnUse" gradientTransform="scale(0.893959,1.118620)" fy="298.37747" fx="205.17723" cy="297.1124" cx="202.06305"/>
  <radialGradient xlink:href="#linearGradient37658" r="112.3373" id="radialGradient37664" gradientUnits="userSpaceOnUse" gradientTransform="scale(0.806632,1.239722)" fy="270.08732" fx="221.61394" cy="270.08732" cx="221.61394"/>
  <radialGradient xlink:href="#linearGradient20137" r="188.61865" id="radialGradient1902" gradientUnits="userSpaceOnUse" gradientTransform="scale(0.893959,1.118620)" fy="298.37747" fx="205.17723" cy="297.1124" cx="202.06305"/>
  <radialGradient xlink:href="#linearGradient20137" r="188.61865" id="radialGradient1904" gradientUnits="userSpaceOnUse" gradientTransform="scale(0.893959,1.118620)" fy="298.37747" fx="205.17723" cy="297.1124" cx="202.06305"/>
  <radialGradient xlink:href="#linearGradient20137" r="188.61865" id="radialGradient1906" gradientUnits="userSpaceOnUse" gradientTransform="scale(0.893959,1.118620)" fy="298.37747" fx="205.17723" cy="297.1124" cx="202.06305"/>
  <radialGradient xlink:href="#linearGradient20137" r="188.61865" id="radialGradient1908" gradientUnits="userSpaceOnUse" gradientTransform="scale(0.893959,1.118620)" fy="298.37747" fx="205.17723" cy="297.1124" cx="202.06305"/>
  <radialGradient xlink:href="#linearGradient20137" r="188.61865" id="radialGradient1910" gradientUnits="userSpaceOnUse" gradientTransform="scale(0.893959,1.118620)" fy="298.37747" fx="205.17723" cy="297.1124" cx="202.06305"/>
  <radialGradient xlink:href="#linearGradient20137" r="188.61865" id="radialGradient1912" gradientUnits="userSpaceOnUse" gradientTransform="scale(0.893959,1.118620)" fy="298.37747" fx="205.17723" cy="297.1124" cx="202.06305"/>
  <radialGradient xlink:href="#linearGradient20137" r="188.61865" id="radialGradient1914" gradientUnits="userSpaceOnUse" gradientTransform="scale(0.893959,1.118620)" fy="298.37747" fx="205.17723" cy="297.1124" cx="202.06305"/>
  <radialGradient xlink:href="#linearGradient20137" r="188.61865" id="radialGradient1916" gradientUnits="userSpaceOnUse" gradientTransform="scale(0.893959,1.118620)" fy="298.37747" fx="205.17723" cy="297.1124" cx="202.06305"/>
  <radialGradient xlink:href="#linearGradient20137" r="188.61865" id="radialGradient1918" gradientUnits="userSpaceOnUse" gradientTransform="scale(0.893959,1.118620)" fy="298.37747" fx="205.17723" cy="297.1124" cx="202.06305"/>
  <radialGradient xlink:href="#linearGradient20137" r="188.61865" id="radialGradient1920" gradientUnits="userSpaceOnUse" gradientTransform="scale(0.893959,1.118620)" fy="298.37747" fx="205.17723" cy="297.1124" cx="202.06305"/>
 </defs>
 <desc>wmf2svg</desc>
 <g>
  <title>Layer 1</title>
  <path id="polyline1560" d="m276.804993,376.104004l-6.752014,-0.042999l-6.597961,-0.377014l-6.54303,-0.722992l-6.411987,-1.020996l-6.382996,-1.326996l-6.188004,-1.638l-6.119003,-1.921021l-5.925995,-2.232971l-5.818008,-2.490021l-5.671997,-2.725006l-5.503006,-2.996979l-5.369995,-3.294006l-5.123993,-3.519012l-5.040009,-3.738983l-4.768997,-4.001007l-4.608109,-4.173004l-4.360489,-4.395996l-4.176498,-4.606995l-3.927902,-4.830994l-3.729599,-4.977997l-3.481689,-5.202026l-3.181412,-5.339996l-2.981796,-5.487l-2.695496,-5.686005l-2.395706,-5.822998l-2.156693,-5.946991l-1.818008,-6.05899l-1.555603,-6.222015l-1.215988,-6.333008l-0.901001,-6.40799l-0.599609,-6.54599l-0.24649,-6.596008l0.108292,-6.644989l0.403,-6.515015l0.747803,-6.462982l1.067703,-6.372009l1.425491,-6.255981l1.6828,-6.151001l1.978302,-6.021027l2.27301,-5.889984l2.569992,-5.761002l2.800705,-5.615005l3.136597,-5.462006l3.304794,-5.300003l3.615601,-5.108994l3.823502,-4.925003l4.055801,-4.778992l4.239502,-4.557007l4.5112,-4.386993l4.709,-4.100998l4.877991,-3.942001l5.102005,-3.694l5.259995,-3.432999l5.445007,-3.210007l5.565994,-2.972l5.763,-2.686005l5.924011,-2.423996l6.019989,-2.148003l6.193008,-1.821999l6.290009,-1.546005l6.386993,-1.26899l6.561005,-0.944l6.570007,-0.614006l6.743988,-0.288994l6.689972,0.056999l6.636017,0.402l6.529022,0.661011l6.449982,1.043976l6.320007,1.34201l6.25,1.624001l6.056976,1.934998l5.950012,2.193016l5.819,2.49099l5.686005,2.787003l5.502014,2.998993l5.332977,3.270004l5.184998,3.503998l4.977997,3.751999l4.79303,3.962997l4.583984,4.210999l4.399994,4.421005l4.175995,4.608002l3.953003,4.791992l3.705017,5.016006l3.46698,5.139999l3.220001,5.363007l2.957001,5.525986l2.682007,5.623001l2.434998,5.846985l2.117004,5.923035l1.833008,6.121979l1.515991,6.198029l1.279999,6.317993l0.899994,6.40799l0.561005,6.522003l0.261017,6.658997l-0.083008,6.606003l-0.428009,6.554001l-0.786987,6.438995l-1.067017,6.372986l-1.362,6.240021l-1.682983,6.151978l-2.042023,6.036011l-2.27298,5.889008l-2.506012,5.746002l-2.86499,5.630005l-3.072998,5.446991l-3.343994,5.277985l-3.577026,5.131012l-3.847992,4.963989l-4.029999,4.740021l-4.303986,4.571991l-4.487,4.347992l-4.694,4.164001l-4.893005,3.878998l-5.062012,3.718994l-5.285004,3.471008l-5.444977,3.209991l-5.604004,2.949005l-5.764008,2.684998l-5.860016,2.408997l-6.057983,2.124023l-6.181,1.884979l-6.289001,1.546021l-6.425995,1.244995l-6.497009,0.928986l-6.632996,0.628998l-6.682007,0.274017" stroke-linecap="round" stroke-linejoin="round" stroke-dasharray="null" stroke-width="0.6875" fill="#2c8bea"/>
  <g fill="url(#radialGradient1902)" fill-rule="evenodd" id="Continents">
   <polyline fill="#ffffff" stroke="#000000" stroke-width="0.444585" stroke-linecap="round" stroke-linejoin="round" points="279.84616238526996,325.6864228793602 279.3759190058963,327.0365948676299 279.2052015932213,332.9814813971352 277.97981315587003,335.7161594776953 273.51735063495926,337.3261685741709 271.59150714262887,341.1080368273615 271.6812773077718,346.63231544411974 275.1720102726422,349.29738673002066 280.43545472144706,352.48897483154724 286.20132202652803,358.172056248648 289.96329927698844,362.6000959727462 292.9525762806634,362.77364366608526 293.2393815339574,366.03290083506 291.78378142100064,369.31274635565205 292.32817356687065,371.56499091463775 292.64428782729647,371.8169862830364 305.5750591881979,369.2500124371945 318.0394849655195,365.48873253562124 330.04638807687206,360.43217282442856 344.2054485603667,352.5850739904199 356.7538129168761,343.35637565493744 356.973328315652,339.6176521091802 359.1108613996994,334.0581310787711 363.0308957803727,328.4995486349799 365.2318813540869,325.2059573619845 361.9811498775134,322.74683014623224 360.24158476556204,322.50461424485184 356.0562283316676,324.34212462669893 347.8620342470376,326.2129699719735 341.1644728853489,327.11110653429205 335.6503004559463,320.6847856238055 326.93806211639367,320.8504915773374 320.49316252546396,319.7316963288613 313.0024148274688,316.5773791991596 307.05897119773454,317.9491386796399 298.89015810897126,318.085415401154 295.6764708001747,319.6287848477623 289.6881571956046,317.52062847311026 285.72618374080866,319.33755050334 282.31156354806717,322.13399363875214 280.39738322764697,324.12052735392353 277.332990562395,323.47438616000363 272.60417866224,323.05862256528417 268.5983323431601,320.1239044271715 267.85004619716074,318.1167823603828 269.0285704385724,314.60846669081366 269.2559116444072,311.61888665103834 266.50174122268345,309.627448063864 262.2851117760247,308.47141212055067 257.56902058927426,308.54201805580306 257.02462844340425,306.2897432198297 258.4948830599269,303.4952680886163 259.193434540216,298.7318804490569 256.4099853268317,297.04048680971755 252.71924104989012,298.33676575993013 251.25386623197755,300.8694055017513 248.55140958933225,301.6715034591725 245.03920853212458,300.4781965440343 240.26455976205307,296.5845456523566 239.74260260360097,291.5858452646062 240.39821789921552,287.06076779501745 244.3367743637773,281.72671949180585 249.53191673977653,280.6285125949471 252.7768015226593,281.06877027269365 255.00217098168832,282.30425303165975 257.2343540294887,282.0051769474303 259.7251059726814,280.69914880718716 263.9329729326719,281.1070101081241 267.91733605167883,282.80724462786384 270.7202742440322,287.0048764757739 272.9749224947218,290.2229266645263 275.45494794561364,289.4414473357101 274.6764161128731,285.4497595579487 273.1261509284277,282.19540726097694 273.83246778483317,278.17919512320077 275.7719988856488,274.8836661229943 280.66373260689124,271.3135551215855 283.61496833223737,268.7573598833551 283.82958882466755,264.0096860003978 285.76425523460875,258.69232031739375 288.1915849036059,255.1183035845752 289.9232939930271,254.61039197787431 290.9067169364489,252.0943894407792 293.3154943060863,248.295838567381 295.5398968700347,247.2486483947505 297.7896502143785,248.44586104129849 299.50576812062445,246.441675842314 303.2111517933963,244.35904296826993 305.90576752124707,242.8088460609415 304.88236950933515,240.311463871265 301.1603975428361,240.8968391509261 299.4247906576211,240.39383241622818 299.1643030798032,237.68267955508963 296.66868644573606,236.96788529162222 294.2101441949171,238.98480196392302 291.4979430627873,240.30951100556013 291.2169391799771,239.07207538088915 293.91255201837976,236.24915501975738 298.3428350623881,233.92924139332354 301.0960083735599,233.63803732588894 304.8160465498977,232.04174370482906 306.0033332779776,229.28157240064866 304.71848079316715,225.7683669975704 300.9555366476261,221.34229527767093 294.17696760746276,216.1926035523975 290.1905800518807,215.7641084843617 287.9496194096764,215.3150250647086 285.68814246247985,212.3597488519663 278.97299569651204,209.47896916739228 276.49300046109147,210.25946449410912 276.5242130429133,214.52571913457905 276.836399292074,220.03036312483164 278.6120416767217,221.99140361638274 277.1505495468673,224.26131479767537 276.490039344907,229.04919652026183 275.7788577976271,233.32622976834318 273.01102998288934,230.84942079179018 271.0168693100177,227.63527633444755 270.71444265807713,223.890663914588 267.4685758723781,222.43851903183713 262.4704836922656,221.2726733445179 260.68707593150157,218.5615356218732 261.12220893325957,212.78430791160463 264.0666159620987,208.20624571358894 268.73297248313884,203.64583499938635 272.9202929226658,200.5356314407236 274.8442026248349,198.0264866413363 272.59638307065234,195.55653540249114 269.62855905157903,196.61648732542562 266.39637987436527,195.6526345613638 265.84805971723017,192.3894565224855 265.5553926625098,189.39201960440914 263.3270923027676,189.42927543774022 262.6519578127127,193.73180190944186 260.65976114547357,195.5075320979431 258.9534330519191,194.2808902193774 258.8578010853498,189.0194158556169 257.5865757780821,185.56895950949 254.82266086687378,184.10111600863092 252.57192551971366,180.62124556898016 248.85386645674407,180.9458148768299 246.63237968577323,183.00293938875984 249.38556810468071,185.41893703557253 249.93875295269027,188.41934109844078 253.18851753418312,190.8794674547862 252.73386533798475,194.1524400991766 242.6870096324401,186.31710387487874 237.44504838370813,181.65176825989693 234.6606322752432,177.67871596804798 234.63819728782528,174.16059055447295 233.56795018770936,169.45507737684966 231.2996445440058,168.45887365145973 227.10353140233929,168.53730618802547 225.36109582061727,169.56784401743607 223.1201049629417,169.11974459988232 220.6508211120863,169.37662970179008 219.70546966246457,171.91618773529444 218.71423601971946,173.68406104549467 213.9717667265504,172.78295733838422 211.03127260124074,174.81557262879323 209.34638238455227,178.37682761130782 208.37759883696071,181.37821567627543 205.6537043174494,180.9458148768299 202.88099670410156,178.73081101268144 203.91027162517548,181.9773064313522 208.17370483683135,183.90501195947581 212.90055273135386,185.59249986740542 216.89763656376545,187.78002736524104 218.438127043255,191.98254894666024 218.74253280856374,196.73906371001794 217.10349456952736,203.7801891321833 214.93958337906133,211.07526278845216 214.50445037730333,216.85445850291944 214.57080355221206,220.1333048829183 215.3590949821728,223.5994598471534 212.41079015753985,227.16658856527647 209.72687070651864,231.7475876310964 207.08297164719443,237.78660531527566 205.92198748685496,245.07483637233054 205.0536854889715,255.3585212047692 206.09661780305942,259.09237015551116 208.17175593893444,266.0717305228245 209.70933062544646,271.54596127896 212.03030183557348,278.04288812469895 215.02837154138797,281.24822197862886 217.54251025934354,282.18756552116974 215.02152773714533,279.22835330003 213.7181078452395,275.4915674814838 212.94445581110904,271.23807459131785 212.1610441797584,267.5091607895665 214.11518446093305,266.9826136969532 215.15128807851397,269.96731914171323 216.96007683514472,277.2045486130337 220.78837704504258,284.91046585352524 221.84498185988014,289.1296549166582 220.85667911784822,291.9074777046517 223.1679058384907,295.37361753039295 227.64890555102556,297.5435086829093 234.43039038416646,303.70411874958154 238.6372451258694,305.3837346407163 245.1465338860753,307.4997024781878 252.59924030574166,310.6305246654556 256.36998004287034,313.0984927616082 259.874400616226,316.24987302350564 262.68220349945386,322.4683424136201 268.1661302421153,324.6303918263293 271.67737951197796,325.82269960087433 275.6373587456701,325.2785313014356 279.84616238526996,325.6864228793602 " id="polyline1460"/>
   <polyline fill="#ffffff" stroke="#000000" stroke-width="0.444585" stroke-linecap="round" stroke-linejoin="round" points="265.85488841373717,297.3856444691846 268.8276073391562,296.06387229535176 273.5651817259795,297.22678111486675 279.03445396507504,298.9025215515794 283.2422907095943,299.31038285251634 287.0052348551353,301.0302368602679 286.0315412934624,303.02264431104777 281.5661780873097,303.620766202519 277.8393414299362,300.9135493497779 273.3212824418888,298.72013297783997 265.85488841373717,297.3856444691846 " id="polyline1464"/>
   <polyline fill="#ffffff" stroke="#000000" stroke-width="0.444585" stroke-linecap="round" stroke-linejoin="round" points="288.25204606161697,302.2362903872163 288.0588785537884,304.2394764456076 291.2881570457603,305.4661183241733 294.2716024634801,305.9024399935224 299.46186504086927,305.0670373496614 295.9642731640206,303.0883453742972 296.20234086215623,301.85776748733406 294.1886912103155,301.1273048827461 288.25204606161697,302.2362903872163 " id="polyline1468"/>
   <polyline fill="#ffffff" stroke="#000000" stroke-width="0.444585" stroke-linecap="round" stroke-linejoin="round" points="306.75164963944826,229.00801981702716 308.50777282965555,230.7454798931103 311.7760292795656,233.4301555285292 315.2619277690328,236.35701678834084 316.28922357673855,238.59260900410663 310.80729105518094,238.71517025020512 307.31846166500054,234.7773906489947 306.04237166685834,232.01232961130518 306.75164963944826,229.00801981702716 " id="polyline1472"/>
   <polyline fill="#ffffff" stroke="#000000" stroke-width="0.444585" stroke-linecap="round" stroke-linejoin="round" points="283.41986703424755,208.65532913324205 280.18569363592997,207.69147636918024 276.2051678817743,207.00119132723376 280.1456883519686,203.9488319535194 280.3369220696359,199.66395696563086 278.5534840934006,196.95378810659167 273.8207743974517,195.52908931316597 270.5749076117527,194.0769444304151 267.31344964287837,189.85775536728215 270.0032006798547,187.2976241206543 273.75735212325617,188.2693186245233 278.4929927199182,190.70688862505267 282.9905958339159,193.10034505454314 284.7720395890474,197.08322222889183 286.28033548389885,198.29121348305125 290.00327434547853,199.98849599649293 292.3057234717171,203.97824604704329 290.3242835122501,206.24031548852872 289.6471850165626,209.53290762093093 286.6901177052614,210.06826531695697 283.41986703424755,208.65532913324205 " id="polyline1476"/>
   <polyline fill="#ffffff" stroke="#000000" stroke-width="0.444585" stroke-linecap="round" stroke-linejoin="round" points="301.502829478738,204.8058069510971 305.9906729955155,207.72481133260771 307.9994579564818,208.7171093265879 312.45705578651814,207.36985906762857 317.86680354721193,205.50491773495014 312.63849969149396,203.60859430454911 310.87947581604476,200.86116961217886 311.31753971851595,196.09289223911037 311.70970632012813,187.84572842849047 314.66487005673935,185.0267289372623 314.61607207063844,180.5369241583121 309.85604758866157,175.8549362001104 304.83846642957997,172.18191371760258 298.83063363056954,170.27381253899694 293.864781358302,167.11065452889488 288.1281626294103,166.9655217884865 283.6881502036531,168.53730618802547 281.47643813763807,171.34257506534414 278.9827552937322,171.63869914327552 278.7554443033687,169.63745081209527 275.26371422794637,169.68059551952865 271.0802915842132,171.51613789717703 271.83637332180024,174.27335719505936 269.91343051471176,179.06614378964878 271.9515244828099,182.04202349250227 275.9056721305469,184.4668468812215 277.6100664339401,178.42095632084056 279.5524982199977,176.1363456620329 280.87058772320506,180.35845645447625 284.3456992894289,183.8098968027025 287.5915962905992,185.26107282184785 292.6276995335693,189.15864458342912 296.8969945466515,193.1072179307448 297.95843383689225,200.61995285139164 300.96333223921374,202.2907732776075 301.502829478738,204.8058069510971 " id="polyline1480"/>
   <polyline fill="#ffffff" stroke="#000000" stroke-width="0.444585" stroke-linecap="round" stroke-linejoin="round" points="318.3692566189593,184.21583551492222 318.9448613466511,188.4516920597689 320.43070714634905,190.7098254928569 323.1614605778386,191.89037065769116 326.6170831650934,187.84475956488495 328.0249126179724,182.78231097958997 325.030770923423,180.58692660345332 321.8024291110605,181.64392652008974 320.3477958931844,183.65204772747165 318.3692566189593,184.21583551492222 " id="polyline1484"/>
   <polyline fill="#ffffff" stroke="#000000" stroke-width="0.444585" stroke-linecap="round" stroke-linejoin="round" points="371.01627074305634,163.48958735723318 372.79288002278463,167.73328564188705 372.5870220170227,171.95638043642975 373.6123840345672,175.46568010809824 377.1275311002237,177.66889108554824 376.8816678105004,180.4339672617316 373.9382276767419,181.4546953471363 371.95192302640044,181.27330591399004 369.2631086690335,182.55974484320905 374.74117361026856,184.98456823192828 374.02313315101037,187.24173280141076 369.0474910660514,187.30841786675956 369.58212361470123,190.08524151415986 370.853348921969,193.53569786028675 370.92749768846534,197.56268860567434 373.1968004427208,201.26710832439858 374.9645868048383,204.76364624576308 377.73141750902414,207.24044008382225 376.5040952815116,208.96615268868845 376.0328850070573,210.74089887509035 375.0855997672743,214.55316522390422 372.13919851733135,216.84758562671777 367.3908976382072,213.92464523680974 367.1167526673753,211.15271132291855 364.32550786240336,208.71220445458493 364.3030879827211,205.19606218370245 366.7333485524314,202.63197979018332 366.4699300739003,198.91090772823918 361.95480198656605,197.72644169350133 359.7274685219045,197.7646966674256 358.2221035277662,195.28199881677028 358.65820342460484,189.502803102303 355.3674364485987,183.30003233029674 352.11184028115076,181.10171108635586 351.0484067698062,177.14529599923299 350.216182044619,171.63477827337192 346.2015430233996,165.66733538805056 345.14886621982714,161.18634121251307 341.8961707376211,159.99892317147714 338.43761724965316,158.042787551929 336.41127709987904,156.8259554173692 335.1839548723665,158.1280929646964 336.95956704154287,160.0891334562475 334.0131960070712,162.3835689975549 336.7312589406274,163.07875891150434 339.7644692395288,165.29766850706255 343.02299630768994,168.50690809240223 347.02107725065343,170.69346672663232 343.0591037958575,172.51037361836825 341.85323455294656,175.04599564347518 338.3547059964885,174.3390582583088 334.1342089695072,172.17308797569603 330.81416320184053,166.69490607266926 328.29612668809114,164.7466121929283 322.5829249494336,161.85603790284222 318.3243564286522,159.66555839870853 315.3243831481477,155.44930620337982 318.7468291479481,153.40199143545578 324.943901443522,152.29497393518432 324.1868225953831,149.5387235009075 321.69123617678724,148.82296037383458 320.9653396949989,150.33294944153386 316.70779850024064,150.42609659410846 317.43656545179965,147.64338407260584 314.70484512522944,146.46282376927775 312.9399594483539,143.97721932780587 307.93606589775754,140.78856809408353 300.4150422975499,135.65062384002704 298.9145419942861,136.46250126446648 297.5018478505326,138.23135857676607 294.27450314872203,139.28837363189632 292.24329830807346,138.33234746914786 288.5213263415744,137.64696729920433 283.5778939489892,137.99995155998477 281.1076280953175,139.52956011569586 275.91739573339964,140.3649778980507 271.19444563467096,139.68743946791437 267.940753041913,138.4990374247791 267.43929708071755,136.00752897071106 262.44513291187013,135.85064875908574 260.4890135173273,137.65088816910793 255.28510865465978,137.99898269637924 250.5728850482319,139.0804918345366 250.611908329377,141.81221790879863 248.13970868554406,143.34281046660908 242.93092402426646,143.95367896989046 240.98065132341435,145.49112926540874 241.742625077899,147.98459058518165 239.5133427153405,149.29555387441542 233.32013800008917,150.13978226018298 232.8625851186489,152.3998836974697 232.6537962121738,155.189469095174 230.6703771393386,156.44062019526064 227.2411024430312,160.02343239299807 224.77280059499208,162.5639744286018 221.59911857015686,165.14078829543723 217.63422932238336,165.94676170728053 218.62058316651837,164.44264637518972 220.55520425325267,161.40793848528847 220.02350260531603,159.64201804079312 216.83128338885672,159.71260883755167 215.0664128197168,157.2260052554866 213.52395833459468,154.71979732390355 215.9737229910097,151.95570514981955 218.65860933711156,149.65737901559623 220.89178949546385,149.35733406776126 222.88010347464478,145.56075119856177 222.3054656420336,141.32587865581445 225.27718745690072,140.00413675896925 229.44305491182604,137.94307623864188 229.65867251480813,133.19540235568456 227.38743597039138,131.18729628679648 225.15035801624526,130.47642289323267 236.7133354237003,126.30920427943965 246.43141658635705,123.58727281068968 255.8655931809617,121.74977756733642 267.6783316739338,120.39274027211195 278.18373737147067,120.12799072265625 290.4881722284181,120.93889171424325 305.76529579531325,123.5578587171658 320.69902053122587,128.08590333154643 330.87468479079416,132.49726043543706 341.3790933777791,138.07152635884268 350.2571844391323,143.8997405163518 358.5889193489829,150.18195810401085 365.9001871476348,157.09853913738516 370.8104429527657,162.2972644441943 371.01627074305634,163.48958735723318 " id="polyline1488"/>
   <polyline fill="#ffffff" stroke="#000000" stroke-width="0.444585" stroke-linecap="round" stroke-linejoin="round" points="342.1546943098065,178.7896391997292 339.9293550662487,179.8387822380646 340.9195764907063,182.04986523230946 343.23178521416503,185.51698906015008 343.9937287531784,188.010450379923 345.0376430700826,191.74330019007175 348.5605857273267,194.69565467350367 351.00547058513166,194.90058446456533 350.01621605575474,192.68754860461559 346.97034547439125,189.98228461757935 346.717653488161,188.4438503199617 349.7235187855631,189.69106541165092 352.9879076551506,191.36482270567103 355.96159347565026,192.32572346343477 355.9420742812099,189.81951553185172 356.04646873444744,189.5655672977482 356.1518300827656,189.3125879272502 356.21818325767435,189.03511447372512 356.2230479485488,188.7742782249261 356.23283776124026,188.24969913651148 356.1820757695068,187.73885066200637 356.068918829601,187.244669669215 355.98501046588444,186.87306506101595 355.905030113433,186.6632152594575 355.8767182168531,186.53967001125966 353.8874222348559,185.34637823461526 347.6483806496881,182.71073618073206 344.90300293010387,181.46841082255196 342.1546943098065,178.7896391997292 " id="polyline1492"/>
   <polyline fill="#ffffff" stroke="#000000" stroke-width="0.444585" stroke-linecap="round" stroke-linejoin="round" points="379.57045195239607,173.3065675631933 379.35193366417207,176.62071691081837 380.3968148761569,180.35258271886778 379.39973453972107,182.3822762799664 377.69144244053405,182.428357855204 379.19680743467234,184.90907256316677 382.2270566173893,188.8252798106605 382.52072078266156,194.10537452183962 379.80265784910534,193.4101846078902 378.0523964603244,193.69356207401142 377.63581575792614,199.69532392485962 377.9528969134326,204.9381779412015 377.22999176329995,207.45614848249534 377.5158301215133,211.98909796887892 376.0494733007845,214.52079912408226 375.1363013280652,217.77026168754492 376.64752812362985,222.27281307830526 379.20070523046616,228.2255564861116 379.0094715127989,232.51043147400014 378.8680328917844,241.2870792450376 379.9665767807446,249.24597585602714 382.02706041305373,255.73898183186247 385.32075828977304,262.9536246703792 389.5978488944429,267.64934324249043 394.5968777541648,268.8171569340084 397.5022463941232,264.2155997935588 399.4749540823932,261.206369988784 402.1783625123835,259.98072725081147 402.83397780799805,251.89828539162409 402.9129912653689,244.4110285561037 402.5900785239073,236.72274766093142 401.63493726159413,227.68626278168813 399.60859711182,217.07507177359548 397.09346128331254,208.0130936707319 394.2593105091373,199.97478052107726 390.7217133483273,191.97077119845562 387.0953733483975,184.86984872563698 382.6895044051753,177.75616450251437 379.57045195239607,173.3065675631933 " id="polyline1496"/>
  </g>
 </g>
</svg>