<?xml version="1.0" encoding="utf-8"?>
<svg width="76" height="76" viewBox="0 0 76 76" xmlns="http://www.w3.org/2000/svg">
  <defs>
    <style>
      .a {
        fill: #fff;
      }
    </style>
  </defs>
  <g style="" transform="matrix(0.1185, 0, 0, 0.1185, 10.53931, 0.558643)"/>
  <g style="" transform="matrix(0.1185, 0, 0, 0.1185, 10.53931, 0.558643)"/>
  <g style="" transform="matrix(0.1185, 0, 0, 0.1185, 10.53931, 0.558643)"/>
  <g style="" transform="matrix(0.1185, 0, 0, 0.1185, 10.53931, 0.558643)"/>
  <g style="" transform="matrix(0.1185, 0, 0, 0.1185, 10.53931, 0.558643)"/>
  <g style="" transform="matrix(0.1185, 0, 0, 0.1185, 10.53931, 0.558643)"/>
  <g style="" transform="matrix(0.1185, 0, 0, 0.1185, 10.53931, 0.558643)"/>
  <g style="" transform="matrix(0.1185, 0, 0, 0.1185, 10.53931, 0.558643)"/>
  <g style="" transform="matrix(0.1185, 0, 0, 0.1185, 10.53931, 0.558643)"/>
  <g style="" transform="matrix(0.1185, 0, 0, 0.1185, 10.53931, 0.558643)"/>
  <g style="" transform="matrix(0.1185, 0, 0, 0.1185, 10.53931, 0.558643)"/>
  <g style="" transform="matrix(0.1185, 0, 0, 0.1185, 10.53931, 0.558643)"/>
  <g style="" transform="matrix(0.1185, 0, 0, 0.1185, 10.53931, 0.558643)"/>
  <g style="" transform="matrix(0.1185, 0, 0, 0.1185, 10.53931, 0.558643)"/>
  <g style="" transform="matrix(0.1185, 0, 0, 0.1185, 10.53931, 0.558643)"/>
  <rect x="36.529" y="50.64" width="6.445" height="24.447" style="fill: rgb(162, 129, 129);"/>
  <g transform="matrix(0.08171, 0, 0, -0.108907, 10.927886, 56.691551)" style="">
    <path d="M 22.012 47.699 C 91.488 74.507 97.381 148.683 101.832 196.466 C 104.467 224.753 117.829 251.991 126.298 279.472 C 133.045 301.362 133.362 323.246 139.968 345.21 C 145.474 363.518 155.834 379.785 166.411 396.846 C 175.378 411.31 180.047 423.776 196.28 434.083 C 197.035 434.562 196.789 440.229 197.122 441.165 C 199.085 446.697 202.754 452.289 205.879 457.522 C 214.055 471.217 226.849 484.057 244.314 492.823 C 272.837 507.142 301.762 511.368 336.239 511.368 C 371.655 511.368 418.189 515.981 451.912 507.174 C 458.19 505.534 455.318 504.439 455.993 502.138 C 456.375 500.827 467.305 495.813 469.035 494.276 C 478.45 485.903 486.138 477.233 493.834 468.06 C 510.641 448.025 517.745 427.884 527.15 405.948 C 530.529 398.069 537.092 390.242 538.819 382.071 C 541.708 368.416 541.294 355.828 548.025 342.237 C 560.536 316.974 578.011 293.783 587.362 267.651 C 594.661 247.252 595.093 226.537 598.087 205.884 C 599.881 193.494 609.657 180.315 613.61 168.04 C 622.076 141.744 623.094 115.008 634.053 88.991 C 643.173 67.341 657.993 50.134 669.634 29.623 C 672.783 24.074 676.867 12.703 670.058 7.992 C 665.495 4.834 652.797 4.719 646.796 4.719 C 621.543 4.719 606.904 9.463 583.909 14.882 C 577.954 16.285 559.923 21.771 553.6 20.11 C 532.561 14.58 524.398 7.408 499.015 7.408 C 485.944 7.408 486.555 20.586 471.235 18.811 C 465.171 18.108 456.619 12.617 453.216 10.002 C 451.597 8.76 439.326 6.998 436.529 6.24 C 418.286 1.292 397.766 -0.654 378.095 0.542 C 361.786 1.533 342.062 5.273 329.049 12.366 C 323.896 15.173 314.269 24.534 307.455 24.114 C 289.55 23.012 271.731 13.295 253.482 10.946 C 233.727 8.404 211.819 12.283 192.579 9.262 C 182.183 7.629 173.988 1.882 162.823 0.913 C 149.861 -0.212 144.971 4.128 130.406 2.363 C 121.179 1.244 110.74 -0.166 101.323 0.796 C 82.14 2.755 60.381 8.032 40.532 5.137 C 24.386 2.782 13.796 -2.208 2.036 8.73 C -11.164 21.009 9.237 34.393 18.093 43.914 C 19.124 45.025 25.584 49.535 25.584 49.756" style="fill: rgb(147, 188, 132);"/>
  </g>
  <g transform="matrix(0.079092, 0, 0, 0.07984, 19.816345, 3.761719)" style="stroke-width: 1.5724; vector-effect: non-scaling-stroke;">
    <circle style="" cx="160" cy="192" r="32"/>
    <circle style="" cx="352" cy="192" r="32"/>
    <path style="" d="M 259.985 394.116 C 217.234 394.116 177.078 377.44 146.839 347.23 C 140.597 340.99 140.597 330.845 146.839 324.606 C 153.071 318.366 163.217 318.366 169.458 324.606 C 217.814 372.988 302.099 372.988 350.483 324.606 C 356.724 318.366 366.871 318.366 373.103 324.606 C 379.344 330.845 379.344 340.99 373.103 347.23 C 342.902 377.44 302.735 394.116 259.985 394.116 Z"/>
  </g>
</svg>