<?xml version="1.0" encoding="utf-8"?>
<svg viewBox="-0.003 0 211.96 442.6" width="211.96" height="442.6" xmlns="http://www.w3.org/2000/svg">
  <defs>
    <linearGradient gradientUnits="userSpaceOnUse" x1="105.977" y1="0" x2="105.977" y2="442.6" id="gradient-5">
      <stop offset="0" style="stop-color: rgba(36, 180, 36, 1)"/>
      <stop offset="1" style="stop-color: rgba(19, 95, 19, 1)"/>
    </linearGradient>
  </defs>
  <g>
    <title>Layer 1</title>
    <g id="svg_117">
      <path id="svg_123" fill-rule="evenodd" clip-rule="evenodd" d="M 102.018 12.22 C 111.144 7.19 113.687 1.319 124.36 3.079 C 132.371 4.401 146.76 17.994 146.702 30.498 C 146.644 42.948 131.764 51.185 133.5 64.012 C 134.254 69.574 138.655 73.943 143.657 74.166 C 155.449 74.693 170.403 42.526 189.353 51.825 C 196.882 55.519 202.05 63.529 199.51 75.181 C 199.044 77.32 197.146 80.237 197.477 83.307 C 198.226 90.233 206.92 91.482 209.662 99.555 C 212.128 106.802 209.107 111.234 208.65 121.896 C 201.609 133.693 189.58 139.499 175.135 146.269 C 163.358 151.791 153.203 155.163 149.747 168.611 C 152.507 181.129 165.535 179.227 177.165 173.688 C 181.998 171.388 186.577 166.932 191.383 166.579 C 196.14 166.232 206.276 169.844 208.65 172.673 C 215.967 181.397 209.889 194.684 202.556 202.123 C 203.111 208.169 207.251 210.491 207.632 215.326 C 208.932 231.754 191.453 238.305 180.214 244.776 C 173.473 243.156 168.406 242.518 159.904 245.791 C 149.618 249.747 139.641 255.02 140.607 268.134 C 148.195 277.423 162.719 266.621 170.055 275.242 C 177.302 283.756 170.194 296.557 162.95 303.679 C 158.533 305.354 152.439 305.354 149.747 308.754 C 153.574 326.095 143.539 337.525 128.42 339.221 C 124.354 342.935 124.249 348.566 122.329 353.436 C 120.817 357.27 117.784 360.061 117.25 364.609 C 116.64 369.804 119.654 381.639 119.28 391.011 C 119.124 394.955 118.115 399.825 118.265 401.169 C 119.132 408.909 123.396 413.265 122.328 419.447 C 121.358 425.059 115.157 428.256 113.188 432.647 C 110.216 434.756 105.315 434.935 103.032 437.725 C 99.937 438.55 98.653 444.791 94.907 441.789 C 91.899 430.837 101.458 421.072 103.032 409.289 C 105.337 392.022 99.641 374.455 101 357.498 C 98.185 353.545 95.611 349.347 94.907 343.283 C 90.755 338.548 89.469 333.07 82.721 330.077 C 75.404 326.836 68.626 329.973 63.426 323.986 C 62.123 322.486 62.149 319.202 60.379 317.892 C 56.708 315.171 51.264 316.227 48.192 312.816 C 45.219 309.51 43.615 297.587 48.192 291.49 C 52.629 285.58 69.96 284.988 70.533 273.211 C 71.338 256.702 52.773 262.826 38.036 261.023 C 27.09 259.682 6.623 244.59 4.524 232.586 C 3.253 225.32 5.199 223.005 7.571 216.339 C 1.399 206.522 -0.471 187.536 11.633 184.858 C 15.853 183.924 19.332 186.733 24.835 187.905 C 39.182 190.958 57.837 169.005 55.301 164.548 C 53.872 162.038 50.601 157.341 48.192 155.409 C 38.889 147.944 23.051 147.279 13.664 141.191 C -0.562 131.966 -5.935 108.858 8.587 95.491 C 5.399 78.925 10.71 63.457 30.931 67.058 C 40.619 74.635 48.698 83.82 61.397 88.385 C 65.89 86.785 68.984 83.786 71.553 80.26 C 73.915 62.069 51.888 48.653 54.288 26.436 C 55.599 14.312 67.996 -0.791 82.724 0.032 C 92.687 0.59 93.51 8.443 102.018 12.22 Z" style="fill: url(#gradient-5); fill-opacity: 0.32;"/>
    </g>
  </g>
</svg>