<?xml version="1.0" encoding="utf-8"?>
<svg viewBox="80.844 -80.846 243.5 405.187" width="243.5" height="405.187" xmlns="http://www.w3.org/2000/svg">
  <defs>
    <linearGradient gradientUnits="userSpaceOnUse" x1="202.929" y1="-1.045" x2="202.929" y2="245.032" id="gradient-0" gradientTransform="matrix(-0.054578, 0.99851, -1.392602, -0.076118, 399.431831, -73.613452)">
      <stop offset="0" style="stop-color: rgb(221, 224, 152);"/>
      <stop offset="1" style="stop-color: rgb(7, 147, 4);"/>
    </linearGradient>
  </defs>
  <g transform="matrix(0, -1, 1, 0, 80.846497, 324.342499)">
    <title>Layer 1</title>
    <g id="svg_1">
      <path id="svg_22" fill-rule="evenodd" clip-rule="evenodd" d="M 219.461 6.203 C 219.493 6.202 219.524 6.202 219.554 6.203 C 218.668 4.139 216.847 7.512 219.461 6.203 Z M 400.622 132.091 C 399.988 132.733 402.527 133.807 402.525 134.176 C 402.511 136.857 395.814 135.587 394.415 136.108 C 393.715 136.369 395.903 137.092 395.842 137.836 C 395.68 139.797 392.024 138.868 390.064 139.039 C 388.272 139.196 387.672 140.675 386.494 140.924 C 385.464 141.142 384.275 137.197 383.266 139.12 C 382.752 140.099 384.35 141.047 384.854 142.031 C 385.277 142.856 383.623 143.551 382.742 143.839 C 377.569 145.531 376.833 143.814 368.663 143.33 C 368.197 143.302 369.364 143.948 369.702 144.27 C 370.775 145.293 373.485 146.999 372.295 147.884 C 367.539 151.422 367.013 152.334 359.095 152.992 C 357.126 153.156 352.608 151.051 353.169 152.945 C 354.151 156.258 358.823 158.439 358.438 161.873 C 358.2 163.991 353.777 162.906 352.93 163.646 C 352.281 164.213 354.811 164.79 354.595 165.625 C 354.202 167.144 351.393 166.084 350.073 166.933 C 348.742 167.789 349.665 170.921 348.119 171.26 C 347.403 171.417 347.556 169.872 347.058 169.333 C 346.282 168.493 342.077 167.833 341.86 169.137 C 341.019 174.188 346.458 174.365 346.914 177.796 C 347.187 179.848 337.309 183.47 336.203 184.305 C 335.919 184.52 335.625 187.523 334.226 187.213 C 328.579 185.962 338.085 188.926 337.823 192.07 C 337.504 195.911 330.213 194.465 327.424 197.126 C 325.798 198.677 330.561 200.547 332.641 201.397 C 334.524 202.166 334.79 204.927 336.326 206.26 C 338.138 207.833 343.853 208.802 342.149 210.492 C 338.144 214.464 331.605 216.58 326.913 218.28 C 325.648 218.738 324.386 217.127 323.041 217.144 C 321.833 217.159 321.183 219.04 319.976 219.077 C 319.024 219.106 317.404 216.374 317.78 217.249 C 318.739 219.481 322.429 223.759 320.036 224.179 C 318.471 224.453 316.841 223.126 315.31 223.551 C 314.575 223.755 314.801 225.221 314.085 225.485 C 312.519 226.061 310.605 224.033 309.005 224.62 C 308.262 224.893 308.095 226.171 307.312 226.285 C 306.487 226.405 301.89 219.213 302.693 223.723 C 303.197 226.551 308.727 228.327 307.456 230.903 C 306.477 232.887 302.971 230.49 301.723 230.743 C 300.894 230.911 301.187 232.685 300.366 232.888 C 299.298 233.152 298.272 231.881 297.181 232.023 C 296.447 232.119 296.469 233.52 295.759 233.729 C 293.485 234.399 291.878 230.292 289.508 230.339 C 288.177 230.365 291.073 232.507 291.669 233.698 C 292.198 234.754 293.463 241.87 290.577 241.512 C 289.103 241.329 289.107 238.773 287.841 237.996 C 286.587 237.226 285.937 240.536 285.379 240.689 C 283.034 241.331 280.774 239.126 278.453 238.4 C 276.381 237.752 274.438 236.631 272.296 236.277 C 271.152 236.088 271.609 238.051 270.567 238 C 270.377 237.991 268.881 235.64 268.855 235.936 C 268.589 238.931 271.732 243.705 268.998 244.956 C 267.433 245.672 264.599 241.093 262.351 241.641 C 261.591 241.826 261.657 243.335 260.887 243.477 C 259.753 243.687 259.088 242.022 258.102 241.423 C 257.29 240.93 256.936 243.03 256.559 243.093 C 252 243.85 248.834 237.961 244.66 235.978 C 244.263 235.789 244.97 236.819 244.979 237.259 C 245.016 238.962 245.865 241.179 244.635 242.358 C 242.868 244.053 240.114 241.539 238.569 241.128 C 237.543 240.855 237.818 243.502 236.791 243.77 C 234.659 244.326 233.569 240.899 231.704 240.601 C 231.006 240.489 230.877 241.988 230.519 242.011 C 228.768 242.124 228.128 239.319 226.549 238.552 C 225.631 238.106 224.55 239.309 223.545 239.136 C 222.804 239.009 222.972 237.562 222.28 237.267 C 221.226 236.817 221.99 240.206 220.86 240.398 C 219.045 240.706 217.675 238.254 215.841 238.093 C 214.888 238.009 214.882 240.336 213.931 240.235 C 211.851 240.013 208.38 236.058 205.78 235.657 C 205.657 235.638 203.979 239.893 202.683 239.768 C 200.877 239.594 200.06 237.089 198.356 236.467 C 196.984 235.966 195.404 237.814 194.048 237.271 C 192.828 236.783 192.987 234.783 192.027 233.885 C 190.649 232.596 190.159 234.832 189.263 234.607 C 187.671 234.207 187.883 231.437 186.527 230.511 C 185.231 229.626 184.403 234.573 183.084 233.722 C 181.376 232.62 179.792 229.578 177.493 228.743 C 177.277 228.665 176.312 230.135 175.97 230.115 C 173.968 230.001 173.235 227.171 171.717 225.861 C 171.084 225.315 170.961 227.613 170.151 227.818 C 168.651 228.199 168.094 226.712 167.083 225.944 C 166.5 225.501 165.512 228.154 165.36 228.171 C 164.256 228.296 163.748 223.684 162.739 224.686 C 159.879 227.524 160.553 225.013 156.95 221.567 C 156.082 220.737 155.751 224.429 154.561 224.266 C 153.332 224.098 152.889 222.337 151.766 221.811 C 150.878 221.395 149.914 223.175 149.001 222.818 C 147.791 222.345 148.258 219.829 147.01 219.466 C 145.704 219.086 144.307 221.094 143.07 220.528 C 140.713 219.449 140.266 215.845 137.956 214.668 C 135.2 213.264 137.476 216.769 135.915 216.459 C 133.756 216.031 133.419 214.159 130.236 213.852 C 126.131 213.456 124.845 207.42 121.328 205.265 C 117.577 202.967 120.912 207.62 119.39 207.463 C 111.733 206.674 106.195 199.532 99.567 195.619 C 99.365 195.5 97.953 196.908 97.136 196.311 C 93.087 193.352 90.549 188.716 86.829 185.353 C 85.751 184.378 84.019 184.212 83.109 183.079 C 81.526 181.107 81.111 186.584 79.495 185.231 C 77.898 183.894 79.244 180.858 78.049 179.152 C 77.413 178.244 72.049 175.707 71.746 175.643 C 69.739 175.217 70.082 171.826 68.744 170.271 C 68.192 169.63 67.582 172.02 66.754 171.847 C 64.792 171.438 64.936 168.251 63.73 166.65 C 62.953 165.618 61.098 166.497 59.913 165.983 C 57.565 164.964 58.977 160.861 57.745 158.618 C 57.2 157.625 55.731 157.451 55.056 156.541 C 54.692 156.05 52.898 150.8 52.336 150.148 C 51.491 149.168 49.537 149.647 48.774 148.601 C 47.352 146.654 46.072 139.026 44.35 136.656 C 43.77 135.858 42.596 138.036 41.899 137.222 C 38.298 133.016 43.328 123.693 38.512 120.96 C 27.185 114.533 16.72 121.099 6.47 123.553 C 4.199 124.097 -2.106 119.519 -1.127 116.707 C 1.578 108.939 20.228 113.809 24.93 111.329 C 26.486 110.508 24.542 99.55 24.606 99.092 C 24.893 97.033 26.527 95.368 27.058 93.359 C 27.476 91.778 27.589 90.091 27.415 88.465 C 27.34 87.767 25.934 87.225 26.341 86.653 C 27.076 85.619 30.506 88.562 31.122 85.406 C 31.47 83.624 29.73 81.417 30.823 79.967 C 31.771 78.709 34.42 79.689 35.267 78.361 C 36.028 77.169 34.903 75.497 35.218 74.118 C 35.491 72.924 37.659 73.534 38.87 73.716 C 40.104 73.902 45.536 63.01 47.085 62.765 C 48.563 62.531 49.044 67.647 49.787 66.349 C 51.708 62.994 51.498 58.061 54.646 55.816 C 55.054 55.525 57.332 56.8 57.369 56.642 C 57.646 55.443 55.955 54.122 56.546 53.043 C 57.371 51.537 60.254 52.812 61.5 51.631 C 62.449 50.731 61.499 48.781 62.369 47.804 C 62.966 47.134 64.301 47.997 65.043 47.493 C 66.603 46.434 65.678 42.84 67.348 42.013 C 68.636 41.375 69.965 45.767 70.8 44.597 C 72.882 41.679 73.024 36.867 76.264 35.334 C 77.256 34.865 78.271 37.189 79.257 36.707 C 81.501 35.61 80.606 32.136 83.429 31.594 C 84.23 31.44 85.045 32.896 85.723 32.443 C 87.823 31.041 88.119 26.858 90.638 26.677 C 92.031 26.577 91.719 31.608 92.481 30.438 C 93.79 28.428 95.751 20.773 96.678 20.195 C 98.113 19.3 99.549 24.884 100.526 23.503 C 101.755 21.767 102.206 18.321 104.332 18.383 C 104.564 18.39 105.688 20.023 105.856 19.91 C 107.675 18.684 108.483 16.099 110.508 15.256 C 111.694 14.762 112.187 18.819 113.194 18.021 C 114.711 16.818 115.202 14.692 116.442 13.204 C 116.861 12.701 117.249 11.743 117.889 11.878 C 118.211 11.946 117.346 15.187 119.137 13.746 C 120.655 12.525 120.49 8.76 122.288 10.011 C 124.596 11.616 125.635 9.298 127.729 8.287 C 129.976 7.201 130.254 8.048 132.092 8.936 C 133.305 9.522 133.613 6.515 134.85 5.981 C 136.018 5.477 135.953 10.089 136.877 9.215 C 143.518 2.934 148.829 2.255 158.536 0.607 C 160.253 0.316 158.306 7.35 158.418 8.827 C 158.423 8.893 162.016 4.3 162.267 4.309 C 163.011 4.336 162.952 6.53 163.573 6.12 C 165.238 5.023 175.962 -4.861 176.56 2.28 C 176.564 2.33 180.04 -1.842 181.109 -0.909 C 185.23 2.689 183.345 3.841 182.198 8.631 C 181.875 9.98 183.985 6.423 185.194 5.744 C 189.325 3.424 193.474 -2.029 197.96 -0.505 C 198.751 -0.236 198.156 1.378 198.854 1.837 C 199.944 2.554 201.869 -1.251 203.131 -0.916 C 205.959 -0.166 202.401 9.668 206.281 8.891 C 208.756 8.396 210.714 3.658 212.787 4.105 C 214.058 4.379 212.192 6.279 214.499 5.889 C 216.605 5.533 219.75 2.025 221.631 1.756 C 222.81 1.587 222.681 5.142 223.755 4.628 C 225.479 3.802 226.891 1.909 228.803 1.907 C 229.942 1.906 229.255 5.051 230.387 4.933 C 231.742 4.792 232.856 2.917 233.866 2.942 C 238.197 3.047 234.072 10.707 234.264 10.831 C 236.5 12.272 241.324 6.141 243.422 7.326 C 244.319 7.832 243.719 10.488 245.854 9.464 C 247.702 8.578 249.018 5.552 250.994 6.093 C 252.416 6.482 251.244 9.674 254.416 8.808 C 256.451 8.252 258.028 6.188 260.136 6.1 C 264.555 5.915 260.296 13.066 259.784 14.022 C 259.355 14.823 262.07 14.068 262.355 14.931 C 262.771 16.19 259.598 16.355 259.474 17.675 C 259.418 18.266 260.667 17.567 261.23 17.379 C 263.339 16.675 265.401 15.834 267.466 15.009 C 269.606 14.155 269.059 17.976 271.993 17.118 C 273.906 16.559 275.448 14.355 277.424 14.617 C 284.476 15.553 277.409 24.856 277.492 26.182 C 277.671 29.061 284.732 25.001 284.761 25.004 C 287.713 25.261 295.957 27.221 298.471 27.959 C 301.047 28.716 296.807 30.663 296.391 31.897 C 295.995 33.072 297.299 35.117 296.161 35.61 C 294.76 36.217 290.52 36.934 291.961 37.44 C 295.94 38.837 301.223 36.127 301.498 36.217 C 302.659 36.598 302.15 38.812 303.177 39.474 C 306.074 41.341 309.955 38.601 312.609 39.62 C 313.842 40.093 311.445 42.873 312.559 43.581 C 315.478 45.437 321.566 44.94 321.752 48.394 C 321.807 49.42 318.614 49.825 319.442 50.433 C 322.84 52.93 330.169 52.264 330.564 56.463 C 330.91 60.141 323.578 58.979 320.37 60.811 C 319.042 61.569 322.825 62.72 324.266 63.232 C 326.97 64.193 332.025 63.229 332.392 66.075 C 332.503 66.936 330.186 67.125 330.548 67.914 C 331.417 69.807 335.022 66.714 336.296 68.842 C 336.826 69.727 334.535 71.119 335.326 71.782 C 338.074 74.086 344.948 74.991 343.813 78.392 C 342.84 81.306 337.657 79.072 334.75 80.066 C 333.989 80.326 336.262 80.632 337.048 80.804 C 338.694 81.164 340.487 80.988 342.028 81.669 C 342.894 82.052 341.959 84.211 342.892 84.375 C 344.788 84.708 346.823 84.418 348.621 85.105 C 349.482 85.434 348.237 87.615 349.135 87.823 C 350.611 88.164 355.001 88.402 355.29 90.118 C 355.794 93.11 349.521 93.676 348.958 96.657 C 348.752 97.748 348.607 98.657 348.515 99.408 C 348.794 99.471 349.073 99.549 349.352 99.649 C 349.583 100.49 349.918 101.115 350.318 101.598 C 351.604 100.272 353.165 98.106 353.752 98.791 C 356.729 102.259 360.076 105.245 364.46 108.024 C 364.873 108.286 365.708 108.072 365.831 108.545 C 366.055 109.405 363.241 109.854 363.931 110.414 C 365.021 111.299 367.178 110.693 367.865 111.917 C 368.141 112.409 366.768 113.768 367.341 113.876 C 368.813 114.154 373.483 115.017 373.264 116.846 C 373.164 117.677 366.912 119.29 369.526 119.535 C 372.833 119.844 376.277 116.694 379.361 117.928 C 380.251 118.284 379.022 120.81 379.977 120.736 C 382.362 120.552 384.711 119.655 387.096 119.838 C 388.028 119.909 387.947 122.009 388.881 121.999 C 391.757 121.967 394.469 120.638 397.273 119.998 C 398.535 119.71 396.748 123.364 397.96 123.821 C 400.82 124.899 404.004 125.794 406.126 127.995 C 406.633 128.521 407.324 129.344 407.008 130.003 C 406.797 130.444 401.902 130.795 400.622 132.091 Z M 285.862 32.142 C 286.617 31.975 287.209 31.779 287.489 31.514 C 286.955 31.733 286.411 31.94 285.862 32.142 Z M 285.18 29.679 C 284.246 29.557 283.161 29.597 282.041 29.696 C 283.087 29.739 284.133 29.726 285.18 29.679 Z M 291.201 40.397 C 290.744 40.064 290.296 39.718 289.848 39.369 C 290.269 39.811 290.723 40.144 291.201 40.397 Z" style="fill: url(#gradient-0); fill-opacity: 0.46;"/>
    </g>
  </g>
</svg>