<?xml version="1.0" encoding="utf-8"?>
<svg viewBox="100 30.52 369.947 400.375" width="369.947" height="400.375" xmlns="http://www.w3.org/2000/svg">
  <defs>
    <linearGradient gradientUnits="userSpaceOnUse" x1="284.973" y1="30.52" x2="284.973" y2="430.894" id="gradient-0">
      <stop offset="0" style="stop-color: rgba(24, 165, 71, 1)"/>
      <stop offset="1" style="stop-color: rgba(11, 76, 33, 1)"/>
    </linearGradient>
  </defs>
  <g>
    <title>Layer 1</title>
    <g id="layer1">
      <g id="layer1-1" fill="#ff6600">
        <path id="path2396" d="m136.775604,430.180969c-3.018829,-1.758331 -0.168167,-10.151642 8.943695,-26.333252c8.836777,-15.693085 34.923447,-63.672882 41.424469,-76.189819c2.072784,-3.990845 4.699799,-9.927734 5.83783,-13.193054c4.664627,-13.384033 8.319489,-18.674652 25.06369,-36.280884c12.055359,-12.675903 17.845688,-19.361755 19.455276,-22.464249c1.654663,-3.189392 0.42807,-3.745575 -8.991577,-4.077087c-6.39415,-0.225143 -10.647964,0.076828 -19.991379,1.4189c-17.257477,2.478867 -32.07373,2.269897 -45.632477,-0.643539c-5.213608,-1.120239 -6.504135,-2.107788 -5.899994,-4.514893c0.331299,-1.320038 1.358246,-1.921448 5.815414,-3.405853c4.678421,-1.558044 5.969864,-2.348801 9.515884,-5.826462c4.694122,-4.603714 5.842773,-7.70726 3.93187,-10.623672c-1.460754,-2.229401 -10.08345,-6.460526 -19.758057,-9.695175l-7.973984,-2.666061l-7.474152,0.460281c-8.043411,0.4953 -9.378815,0.130035 -9.378815,-2.565414c0,-1.676682 1.941437,-3.581558 7.915833,-7.766708c2.358246,-1.652023 4.873428,-3.654984 5.589279,-4.450882l1.301544,-1.447174l-5.322372,-5.062698c-5.163818,-4.911789 -5.904358,-6.077225 -7.408676,-11.659225c-1.468643,-5.449539 -16.614609,-20.905548 -27.248314,-27.806046c-5.189323,-3.367523 -6.490593,-4.523926 -6.490593,-5.767853c0,-2.975433 1.384079,-3.358246 8.448463,-2.336243c9.97699,1.443237 31.106834,0.429596 36.303123,-1.741486c1.243683,-0.519623 3.401169,-1.974686 4.794449,-3.233444c3.053207,-2.758438 4.88974,-3.291824 9.006546,-2.616058c1.718689,0.28215 3.718582,0.457535 4.444199,0.389816c3.747238,-0.349716 5.516739,-0.888016 5.859985,-1.782471c0.961777,-2.506317 -4.424911,-21.06266 -8.645157,-29.78138c-2.71698,-5.613014 -6.569839,-9.505135 -14.891571,-15.043106c-5.911133,-3.93383 -7.369492,-5.947884 -5.733795,-7.9188c1.178146,-1.419556 1.81076,-1.291435 9.816727,1.987587c9.866196,4.040848 12.328659,4.0299 20.561478,-0.0914c11.233948,-5.623787 16.015961,-12.387321 14.821198,-20.962807c-0.256927,-1.844063 -0.454117,-3.940918 -0.438202,-4.659515c0.034576,-1.560551 1.999695,-3.16 3.386292,-2.756252c7.311798,2.129211 7.110596,2.120201 8.949768,0.40181c0.951385,-0.888977 2.958267,-3.679539 4.459747,-6.201378c2.96199,-4.974941 3.25473,-7.09457 2.19989,-15.929329c-0.406372,-3.403351 -0.290939,-4.257141 0.749115,-5.541582c2.160706,-2.6684 4.062836,-1.444519 9.632019,6.197451c5.035751,6.91 10.214462,12.17691 13.792114,14.026951c3.136459,1.62199 14.186722,4.182568 18.049774,4.182568c3.323273,0 3.792526,-0.206539 6.745255,-2.96843c3.555283,-3.325558 6.267746,-3.93924 7.014389,-1.586807c0.24118,0.759899 0.234283,5.286716 -0.01532,10.059689l-0.453796,8.67807l3.028137,4.586563c3.163452,4.791504 3.686432,7.154228 2.059692,9.304947c-1.454041,1.922417 -1.220337,3.141319 1.012299,5.279877c1.78244,1.70726 2.440369,1.919205 5.537628,1.783684c4.934692,-0.215797 13.638916,-3.11837 16.969543,-5.658737c3.829895,-2.921165 5.900146,-6.11338 9.49231,-14.636681c6.167389,-14.633774 5.902191,-14.192425 11.790405,-19.624653c4.392578,-4.052532 5.95929,-5.112301 7.55719,-5.112301c2.372375,0 3.111633,1.78231 2.451538,5.910542c-0.362549,2.266991 -0.187958,2.734909 1.572937,4.216629c3.777588,3.178612 13.482361,3.188591 23.083282,0.023762c4.175873,-1.37656 7.627472,-3.220001 13.522888,-7.222191c9.707458,-6.590092 11.529358,-7.54631 14.377319,-7.54631c3.808105,0 4.683167,1.673939 4.864197,9.304871c0.166351,7.014519 2.309082,16.035446 6.277649,26.429161c2.902618,7.601952 4.291809,8.648201 13.912903,10.477615c2.740387,0.520996 4.088715,1.148674 4.800018,2.234215c2.062195,3.147369 -0.29599,5.762375 -12.768005,14.158615c-8.489655,5.71534 -10.905487,7.993919 -13.70401,12.925705c-1.029388,1.814041 -5.575623,8.767036 -10.102753,15.451172c-4.52713,6.684128 -7.805206,11.894043 -7.284607,11.577423c0.52063,-0.316559 3.915009,-2.708923 7.543091,-5.316284c8.931824,-6.419037 11.296539,-7.548889 17.309113,-8.269653c6.977692,-0.836487 7.522278,-1.065155 17.03894,-7.153976c10.696014,-6.843414 11.807281,-7.397583 14.343323,-7.151985c2.684692,0.260094 3.030396,2.051025 1.119049,5.797562c-0.765076,1.49968 -1.217377,3.274109 -1.005035,3.943024c0.594635,1.873543 6.514282,7.593727 9.155609,8.847084c7.058594,3.349548 24.897461,5.541016 30.378906,3.731964c1.374695,-0.453674 4.861115,-2.442291 7.747681,-4.419159c6.162598,-4.220505 8.663177,-4.550964 8.992828,-1.188293c0.158844,1.620239 -0.816071,3.357056 -5.176208,9.22168c-6.843719,9.205261 -9.28949,14.002472 -11.53595,22.627228c-0.808228,3.103165 -0.801758,3.805099 0.050262,5.45285c0.537903,1.040131 1.594879,2.221329 2.348816,2.624847c3.145782,1.683594 6.531342,5.401215 6.531342,7.171936c0,2.642548 -0.962738,3.526794 -8.905304,8.178741c-9.800751,5.740387 -11.713348,7.628189 -13.511292,13.336212c-0.795288,2.524826 -1.608582,7.011459 -1.807343,9.970322c-0.309753,4.611282 -0.1604,5.794662 1.045349,8.285507c0.773712,1.598236 2.223785,3.673981 3.222443,4.612808c2.020874,1.899811 17.444641,12.942368 22.381531,16.023865c3.307831,2.064804 4.171356,3.687363 2.825531,5.308945c-1.115601,1.344284 -6.00528,1.222366 -16.894104,-0.421066c-15.86911,-2.395081 -25.57785,-0.924393 -42.118439,6.380157c-6.784302,2.995972 -7.704285,3.227173 -14.145966,3.554169l-6.889771,0.349808l4.446625,3.60321c5.799011,4.698975 7.552856,7.477112 12.045105,19.079895c2.052734,5.301941 4.630371,11.272552 5.728058,13.267944c2.322968,4.222809 10.010742,15.573578 16.307373,24.077301c8.261475,11.157318 13.800415,22.184662 12.91507,25.712158c-0.329102,1.31134 -0.832428,1.663422 -2.378021,1.663422c-1.548462,0 -3.452423,-1.33783 -9.057648,-6.364319c-8.582245,-7.696136 -13.575531,-10.279694 -22.918243,-11.858124c-5.297211,-0.894928 -7.31012,-0.947601 -12.209991,-0.319183c-7.237946,0.928223 -16.555542,3.566742 -20.284729,5.74408c-3.65564,2.13446 -4.627625,4.180664 -5.735382,12.074341c-1.010956,7.204163 -1.696014,9.002502 -3.667633,9.628326c-3.309204,1.050262 -5.061066,-0.862732 -12.885376,-14.071259c-6.403381,-10.809692 -10.420288,-14.805267 -22.419769,-22.300598c-15.309479,-9.562866 -17.120819,-10.046326 -21.53125,-5.746735c-1.4328,1.39682 -4.41391,5.35965 -6.624664,8.806335c-2.210754,3.446747 -5.428162,7.913727 -7.14978,9.926727c-5.940735,6.946259 -6.569153,8.218353 -6.569153,13.296539c0,2.512909 -0.307312,5.143066 -0.682861,5.844818c-0.780701,1.458679 -2.777283,1.681091 -3.819366,0.425415c-0.388214,-0.467712 -1.031647,-5.43988 -1.429901,-11.049103c-1.167114,-16.440094 -1.847534,-19.146088 -8.139709,-32.370728c-2.163055,-4.546112 -4.937195,-12.053772 -6.824921,-18.470245c-3.479645,-11.827118 -8.620773,-23.08197 -11.502625,-25.18103c-1.636719,-1.192169 -1.835327,-1.200073 -3.859421,-0.15332c-4.819916,2.492432 -25.788742,23.685547 -33.29747,33.653595c-4.525146,6.007324 -6.358398,9.323395 -14.483215,26.198151c-3.718155,7.722412 -12.555801,24.133331 -19.639221,36.468811c-13.973389,24.334198 -24.723938,44.040009 -28.182037,51.657898c-1.677429,3.695343 -2.300476,6.162476 -2.665344,10.554443c-0.261902,3.152588 -0.833893,6.398834 -1.271103,7.213959c-1.719131,3.205109 -9.555618,5.296082 -12.789474,3.412445l0.000031,0z" style="fill: url(#gradient-0); fill-opacity: 0.33;"/>
      </g>
    </g>
  </g>
</svg>