<?xml version="1.0"?><svg width="485.43121" height="798.36316" xmlns="http://www.w3.org/2000/svg" xmlns:xlink="http://www.w3.org/1999/xlink">
 <defs>
  <linearGradient id="linearGradient6186">
   <stop stop-color="#fb8a00" id="stop6188" offset="0"/>
   <stop stop-color="#fdca01" id="stop6190" offset="1"/>
  </linearGradient>
  <linearGradient xlink:href="#linearGradient6186" id="linearGradient3038" x1="0.80555" y1="0.052149" x2="0.146744" y2="1.008026"/>
 </defs>
 <metadata id="metadata2839">image/svg+xml</metadata>
 <g>
  <title>Layer 1</title>
  <g id="layer1">
   <path fill="url(#linearGradient3038)" id="path6184" d="m42.521881,798.363403l6.821991,-30.569946l1.217987,-22.381104c0,0 -3.588989,-9.295898 -1.685974,-13.590942c1.901978,-4.295044 4.205994,-10.387939 4.205994,-10.387939l-3.990021,-7.498047l1.508026,-10.98999l-5.587006,-8.797974l-0.290009,-11.390991l-7.289001,-5.4021l2.407013,-10.789917c0,0 -10.789001,-2.406982 -6.188995,-6.100098c4.598999,-3.692993 -1.390015,-10.692993 -1.390015,-10.692993l-4.384003,-14.192993c0,0 -3.097992,1.196045 -6.092987,-2.302979c-2.994019,-3.5 -5.588013,-8.797974 -3.886017,-12.19397c1.701996,-3.395996 1.212006,-13.888062 1.212006,-13.888062l-6.085999,-10.796997c0,0 -8.493011,-0.006958 -7.988007,-6.501953c0.506012,-6.494995 4.110016,-14.184998 4.110016,-14.184998l-1.188995,-11.59198l-5.88501,-11.696045c0,0 -2.095001,-3.29895 0.505005,-6.494995c2.600983,-3.194946 -0.08902,-12.289978 -0.08902,-12.289978l-2.488983,-9.993958l7.803009,-9.58606l-3.790009,-8.395996l9.496979,-4.487976l-4.086975,-11.295013l6.300995,-7.088989l-4.791992,-3.901001l4.205994,-10.388l3.306,-10.58902l8.203979,-11.384003l-4.688995,-8.596985l4.70401,-8.389008l0.112,-13.190002l10.5,-8.983002l-7.385986,-9.199982l18.992981,-8.975006l20.397003,-15.269989l6.406006,-11.785004l26.988007,-10.96701l18.888977,-4.279999l18.584015,1.315002l23.578003,4.317993l17.276001,11.406006l15.484985,2.511993l18.279999,6.911011l14.971985,17.5l27.263,17.410004c0,0 14.378052,11.703979 16.27301,15.901978c1.89502,4.199005 10.580994,11.800018 13.872986,18.197998c3.292053,6.39801 7.282043,13.896027 7.282043,13.896027l8.990967,2.005981c0,0 13.807007,-19.571991 15.210999,-25.865997c1.405029,-6.294006 15.03302,-50.446991 15.03302,-50.446991l13.635986,-52.645996l13.338989,-55.544006l9.045044,-57.447006l2.862,-72.040298l6.346008,-58.048485l6.636963,-46.657211l0.335022,-39.568405l23.576965,4.317604l-12.53595,51.9478l-13.860046,79.025208l-9.467957,84.724792l-7.558044,71.936005l-21.653992,80.117981l-13.33197,47.051025l-11.117004,28.666992l-12.105042,16.175995l30.860046,18.213989l33.860962,13.219025l29.567017,11.317993l29.254028,25.406006l13.679993,10.604004l16.570007,18.799988l-1.613037,15.686035c0,0 8.478027,16.994019 11.674011,19.594971c3.195007,2.600952 13.768005,22.894043 13.768005,22.894043l-6.911011,18.278931l-7.505005,12.484009l-7.104004,10.685059l-0.914001,16.786011l-12.289978,0.088989l-7.713989,21.875977l-8.291992,-0.906982l-14.296997,9.079956l-4.206055,10.387939l-11.093994,3.18811l-6.91095,18.278931l-14.185059,-4.109009l-8.901978,10.284058l-7.490967,-4.503052l-6.80603,13.583008l-9.489014,-4.005981l-13.703003,14.875977l-14.184998,-4.109009l-14.89801,11.776978l-8.888,-6.701904l-8.596985,4.687988l-14.890991,3.284912l-18.984985,0.482056c0,0 -12.098022,7.682983 -13.799011,11.078979c-1.702026,3.395996 -13.687988,-2.109985 -13.687988,-2.109985l-14.890991,3.284058l-11.688019,-2.609009l-13.494995,5.484009l-12.08902,-0.810059l-12.988983,-1.010986l-19.980988,-3.515015l-19.186005,1.381958l-18.488007,2.481079l-13.888,-1.21106l-22.485016,3.477051l-27.983978,6.969971l0,0z"/>
  </g>
 </g>
</svg>