<?xml version="1.0" encoding="utf-8"?>
<svg viewBox="64.774 329.674 10.604 9.781" width="10.604" height="9.781" xmlns="http://www.w3.org/2000/svg">
  <path d="M 68.148 329.789 L 72.042 329.789 C 72.581 329.789 73.019 330.228 73.019 330.77 L 73.019 332.243 L 74.294 332.243 C 74.833 332.243 75.273 332.682 75.273 333.225 L 75.273 336.099 C 75.273 336.64 74.833 337.079 74.294 337.079 L 73.019 337.079 L 73.019 338.407 C 73.019 338.947 72.581 339.386 72.042 339.386 L 68.148 339.386 C 67.607 339.386 67.171 338.947 67.171 338.407 L 67.171 337.079 L 65.88 337.079 C 65.34 337.079 64.903 336.64 64.903 336.099 L 64.903 333.225 C 64.903 332.682 65.34 332.243 65.88 332.243 L 67.171 332.243 L 67.171 330.77 C 67.171 330.228 67.607 329.789 68.148 329.789 Z" style="fill: rgb(255, 255, 255); stroke: rgb(0, 0, 0); stroke-width: 0.1px;"/>
  <path d="M 64.784 332.166 L 75.408 332.166 L 75.408 337.139 L 64.784 337.139 L 64.784 332.166 Z M 67.099 329.683 L 73.074 329.683 L 73.074 339.467 L 67.099 339.467 L 67.099 329.683 Z" style="fill: rgb(216, 216, 216);"/>
</svg>