<?xml version="1.0" encoding="utf-8"?>
<svg viewBox="0 0 500 500" xmlns="http://www.w3.org/2000/svg">
  <path stroke-width="0" d="M 391.275 118.726 C 394.022 116.082 396.717 117.067 397.496 120.101 C 398.88 120.346 400.38 121.378 401.399 124.314 C 402.599 127.772 403.548 135.398 404.284 145.425 C 405.406 145.886 406.416 146.634 407.12 147.827 C 407.289 148.113 407.449 148.427 407.601 148.769 C 408.526 149.684 409.291 150.812 409.792 152.146 C 410.749 154.695 410.713 159.156 410.044 164.814 C 410.437 175.764 409.641 189.604 408.62 201.088 C 408.095 206.993 407.36 213.527 406.419 220.326 C 406.419 220.549 406.42 220.772 406.42 220.994 C 406.35 221.268 406.28 221.542 406.21 221.818 C 404.117 236.556 401.071 252.401 397.117 265.699 C 397.133 266.713 397.227 267.561 397.41 268.216 C 398.692 272.8 403.904 273.141 406.432 271.967 C 408.644 270.939 411.335 265.652 412.491 261.817 C 416.907 255.636 420.046 242.642 423.529 240.583 C 425.826 239.225 429.237 240.174 430.144 242.833 C 430.966 245.243 430.067 250.895 428.533 257.014 C 430.181 256.149 431.661 255.549 432.9 255.298 C 438.441 254.178 444.674 257.124 445.653 260.549 C 446.858 264.764 438.879 276.1 434.401 280.804 C 430.658 284.735 424.028 286.292 421.648 288.305 C 420.274 289.468 421.015 290.033 419.398 291.306 C 416.193 293.826 403.782 301.795 398.185 303.121 C 397.723 303.544 397.286 303.969 396.879 304.394 C 392.259 309.221 388.601 316.056 386.655 318.647 C 385.705 319.911 385.714 319.64 384.851 320.897 C 383.201 323.299 379.634 330.264 377.032 333.65 C 374.823 336.524 373.028 337.155 370.416 340.401 C 366.651 345.082 360.134 351.372 356.584 360.656 C 352.046 372.522 349.4 395.217 348.164 408.666 C 347.191 419.25 345.88 426.394 348.164 435.671 C 349.946 442.912 354.888 454.238 359.456 461.823 C 359.27 462.805 359.045 463.766 358.778 464.704 C 357.163 470.362 354.023 474.968 350.358 479.707 C 348.228 482.461 344.414 485.12 341.076 487.694 C 328.196 487.688 318.744 482.883 309.438 483.153 C 301.207 483.392 293.153 487.478 287.786 487.654 C 284.113 487.775 282.618 485.732 279.367 486.154 C 275.263 486.686 273.507 490.772 264.932 492.155 C 260.563 492.86 253.851 493.263 245.729 493.462 C 244.094 494.079 242.453 494.608 240.8 495.021 C 225.862 498.759 213.191 500.046 196.577 498.197 C 188.473 497.295 178.398 495.183 168.222 492.497 C 161.685 492.343 155.713 492.217 150.662 492.155 C 145.207 492.088 139.86 492.135 134.712 492.208 C 132.445 488.435 129.089 481.461 127.874 474.989 C 126.224 466.198 125.955 454.709 127.874 443.483 C 130.101 430.455 140.081 414.502 142.308 401.474 C 144.228 390.248 143.876 378.66 142.308 369.967 C 140.998 362.701 139.279 357.657 135.091 351.964 C 129.76 344.714 114.979 337.153 110.433 331.709 C 109.661 330.784 109.126 329.874 108.714 328.999 C 108.806 326.266 108.702 323.427 108.363 321.042 C 107.87 317.589 106.288 315.049 104.704 311.911 C 100.518 309.455 95.465 306.573 92.294 303.402 C 87.043 298.151 84.024 288.986 79.541 284.648 C 75.94 281.163 70.273 280.407 68.289 277.897 C 66.821 276.039 66.598 273.942 66.789 271.896 C 66.993 269.698 68.458 266.491 69.789 265.144 C 70.795 264.126 71.415 263.479 73.31 263.623 C 68.329 246.243 64.663 216.261 64.599 209.61 C 64.572 206.953 65.1 206.734 65.801 205.859 C 66.503 204.984 67.636 204.221 68.809 204.359 C 70.327 204.537 72.688 204.811 74.221 208.109 C 76.053 212.053 76.835 223.534 77.718 234.532 C 78.968 234.806 80.368 235.463 81.612 236.768 C 82.956 238.178 84.254 241.077 85.595 244.502 C 85.56 248.591 85.961 252.55 87.129 256.366 C 88.996 262.468 93.952 272.412 97.352 273.62 C 99.963 274.547 103.889 272.651 105.171 268.369 C 107.215 261.542 103.954 234.931 100.526 223.872 C 101.009 216.247 101.829 210.577 101.38 203.565 C 100.789 194.366 97.089 186.129 96.725 176.578 C 96.437 169.007 96.747 156.549 97.985 149.296 C 97.975 147.395 98.03 145.759 98.156 144.429 C 98.91 136.457 101.83 134.739 104.556 132.523 C 105.512 131.745 106.654 131.197 107.855 130.862 C 107.549 133.067 107.453 136.287 107.521 139.926 C 107.854 139.802 108.24 139.73 108.727 139.721 C 111.172 139.675 116.959 138.164 119.979 143.472 C 124.442 151.314 124.341 180.039 124.992 208.116 C 125.622 208.625 126.209 209.202 126.725 209.855 C 131.377 215.734 132.818 236.254 136.477 242.112 C 138.591 245.497 141.582 243.775 143.228 247.363 C 146.206 253.853 141.966 273.892 146.229 284.871 C 150.383 295.569 160.888 307.952 167.984 312.627 C 170.329 314.172 172.589 315.006 174.858 315.421 C 175.325 315.376 175.786 315.322 176.241 315.258 C 178.613 314.926 181.178 313.602 183.746 311.868 C 185.704 308.822 186.918 305.166 187.594 301.932 C 188.229 298.896 188.315 294.755 187.814 291.434 C 188.031 290.319 188.174 289.185 188.228 288.101 C 188.381 285.018 187.811 280.109 186.832 275.648 C 186.696 271.44 186.353 267.409 185.828 264.219 C 185.785 263.956 185.74 263.694 185.694 263.435 C 185.301 252.82 180.663 232.697 176.26 220.22 C 176.266 220.206 176.272 220.192 176.278 220.178 C 173.174 212.623 170.302 204.7 169.033 197.173 C 165.746 177.678 166.144 143.315 169.033 134.16 C 169.551 132.518 170.139 131.462 170.827 130.732 C 170.949 128.74 171.159 126.947 171.473 125.379 C 172.647 119.523 175.112 117.057 177.874 115.06 C 179.431 113.935 181.447 113.18 183.494 112.941 C 183.206 117.659 182.983 122.839 182.813 128.201 C 183.823 128.608 184.759 129.303 185.536 130.409 C 192.367 140.141 189.508 198.616 194.538 218.177 C 197.724 230.57 204.753 236.114 206.54 243.683 C 207.983 249.792 204.561 253.211 206.54 260.186 C 209.591 270.937 218.978 296.545 229.795 302.945 C 231.089 303.711 232.574 304.179 234.189 304.424 C 238.977 303.386 242.776 300.806 245.941 297.864 C 249.297 294.743 251.621 292.781 253.443 285.861 C 254.785 280.763 255.859 271.275 256.55 260.63 C 256.144 259.03 255.672 257.531 255.129 256.177 C 254.336 241.042 251.232 216.658 247.788 200.266 C 247.965 197.574 248.194 195.216 248.487 193.288 C 248.537 192.957 248.591 192.637 248.648 192.325 C 246.268 174.397 245.848 130.187 248.942 117.826 C 250.468 111.728 252.593 108.949 255.693 108.074 C 255.871 108.024 256.058 107.978 256.254 107.938 C 255.064 106.481 253.616 105.305 252.331 104.521 C 252.502 103.111 252.721 101.978 252.993 101.165 C 254.056 97.995 255.89 99.867 257.066 98.784 C 258.207 97.733 258.527 95.179 259.975 94.815 C 260.357 94.719 260.814 94.658 261.321 94.65 C 261.638 98.223 262.724 103.372 263.897 108.934 C 265.704 109.806 267.356 111.209 268.446 113.325 C 274.114 124.327 265.783 174.764 268.446 191.342 C 270.018 201.129 274.533 202.668 275.948 210.846 C 277.791 221.502 276.447 237.859 275.948 251.354 C 275.557 261.928 276.329 273.859 274.813 283.95 C 275.63 290.339 276.879 296.112 278.512 299.541 C 280.504 303.722 283.842 305.59 286.331 306.293 C 288.418 306.882 290.21 307.598 292.344 304.792 C 297.111 298.529 307.072 267.839 308.583 251.531 C 309.54 241.207 308.138 228.642 306.126 220.04 C 307.078 197.545 306.592 168.223 303.308 160.378 C 303.843 154.579 304.531 148.999 305.619 143.888 C 306.541 138.16 307.579 133.001 308.8 128.554 C 311.444 118.92 314.591 111.156 318.331 107.464 C 319.64 105.038 320.866 103.261 321.921 102.43 C 324.275 100.574 327.75 101.7 328.321 104.811 C 328.346 104.948 328.364 105.094 328.375 105.248 C 328.468 105.277 328.56 105.308 328.651 105.34 C 328.199 106.717 327.743 108.196 327.286 109.754 C 330.246 110.709 333.041 112.353 334.055 114.398 C 334.528 115.352 334.755 116.73 334.786 118.359 C 337.648 119.374 341.038 121.086 342.372 122.702 C 344.042 124.725 344.337 126.528 343.872 130.204 C 343.031 136.856 333.734 151.921 331.869 161.71 C 330.242 170.256 331.53 176.115 331.869 185.715 C 332.307 198.071 334.604 215.424 334.87 230.725 C 335.142 246.415 333.193 266.097 333.37 278.735 C 333.461 285.292 334.744 290.802 335.093 295.562 C 337.001 298.028 339.181 301.633 341.279 305.626 C 346.426 305.436 354.279 302.968 359.11 298.608 C 366.332 292.089 371.735 278.692 376.345 264.92 C 378.695 244.689 378.889 210.806 382.786 191.154 C 384.438 182.827 386.332 173.445 388.503 165.423 C 388.289 160.24 388.325 155.889 389.116 153.078 C 390.271 148.968 392.792 147.674 394.367 146.326 C 395.434 145.413 395.929 144.895 397.306 144.829 C 396.856 137.444 395.997 131.218 394.614 127.931 C 393.172 124.502 390.476 123.037 388.37 122.709 C 389.503 120.845 390.482 119.489 391.275 118.726 Z M 283.479 185.194 C 283.754 182.733 284.061 180.527 284.586 179.092 C 284.288 181.473 283.939 183.611 283.479 185.194 Z" style="stroke-width: 2px; fill: rgb(90, 53, 53);"/>
  <path fill="rgb(255,0,0)" stroke-width="0" opacity="0.9803921568627451" d="M 89.56 158.623 C 88.157 158.992 86.671 159.307 85.149 159.549 C 83.711 158.889 82.349 158.474 81.264 158.34 C 79.436 158.115 78.094 158.84 76.786 159.823 C 74.013 158.803 70.278 157.778 66.04 156.822 C 65.663 156.603 65.292 156.371 64.93 156.125 C 63.264 155.919 61.752 155.612 60.51 155.186 C 60.478 155.175 60.445 155.164 60.413 155.152 C 60.128 154.59 59.754 154.091 59.269 153.687 C 57.804 152.465 55.097 151.63 51.795 151.093 C 51.364 149.65 50.798 148.406 50.256 147.715 C 49.094 146.233 47.053 147.841 45.005 146.215 C 41.254 143.238 35.612 130.185 30.752 125.961 C 30.338 125.601 29.906 125.258 29.462 124.931 C 29.516 116.942 29.137 107.864 31.297 99.986 C 34.988 86.524 42.829 68.439 50.801 59.478 C 57.126 52.367 65.915 48.294 72.555 46.725 C 76.746 45.735 80.251 47.286 84.1 47.953 C 85.303 50.586 86.716 53.246 88.625 54.872 C 91.685 57.477 97.246 60.325 101.552 61.368 C 107.976 77.465 114.63 101.966 116.891 116.677 C 118.831 129.298 120.532 142.352 116.891 148.184 C 114.171 152.54 107.706 157.394 102.638 153.435 C 102.511 153.335 102.381 153.226 102.25 153.106 C 98.266 155.64 93.727 157.528 89.56 158.623 Z M 184.403 123.169 C 183.236 125.699 181.238 128.027 178.402 129.393 C 174.589 131.23 167.482 132.114 161.42 131.54 C 155.931 132.685 150.793 133.135 145.992 130.859 C 139.956 128 133.39 119.835 129.51 113.158 C 127.048 108.921 125.369 104.344 124.195 99.484 C 123.63 98.541 123.072 97.589 122.521 96.631 C 118.699 84.858 115.227 73.673 113.638 65.772 C 111.448 54.883 112.04 43.841 111.5 35.576 C 114.455 27.059 119.763 18.153 125.891 13.869 C 132.657 9.138 146.063 9.342 151.396 9.368 C 154.404 9.383 155.803 11.007 157.398 10.868 C 158.646 10.76 158.726 9.074 160.398 9.368 C 163.639 9.937 174.734 18.002 180.021 21.992 C 181.732 22.233 183.552 22.902 185.044 24.83 C 189.92 31.131 195.111 54.791 197.046 69.089 C 198.861 82.492 198.741 99.428 197.046 108.098 C 195.974 113.582 194.418 117.29 191.795 119.35 C 190.532 120.342 188.708 121.12 186.909 121.394 C 186.114 122.019 185.275 122.61 184.403 123.169 Z M 244.529 117.03 C 242.651 116.585 240.745 115.917 238.851 115.058 C 238.798 115.045 238.744 115.031 238.69 115.017 C 236.027 114.323 232.64 112.833 229.152 110.895 C 225.814 110.928 221.353 109.436 218.35 105.425 C 211.987 96.927 205.914 58.138 204.847 51.414 C 204.515 49.323 204.757 49.971 204.847 48.413 C 205.019 45.441 206.759 36.359 206.347 33.41 C 206.121 31.793 205.091 31.433 204.847 30.409 C 204.613 29.431 204.613 28.388 204.847 27.409 C 205.091 26.385 206.347 25.408 206.347 24.408 C 206.347 23.408 204.869 22.761 204.847 21.408 C 204.815 19.419 206.44 14.713 207.847 13.156 C 208.671 12.245 209.46 11.94 210.63 11.768 C 211.525 10.822 212.342 10.045 213.003 9.509 C 214.734 8.104 214.609 8.368 217.504 8.008 C 224.901 7.09 255.402 4.883 267.014 8.008 C 274.842 10.115 280.121 13.118 283.787 18.524 C 286.252 19.169 288.746 20.464 290.218 23.095 C 295.873 33.201 295.721 77.484 293.219 92.11 C 291.722 100.86 288.224 106.583 284.967 109.363 C 282.71 111.291 279.796 111.426 277.465 110.864 C 277.406 110.85 277.346 110.834 277.286 110.818 C 267.626 115.403 253.483 119.154 244.529 117.03 Z M 333.816 122.654 C 329.345 123.289 324.55 123.35 320.387 122.085 C 318.539 121.523 316.498 120.595 314.409 119.432 C 312.873 119.854 311.2 120.005 309.845 119.678 C 307.409 119.09 304.777 119.046 303.094 114.427 C 298.666 102.275 298.394 31.512 301.594 18.407 C 302.81 13.426 304.267 12.402 306.845 11.655 C 307.71 11.404 308.862 11.163 310.136 11.067 C 314.381 8.978 319.435 7.69 324.647 6.666 C 334.393 4.752 349.546 4.572 359.155 6.666 C 367.25 8.431 374.567 10.931 379.409 16.418 C 383.871 21.475 387.559 29.266 388.299 37.648 C 389.698 38.417 390.794 39.541 391.208 41.187 C 394.05 52.485 369.423 114.513 361.952 122.954 C 359.125 126.149 356.627 124.905 354.45 124.454 C 352.978 124.15 351.498 123.479 350.349 122.293 C 345.399 123.341 339.182 124.06 333.816 122.654 Z M 490.297 107.85 C 488.571 116.878 485.077 128.051 480.729 133.733 C 480.626 134.296 480.509 134.833 480.375 135.342 C 478.795 141.355 474.491 146.177 470.623 149.595 C 468.035 151.882 466.102 153.321 462.755 154.47 C 457.734 154.562 452.389 155.016 448.408 155.598 C 443.891 156.258 438.86 157.347 434.812 158.751 C 426.018 159.377 417.011 159.409 410.954 158.091 C 407.921 159.368 403.373 159.972 400.017 159.079 C 396.016 158.015 391.147 154.593 388.764 150.827 C 387.318 148.541 386.324 144.999 385.874 141.748 C 383.578 140.893 381.475 139.399 380.471 137.125 C 376.715 128.614 381.752 101.146 387.973 83.114 C 391.867 71.827 399.339 55.74 406.749 43.076 C 409.974 41.063 413.488 38.668 416.602 38.169 C 422.857 37.166 427.983 37.001 436.106 39.669 C 443.542 42.112 455.839 48.153 466.64 54.559 C 472.869 65.027 484.618 79.711 488.201 90.275 C 489.987 95.541 490.295 101.64 490.38 107.41 C 490.353 107.557 490.325 107.704 490.297 107.85 Z M 420.259 225.075 C 420.794 213.625 422.037 200.389 424.76 192.068 C 426.815 185.791 431.119 180.39 433.012 177.815 C 433.992 176.481 434.013 176.506 435.262 175.565 C 437.463 173.907 442.159 169.99 446.515 168.813 C 451.289 167.524 458.159 167.443 463.018 168.813 C 463.11 168.839 463.201 168.867 463.292 168.896 C 471.129 169.281 480.309 170.563 483.513 172.577 C 484.806 171.904 486.007 171.503 487.023 171.814 C 490.075 172.749 492.295 176.762 493.774 181.566 C 495.962 188.671 496.351 203.029 495.275 213.073 C 495.101 214.7 494.893 216.446 494.647 218.245 C 495.838 230.282 496.547 243.344 496.662 254.515 C 496.362 255.717 496.036 256.768 495.679 257.631 C 493.294 263.387 490.328 264.403 486.677 268.133 C 482.343 272.561 477.886 280.02 470.924 282.386 C 462.769 285.158 447.638 285.042 439.417 280.886 C 431.606 276.936 426.593 263.644 422.164 259.131 C 421.552 258.508 421 257.932 420.485 257.408 C 419.247 248.841 419.808 234.707 420.259 225.075 Z M 86.596 270.077 C 83.593 280.312 76.976 288.707 69.342 293.332 C 61.718 297.95 50.319 299.6 40.836 297.833 C 30.561 295.918 16.587 290.422 10.08 280.579 C 2.504 269.121 0.638 242.108 2.578 229.568 C 2.791 228.193 3.126 226.852 3.552 225.555 C 3.688 223.008 3.894 220.364 3.99 217.683 C 4.04 216.296 4.103 214.819 4.183 213.279 C 1.924 203.645 0.372 188.442 1.824 181.039 C 2.172 179.261 2.678 177.615 3.309 176.089 C 3.218 174.42 3.385 172.812 3.928 171.58 C 5.477 168.065 10.141 164.868 15.18 163.328 C 19.038 162.149 24.143 161.545 29.607 161.758 C 31.65 163.076 33.791 163.948 36.003 164.219 C 37.725 164.43 39.956 164.223 42.211 163.727 C 53.423 166.749 69.934 173.219 77.443 182.082 C 84.89 190.87 85.971 205.303 87.945 216.589 C 89.817 227.286 90.919 240.002 89.446 248.096 C 88.784 251.734 87.78 255.555 86.333 258.368 C 86.395 260.553 86.624 262.328 87.131 263.527 C 87.324 263.984 87.53 264.378 87.749 264.72 C 87.439 266.7 87.056 268.508 86.596 270.077 Z" style="fill: rgb(103, 168, 109); fill-opacity: 1; fill-rule: nonzero; stroke-dasharray: none; stroke-dashoffset: 0px; stroke-linecap: butt; stroke-linejoin: miter; stroke-miterlimit: 4; stroke-opacity: 1; stroke-width: 1px; paint-order: normal; vector-effect: none; opacity: 1; mix-blend-mode: normal; isolation: auto;"/>
</svg>