<?xml version="1.0" encoding="utf-8"?>
<svg viewBox="7.339 10.877 66.184 87.935" width="66.184" height="87.935" xmlns="http://www.w3.org/2000/svg">
  <path d="M 20.295 40.127 C 21.182 40.436 24.003 40.127 25.046 39.747 C 26.967 39.047 27.628 38.325 26.901 36.886 C 26.159 35.421 24.055 35.314 23.436 33.955 C 23.313 33.684 24.615 32.49 24.741 32.342 C 24.757 32.321 26.767 35.032 27.383 34.667 C 27.989 34.31 27.019 31.732 27.334 31.346 C 27.465 31.186 28.028 31.45 28.203 31.346 C 28.312 31.282 28.971 30.987 29.095 31.129 C 29.282 31.338 28.859 33.873 28.932 34.382 C 29.063 35.288 30.174 36.847 30.798 37.392 C 32.848 39.182 34.994 36.922 34.342 34.356 C 34.155 33.623 31.625 30.106 32.266 29.334 C 32.341 29.243 32.953 29.428 33.083 29.428 C 33.225 29.428 34.197 29.277 34.296 29.388 C 34.646 29.781 34.558 32.696 35.459 32.429 C 36.31 32.179 36.496 27.27 37.851 28.869 C 38.524 29.663 37.065 31.444 36.87 32.337 C 36.083 35.957 38.334 38.234 41.307 37.357 C 43.678 36.658 41.794 31.834 41.59 30.4 C 41.557 30.183 41.001 29.006 41.148 28.828 C 41.27 28.68 42.07 28.782 42.279 28.655 C 42.389 28.588 43.567 32.961 43.87 33.137 C 44.072 33.255 45.327 30.66 45.327 30.432 C 45.327 30.216 45.529 30.845 45.705 30.909 C 46.093 31.049 46.374 31.118 46.804 31.118 C 47.083 31.118 46.302 31.457 46.162 31.736 C 45.903 32.24 45.702 32.794 45.448 33.292 C 44.886 34.397 45.191 36.867 46.349 37.157 C 48.692 37.745 49.837 34.496 50.187 32.443 C 50.33 31.607 49.971 29.524 50.812 29.834 C 52.675 30.523 50.252 34.114 51.209 35.228 C 51.762 35.872 53.33 34.535 54.183 34.222 C 54.298 34.179 54.755 33.364 54.828 33.446 C 55.026 33.674 55.313 34.806 55.636 34.806 C 55.908 34.806 55.111 34.969 54.869 35.109 C 54.436 35.36 54.011 35.684 53.567 35.887 C 52.139 36.543 53.025 36.843 51.588 38.515 C 51.341 38.803 51.494 40.044 51.927 40.421 C 53.798 42.049 54.371 40.388 55.969 39.29 C 56.149 39.166 57.779 37.539 57.813 37.578 C 58.018 37.815 59.568 39.03 59.602 39.112 C 59.723 39.388 58.12 40.71 57.907 40.922 C 56.326 42.484 53.795 43.193 52.689 45.362 C 51.337 48.014 51.841 51.319 52.348 53.867 C 52.981 57.04 53.692 59.119 54.491 62.235 C 54.918 63.898 55.723 66.199 55.891 67.896 C 56.536 74.471 56.753 76.042 56.527 84.508 C 56.4 89.271 55.535 95.551 51.053 97.112 C 45.398 99.082 38.385 99.94 33.549 96.321 C 31.81 95.02 30.972 91.827 30.173 89.467 C 28.876 85.631 28.688 84.106 28.688 80.282 C 28.688 73.847 29.181 70.659 29.658 64.254 C 29.841 61.809 30.676 58.125 31.036 55.751 C 31.345 53.716 31.894 50.603 31.905 49.907 C 31.924 48.604 31.909 47.371 31.725 46.073 C 31.205 42.433 26.055 43.326 22.162 43.036 C 20.686 42.926 20.853 42.887 20.33 42.308 C 18.748 40.555 18.79 44.514 18.79 42.205" style="fill: rgb(105, 60, 29);"/>
  <circle style="fill: rgb(35, 111, 32);" cx="65.391" cy="34.987" r="8.132"/>
  <circle style="fill: rgb(35, 111, 32);" cx="57.469" cy="27.003" r="8.132"/>
  <circle style="fill: rgb(35, 111, 32);" cx="46.392" cy="22.942" r="8.132"/>
  <circle style="fill: rgb(35, 111, 32);" cx="34.597" cy="21.926" r="8.132"/>
  <circle style="fill: rgb(35, 111, 32);" cx="22.547" cy="26.021" r="8.132"/>
  <circle style="fill: rgb(35, 111, 32);" cx="15.471" cy="36.478" r="8.132"/>
  <circle style="fill: rgb(35, 111, 32);" cx="13.997" cy="27.881" r="5.069"/>
  <circle style="fill: rgb(35, 111, 32);" cx="26.377" cy="18.094" r="5.069"/>
  <circle style="fill: rgb(35, 111, 32);" cx="41.048" cy="15.946" r="5.069"/>
  <circle style="fill: rgb(35, 111, 32);" cx="54.139" cy="18.88" r="5.069"/>
  <circle style="fill: rgb(35, 111, 32);" cx="66.525" cy="26.437" r="5.069"/>
  <circle style="fill: rgb(6, 6, 6);" cx="37.07" cy="62.292" r="5.069" transform="matrix(0.729475, 0, 0, 0.793932, 9.584333, 12.199569)"/>
  <circle style="fill: rgb(6, 6, 6);" cx="37.07" cy="62.292" r="5.069" transform="matrix(0.729475, 0, 0, 0.793932, 19.564224, 11.573009)"/>
  <g transform="matrix(-0.045734, 0.002269, 0.002677, 0.04861, 52.71484, 51.65448)" style="stroke-width: 1.5724; vector-effect: non-scaling-stroke;">
    <circle style="stroke: rgb(0, 0, 0); fill: rgb(255, 255, 255);" cx="146.374" cy="187.432" r="55.847"/>
    <circle style="fill: rgb(255, 255, 255);" cx="362.678" cy="187.43" r="58.687"/>
    <circle style="" transform="matrix(1.666218, 0.086502, -0.088879, 1.679802, -398.753876, -779.390137)" cx="487.72265625" cy="552.453125" r="7.41719013324158"/>
    <circle style="" transform="matrix(1.666218, 0.086502, -0.088879, 1.679802, -619.017822, -780.940369)" cx="487.72265625" cy="552.453125" r="7.41719013324158"/>
    <path style="stroke-width: 21.17px; stroke: rgb(0, 0, 0); fill: rgb(255, 255, 255);" d="M 247.795 456.227 C 173.821 456.227 104.332 427.379 52.008 375.111 C 41.212 364.315 41.212 346.761 52.008 335.965 C 62.805 325.168 80.358 325.168 91.155 335.965 C 174.818 419.683 320.661 419.683 404.379 335.965 C 415.176 325.168 432.728 325.168 443.526 335.965 C 454.324 346.761 454.324 364.315 443.526 375.111 C 391.258 427.379 321.768 456.227 247.795 456.227 Z"/>
  </g>
  <circle style="fill: rgb(35, 111, 32);" cx="16.608" cy="44.251" r="5.069"/>
  <circle style="fill: rgb(35, 111, 32);" cx="63.286" cy="42.587" r="5.069"/>
  <circle style="fill: rgb(35, 111, 32);" cx="22.086" cy="32.725" r="5.069"/>
  <circle style="fill: rgb(35, 111, 32);" cx="60.017" cy="34.502" r="5.069"/>
</svg>