<?xml version="1.0" encoding="utf-8"?>
<svg viewBox="-33.215 45.614 82.458 82.393" width="82.458" height="82.393" xmlns="http://www.w3.org/2000/svg" xmlns:bx="https://boxy-svg.com">
  <circle style="fill: rgb(101, 142, 82);" cx="8.046" cy="86.915" r="41.092"/>
  <path d="M -20.554 88.314 C -22.043 88.941 -21.867 89 -23.15 90.056 C -25.678 92.134 -26.701 97.211 -25.766 100.504 C -25.539 101.309 -25.125 102.981 -24.678 103.594 C -24.582 103.724 -22.84 101.931 -22.288 101.396 C -20.052 99.229 -18.925 94.151 -19.465 91.183 C -19.837 89.146 -20.556 88.315 -20.556 88.315" style="fill: rgb(20, 125, 22);" transform="matrix(0.559193, 0.829037, -0.829037, 0.559193, 69.537407, 61.133816)"/>
  <path d="M -9.519 104.956 C -11.007 105.584 -10.832 105.643 -12.115 106.697 C -14.643 108.776 -15.666 113.854 -14.732 117.147 C -14.503 117.951 -14.09 119.624 -13.643 120.237 C -13.547 120.368 -11.805 118.573 -11.253 118.039 C -9.017 115.872 -7.889 110.795 -8.43 107.827 C -8.802 105.788 -9.521 104.959 -9.521 104.959" style="fill: rgb(20, 125, 22);" transform="matrix(0.913546, 0.406736, -0.406736, 0.913546, 44.788258, 14.487182)"/>
  <path d="M -22.839 78.951 C -24.327 79.578 -24.152 79.637 -25.437 80.692 C -27.963 82.771 -28.986 87.848 -28.052 91.141 C -27.824 91.946 -27.41 93.618 -26.963 94.232 C -26.867 94.363 -25.125 92.568 -24.574 92.033 C -22.338 89.867 -21.211 84.789 -21.75 81.82 C -22.122 79.784 -22.843 78.953 -22.843 78.953" style="fill: rgb(20, 125, 22);" transform="matrix(0.224952, 0.97437, -0.97437, 0.224952, 64.995575, 91.479095)"/>
  <path d="M -16.237 97.371 C -17.724 97.998 -17.55 98.057 -18.834 99.111 C -21.36 101.191 -22.383 106.267 -21.45 109.56 C -21.221 110.365 -20.807 112.038 -20.361 112.651 C -20.265 112.781 -18.523 110.986 -17.971 110.453 C -15.734 108.285 -14.608 103.208 -15.148 100.24 C -15.519 98.201 -16.239 97.373 -16.239 97.373" style="fill: rgb(20, 125, 22);" transform="matrix(0.766045, 0.642787, -0.642787, 0.766045, 63.196571, 36.397354)"/>
  <path d="M -0.609 109.514 C -2.097 110.141 -1.922 110.2 -3.204 111.256 C -5.731 113.334 -6.754 118.41 -5.822 121.704 C -5.592 122.508 -5.178 124.181 -4.732 124.794 C -4.636 124.924 -2.895 123.13 -2.342 122.596 C -0.106 120.429 1.022 115.351 0.481 112.384 C 0.109 110.345 -0.611 109.516 -0.611 109.516" style="fill: rgb(20, 125, 22);" transform="matrix(-0.999391, -0.034898, 0.034898, -0.999391, -9.63346, 234.146561)"/>
  <path d="M -21.167 68.335 C -22.655 68.963 -22.48 69.021 -23.764 70.077 C -26.291 72.157 -27.315 77.233 -26.38 80.525 C -26.152 81.33 -25.738 83.002 -25.29 83.616 C -25.196 83.747 -23.453 81.953 -22.901 81.418 C -20.665 79.252 -19.538 74.174 -20.077 71.205 C -20.449 69.168 -21.169 68.338 -21.169 68.338" style="fill: rgb(20, 125, 22);" transform="matrix(0.087155, -0.996195, 0.996195, 0.087155, -96.988708, 46.113293)"/>
  <path d="M -9.006 52.683 C -10.495 53.309 -10.319 53.368 -11.603 54.424 C -14.13 56.502 -15.154 61.579 -14.218 64.872 C -13.992 65.677 -13.576 67.35 -13.13 67.962 C -13.034 68.093 -11.291 66.299 -10.74 65.765 C -8.505 63.597 -7.377 58.52 -7.917 55.552 C -8.288 53.513 -9.01 52.685 -9.01 52.685" style="fill: rgb(20, 125, 22);" transform="matrix(0.62932, -0.777147, 0.777147, 0.62932, -51.023155, 13.679682)"/>
  <path d="M 9.784 46.18 C 8.296 46.808 8.471 46.866 7.188 47.921 C 4.661 50 3.636 55.076 4.571 58.37 C 4.8 59.174 5.213 60.847 5.66 61.46 C 5.756 61.591 7.498 59.797 8.049 59.263 C 10.286 57.095 11.413 52.018 10.873 49.049 C 10.501 47.012 9.782 46.183 9.782 46.183" style="fill: rgb(20, 125, 22);" transform="matrix(-0.97437, 0.224952, -0.224952, -0.97437, 27.149067, 104.553558)"/>
  <path d="M -16.699 59.768 C -18.187 60.395 -18.012 60.454 -19.296 61.509 C -21.822 63.588 -22.847 68.664 -21.912 71.957 C -21.684 72.762 -21.27 74.435 -20.822 75.048 C -20.726 75.177 -18.985 73.383 -18.433 72.849 C -16.197 70.684 -15.07 65.605 -15.609 62.637 C -15.981 60.598 -16.701 59.769 -16.701 59.769" style="fill: rgb(20, 125, 22);" transform="matrix(-0.325568, 0.945519, -0.945519, -0.325568, 38.732616, 107.194893)"/>
  <path d="M -0.807 48.365 C -2.297 48.992 -2.12 49.051 -3.404 50.106 C -5.931 52.185 -6.955 57.261 -6.02 60.554 C -5.793 61.359 -5.378 63.032 -4.931 63.645 C -4.836 63.775 -3.093 61.981 -2.541 61.446 C -0.305 59.279 0.822 54.202 0.282 51.235 C -0.089 49.196 -0.809 48.366 -0.809 48.366" style="fill: rgb(20, 125, 22);" transform="matrix(0.848048, -0.52992, 0.52992, 0.848048, -30.131651, 6.935275)"/>
  <path d="M 40.751 67.866 C 39.263 68.493 39.439 68.551 38.155 69.607 C 35.628 71.686 34.605 76.762 35.538 80.056 C 35.767 80.86 36.18 82.533 36.628 83.145 C 36.723 83.276 38.465 81.483 39.017 80.949 C 41.254 78.782 42.382 73.703 41.842 70.735 C 41.469 68.698 40.749 67.867 40.749 67.867" style="fill: rgb(20, 125, 22);" transform="matrix(-0.559193, -0.829037, 0.829037, -0.559193, -2.435573, 149.722794)"/>
  <path d="M 28.581 52.374 C 27.094 53.001 27.269 53.059 25.986 54.115 C 23.459 56.194 22.435 61.271 23.369 64.563 C 23.598 65.368 24.011 67.041 24.459 67.654 C 24.553 67.785 26.296 65.99 26.849 65.456 C 29.085 63.289 30.212 58.212 29.672 55.242 C 29.3 53.206 28.58 52.376 28.58 52.376" style="fill: rgb(20, 125, 22);" transform="matrix(-0.913546, -0.406736, 0.406736, -0.913546, 26.138977, 125.590813)"/>
  <path d="M 35.815 58.762 C 34.328 59.388 34.502 59.447 33.218 60.503 C 30.692 62.581 29.669 67.658 30.602 70.951 C 30.831 71.756 31.244 73.429 31.692 74.041 C 31.788 74.172 33.529 72.379 34.081 71.845 C 36.318 69.677 37.446 64.598 36.905 61.631 C 36.533 59.593 35.813 58.763 35.813 58.763" style="fill: rgb(20, 125, 22);" transform="matrix(-0.766045, -0.642787, 0.642787, -0.766045, 16.743921, 138.904099)"/>
  <path d="M 43.199 79.653 C 41.712 80.281 41.887 80.34 40.602 81.394 C 38.076 83.474 37.052 88.55 37.986 91.844 C 38.215 92.648 38.629 94.321 39.076 94.934 C 39.171 95.065 40.913 93.271 41.465 92.736 C 43.701 90.569 44.827 85.491 44.288 82.523 C 43.917 80.486 43.197 79.655 43.197 79.655" style="fill: rgb(20, 125, 22);" transform="matrix(0.224952, 0.97437, -0.97437, 0.224952, 116.862297, 27.677637)"/>
  <path d="M 40.612 89.426 C 39.124 90.054 39.299 90.113 38.016 91.168 C 35.487 93.247 34.464 98.324 35.399 101.617 C 35.627 102.421 36.042 104.093 36.488 104.708 C 36.584 104.839 38.327 103.044 38.878 102.509 C 41.114 100.343 42.241 95.264 41.701 92.295 C 41.33 90.259 40.609 89.429 40.609 89.429" style="fill: rgb(20, 125, 22);" transform="matrix(-0.087155, 0.996195, -0.996195, -0.087155, 138.498001, 67.230682)"/>
  <path d="M 28.164 105.441 C 26.675 106.067 26.852 106.126 25.567 107.182 C 23.039 109.26 22.017 114.337 22.95 117.63 C 23.178 118.435 23.594 120.108 24.041 120.721 C 24.136 120.852 25.879 119.057 26.43 118.524 C 28.666 116.356 29.793 111.278 29.254 108.31 C 28.882 106.272 28.163 105.442 28.163 105.442" style="fill: rgb(20, 125, 22);" transform="matrix(-0.62932, 0.777147, -0.777147, -0.62932, 130.242966, 164.046021)"/>
  <path d="M 36.416 98.761 C 34.928 99.388 35.103 99.446 33.82 100.502 C 31.292 102.581 30.268 107.657 31.201 110.951 C 31.431 111.755 31.844 113.428 32.292 114.04 C 32.386 114.171 34.13 112.378 34.683 111.843 C 36.918 109.676 38.046 104.598 37.506 101.63 C 37.134 99.592 36.413 98.762 36.413 98.762" style="fill: rgb(20, 125, 22);" transform="matrix(0.325568, -0.945519, 0.945519, 0.325568, -77.507385, 104.146515)"/>
  <path d="M 19.725 109.949 C 18.236 110.577 18.412 110.635 17.129 111.691 C 14.601 113.769 13.578 118.845 14.512 122.137 C 14.74 122.942 15.154 124.616 15.601 125.229 C 15.697 125.36 17.439 123.565 17.99 123.031 C 20.228 120.865 21.355 115.786 20.814 112.818 C 20.442 110.781 19.723 109.951 19.723 109.951" style="fill: rgb(20, 125, 22);" transform="matrix(-0.848048, 0.52992, -0.52992, -0.848048, 94.765648, 208.011169)"/>
  <path d="M 19.122 47.6 C 17.632 48.228 17.808 48.287 16.524 49.341 C 13.998 51.42 12.974 56.496 13.908 59.79 C 14.137 60.594 14.55 62.268 14.997 62.881 C 15.093 63.01 16.834 61.216 17.386 60.683 C 19.623 58.516 20.75 53.437 20.209 50.47 C 19.838 48.432 19.118 47.601 19.118 47.601" style="fill: rgb(20, 125, 22);" transform="matrix(0.999391, 0.034898, -0.034898, 0.999391, 1.938226, -0.558054)"/>
  <circle style="" transform="matrix(-1.075535, 0.106243, 0.12118, 1.083414, 450.92691, -569.854675)" cx="487.72265625" cy="552.453125" r="7.41719013324158" bx:origin="0.502 0.556"/>
  <path style="" transform="matrix(0, -0.121803, 0.150638, 0, -71.697762, 119.986542)" d="M 222.871 633.043 A 105.843 105.843 0 1 1 221.102 421.372 L 221.102 527.215 Z" bx:shape="pie 221.102 527.215 0 105.843 179.042 360 1@9f4a9f26"/>
  <path d="M 10.349 91.308 C 8.733 92.185 8.923 92.268 7.528 93.743 C 4.786 96.651 3.676 103.752 4.69 108.358 C 4.937 109.484 5.387 111.823 5.872 112.682 C 5.976 112.864 7.867 110.354 8.465 109.606 C 10.893 106.577 12.116 99.473 11.531 95.321 C 11.127 92.473 10.344 91.311 10.344 91.311" style="fill: rgb(20, 125, 22);" transform="matrix(0.224952, 0.97437, -0.97437, 0.224952, 105.584106, 71.261871)"/>
  <circle style="" transform="matrix(-1.075535, 0.106243, 0.12118, 1.083414, 480.261139, -570.142334)" cx="487.72265625" cy="552.453125" r="7.41719013324158" bx:origin="0.502 0.556"/>
  <path d="M 8.935 111.07 C 7.447 111.698 7.622 111.756 6.339 112.811 C 3.812 114.89 2.787 119.966 3.722 123.26 C 3.951 124.064 4.364 125.737 4.811 126.35 C 4.907 126.481 6.649 124.687 7.2 124.153 C 9.437 121.985 10.564 116.908 10.024 113.939 C 9.652 111.902 8.933 111.073 8.933 111.073" style="fill: rgb(20, 125, 22);" transform="matrix(-0.97437, 0.224952, -0.224952, -0.97437, 40.069958, 232.861404)"/>
  <path d="M 42.796 45.709 C 41.309 46.335 41.483 46.394 40.199 47.45 C 37.673 49.528 36.65 54.605 37.583 57.898 C 37.812 58.703 38.225 60.376 38.673 60.988 C 38.769 61.119 40.51 59.326 41.062 58.792 C 43.299 56.624 44.427 51.545 43.886 48.578 C 43.514 46.54 42.794 45.71 42.794 45.71" style="fill: rgb(20, 125, 22);" transform="matrix(-0.766045, -0.642787, 0.642787, -0.766045, 37.46298, 120.339212)"/>
  <path d="M -22.923 47.572 C -24.411 48.199 -24.236 48.258 -25.52 49.313 C -28.046 51.392 -29.071 56.468 -28.136 59.761 C -27.908 60.566 -27.494 62.239 -27.046 62.852 C -26.95 62.981 -25.209 61.187 -24.657 60.653 C -22.421 58.488 -21.294 53.409 -21.833 50.441 C -22.205 48.402 -22.925 47.573 -22.925 47.573" style="fill: rgb(20, 125, 22);" transform="matrix(-0.325568, 0.945519, -0.945519, -0.325568, 18.950739, 96.913179)"/>
</svg>