<?xml version="1.0" encoding="utf-8"?>
<svg viewBox="0 0 500 500" xmlns="http://www.w3.org/2000/svg">
  <path stroke-width="0" d="M 148.308 231.953 C 146.761 227.455 147.641 224.879 147.779 221.9 C 147.897 219.331 148.86 217.2 148.837 215.022 C 148.815 212.981 147.437 210.948 147.779 209.202 C 147.918 208.49 148.261 207.758 148.696 207.072 C 148.377 203.587 148.128 199.794 147.964 196.068 C 147.253 196.144 146.602 196.173 146.027 196.148 C 142.085 195.977 139.517 194.154 137.039 191.488 C 134.08 188.304 131.553 181.697 130.382 177.174 C 129.356 173.211 128.784 169.34 129.716 165.855 C 130.654 162.346 133.034 158.568 136.041 156.202 C 139.24 153.684 144.804 152.261 148.69 151.541 C 152.043 150.92 155.191 150.61 158.011 151.541 C 160.855 152.48 163.735 154.75 165.668 157.2 C 167.65 159.714 168.685 162.771 169.663 166.521 C 170.858 171.107 172.424 179.289 171.66 183.166 C 171.129 185.858 170.45 187.089 167.998 188.825 C 167.515 189.167 166.909 189.537 166.208 189.921 C 166.71 201.233 166.071 214.465 164.966 218.652 C 164.753 219.457 164.505 220.082 164.224 220.581 C 164.208 220.86 164.194 221.125 164.181 221.371 C 164.079 223.344 162.914 223.619 163.651 226.133 C 165.307 231.778 176.298 250.41 182.434 257.085 C 186.112 261.086 189.897 261.666 193.406 264.14 C 194.651 246.331 197.511 223.633 200.003 211.91 C 196.286 202.517 192.877 192.253 190.7 184.053 C 186.478 182.478 180.893 179.189 177.844 175.889 C 174.691 172.476 172.801 167.584 171.852 163.572 C 170.995 159.944 170.786 156.091 171.852 152.92 C 172.607 150.672 174.043 148.428 175.849 146.588 C 164.65 127.405 147.993 92.837 147.679 86.836 C 147.565 84.646 149.18 84.408 150.208 84.307 C 151.375 84.193 152.363 84.231 154.422 86.836 C 156.782 89.822 162.735 100.184 169.288 112.381 C 169.271 111.993 169.274 111.659 169.299 111.386 C 169.472 109.481 170.454 108.79 171.828 108.857 C 174.309 108.979 180.829 112.993 184.472 118.13 C 187.541 122.458 192.158 132.483 194.738 140.416 C 197.245 140.502 199.756 140.938 202.145 141.934 C 206.423 143.718 212.027 148.477 214.462 151.588 C 216.244 153.865 216.636 155.563 217.125 158.246 C 217.726 161.541 217.992 166.822 217.125 170.23 C 216.359 173.24 215.055 175.638 212.798 177.886 C 211.733 178.947 210.287 180.063 208.701 181.086 C 212.59 194.477 216.524 212.73 220.886 220.553 C 225.203 228.297 230.162 231.865 234.534 235.533 C 234.698 235.671 234.865 235.804 235.035 235.932 C 234.324 225.982 232.798 214.894 233.773 206.29 C 234.231 202.252 235.668 198.038 237.159 194.109 C 236.814 193.67 236.503 193.144 236.23 192.51 C 234.587 188.699 233.313 177.79 234.654 171.525 C 234.269 171.012 233.906 170.491 233.569 169.967 C 230.711 165.525 229.25 157.871 228.909 153.323 C 228.791 151.747 228.806 150.365 228.972 149.076 C 228.685 148.827 228.421 148.578 228.185 148.33 C 224.562 144.524 221.152 134.46 221.442 131.472 C 221.593 129.911 222.671 128.832 223.971 128.943 C 226.236 129.135 232.031 134.232 234.929 138.215 C 234.929 138.215 234.93 138.216 234.93 138.216 C 235.436 137.787 235.98 137.383 236.565 137.011 C 240.384 134.584 247.63 132.942 252.544 132.351 C 256.856 131.832 261.282 131.694 264.528 133.016 C 267.475 134.217 269.716 136.663 271.519 139.341 C 273.463 142.229 274.848 146.328 275.514 149.994 C 276.177 153.652 276.483 157.419 275.514 161.312 C 274.419 165.708 271.215 172.165 268.523 174.96 C 266.507 177.054 264.839 177.511 261.865 178.289 C 260.696 178.595 259.23 178.956 257.623 179.281 C 257.712 180.949 257.479 182.702 257.053 185.126 C 256.219 189.867 252.483 197.679 250.361 204.469 C 251.22 208.944 248.687 216.937 251.283 224.441 C 254.667 234.22 267.015 249.778 274.698 261.954 C 275.843 257.794 277.171 253.615 278.501 249.939 C 282.29 239.468 290.518 222.129 296.597 212.774 C 296.883 204.204 297.334 196.012 297.955 190.042 C 298.274 186.978 298.647 183.825 299.068 180.741 C 298.283 180.262 297.626 179.66 297.12 178.911 C 297.044 178.799 296.972 178.678 296.903 178.55 C 294.371 177.519 291.869 175.869 290.007 173.397 C 286.221 168.372 282.117 154.384 282.684 149.429 C 282.826 148.185 283.386 147.161 284.08 146.321 C 284.093 145.024 284.224 143.834 284.47 142.959 C 285.111 140.684 286.682 139.359 288.798 137.966 C 290.402 136.91 292.716 135.931 295.161 135.171 C 288.271 113.996 279.648 81.456 278.419 75.18 C 277.936 72.716 278.419 73.227 278.419 71.808 C 278.419 69.845 277.259 65.038 278.419 64.222 C 279.554 63.422 283.617 64.209 285.162 66.75 C 287.849 71.169 284.448 83.749 286.848 95.41 C 287.059 96.433 287.33 97.554 287.655 98.758 C 287.919 97.481 288.462 96.648 289.225 96.279 C 290.622 95.605 293.65 95.833 295.969 98.808 C 299.108 102.836 305.008 119.721 308.955 133.429 C 310.327 133.509 311.627 133.683 312.766 133.971 C 314.022 134.288 315.232 134.784 316.348 135.377 C 319.101 135.573 321.926 136.002 323.731 136.761 C 326.861 138.078 329.267 139.956 330.721 143.086 C 331.301 144.335 331.743 146.064 332.045 147.971 C 332.746 148.46 333.336 149.001 333.738 149.617 C 335.565 152.415 335.945 156.629 335.07 160.269 C 334.058 164.477 330.346 169.759 326.747 173.252 C 323.669 176.239 319.321 178.937 315.408 180.524 C 314.556 184.449 313.656 188.9 313.268 194.037 C 312.19 208.305 315.152 239.233 313.406 251.116 C 316.083 248.564 318.578 245.915 321.173 243.366 C 325.7 238.92 330.141 233.483 334.136 229.874 C 337.446 226.883 340.287 226.704 343.395 222.731 C 345.539 219.991 348.189 214.282 350.656 208.68 C 351.592 203.57 353.508 196.3 355.603 189.265 C 352.573 185.86 346.438 177.329 344.427 171.447 C 342.602 166.107 341.75 160.372 343.095 155.468 C 344.463 150.482 349.416 144.773 352.749 141.82 C 353.401 141.242 354.042 140.74 354.684 140.302 C 354.881 131.139 355.769 120.639 356.271 114.824 C 356.928 107.218 357.471 99.339 359.643 97.122 C 360.949 95.789 363.684 95.871 364.7 97.122 C 366.02 98.747 365.179 103.217 364.825 108.646 C 365.106 107.228 365.484 106.222 365.985 105.815 C 367.513 104.572 371.053 109.743 372.728 110.03 C 373.81 110.215 374.301 109.055 375.257 109.187 C 376.478 109.356 378.558 109.368 379.472 111.715 C 380.986 115.607 380.957 133.408 379.791 144.378 C 381.64 146.095 383.279 147.905 384.374 149.476 C 386.597 152.667 387.089 155.46 387.703 159.463 C 388.463 164.421 389.035 172.506 387.703 177.439 C 386.565 181.65 384.021 185.231 381.378 187.758 C 379.361 189.686 377.025 191.06 374.391 191.938 C 371.6 203.078 367.952 215.51 366.088 219.851 C 365.247 221.808 364.717 222.874 364.046 223.623 C 364.161 224.479 364.172 225.541 364.078 226.943 C 363.793 231.173 361.733 242.217 359.043 253.326 C 364.288 247.073 370.746 240.357 372.803 238.013 C 374.234 236.383 373.587 236.771 375.332 235.484 C 377.698 233.739 384.572 228.858 391.268 224.656 C 391.862 222.929 392.409 221.227 392.896 219.588 C 395.387 211.201 397.4 199.135 398.332 190.493 C 396.684 182.949 396.606 172.607 397.601 166.867 C 398.665 160.73 401.941 155.449 405.257 152.553 C 408.046 150.117 411.527 149.624 415.244 149.224 C 416.749 149.062 418.409 148.927 420.126 148.916 C 420.972 147.293 422.259 145.451 423.804 143.546 C 429.762 130.341 438.395 114.34 441.769 113.191 C 444.219 112.356 447.169 117.051 446.827 120.777 C 446.668 122.505 445.427 124.804 443.619 127.423 C 445.762 127.234 447.677 128.151 448.091 130.234 C 448.763 133.612 443.602 147.581 438.657 157.99 C 440.639 160.028 442.37 162.052 443.54 163.538 C 445.521 166.056 446.178 167.488 446.868 170.196 C 447.704 173.474 448.557 178.091 447.534 182.18 C 446.371 186.83 442.458 193.033 439.212 196.494 C 436.447 199.442 433.589 201.244 429.891 202.486 C 426.326 203.684 421.578 204.393 417.282 204.062 C 416.209 210.103 414.428 216.586 412.77 219.976 C 411.66 222.246 410.122 224.321 408.511 225.939 C 407.869 226.992 407.122 228.113 406.313 229.261 C 406.279 229.366 406.246 229.471 406.212 229.575 C 405.171 232.777 403.837 236.303 402.332 239.864 C 402.474 240.076 402.579 240.308 402.635 240.562 C 403.173 242.977 398.747 248.343 395.501 253.946 C 395.332 254.246 395.164 254.543 394.996 254.837 C 393.883 256.852 392.963 258.878 392.52 260.792 C 390.648 268.874 394.09 278.336 392.52 287.766 C 391.169 295.884 387.574 309.719 384.26 316.671 C 383.13 339.129 381.364 364.869 381.688 383.38 C 381.755 387.192 381.883 391.242 382.055 395.445 C 382.923 401.673 384.066 407.553 385.617 412.531 C 389.836 426.071 400.53 434.531 404.161 446.248 C 407.68 457.601 409.464 474.115 407.533 481.651 C 406.283 486.528 406.16 488.53 399.947 490.923 C 385.772 496.383 313.948 498.984 292.403 496.559 C 284.223 498.034 273.728 498.534 269.141 497.462 C 267.136 496.994 265.705 496.248 264.553 495.272 C 247.858 497.592 230.81 499.694 217.317 498.861 C 211.448 498.499 205.906 497.539 200.588 496.279 C 198.109 496.267 195.579 496.137 193.073 495.902 C 183.115 494.968 169.868 488.971 157.943 485.125 C 141.795 483.397 122.956 486.578 112.794 483.689 C 105.741 481.683 101.692 480.865 98.464 474.416 C 98.009 473.507 97.593 472.455 97.214 471.281 C 96.829 470.799 96.469 470.296 96.136 469.771 C 92.267 463.666 91.498 453.384 92.765 444.483 C 92.985 442.935 93.386 441.45 93.917 439.992 C 93.9 431.269 94.356 422.495 95.092 415.411 C 96.896 398.046 106.214 384.457 108.579 366.521 C 109.62 358.625 109.997 349.108 110.009 339.522 C 109.932 333.704 109.792 328.631 109.623 324.787 C 109.283 317.052 106.939 312.077 106.181 307.784 C 103.113 302.076 100.025 295.249 97.613 289.05 C 93.126 277.519 85.415 254.397 82.671 239.833 C 81.25 236.952 80.002 234.651 79.007 233.268 C 76.772 230.161 75.685 231.396 74.014 228.941 C 72.199 226.273 69.849 221.355 68.049 216.355 C 66.821 216.33 65.704 216.237 64.8 216.078 C 61.753 215.543 59.141 213.338 57.809 212.083 C 56.951 211.274 57.08 210.934 56.477 209.753 C 55.417 207.675 52.722 203.472 51.817 199.766 C 50.84 195.767 50.11 190.359 51.151 186.45 C 52.06 183.037 54.569 179.543 56.911 177.313 C 51.836 158.656 45.503 129.505 46.192 124.017 C 46.475 121.761 47.693 121.589 48.72 121.488 C 49.887 121.374 51.592 121.705 52.935 124.017 C 54.677 127.015 56.841 137.289 58.554 146.861 C 59.923 147.152 62.435 149.202 63.663 148.752 C 65.203 148.187 66.142 142.787 67.034 143.694 C 68.288 144.967 70.164 160.643 70.602 172.976 C 71.879 173.021 73.1 173.177 74.121 173.468 C 76.401 174.117 78.122 175.441 79.78 177.129 C 81.614 178.998 83.398 180.979 84.44 184.453 C 85.934 189.432 86.976 200.574 85.772 205.758 C 85.219 208.136 84.423 210.1 83.189 211.67 C 84.451 215.172 85.997 218.459 87.662 220.618 C 89.689 223.245 93.151 223.303 94.653 225.612 C 95.704 227.226 95.44 228.846 95.692 231.095 C 97.611 232.367 99.448 233.766 100.985 235.102 C 107.85 241.07 113.555 256.631 119.931 265.368 C 118.863 258.081 120.157 245.043 118.322 237.375 C 116.621 230.265 111.724 226.113 110.333 219.399 C 109.415 214.968 109.924 209.207 110.28 203.953 C 108.51 204.161 106.837 204.198 105.488 204.021 C 101.889 203.548 99.263 201.522 96.5 199.027 C 93.304 196.143 89.416 191.612 87.845 187.043 C 86.223 182.328 86.199 175.438 87.179 171.065 C 88 167.399 89.776 164.242 92.172 162.077 C 94.555 159.923 98.14 158.762 101.493 158.082 C 101.539 158.073 101.584 158.064 101.63 158.054 C 101.692 154.813 102.095 151.449 102.589 150.023 C 103.129 148.463 104.414 146.965 105.118 147.494 C 105.852 148.045 106.949 152.783 107.58 157.359 C 109.44 157.33 111.262 157.52 112.811 158.082 C 116.051 159.256 118.856 162.345 121.133 165.073 C 123.4 167.786 125.481 170.493 126.46 174.394 C 127.663 179.187 127.787 187.768 126.46 192.37 C 126.373 192.671 126.282 192.967 126.187 193.256 C 126.229 193.535 126.27 193.816 126.311 194.099 C 127.269 200.732 124.634 211.872 126.311 218.733 C 127.747 224.604 132.762 227.374 134.301 233.38 C 135.249 237.078 135.017 242.193 134.761 247.207 C 134.982 249.006 135.413 250.857 136.539 252.507 C 140.392 258.151 151.776 263.738 158.478 270.165 C 157.621 261.671 157.155 253.905 157.418 249.66 C 153.344 242.923 149.678 235.938 148.308 231.953 Z" style="stroke-width: 2px; fill: rgb(90, 53, 53);"/>
  <path fill="rgb(255,0,0)" stroke-width="0" opacity="0.9803921568627451" d="M 46.479 64.586 C 52.979 63.597 61.295 63.522 67.86 66.272 C 74.789 69.174 82.201 76.227 86.774 82.288 C 90.978 87.859 93.55 93.775 94.998 100.832 C 96.617 108.728 97.334 120.15 94.998 127.806 C 92.853 134.83 88.259 140.934 82.663 145.507 C 76.684 150.394 67.613 153.942 59.636 155.622 C 51.711 157.293 41.649 157.854 34.967 155.622 C 29.13 153.673 24.237 151.423 20.989 144.664 C 15.943 134.17 13.006 103.449 16.054 90.717 C 18.258 81.508 24.591 75.708 30.035 71.329 C 34.891 67.42 40.46 65.502 46.479 64.586 Z M 143.181 31.764 C 149.983 30.53 155.988 29.407 162.917 31.764 C 171.434 34.663 183.894 41.97 190.055 51.152 C 196.641 60.968 201.421 78.702 199.923 89.927 C 198.577 100.009 191.839 109.765 184.297 116.057 C 176.426 122.627 162.649 126.036 153.049 127.858 C 144.766 129.43 137.102 130.548 130.025 127.858 C 122.496 124.999 114.306 116.834 109.466 110.157 C 105.047 104.061 102.652 97.261 101.242 89.927 C 99.75 82.16 98.465 72.619 101.242 64.639 C 104.263 55.959 112.77 45.69 120.156 40.194 C 126.924 35.158 135.771 33.109 143.181 31.764 Z M 249.64 12.878 C 258.508 10.664 269.248 9.938 277.601 12.878 C 285.973 15.824 293.772 22.794 299.804 30.579 C 306.354 39.034 312.305 52.483 314.606 62.61 C 316.615 71.459 316.941 80.831 314.606 87.898 C 312.462 94.384 309.338 99.805 302.27 103.914 C 292.029 109.868 267.199 116.742 252.93 114.029 C 239.866 111.545 225.697 102.141 219.215 91.27 C 212.564 80.117 212.609 58.92 214.282 47.438 C 215.577 38.532 218.731 31.994 224.15 26.364 C 230.088 20.193 240.682 15.114 249.64 12.878 Z M 351.437 114.009 C 347.362 113.371 345.168 111.983 342.391 108.952 C 340.379 106.756 338.223 103.359 336.36 99.565 C 335.913 98.892 335.499 98.214 335.119 97.533 C 330.011 88.386 328.034 73.488 330.184 63.816 C 332.166 54.897 340.127 45.983 345.809 41.056 C 350.43 37.049 354.768 35.1 360.612 34.313 C 367.551 33.378 378.087 35.084 385.281 37.685 C 391.912 40.082 398.274 43.871 402.549 48.643 C 406.658 53.229 409.075 58.758 410.771 65.501 C 412.782 73.481 414.033 86.073 412.417 94.161 C 411.021 101.158 407.58 107.766 403.372 111.863 C 399.466 115.666 394.644 117.36 388.57 118.606 C 381.015 120.156 369.28 121.799 360.612 118.606 C 357.723 117.542 354.642 115.971 351.62 114.037 C 351.557 114.028 351.498 114.018 351.437 114.009 Z M 446.113 62.255 C 452.641 61.318 467.694 65.178 471.606 67.312 C 473.478 68.334 472.831 69.006 474.072 70.684 C 476.295 73.686 482.778 78.595 484.763 85.014 C 487.262 93.091 486.755 108.311 484.763 117.045 C 483.114 124.278 480.825 130.924 475.717 134.747 C 470.061 138.98 459.582 141.321 451.048 139.804 C 441.31 138.073 426.097 130.362 420.623 122.103 C 415.603 114.532 415.083 102.228 417.333 93.443 C 419.62 84.499 429.122 74.219 434.6 68.998 C 438.585 65.204 441.126 62.971 446.113 62.255 Z M 111.723 129.055 C 115.163 128.892 122.551 130.168 124.367 133.269 C 126.33 136.624 125.114 146.283 121.838 149.285 C 118.375 152.458 107.109 151.397 103.293 150.971 C 101.124 150.729 99.552 150.831 99.079 149.285 C 98.26 146.611 102.306 135.685 104.979 132.427 C 106.873 130.119 108.984 129.185 111.723 129.055 Z M 211.887 107.771 C 216.302 105.538 230.883 106.313 233.803 110.3 C 236.692 114.245 233.34 127.756 229.588 131.373 C 226.316 134.527 218.091 133.905 214.415 133.059 C 211.687 132.43 209.794 130.961 208.515 128.844 C 207.045 126.412 206.355 122.125 206.829 118.729 C 207.335 115.104 208.417 109.525 211.887 107.771 Z" style="fill: rgb(103, 168, 109); fill-opacity: 1; fill-rule: nonzero; stroke-dasharray: none; stroke-dashoffset: 0px; stroke-linecap: butt; stroke-linejoin: miter; stroke-miterlimit: 4; stroke-opacity: 1; stroke-width: 1px; paint-order: normal; vector-effect: none; opacity: 1; mix-blend-mode: normal; isolation: auto;"/>
</svg>