<?xml version="1.0" encoding="utf-8"?>
<svg viewBox="0 0 512 512" xmlns="http://www.w3.org/2000/svg" xmlns:bx="https://boxy-svg.com">
  <circle style="fill: rgb(23, 162, 26);" cx="257.585" cy="176.371" r="174.723"/>
  <rect style="fill: rgb(68, 35, 3);" x="241.968" y="73.735" width="29.116" height="429.445" rx="14.6" ry="14.6"/>
  <path style="fill: rgb(68, 35, 3);" d="M 283.787 107.711 H 312.903 V 204.192 A 14.558 14.6 0 0 1 298.345 218.792 H 298.345 A 14.558 14.6 0 0 1 283.787 204.192 V 107.711 Z" transform="matrix(-0.743145, 0.669131, -0.683168, -0.730505, 553.355591, 92.255066)" bx:shape="rect 283.787 107.711 29.116 111.081 0 0 14.6 14.6 1@445fc2b4"/>
  <path style="fill: rgb(68, 35, 3);" d="M 283.787 107.711 H 312.903 V 204.192 A 14.558 14.6 0 0 1 298.345 218.792 H 298.345 A 14.558 14.6 0 0 1 283.787 204.192 V 107.711 Z" transform="matrix(-0.743145, 0.669131, -0.683168, -0.730505, 550.589905, 171.320358)" bx:shape="rect 283.787 107.711 29.116 111.081 0 0 14.6 14.6 1@445fc2b4"/>
  <path style="fill: rgb(68, 35, 3);" d="M 283.787 107.711 H 312.903 V 204.192 A 14.558 14.6 0 0 1 298.345 218.792 H 298.345 A 14.558 14.6 0 0 1 283.787 204.192 V 107.711 Z" transform="matrix(0.743145, 0.669131, 0.683168, -0.730505, -37.333489, 88.294044)" bx:shape="rect 283.787 107.711 29.116 111.081 0 0 14.6 14.6 1@445fc2b4"/>
  <path style="fill: rgb(68, 35, 3);" d="M 283.787 107.711 H 312.903 V 204.192 A 14.558 14.6 0 0 1 298.345 218.792 H 298.345 A 14.558 14.6 0 0 1 283.787 204.192 V 107.711 Z" transform="matrix(0.743145, 0.669131, 0.683168, -0.730505, -34.567803, 167.359321)" bx:shape="rect 283.787 107.711 29.116 111.081 0 0 14.6 14.6 1@445fc2b4"/>
</svg>