<?xml version="1.0" encoding="utf-8"?>
<svg viewBox="58.469 18.328 105.38 107.379" width="105.38" height="107.379" xmlns="http://www.w3.org/2000/svg" xmlns:bx="https://boxy-svg.com">
  <circle style="" cx="110.928" cy="69.107" r="40.628"/>
  <path d="M 106.487 118.985 C 106.347 119.751 106.056 121.7 110.285 121.242 C 111.677 121.092 111.584 119.352 111.642 119.012 C 111.695 118.706 111.657 117.262 111.66 116.981 C 111.677 114.984 111.689 107.345 111.418 105.408 C 110.881 101.584 111.609 103.335 111.26 99.528 C 110.905 95.667 110.291 92.127 111.373 88.41 C 112.451 84.704 117.897 82.909 120.541 80.691 C 121.936 79.521 122.937 78.424 124.212 77.153 C 124.844 76.523 125.427 75.789 126.11 75.275 C 127.522 74.213 128.61 72.194 129.685 70.769 C 130.023 70.318 130.817 68.858 131.139 68.364 C 131.178 68.304 131.052 67.97 131.064 67.98 C 131.085 68 130.782 68.15 130.717 68.209 C 130.099 68.767 129.186 70.449 128.632 71.068 C 126.991 72.9 125.14 74.354 122.969 75.962 C 121.89 76.762 119.979 78.386 119.052 79.297 C 117.368 80.952 114.586 81.778 113.148 83.652 C 112.807 84.098 110.541 86.668 110.299 86.046 C 108.576 81.624 111.709 77.495 114.057 74.206 C 117.802 68.959 122.194 63.115 120.968 56.306 C 120.532 53.883 119.275 51.709 118.822 49.423 C 118.765 49.138 118.284 47.258 118.01 47.241 C 117.653 47.219 117.761 47.985 117.855 48.329 C 118.066 49.098 118.101 49.672 118.383 50.403 C 119.047 52.112 119.171 54.324 119.463 56.171 C 120.022 59.703 119.719 62.701 117.376 65.607 C 116.883 66.218 116.558 67.155 115.928 67.561 C 115.241 68.004 115.401 67.934 114.861 68.468 C 114.791 68.538 114.615 68.099 114.55 68.014 C 114.109 67.44 114.137 66.814 113.636 66.309 C 112.602 65.266 112.39 64.737 111.903 63.412 C 111.185 61.457 109.732 59.735 109.123 57.745 C 108.377 55.306 105.772 52.305 104.437 50.068 C 104.3 49.84 102.717 48.479 102.855 48.322 C 102.93 48.239 103.749 50.877 103.869 51.046 C 105.657 53.581 106.952 55.983 108.284 58.693 C 109.635 61.442 110.096 64.67 111.282 67.556 C 112.194 69.775 114.294 69.452 113.055 71.879 C 111.902 74.137 110.052 75.957 108.977 78.039 C 108.56 78.848 108.948 81.072 108.444 81.622 C 108.393 81.677 108.097 80.807 108.064 80.736 C 107.702 79.946 107.475 79.05 106.918 78.359 C 105.385 76.455 104.579 73.66 103.837 71.336 C 102.264 66.416 99.95 62.491 95.247 60.125 C 94.365 59.681 93.414 59.419 92.568 58.921 C 91.417 58.244 91.049 58.37 89.758 58.37 C 89.397 58.37 89.408 58.673 89.755 58.771 C 90.404 58.954 90.99 59.372 91.616 59.621 C 93.198 60.25 96.277 61.329 97.089 62.984 C 98.669 66.208 100.587 69.417 102.173 72.67 C 102.709 73.769 102.916 75.302 103.504 76.498 C 104.608 78.746 106.07 80.862 106.972 83.188 C 107.79 85.296 108.478 87 107.938 89.464 C 107.885 89.706 108.075 90.874 107.887 91.064 C 107.377 91.579 106.097 89.772 105.858 89.494 C 104.253 87.627 103.121 85.44 101.688 83.512 C 99.897 81.102 99.12 78.706 96.524 77.172 C 95.702 76.687 95.096 75.735 94.095 75.528 C 92.79 75.258 91.396 75.393 90.033 75.205 C 89.134 75.081 88.289 74.416 87.424 74.416 C 87.135 74.416 87.242 75.284 87.517 75.374 C 88.154 75.583 88.981 75.808 89.525 76.215 C 91.13 77.414 93.678 77.683 95.089 79.105 C 95.8 79.823 96.74 80.247 97.451 80.963 C 99.637 83.169 100.741 86.421 102.867 88.822 C 104.362 90.511 105.42 92.034 106.235 94.136 C 106.369 94.481 107.181 94.947 107.2 95.22 C 107.547 100.393 107.796 100.903 107.221 106.165 C 107.031 107.913 107.15 114.592 107.135 116.353 C 107.132 116.682 106.742 118.014 106.742 118.014" style="fill: rgb(120, 37, 37);"/>
  <path d="M 142.946 29.242 C 141.681 29.775 141.83 29.825 140.739 30.723 C 138.591 32.489 137.721 36.805 138.515 39.604 C 138.709 40.287 139.061 41.709 139.441 42.23 C 139.522 42.341 141.003 40.816 141.472 40.362 C 143.373 38.52 144.331 34.204 143.871 31.681 C 143.556 29.949 142.943 29.244 142.943 29.244" style="fill: rgb(20, 125, 22);" transform="matrix(0.961262, 0.275637, -0.275637, 0.961262, 15.317118, -37.509351)"/>
  <path d="M 137.267 25.527 C 136.002 26.06 136.151 26.11 135.06 27.007 C 132.912 28.774 132.042 33.089 132.836 35.888 C 133.03 36.572 133.382 37.994 133.762 38.515 C 133.843 38.626 135.324 37.101 135.793 36.647 C 137.694 34.804 138.652 30.488 138.192 27.966 C 137.877 26.234 137.264 25.529 137.264 25.529" style="fill: rgb(20, 125, 22);" transform="matrix(0.961262, 0.275637, -0.275637, 0.961262, 14.073132, -36.087921)"/>
  <path d="M 113.812 18.799 C 112.547 19.331 112.696 19.382 111.605 20.279 C 109.458 22.045 108.587 26.361 109.381 29.16 C 109.575 29.844 109.927 31.266 110.307 31.787 C 110.389 31.898 111.869 30.372 112.338 29.918 C 114.239 28.076 115.197 23.76 114.738 21.237 C 114.422 19.506 113.81 18.801 113.81 18.801" style="fill: rgb(20, 125, 22);"/>
  <path d="M 129.993 22.075 C 128.728 22.608 128.877 22.658 127.786 23.555 C 125.639 25.322 124.768 29.637 125.562 32.436 C 125.756 33.12 126.108 34.542 126.488 35.063 C 126.57 35.174 128.05 33.649 128.519 33.195 C 130.42 31.353 131.378 27.037 130.919 24.514 C 130.603 22.782 129.991 22.077 129.991 22.077" style="fill: rgb(20, 125, 22);" transform="matrix(0.961262, 0.275637, -0.275637, 0.961262, 12.839866, -34.216763)"/>
  <path d="M 120.512 31.557 C 119.247 32.09 119.396 32.14 118.305 33.037 C 116.157 34.804 115.287 39.119 116.081 41.918 C 116.275 42.602 116.627 44.024 117.007 44.545 C 117.088 44.656 118.569 43.131 119.038 42.677 C 120.939 40.834 121.897 36.518 121.437 33.996 C 121.122 32.264 120.509 31.559 120.509 31.559" style="fill: rgb(20, 125, 22);"/>
  <path d="M 120.445 18.328 C 119.18 18.861 119.329 18.911 118.238 19.808 C 116.09 21.575 115.22 25.89 116.014 28.689 C 116.208 29.373 116.56 30.795 116.94 31.316 C 117.021 31.427 118.502 29.902 118.971 29.448 C 120.872 27.605 121.83 23.29 121.37 20.767 C 121.055 19.035 120.442 18.33 120.442 18.33" style="fill: rgb(20, 125, 22);"/>
  <path d="M 106.673 18.79 C 105.408 19.323 105.557 19.373 104.466 20.271 C 102.318 22.037 101.448 26.353 102.242 29.152 C 102.436 29.836 102.788 31.257 103.168 31.779 C 103.249 31.89 104.73 30.364 105.199 29.91 C 107.1 28.068 108.058 23.752 107.598 21.229 C 107.283 19.498 106.67 18.793 106.67 18.793" style="fill: rgb(20, 125, 22);"/>
  <path d="M 97.075 20.632 C 95.81 21.164 95.959 21.215 94.868 22.112 C 92.72 23.878 91.85 28.194 92.644 30.993 C 92.838 31.677 93.19 33.099 93.57 33.62 C 93.651 33.731 95.132 32.205 95.601 31.751 C 97.502 29.909 98.46 25.593 98 23.07 C 97.685 21.339 97.072 20.634 97.072 20.634" style="fill: rgb(20, 125, 22);" transform="matrix(0.87462, -0.48481, 0.48481, 0.87462, -1.211843, 49.571907)"/>
  <path d="M 158.593 56.261 C 157.328 56.794 157.477 56.844 156.386 57.741 C 154.238 59.508 153.368 63.823 154.162 66.622 C 154.356 67.306 154.708 68.728 155.088 69.249 C 155.169 69.36 156.65 67.835 157.119 67.381 C 159.02 65.538 159.978 61.223 159.518 58.7 C 159.203 56.968 158.59 56.263 158.59 56.263" style="fill: rgb(20, 125, 22);" transform="matrix(0.358368, 0.93358, -0.93358, 0.358368, 159.166733, -106.073326)"/>
  <path d="M 155.686 49.859 C 154.421 50.392 154.57 50.442 153.479 51.339 C 151.331 53.105 150.461 57.421 151.255 60.22 C 151.449 60.904 151.801 62.326 152.181 62.847 C 152.262 62.958 153.743 61.433 154.212 60.978 C 156.113 59.136 157.071 54.82 156.612 52.297 C 156.296 50.566 155.683 49.861 155.683 49.861" style="fill: rgb(20, 125, 22);" transform="matrix(0.529919, 0.848048, -0.848048, 0.529919, 120.11235, -103.976578)"/>
  <path d="M 126.802 35.092 C 125.537 35.625 125.686 35.675 124.595 36.572 C 122.448 38.339 121.577 42.654 122.371 45.453 C 122.565 46.137 122.917 47.559 123.297 48.08 C 123.379 48.191 124.859 46.666 125.328 46.212 C 127.229 44.369 128.187 40.053 127.728 37.531 C 127.412 35.799 126.8 35.094 126.8 35.094" style="fill: rgb(20, 125, 22);"/>
  <path d="M 152.697 43.03 C 151.432 43.563 151.581 43.613 150.49 44.511 C 148.342 46.277 147.471 50.593 148.266 53.392 C 148.46 54.076 148.812 55.497 149.192 56.019 C 149.273 56.13 150.754 54.604 151.223 54.15 C 153.124 52.308 154.082 47.992 153.622 45.469 C 153.307 43.738 152.694 43.033 152.694 43.033" style="fill: rgb(20, 125, 22);" transform="matrix(0.656059, 0.75471, -0.75471, 0.656059, 89.264381, -96.817986)"/>
  <path d="M 132.876 39.738 C 131.611 40.271 131.76 40.321 130.669 41.218 C 128.521 42.985 127.651 47.3 128.445 50.099 C 128.639 50.783 128.991 52.205 129.371 52.726 C 129.452 52.837 130.933 51.312 131.402 50.857 C 133.303 49.015 134.261 44.699 133.801 42.176 C 133.486 40.445 132.873 39.74 132.873 39.74" style="fill: rgb(20, 125, 22);" transform="matrix(0.93358, -0.358368, 0.358368, 0.93358, -7.865797, 50.029728)"/>
  <path d="M 148.677 35.377 C 147.413 35.91 147.562 35.96 146.471 36.857 C 144.323 38.624 143.452 42.939 144.247 45.738 C 144.441 46.422 144.792 47.844 145.173 48.365 C 145.254 48.476 146.734 46.951 147.203 46.497 C 149.105 44.654 150.063 40.338 149.603 37.816 C 149.288 36.084 148.675 35.379 148.675 35.379" style="fill: rgb(20, 125, 22);" transform="matrix(0.951057, 0.309017, -0.309017, 0.951057, 20.126446, -43.325661)"/>
  <path d="M 89.463 25.439 C 88.198 25.972 88.347 26.022 87.256 26.92 C 85.109 28.686 84.238 33.002 85.032 35.801 C 85.226 36.485 85.578 37.906 85.958 38.427 C 86.04 38.539 87.52 37.013 87.989 36.559 C 89.89 34.717 90.848 30.401 90.389 27.878 C 90.074 26.146 89.461 25.441 89.461 25.441" style="fill: rgb(20, 125, 22);" transform="matrix(0.743145, -0.669131, 0.669131, 0.743145, 1.137009, 66.833862)"/>
  <path d="M 139.562 43.026 C 138.297 43.559 138.446 43.609 137.355 44.506 C 135.207 46.273 134.337 50.588 135.131 53.387 C 135.325 54.071 135.677 55.493 136.057 56.014 C 136.138 56.125 137.619 54.6 138.088 54.146 C 139.989 52.303 140.947 47.987 140.487 45.465 C 140.172 43.733 139.559 43.028 139.559 43.028" style="fill: rgb(20, 125, 22);" transform="matrix(0.981627, 0.190809, -0.190809, 0.981627, 11.979741, -25.368576)"/>
  <path d="M 112.334 42.874 C 111.069 43.407 111.218 43.457 110.127 44.354 C 107.979 46.121 107.109 50.436 107.903 53.235 C 108.097 53.919 108.449 55.341 108.829 55.862 C 108.91 55.973 110.391 54.448 110.86 53.994 C 112.761 52.151 113.719 47.836 113.259 45.313 C 112.944 43.581 112.331 42.876 112.331 42.876" style="fill: rgb(20, 125, 22);" transform="matrix(0.75471, -0.656059, 0.656059, 0.75471, -5.287298, 84.600233)"/>
  <path d="M 156.78 70.987 C 155.515 71.52 155.664 71.57 154.573 72.467 C 152.425 74.234 151.555 78.549 152.349 81.348 C 152.543 82.032 152.895 83.454 153.275 83.975 C 153.356 84.086 154.837 82.561 155.306 82.107 C 157.207 80.264 158.165 75.948 157.705 73.426 C 157.39 71.694 156.777 70.989 156.777 70.989" style="fill: rgb(20, 125, 22);" transform="matrix(0.052336, -0.99863, 0.99863, 0.052336, 69.452614, 228.155548)"/>
  <path d="M 145.528 58.064 C 144.263 58.597 144.412 58.647 143.321 59.544 C 141.173 61.311 140.303 65.626 141.097 68.425 C 141.291 69.109 141.643 70.531 142.023 71.052 C 142.104 71.163 143.585 69.638 144.054 69.184 C 145.955 67.341 146.913 63.025 146.453 60.503 C 146.138 58.771 145.525 58.066 145.525 58.066" style="fill: rgb(20, 125, 22);" transform="matrix(-0.034899, 0.999391, -0.999391, -0.034899, 213.223294, -76.785684)"/>
  <path d="M 157.391 63.737 C 156.126 64.27 156.275 64.32 155.184 65.218 C 153.036 66.984 152.166 71.3 152.96 74.099 C 153.154 74.783 153.506 76.204 153.886 76.725 C 153.967 76.837 155.448 75.311 155.917 74.857 C 157.818 73.015 158.776 68.699 158.316 66.176 C 158.001 64.445 157.388 63.74 157.388 63.74" style="fill: rgb(20, 125, 22);" transform="matrix(0.224951, 0.97437, -0.97437, 0.224951, 188.992871, -97.128725)"/>
  <path d="M 98.615 33.917 C 97.35 34.45 97.499 34.5 96.409 35.397 C 94.261 37.164 93.39 41.479 94.184 44.278 C 94.379 44.962 94.73 46.384 95.11 46.905 C 95.192 47.016 96.672 45.491 97.141 45.037 C 99.042 43.195 100 38.879 99.541 36.356 C 99.226 34.624 98.613 33.919 98.613 33.919" style="fill: rgb(20, 125, 22);" transform="matrix(0.669131, -0.743145, 0.743145, 0.669131, 1.986369, 85.289217)"/>
  <path d="M 143.273 50.101 C 142.009 50.634 142.158 50.684 141.067 51.581 C 138.919 53.348 138.048 57.663 138.843 60.462 C 139.037 61.146 139.389 62.568 139.769 63.089 C 139.85 63.2 141.331 61.675 141.799 61.221 C 143.701 59.378 144.659 55.062 144.199 52.54 C 143.884 50.808 143.271 50.103 143.271 50.103" style="fill: rgb(20, 125, 22);" transform="matrix(0.469472, 0.882947, -0.882947, 0.469472, 125.007073, -94.851127)"/>
  <path d="M 103.56 107.409 C 102.295 107.942 102.444 107.992 101.353 108.889 C 99.206 110.656 98.335 114.971 99.129 117.77 C 99.323 118.454 99.675 119.876 100.055 120.397 C 100.137 120.508 101.617 118.983 102.086 118.529 C 103.987 116.686 104.945 112.371 104.486 109.848 C 104.171 108.116 103.558 107.411 103.558 107.411" style="fill: rgb(20, 125, 22);"/>
  <path d="M 92.419 88.813 C 91.154 89.346 91.303 89.396 90.212 90.294 C 88.064 92.06 87.194 96.376 87.988 99.175 C 88.182 99.858 88.534 101.28 88.914 101.801 C 88.995 101.912 90.476 100.387 90.945 99.933 C 92.846 98.091 93.804 93.775 93.344 91.252 C 93.029 89.52 92.416 88.815 92.416 88.815" style="fill: rgb(20, 125, 22);" transform="matrix(-0.766044, -0.642788, 0.642788, -0.766044, 98.70104, 226.544043)"/>
  <path d="M 87.563 82.619 C 86.298 83.152 86.447 83.202 85.356 84.1 C 83.208 85.866 82.338 90.182 83.132 92.981 C 83.326 93.665 83.678 95.086 84.058 95.607 C 84.139 95.719 85.62 94.193 86.089 93.739 C 87.99 91.897 88.948 87.581 88.488 85.058 C 88.173 83.326 87.56 82.621 87.56 82.621" style="fill: rgb(20, 125, 22);" transform="matrix(-0.798636, -0.601815, 0.601815, -0.798636, 100.551711, 211.875987)"/>
  <path d="M 131.239 90.019 C 129.974 90.552 130.123 90.602 129.032 91.499 C 126.884 93.266 126.014 97.581 126.808 100.38 C 127.002 101.064 127.354 102.486 127.734 103.007 C 127.816 103.118 129.296 101.593 129.765 101.139 C 131.666 99.296 132.624 94.98 132.165 92.457 C 131.849 90.726 131.237 90.021 131.237 90.021" style="fill: rgb(20, 125, 22);" transform="matrix(0.642788, -0.766044, 0.766044, 0.642788, -27.712734, 133.601562)"/>
  <path d="M 141.536 74.955 C 140.271 75.488 140.42 75.538 139.329 76.436 C 137.181 78.202 136.311 82.518 137.105 85.317 C 137.299 86.001 137.651 87.422 138.031 87.944 C 138.112 88.055 139.593 86.529 140.062 86.075 C 141.963 84.233 142.921 79.917 142.461 77.394 C 142.146 75.663 141.533 74.958 141.533 74.958" style="fill: rgb(20, 125, 22);" transform="matrix(0.62932, -0.777146, 0.777146, 0.62932, -11.518201, 138.756357)"/>
  <path d="M 91.664 101.5 C 90.399 102.032 90.548 102.083 89.457 102.98 C 87.309 104.746 86.439 109.062 87.233 111.861 C 87.427 112.545 87.779 113.967 88.159 114.488 C 88.24 114.599 89.721 113.073 90.19 112.619 C 92.091 110.777 93.049 106.461 92.589 103.938 C 92.274 102.207 91.661 101.502 91.661 101.502" style="fill: rgb(20, 125, 22);"/>
  <path d="M 137.8 81.279 C 136.536 81.812 136.685 81.862 135.594 82.759 C 133.446 84.526 132.575 88.841 133.37 91.64 C 133.564 92.324 133.915 93.746 134.296 94.267 C 134.377 94.378 135.858 92.853 136.326 92.399 C 138.228 90.556 139.186 86.24 138.726 83.718 C 138.411 81.986 137.798 81.281 137.798 81.281" style="fill: rgb(20, 125, 22);" transform="matrix(0.62932, -0.777146, 0.777146, 0.62932, -17.817055, 138.197544)"/>
  <path d="M 68.958 74.245 C 67.693 74.778 67.842 74.828 66.751 75.725 C 64.603 77.492 63.733 81.807 64.527 84.606 C 64.721 85.29 65.073 86.712 65.453 87.233 C 65.534 87.344 67.015 85.819 67.484 85.365 C 69.385 83.523 70.343 79.207 69.884 76.684 C 69.568 74.952 68.956 74.247 68.956 74.247" style="fill: rgb(20, 125, 22);" transform="matrix(0.615662, 0.788011, -0.788011, 0.615662, 89.421276, -21.857097)"/>
  <path d="M 144.275 66.575 C 143.01 67.108 143.159 67.158 142.068 68.056 C 139.92 69.822 139.05 74.138 139.844 76.937 C 140.038 77.621 140.39 79.042 140.77 79.563 C 140.851 79.675 142.332 78.149 142.801 77.695 C 144.702 75.853 145.66 71.537 145.2 69.014 C 144.885 67.283 144.272 66.577 144.272 66.577" style="fill: rgb(20, 125, 22);" transform="matrix(-0.453991, 0.891006, -0.891006, -0.453991, 272.205615, -20.663818)"/>
  <path d="M 85.517 98.315 C 84.252 98.848 84.401 98.898 83.31 99.795 C 81.162 101.562 80.292 105.877 81.086 108.676 C 81.28 109.36 81.632 110.782 82.012 111.303 C 82.093 111.414 83.574 109.889 84.043 109.434 C 85.944 107.592 86.902 103.276 86.443 100.753 C 86.127 99.022 85.515 98.317 85.515 98.317" style="fill: rgb(20, 125, 22);" transform="matrix(0.848048, 0.529919, -0.529919, 0.848048, 68.256598, -28.415417)"/>
  <path d="M 80.617 93.202 C 79.352 93.735 79.501 93.785 78.41 94.682 C 76.262 96.449 75.392 100.764 76.186 103.563 C 76.38 104.247 76.732 105.669 77.112 106.19 C 77.193 106.301 78.674 104.776 79.143 104.322 C 81.044 102.479 82.002 98.164 81.542 95.641 C 81.227 93.909 80.614 93.204 80.614 93.204" style="fill: rgb(20, 125, 22);" transform="matrix(0.848048, 0.529919, -0.529919, 0.848048, 64.802515, -26.595588)"/>
  <path d="M 120.833 94.493 C 119.568 95.026 119.717 95.076 118.626 95.973 C 116.478 97.74 115.608 102.055 116.402 104.854 C 116.596 105.538 116.948 106.96 117.328 107.481 C 117.409 107.592 118.89 106.067 119.359 105.613 C 121.26 103.771 122.218 99.455 121.758 96.932 C 121.443 95.2 120.83 94.495 120.83 94.495" style="fill: rgb(20, 125, 22);" transform="matrix(0.956305, -0.292372, 0.292372, 0.956305, -24.327204, 39.202762)"/>
  <path d="M 70.953 80.872 C 69.688 81.405 69.837 81.455 68.746 82.352 C 66.598 84.119 65.728 88.434 66.522 91.233 C 66.716 91.917 67.068 93.339 67.448 93.86 C 67.529 93.971 69.01 92.446 69.479 91.991 C 71.38 90.149 72.338 85.833 71.878 83.31 C 71.563 81.579 70.95 80.874 70.95 80.874" style="fill: rgb(20, 125, 22);" transform="matrix(0.848048, 0.529919, -0.529919, 0.848048, 56.800151, -23.348016)"/>
  <path d="M 75.648 87.124 C 74.383 87.657 74.532 87.707 73.441 88.605 C 71.293 90.371 70.423 94.687 71.217 97.486 C 71.411 98.17 71.763 99.591 72.143 100.112 C 72.224 100.224 73.705 98.698 74.174 98.244 C 76.075 96.402 77.033 92.086 76.573 89.563 C 76.258 87.831 75.645 87.126 75.645 87.126" style="fill: rgb(20, 125, 22);" transform="matrix(0.731354, 0.681998, -0.681998, 0.731354, 83.677288, -25.185479)"/>
  <path d="M 133.896 101.613 C 132.631 102.146 132.78 102.196 131.689 103.094 C 129.541 104.86 128.67 109.176 129.465 111.975 C 129.659 112.659 130.011 114.08 130.391 114.602 C 130.472 114.713 131.953 113.187 132.422 112.733 C 134.323 110.891 135.281 106.575 134.821 104.052 C 134.506 102.32 133.893 101.615 133.893 101.615" style="fill: rgb(20, 125, 22);" transform="matrix(0.669131, -0.743145, 0.743145, 0.669131, -36.648715, 133.906369)"/>
  <path d="M 97.911 104.081 C 96.646 104.614 96.795 104.664 95.704 105.561 C 93.556 107.328 92.686 111.643 93.48 114.442 C 93.674 115.126 94.026 116.548 94.406 117.069 C 94.487 117.18 95.968 115.655 96.437 115.201 C 98.338 113.358 99.296 109.042 98.836 106.52 C 98.521 104.788 97.908 104.083 97.908 104.083" style="fill: rgb(20, 125, 22);"/>
  <path d="M 119.485 106.284 C 118.221 106.817 118.37 106.867 117.279 107.765 C 115.131 109.531 114.26 113.847 115.055 116.646 C 115.249 117.33 115.6 118.751 115.981 119.273 C 116.062 119.384 117.542 117.858 118.011 117.404 C 119.913 115.562 120.871 111.246 120.411 108.723 C 120.096 106.992 119.483 106.287 119.483 106.287" style="fill: rgb(20, 125, 22);" transform="matrix(0.788011, -0.615661, 0.615661, 0.788011, -44.495666, 96.337848)"/>
  <path d="M 105.111 32.22 C 103.846 32.753 103.995 32.803 102.904 33.7 C 100.757 35.467 99.886 39.782 100.68 42.581 C 100.874 43.265 101.226 44.687 101.606 45.208 C 101.688 45.319 103.168 43.794 103.637 43.34 C 105.538 41.497 106.496 37.182 106.037 34.659 C 105.721 32.927 105.109 32.222 105.109 32.222" style="fill: rgb(20, 125, 22);" transform="matrix(0.838671, -0.544639, 0.544639, 0.838671, -4.42615, 62.491322)"/>
  <path d="M 126.711 103.586 C 125.446 104.119 125.595 104.169 124.504 105.067 C 122.356 106.833 121.486 111.149 122.28 113.948 C 122.474 114.631 122.826 116.053 123.206 116.574 C 123.287 116.685 124.768 115.16 125.237 114.706 C 127.138 112.864 128.096 108.548 127.636 106.025 C 127.321 104.293 126.708 103.588 126.708 103.588" style="fill: rgb(20, 125, 22);" transform="matrix(0.788011, -0.615661, 0.615661, 0.788011, -41.302641, 100.214075)"/>
  <path d="M 80.402 69.202 C 79.138 69.735 79.287 69.785 78.196 70.682 C 76.048 72.449 75.177 76.764 75.972 79.563 C 76.166 80.247 76.518 81.669 76.898 82.19 C 76.979 82.301 78.46 80.776 78.928 80.322 C 80.83 78.479 81.788 74.164 81.328 71.641 C 81.013 69.909 80.4 69.204 80.4 69.204" style="fill: rgb(20, 125, 22);" transform="matrix(-0.104528, -0.994522, 0.994522, -0.104528, 11.489724, 161.743164)"/>
  <path d="M 79.935 62.588 C 78.67 63.121 78.819 63.171 77.728 64.068 C 75.58 65.835 74.71 70.15 75.504 72.949 C 75.698 73.633 76.05 75.055 76.43 75.576 C 76.511 75.687 77.992 74.162 78.461 73.708 C 80.362 71.865 81.32 67.549 80.86 65.026 C 80.545 63.295 79.932 62.59 79.932 62.59" style="fill: rgb(20, 125, 22);" transform="matrix(-0.104528, -0.994522, 0.994522, -0.104528, 17.550805, 153.972581)"/>
  <path d="M 67.122 59.763 C 65.857 60.296 66.006 60.346 64.915 61.243 C 62.767 63.01 61.897 67.325 62.691 70.124 C 62.885 70.808 63.237 72.23 63.617 72.751 C 63.698 72.862 65.179 71.337 65.648 70.883 C 67.549 69.04 68.507 64.725 68.047 62.202 C 67.732 60.47 67.119 59.765 67.119 59.765" style="fill: rgb(20, 125, 22);" transform="matrix(-0.104528, -0.994522, 0.994522, -0.104528, 6.208011, 138.109482)"/>
  <path d="M 75.815 36.061 C 74.55 36.594 74.699 36.644 73.608 37.541 C 71.46 39.308 70.589 43.623 71.384 46.422 C 71.578 47.106 71.929 48.528 72.31 49.049 C 72.391 49.16 73.871 47.635 74.34 47.181 C 76.242 45.338 77.2 41.023 76.74 38.5 C 76.425 36.768 75.812 36.063 75.812 36.063" style="fill: rgb(20, 125, 22);" transform="matrix(0.309017, -0.951056, 0.951056, 0.309017, 10.639811, 99.760207)"/>
  <path d="M 87.449 44.392 C 86.184 44.925 86.333 44.975 85.242 45.872 C 83.095 47.639 82.224 51.954 83.018 54.753 C 83.212 55.437 83.564 56.859 83.944 57.38 C 84.026 57.491 85.506 55.966 85.975 55.512 C 87.876 53.67 88.834 49.354 88.375 46.831 C 88.059 45.099 87.447 44.394 87.447 44.394" style="fill: rgb(20, 125, 22);" transform="matrix(-0.104528, -0.994522, 0.994522, -0.104528, 43.946945, 141.347794)"/>
  <path d="M 71.109 44.281 C 69.845 44.814 69.994 44.864 68.903 45.761 C 66.755 47.528 65.884 51.843 66.679 54.642 C 66.873 55.326 67.224 56.748 67.605 57.269 C 67.686 57.38 69.166 55.855 69.635 55.401 C 71.537 53.559 72.495 49.243 72.035 46.72 C 71.72 44.988 71.107 44.283 71.107 44.283" style="fill: rgb(20, 125, 22);" transform="matrix(-0.104528, -0.994522, 0.994522, -0.104528, 26.009829, 124.975127)"/>
  <path d="M 69.062 51.977 C 67.797 52.509 67.946 52.56 66.855 53.457 C 64.707 55.223 63.837 59.539 64.631 62.338 C 64.825 63.022 65.177 64.444 65.557 64.965 C 65.638 65.076 67.119 63.551 67.588 63.096 C 69.489 61.254 70.447 56.938 69.987 54.415 C 69.672 52.684 69.059 51.979 69.059 51.979" style="fill: rgb(20, 125, 22);" transform="matrix(-0.104528, -0.994522, 0.994522, -0.104528, 16.094147, 131.439)"/>
  <path d="M 153.641 77.249 C 152.376 77.782 152.525 77.832 151.434 78.729 C 149.286 80.496 148.416 84.811 149.21 87.61 C 149.404 88.294 149.756 89.716 150.136 90.237 C 150.217 90.348 151.698 88.823 152.167 88.369 C 154.068 86.527 155.026 82.211 154.567 79.688 C 154.251 77.956 153.638 77.251 153.638 77.251" style="fill: rgb(20, 125, 22);" transform="matrix(0.25882, -0.965926, 0.965926, 0.25882, 31.619223, 208.698776)"/>
  <path d="M 93.326 38.543 C 92.061 39.076 92.21 39.126 91.12 40.023 C 88.972 41.79 88.101 46.105 88.895 48.904 C 89.09 49.588 89.441 51.01 89.821 51.531 C 89.903 51.642 91.383 50.117 91.852 49.663 C 93.753 47.821 94.711 43.505 94.252 40.982 C 93.937 39.25 93.324 38.545 93.324 38.545" style="fill: rgb(20, 125, 22);" transform="matrix(0.615662, -0.78801, 0.78801, 0.615662, -0.330524, 89.402082)"/>
  <path d="M 82.576 31.871 C 81.311 32.404 81.46 32.454 80.369 33.352 C 78.221 35.118 77.351 39.434 78.145 42.233 C 78.339 42.917 78.691 44.338 79.071 44.86 C 79.152 44.971 80.633 43.445 81.102 42.991 C 83.003 41.149 83.961 36.833 83.501 34.31 C 83.186 32.579 82.573 31.874 82.573 31.874" style="fill: rgb(20, 125, 22);" transform="matrix(0.615662, -0.78801, 0.78801, 0.615662, 0.794916, 78.366578)"/>
  <path d="M 148.316 89.631 C 147.052 90.163 147.201 90.214 146.11 91.111 C 143.962 92.877 143.091 97.193 143.886 99.992 C 144.08 100.676 144.432 102.098 144.812 102.619 C 144.893 102.73 146.374 101.204 146.842 100.75 C 148.744 98.908 149.702 94.592 149.242 92.069 C 148.927 90.338 148.314 89.633 148.314 89.633" style="fill: rgb(20, 125, 22);" transform="matrix(0.390732, -0.920505, 0.920505, 0.390732, 0.757016, 193.399481)"/>
  <path d="M 152.14 83.908 C 150.875 84.441 151.024 84.491 149.933 85.388 C 147.785 87.155 146.915 91.47 147.709 94.269 C 147.903 94.953 148.255 96.375 148.635 96.896 C 148.716 97.007 150.197 95.482 150.666 95.028 C 152.567 93.185 153.525 88.87 153.065 86.347 C 152.75 84.615 152.137 83.91 152.137 83.91" style="fill: rgb(20, 125, 22);" transform="matrix(0.390732, -0.920505, 0.920505, 0.390732, 8.354417, 193.431918)"/>
  <path d="M 67.417 66.376 C 66.152 66.909 66.301 66.959 65.21 67.856 C 63.062 69.623 62.192 73.939 62.986 76.738 C 63.18 77.422 63.532 78.844 63.912 79.365 C 63.993 79.476 65.474 77.95 65.943 77.496 C 67.844 75.654 68.802 71.338 68.342 68.815 C 68.027 67.083 67.414 66.378 67.414 66.378" style="fill: rgb(20, 125, 22);" transform="matrix(-0.406736, -0.913546, 0.913546, -0.406736, 25.675233, 162.420456)"/>
  <path d="M 81.429 49.588 C 80.164 50.121 80.313 50.171 79.222 51.068 C 77.074 52.835 76.204 57.15 76.998 59.949 C 77.192 60.633 77.544 62.055 77.924 62.576 C 78.005 62.687 79.486 61.162 79.955 60.708 C 81.856 58.866 82.814 54.55 82.354 52.027 C 82.039 50.295 81.426 49.59 81.426 49.59" style="fill: rgb(20, 125, 22);" transform="matrix(-0.104528, -0.994522, 0.994522, -0.104528, 32.129752, 141.099535)"/>
  <circle style="fill: rgb(255, 255, 255);" cx="37.07" cy="62.292" r="5.069" transform="matrix(2.082795, 0, 0, 2.069416, 17.938631, -63.924114)"/>
  <circle style="" transform="matrix(-0.587098, 0.057995, 0.066148, 0.591399, 344.91037, -289.652405)" cx="487.72265625" cy="552.453125" r="7.41719013324158"/>
  <path d="M 142.31 95.519 C 141.045 96.052 141.194 96.102 140.103 97 C 137.956 98.766 137.085 103.082 137.879 105.881 C 138.073 106.565 138.425 107.986 138.805 108.507 C 138.887 108.618 140.367 107.093 140.836 106.639 C 142.737 104.797 143.695 100.481 143.236 97.958 C 142.921 96.226 142.308 95.521 142.308 95.521" style="fill: rgb(20, 125, 22);" transform="matrix(0.390732, -0.920505, 0.920505, 0.390732, -8.322451, 191.4579)"/>
  <path d="M 111.781 31.435 C 110.516 31.968 110.665 32.018 109.574 32.915 C 107.427 34.682 106.556 38.997 107.35 41.796 C 107.544 42.48 107.896 43.902 108.276 44.423 C 108.358 44.534 109.838 43.009 110.307 42.555 C 112.208 40.712 113.166 36.397 112.707 33.874 C 112.391 32.142 111.779 31.437 111.779 31.437" style="fill: rgb(20, 125, 22);" transform="matrix(0.838671, -0.544639, 0.544639, 0.838671, -2.922542, 65.997418)"/>
  <circle style="fill: rgb(255, 255, 255);" cx="37.07" cy="62.292" r="5.069" transform="matrix(2.082795, 0, 0, 2.069416, 48.509857, -63.919136)"/>
  <circle style="" transform="matrix(-0.587098, 0.057995, 0.066148, 0.591399, 375.685913, -289.882294)" cx="487.72265625" cy="552.453125" r="7.41719013324158" bx:origin="0.502 0.556"/>
  <path d="M 103.37 94.937 C 102.105 95.47 102.254 95.52 101.163 96.418 C 99.015 98.184 98.145 102.5 98.939 105.299 C 99.133 105.983 99.485 107.404 99.865 107.926 C 99.946 108.037 101.427 106.511 101.896 106.057 C 103.797 104.215 104.755 99.899 104.295 97.376 C 103.98 95.645 103.367 94.94 103.367 94.94" style="fill: rgb(20, 125, 22);" transform="matrix(0.62932, -0.777146, 0.777146, 0.62932, -41.194505, 116.502717)"/>
  <path d="M 83.42 76.977 C 82.156 77.51 82.305 77.56 81.214 78.457 C 79.066 80.224 78.195 84.539 78.99 87.338 C 79.184 88.022 79.536 89.444 79.916 89.965 C 79.997 90.076 81.478 88.551 81.946 88.097 C 83.848 86.254 84.806 81.938 84.346 79.416 C 84.031 77.684 83.418 76.979 83.418 76.979" style="fill: rgb(20, 125, 22);" transform="matrix(0.469472, 0.882947, -0.882947, 0.469472, 116.983479, -27.745622)"/>
  <path style="fill: rgb(255, 255, 255);" d="M 110.439 93.089 C 103.339 93.089 96.671 90.292 91.649 85.228 C 90.612 84.183 90.612 82.482 91.649 81.436 C 92.683 80.389 94.368 80.389 95.405 81.436 C 103.437 89.547 117.433 89.547 125.469 81.436 C 126.506 80.389 128.191 80.389 129.227 81.436 C 130.262 82.482 130.262 84.183 129.227 85.228 C 124.21 90.292 117.54 93.089 110.439 93.089 Z"/>
</svg>