<?xml version="1.0" encoding="utf-8"?>
<svg width="76" height="76" viewBox="0 0 76 76" xmlns="http://www.w3.org/2000/svg">
  <defs>
    <style>
      .a {
        fill: #fff;
      }
    </style>
  </defs>
  <g style="" transform="matrix(0.1185, 0, 0, 0.1185, 10.53931, 0.558643)"/>
  <g style="" transform="matrix(0.1185, 0, 0, 0.1185, 10.53931, 0.558643)"/>
  <g style="" transform="matrix(0.1185, 0, 0, 0.1185, 10.53931, 0.558643)"/>
  <g style="" transform="matrix(0.1185, 0, 0, 0.1185, 10.53931, 0.558643)"/>
  <g style="" transform="matrix(0.1185, 0, 0, 0.1185, 10.53931, 0.558643)"/>
  <g style="" transform="matrix(0.1185, 0, 0, 0.1185, 10.53931, 0.558643)"/>
  <g style="" transform="matrix(0.1185, 0, 0, 0.1185, 10.53931, 0.558643)"/>
  <g style="" transform="matrix(0.1185, 0, 0, 0.1185, 10.53931, 0.558643)"/>
  <g style="" transform="matrix(0.1185, 0, 0, 0.1185, 10.53931, 0.558643)"/>
  <g style="" transform="matrix(0.1185, 0, 0, 0.1185, 10.53931, 0.558643)"/>
  <g style="" transform="matrix(0.1185, 0, 0, 0.1185, 10.53931, 0.558643)"/>
  <g style="" transform="matrix(0.1185, 0, 0, 0.1185, 10.53931, 0.558643)"/>
  <g style="" transform="matrix(0.1185, 0, 0, 0.1185, 10.53931, 0.558643)"/>
  <g style="" transform="matrix(0.1185, 0, 0, 0.1185, 10.53931, 0.558643)"/>
  <g style="" transform="matrix(0.1185, 0, 0, 0.1185, 10.53931, 0.558643)"/>
  <rect x="35.916" y="50.773" width="6.445" height="24.447" style="fill: rgb(162, 129, 129);"/>
  <path d="M 31.426 3.189 C 27.509 3.189 20.969 2.504 18.669 6.628 C 18.498 6.934 18.109 7.9 18.334 8.259 C 18.572 8.639 20.602 8.829 19.758 9.755 C 18.722 10.894 17.266 11.966 15.842 12.557 C 15.056 12.884 13.473 12.436 13.176 13.42 C 12.795 14.682 12.836 16.056 12.726 17.356 C 12.696 17.716 12.474 18.781 12.672 19.115 C 12.883 19.472 16.252 19.186 15.813 19.656 C 13.167 22.494 8.271 24.187 9.163 28.907 C 9.326 29.769 11.062 29.207 11.251 29.524 C 11.753 30.369 11.585 32.249 11.527 33.185 C 11.414 35.041 7.222 37.07 8.834 39.155 C 9.744 40.331 11.425 40.372 12.69 40.688 C 12.951 40.753 13.155 41.4 13.488 41.048 C 13.834 40.683 15.456 38.134 16.314 38.727 C 17.054 39.239 16.602 42.228 16.602 43.053 C 16.602 43.992 16.573 44.785 15.638 45.014 C 15.509 45.045 15.725 46.61 15.737 46.661 C 16.158 48.348 16.593 50.496 17.951 51.714 C 19.227 52.858 21.677 52.479 23.22 52.479 C 23.705 52.479 24.675 52.651 25.097 52.313 C 25.165 52.258 27.357 49.683 27.778 50.375 C 28.08 50.87 27.852 51.609 28.241 52.054 C 28.802 52.696 29.847 52.664 30.374 53.291 C 30.503 53.443 30.974 54.483 30.387 54.183 C 30.143 54.058 30.94 54.166 31.207 54.228 C 31.658 54.333 32.095 54.407 32.556 54.468 C 33.842 54.639 35.503 55.119 36.806 54.872 C 38.937 54.468 39.123 50.569 41.743 51.513 C 43.244 52.054 43.967 53.878 45.083 54.884 C 45.781 55.512 46.732 55.559 47.581 55.804 C 49.359 56.319 51.581 57.056 53.468 56.756 C 53.994 56.672 54.585 56.298 55.023 56.029 C 55.326 55.842 57.737 54.469 57.226 53.817 C 56.949 53.462 56.224 53.446 56.15 52.906 C 56.075 52.363 56.272 51.755 56.11 51.226 C 56.042 51.002 54.934 50.155 55.079 49.969 C 56.807 47.751 60.255 49.616 61.871 47.183 C 62.711 45.919 63.234 42.449 62.697 41.107 C 62.318 40.161 60.357 39.467 60.874 38.133 C 61.457 36.633 64.063 35.204 65.387 34.476 C 65.884 34.203 66.799 33.871 67.068 33.331 C 67.747 31.967 65.07 32.151 64.613 31.771 C 64.547 31.717 64.613 30.943 64.613 30.882 C 64.613 29.856 64.558 28.813 64.613 27.788 C 64.668 26.738 64.866 25.521 65.377 24.6 C 66.294 22.945 68.387 22.082 67.953 19.779 C 67.588 17.845 63.71 18.042 62.35 17.587 C 62.172 17.528 61.004 17.269 60.89 17.041 C 60.55 16.36 60.753 14.816 60.657 14.029 C 60.427 12.122 59.964 10.23 59.761 8.333 C 59.693 7.696 60.184 5.826 59.679 5.396 C 57.55 3.582 54.991 6.625 52.658 6.033 C 52.086 5.888 51.291 5.262 50.936 4.79 C 50.868 4.7 50.822 4.17 50.801 4.158 C 49.311 3.319 48.007 1.566 46.152 1.255 C 44.824 1.031 43.451 1.053 42.064 1.053 C 41.577 1.053 40.794 0.839 40.343 1.093 C 39.403 1.623 39.224 2.924 37.947 2.668 C 36.985 2.475 34.706 0.671 33.848 0.965 C 33.549 1.067 32.624 1.048 32.457 1.374 C 31.996 2.275 32.378 3.259 31.005 3.259" style="fill: rgb(129, 167, 113);"/>
  <g transform="matrix(0.079092, 0, 0, 0.07984, 18.7696, 7.116061)" style="stroke-width: 1.5724; vector-effect: non-scaling-stroke;">
    <circle style="" cx="160" cy="192" r="32"/>
    <circle style="" cx="352" cy="192" r="32"/>
    <path style="" d="M 259.985 394.116 C 217.234 394.116 177.078 377.44 146.839 347.23 C 140.597 340.99 140.597 330.845 146.839 324.606 C 153.071 318.366 163.217 318.366 169.458 324.606 C 217.814 372.988 302.099 372.988 350.483 324.606 C 356.724 318.366 366.871 318.366 373.103 324.606 C 379.344 330.845 379.344 340.99 373.103 347.23 C 342.902 377.44 302.735 394.116 259.985 394.116 Z"/>
  </g>
</svg>