<?xml version="1.0" encoding="utf-8"?>
<svg viewBox="-33.419 45.319 77.285 82.827" width="77.285" height="82.827" xmlns="http://www.w3.org/2000/svg" xmlns:bx="https://boxy-svg.com">
  <path style="fill: rgb(124, 74, 74);" d="M -0.126 118.589 H 10.18 V 126.146 A 2 2 0 0 1 8.18 128.146 H 1.874 A 2 2 0 0 1 -0.126 126.146 V 118.589 Z" bx:shape="rect -0.126 118.589 10.306 9.557 0 0 2 2 1@06969835"/>
  <circle style="fill: rgb(101, 142, 82);" cx="5.349" cy="84.209" r="38.419"/>
  <path d="M -21.391 85.517 C -22.783 86.103 -22.618 86.159 -23.818 87.146 C -26.181 89.089 -27.138 93.835 -26.264 96.914 C -26.052 97.667 -25.664 99.23 -25.247 99.803 C -25.157 99.925 -23.528 98.248 -23.012 97.748 C -20.921 95.722 -19.868 90.974 -20.373 88.2 C -20.72 86.295 -21.393 85.518 -21.393 85.518" style="fill: rgb(20, 125, 22);" transform="matrix(0.559193, 0.829037, -0.829037, 0.559193, 66.499542, 60.258808)"/>
  <path d="M -11.074 101.077 C -12.465 101.664 -12.301 101.719 -13.501 102.704 C -15.864 104.648 -16.821 109.396 -15.948 112.475 C -15.733 113.226 -15.347 114.791 -14.929 115.364 C -14.84 115.486 -13.211 113.808 -12.695 113.309 C -10.604 111.283 -9.55 106.536 -10.056 103.761 C -10.403 101.855 -11.076 101.079 -11.076 101.079" style="fill: rgb(20, 125, 22);" transform="matrix(0.913546, 0.406736, -0.406736, 0.913546, 42.886028, 14.684007)"/>
  <path d="M -23.527 76.763 C -24.918 77.349 -24.755 77.405 -25.956 78.391 C -28.318 80.335 -29.274 85.081 -28.401 88.16 C -28.188 88.913 -27.801 90.476 -27.383 91.05 C -27.293 91.173 -25.665 89.494 -25.149 88.994 C -23.059 86.969 -22.005 82.221 -22.509 79.446 C -22.857 77.542 -23.531 76.765 -23.531 76.765" style="fill: rgb(20, 125, 22);" transform="matrix(0.224952, 0.97437, -0.97437, 0.224952, 61.95509, 89.931122)"/>
  <path d="M -17.355 93.985 C -18.745 94.571 -18.582 94.626 -19.783 95.612 C -22.144 97.557 -23.101 102.302 -22.229 105.381 C -22.014 106.134 -21.627 107.698 -21.21 108.271 C -21.121 108.393 -19.492 106.714 -18.976 106.216 C -16.884 104.189 -15.832 99.442 -16.336 96.667 C -16.683 94.761 -17.357 93.987 -17.357 93.987" style="fill: rgb(20, 125, 22);" transform="matrix(0.766045, 0.642787, -0.642787, 0.766045, 60.471966, 36.116741)"/>
  <path d="M -2.743 105.338 C -4.134 105.924 -3.971 105.979 -5.169 106.967 C -7.532 108.91 -8.489 113.655 -7.617 116.735 C -7.402 117.487 -7.015 119.051 -6.598 119.624 C -6.508 119.746 -4.881 118.068 -4.364 117.569 C -2.273 115.543 -1.218 110.795 -1.724 108.021 C -2.072 106.115 -2.745 105.34 -2.745 105.34" style="fill: rgb(20, 125, 22);" transform="matrix(-0.999391, -0.034898, 0.034898, -0.999391, -13.456005, 224.733459)"/>
  <path d="M -21.964 66.838 C -23.355 67.425 -23.192 67.479 -24.392 68.467 C -26.755 70.411 -27.712 75.157 -26.838 78.235 C -26.625 78.988 -26.238 80.551 -25.819 81.125 C -25.731 81.247 -24.101 79.57 -23.585 79.07 C -21.495 77.045 -20.441 72.297 -20.945 69.521 C -21.293 67.617 -21.966 66.841 -21.966 66.841" style="fill: rgb(20, 125, 22);" transform="matrix(0.087155, -0.996195, 0.996195, 0.087155, -95.601067, 43.639141)"/>
  <path d="M -10.594 52.204 C -11.986 52.789 -11.822 52.844 -13.022 53.832 C -15.385 55.775 -16.342 60.521 -15.467 63.6 C -15.256 64.353 -14.867 65.917 -14.45 66.489 C -14.36 66.612 -12.73 64.934 -12.215 64.435 C -10.126 62.408 -9.071 57.661 -9.576 54.886 C -9.923 52.98 -10.598 52.206 -10.598 52.206" style="fill: rgb(20, 125, 22);" transform="matrix(0.62932, -0.777147, 0.777147, 0.62932, -50.800957, 12.19313)"/>
  <path d="M 6.974 46.124 C 5.582 46.711 5.746 46.765 4.547 47.752 C 2.184 49.695 1.226 54.441 2.1 57.521 C 2.314 58.273 2.7 59.837 3.118 60.41 C 3.208 60.533 4.836 58.855 5.352 58.356 C 7.443 56.329 8.497 51.582 7.992 48.806 C 7.644 46.902 6.972 46.127 6.972 46.127" style="fill: rgb(20, 125, 22);" transform="matrix(-0.97437, 0.224952, -0.224952, -0.97437, 21.754618, 104.06179)"/>
  <path d="M -17.787 58.828 C -19.178 59.414 -19.014 59.469 -20.215 60.456 C -22.576 62.4 -23.535 67.145 -22.661 70.224 C -22.447 70.977 -22.06 72.541 -21.641 73.114 C -21.552 73.235 -19.924 71.557 -19.408 71.058 C -17.317 69.034 -16.264 64.285 -16.768 61.51 C -17.115 59.604 -17.788 58.829 -17.788 58.829" style="fill: rgb(20, 125, 22);" transform="matrix(-0.325568, 0.945519, -0.945519, -0.325568, 36.118267, 106.185303)"/>
  <path d="M -2.928 48.167 C -4.321 48.753 -4.156 48.808 -5.356 49.795 C -7.719 51.738 -8.676 56.484 -7.802 59.563 C -7.59 60.316 -7.202 61.88 -6.784 62.453 C -6.695 62.574 -5.066 60.897 -4.55 60.397 C -2.459 58.371 -1.405 53.624 -1.91 50.85 C -2.257 48.944 -2.93 48.168 -2.93 48.168" style="fill: rgb(20, 125, 22);" transform="matrix(0.848048, -0.52992, 0.52992, 0.848048, -30.064129, 5.780279)"/>
  <path d="M 35.926 66.399 C 34.535 66.986 34.7 67.04 33.499 68.027 C 31.137 69.971 30.18 74.717 31.052 77.796 C 31.266 78.548 31.653 80.112 32.071 80.684 C 32.16 80.807 33.789 79.131 34.305 78.631 C 36.397 76.605 37.451 71.857 36.946 69.082 C 36.598 67.177 35.924 66.4 35.924 66.4" style="fill: rgb(20, 125, 22);" transform="matrix(-0.559193, -0.829037, 0.829037, -0.559193, -8.110614, 142.776947)"/>
  <path d="M 24.548 51.915 C 23.158 52.501 23.321 52.555 22.122 53.543 C 19.759 55.487 18.802 60.233 19.675 63.311 C 19.889 64.064 20.275 65.628 20.694 66.201 C 20.782 66.324 22.412 64.645 22.929 64.146 C 25.019 62.12 26.073 57.373 25.568 54.596 C 25.22 52.693 24.547 51.917 24.547 51.917" style="fill: rgb(20, 125, 22);" transform="matrix(-0.913546, -0.406736, 0.406736, -0.913546, 19.079971, 122.177986)"/>
  <path d="M 31.311 57.888 C 29.921 58.473 30.084 58.528 28.883 59.515 C 26.522 61.458 25.565 66.205 26.437 69.284 C 26.652 70.036 27.038 71.6 27.457 72.173 C 27.546 72.295 29.174 70.619 29.69 70.119 C 31.782 68.093 32.836 63.344 32.33 60.57 C 31.983 58.664 31.309 57.888 31.309 57.888" style="fill: rgb(20, 125, 22);" transform="matrix(-0.766045, -0.642787, 0.642787, -0.766045, 9.919901, 133.677872)"/>
  <path d="M 38.215 77.42 C 36.825 78.007 36.988 78.062 35.787 79.047 C 33.425 80.992 32.468 85.738 33.341 88.818 C 33.555 89.569 33.942 91.133 34.36 91.707 C 34.449 91.829 36.078 90.152 36.594 89.652 C 38.684 87.626 39.737 82.878 39.233 80.103 C 38.886 78.198 38.213 77.421 38.213 77.421" style="fill: rgb(20, 125, 22);" transform="matrix(0.224952, 0.97437, -0.97437, 0.224952, 110.448303, 30.280642)"/>
  <path d="M 35.796 86.557 C 34.405 87.144 34.569 87.199 33.369 88.186 C 31.005 90.129 30.048 94.876 30.922 97.955 C 31.136 98.707 31.524 100.27 31.941 100.845 C 32.03 100.967 33.66 99.289 34.175 98.789 C 36.266 96.764 37.319 92.015 36.814 89.239 C 36.468 87.336 35.793 86.56 35.793 86.56" style="fill: rgb(20, 125, 22);" transform="matrix(-0.087155, 0.996195, -0.996195, -0.087155, 130.061996, 68.228371)"/>
  <path d="M 24.158 101.53 C 22.766 102.115 22.931 102.17 21.73 103.158 C 19.366 105.101 18.411 109.847 19.283 112.926 C 19.496 113.679 19.885 115.243 20.303 115.816 C 20.392 115.939 22.022 114.26 22.537 113.762 C 24.627 111.735 25.681 106.987 25.177 104.212 C 24.829 102.307 24.157 101.531 24.157 101.531" style="fill: rgb(20, 125, 22);" transform="matrix(-0.62932, 0.777147, -0.777147, -0.62932, 120.519493, 159.867508)"/>
  <path d="M 31.873 95.285 C 30.482 95.871 30.646 95.925 29.446 96.912 C 27.083 98.856 26.125 103.602 26.998 106.682 C 27.213 107.433 27.599 108.998 28.018 109.57 C 28.105 109.692 29.736 108.016 30.253 107.516 C 32.343 105.49 33.397 100.742 32.892 97.967 C 32.545 96.062 31.871 95.286 31.871 95.286" style="fill: rgb(20, 125, 22);" transform="matrix(0.325568, -0.945519, 0.945519, 0.325568, -76.719391, 97.304756)"/>
  <path d="M 16.268 105.745 C 14.876 106.332 15.04 106.386 13.841 107.374 C 11.477 109.316 10.521 114.062 11.394 117.14 C 11.607 117.893 11.994 119.458 12.412 120.031 C 12.502 120.153 14.131 118.475 14.646 117.976 C 16.738 115.951 17.792 111.202 17.286 108.427 C 16.938 106.523 16.266 105.747 16.266 105.747" style="fill: rgb(20, 125, 22);" transform="matrix(-0.848048, 0.52992, -0.52992, -0.848048, 86.145866, 201.080368)"/>
  <path d="M 15.704 47.452 C 14.311 48.039 14.476 48.094 13.275 49.079 C 10.914 51.023 9.956 55.769 10.829 58.849 C 11.044 59.6 11.43 61.165 11.848 61.739 C 11.937 61.859 13.565 60.182 14.081 59.684 C 16.173 57.658 17.226 52.909 16.721 50.135 C 16.374 48.23 15.701 47.453 15.701 47.453" style="fill: rgb(20, 125, 22);" transform="matrix(0.999391, 0.034898, -0.034898, 0.999391, 1.913712, -0.444092)"/>
  <circle style="" transform="matrix(-1.005572, 0.099332, 0.113297, 1.012938, 419.420349, -529.837769)" cx="487.72265625" cy="552.453125" r="7.41719013324158" bx:origin="0.502 0.556"/>
  <path style="" transform="matrix(0, -0.11388, 0.140839, 0, -69.207703, 115.129433)" d="M 222.871 633.043 A 105.843 105.843 0 1 1 221.102 421.372 L 221.102 527.215 Z" bx:shape="pie 221.102 527.215 0 105.843 179.042 360 1@9f4a9f26"/>
  <path d="M 7.502 88.316 C 5.991 89.136 6.169 89.214 4.864 90.593 C 2.301 93.312 1.263 99.951 2.211 104.257 C 2.442 105.31 2.863 107.497 3.316 108.3 C 3.413 108.47 5.181 106.123 5.74 105.424 C 8.011 102.592 9.154 95.95 8.607 92.068 C 8.229 89.406 7.497 88.319 7.497 88.319" style="fill: rgb(20, 125, 22);" transform="matrix(0.224952, 0.97437, -0.97437, 0.224952, 99.903229, 71.029091)"/>
  <circle style="" transform="matrix(-1.005572, 0.099332, 0.113297, 1.012938, 446.846375, -530.106689)" cx="487.72265625" cy="552.453125" r="7.41719013324158" bx:origin="0.502 0.556"/>
  <path d="M 6.18 106.793 C 4.789 107.38 4.952 107.434 3.753 108.421 C 1.39 110.364 0.432 115.11 1.306 118.19 C 1.52 118.942 1.906 120.506 2.324 121.079 C 2.414 121.201 4.043 119.524 4.558 119.025 C 6.649 116.998 7.703 112.251 7.198 109.475 C 6.85 107.571 6.178 106.796 6.178 106.796" style="fill: rgb(20, 125, 22);" transform="matrix(-0.97437, 0.224952, -0.224952, -0.97437, 33.834568, 224.023346)"/>
  <path d="M 37.838 45.684 C 36.448 46.269 36.611 46.324 35.41 47.311 C 33.049 49.254 32.092 54.001 32.964 57.08 C 33.178 57.832 33.565 59.397 33.983 59.969 C 34.073 60.091 35.701 58.415 36.217 57.916 C 38.309 55.889 39.363 51.14 38.857 48.366 C 38.51 46.461 37.836 45.685 37.836 45.685" style="fill: rgb(20, 125, 22);" transform="matrix(-0.766045, -0.642787, 0.642787, -0.766045, 29.291447, 116.320526)"/>
  <path d="M -23.606 47.425 C -24.997 48.012 -24.833 48.067 -26.034 49.053 C -28.395 50.997 -29.354 55.743 -28.48 58.822 C -28.266 59.574 -27.879 61.138 -27.461 61.711 C -27.371 61.832 -25.743 60.155 -25.227 59.656 C -23.136 57.631 -22.083 52.883 -22.587 50.108 C -22.934 48.201 -23.608 47.426 -23.608 47.426" style="fill: rgb(20, 125, 22);" transform="matrix(-0.325568, 0.945519, -0.945519, -0.325568, 17.623037, 96.571831)"/>
</svg>