<?xml version="1.0" encoding="utf-8"?>
<svg viewBox="55.818 18.328 259.786 334.68" width="259.786" height="334.68" xmlns="http://www.w3.org/2000/svg">
  <path d="M 177.65 343.543 C 177.121 346.601 176.023 354.375 192.878 352.548 C 198.422 351.947 197.996 345.007 198.217 343.655 C 198.417 342.433 198.217 336.673 198.217 335.553 C 198.217 327.587 198.01 297.117 196.86 289.394 C 194.589 274.142 197.555 281.124 196.031 265.943 C 194.484 250.542 191.916 236.421 196.105 221.598 C 200.282 206.816 221.941 199.654 232.414 190.808 C 237.937 186.143 241.89 181.766 246.936 176.695 C 249.435 174.184 251.735 171.254 254.441 169.207 C 260.04 164.969 264.312 156.92 268.544 151.233 C 269.883 149.433 272.998 143.612 274.266 141.643 C 274.421 141.402 273.907 140.071 273.953 140.111 C 274.038 140.188 272.834 140.79 272.576 141.025 C 270.13 143.25 266.548 149.957 264.358 152.426 C 257.875 159.733 250.542 165.531 241.935 171.948 C 237.658 175.137 230.093 181.616 226.427 185.249 C 219.766 191.85 208.697 195.142 203.025 202.618 C 201.676 204.397 192.727 214.646 191.741 212.166 C 184.722 194.529 197.077 178.061 206.332 164.941 C 221.092 144.014 238.414 120.705 233.291 93.548 C 231.468 83.884 226.381 75.213 224.496 66.093 C 224.261 64.956 222.277 57.461 221.185 57.392 C 219.763 57.302 220.215 60.359 220.604 61.73 C 221.474 64.798 221.627 67.087 222.783 70.003 C 225.485 76.818 226.056 85.641 227.284 93.009 C 229.632 107.095 228.525 119.055 219.278 130.643 C 217.332 133.083 216.067 136.82 213.566 138.44 C 210.842 140.205 211.476 139.926 209.343 142.058 C 209.066 142.335 208.35 140.584 208.086 140.244 C 206.306 137.958 206.4 135.459 204.385 133.444 C 200.227 129.286 199.36 127.173 197.376 121.891 C 194.445 114.091 188.591 107.223 186.095 99.288 C 183.036 89.561 172.547 77.589 167.144 68.668 C 166.591 67.756 160.227 62.328 160.776 61.704 C 161.07 61.371 164.43 71.894 164.91 72.567 C 172.132 82.678 177.374 92.259 182.779 103.068 C 188.261 114.032 190.213 126.91 195.039 138.419 C 198.751 147.27 207.115 145.98 202.254 155.66 C 197.732 164.666 190.414 171.927 186.2 180.23 C 184.563 183.456 186.186 192.327 184.19 194.522 C 183.99 194.742 182.782 191.271 182.65 190.989 C 181.176 187.835 180.244 184.263 177.999 181.505 C 171.819 173.914 168.511 162.765 165.47 153.494 C 159.032 133.871 149.666 118.217 130.829 108.779 C 127.297 107.01 123.493 105.962 120.103 103.977 C 115.49 101.276 114.024 101.779 108.878 101.779 C 107.436 101.779 107.491 102.987 108.879 103.379 C 111.471 104.111 113.827 105.777 116.331 106.77 C 122.66 109.278 134.979 113.584 138.271 120.182 C 144.688 133.042 152.442 145.842 158.879 158.816 C 161.055 163.201 161.932 169.315 164.315 174.083 C 168.798 183.049 174.699 191.489 178.376 200.768 C 181.709 209.176 184.509 215.971 182.442 225.798 C 182.238 226.764 183.037 231.425 182.293 232.182 C 180.275 234.233 175.109 227.028 174.144 225.918 C 167.678 218.473 163.093 209.749 157.315 202.062 C 150.087 192.447 146.909 182.892 136.501 176.775 C 133.206 174.839 130.757 171.042 126.758 170.215 C 121.545 169.137 115.989 169.677 110.545 168.926 C 106.953 168.43 103.56 165.778 100.11 165.778 C 98.955 165.778 99.414 169.243 100.512 169.601 C 103.061 170.433 106.368 171.332 108.552 172.955 C 114.996 177.739 125.167 178.81 130.842 184.484 C 133.702 187.345 137.467 189.036 140.325 191.894 C 149.122 200.692 153.63 213.663 162.193 223.24 C 168.215 229.974 172.486 236.051 175.809 244.434 C 176.354 245.809 179.609 247.667 179.691 248.756 C 181.255 269.392 182.264 271.423 180.148 292.411 C 179.444 299.385 180.147 326.022 180.147 333.05 C 180.147 334.36 178.638 339.671 178.638 339.671" style="fill: rgb(120, 37, 37); fill-opacity: 0.04;"/>
  <path d="M 266.055 38.034 C 263.05 39.3 263.404 39.419 260.812 41.551 C 255.709 45.748 253.641 56.001 255.528 62.651 C 255.989 64.276 256.825 67.654 257.728 68.892 C 257.921 69.156 261.439 65.532 262.553 64.453 C 267.07 60.076 269.346 49.822 268.254 43.828 C 267.505 39.714 266.049 38.039 266.049 38.039" style="fill: rgb(20, 125, 22); fill-opacity: 0.04;" transform="matrix(0.961262, 0.275637, -0.275637, 0.961262, 24.875362, -70.057953)"/>
  <path d="M 252.168 28.734 C 249.163 30 249.517 30.119 246.925 32.251 C 241.822 36.448 239.754 46.701 241.641 53.351 C 242.102 54.976 242.938 58.354 243.841 59.592 C 244.034 59.856 247.552 56.232 248.666 55.153 C 253.183 50.776 255.459 40.522 254.367 34.528 C 253.618 30.414 252.162 28.739 252.162 28.739" style="fill: rgb(20, 125, 22); fill-opacity: 0.04;" transform="matrix(0.961262, 0.275637, -0.275637, 0.961262, 21.773981, -66.590446)"/>
  <path d="M 190.665 29.009 C 187.66 30.275 188.014 30.394 185.422 32.526 C 180.319 36.723 178.251 46.976 180.138 53.626 C 180.599 55.251 181.435 58.629 182.338 59.867 C 182.531 60.131 186.049 56.507 187.163 55.428 C 191.68 51.051 193.956 40.797 192.864 34.803 C 192.115 30.689 190.659 29.014 190.659 29.014" style="fill: rgb(20, 125, 22); fill-opacity: 0.04;"/>
  <path d="M 232.58 21.804 C 229.575 23.07 229.929 23.189 227.337 25.321 C 222.234 29.518 220.166 39.771 222.053 46.421 C 222.514 48.046 223.35 51.424 224.253 52.662 C 224.446 52.926 227.964 49.302 229.078 48.223 C 233.595 43.846 235.871 33.592 234.779 27.598 C 234.03 23.484 232.574 21.809 232.574 21.809" style="fill: rgb(20, 125, 22); fill-opacity: 0.04;" transform="matrix(0.961262, 0.275637, -0.275637, 0.961262, 19.105013, -61.459721)"/>
  <path d="M 207.87 51.844 C 204.865 53.11 205.219 53.229 202.627 55.361 C 197.524 59.558 195.456 69.811 197.343 76.461 C 197.804 78.086 198.64 81.464 199.543 82.702 C 199.736 82.966 203.254 79.342 204.368 78.263 C 208.885 73.886 211.161 63.632 210.069 57.638 C 209.32 53.524 207.864 51.849 207.864 51.849" style="fill: rgb(20, 125, 22); fill-opacity: 0.04;"/>
  <path d="M 209.362 18.328 C 206.357 19.594 206.711 19.713 204.119 21.845 C 199.016 26.042 196.948 36.295 198.835 42.945 C 199.296 44.57 200.132 47.948 201.035 49.186 C 201.228 49.45 204.746 45.826 205.86 44.747 C 210.377 40.37 212.653 30.116 211.561 24.122 C 210.812 20.008 209.356 18.333 209.356 18.333" style="fill: rgb(20, 125, 22); fill-opacity: 0.04;"/>
  <path d="M 176.818 19.574 C 173.813 20.84 174.167 20.959 171.575 23.091 C 166.472 27.288 164.404 37.541 166.291 44.191 C 166.752 45.816 167.588 49.194 168.491 50.432 C 168.684 50.696 172.202 47.072 173.316 45.993 C 177.833 41.616 180.109 31.362 179.017 25.368 C 178.268 21.254 176.812 19.579 176.812 19.579" style="fill: rgb(20, 125, 22); fill-opacity: 0.04;"/>
  <path d="M 153.838 23.801 C 150.833 25.067 151.187 25.186 148.595 27.318 C 143.492 31.515 141.424 41.768 143.311 48.418 C 143.772 50.043 144.608 53.421 145.511 54.659 C 145.704 54.923 149.222 51.299 150.336 50.22 C 154.853 45.843 157.129 35.589 156.037 29.595 C 155.288 25.481 153.832 23.806 153.832 23.806" style="fill: rgb(20, 125, 22); fill-opacity: 0.04;" transform="matrix(0.87462, -0.48481, 0.48481, 0.87462, -0.28241, 77.381706)"/>
  <path d="M 299.997 108.452 C 296.992 109.718 297.346 109.837 294.754 111.969 C 289.651 116.166 287.583 126.419 289.47 133.069 C 289.931 134.694 290.767 138.072 291.67 139.31 C 291.863 139.574 295.381 135.95 296.495 134.871 C 301.012 130.494 303.288 120.24 302.196 114.246 C 301.447 110.132 299.991 108.457 299.991 108.457" style="fill: rgb(20, 125, 22); fill-opacity: 0.04;" transform="matrix(0.358368, 0.93358, -0.93358, 0.358368, 305.341156, -196.498489)"/>
  <path d="M 296.272 91.112 C 293.267 92.378 293.621 92.497 291.029 94.629 C 285.926 98.826 283.858 109.079 285.745 115.729 C 286.206 117.354 287.042 120.732 287.945 121.97 C 288.138 122.234 291.656 118.61 292.77 117.531 C 297.287 113.154 299.563 102.9 298.471 96.906 C 297.722 92.792 296.266 91.117 296.266 91.117" style="fill: rgb(20, 125, 22); fill-opacity: 0.04;" transform="matrix(0.529919, 0.848048, -0.848048, 0.529919, 227.573959, -197.45842)"/>
  <path d="M 218.306 66.432 C 215.301 67.698 215.655 67.817 213.063 69.949 C 207.96 74.146 205.892 84.399 207.779 91.049 C 208.24 92.674 209.076 96.052 209.979 97.29 C 210.172 97.554 213.69 93.93 214.804 92.851 C 219.321 88.474 221.597 78.22 220.505 72.226 C 219.756 68.112 218.3 66.437 218.3 66.437" style="fill: rgb(20, 125, 22); fill-opacity: 0.04;"/>
  <path d="M 275.071 82.254 C 272.066 83.52 272.42 83.639 269.828 85.771 C 264.725 89.968 262.657 100.221 264.544 106.871 C 265.005 108.496 265.841 111.874 266.744 113.112 C 266.937 113.376 270.455 109.752 271.569 108.673 C 276.086 104.296 278.362 94.042 277.27 88.048 C 276.521 83.934 275.065 82.259 275.065 82.259" style="fill: rgb(20, 125, 22); fill-opacity: 0.04;" transform="matrix(0.656059, 0.75471, -0.75471, 0.656059, 166.831726, -170.698959)"/>
  <path d="M 223.655 94.816 C 220.65 96.082 221.004 96.201 218.412 98.333 C 213.309 102.53 211.241 112.783 213.128 119.433 C 213.589 121.058 214.425 124.436 215.328 125.674 C 215.521 125.938 219.039 122.314 220.153 121.235 C 224.67 116.858 226.946 106.604 225.854 100.61 C 225.105 96.496 223.649 94.821 223.649 94.821" style="fill: rgb(20, 125, 22); fill-opacity: 0.04;" transform="matrix(0.93358, -0.358368, 0.358368, 0.93358, -24.946108, 85.906593)"/>
  <path d="M 276.439 58.834 C 273.434 60.1 273.788 60.219 271.196 62.351 C 266.093 66.548 264.025 76.801 265.912 83.451 C 266.373 85.076 267.209 88.454 268.112 89.692 C 268.305 89.956 271.823 86.332 272.937 85.253 C 277.454 80.876 279.73 70.622 278.638 64.628 C 277.889 60.514 276.433 58.839 276.433 58.839" style="fill: rgb(20, 125, 22); fill-opacity: 0.04;" transform="matrix(0.951057, 0.309017, -0.309017, 0.951057, 36.266514, -80.438034)"/>
  <path d="M 130.684 31.477 C 127.679 32.743 128.033 32.862 125.441 34.994 C 120.338 39.191 118.27 49.444 120.157 56.094 C 120.618 57.719 121.454 61.097 122.357 62.335 C 122.55 62.599 126.068 58.975 127.182 57.896 C 131.699 53.519 133.975 43.265 132.883 37.271 C 132.134 33.157 130.678 31.482 130.678 31.482" style="fill: rgb(20, 125, 22); fill-opacity: 0.04;" transform="matrix(0.743145, -0.669131, 0.669131, 0.743145, 1.052844, 96.568459)"/>
  <path d="M 254.782 77.007 C 251.777 78.273 252.131 78.392 249.539 80.524 C 244.436 84.721 242.368 94.974 244.255 101.624 C 244.716 103.249 245.552 106.627 246.455 107.865 C 246.648 108.129 250.166 104.505 251.28 103.426 C 255.797 99.049 258.073 88.795 256.981 82.801 C 256.232 78.687 254.776 77.012 254.776 77.012" style="fill: rgb(20, 125, 22); fill-opacity: 0.04;" transform="matrix(0.981627, 0.190809, -0.190809, 0.981627, 22.239653, -46.081886)"/>
  <path d="M 207.58 94.149 C 204.575 95.415 204.929 95.534 202.337 97.666 C 197.234 101.863 195.166 112.116 197.053 118.766 C 197.514 120.391 198.35 123.769 199.253 125.007 C 199.446 125.271 202.964 121.647 204.078 120.568 C 208.595 116.191 210.871 105.937 209.779 99.943 C 209.03 95.829 207.574 94.154 207.574 94.154" style="fill: rgb(20, 125, 22); fill-opacity: 0.04;" transform="matrix(0.920505, -0.390731, 0.390731, 0.920505, -26.66423, 88.110786)"/>
  <path d="M 304.204 143.681 C 301.199 144.947 301.553 145.066 298.961 147.198 C 293.858 151.395 291.79 161.648 293.677 168.298 C 294.138 169.923 294.974 173.301 295.877 174.539 C 296.07 174.803 299.588 171.179 300.702 170.1 C 305.219 165.723 307.495 155.469 306.403 149.475 C 305.654 145.361 304.198 143.686 304.198 143.686" style="fill: rgb(20, 125, 22); fill-opacity: 0.04;" transform="matrix(0.052336, -0.99863, 0.99863, 0.052336, 125.240387, 450.209534)"/>
  <path d="M 271.121 112.153 C 268.116 113.419 268.47 113.538 265.878 115.67 C 260.775 119.867 258.707 130.12 260.594 136.77 C 261.055 138.395 261.891 141.773 262.794 143.011 C 262.987 143.275 266.505 139.651 267.619 138.572 C 272.136 134.195 274.412 123.941 273.32 117.947 C 272.571 113.833 271.115 112.158 271.115 112.158" style="fill: rgb(20, 125, 22); fill-opacity: 0.04;" transform="matrix(-0.034899, 0.999391, -0.999391, -0.034899, 403.568481, -134.544052)"/>
  <path d="M 297.141 123.34 C 294.136 124.606 294.49 124.725 291.898 126.857 C 286.795 131.054 284.727 141.307 286.614 147.957 C 287.075 149.582 287.911 152.96 288.814 154.198 C 289.007 154.462 292.525 150.838 293.639 149.759 C 298.156 145.382 300.432 135.128 299.34 129.134 C 298.591 125.02 297.135 123.345 297.135 123.345" style="fill: rgb(20, 125, 22); fill-opacity: 0.04;" transform="matrix(0.224951, 0.97437, -0.97437, 0.224951, 362.128693, -177.706436)"/>
  <path d="M 250.064 119.659 C 247.059 120.925 247.413 121.044 244.821 123.176 C 239.718 127.373 237.65 137.626 239.537 144.276 C 239.998 145.901 240.834 149.279 241.737 150.517 C 241.93 150.781 245.448 147.157 246.562 146.078 C 251.079 141.701 253.355 131.447 252.263 125.453 C 251.514 121.339 250.058 119.664 250.058 119.664" style="fill: rgb(20, 125, 22); fill-opacity: 0.04;" transform="matrix(-0.104528, 0.994522, -0.994522, -0.104528, 405.727539, -95.129189)"/>
  <path d="M 154.899 49.932 C 151.894 51.198 152.248 51.317 149.656 53.449 C 144.553 57.646 142.485 67.899 144.372 74.549 C 144.833 76.174 145.669 79.552 146.572 80.79 C 146.765 81.054 150.283 77.43 151.397 76.351 C 155.914 71.974 158.19 61.72 157.098 55.726 C 156.349 51.612 154.893 49.937 154.893 49.937" style="fill: rgb(20, 125, 22); fill-opacity: 0.04;" transform="matrix(0.669131, -0.743145, 0.743145, 0.669131, 1.226697, 133.490921)"/>
  <path d="M 253.441 100.224 C 250.436 101.49 250.79 101.609 248.198 103.741 C 243.095 107.938 241.027 118.191 242.914 124.841 C 243.375 126.466 244.211 129.844 245.114 131.082 C 245.307 131.346 248.825 127.722 249.939 126.643 C 254.456 122.266 256.732 112.012 255.64 106.018 C 254.891 101.904 253.435 100.229 253.435 100.229" style="fill: rgb(20, 125, 22); fill-opacity: 0.04;" transform="matrix(0.469472, 0.882947, -0.882947, 0.469472, 234.259109, -158.553268)"/>
  <path d="M 171.636 85.127 C 168.631 86.393 168.985 86.512 166.393 88.644 C 161.29 92.841 159.222 103.094 161.109 109.744 C 161.57 111.369 162.406 114.747 163.309 115.985 C 163.502 116.249 167.02 112.625 168.134 111.546 C 172.651 107.169 174.927 96.915 173.835 90.921 C 173.086 86.807 171.63 85.132 171.63 85.132" style="fill: rgb(20, 125, 22); fill-opacity: 0.04;" transform="matrix(0.707107, -0.707107, 0.707107, 0.707107, -22.118439, 147.727081)"/>
  <path d="M 165.519 242.187 C 162.514 243.453 162.868 243.572 160.276 245.704 C 155.173 249.901 153.105 260.154 154.992 266.804 C 155.453 268.429 156.289 271.807 157.192 273.045 C 157.385 273.309 160.903 269.685 162.017 268.606 C 166.534 264.229 168.81 253.975 167.718 247.981 C 166.969 243.867 165.513 242.192 165.513 242.192" style="fill: rgb(20, 125, 22); fill-opacity: 0.04;"/>
  <path d="M 172.567 187.557 C 169.562 188.823 169.916 188.942 167.324 191.074 C 162.221 195.271 160.153 205.524 162.04 212.174 C 162.501 213.799 163.337 217.177 164.24 218.415 C 164.433 218.679 167.951 215.055 169.065 213.976 C 173.582 209.599 175.858 199.345 174.766 193.351 C 174.017 189.237 172.561 187.562 172.561 187.562" style="fill: rgb(20, 125, 22); fill-opacity: 0.04;" transform="matrix(0.469472, -0.882947, 0.882947, 0.469472, -90.00032, 256.19989)"/>
  <path d="M 156.456 160.553 C 153.451 161.819 153.805 161.938 151.213 164.07 C 146.11 168.267 144.042 178.52 145.929 185.17 C 146.39 186.795 147.226 190.173 148.129 191.411 C 148.322 191.675 151.84 188.051 152.954 186.972 C 157.471 182.595 159.747 172.341 158.655 166.347 C 157.906 162.233 156.45 160.558 156.45 160.558" style="fill: rgb(20, 125, 22); fill-opacity: 0.04;" transform="matrix(0.422618, -0.906308, 0.906308, 0.422618, -71.690018, 239.446945)"/>
  <path d="M 211.67 167.102 C 208.665 168.368 209.019 168.487 206.427 170.619 C 201.324 174.816 199.256 185.069 201.143 191.719 C 201.604 193.344 202.44 196.722 203.343 197.96 C 203.536 198.224 207.054 194.6 208.168 193.521 C 212.685 189.144 214.961 178.89 213.869 172.896 C 213.12 168.782 211.664 167.107 211.664 167.107" style="fill: rgb(20, 125, 22); fill-opacity: 0.04;"/>
  <path d="M 264.623 170.893 C 261.618 172.159 261.972 172.278 259.38 174.41 C 254.277 178.607 252.209 188.86 254.096 195.51 C 254.557 197.135 255.393 200.513 256.296 201.751 C 256.489 202.015 260.007 198.391 261.121 197.312 C 265.638 192.935 267.914 182.681 266.822 176.687 C 266.073 172.573 264.617 170.898 264.617 170.898" style="fill: rgb(20, 125, 22); fill-opacity: 0.04;" transform="matrix(0.62932, -0.777146, 0.777146, 0.62932, -48.335262, 271.32077)"/>
  <path d="M 147.141 202.894 C 144.136 204.16 144.49 204.279 141.898 206.411 C 136.795 210.608 134.727 220.861 136.614 227.511 C 137.075 229.136 137.911 232.514 138.814 233.752 C 139.007 234.016 142.525 230.392 143.639 229.313 C 148.156 224.936 150.432 214.682 149.34 208.688 C 148.591 204.574 147.135 202.899 147.135 202.899" style="fill: rgb(20, 125, 22); fill-opacity: 0.04;"/>
  <path d="M 164.815 105.693 C 161.81 106.959 162.164 107.078 159.572 109.21 C 154.469 113.407 152.401 123.66 154.288 130.31 C 154.749 131.935 155.585 135.313 156.488 136.551 C 156.681 136.815 160.199 133.191 161.313 132.112 C 165.83 127.735 168.106 117.481 167.014 111.487 C 166.265 107.373 164.809 105.698 164.809 105.698" style="fill: rgb(20, 125, 22); fill-opacity: 0.04;" transform="matrix(0.819152, -0.573576, 0.573576, 0.819152, -40.461018, 113.931671)"/>
  <path d="M 253.284 185.47 C 250.279 186.736 250.633 186.855 248.041 188.987 C 242.938 193.184 240.87 203.437 242.757 210.087 C 243.218 211.712 244.054 215.09 244.957 216.328 C 245.15 216.592 248.668 212.968 249.782 211.889 C 254.299 207.512 256.575 197.258 255.483 191.264 C 254.734 187.15 253.278 185.475 253.278 185.475" style="fill: rgb(20, 125, 22); fill-opacity: 0.04;" transform="matrix(0.62932, -0.777146, 0.777146, 0.62932, -63.866863, 267.912109)"/>
  <path d="M 191.759 124.846 C 188.754 126.112 189.108 126.231 186.516 128.363 C 181.413 132.56 179.345 142.813 181.232 149.463 C 181.693 151.088 182.529 154.466 183.432 155.704 C 183.625 155.968 187.143 152.344 188.257 151.265 C 192.774 146.888 195.05 136.634 193.958 130.64 C 193.209 126.526 191.753 124.851 191.753 124.851" style="fill: rgb(20, 125, 22); fill-opacity: 0.04;" transform="matrix(0.615661, -0.788011, 0.788011, 0.615661, -38.523865, 201.578125)"/>
  <path d="M 85.68 156.687 C 82.675 157.953 83.029 158.072 80.437 160.204 C 75.334 164.401 73.266 174.654 75.153 181.304 C 75.614 182.929 76.45 186.307 77.353 187.545 C 77.546 187.809 81.064 184.185 82.178 183.106 C 86.695 178.729 88.971 168.475 87.879 162.481 C 87.13 158.367 85.674 156.692 85.674 156.692" style="fill: rgb(20, 125, 22); fill-opacity: 0.04;" transform="matrix(0.615662, 0.788011, -0.788011, 0.615662, 166.884094, 2.082527)"/>
  <path d="M 244.002 134.787 C 240.997 136.053 241.351 136.172 238.759 138.304 C 233.656 142.501 231.588 152.754 233.475 159.404 C 233.936 161.029 234.772 164.407 235.675 165.645 C 235.868 165.909 239.386 162.285 240.5 161.206 C 245.017 156.829 247.293 146.575 246.201 140.581 C 245.452 136.467 243.996 134.792 243.996 134.792" style="fill: rgb(20, 125, 22); fill-opacity: 0.04;" transform="matrix(-0.453991, 0.891006, -0.891006, -0.453991, 482.268097, 4.911547)"/>
  <path d="M 124.466 218.366 C 121.461 219.632 121.815 219.751 119.223 221.883 C 114.12 226.08 112.052 236.333 113.939 242.983 C 114.4 244.608 115.236 247.986 116.139 249.224 C 116.332 249.488 119.85 245.864 120.964 244.785 C 125.481 240.408 127.757 230.154 126.665 224.16 C 125.916 220.046 124.46 218.371 124.46 218.371" style="fill: rgb(20, 125, 22); fill-opacity: 0.04;" transform="matrix(0.848048, 0.529919, -0.529919, 0.848048, 142.144409, -28.113037)"/>
  <path d="M 123.358 198.217 C 120.353 199.483 120.707 199.602 118.115 201.734 C 113.012 205.931 110.944 216.184 112.831 222.834 C 113.292 224.459 114.128 227.837 115.031 229.075 C 115.224 229.339 118.742 225.715 119.856 224.636 C 124.373 220.259 126.649 210.005 125.557 204.011 C 124.808 199.897 123.352 198.222 123.352 198.222" style="fill: rgb(20, 125, 22); fill-opacity: 0.04;" transform="matrix(0.848048, 0.529919, -0.529919, 0.848048, 131.298706, -30.587561)"/>
  <path d="M 245.803 59.71 C 242.798 60.976 243.152 61.095 240.56 63.227 C 235.457 67.424 233.389 77.677 235.276 84.327 C 235.737 85.952 236.573 89.33 237.476 90.568 C 237.669 90.832 241.187 87.208 242.301 86.129 C 246.818 81.752 249.094 71.498 248.002 65.504 C 247.253 61.39 245.797 59.715 245.797 59.715" style="fill: rgb(20, 125, 22); fill-opacity: 0.04;"/>
  <path d="M 180.381 139.259 C 177.376 140.525 177.73 140.644 175.138 142.776 C 170.035 146.973 167.967 157.226 169.854 163.876 C 170.315 165.501 171.151 168.879 172.054 170.117 C 172.247 170.381 175.765 166.757 176.879 165.678 C 181.396 161.301 183.672 151.047 182.58 145.053 C 181.831 140.939 180.375 139.264 180.375 139.264" style="fill: rgb(20, 125, 22); fill-opacity: 0.04;" transform="matrix(0.669131, -0.743145, 0.743145, 0.669131, -56.724979, 181.983292)"/>
  <path d="M 228.478 149.417 C 225.473 150.683 225.827 150.802 223.235 152.934 C 218.132 157.131 216.064 167.384 217.951 174.034 C 218.412 175.659 219.248 179.037 220.151 180.275 C 220.344 180.539 223.862 176.915 224.976 175.836 C 229.493 171.459 231.769 161.205 230.677 155.211 C 229.928 151.097 228.472 149.422 228.472 149.422" style="fill: rgb(20, 125, 22); fill-opacity: 0.04;" transform="matrix(0.956305, -0.292372, 0.292372, 0.956305, -38.405979, 72.725288)"/>
  <path d="M 89.191 175.807 C 86.186 177.073 86.54 177.192 83.948 179.324 C 78.845 183.521 76.777 193.774 78.664 200.424 C 79.125 202.049 79.961 205.427 80.864 206.665 C 81.057 206.929 84.575 203.305 85.689 202.226 C 90.206 197.849 92.482 187.595 91.39 181.601 C 90.641 177.487 89.185 175.812 89.185 175.812" style="fill: rgb(20, 125, 22); fill-opacity: 0.04;" transform="matrix(0.848048, 0.529919, -0.529919, 0.848048, 114.231483, -15.887059)"/>
  <path d="M 101.818 195.932 C 98.813 197.198 99.167 197.317 96.575 199.449 C 91.472 203.646 89.404 213.899 91.291 220.549 C 91.752 222.174 92.588 225.552 93.491 226.79 C 93.684 227.054 97.202 223.43 98.316 222.351 C 102.833 217.974 105.109 207.72 104.017 201.726 C 103.268 197.612 101.812 195.937 101.812 195.937" style="fill: rgb(20, 125, 22); fill-opacity: 0.04;" transform="matrix(0.731354, 0.681998, -0.681998, 0.731354, 170.33075, -9.674251)"/>
  <path d="M 251.02 223.934 C 248.015 225.2 248.369 225.319 245.777 227.451 C 240.674 231.648 238.606 241.901 240.493 248.551 C 240.954 250.176 241.79 253.554 242.693 254.793 C 242.886 255.057 246.404 251.432 247.518 250.353 C 252.035 245.976 254.311 235.722 253.219 229.728 C 252.47 225.614 251.014 223.939 251.014 223.939" style="fill: rgb(20, 125, 22); fill-opacity: 0.04;" transform="matrix(0.669131, -0.743145, 0.743145, 0.669131, -96.278854, 262.494812)"/>
  <path d="M 148.469 233.339 C 145.464 234.605 145.818 234.724 143.226 236.856 C 138.123 241.053 136.055 251.306 137.942 257.956 C 138.403 259.581 139.239 262.959 140.142 264.197 C 140.335 264.461 143.853 260.837 144.967 259.758 C 149.484 255.381 151.76 245.127 150.668 239.133 C 149.919 235.019 148.463 233.344 148.463 233.344" style="fill: rgb(20, 125, 22); fill-opacity: 0.04;"/>
  <path d="M 228.19 228.66 C 225.185 229.926 225.539 230.045 222.947 232.177 C 217.844 236.374 215.776 246.627 217.663 253.277 C 218.124 254.902 218.96 258.28 219.863 259.518 C 220.056 259.782 223.574 256.158 224.688 255.079 C 229.205 250.702 231.481 240.448 230.389 234.454 C 229.64 230.34 228.184 228.665 228.184 228.665" style="fill: rgb(20, 125, 22); fill-opacity: 0.04;" transform="matrix(0.788011, -0.615661, 0.615661, 0.788011, -102.833557, 189.541122)"/>
  <path d="M 210.939 241.616 C 207.934 242.882 208.288 243.001 205.696 245.133 C 200.593 249.33 198.525 259.583 200.412 266.233 C 200.873 267.858 201.709 271.236 202.612 272.474 C 202.805 272.738 206.323 269.114 207.437 268.035 C 211.954 263.658 214.23 253.404 213.138 247.41 C 212.389 243.296 210.933 241.621 210.933 241.621" style="fill: rgb(20, 125, 22); fill-opacity: 0.04;"/>
  <path d="M 191.202 65.059 C 188.197 66.325 188.551 66.444 185.959 68.576 C 180.856 72.773 178.788 83.026 180.675 89.676 C 181.136 91.301 181.972 94.679 182.875 95.917 C 183.068 96.181 186.586 92.557 187.7 91.478 C 192.217 87.101 194.493 76.847 193.401 70.853 C 192.652 66.739 191.196 65.064 191.196 65.064" style="fill: rgb(20, 125, 22); fill-opacity: 0.04;" transform="matrix(0.838671, -0.544639, 0.544639, 0.838671, -13.69961, 114.740578)"/>
  <path d="M 229.044 203.328 C 226.039 204.594 226.393 204.713 223.801 206.845 C 218.698 211.042 216.63 221.295 218.517 227.945 C 218.978 229.57 219.814 232.948 220.717 234.186 C 220.91 234.45 224.428 230.826 225.542 229.747 C 230.059 225.37 232.335 215.116 231.243 209.122 C 230.494 205.008 229.038 203.333 229.038 203.333" style="fill: rgb(20, 125, 22); fill-opacity: 0.04;" transform="matrix(0.788011, -0.615661, 0.615661, 0.788011, -87.056595, 184.696793)"/>
  <path d="M 114.227 139.198 C 111.222 140.464 111.576 140.583 108.984 142.715 C 103.881 146.912 101.813 157.165 103.7 163.815 C 104.161 165.44 104.997 168.818 105.9 170.056 C 106.093 170.32 109.611 166.696 110.725 165.617 C 115.242 161.24 117.518 150.986 116.426 144.992 C 115.677 140.878 114.221 139.203 114.221 139.203" style="fill: rgb(20, 125, 22); fill-opacity: 0.04;" transform="matrix(-0.104528, -0.994522, 0.994522, -0.104528, -32.449795, 280.049774)"/>
  <path d="M 115.178 122.267 C 112.173 123.533 112.527 123.652 109.935 125.784 C 104.832 129.981 102.764 140.234 104.651 146.884 C 105.112 148.509 105.948 151.887 106.851 153.125 C 107.044 153.389 110.562 149.765 111.676 148.686 C 116.193 144.309 118.469 134.055 117.377 128.061 C 116.628 123.947 115.172 122.272 115.172 122.272" style="fill: rgb(20, 125, 22); fill-opacity: 0.04;" transform="matrix(-0.104528, -0.994522, 0.994522, -0.104528, -14.561133, 262.2948)"/>
  <path d="M 79.507 116.772 C 76.502 118.038 76.856 118.157 74.264 120.289 C 69.161 124.486 67.093 134.739 68.98 141.389 C 69.441 143.014 70.277 146.392 71.18 147.63 C 71.373 147.894 74.891 144.27 76.005 143.191 C 80.522 138.814 82.798 128.56 81.706 122.566 C 80.957 118.452 79.501 116.777 79.501 116.777" style="fill: rgb(20, 125, 22); fill-opacity: 0.04;" transform="matrix(-0.104528, -0.994522, 0.994522, -0.104528, -48.495865, 220.749817)"/>
  <path d="M 104.539 64.244 C 101.533 65.51 101.887 65.629 99.295 67.761 C 94.192 71.958 92.124 82.211 94.011 88.861 C 94.472 90.486 95.308 93.864 96.211 95.102 C 96.404 95.366 99.922 91.742 101.036 90.663 C 105.554 86.286 107.83 76.032 106.738 70.038 C 105.989 65.924 104.533 64.249 104.533 64.249" style="fill: rgb(20, 125, 22); fill-opacity: 0.04;" transform="matrix(0.309017, -0.951056, 0.951056, 0.309017, -6.567329, 150.320557)"/>
  <path d="M 130.969 80.253 C 127.964 81.519 128.318 81.638 125.726 83.77 C 120.623 87.967 118.555 98.22 120.442 104.87 C 120.903 106.495 121.739 109.873 122.642 111.111 C 122.835 111.375 126.353 107.751 127.467 106.672 C 131.984 102.295 134.26 92.041 133.168 86.047 C 132.419 81.933 130.963 80.258 130.963 80.258" style="fill: rgb(20, 125, 22); fill-opacity: 0.04;" transform="matrix(-0.104528, -0.994522, 0.994522, -0.104528, 44.66431, 231.593658)"/>
  <path d="M 145.364 137.117 C 142.359 138.383 142.713 138.502 140.121 140.634 C 135.018 144.831 132.95 155.084 134.837 161.734 C 135.298 163.359 136.134 166.737 137.037 167.975 C 137.23 168.239 140.748 164.615 141.862 163.536 C 146.379 159.159 148.655 148.905 147.563 142.911 C 146.814 138.797 145.358 137.122 145.358 137.122" style="fill: rgb(20, 125, 22); fill-opacity: 0.04;" transform="matrix(0.104529, -0.994522, 0.994522, 0.104529, -25.463659, 276.825439)"/>
  <path d="M 87.244 79.483 C 84.239 80.749 84.593 80.868 82.001 83 C 76.898 87.197 74.83 97.45 76.717 104.1 C 77.178 105.725 78.014 109.103 78.917 110.341 C 79.11 110.605 82.628 106.981 83.742 105.902 C 88.259 101.525 90.535 91.271 89.443 85.277 C 88.694 81.163 87.238 79.488 87.238 79.488" style="fill: rgb(20, 125, 22); fill-opacity: 0.04;" transform="matrix(-0.104528, -0.994522, 0.994522, -0.104528, -2.865399, 187.25769)"/>
  <path d="M 93.284 98.679 C 90.279 99.945 90.633 100.064 88.041 102.196 C 82.938 106.393 80.87 116.646 82.757 123.296 C 83.218 124.921 84.054 128.299 84.957 129.537 C 85.15 129.801 88.668 126.177 89.782 125.098 C 94.299 120.721 96.575 110.467 95.483 104.473 C 94.734 100.359 93.278 98.684 93.278 98.684" style="fill: rgb(20, 125, 22); fill-opacity: 0.04;" transform="matrix(-0.104528, -0.994522, 0.994522, -0.104528, -15.284884, 214.467133)"/>
  <path d="M 288.232 158.317 C 285.227 159.583 285.581 159.702 282.989 161.834 C 277.886 166.031 275.818 176.284 277.705 182.934 C 278.166 184.559 279.002 187.937 279.905 189.175 C 280.098 189.439 283.616 185.815 284.73 184.736 C 289.247 180.359 291.523 170.105 290.431 164.111 C 289.682 159.997 288.226 158.322 288.226 158.322" style="fill: rgb(20, 125, 22); fill-opacity: 0.04;" transform="matrix(0.25882, -0.965926, 0.965926, 0.25882, 42.55843, 402.968994)"/>
  <path d="M 146.89 66.435 C 143.885 67.701 144.239 67.82 141.647 69.952 C 136.544 74.149 134.476 84.402 136.363 91.052 C 136.824 92.677 137.66 96.055 138.563 97.293 C 138.756 97.557 142.274 93.933 143.388 92.854 C 147.905 88.477 150.181 78.223 149.089 72.229 C 148.34 68.115 146.884 66.44 146.884 66.44" style="fill: rgb(20, 125, 22); fill-opacity: 0.04;" transform="matrix(0.615662, -0.78801, 0.78801, 0.615662, -9.740343, 143.771027)"/>
  <path d="M 116.176 46.122 C 113.171 47.388 113.525 47.507 110.933 49.639 C 105.83 53.836 103.762 64.089 105.649 70.739 C 106.11 72.364 106.946 75.742 107.849 76.98 C 108.042 77.244 111.56 73.62 112.674 72.541 C 117.191 68.164 119.467 57.91 118.375 51.916 C 117.626 47.802 116.17 46.127 116.17 46.127" style="fill: rgb(20, 125, 22); fill-opacity: 0.04;" transform="matrix(0.615662, -0.78801, 0.78801, 0.615662, -5.538048, 111.761017)"/>
  <path d="M 278.202 195.643 C 275.197 196.909 275.551 197.028 272.959 199.16 C 267.856 203.357 265.788 213.61 267.675 220.26 C 268.136 221.885 268.972 225.263 269.875 226.501 C 270.068 226.765 273.586 223.141 274.7 222.062 C 279.217 217.685 281.493 207.431 280.401 201.437 C 279.652 197.323 278.196 195.648 278.196 195.648" style="fill: rgb(20, 125, 22); fill-opacity: 0.04;" transform="matrix(0.390732, -0.920505, 0.920505, 0.390732, -27.463675, 380.664612)"/>
  <path d="M 290.279 180.486 C 287.274 181.752 287.628 181.871 285.036 184.003 C 279.933 188.2 277.865 198.453 279.752 205.103 C 280.213 206.728 281.049 210.106 281.952 211.344 C 282.145 211.608 285.663 207.984 286.777 206.905 C 291.294 202.528 293.57 192.274 292.478 186.28 C 291.729 182.166 290.273 180.491 290.273 180.491" style="fill: rgb(20, 125, 22); fill-opacity: 0.04;" transform="matrix(0.390732, -0.920505, 0.920505, 0.390732, -6.153435, 382.546844)"/>
  <path d="M 114.896 175.226 C 111.891 176.492 112.245 176.611 109.653 178.743 C 104.55 182.94 102.482 193.193 104.369 199.843 C 104.83 201.468 105.666 204.846 106.569 206.084 C 106.762 206.348 110.28 202.724 111.394 201.645 C 115.911 197.268 118.187 187.014 117.095 181.02 C 116.346 176.906 114.89 175.231 114.89 175.231" style="fill: rgb(20, 125, 22); fill-opacity: 0.04;" transform="matrix(-0.544639, -0.838671, 0.838671, -0.544639, 10.815818, 387.196198)"/>
  <path d="M 77.076 134.722 C 74.071 135.988 74.425 136.107 71.833 138.239 C 66.73 142.436 64.662 152.69 66.549 159.34 C 67.01 160.965 67.846 164.343 68.749 165.581 C 68.942 165.845 72.46 162.221 73.574 161.142 C 78.091 156.765 80.367 146.51 79.275 140.516 C 78.526 136.402 77.07 134.727 77.07 134.727" style="fill: rgb(20, 125, 22); fill-opacity: 0.04;" transform="matrix(-0.406736, -0.913546, 0.913546, -0.406736, -34.902378, 277.650818)"/>
  <path d="M 125.81 104.855 C 122.805 106.121 123.159 106.24 120.567 108.372 C 115.464 112.569 113.396 122.822 115.283 129.472 C 115.744 131.097 116.58 134.475 117.483 135.713 C 117.676 135.977 121.194 132.353 122.308 131.274 C 126.825 126.897 129.101 116.643 128.009 110.649 C 127.26 106.535 125.804 104.86 125.804 104.86" style="fill: rgb(20, 125, 22); fill-opacity: 0.04;" transform="matrix(-0.104528, -0.994522, 0.994522, -0.104528, 14.498824, 253.636505)"/>
  <path d="M 261.131 209.351 C 258.126 210.617 258.48 210.736 255.888 212.868 C 250.785 217.065 248.717 227.318 250.604 233.968 C 251.065 235.593 251.901 238.971 252.804 240.209 C 252.997 240.473 256.515 236.849 257.629 235.77 C 262.146 231.393 264.422 221.139 263.33 215.145 C 262.581 211.031 261.125 209.356 261.125 209.356" style="fill: rgb(20, 125, 22); fill-opacity: 0.04;" transform="matrix(0.390732, -0.920505, 0.920505, 0.390732, -50.482754, 373.302521)"/>
</svg>