<?xml version="1.0"?><svg width="405.188" height="243.5" xmlns="http://www.w3.org/2000/svg">
 <g>
  <title>Layer 1</title>
  <g id="svg_1">
   <path stroke="#7f7f00" id="svg_2" fill-rule="evenodd" clip-rule="evenodd" fill="#ffff00" d="m401.312012,128.341995c-1.355988,1.44101 -1.559998,-0.175995 -2.716003,-0.388992c-2.339996,-0.428001 -4.744995,1.169998 -6.97699,-0.775002c-4.378021,0.756996 -9.536011,0.952995 -14.350006,0.389c-6.92099,-0.814003 -15.082001,0.580994 -21.710999,-2.326004c3.356995,-2.177994 6.717987,-5.564995 10.07901,-6.978996c1.417999,1.420998 -1.705017,2.840996 0.388977,4.264c3.10202,1.214996 6.203003,-1.774002 9.305023,-0.775002c1.481995,0.904999 -0.318024,1.807999 1.164978,2.712997c2.713013,0.220001 5.427002,-1.084 8.143005,-1.162994c1.338013,0.774994 0.009003,1.550995 0.77301,2.325996c2.71698,0.498001 5.429993,-1.191002 8.143005,-2.713997c0.998962,4.703995 4.664978,3.084 7.756989,5.428993z"/>
   <path stroke="#7f7f00" id="svg_3" fill-rule="evenodd" clip-rule="evenodd" fill="#ffff00" d="m317.559998,52.342999c-1.843994,2.662003 -5.411011,2.081001 -8.143005,3.492001c-3.015991,1.555 -6.703003,4.549999 -10.082001,6.979c-9.681,6.949001 -20.125977,16.487003 -31.79599,27.142002c-3.998993,3.650002 -8.076996,7.695 -11.243988,11.243996c-4.085007,4.580002 -7.060013,10.359001 -11.244019,13.57c-4.284988,3.292 -11.431992,2.132004 -16.672989,1.939003c-4.835007,-0.179001 -9.339005,0.115997 -12.795013,-1.162003c0.919006,-4.035995 7.600006,-9.210999 10.470001,-12.797997c3.839005,-4.795998 10.517014,-11.485001 15.896011,-15.896004c1.653,-1.353996 3.056,-3.552994 5.429993,-5.427994c2.716003,-2.147003 6.106995,-3.495003 8.916016,-5.816002c10.069,-8.325005 20.024994,-18.007999 30.244995,-22.490002c6.30899,-2.765999 13.177979,-4.563 20.16098,-6.979c-3.270996,-2.479 -7.686981,1.808002 -12.018982,3.490002c-2.848999,1.106998 -6.416016,1.044998 -9.308014,2.326c-7.902008,3.501999 -17.585999,11.627998 -27.528992,19.775002c-14.751999,12.086998 -33.637009,25.031998 -44.591003,43.813995c-8.916,1.159004 -17.834991,0.293999 -26.751999,-0.387001c4.227005,-4.120995 6.725998,-10.449997 10.082001,-14.733994c9.339996,-11.921005 22.393997,-20.148003 32.955994,-29.855003c5.266006,-4.838997 10.017014,-10.348 15.899002,-14.347c3.811005,-2.591 8.139999,-4.851002 12.020996,-7.367001c8.108002,-5.256001 15.90802,-9.003998 24.039001,-13.182999c1.880005,-0.968002 3.917999,-2.312 6.203003,-3.100002c1.634003,-0.565998 4.140991,-2.919998 5.813995,-0.389c0.813019,3.359001 -4.605988,1.286003 -5.037994,5.040001c2.729004,6.242001 8.423004,2.476002 12.406006,5.429001c2.328003,-0.344002 4.652008,0.194 6.980011,-0.000999c1.67099,2.780998 3.638,4.327 6.202972,4.653999c2.198029,1.437 0.052002,4.887001 3.493011,5.037998z"/>
   <path stroke="#7f7f00" id="svg_4" fill-rule="evenodd" clip-rule="evenodd" fill="#ffff00" d="m323.373993,56.609001c-2.45401,2.232998 -4.911011,0.826 -7.36499,1.164997c-1.585022,4.972 7.574982,8.486004 10.85498,8.529003c1.188019,1.712997 -1.574982,1.001999 -0.385986,2.712997c5.108978,2.020004 5.623993,3.495003 10.855988,7.755005c-2.328003,1.167 -4.656006,0.463997 -6.97998,0.774994c-1.498016,4.582001 5.470001,5.693001 8.526978,6.203003c0.417023,2.334 2.014008,3.821999 4.268005,3.489998c1.007996,0.647003 0.184998,1.292 -0.389008,1.939003c1.809998,1.744995 3.619019,-0.079002 5.430023,1.548996c-2.697998,2.673004 -7.072998,2.285004 -10.855011,3.878006c-2.713989,1.141998 -5.64801,3.982994 -8.920013,5.815994c-3.039978,1.703003 -6.741974,2.598999 -8.918976,4.264999c-1.561005,1.193001 -2.154999,2.931999 -3.487,4.266006c-3.413025,3.411995 -6.253021,4.826996 -8.531006,8.528999c-1.196014,1.938995 -1.841003,4.338997 -3.878021,6.204994c-9.434998,-2.550995 -18.871979,-2.094994 -28.306976,-5.041c5.975983,-5.126999 10.42099,-11.981995 16.673981,-17.448997c2.15802,-1.885002 4.753998,-2.937996 6.980011,-4.652c2.773987,-2.133995 4.993988,-5.025002 7.753998,-6.979996c1.661011,-1.176003 3.437988,-1.595001 5.040009,-2.714005c3.092987,-2.154999 5.269989,-5.367996 8.143005,-7.366997c3.108002,-2.161003 6.847992,-2.544998 9.692993,-4.264c1.550995,0.536995 3.10199,0.462997 4.652008,0.775002c-1.035004,-2.804001 -4.994019,-1.205002 -6.97702,-0.777c-3.911987,0.848 -7.181,1.350998 -10.858002,4.653999c-1.766998,1.588997 -3.229004,3.775002 -5.429993,5.43c-6.256012,4.699997 -14.022003,8.845001 -20.549011,14.346001c-3.847992,3.242996 -7.824982,7.266998 -10.85498,10.856995c-2.990997,3.540001 -4.701996,7.648003 -9.304993,8.528999c-2.794006,0.535004 -8.840027,-0.948997 -12.021027,-1.161995c-4.353989,-0.292 -7.990982,0.335999 -11.632996,-0.777c10.723999,-17.912003 30.785004,-30.105003 43.813995,-46.139999c10.989014,-3.525002 21.975037,-22.995003 32.959015,-14.345001z"/>
   <path stroke="#7f7f00" id="svg_5" fill-rule="evenodd" clip-rule="evenodd" fill="#ffff00" d="m397.821991,132.604996c-2.197998,2.209 -4.395996,0.193008 -6.59201,1.164001c-0.145996,0.904999 0.259003,1.807999 0.38501,2.714005c-2.067993,0.944 -4.134003,-2.253006 -6.203003,0.774994c-2.842987,-1.671997 -5.684998,-2.927002 -8.529999,-2.325989c-0.987,2.494995 1.584015,3.048996 3.48999,5.041c-1.162994,0.132996 -2.324982,0.270996 -3.487,1.937988c-3.492981,-0.759995 -6.97998,-3.345001 -10.470978,-0.386993c-1.396027,1.421005 -0.563019,2.843994 1.162994,4.265991c-1.518005,0.209 -3.860016,1.229004 -2.328003,3.100006c-4.104004,1.608994 -9.942993,-0.908005 -12.795013,2.714005c-1.09198,-1.022003 -0.132996,-1.42601 -1.550995,-1.55101c-1.902008,1.810013 -1.03299,3.62001 0.777008,5.430008c-13.054993,-5.464996 -26.108002,-14.210007 -39.162018,-27.530998c7.625,-1.539001 15.249023,-0.012001 22.877014,-0.388c6.489014,6.152 13.485016,10.380989 20.160004,13.18499c3.182007,1.333008 5.608002,0.962006 8.919983,4.264008c0.931,-3.487 -3.138977,-3.139999 -4.652985,-3.876999c-6.403015,-3.115997 -14.53299,-6.182007 -21.713989,-13.183998c10.341003,0.221001 20.681976,-1.017006 31.019989,1.551003c9.049011,-0.040009 18.095001,-0.06601 27.140991,0c1.40802,1.035995 -0.311981,2.069992 1.553009,3.10199z"/>
   <path stroke="#7f7f00" id="svg_6" fill-rule="evenodd" clip-rule="evenodd" fill="#ffff00" d="m291.96701,29.08c-3.498993,2.635 -8.134003,3.532 -12.406006,5.428999c-8.549988,3.794003 -17.639008,8.992001 -26.366989,14.734001c-4.122009,2.709999 -8.876007,5.132999 -12.794998,8.143002c-4.763,3.654999 -8.583008,8.420998 -13.183014,12.405998c-8.570999,7.427002 -17.556,14.188004 -25.589996,21.713997c-2.628998,2.460007 -6.975998,7.094002 -9.306992,10.855003c-2.542999,4.108002 -4.657013,10.075996 -7.367004,12.021004c-3.292007,2.362999 -10.134003,0.884995 -13.958008,0.773994c-5.625992,-0.159996 -10.343994,0.159004 -13.957001,-0.773994c3.894012,-4.222 6.727005,-9.608002 10.855011,-14.734001c6.763,-8.398003 16.968002,-17.742004 27.916992,-28.693001c4.81601,-4.816002 9.125,-10.43 14.345001,-14.346001c1.399002,-1.050003 3.188004,-1.358002 4.654999,-2.328003c3.330002,-2.202999 5.984009,-5.370998 9.306,-7.753998c3.514999,-2.525002 7.605011,-3.636002 11.243011,-5.816002c3.345993,-2.005997 6.076996,-4.462997 9.306,-6.203999c8.190994,-4.419001 18.658005,-8.747999 27.143997,-11.632c1.550995,-2.122999 3.10199,-2.23 4.652008,-3.878c1.112,3.103001 -3.20401,6.205 -1.551025,9.306c5.68399,2.175001 11.372009,1.35 17.058014,0.777z"/>
   <path stroke="#7f7f00" id="svg_7" fill-rule="evenodd" clip-rule="evenodd" fill="#ffff00" d="m348.57901,91.892998c-0.153992,1.939003 -3.604004,3.879005 -5.040985,5.818001c1.937988,1.671005 3.875,1.239998 5.813995,1.938004c1.104004,4.026001 4.596985,3.093994 6.203003,5.428001c-0.567017,2.533997 -3.499023,0.93 -5.814026,1.938995c-7.254974,3.162003 -16.858002,12.400002 -17.061981,18.611c-8.39801,-1.285995 -16.800018,0.769005 -25.201019,-2.712997c7.871002,-17.381004 26.733002,-24.294998 41.101013,-31.021004z"/>
   <path stroke="#7f7f00" id="svg_8" fill-rule="evenodd" clip-rule="evenodd" fill="#ffff00" d="m222.947998,45.366001c-2.246994,-1.899002 1.029999,-2.666 1.938995,-4.266003c0.949005,-1.664997 1.230011,-3.834999 2.328003,-5.428997c3.067001,-4.452002 8.768005,-9.479002 12.794998,-13.570002c5.053009,-5.132999 10.966003,-7.915 15.896011,-8.143c0.704987,1.808 -3.105011,3.618 -1.552002,5.427999c3.878998,2.644001 7.757996,0.104 11.632996,-0.775c2.069,1.184 4.138,1.219999 6.203003,0.775c0.514984,0.389 0.604004,0.775 0.389008,1.164c-16.542999,7.075001 -33.087006,14.130001 -49.631012,24.816002z"/>
   <path stroke="#7f7f00" id="svg_9" fill-rule="evenodd" clip-rule="evenodd" fill="#ffff00" d="m365.638,116.709c-4.52301,2.057999 -9.04599,5.544998 -13.569,9.695c-5.687988,-1.306999 -11.372986,0.68 -17.062012,-1.552002c2.065002,-7.402 12.214996,-16.882996 19.775024,-16.672997c1.526001,6.301003 8.113983,2.545998 10.855988,8.529999z"/>
   <path stroke="#7f7f00" id="svg_10" fill-rule="evenodd" clip-rule="evenodd" fill="#ffff00" d="m255.520996,11.246c0.222,1.776 -2.817993,2.021 -3.878998,2.323999c-0.220993,-1.967 2.819,-1.542999 3.878998,-2.323999z"/>
   <path stroke="#7f7f00" id="svg_11" fill-rule="evenodd" clip-rule="evenodd" fill="#ffff00" d="m353.618988,159.748993c-0.113007,2.375 -2.579987,0.807999 -3.877991,1.550995c-1.615997,1.031998 1.082001,2.067001 -0.774017,3.102005c-2.200989,-0.617996 -2.385986,-0.759003 -3.104004,1.550995c-2.453979,-0.330002 -4.91098,0.197998 -7.36499,1.162003c-2.003998,2.587006 2.287018,5.169998 0.77301,7.755997c-20.399994,-12.763 -39.235016,-31.421997 -60.098999,-49.243996c4.402008,-2.015999 9.363007,0.058998 14.733978,0.775002c0.626007,0.083 1.405029,-0.455002 1.938019,-0.387001c1.733002,0.220001 3.385986,1.375999 5.429993,1.548996c3.015991,0.257004 6.002991,-1.197998 8.531006,0.777c11.173004,8.733002 19.22699,17.617004 30.242004,23.264999c3.903992,2.000015 9.114014,2.73201 13.571991,8.143005z"/>
   <path stroke="#7f7f00" id="svg_12" fill-rule="evenodd" clip-rule="evenodd" fill="#ffff00" d="m198.522995,5.428c-1.403,2.822 -3.53801,3.948 -5.041992,6.591c-0.796997,1.403 -0.703003,3.196 -1.55101,4.653001c-2.438995,4.203999 -6.776993,7.004 -9.305008,10.856998c-2.091995,3.187 -6.108994,13.445 -4.264984,17.449001c-4.605011,5.202999 -9.769012,10.814999 -15.51001,15.509998c-5.576004,4.557999 -8.884003,10.384003 -13.569992,15.898003c-3.720993,4.375999 -8.539001,7.771996 -11.632004,12.407997c-5.640991,8.445999 -8.869995,17.622002 -15.123009,24.426003c-10.209999,-0.763 -20.42099,0.936996 -30.630997,-0.387001c11.102997,-18.700996 22.047012,-39.607002 36.834999,-58.549c5.371002,-6.879002 11.805008,-12.910999 17.835999,-19.387001c9.270996,-9.958 21.359009,-17.258999 31.018997,-27.140999c-16.511993,9.533 -31.376999,23.734999 -45.36499,39.937001c-0.125,-14.088001 11.334991,-28.178001 22.100998,-42.265001c2.626999,0.533 0.222,4.382 2.324997,6.205c2.714996,0.563999 5.429001,-3.066 8.143997,-1.939c2.456009,-3.134 4.911011,-3.158 7.367004,-5.041c2.841995,2.055 5.686996,-1.312 8.529007,0c-5.5,6.149 1.548996,11.102 6.591995,2.714c3.360001,0.053 6.720993,-2.85 10.082001,-3.103c0.389008,0.388 0.776001,0.775 1.164001,1.164z"/>
   <path stroke="#7f7f00" id="svg_13" fill-rule="evenodd" clip-rule="evenodd" fill="#ffff00" d="m244.274002,122.525002c6.688004,-1.617004 16.130997,0.394997 23.653,1.163002c4.075989,0.415993 6.397003,0.223 10.082001,3.102997c2.682007,2.098007 4.889984,5.169998 7.753998,7.753998c8.940002,8.070007 20.937988,16.617996 30.244995,24.815994c2.605011,2.297012 4.625,5.13501 6.97699,6.980011c6.463013,5.056 13.202026,6.866989 19.002014,11.241989c-2.722992,1.973007 -5.145996,0.461014 -5.040985,4.266006c-4.455017,-1.268005 -4.22403,1.998001 -8.531006,2.326004c-1.058014,2.326004 2.315002,4.653 3.878998,6.979996c-6.669006,-2.919006 -12.455994,-7.595993 -19.002014,-11.246002c-5.548981,-3.093994 -11.684998,-5.115997 -17.05899,-8.528992c-9.595001,-6.093002 -18.158997,-12.411011 -27.528015,-20.55101c-9.079987,-7.883987 -16.43898,-18.116989 -24.430984,-28.303993z"/>
   <path stroke="#7f7f00" fill="#ffff00" id="svg_14" fill-rule="evenodd" clip-rule="evenodd" d="m333.066986,209.766006c-3.230011,0.779999 -6.462006,-2.14299 -9.692993,-4.265991c3.231018,0.271988 6.463013,3.388992 9.692993,4.265991z"/>
   <path stroke="#7f7f00" id="svg_15" fill-rule="evenodd" clip-rule="evenodd" fill="#ffff00" d="m264.437988,238.072998c-4.229004,-7.084991 -14.768005,-13.130997 -24.039001,-20.164001c-6.011993,-4.559998 -12.235992,-9.79599 -17.835999,-14.733994c-6.884003,-6.067001 -12.901993,-13.52301 -20.162994,-20.160995c-5.772003,-5.280014 -12.029007,-10.651001 -17.059998,-16.285004c-2.531006,-2.835007 -5.206009,-5.572998 -7.755005,-8.529999c-9.785995,-11.355011 -14.371994,-25.850006 -28.305008,-37.612007c10.985001,-0.575996 21.972,-0.287994 32.958008,0.389c4.406998,3.812004 14.449005,12.906006 18.608994,17.835999c6.820999,8.078003 11.581009,18.110001 18.613007,26.367004c6.444,7.565002 13.205002,15.087006 20.160995,21.712997c2.414001,2.298004 5.432007,4.141006 7.367996,6.591995c3,3.803009 4.249008,8.869003 7.365005,12.794006c4.565994,5.748993 10.905014,9.927002 15.900009,15.123001c4.490997,4.677002 8.218994,10 14.345978,12.020996c-10.097992,-9.832001 -28.916992,-24.502991 -34.509979,-37.610992c4.181,1.658997 8.225983,4.345993 12.406006,6.978989c11.98999,7.548004 24.539001,18.950012 37.225983,24.041c-1.947998,-3.700989 -6.171997,-3.561996 -9.307983,-5.429993c-3.876007,-2.311005 -7.115997,-5.787003 -10.855011,-8.531006c-4.227997,-3.098999 -10.201996,-7.600998 -15.895996,-11.241989c-7.308014,-4.674011 -15.928009,-9.291 -23.266006,-16.286011c-7.824005,-7.457993 -18.955002,-20.082001 -26.755005,-30.630997c-3.798996,-5.140991 -6.110001,-10.712006 -10.081985,-15.509995c-4.994003,-6.03801 -11.636002,-11.202003 -17.059006,-17.837006c7.755005,-0.836998 15.507996,0.238998 23.265991,0c18.434006,19.753006 36.920013,39.794998 57.771011,55.447006c2.21701,1.662994 4.710999,2.580002 6.59201,4.265991c1.957977,1.753006 2.580994,3.720001 4.266998,5.817001c8.60498,10.716003 20.099976,19.41301 29.853973,29.854996c1.831024,0.031006 5.031006,2.596008 4.652008,4.652008c-2.229004,2.440994 -5.531006,-2.809006 -6.59198,1.164001c-2.584015,-0.996002 -5.167023,-3.436996 -7.754028,-0.777008c0.370026,2.266998 4.554016,4.563004 4.264008,5.81601c1.375,2.625 -4.255005,-1.126999 -4.264008,2.714996c-2.669983,-2.248993 -3.036987,-0.828003 -4.264984,0.386993c-3.10199,-1.25 -6.203003,-5.077988 -9.304993,-3.876999c-0.964996,3.554001 4.440002,4.562012 5.037994,8.919998c-3.141998,-0.581985 -4.924011,-0.312988 -7.36499,1.162003c-2.069,-1.195999 -4.138,-2.789001 -6.203003,-1.550995c-3.749023,-2.124008 -7.498016,-3.376007 -11.244019,-4.266006c-2.240997,3.102005 3.552002,6.205002 0.77301,9.305008c-1.42099,-0.442001 -2.843018,-1.845001 -4.264008,-1.938004c-2.729004,2.425995 -5.213989,-2.326004 -6.979996,0.774994c-1.606003,-2.623993 -2.697006,-3.306992 -5.041,-2.714996c-2.453995,-1.953003 -4.910995,-4.804993 -7.367996,-5.039001c-2.852005,2.326004 1.149994,4.652008 0.002991,6.979004c-3.600998,-0.806992 -6.634995,-4.511002 -8.918991,-7.367004c-4.751007,-5.945999 -8.763,-13.301987 -12.018997,-19.774994c-1.600006,-3.175003 -3.237,-6.75 -2.716003,-9.692993c14.536011,14.306992 31.953003,23.862991 45.755997,36.446991z"/>
   <path stroke="#7f7f00" id="svg_16" fill-rule="evenodd" clip-rule="evenodd" fill="#ffff00" d="m239.235992,238.459c-2.947006,0.365005 -4.057999,2.561005 -7.367996,-1.162003c-1.422012,-0.494003 -2.843002,0.311996 -4.264999,-0.388992c-3.576004,-3.104004 -4.905014,-3.641998 -8.143005,-5.81601c-1.572006,1.939011 2.056992,3.878998 -0.388,5.81601c-2.354996,-2.794006 -4.341995,-5.596008 -7.365997,-8.143005c-7.227005,-6.078003 -16.442001,-15.621994 -24.81601,-24.041c-6.68399,-6.718002 -14.606995,-11.904999 -20.551987,-18.223999c-8.781006,-9.337006 -15.185013,-20.871002 -22.877014,-30.630997c-4.141998,-5.257004 -7.90799,-9.744003 -11.241989,-15.123001c-4.597008,-7.408997 -9.001007,-14.473999 -14.736008,-20.938004c9.049004,-1.397995 18.096008,0.016998 27.141998,0c13.207001,8.610001 19.069,22.951004 27.144012,34.123001c3.062988,4.240997 7.406998,8.630997 10.854996,12.408005c9.541,10.445999 22.07399,18.444 30.244995,28.690994c3.598007,4.514999 3.298996,9.494995 5.425995,13.958008c1.033005,2.166 3.126007,3.718994 4.267014,5.815994c0.888992,1.638992 0.921997,3.899994 1.938995,5.815994c3.433014,6.479004 9.719009,12.263 14.735001,17.839005z"/>
   <path stroke="#7f7f00" id="svg_17" fill-rule="evenodd" clip-rule="evenodd" fill="#ffff00" d="m197.358994,229.154999c-1.814011,-7.020996 -9.51001,-14.070999 -14.734009,-20.938995c-1.559998,-2.048996 -3.452988,-4.917007 -2.713989,-7.367004c12.761993,12.695007 23.465988,23.104004 36.060989,33.733994c-1.828995,-0.196991 -1.843994,1.183014 -3.10199,1.55101c-3.102005,-2.604996 -6.207001,-3.222 -9.309006,-5.430008c-1.916992,1.313004 1.305008,4.628006 0,4.654007c-2.970993,2.662994 -5.942993,-5.645996 -8.914993,-2.714996c-1.682007,-2.025009 -3.362,-3.653 -5.042007,-1.939011c-1.167999,-1.679001 -1.852997,-3.358002 -3.488998,-5.039001c-2.149002,-0.223999 -0.341003,2.81601 -2.326004,3.877014c-2.843994,-1.787003 -5.686996,-3.813004 -8.530991,-3.877014c-2.945999,-2.296997 -4.054001,-6.327988 -7.367004,-7.366989c-1.582001,2.067001 2.765991,4.136002 0.774002,6.203003c-1.574005,-2.364014 -2.869003,-1.594009 -3.488998,-1.162003c-1.938004,-2.453003 -3.875,-2.286011 -5.81601,-2.715012c-1.759003,-1.163986 -1.37999,-2.325989 -2.712997,-3.48999c-1.949005,-0.466995 -1.078003,2.291 -2.328003,3.10199c-2.714996,-2.615997 -5.427994,-1.230988 -8.14299,-5.040985c-0.646011,-0.405014 -1.292007,0.648987 -1.938004,1.165985c-3.466995,-1.883987 -6.714005,-5.880997 -6.593002,-8.919998c-2.166,0.024002 0.112,3.341003 -2.324997,4.654007c-2.186005,-2.645996 -4.221008,-4.171997 -5.430008,-2.328003c-2.900993,-3.973999 -7.94799,-5.399002 -9.692993,-10.468994c-2.254997,-0.223999 0.149002,2.815994 -1.551003,3.876999c-3.938995,-1.456009 -9.290001,-3.363007 -10.081001,-8.529999c-1.365997,-0.584 -1.405998,2.022995 -0.388,2.714996c-1.211998,0.347 -3.444,-2.555008 -3.488998,-3.488998c-1.937996,2.082993 -4.616997,-1.059006 -5.429001,-3.102997c-4.434998,2.280991 -5.835999,-3.98201 -7.754997,-6.979004c-1.236,-1.160995 -0.314003,2.712997 -1.551003,1.550995c-2.141998,-1.810989 -2.428001,-3.617996 -3.101997,-5.427994c-1.533997,1.507004 -3.007004,1.192001 -3.101997,-1.553009c-1.465004,-0.806992 -1.017006,1.481003 -1.939003,1.939011c-2.157997,-1.809006 -1.765999,-3.618011 -3.102997,-5.428009c-1.464005,-1.25499 -1.016006,2.417007 -1.938004,1.164001c-1.782997,-0.483002 -2.487999,-3.718994 -3.100998,-5.429993c-0.647003,-0.471008 -1.292999,1.020996 -1.940002,0.388992c-1.963997,-2.325989 -1.903999,-4.651993 -2.324997,-6.979996c-2.324005,-0.714996 -0.694,3.815994 -2.326004,3.102005c-1.773994,-2.195999 -3.015999,-4.394012 -3.489998,-6.59201c-0.775002,-1.980988 -1.552002,1.084 -2.327,0.001999c-1.066002,-1.809998 -2.296001,-3.619995 -1.549999,-5.429993c-3.726002,-0.020004 -5.125,-5.223007 -5.429001,-8.531006c-0.904999,-1.584991 -1.810001,0.20401 -2.714001,-0.386993c-2.137001,-2.326004 -0.074001,-4.652008 -0.776001,-6.979004c-0.903,-1.237991 -1.808998,1.081009 -2.711998,0.387009c-1.649002,-1.939011 -1.455002,-3.877014 -1.164001,-5.81601c-0.905998,-0.571991 -1.810001,-0.136993 -2.715,-1.162994c0.464001,-4.136002 -3.259998,-8.271004 -2.326,-12.408005c2.715,-2.187996 5.429001,-0.536995 8.142002,-0.387001c3.534,5.077003 2.067997,12.700005 3.876999,18.610008c0.797001,2.604996 2.432999,5.168991 3.488998,7.368988c0.736,1.526001 0.902,5.654007 3.878002,4.652008c-6.048,-7.731003 -7.225002,-18.535995 -8.144001,-27.528999c5.755001,3.364998 4.639,9.812996 6.206001,14.732002c1.551998,4.87999 6.202995,12.056992 10.856003,17.83699c1.990997,7.972 12.689995,12.584 15.121994,21.324005c1.749001,-1.162003 -0.636002,-2.326004 0.387001,-3.488007c-9.184998,-10.187988 -15.921997,-18.817993 -22.487999,-29.468994c-0.307999,-3.449997 -2.206001,-5.917999 -3.103001,-9.306c-1.266998,-4.785004 -1.134998,-9.804001 -7.367001,-15.121002c5.041,-1.189995 10.081001,-1.027 15.123001,1.164001c5.699997,13.053009 11.029999,26.106003 22.875999,39.162003c1.139,5.222992 0.021004,11.649994 3.101997,17.061005c1.632004,2.862991 4.823006,4.508987 5.816002,8.141998c1.540001,-2.287003 -1.503998,-3.246002 -2.325996,-4.652008c-3.196999,-5.472 -5.921005,-11.784988 -3.877998,-17.061996c11.811996,13.955994 23.978996,27.692001 36.836998,41.487c-1.576996,-6.093994 -9.779999,-10.813004 -14.734001,-17.059006c-1.348999,-1.699997 -2.046997,-4.061996 -3.489998,-5.816986c-7.836006,-9.531006 -18.125,-17.358002 -24.041,-27.142014c-4.603004,-7.612 -10.552002,-16.903 -14.346001,-25.202988c-1.598999,-3.496002 -1.499001,-6.115005 -5.040001,-9.693008c4.910995,-2.846001 9.820999,0.862 14.734001,-0.774994c2.842995,1.142998 5.684998,0.745995 8.528999,0.774994c1.377998,0.980003 3.071999,2.292 4.653999,4.653999c5.150002,7.694008 9.187996,18.551003 14.733002,27.140007c4.695,7.274994 9.482994,15.14299 15.120995,22.10199c6.715012,8.287003 12.337006,16.558014 12.020996,25.203003c2.542007,4.136002 5.241013,8.27301 10.082001,12.406998c-0.520996,-4.05899 -4.73999,-5.901993 -6.590988,-8.917999c-1.408005,-2.289001 -1.251999,-4.94899 -1.939011,-7.365997c-0.742996,-2.61499 -2.487991,-4.903992 -1.937988,-7.365997c4.403992,5.692993 10.147995,7.432007 13.957993,11.630997c5.322998,5.867004 4.921997,15.344009 11.632004,20.162003c-1.673996,-5.557007 -5.992004,-11.113998 -8.143005,-16.673004c4.591003,1.44101 7.972015,6.296997 12.02002,9.694c5.12999,4.306 10.764999,7.924011 13.569992,13.570007c-5.582001,-11.471008 -19.752014,-21.115997 -30.628998,-29.080002c-5.384995,-3.940994 -10.956009,-9.287003 -15.124008,-14.347c-2.373993,-2.880997 -3.819,-5.5 -6.978989,-9.305008c-7.540001,-9.079987 -13.997002,-18.885986 -19.386002,-28.694992c-4.437004,-8.070999 -7.208,-17.313004 -13.57,-24.426003c8.167,0.614998 15.621994,-5.104996 23.649994,3.488998c3.356003,3.595001 5.844002,9.511009 9.695,14.347008c4.139008,5.197998 6.024002,10.632996 11.632996,17.059998c5.372009,6.158005 9.400009,13.608994 14.345001,19.774994c7.108002,8.860001 14.71701,17.512009 22.876999,24.42601c-1.303986,5.806992 6.180008,10.878998 11.246002,17.449997c3.548004,4.604996 4.146011,10.537994 8.529999,12.410995z"/>
   <path stroke="#7f7f00" id="svg_18" fill-rule="evenodd" clip-rule="evenodd" fill="#ffff00" d="m308.252014,125.239998c-19.757019,0.465004 -39.251007,-4.625999 -59.324997,-5.041c-10.101013,-0.209 -20.143005,-0.999001 -30.242004,-0.777c-19.837006,0.439003 -39.873001,-1.514 -60.100006,-1.160995c-10.147995,0.175995 -19.817993,-1.042999 -29.856995,-1.165001c-20.020004,-0.240997 -40.282005,2.157997 -60.098999,-1.163002c-10.970001,1.395004 -21.974003,1.709 -32.958004,1.938004c-5.529999,0.114998 -11.139999,-0.665001 -16.671999,-0.387001c-5.425,0.273003 -10.859,3.085999 -16.284,0.775002c9.911,-5.408005 21.134001,-2.875 31.794,-2.326004c5.291,0.273003 10.498001,-0.921997 15.896,-1.164001c2.537998,-0.112999 5.095001,0.035004 7.755001,0c2.586998,-0.033997 5.294998,-0.771996 7.754997,-0.773994c1.985001,-0.003006 3.853004,1.047997 5.816002,1.160995c1.987,0.117004 3.947998,-0.411995 5.815002,-0.387001c7.508995,0.102005 15.352997,1.156006 23.264999,0.775002c5.906998,-0.283997 12.311996,-2.475998 18.611,0.777c7.603996,-1.604996 15.931992,-1.079002 23.651993,-0.389c7.947006,0.711998 15.792999,-0.153999 23.652008,0.387001c4.115997,0.283997 7.938004,1.089996 12.020996,1.164001c42.425995,0.766998 86.449005,0.558998 129.505005,7.756996z"/>
   <path stroke="#7f7f00" fill="#ffff00" id="svg_19" fill-rule="evenodd" clip-rule="evenodd" d="m405.187988,128.341995c-1.809998,1.705002 -3.619995,1.993011 -5.427002,3.102005c-0.246002,0.904999 0.143005,1.807999 1.162994,2.714005c-2.457977,2.134003 -4.911987,0.315994 -7.368988,1.164001c-0.265015,0.773987 0.108002,1.548996 0.777008,2.325989c-2.71701,2.272003 -5.430023,-1.824997 -8.143005,1.938004c-2.069,-1.209991 -4.138,-2.225006 -6.205994,-3.104004c-0.287018,1.810013 4.093994,3.621002 3.877991,5.430008c-1.679993,2.527985 -3.360016,-1.139008 -5.041016,1.938995c-3.744995,-1.369003 -7.493988,-2.722 -11.242981,-1.164001c-0.222992,1.55101 2.816986,3.102997 3.877991,4.654007c-1.291992,2 -2.587006,1.317993 -3.877991,0.774994c-1.015015,0.775009 0.690002,1.548996 0,2.326004c-2.901001,0.423996 -5.643005,1.410995 -8.531006,1.550995c-2.118011,0.104004 -5.062012,-1.770996 -6.977997,0.775009c0.872986,2.972 3.049988,5.945999 5.040985,8.917999c-1.679993,1.588989 -3.362976,0.561996 -5.040985,1.164001c-0.265015,0.772995 0.105011,1.550995 0.773987,2.32399c-2.730988,0.999008 -3.974976,0.057999 -5.040985,3.490005c-1.162018,-1.290009 -2.325012,-0.264008 -3.48999,-1.938004c-1.03302,1.647003 -2.065002,1.205002 -3.10202,1.550995c-1.96698,3.39801 1.212006,7.395004 4.266998,9.693008c-1.809998,2.320999 -3.618988,1.910004 -5.428986,2.326004c0.381989,2.112991 -2.488007,4.103989 -4.264008,2.714996c-1.483002,0.903992 0.316986,1.809998 -1.165985,2.714005c-1.162018,-1.748001 -2.324005,0.636993 -3.490021,-0.388c-0.52298,2.813995 2.414001,4.224991 5.041016,6.591995c-3.875,2.466003 -5.860016,2.962006 -10.082001,4.651993c0.662994,2.136002 4.643982,5.895004 6.595978,5.815002c0.475006,4.766006 4.979004,5.209 8.527008,7.755997c-1.156006,3.200012 -5.337006,3.749008 -7.753998,3.102005c-1.483002,0.903 0.320007,1.809998 -1.161987,2.714996c-1.938995,-0.656998 -3.878998,-1.507996 -5.818024,1.162003c-2.194977,-0.554993 -4.393982,-2.181 -6.59198,0.389008c-1.162018,-1.202011 -2.324005,-1.622009 -3.489014,-1.164001c0.572998,2.326004 3.438019,4.651993 3.104004,6.979996c-1.421997,0.908005 -2.846008,0.162994 -4.268005,-1.164001c-1.414978,0.777008 -0.458984,1.55101 -1.550995,2.326004c-2.197998,0.199005 -4.393982,-2.449005 -6.59201,0.388992c-2.197998,-1.582001 -4.392975,-2.625 -6.590973,-1.938995c2.428986,2.456009 5.403992,4.910995 5.813995,7.367004c-1.807007,0.959 -3.615997,-0.589005 -5.427002,-0.775009c-0.765015,0.775009 0.563995,1.55101 -0.776001,2.326004c-1.162018,-0.041992 -2.325012,-0.694992 -3.48999,-1.164001c-0.042999,0.647003 -0.456024,1.294006 -1.162018,1.939011c-2.583984,-0.440002 -5.167999,-3.723007 -7.753998,-3.876999c1.054016,3.618988 6.174988,7.237 3.10199,10.856995c-1.560974,-3.178009 -4.118988,-3.677002 -5.815002,-0.388c-4.266998,-2.673996 -8.529999,-0.766006 -12.794983,-4.266998c-0.518005,0.51799 -1.035004,1.033997 -1.554016,1.550995c-1.677002,-2.028 -1.460999,-1.809998 -3.485992,-3.487991c0.733002,3.487991 2.076996,6.978989 1.162018,10.468994c-2.904022,-1.421997 -5.864014,-4.703995 -7.753998,-1.550995c-1.425018,-1.118011 -2.846008,-2.674011 -4.268005,-0.389008c-4.28801,-3.503998 -9.681015,-3.953003 -12.795013,-8.143005c-0.464996,2.715012 1.687012,5.428009 0.389008,8.143005c-1.809998,0.772003 -3.619003,-0.897995 -5.430008,-1.550995c-1.466995,0.903992 -0.472,1.809998 -1.937988,2.712997c-2.069,-0.089005 -4.13501,-5.007004 -6.203003,-2.324005c-2.197998,-2.190002 -4.393997,-4.172989 -6.59201,-2.714996c-0.776993,-1.033005 -1.138,-2.069 -1.550995,-3.102005c-2.352997,0.281998 0.218994,3.156998 -1.550995,4.653c-1.55101,-0.591995 -3.102005,-0.837997 -4.652008,-2.326996c-1.468002,0.012009 -0.472,0.931 -1.938995,1.938004c-2.843002,-3.018997 -5.686005,-2.089005 -8.531006,-4.652008c-1.161987,1.421005 -0.595001,2.844009 -2.712997,4.266006c-2.714005,-2.705994 -5.429001,-4.182999 -8.141998,-2.712997c-0.748001,-2.311996 -3.192993,-4.033997 -5.041992,-2.71701c-0.639999,-1.292007 -1.569,-2.582993 -3.102005,-3.875c-1.664001,1.210007 -1.053009,3.442001 -2.712997,3.487991c-1.492004,-3.549988 -4.570999,-1.855988 -5.81601,-5.040985c-0.646988,-0.404999 -1.292999,0.649994 -1.938995,1.164001c-1.292999,-1.294006 -2.585007,-2.585007 -3.876999,-3.876999c-1.761002,-0.679016 -1.380997,2.445999 -2.714996,1.938004c-1.421005,-1.942001 -2.843002,-2.873016 -4.266006,-0.387009c-1.167999,-1.26799 -1.944992,-4.522995 -3.876999,-1.550995c-2.132996,-2.177002 -2.311996,-3.240005 -4.653992,-4.654007c-0.920013,0.905991 -0.473007,1.809998 -1.938004,2.714996c-1.680008,-1.817001 -3.360001,-2.987 -5.041,-1.938004c-0.888,-3.238998 -3.785004,-2.854996 -5.81601,-1.938995c-0.480988,-1.617996 -3.716995,-3.014008 -5.427994,-5.428009c-0.776993,-0.905991 -1.550995,1.199005 -2.326004,1.549011c-1.938995,-2.061005 -3.876999,-3.979004 -5.815994,-2.712997c-3.512001,-3.417007 -6.512001,-4.101013 -8.528999,-8.529007c-1.657005,-0.701004 -0.914001,1.753006 -2.326004,2.326004c-7.354996,-4.921997 -13.649002,-4.749008 -19.388,-11.634003c-0.777,-0.658005 -1.550995,1.076004 -2.325996,0.776001c-2.103004,-2.596008 -4.839005,-3.486008 -5.816002,-7.367004c-0.745003,-0.405991 -0.344002,0.649002 -1.164001,1.164001c-1.633995,-1.682007 -2.32,-3.360001 -3.488998,-5.041992c-1.880997,0.975998 -2.286003,-0.116013 -3.489998,-1.938004c-1.707001,-0.880997 -1.202003,1.151001 -3.102005,1.550995c0.061005,-1.938995 -1.475998,-3.876999 -1.938995,-5.815994c-2.908005,1.694 -4.884003,-4.710999 -6.979004,-3.878998c-1.515999,-1.549011 -1.394997,-3.100006 -2.325996,-4.652008c-0.776001,-0.264999 -1.551003,0.106003 -2.327003,0.775009c-0.977997,-2.035004 -3.717999,-7.25 -6.591999,-5.814011c-0.653,-2.197998 -1.284,-4.395996 -1.938999,-6.591995c-5.089001,-0.819 -2.589001,-9.206009 -8.528999,-10.082001c0.764,-4.636993 -5.328999,-6.934998 -4.653,-11.632004c-0.775002,-1.30899 -1.549999,0.052002 -2.326,0c0.460999,-5.298004 -4.158001,-10.597 -3.490002,-15.895996c-8.141998,-2.197998 -16.284998,0.784996 -24.426998,-0.389c-2.973001,1.969002 -5.946,0.915001 -8.917,2.714996c-2.659,-0.198997 -5.542,-2.542999 -6.204,-5.427994c8.659,-6.926003 17.319,-2.249001 25.979,-5.042c-0.305,-2.120003 0.454,-4.224007 0.386999,-6.590004c-0.052,-1.894997 -1.106998,-4.234001 -0.775,-6.205002c0.626001,-3.712997 4.793001,-7.137001 2.715,-11.243996c4.037001,0.540001 4.665998,-4.210999 3.878,-6.979004c3.625,-0.007996 5.456001,-3.549995 4.264999,-6.592995c1.034,-0.959007 2.067001,0.959999 3.102001,0c2.271,-4.971001 4.859001,-5.237007 7.753998,-10.080002c1.333,1.164001 0.955002,2.325996 2.714001,3.489998c2.255001,-3.645996 4.582001,-6.530998 5.428001,-10.856998c0.904999,0.125999 1.808998,1.076 2.714001,0.389c0.381001,-1.164001 0.987,-2.328003 0.389,-3.490002c2.546997,-0.237 5.396,-2.112 5.039997,-5.041c3.933998,0.023003 2.566002,-3.605 4.264999,-5.815998c1.902,-0.006001 1.395004,1.967999 3.103004,3.103001c2.250999,-3.233002 3.937996,-6.464001 5.814995,-9.693001c0.776001,0.124001 1.552002,0.527 2.327003,1.550999c3.310997,-1.856998 2.926003,-7.952999 6.591003,-4.265999c2.478996,-1.939001 2.564995,-3.878 5.040993,-5.816c2.244003,1.292 -0.133995,2.582998 0.775002,3.876999c4.028999,-0.711 4.604004,-7.267 5.816002,-10.469c2.202003,0.207001 1.422997,3.785999 3.876999,3.101999c0.714005,-1.550999 1.366005,-3.101999 3.104004,-4.653999c0.515999,0.518 1.032997,1.034 1.550995,1.552c1.679001,-1.68 3.360001,-3.361 5.039001,-5.041c1.793999,-0.005999 0.534004,1.967001 2.328003,3.102001c2.071999,-1.808001 1.804001,-3.618001 3.876999,-5.428c0.775002,1.664 1.552002,0.333 2.328003,0.774c1.792999,-1.292001 0.531998,-2.583 2.324997,-3.875c0.904999,0.573 1.809998,-0.407001 2.713997,1.162c2.456001,-2.13 4.911995,-4.755 7.366997,-1.939c2.222,-0.37 0.882004,-2.911 3.102005,-3.102c1.837006,1.164001 0.432999,2.326 1.164001,3.490001c1.938995,-0.152 3.876999,-3.601 5.815994,-5.041c2.067001,1.979 4.134003,-1.098 6.203003,-2.326c3.360001,2.261 6.721008,-2.746 10.082001,-1.551c0.677002,2.713 -2.214996,5.429 -0.388,8.142c1.987,0.625999 3.110001,-1.998001 4.264999,-3.49c0.647003,0.976 1.292007,0.761 1.938995,1.164c2.132004,-4.938 7.097,-2.779 10.469009,-6.591c1.416992,0.775 0.457993,1.551 1.550995,2.326c1.552002,0.605 3.102005,-1.662 4.652008,-3.102c3.858002,1.787 1.724991,6.292 0,9.305c2.612991,1.41401 3.36499,-1.649 5.041,-2.71499c3.616989,-2.297 8.21199,-3.01501 11.632996,-5.42601c1.207001,3.885 3.953003,-0.082 5.429001,-0.777c2.000992,2.84401 1.770004,5.68701 1.550995,8.52901c2.712997,3.105 5.430008,-2.018 8.143005,-3.487c0.776001,1.022 1.550995,1.424 2.324005,1.549c2.327988,-2.582 4.654999,-1.444 6.979996,-3.877c1.569,0.905 0.588989,1.81 1.164993,2.714c1.936996,-0.268 3.876007,-1.526 5.815002,-2.713c1.481995,0.903 -0.320999,1.808 1.162003,2.713c1.294998,0.586 2.587006,-0.532 3.878006,-1.552c2.82399,2.456 -1.104004,4.912 -0.388,7.369c3.10199,0.976 6.202988,-2.396 9.304993,-3.103c1.354004,4.094 5.201004,1.205999 7.757004,-0.774c1.248993,3.158999 6.206009,2.443 9.693008,-0.389c3.905975,2.666 -4.988007,6.685 0.385986,8.142991c-1.550995,1.966999 -3.10199,1.542999 -4.651993,2.326c2.512009,1.980999 8.231003,0.059 12.020981,-1.939001c1.982025,4.011 6.160004,1.888 9.305023,0.001c3.348999,3.488 1.701996,6.978999 -1.162018,10.469001c2.846008,2.323 5.688019,2.073 8.531006,0c3.222015,3.338999 8.777008,-1.782001 13.183014,2.325998c-3.529999,2.067001 -2.074005,4.136 -2.327026,6.205c-1.494995,1.461002 -4.368988,0.290001 -4.651978,3.100002c3.359985,1.662998 6.720978,2.600998 10.080994,0c1.23999,4.327 7.591003,3.307999 11.243988,2.715c0.932007,1.161999 -0.936981,2.326 -0.388977,3.487999c2.71698,2.308998 5.429993,2.635998 8.142975,4.266998c-1.020996,0.774002 -1.423981,1.549 -1.550995,2.325001c3.490021,3.117001 6.980011,3.772999 10.471008,5.816002c-3.230988,2.813999 -6.462006,2.598999 -9.692993,3.490997c0.921997,4.663998 8.16098,4.181004 11.632996,6.202999c-0.519012,0.517006 -1.036011,1.035004 -1.550995,1.551003c1.936005,2.490997 3.875,1.246002 5.813995,1.163002c1.774994,1.033997 -1.278992,2.069 -0.77301,3.102997c2.537018,2.546997 6.862,3.333 8.139008,5.815002c-3.098999,1.502998 -6.203003,0.500999 -9.304993,1.550995c1.300995,2.798004 5.937988,2.305 8.531006,3.103004c1.310974,0.775002 -0.053009,1.548996 0,2.325996c2.197998,1.042 4.393982,0.993004 6.59198,1.163002c1.011017,0.775002 -0.690979,1.552002 0,2.326004c1.938995,1.319 3.878021,0.105995 5.813995,1.938995c-1.371979,2.644005 -4.152985,3.545998 -6.59198,6.592003c1.938995,1.064995 3.878998,2.365997 5.817993,2.714996c1.071991,0.646004 -0.187988,1.292 0.388,1.938004c4.687012,1.772995 5.285004,5.314995 10.467987,7.368996c-1.936981,2.374001 -3.875977,0.746002 -5.815002,1.163002c2.843018,1.803001 5.686005,0.472 8.531006,2.326004c0.019012,0.645996 -0.832001,1.292999 -0.389008,1.938995c1.810028,1.544998 3.617004,-0.155998 5.427002,2.326004c-1.421997,1.203995 -2.842987,1.609001 -4.263977,3.489998c3.748993,0.983002 7.493988,-0.535004 11.242981,-1.164001c0.679016,0.904999 -0.289001,1.809998 0.389008,2.712997c2.584015,-0.076996 5.17099,0.227005 7.753998,-0.773994c1.569,0.904999 0.588989,1.807999 1.162994,2.712997c2.975006,-2.107002 5.947021,-3.391998 8.919006,-2.712997c1.708008,1.161995 -0.391998,2.325996 -0.389008,3.489998c2.656006,1.064011 7.130005,0.103012 8.527008,3.879005zm-11.632996,-5.428993c-2.713013,1.522995 -5.425995,3.211998 -8.143005,2.713997c-0.764984,-0.775002 0.563995,-1.551003 -0.77301,-2.325996c-2.715973,0.078995 -5.429993,1.382996 -8.142975,1.162994c-1.483002,-0.904999 0.316986,-1.808998 -1.165009,-2.712997c-3.10199,-0.999001 -6.203003,1.989998 -9.304993,0.775002c-2.094025,-1.423004 1.028992,-2.843002 -0.389008,-4.264c-3.360992,1.414001 -6.722015,4.801003 -10.07901,6.978996c6.628998,2.906998 14.790009,1.512001 21.710999,2.326004c4.813019,0.563995 9.972015,0.367996 14.350006,-0.389c2.230988,1.945 4.636993,0.347 6.97699,0.775002c1.156006,0.212997 1.359009,1.830002 2.716003,0.388992c-3.09198,-2.344994 -6.757996,-0.724998 -7.756989,-5.428993zm-79.485992,-75.609001c-2.565002,-0.327 -4.532013,-1.873001 -6.203003,-4.653999c-2.328003,0.195999 -4.652008,-0.342003 -6.980011,0.000999c-3.982971,-2.954002 -9.677979,0.812 -12.405975,-5.429001c0.431976,-3.754002 5.85199,-1.68 5.037994,-5.040001c-1.674011,-2.530998 -4.181,-0.176998 -5.813995,0.389c-2.285004,0.788002 -4.322998,2.132 -6.203003,3.100002c-8.131012,4.178997 -15.931,7.926998 -24.039001,13.182999c-3.882004,2.515999 -8.210999,4.776001 -12.021011,7.367001c-5.882996,3.999001 -10.633987,9.507996 -15.898987,14.347c-10.562012,9.707001 -23.616013,17.934998 -32.956009,29.854996c-3.356003,4.284004 -5.854996,10.613007 -10.082001,14.734001c8.917007,0.681999 17.835999,1.546005 26.751999,0.387001c10.95401,-18.781998 29.839005,-31.726997 44.590988,-43.813995c9.943024,-8.147003 19.627014,-16.273003 27.529022,-19.775002c2.891998,-1.281002 6.458984,-1.219002 9.307983,-2.326c4.332001,-1.682003 8.747009,-5.969002 12.019012,-3.490002c-6.983002,2.416 -13.852997,4.213001 -20.161011,6.979c-10.220001,4.480999 -20.175995,14.164997 -30.244995,22.490002c-2.80899,2.320999 -6.199997,3.668999 -8.916,5.816002c-2.373993,1.875 -3.776001,4.074997 -5.429993,5.427994c-5.380005,4.412003 -12.057999,11.101006 -15.896011,15.896004c-2.869995,3.586998 -9.550995,8.762001 -10.469986,12.797997c3.455994,1.278 7.959991,0.983002 12.794998,1.162003c5.240997,0.193001 12.388,1.353996 16.672989,-1.939003c4.185013,-3.210999 7.159012,-8.989998 11.244003,-13.57c3.166992,-3.548996 7.244995,-7.593994 11.243988,-11.243996c11.670013,-10.654999 22.115021,-20.193001 31.796021,-27.142002c3.378998,-2.428001 7.06601,-5.423 10.082001,-6.979c2.730988,-1.410999 6.298981,-0.829998 8.143005,-3.492001c-3.443024,-0.149998 -1.296997,-3.599998 -3.493011,-5.037998zm-23.653015,23.652c-13.028992,16.034996 -33.091003,28.228996 -43.813995,46.139999c3.641998,1.112999 7.279007,0.485001 11.632996,0.777c3.182007,0.212997 9.227997,1.696999 12.020996,1.162003c4.602997,-0.881004 6.313019,-4.990005 9.305023,-8.529007c3.029999,-3.589996 7.007996,-7.613998 10.85498,-10.856995c6.526001,-5.5 14.292999,-9.646004 20.549011,-14.346001c2.200989,-1.653999 3.662994,-3.840004 5.429993,-5.43c3.678009,-3.303001 6.946014,-3.806 10.858002,-4.653999c1.981995,-0.428001 5.94101,-2.027 6.97699,0.777c-1.550995,-0.312004 -3.10199,-0.238998 -4.651978,-0.775002c-2.846008,1.719002 -6.585022,2.102997 -9.693024,4.264c-2.872986,2 -5.049988,5.211998 -8.142975,7.366997c-1.603027,1.119003 -3.379028,1.538002 -5.040009,2.714005c-2.76001,1.955002 -4.979004,4.847 -7.753998,6.979996c-2.22702,1.714005 -4.822021,2.767006 -6.980011,4.652c-6.252991,5.466003 -10.697998,12.320999 -16.674011,17.449005c9.435028,2.945999 18.872009,2.489998 28.307007,5.041c2.037018,-1.866005 2.682007,-4.266006 3.878021,-6.205002c2.277985,-3.703003 5.117981,-5.118004 8.530975,-8.528999c1.332001,-1.333 1.927002,-3.071999 3.487,-4.265999c2.177002,-1.666 5.878998,-2.562004 8.919006,-4.265007c3.270996,-1.833 6.205994,-4.673996 8.920013,-5.815994c3.781982,-1.594002 8.156982,-1.206001 10.85498,-3.878006c-1.811005,-1.627998 -3.619995,0.196007 -5.429993,-1.548996c0.572998,-0.647003 1.395996,-1.292 0.389008,-1.939003c-2.253998,0.332001 -3.851013,-1.155998 -4.268005,-3.489998c-3.058014,-0.510002 -10.024994,-1.622002 -8.527008,-6.203003c2.324005,-0.310997 4.652008,0.392006 6.980011,-0.774994c-5.232025,-4.261002 -5.747009,-5.736 -10.856018,-7.755005c-1.188995,-1.710999 1.572998,-1 0.386017,-2.712997c-3.279999,-0.042999 -12.440002,-3.557999 -10.855011,-8.528999c2.45401,-0.339001 4.911011,1.068001 7.36499,-1.165001c-10.984955,-8.652 -21.970978,10.818001 -32.958984,14.345001zm105.853027,58.547997c-9.04599,-0.065994 -18.09201,-0.039993 -27.140991,0c-10.338013,-2.568001 -20.679016,-1.330002 -31.02002,-1.550995c7.181,7.001999 15.311005,10.067993 21.71402,13.18399c1.514984,0.737 5.583984,0.389999 4.652985,3.877014c-3.311981,-3.302002 -5.738007,-2.931015 -8.919983,-4.264008c-6.675018,-2.804001 -13.671021,-7.031998 -20.160004,-13.184998c-7.628021,0.375999 -15.252014,-1.150002 -22.877014,0.388c13.054016,13.320999 26.106995,22.065994 39.162018,27.530991c-1.811005,-1.809998 -2.680023,-3.619995 -0.777008,-5.429993c1.417999,0.125 0.458984,0.528992 1.550995,1.550995c2.85199,-3.623001 8.69101,-1.104996 12.795013,-2.713989c-1.532013,-1.872009 0.810974,-2.891006 2.327972,-3.100006c-1.72699,-1.421005 -2.559998,-2.843994 -1.162994,-4.266006c3.490021,-2.957993 6.977997,-0.373001 10.471008,0.387009c1.161987,-1.667007 2.324005,-1.805008 3.487,-1.938004c-1.906006,-1.992004 -4.477997,-2.546005 -3.48999,-5.041c2.845978,-0.600998 5.687988,0.654007 8.529999,2.326004c2.069,-3.029007 4.134979,0.167999 6.203003,-0.775009c-0.126007,-0.905991 -0.529999,-1.809998 -0.38501,-2.713989c2.195007,-0.971008 4.394012,1.044998 6.59201,-1.164001c-1.865021,-1.033005 -0.14502,-2.067001 -1.553009,-3.102005zm-121.361023,-101.199997c-1.652985,-3.102001 2.662994,-6.203001 1.550995,-9.306002c-1.550995,1.648001 -3.10199,1.756001 -4.652008,3.878c-8.484985,2.884001 -18.951981,7.213001 -27.143982,11.632c-3.229004,1.741001 -5.960007,4.198002 -9.306,6.204002c-3.638,2.179996 -7.729004,3.290997 -11.243011,5.815998c-3.320999,2.382999 -5.975998,5.550999 -9.306,7.754002c-1.466995,0.968998 -3.255997,1.278 -4.654999,2.327999c-5.220001,3.916 -9.528992,9.529999 -14.345001,14.346001c-10.949997,10.950996 -21.154999,20.293999 -27.916992,28.693001c-4.128006,5.125 -6.962006,10.512001 -10.854996,14.734001c3.612991,0.932999 8.330994,0.613998 13.957001,0.773994c3.824997,0.111 10.666,1.589005 13.957993,-0.773994c2.710007,-1.945 4.824005,-7.913002 7.367004,-12.021004c2.330994,-3.761002 6.677994,-8.394997 9.306992,-10.854996c8.035004,-7.526001 17.019012,-14.287003 25.590012,-21.714005c4.599991,-3.985001 8.419998,-8.750999 13.182999,-12.405998c3.918991,-3.009003 8.672989,-5.433002 12.794998,-8.143002c8.729004,-5.742001 17.816986,-10.939999 26.367004,-14.734001c4.272003,-1.896999 8.906982,-2.793999 12.406006,-5.428999c-5.684998,0.572001 -11.373016,1.397001 -17.058014,-0.776999zm32.570007,94.610001c8.401001,3.482002 16.803009,1.427002 25.200989,2.712997c0.20401,-6.210999 9.808014,-15.448997 17.062012,-18.611c2.315002,-1.010002 5.247009,0.595001 5.813995,-1.938995c-1.605988,-2.334007 -5.100006,-1.401001 -6.203003,-5.428001c-1.938995,-0.698006 -3.875977,-0.266998 -5.813995,-1.938004c1.437012,-1.938995 4.886993,-3.877998 5.041016,-5.818001c-14.368011,6.726006 -33.230011,13.639999 -41.101013,31.021004zm-34.89801,-102.364002c0.216003,-0.389 0.126007,-0.775 -0.389008,-1.164c-2.065002,0.444 -4.134003,0.409 -6.203003,-0.775c-3.875,0.879 -7.753998,3.419001 -11.63298,0.775c-1.554001,-1.809999 2.257004,-3.62 1.551987,-5.427999c-4.931,0.228 -10.843994,3.009001 -15.895996,8.143c-4.026993,4.091 -9.727997,9.118 -12.794998,13.570002c-1.097992,1.593998 -1.378998,3.764999 -2.328003,5.428997c-0.908997,1.600002 -4.186996,2.366001 -1.938995,4.266003c16.543015,-10.686001 33.087021,-17.741001 49.630997,-24.816002zm82.202026,87.628002c-7.561005,-0.209999 -17.709991,9.270996 -19.774994,16.672997c5.687988,2.232002 11.372986,0.245003 17.061981,1.552002c4.52301,-4.150002 9.046021,-7.637001 13.569,-9.695c-2.742004,-5.983002 -9.329987,-2.227997 -10.855988,-8.529999zm-103.139008,-94.608002c1.061005,-0.302999 4.100998,-0.547999 3.878998,-2.323999c-1.061005,0.781 -4.100998,0.356999 -3.878998,2.323999zm-2.325012,-2.325999c-2.846008,0.603 -5.688004,3.056999 -8.531006,0c-3.104004,2.606999 -6.203003,2.438999 -9.307999,2.327999c-0.916,-1.809999 0.779999,-3.620999 0,-5.429999c-2.552994,1.895 -4.341003,-0.689 -5.041,-1.939c-1.677994,0.011 -3.360001,2.491 -5.041,2.714c-1.242004,-1.07 0.113998,-2.75 -1.936996,-2.714c-3.102005,1.552 -6.203003,4.026 -9.307999,3.102c-2.363998,2.740999 -3.893997,3.044 -5.813995,1.939c-3.080002,-1.772 -1.363007,-4.842 -2.328003,-6.98c-6.098999,3.943 -7.216003,10.446 -9.305008,13.960001c-2.347992,3.952999 -6.582993,6.728998 -8.916992,10.469c-2.781998,4.452999 -4.819,10.646999 -3.490005,15.120998c15.380005,-14.630999 30.761002,-24.495998 46.139999,-32.181999c-13.541,9.628 -27.804001,18.103001 -41.099991,30.242001c-5.596008,5.110001 -10.207001,11.175999 -15.896011,16.673c-4.761993,4.601997 -9.772003,8.34 -13.958984,13.184002c-11.66301,13.492996 -22.694016,27.893997 -29.080002,41.487999c9.04599,0.674995 18.093002,1.258995 27.141006,0.775002c20.061996,-24.441002 41.906998,-49.633003 67.079987,-67.079002c-1.359985,-3.742001 1.828003,-6.157001 3.490005,-8.917999c0.880997,-1.464001 1.334,-3.350002 2.326996,-4.652c2.223007,-2.934002 6.675003,-5.896002 10.07901,-9.305c2.894989,-2.900002 4.713989,-6.182001 6.978989,-7.756001c2.048004,-1.421 7.313004,-1.563001 6.59201,-3.490001c-0.473999,-0.516999 -0.039001,-1.033999 -0.77301,-1.549999zm90.730011,140.362994c-11.015991,-5.64801 -19.069,-14.531998 -30.242004,-23.264999c-2.527985,-1.974998 -5.515991,-0.519997 -8.531006,-0.776993c-2.044006,-0.173004 -3.695984,-1.329002 -5.429993,-1.549004c-0.53299,-0.068001 -1.312012,0.470001 -1.937988,0.387001c-5.371002,-0.717003 -10.332001,-2.792 -14.734009,-0.775002c20.863007,17.821999 39.697998,36.480995 60.098999,49.243996c1.514008,-2.585999 -2.777008,-5.169006 -0.77301,-7.755997c2.45401,-0.964005 4.911011,-1.492004 7.365021,-1.162003c0.718994,-2.309998 0.902985,-2.169006 3.103973,-1.55101c1.856018,-1.033997 -0.84198,-2.069 0.774017,-3.10199c1.298004,-0.743011 3.764984,0.822998 3.877991,-1.55101c-4.458984,-5.411987 -9.669006,-6.143982 -13.571991,-8.14299zm-142.689011,-147.342995c-3.360001,0.253 -6.721008,3.156 -10.082001,3.103c-5.042007,8.388 -12.091995,3.435 -6.591995,-2.714c-2.843002,-1.312 -5.687012,2.055 -8.529007,0c-2.455994,1.882 -4.912003,1.907 -7.367004,5.041c-2.714996,-1.126 -5.429001,2.504 -8.143997,1.939c-2.102997,-1.822001 0.302002,-5.671 -2.324997,-6.205c-10.766006,14.086 -22.225998,28.176 -22.100998,42.265001c13.987991,-16.202002 28.852997,-30.404001 45.365005,-39.937001c-9.660004,9.881001 -21.749008,17.182 -31.018997,27.140999c-6.031006,6.476002 -12.464996,12.507999 -17.835999,19.387001c-14.788002,18.941998 -25.733002,39.849003 -36.835007,58.549c10.209999,1.323997 20.421005,-0.375999 30.631004,0.387001c6.251991,-6.805 9.482002,-15.980003 15.122993,-24.426003c3.094009,-4.635002 7.911011,-8.030998 11.632004,-12.407997c4.686996,-5.514 7.994995,-11.340004 13.570007,-15.898003c5.740997,-4.694 10.904999,-10.306999 15.509995,-15.509998c-1.843994,-4.003002 2.173004,-14.262001 4.264999,-17.449001c2.528,-3.852999 6.865997,-6.653 9.304993,-10.856998c0.848007,-1.457001 0.753006,-3.250001 1.55101,-4.653001c1.503998,-2.644 3.639999,-3.769 5.041992,-6.591c-0.388,-0.389 -0.774994,-0.776 -1.164001,-1.164zm-18.610992,113.220001c-4.083008,-0.073997 -7.904999,-0.880005 -12.020996,-1.164001c-7.859009,-0.541 -15.705002,0.324997 -23.652008,-0.387001c-7.720001,-0.690002 -16.046997,-1.215996 -23.652,0.389c-6.298996,-3.252998 -12.703995,-1.060997 -18.611,-0.777c-7.912994,0.381004 -15.755997,-0.673996 -23.264999,-0.775002c-1.867996,-0.024994 -3.828995,0.504005 -5.814995,0.387001c-1.964005,-0.112 -3.832001,-1.163994 -5.816002,-1.160995c-2.459,0.000999 -5.167999,0.739998 -7.755001,0.773994c-2.660999,0.035004 -5.217999,-0.112999 -7.755001,0c-5.397999,0.242004 -10.605,1.437004 -15.896,1.164001c-10.660997,-0.548996 -21.882998,-3.082001 -31.793998,2.326004c5.425,2.310997 10.859,-0.501999 16.284,-0.775002c5.532,-0.277 11.142,0.501999 16.672001,0.387001c10.982998,-0.229004 21.987999,-0.542999 32.957996,-1.938004c19.817001,3.320999 40.079002,0.922005 60.099007,1.163002c10.039001,0.122002 19.707993,1.341003 29.856995,1.165001c20.227005,-0.353004 40.262009,1.600998 60.100006,1.160995c10.099991,-0.222 20.141998,0.567001 30.241989,0.777c20.07402,0.415001 39.568008,5.506004 59.324997,5.041c-43.056976,-7.198997 -87.079987,-6.990997 -129.50499,-7.756996zm136.871994,65.528999c-4.390991,-2.287994 -8.897003,-3.964996 -13.18399,-6.205002c-22.466003,-11.742996 -45.265991,-32.395996 -61.264008,-55.057999c-6.875992,-0.899002 -14.79599,-0.341003 -21.322998,-0.389c-2.121002,-0.014999 -5.438004,-1.366997 -6.591995,1.164001c6.196991,4.701996 9.940002,10.088005 14.733994,15.510002c13.569,15.35199 28.427002,28.746994 43.813995,39.936996c7.901001,5.746994 17.002991,9.113007 25.200989,12.794998c4.201996,1.888 8.164001,4.460999 12.409027,6.203003c1.923981,0.791 4.244995,1.324997 6.203003,2.326996c1.553986,0.798004 4.569,2.132004 5.040985,4.266006c-13.959991,-6.962006 -27.917999,-13.112 -41.877991,-19.388c10.158997,13.75499 26.139008,26.68399 36.837006,36.83699c2.616974,-2.069 -4.149017,-4.135986 -2.328003,-6.204987c3.75,-1.058014 7.498993,-0.638 11.247986,0.388992c1.605011,-1.289001 2.694,-2.283005 5.037018,-1.164001c1.714996,-0.000992 0.39798,-1.632996 1.550995,-2.326004c1.363007,-0.817993 4.587982,0.685013 6.207001,-0.774994c-4.692993,-4.714005 -12.348999,-10.212997 -13.572021,-15.895996c1.939026,-2.508011 5.507019,0.229004 6.203003,-3.102997c-3.530975,-3.882004 -9.423004,-6.35701 -14.343994,-8.919006zm-46.915009,-32.182999c9.369019,8.139999 17.93399,14.457993 27.528015,20.550995c5.373993,3.41301 11.509979,5.436005 17.05899,8.529007c6.54599,3.649994 12.333008,8.326996 19.001984,11.246002c-1.562988,-2.327011 -4.936981,-4.654007 -3.878998,-6.980011c4.308014,-0.327988 4.076019,-3.593994 8.531006,-2.325989c-0.10498,-3.805008 2.317993,-2.292999 5.041016,-4.266006c-5.800018,-4.375 -12.539001,-6.186996 -19.002014,-11.242004c-2.35199,-1.845993 -4.371002,-4.68399 -6.97699,-6.979996c-9.308014,-8.197998 -21.304993,-16.746002 -30.244995,-24.815994c-2.864014,-2.583008 -5.072021,-5.656006 -7.753998,-7.754005c-3.684998,-2.879997 -6.006012,-2.686996 -10.082001,-3.102997c-7.522003,-0.768005 -16.966019,-2.780006 -23.653015,-1.163002c7.99202,10.186005 15.351013,20.419006 24.431,28.304001zm-165.566986,-126.016003c-0.855003,0.558001 -1.444,1.884001 -2.326004,2.326c-0.917,0.464001 -1.750999,-0.483999 -2.714996,0.389c-1.809998,1.637001 -2.149002,4.335001 -4.264,5.816002c-1.68,1.175999 -4.162003,0.638 -4.653999,0.774998c-3.686005,1.031002 -5.697998,3.118999 -8.529999,6.205002c-1.421005,1.062 -2.844002,-0.109001 -4.264999,1.162998c-1.366005,2.714001 -3.437004,5.428001 -5.041,8.142002c-1.163002,1.07 -2.326004,-1.924999 -3.489006,-0.388c-3.539993,3.042 -7.204998,10.450001 -11.244995,12.021c-1.130001,4.474998 -4.499001,6.575996 -6.979,10.854996c-1.868999,-1.292 -0.086002,-2.582993 -2.326,-3.875c-8.151001,7.790001 -10.776001,16.322006 -16.673,22.100006c-0.088001,4.226997 -2.98,6.827995 -3.103001,10.856995c-0.115,3.848 1.791,7.777 0.776001,11.632004c2.195999,0.765999 4.394001,1.167999 6.591999,0.387001c-0.925999,-12.149002 9.625999,-24.298004 10.855999,-36.446999c2.111,1.823997 -1.27,5.228996 1.164001,5.814995c2.940998,-3.623001 4.890999,-9.299995 7.753998,-11.630997c0.067001,5.966995 -6.200996,10.296997 -9.692997,15.897995c-1.973,3.163002 -4.331001,10.042007 -5.428001,13.182007c-1.979,5.660995 -4.454998,8.973999 -1.164001,13.571999c3.591003,-0.600998 6.061001,-2.523003 8.143002,-5.816002c4.255001,-6.728996 6.580002,-14.819 9.694,-22.876999c1.77,-4.580002 3.408001,-9.875 5.815998,-14.347c2.414005,-4.480003 6.215,-8.767002 9.306004,-13.181999c3.068001,-4.386002 5.730995,-9.314003 8.529999,-13.184002c2.316002,-3.202999 5.578003,-8.147999 10.469002,-8.917999c-6.731003,5.915001 -8.943001,10.75 -12.795006,16.672001c-2.768997,4.256001 -6.085999,7.995998 -8.530998,11.632999c-1.087997,1.619999 -2.789001,3.657001 -3.876999,5.427998c-5.073997,8.269005 -6.354,18.556 -10.468998,27.530998c-0.357002,0.778 -1.514,1.188004 -1.938,1.938004c-2.529003,4.460999 -3.471001,10.125999 -7.755001,13.959c2.632,0.279999 5.644001,0.834 8.529999,0.775002c8.292,-0.167 10.181,-3.063004 14.347004,-11.244003c1.639,-3.218994 2.785995,-7.144997 4.265999,-9.693001c3.044998,-5.251999 6.565994,-10.444 9.692001,-15.895996c4.770996,-8.32 9.316994,-15.393002 14.347,-22.103001c0.654999,-9.952999 4.125999,-21.971001 13.57,-30.631001c-4.378006,9.047001 -11.796005,18.095001 -10.856003,27.140999c6.320999,-8.976997 15.908997,-20.930998 25.201996,-29.079998c3.320007,-2.91 6.696007,-7.923 10.857002,-6.98c-9.278,7.242 -18.276001,15.261001 -24.813995,24.041001c-10.620003,14.259998 -21.832001,30.289001 -28.694,43.424995c-3.267006,6.254005 -7.571007,11.291 -10.470001,17.449005c-1.945,4.133995 -3.029999,8.887001 -6.591003,12.019997c4.217003,1.423004 8.895004,1.511002 13.183998,1.551003c4.349007,0.042 8.849007,0.051003 13.183006,-0.775002c-0.117004,-1.034996 -1.397003,-2.067001 0,-3.101997c3.783997,-3.486 3.948997,-6.507004 5.816994,-9.693001c2.074005,-3.542 2.838005,-5.808998 4.264,-8.142998c1.010002,-1.652 2.721001,-2.778008 3.878006,-4.652c1.274994,-2.069 1.576996,-4.637001 2.712997,-6.592003c1.494003,-2.573997 3.718002,-4.437004 5.429001,-6.980003c4.107002,-6.112 8.989998,-13.030998 13.957001,-19.386997c5.447998,-6.973999 3.009003,-14.053001 6.591995,-21.326c1.193008,-2.423 3.128006,-5.07 4.652008,-7.756001c1.431,-2.515999 2.950989,-5.460999 4.653992,-7.754c3.12001,-4.202 6.988998,-6.051999 9.306,-11.631999c-1.552002,1.406 -3.102997,2.001 -4.653992,0.775c-2.456009,3.055 -4.912003,1.539 -7.367004,3.49c-2.072998,1.496 -1.804001,4.371 -3.876999,4.652c-1.035004,-1.164001 -0.904999,-2.326 -1.938004,-3.490001c-1.292999,0.482 -2.585999,2.093 -3.877991,2.328c-0.775009,-0.599999 -1.552002,-2.332999 -2.328011,-0.775c-5.237999,3.216 -11.869995,4.592 -15.894997,11.244c-1.931999,-1.164 -0.009003,-2.328001 -1.939003,-3.49c-1.525993,2.737 -4.730995,3.188999 -6.978996,4.651999zm115.546997,176.809994c-0.520996,2.942993 1.115997,6.518997 2.716003,9.692993c3.255997,6.473999 7.268005,13.82901 12.018997,19.775009c2.283997,2.855988 5.318008,6.560989 8.919006,7.366989c1.146988,-2.325989 -2.854004,-4.651993 -0.003006,-6.978989c2.457001,0.233994 4.914001,3.085999 7.367996,5.039001c2.344009,-0.59201 3.435013,0.090988 5.041,2.714996c1.766998,-3.102005 4.252014,1.649994 6.980011,-0.775009c1.42099,0.093002 2.842987,1.49501 4.264008,1.938004c2.777985,-3.099991 -3.015015,-6.203003 -0.77301,-9.304993c3.746002,0.889999 7.494995,2.141998 11.243988,4.265991c2.065002,-1.237991 4.134003,0.354004 6.203003,1.55101c2.44101,-1.476013 4.223999,-1.744003 7.365021,-1.162003c-0.598022,-4.358002 -6.003021,-5.365997 -5.038025,-8.919998c3.10202,-1.201004 6.203003,2.626999 9.305023,3.876999c1.227997,-1.215012 1.595001,-2.636002 4.264984,-0.387009c0.009003,-3.841995 5.639008,-0.089996 4.264008,-2.714996c0.290009,-1.253006 -3.894012,-3.550003 -4.264008,-5.815994c2.587006,-2.659012 5.170013,-0.219009 7.753998,0.776993c1.061005,-3.972992 4.362,1.277008 6.59201,-1.164001c0.378998,-2.056992 -2.821014,-4.621002 -4.652008,-4.651993c-9.755005,-10.442001 -21.248993,-19.139999 -29.854004,-29.855011c-1.686005,-2.097992 -2.30899,-4.063995 -4.266998,-5.816986c-1.880981,-1.686005 -4.375,-2.603012 -6.59201,-4.266006c-20.850983,-15.651001 -39.33699,-35.692993 -57.770981,-55.446999c-7.758011,0.238998 -15.511002,-0.837006 -23.266006,0c5.423004,6.634995 12.065002,11.799004 17.059006,17.836998c3.972,4.796997 6.28299,10.369003 10.082001,15.509995c7.800003,10.549011 18.931,23.173004 26.75499,30.631012c7.338013,6.994995 15.958008,11.612 23.265991,16.285995c5.694,3.641998 11.669006,8.143997 15.896027,11.242004c3.738983,2.743988 6.978973,6.220993 10.85498,8.530991c3.136017,1.867004 7.359009,1.729004 9.308014,5.430008c-12.687012,-5.091003 -25.235016,-16.493011 -37.226013,-24.041c-4.181,-2.633011 -8.225998,-5.319 -12.406006,-6.979004c5.593002,13.108002 24.412018,27.779007 34.51001,37.610992c-6.127014,-2.020996 -9.854004,-7.344986 -14.346008,-12.020996c-4.994995,-5.195999 -11.333984,-9.373993 -15.899994,-15.123001c-3.115997,-3.925003 -4.365005,-8.990997 -7.365005,-12.793991c-1.936996,-2.451004 -4.953995,-4.294006 -7.367996,-6.59201c-6.956009,-6.625992 -13.71701,-14.146988 -20.160995,-21.712997c-7.032013,-8.257004 -11.792007,-18.289001 -18.613007,-26.366989c-4.160004,-4.930008 -14.201996,-14.02401 -18.608994,-17.836006c-10.987015,-0.677002 -21.973007,-0.965004 -32.958008,-0.389c13.932999,11.761993 18.518997,26.257004 28.305008,37.612c2.549988,2.957001 5.223999,5.694992 7.75499,8.529999c5.029999,5.634003 11.287003,11.005005 17.059998,16.285004c7.261002,6.638 13.279007,14.093994 20.16301,20.160995c5.599991,4.938004 11.82399,10.175003 17.835999,14.733994c9.270996,7.033005 19.809982,13.07901 24.038986,20.164001c-13.805984,-12.581985 -31.222977,-22.137985 -45.755981,-36.446991zm5.817001,19c-1.018005,-1.916 -1.050995,-4.178009 -1.938995,-5.81601c-1.141006,-2.097992 -3.233002,-3.649994 -4.266998,-5.815994c-2.126999,-4.462997 -1.828003,-9.442993 -5.42601,-13.957993c-8.17099,-10.247009 -20.703995,-18.24501 -30.244995,-28.69101c-3.447998,-3.776993 -7.792007,-8.166992 -10.854996,-12.40799c-8.074997,-11.172012 -13.937012,-25.513 -27.143997,-34.123009c-9.046005,0.016998 -18.09301,-1.398003 -27.142006,0c5.734001,6.464005 10.139,13.528999 14.736,20.937996c3.334,5.378006 7.100006,9.866013 11.242004,15.123001c7.692001,9.76001 14.095993,21.294006 22.876999,30.630997c5.944,6.318008 13.867996,11.506012 20.552002,18.224014c8.373993,8.418991 17.589996,17.962997 24.815994,24.041c3.024002,2.546997 5.011002,5.348999 7.365997,8.14299c2.444,-1.938004 -1.184998,-3.876999 0.388,-5.815994c3.237,2.175003 4.565994,2.712997 8.143005,5.815994c1.421997,0.701004 2.843002,-0.104996 4.264999,0.389008c3.310989,3.722992 4.42099,1.526993 7.367996,1.162003c-5.016998,-5.580002 -11.302994,-11.363998 -14.735001,-17.839005zm-35.671997,-3.876999c-5.065002,-6.570999 -12.550003,-11.643997 -11.246002,-17.449997c-8.160004,-6.914001 -15.768997,-15.565002 -22.876999,-24.42601c-4.945007,-6.166 -8.973007,-13.617004 -14.345001,-19.774994c-5.608002,-6.427002 -7.494003,-11.862 -11.632996,-17.059998c-3.851006,-4.835999 -6.339005,-10.752007 -9.695007,-14.347008c-8.028,-8.593994 -15.482994,-2.874001 -23.649994,-3.488998c6.362,7.112999 9.133995,16.353996 13.57,24.426003c5.389,9.809006 11.847,19.615005 19.385994,28.694992c3.160004,3.805008 4.605011,6.424011 6.979004,9.305008c4.167999,5.059998 9.738998,10.404999 15.123993,14.347c10.877014,7.964005 25.047012,17.608994 30.629013,29.080002c-2.806,-5.646011 -8.440002,-9.264999 -13.570007,-13.570007c-4.048004,-3.397003 -7.429001,-8.252991 -12.020004,-9.694c2.151001,5.559006 6.469009,11.115997 8.143005,16.673004c-6.710007,-4.817993 -6.309998,-14.294998 -11.632004,-20.162003c-3.80899,-4.199005 -9.552994,-5.938004 -13.957993,-11.630997c-0.550003,2.462006 1.194992,4.750992 1.938004,7.365997c0.687988,2.417007 0.531998,5.076996 1.938995,7.365997c1.850998,3.016006 6.069992,4.859009 6.591003,8.917999c-4.840012,-4.133987 -7.540009,-8.270996 -10.082001,-12.406998c0.315994,-8.645996 -5.306,-16.916 -12.021004,-25.202988c-5.638,-6.959015 -10.426003,-14.826996 -15.121002,-22.102005c-5.544998,-8.588989 -9.583,-19.445999 -14.733002,-27.139992c-1.582001,-2.362 -3.274994,-3.674004 -4.653999,-4.653999c-2.844002,-0.029007 -5.686996,0.366997 -8.528999,-0.775002c-4.913002,1.637001 -9.823997,-2.07 -14.734001,0.775002c3.541,3.577995 3.441002,6.196999 5.040001,9.692993c3.793999,8.300003 9.743004,17.591003 14.346001,25.203003c5.915001,9.783997 16.205002,17.611008 24.041,27.141998c1.443001,1.755997 2.140999,4.117004 3.489998,5.817001c4.955002,6.244995 13.157005,10.964996 14.734001,17.059006c-12.858002,-13.794998 -25.025002,-27.531006 -36.836998,-41.487c-2.042,5.276001 0.681999,11.589996 3.877998,17.061996c0.821999,1.405991 3.865997,2.365005 2.326004,4.651993c-0.993004,-3.632996 -4.184006,-5.278 -5.816002,-8.141998c-3.080002,-5.410995 -1.961998,-11.837997 -3.102005,-17.061005c-11.845993,-13.055008 -17.175995,-26.108994 -22.875999,-39.161995c-5.041996,-2.189995 -10.081997,-2.353996 -15.122997,-1.163994c6.230999,5.316994 6.100002,10.335999 7.367001,15.121002c0.896,3.388 2.794998,5.855988 3.103001,9.306c6.565998,10.651001 13.303997,19.279999 22.488003,29.468994c-1.023003,1.162003 1.361,2.326004 -0.387001,3.488007c-2.431999,-8.740005 -13.131004,-13.353012 -15.122002,-21.324005c-4.653999,-5.781006 -9.304001,-12.957001 -10.855999,-17.837006c-1.566002,-4.918991 -0.450001,-11.367996 -6.206001,-14.731995c0.918999,8.992996 2.096001,19.798004 8.144001,27.529007c-2.976002,1.001999 -3.143002,-3.126007 -3.878002,-4.652008c-1.056,-2.199997 -2.691998,-4.763992 -3.488998,-7.369003c-1.809002,-5.909988 -0.343002,-13.532997 -3.877003,-18.609993c-2.712997,-0.149002 -5.426998,-1.800003 -8.141998,0.386993c-0.935001,4.136002 2.790001,8.272011 2.326,12.407997c0.904999,1.025009 1.808998,0.591003 2.715,1.16301c-0.291,1.938995 -0.486,3.876999 1.164001,5.815994c0.903,0.693008 1.808998,-1.625 2.711998,-0.386993c0.702,2.325989 -1.360001,4.651993 0.776001,6.978989c0.904999,0.591003 1.809998,-1.197998 2.714001,0.387009c0.302998,3.307999 1.702999,8.510986 5.428997,8.531006c-0.745998,1.809998 0.483002,3.619995 1.550003,5.429993c0.774998,1.082001 1.551998,-1.983002 2.327,-0.001999c0.473995,2.197998 1.716,4.395996 3.490002,6.591995c1.631996,0.714996 0.001999,-3.815994 2.325996,-3.10199c0.420998,2.327988 0.361,4.653992 2.324997,6.979996c0.647003,0.632996 1.293007,-0.859009 1.940002,-0.389008c0.612,1.710999 1.318001,4.945999 3.100998,5.429993c0.923004,1.253006 0.475006,-2.418991 1.938004,-1.164001c1.335999,1.809998 0.945,3.619003 3.102997,5.428009c0.922005,-0.458008 0.474007,-2.746002 1.939003,-1.939011c0.095001,2.74501 1.568001,3.060013 3.101997,1.553009c0.673004,1.809998 0.959999,3.616989 3.102005,5.427994c1.236,1.162003 0.313995,-2.71199 1.550995,-1.550995c1.919006,2.996002 3.32,9.259995 7.755005,6.979004c0.811996,2.043991 3.491997,5.185989 5.429001,3.102997c0.044998,0.934998 2.277,3.835999 3.488998,3.488998c-1.017998,-0.690994 -0.978004,-3.298996 0.388,-2.714996c0.791,5.166992 6.141998,7.07399 10.081001,8.529999c1.699997,-1.061005 -0.705002,-4.100998 1.550995,-3.876999c1.745003,5.069 6.792,6.494995 9.693008,10.468994c1.209,-1.843994 3.243988,-0.317001 5.429993,2.328003c2.436996,-1.313004 0.158997,-4.630005 2.324997,-4.654007c-0.121002,3.039001 3.126007,7.036011 6.593002,8.919998c0.645996,-0.516998 1.292007,-1.570999 1.938004,-1.166c2.714996,3.810013 5.427994,2.425003 8.143005,5.041c1.25,-0.810989 0.378998,-3.567993 2.327988,-3.10199c1.333008,1.164001 0.95401,2.326004 2.712997,3.48999c1.940002,0.429001 3.878006,0.262009 5.81601,2.715012c0.619995,-0.432007 1.914993,-1.202011 3.488998,1.161987c1.992004,-2.066986 -2.354996,-4.135986 -0.774002,-6.202988c3.313004,1.039001 4.421005,5.069992 7.367004,7.366989c2.843994,0.063004 5.686996,2.090012 8.530991,3.876999c1.985001,-1.060989 0.177002,-4.100998 2.326004,-3.876999c1.636002,1.681 2.320007,3.360001 3.488998,5.039001c1.680008,-1.713989 3.360001,-0.085999 5.042007,1.939011c2.972,-2.931 5.944,5.377991 8.914993,2.714996c1.305008,-0.026001 -1.916992,-3.341003 0,-4.654007c3.102005,2.208008 6.207001,2.824005 9.309006,5.430008c1.257996,-0.367996 1.272003,-1.748001 3.102005,-1.55101c-12.595001,-10.630997 -23.299011,-21.038986 -36.061005,-33.733994c-0.738007,2.449997 1.153992,5.317993 2.714005,7.367004c5.224991,6.867996 12.919998,13.918991 14.733994,20.938995c-4.384995,-1.875992 -4.983002,-7.80899 -8.529999,-12.410995z"/>
   <path stroke="#7f7f00" id="svg_20" fill-rule="evenodd" clip-rule="evenodd" fill="#ffff00" d="m110.117996,20.162001c1.93,1.163 0.008003,2.326 1.939003,3.49c4.025002,-6.652 10.656998,-8.028001 15.895004,-11.244c0.775002,-1.557 1.551994,0.176 2.327995,0.775c1.292007,-0.233999 2.585007,-1.844999 3.878006,-2.328c1.03299,1.164001 0.903,2.326 1.937988,3.490001c2.073013,-0.282001 1.804001,-3.157001 3.877014,-4.652c2.455994,-1.951 4.910995,-0.434999 7.366989,-3.49c1.55101,1.226 3.102005,0.63 4.654007,-0.775c-2.317001,5.581 -6.186005,7.43 -9.306,11.631999c-1.70401,2.292 -3.223999,5.238001 -4.654007,7.754c-1.524002,2.686001 -3.459,5.333 -4.651993,7.756001c-3.583008,7.272999 -1.143997,14.352001 -6.592003,21.326c-4.967003,6.355999 -9.849998,13.273998 -13.957001,19.386997c-1.710999,2.542999 -3.935997,4.406006 -5.429001,6.980003c-1.136002,1.955002 -1.437996,4.523003 -2.712997,6.592003c-1.158005,1.875 -2.869003,3 -3.877998,4.652c-1.426003,2.334 -2.190002,4.599998 -4.264,8.142998c-1.868004,3.185997 -2.033005,6.208 -5.817001,9.693001c-1.397003,1.033997 -0.117004,2.067001 0,3.101997c-4.333,0.826004 -8.833,0.817001 -13.182999,0.775002c-4.290001,-0.040001 -8.967003,-0.127998 -13.184006,-1.551003c3.562004,-3.132996 4.646004,-7.885002 6.591003,-12.019997c2.899002,-6.159004 7.202995,-11.195 10.470001,-17.449005c6.862,-13.134995 18.072998,-29.164997 28.693001,-43.426998c6.537994,-8.778999 15.535995,-16.797998 24.813995,-24.040998c-4.160995,-0.943001 -7.536995,4.07 -10.857002,6.98c-9.292,8.149 -18.880997,20.104002 -25.201996,29.08c-0.940002,-9.046001 6.477997,-18.092999 10.856003,-27.140999c-9.444,8.66 -12.915001,20.677998 -13.57,30.631001c-5.030006,6.709999 -9.576004,13.783001 -14.347,22.103001c-3.126007,5.452995 -6.647003,10.644997 -9.692001,15.895996c-1.479004,2.548004 -2.625999,6.474998 -4.265999,9.693001c-4.166004,8.181 -6.055004,11.078003 -14.347004,11.244003c-2.885998,0.058998 -5.897999,-0.495003 -8.529999,-0.775002c4.284,-3.833 5.225998,-9.498001 7.755001,-13.959c0.424999,-0.749001 1.580997,-1.159004 1.938,-1.938004c4.114998,-8.974998 5.395,-19.262001 10.468998,-27.530998c1.087997,-1.770996 2.789001,-3.807999 3.876999,-5.427998c2.445,-3.637001 5.763,-7.376003 8.530998,-11.633003c3.852005,-5.921997 6.064003,-10.757 12.795006,-16.671997c-4.890999,0.769997 -8.153,5.715 -10.469002,8.917999c-2.799004,3.869999 -5.461998,8.798 -8.529999,13.183998c-3.091003,4.415001 -6.891998,8.702 -9.306004,13.182003c-2.408997,4.472 -4.045998,9.766998 -5.815998,14.347c-3.113998,8.057999 -5.438,16.147995 -9.694,22.876999c-2.082001,3.292 -4.550999,5.214996 -8.143002,5.816002c-3.290997,-4.598 -0.813999,-7.911003 1.164001,-13.572006c1.098,-3.139999 3.455002,-10.018997 5.428001,-13.181999c3.493,-5.600998 9.760998,-9.931 9.692997,-15.897995c-2.862999,2.331001 -4.813,8.007996 -7.753998,11.630997c-2.434002,-0.585999 0.947998,-3.990997 -1.164001,-5.815002c-1.23,12.149002 -11.781998,24.298004 -10.855999,36.447006c-2.197998,0.780998 -4.396,0.378998 -6.591999,-0.387001c1.014,-3.855003 -0.892,-7.785004 -0.776001,-11.632004c0.122,-4.029999 3.014999,-6.629997 3.103001,-10.856995c5.896,-5.777 8.521,-14.310005 16.673,-22.100006c2.239998,1.292 0.457001,2.584 2.326,3.875c2.48,-4.278999 5.848999,-6.379997 6.979,-10.854996c4.041,-1.571003 7.705002,-8.979 11.244995,-12.021c1.163002,-1.537003 2.326004,1.458 3.489006,0.387997c1.603996,-2.713997 3.674995,-5.427998 5.041,-8.141998c1.420998,-1.271999 2.842995,-0.101002 4.264999,-1.162998c2.833,-3.086002 4.843994,-5.173 8.529999,-6.205002c0.491997,-0.137001 2.973999,0.401001 4.653999,-0.775002c2.114998,-1.480999 2.454002,-4.178999 4.264,-5.815998c0.962997,-0.873001 1.796997,0.076 2.714996,-0.389c0.882004,-0.442001 1.471001,-1.768 2.326004,-2.326c2.248001,-1.461 5.453003,-1.913 6.979996,-4.65z"/>
   <path stroke="#7f7f00" id="svg_21" fill-rule="evenodd" clip-rule="evenodd" fill="#ffff00" d="m250.091995,12.794c0.722,1.927 -4.543991,2.069 -6.591995,3.490001c-2.266006,1.573999 -4.085007,4.855999 -6.979004,7.756001c-3.403992,3.407999 -7.856003,6.370998 -10.07901,9.305c-0.992996,1.302998 -1.445999,3.188 -2.326996,4.652c-1.662003,2.760998 -4.850998,5.175999 -3.490005,8.917999c-25.172989,17.445999 -47.018997,42.638 -67.080002,67.079002c-9.046997,0.483994 -18.094986,-0.101006 -27.140991,-0.775002c6.384995,-13.594002 17.416992,-27.995003 29.080002,-41.487999c4.186996,-4.844002 9.196991,-8.582005 13.959,-13.184002c5.690002,-5.497002 10.300995,-11.563 15.895996,-16.673c13.296005,-12.140001 27.559006,-20.614 41.100006,-30.242001c-15.378998,7.686001 -30.759003,17.551001 -46.139999,32.181999c-1.32901,-4.473999 0.707993,-10.667999 3.48999,-15.120998c2.334,-3.740002 6.568008,-6.516001 8.917007,-10.469c2.088989,-3.515001 3.205994,-10.017001 9.304993,-13.960001c0.964996,2.138 -0.750992,5.208 2.328003,6.98c1.921005,1.105 3.449997,0.801999 5.813995,-1.939c3.104004,0.924999 6.206009,-1.549 9.307999,-3.102c2.05101,-0.036 0.694,1.645 1.937012,2.714c1.681,-0.223 3.362991,-2.704 5.041,-2.714c0.699997,1.25 2.487991,3.833 5.041,1.939c0.779999,1.809 -0.916,3.62 0,5.429999c3.103989,0.111 6.202988,0.279 9.307999,-2.327999c2.843002,3.056999 5.685989,0.603 8.530991,0c0.733017,0.516 0.298019,1.033 0.77301,1.549999z"/>
   <path stroke="#7f7f00" id="svg_22" fill-rule="evenodd" clip-rule="evenodd" fill="#ffff00" d="m329.966003,191.931c-0.696014,3.332001 -4.264008,0.595001 -6.203003,3.102997c1.223999,5.684006 8.878998,11.182999 13.571991,15.895996c-1.618988,1.460007 -4.843994,-0.042999 -6.207001,0.775009c-1.151978,0.692993 0.164001,2.324997 -1.550995,2.326004c-2.342987,-1.119003 -3.432007,-0.125 -5.036987,1.164001c-3.749023,-1.026001 -7.498016,-1.446014 -11.248016,-0.389008c-1.820984,2.069 4.945007,4.136002 2.328003,6.205002c-10.697998,-10.153 -26.678009,-23.082001 -36.837006,-36.837006c13.960022,6.275009 27.917999,12.42601 41.878021,19.388c-0.472015,-2.134003 -3.487,-3.468002 -5.041016,-4.265991c-1.958008,-1.001999 -4.278992,-1.536011 -6.203003,-2.327011c-4.244995,-1.741989 -8.207001,-4.314987 -12.408997,-6.202988c-8.197998,-3.682007 -17.299988,-7.048004 -25.200989,-12.795013c-15.388,-11.189987 -30.24501,-24.584991 -43.814011,-39.936996c-4.793991,-5.421997 -8.537003,-10.807999 -14.733994,-15.509995c1.153,-2.530998 4.470993,-1.179001 6.591995,-1.164001c6.527008,0.047997 14.447006,-0.510002 21.322998,0.389c15.998001,22.663002 38.797989,43.314995 61.263992,55.058006c4.286011,2.23999 8.792999,3.916992 13.184021,6.204987c4.918976,2.563004 10.811005,5.03801 14.343994,8.919006zm-6.59201,13.569c3.230988,2.123001 6.462982,5.046005 9.692993,4.266006c-3.22998,-0.876999 -6.461975,-3.994003 -9.692993,-4.266006z"/>
  </g>
 </g>
</svg>