<svg width="433" height="323" viewBox="0 0 433 323" fill="none" xmlns="http://www.w3.org/2000/svg">
<g clip-path="url(#clip0_3244_36844)">
<path d="M331.58 153.507C323.137 157.617 316.497 155.743 310.94 155.166C305.384 154.589 300.909 155.166 295.93 154.445C290.95 153.724 285.393 151.561 277.527 150.047C269.733 148.533 259.63 147.668 251.98 146.658C245.269 145.793 240.506 144.928 230.402 151.2C235.238 146.802 236.104 144.639 236.392 142.909C236.753 140.818 236.176 139.448 237.547 137.646C238.918 135.843 242.093 133.464 243.753 131.445C245.413 129.355 245.413 127.552 245.846 126.038C246.279 124.524 247.073 123.37 248.444 122.505C249.815 121.64 251.908 121.135 254.434 121.28C255.3 121.28 256.238 121.496 257.248 121.64C258.836 121.928 260.568 122.217 262.372 122.433C262.589 122.722 262.877 123.01 263.022 123.226C263.671 123.947 263.816 124.164 263.888 124.596C263.96 125.029 263.888 125.75 264.032 126.615C264.032 127.48 264.249 128.489 264.465 129.499C264.682 130.508 264.898 131.373 265.187 132.094C265.475 132.815 265.692 133.248 266.053 133.68C266.414 134.041 266.774 134.329 267.135 134.546C267.496 134.762 267.64 134.906 268.001 134.906C268.29 134.906 268.651 134.834 269.012 134.762C269.372 134.69 269.517 134.618 269.733 134.113C269.733 134.113 269.733 133.969 269.733 133.897C270.599 134.69 270.96 134.834 271.393 134.906C271.826 134.978 272.043 134.978 272.403 134.906C272.764 134.834 273.125 134.69 273.486 134.474C273.847 134.257 274.135 133.969 274.641 133.176C275.146 132.383 275.867 131.013 276.373 129.859C276.878 128.706 277.239 127.696 277.527 126.831C277.816 125.966 278.032 125.245 278.177 124.74C278.321 124.236 278.538 123.947 278.826 123.659C279.115 123.37 279.62 123.01 280.27 122.722C280.919 122.361 281.785 122.073 282.362 121.712C282.94 121.352 283.373 120.991 283.734 120.559C283.734 120.631 283.589 120.703 283.589 120.775C284.888 120.631 286.259 120.559 287.703 120.631C287.847 120.631 287.991 120.631 288.136 120.631C291.961 120.919 296.218 122.145 298.816 123.154C301.414 124.164 302.28 124.884 303.363 125.605C304.445 126.326 305.744 127.047 307.116 127.624C308.487 128.201 309.93 128.778 311.518 129.571C313.105 130.364 314.765 131.59 315.703 132.527C316.714 133.464 317.075 134.185 317.508 135.555C317.941 136.925 318.518 139.016 318.807 140.89C319.095 142.765 319.167 144.351 319.673 145.649C320.106 146.947 320.972 147.956 321.838 148.965C322.776 149.903 323.714 150.768 325.446 151.561C326.889 152.282 328.91 152.931 331.58 153.291V153.507Z" fill="#9F734C"/>
<path d="M266.702 86.5992C265.763 85.8061 264.97 85.3014 264.392 84.941C263.815 84.5805 263.382 84.2921 263.021 84.0037C262.66 83.7153 262.299 83.4269 261.866 83.1385C261.433 82.8501 260.856 82.5617 260.207 82.1291C259.629 81.6965 258.98 81.264 258.33 80.6872C257.681 80.1825 257.103 79.6057 256.526 79.0289C255.949 78.4521 255.371 77.8753 254.938 77.2985C254.433 76.7218 254 76.145 253.567 75.4961C253.134 74.8472 252.773 74.2704 252.413 73.5494C252.052 72.9006 251.691 72.1796 251.474 71.4586C251.258 70.7376 250.969 70.1608 250.825 69.4398C250.681 68.7189 250.608 67.8537 250.681 66.9164C251.691 66.5559 252.557 66.628 253.279 66.8443C254.072 67.0606 254.794 67.2769 255.444 67.5653C256.165 67.7816 256.815 68.07 257.609 68.3584C258.402 68.7189 259.341 69.1515 260.134 69.584C260.928 70.0166 261.65 70.4492 262.299 70.8818C262.949 71.3144 263.598 71.747 264.104 72.1796C264.609 72.5401 264.97 72.9006 265.331 73.261C265.691 73.6215 266.052 73.982 266.341 74.3425C266.629 74.703 266.918 74.9914 267.279 75.424C267.64 75.8566 268.073 76.2892 268.434 76.7939C268.794 77.2986 269.083 77.8032 269.444 78.4521C269.805 79.101 270.382 79.822 271.104 81.0477C272.114 81.0477 273.052 80.9035 273.918 80.9035C274.784 80.9035 275.578 81.0477 276.372 81.1919C277.166 81.336 277.96 81.5523 278.537 81.7686C279.114 81.9849 279.475 82.2012 279.908 82.4175C280.341 82.7059 280.774 82.9943 281.207 83.3548C281.64 83.7153 282.073 84.22 282.362 84.6526C282.65 85.0852 282.867 85.5177 283.083 86.0224C283.228 86.455 283.444 86.9597 283.516 87.4644C283.589 87.9691 283.516 88.4017 283.516 88.9064C283.516 89.3389 283.516 89.8436 283.3 90.2041C283.083 90.5646 282.867 90.853 282.506 91.1414C282.145 91.4298 281.712 91.7903 281.279 92.0787C280.846 92.3671 280.413 92.5834 279.908 92.8718C279.403 93.1602 278.898 93.4485 278.537 93.5927C278.176 93.809 277.96 93.9532 277.815 94.0974C277.671 94.3137 277.454 94.53 277.31 94.7463C277.166 94.9626 277.021 95.1068 276.733 95.251C276.444 95.3952 276.083 95.5394 275.722 95.7557C275.289 95.8999 274.856 96.0441 274.279 96.1162C273.702 96.1162 273.052 96.1162 272.547 96.1162C272.042 96.1162 271.609 95.972 271.104 95.8278C270.671 95.6836 270.094 95.3952 269.661 95.0347C269.228 94.7463 268.794 94.3858 268.506 94.0253C268.217 93.6648 267.928 93.3764 267.64 92.8718C267.423 92.3671 267.135 91.6461 266.99 91.1414C266.846 90.6367 266.846 90.132 266.846 89.411C266.846 88.6901 266.846 87.6807 266.774 86.5271L266.702 86.5992Z" fill="#A3A3A3"/>
<path opacity="0.5" d="M331.58 153.507C323.136 157.617 316.497 155.742 310.94 155.165C305.383 154.588 300.909 155.165 295.929 154.444C290.95 153.723 285.393 151.56 277.527 150.046C269.733 148.532 259.629 147.667 251.98 146.658C244.33 145.648 239.134 144.639 225.928 154.516C211.494 161.366 205.432 164.826 202.69 168.215C200.02 171.604 200.741 174.848 203.267 177.444C205.793 180.039 210.123 181.986 214.237 183.067C218.35 184.149 222.391 184.509 226.794 183.86C231.196 183.284 235.887 181.769 243.608 180.472C251.33 179.174 262.011 178.02 270.238 178.381C278.465 178.813 284.238 180.76 290.589 181.265C296.94 181.769 303.94 180.688 309.208 178.597C314.476 176.506 318.157 173.334 323.93 170.017C329.703 166.701 337.569 163.24 359.075 155.237C348.178 154.516 346.518 154.3 343.559 154.228C340.6 154.156 336.27 154.228 332.951 153.795C332.446 153.795 332.013 153.651 331.507 153.651L331.58 153.507Z" fill="#646464"/>
<path d="M257.176 121.639C257.32 120.846 257.681 119.764 258.403 118.395C258.547 118.467 258.619 118.611 258.763 118.755C259.196 119.116 259.629 119.548 260.423 120.413C261.001 120.99 261.722 121.783 262.3 122.504C260.423 122.288 258.763 121.999 257.176 121.711V121.639Z" fill="#A3A3A3"/>
<path d="M287.63 120.629C286.187 120.557 284.816 120.629 283.517 120.773C283.517 120.773 283.661 120.629 283.661 120.557C284.022 120.124 284.31 119.62 284.671 119.115C285.104 118.61 285.609 118.178 285.97 117.889C286.331 117.601 286.548 117.529 286.764 117.457C286.981 117.385 287.197 117.241 287.341 117.096C287.414 117.024 287.486 116.952 287.486 116.52C287.558 118.106 287.63 119.403 287.63 120.629Z" fill="#A3A3A3"/>
<path d="M290.372 86.5286C290.084 86.889 289.867 86.9611 289.723 87.0332C289.578 87.0332 289.362 87.0332 289.218 87.0332C289.001 87.0332 288.857 87.0332 288.64 87.0332C288.496 87.0332 288.352 86.889 288.207 86.8169C288.063 86.7448 287.991 86.6727 287.919 86.5286C287.919 86.4565 287.846 86.3844 287.846 86.2402C287.846 86.1681 287.846 86.096 287.846 86.0239C287.846 86.0239 287.846 85.9518 287.846 85.8797C287.846 85.8076 287.846 85.8797 287.991 85.8076C288.135 85.7355 288.135 85.8076 288.207 85.7355C288.279 85.7355 288.352 85.7355 288.424 85.6634C288.424 85.6634 288.568 85.6634 288.64 85.5913C288.712 85.5913 288.785 85.5192 288.857 85.5192C288.857 85.5192 288.929 85.5192 289.001 85.5192C289.001 85.5192 289.145 85.5192 289.218 85.5192C289.29 85.5192 289.434 85.5192 289.795 85.5192C289.795 85.5192 289.651 85.375 289.578 85.3029C289.218 85.0145 288.857 84.7261 288.424 84.5098C287.991 84.2935 287.63 84.1493 287.413 84.0772C287.197 84.0051 287.053 83.933 286.98 83.8609C286.908 83.7888 286.836 83.6446 286.62 83.4283C286.475 83.2841 286.331 83.1399 286.187 82.9236C284.599 81.698 283.733 81.1212 283.011 80.7607C282.217 80.3281 281.568 80.1118 280.991 79.8955C280.413 79.6792 279.908 79.535 279.259 79.4629C278.609 79.3908 277.887 79.3187 273.99 79.6071H273.846C273.413 79.7513 272.908 79.9676 272.547 80.1839C272.114 80.4002 271.753 80.6165 271.465 80.8328C271.32 80.9049 271.248 80.977 271.176 81.0491C272.186 81.0491 273.124 80.9049 273.99 80.9049C274.856 80.9049 275.65 81.0491 276.444 81.1933C277.238 81.3375 278.032 81.5538 278.609 81.7701C279.186 81.9864 279.547 82.2027 279.98 82.419C280.413 82.7073 280.846 82.9957 281.279 83.3562C281.712 83.7167 282.145 84.2214 282.434 84.654C282.723 85.0866 282.939 85.5192 283.156 86.0239C283.3 86.4564 283.516 86.9611 283.589 87.4658C283.661 87.9705 283.589 88.4031 283.589 88.9078C283.589 89.3404 283.589 89.8451 283.372 90.2056C283.156 90.566 282.939 90.8544 282.578 91.1428C282.217 91.4312 281.784 91.7917 281.351 92.0801C280.918 92.3685 280.485 92.5848 279.98 92.8732C279.475 93.1616 278.97 93.45 278.609 93.5942C278.248 93.8105 278.032 93.9547 277.887 94.0989C277.743 94.3152 277.527 94.5315 277.382 94.7477C277.238 94.964 277.094 95.1082 276.805 95.2524C276.516 95.3966 276.155 95.5408 275.795 95.7571C275.362 95.9013 274.929 96.0455 274.351 96.1176C273.774 96.1176 273.124 96.1176 272.619 96.1176C272.114 96.1176 271.681 95.9734 271.176 95.8292C270.743 95.685 270.166 95.3966 269.733 95.0361C269.3 94.7477 268.867 94.3873 268.578 94.0268C268.289 93.6663 268.001 93.3779 267.712 92.8732C267.495 92.3685 267.207 91.6475 267.062 91.1428C266.918 90.6382 266.918 90.1335 266.918 89.4125C266.918 88.6915 266.918 87.6821 266.846 86.5286C266.846 86.6006 266.774 86.7448 266.702 86.8169C266.557 87.2495 266.413 87.9705 266.341 88.5473C266.269 89.1962 266.269 89.773 266.269 90.3498C266.269 90.9265 266.269 91.5754 266.413 92.0801C266.485 92.6569 266.702 93.1616 266.918 93.5942C267.135 94.0268 267.351 94.5315 267.568 94.8198C267.784 95.1803 268.001 95.3966 268.145 95.5408C268.361 95.7571 268.506 95.9013 268.794 96.1176C269.083 96.3339 269.372 96.5502 269.805 96.7665C270.238 97.0549 270.815 97.3433 271.465 97.6317C272.114 97.9201 272.764 98.2085 273.485 98.3527C274.207 98.569 275.001 98.7132 275.867 98.7852C276.733 98.8573 277.599 98.9294 278.465 98.9294C279.259 98.9294 280.052 98.8573 280.846 98.7852C281.64 98.7852 282.578 98.7131 283.228 98.569C283.877 98.4248 284.31 98.2806 284.96 97.7759C285.537 97.2712 286.331 96.406 286.98 95.6129C287.702 94.8198 288.279 94.0268 288.785 93.45C289.29 92.8011 289.651 92.2964 289.867 91.8638C290.156 91.4312 290.3 90.9986 290.444 90.494C290.589 89.9893 290.589 89.4125 290.661 88.8357C290.661 88.2589 290.661 87.6821 290.661 87.1774C290.661 86.8169 290.661 86.5285 290.517 86.2402L290.372 86.5286Z" fill="#DDDDDD"/>
<path d="M289.795 85.5195C289.362 85.5195 289.29 85.5195 289.218 85.5195C289.146 85.5195 289.073 85.5195 289.001 85.5195C289.001 85.5195 289.001 85.5195 288.857 85.5195C288.857 85.5195 288.713 85.5195 288.64 85.5916C288.568 85.5916 288.496 85.5916 288.424 85.6637C288.424 85.6637 288.28 85.6637 288.207 85.7358C288.135 85.7358 288.063 85.7358 287.991 85.8079C287.919 85.88 287.919 85.8079 287.847 85.88C287.774 85.9521 287.847 85.88 287.847 86.0242C287.847 86.0242 287.847 86.1684 287.847 86.2405C287.847 86.3126 287.847 86.3847 287.919 86.5289C287.919 86.601 288.063 86.6731 288.207 86.8173C288.352 86.8894 288.496 86.9615 288.64 87.0336C288.785 87.0336 289.001 87.0336 289.218 87.0336C289.434 87.0336 289.579 87.0336 289.723 87.0336C289.867 87.0336 290.084 86.8894 290.372 86.5289C290.372 86.4568 290.372 86.3847 290.3 86.3126C290.156 86.0242 290.012 85.8079 289.795 85.5916V85.5195Z" fill="#FFD7D7"/>
<path d="M265.98 109.168C267.568 110.682 268.434 111.115 269.011 111.547C269.588 111.98 270.021 112.34 270.382 112.701C270.743 113.061 271.032 113.494 271.32 113.854C271.609 114.215 271.753 114.575 271.97 115.008C272.186 115.441 272.331 116.089 272.475 116.666C272.619 117.243 272.764 117.82 272.908 118.252C273.052 118.685 273.197 118.973 273.341 119.118C273.485 119.262 273.558 119.334 273.63 119.334C273.702 119.334 273.846 119.334 273.918 119.19C273.991 119.045 273.918 118.829 273.918 118.613C273.918 118.397 273.918 118.252 274.207 117.892C274.496 117.531 274.784 116.955 275.29 116.234C275.795 115.441 276.516 114.503 277.094 113.782C277.671 113.061 278.032 112.629 278.465 112.124C278.898 111.547 279.475 110.898 279.908 110.322C280.341 109.745 280.702 109.312 281.063 108.952C281.424 108.591 281.785 108.303 282.218 108.086C282.651 107.798 283.084 107.582 283.444 107.366C283.805 107.149 284.166 107.005 284.455 106.861C284.743 106.717 284.96 106.5 285.176 106.284C285.393 106.068 285.609 105.707 285.754 105.275C285.898 104.842 285.97 104.265 285.97 103.761C285.97 103.184 285.97 102.679 285.97 102.102C285.97 101.526 285.97 101.021 285.898 100.516C285.898 100.011 285.754 99.5789 285.537 99.0742C285.393 98.7858 285.321 98.4974 284.96 97.8485C284.888 97.9206 284.816 97.9927 284.743 98.0648C284.166 98.5695 283.733 98.7858 283.011 98.8579C282.29 98.93 281.424 99.0021 280.63 99.0742C279.836 99.0742 279.042 99.2184 278.248 99.2184C277.455 99.2184 276.516 99.2184 275.65 99.0742C274.784 99.0021 273.991 98.8579 273.269 98.6416C272.547 98.4253 271.826 98.209 271.248 97.9206C270.599 97.6323 270.021 97.2718 269.588 97.0555C269.3 96.8392 269.011 96.695 268.795 96.5508C268.217 96.9834 267.784 97.5602 267.135 98.2811C266.269 99.3626 265.042 100.805 263.671 103.04C263.815 102.895 263.671 103.04 263.671 103.256C263.671 103.472 263.599 103.616 263.671 103.833C263.671 104.049 263.671 104.409 263.671 104.77C263.671 105.13 263.671 105.491 263.815 105.851C263.959 106.212 264.104 106.572 264.392 107.005C264.681 107.438 264.97 108.014 265.258 108.447C265.475 108.735 265.691 108.952 265.764 109.168H265.98Z" fill="#EFEFEF"/>
<path d="M253.712 70.3062C253.495 70.5225 253.856 71.0993 254.217 71.8203C254.578 72.5413 255.083 73.2623 255.516 73.9111C255.949 74.56 256.31 75.0647 256.743 75.5694C257.176 76.0741 257.609 76.5788 257.97 77.0835C258.331 77.5881 258.764 78.0207 259.197 78.4533C259.63 78.958 260.207 79.4627 260.712 79.8953C261.217 80.3279 261.722 80.6884 262.372 81.1931C263.021 81.6977 263.815 82.2745 264.465 82.7071C265.114 83.1397 265.547 83.5002 266.125 83.8607C266.702 84.2212 267.207 84.5817 267.64 84.798C268.001 85.0143 268.217 85.0864 268.29 85.0864C268.434 85.0864 268.434 85.0864 268.434 84.8701C268.434 84.6538 268.217 84.3654 267.929 83.7165C267.64 83.0676 267.207 82.2024 266.558 81.0489C265.908 79.9674 265.042 78.5975 264.176 77.516C263.31 76.4346 262.588 75.5694 261.722 74.7042C260.929 73.9111 260.135 73.1901 259.341 72.6134C258.619 72.0366 257.97 71.5319 257.32 71.1714C256.743 70.8109 256.166 70.6667 255.444 70.4504C254.722 70.2341 253.928 70.0178 253.712 70.2341V70.3062Z" fill="#FFD7D7"/>
<path d="M273.919 79.606C272.981 77.8035 272.62 76.7942 272.331 75.929C272.042 75.0638 271.898 74.3428 271.826 73.6939C271.754 73.045 271.682 72.4683 271.682 71.8194C271.682 71.1705 271.682 70.5937 271.682 69.7285C271.682 68.8633 271.682 67.9261 271.826 66.9888C271.826 66.1236 271.898 65.3305 272.042 64.6096C272.187 63.9607 272.331 63.3839 272.548 62.8071C272.764 62.2303 272.908 61.7256 273.125 61.1488C273.341 60.5721 273.63 60.0674 273.919 59.5627C274.207 59.058 274.568 58.4812 274.785 58.1207C275.073 57.7602 275.218 57.4718 275.434 57.1834C275.651 56.895 275.867 56.6787 276.012 56.4625C276.228 56.2462 276.372 56.1741 276.517 56.102C276.661 56.0299 276.878 55.9578 277.022 56.0299C277.166 56.0299 277.311 56.1741 277.455 56.3183C277.599 56.4625 277.671 56.6066 277.744 57.0392C277.888 57.4718 278.032 58.1928 278.177 59.1301C278.393 60.0674 278.61 61.0767 278.826 62.2303C279.043 63.3839 279.331 64.5375 279.476 65.5468C279.692 66.4841 279.836 67.2051 279.909 67.7819C279.981 68.3587 280.053 68.6471 280.053 69.368C280.053 70.089 280.053 71.1705 280.053 72.1078C280.053 72.9729 279.981 73.6218 279.909 74.5591C279.836 75.4964 279.692 76.65 279.331 79.1734C279.548 79.1734 279.692 79.1734 279.764 79.1734C279.909 79.1734 280.053 79.1734 280.269 79.2455C280.486 79.3176 280.702 79.3176 280.991 79.3897C281.28 79.4618 281.568 79.606 281.857 79.6781C282.218 79.8223 282.651 79.9665 282.94 80.1107C283.228 80.327 283.517 80.4712 283.806 80.7596C284.094 81.0479 284.455 81.2642 284.744 81.5526C285.032 81.841 285.321 82.1294 285.61 82.4178C285.754 82.562 285.826 82.7062 285.971 82.7783C284.383 81.5526 283.517 80.9758 282.795 80.6154C282.001 80.1828 281.352 79.9665 280.775 79.7502C280.197 79.5339 279.692 79.3897 279.043 79.3176C278.393 79.2455 277.671 79.1734 273.774 79.4618L273.919 79.606Z" fill="#EFEFEF"/>
<path d="M276.949 114.071C275.722 116.594 275.434 117.531 275.289 118.18C275.145 118.829 275.073 119.262 275.073 119.694C275.073 120.127 275.073 120.488 275.145 120.776C275.145 121.064 275.145 121.208 275.073 121.353C275.001 121.497 274.784 121.641 274.351 122.218C273.918 122.723 273.124 123.66 272.619 124.453C272.114 125.174 271.825 125.751 271.537 126.4C271.248 127.121 271.032 127.914 270.166 129.716C270.166 130.437 270.166 131.086 270.166 131.735C270.166 132.6 269.949 133.465 269.805 133.97C270.671 134.763 271.032 134.907 271.465 134.979C271.825 135.051 272.114 135.051 272.475 134.979C272.836 134.907 273.197 134.763 273.557 134.547C273.918 134.33 274.207 134.042 274.712 133.249C275.217 132.456 275.939 131.086 276.444 129.932C276.949 128.779 277.31 127.769 277.599 126.904C277.887 126.039 278.104 125.318 278.248 124.813C278.393 124.309 278.609 124.02 278.898 123.732C279.186 123.444 279.692 123.083 280.341 122.795C280.991 122.434 281.857 122.146 282.434 121.785C283.011 121.425 283.444 121.064 283.805 120.632C284.166 120.199 284.455 119.694 284.815 119.19C285.248 118.685 285.754 118.252 286.114 117.964C286.475 117.676 286.692 117.604 286.908 117.531C287.125 117.459 287.341 117.315 287.486 117.171C287.63 117.027 287.702 116.955 287.558 115.152C287.413 113.35 287.053 109.889 286.259 103.328C286.259 103.544 286.259 103.689 286.259 103.905C286.259 104.482 286.187 104.986 286.042 105.419C285.898 105.852 285.681 106.212 285.465 106.428C285.248 106.645 285.032 106.861 284.743 107.005C284.455 107.149 284.094 107.294 283.733 107.51C283.372 107.726 282.939 107.942 282.506 108.231C282.073 108.519 281.712 108.735 281.351 109.096C280.991 109.456 280.63 109.889 280.197 110.466C279.764 111.043 279.186 111.692 278.753 112.268C278.32 112.845 277.96 113.278 277.382 113.927C277.382 113.927 277.31 114.071 277.238 114.143L276.949 114.071Z" fill="#DDDDDD"/>
<path d="M263.67 103.182C263.382 103.614 262.66 104.624 262.083 105.633C261.505 106.643 261 107.652 260.495 108.661C260.062 109.671 259.629 110.68 259.196 111.762C258.763 112.843 258.474 113.925 258.258 114.862C258.041 115.799 257.753 116.52 257.681 117.025C257.608 117.529 257.681 117.602 257.825 117.89C258.041 118.106 258.33 118.467 258.763 118.827C259.196 119.188 259.629 119.62 260.423 120.485C261.217 121.351 262.299 122.576 262.949 123.297C263.598 124.018 263.743 124.235 263.815 124.667C263.887 125.1 263.815 125.821 263.959 126.686C263.959 127.551 264.176 128.56 264.392 129.57C264.609 130.579 264.825 131.444 265.114 132.165C265.402 132.886 265.619 133.319 265.98 133.752C266.341 134.112 266.701 134.4 267.062 134.617C267.423 134.833 267.567 134.977 267.928 134.977C268.217 134.977 268.578 134.905 268.939 134.833C269.227 134.761 269.444 134.689 269.66 134.184C269.877 133.679 270.021 132.742 270.093 131.733C270.093 130.723 270.093 129.642 270.093 128.56C270.093 127.479 269.949 126.253 269.805 125.172C269.66 124.09 269.444 123.225 269.227 122.576C269.011 122 268.794 121.639 268.506 120.197C268.217 118.683 267.784 116.015 267.423 114.213C266.99 112.338 266.629 111.329 266.413 110.68C266.196 110.031 266.196 109.743 266.124 109.454C266.052 109.166 265.835 109.022 265.547 108.589C265.258 108.229 264.969 107.652 264.681 107.147C264.392 106.715 264.248 106.354 264.103 105.994C263.959 105.633 263.959 105.273 263.959 104.912C263.959 104.552 263.959 104.191 263.959 103.975C263.959 103.759 263.959 103.614 263.959 103.398C263.959 103.182 264.103 102.966 263.815 103.398L263.67 103.182Z" fill="#DDDDDD"/>
<path d="M148.735 83.4893C147.436 84.8592 146.137 86.4453 144.694 89.0408C142.89 92.4295 141.013 97.6205 139.209 102.235C137.405 106.849 135.673 110.887 134.157 116.654C132.642 122.422 131.415 129.993 130.333 136.698C130.044 138.717 129.683 140.663 129.467 142.538C126.219 137.996 120.734 138.5 113.013 137.996C112.147 134.967 111.281 132.156 110.559 129.776C105.796 113.554 105.724 112.833 105.291 112.112C104.858 111.391 104.136 110.67 103.27 110.382C102.404 110.094 101.322 110.238 100.528 110.526C99.6618 110.815 99.0123 111.247 98.9402 112.401C98.868 113.554 99.301 115.573 104.713 134.823C105.002 135.977 105.363 137.13 105.724 138.356C105.724 138.356 105.652 138.356 105.579 138.284C104.858 137.779 104.136 137.491 103.559 137.13C103.198 136.914 102.837 136.626 101.971 135.76C101.538 135.328 100.961 134.679 100.167 133.814C97.7855 131.218 93.4555 126.388 90.8575 123.287C88.2595 120.187 87.3213 118.817 85.878 117.303C84.4347 115.789 82.414 114.059 80.9707 112.545C79.5273 111.031 78.5892 109.589 78.0118 108.652C77.4345 107.642 77.218 107.065 77.0737 106.417C76.9293 105.696 76.8572 104.902 77.2902 103.749C77.7232 102.595 78.5892 101.153 79.5273 99.9998C80.4655 98.8462 81.4037 97.9089 82.2697 97.1158C83.1357 96.3228 83.7852 95.6739 85.0842 95.1692C86.3832 94.7366 88.1873 94.4482 90.1358 94.3761C92.0122 94.2319 94.0328 94.304 95.2597 94.5203C96.5587 94.7366 97.136 95.1692 97.8577 95.6018C98.5793 96.0344 99.4453 96.3228 100.383 96.3949C101.322 96.3949 102.332 96.2507 103.487 95.5297C104.641 94.8808 105.796 93.7272 107.095 92.5016C108.322 91.2759 109.621 89.9781 111.425 89.1129C111.425 89.1129 111.497 89.1129 111.569 89.1129C111.425 90.4828 111.353 91.5643 111.786 92.2853C112.291 93.0783 113.373 93.3667 114.528 93.5109C115.683 93.6551 116.91 93.6551 117.992 93.5109C119.075 93.2946 119.941 92.9342 120.59 91.8527C121.24 90.7712 121.6 89.1129 122.033 87.0942C122.033 86.8058 122.178 86.5895 122.178 86.3011C127.085 87.3105 132.425 86.229 136.9 84.7871C141.085 83.4893 144.549 81.9031 148.374 78.875C148.374 80.2449 148.23 82.0473 148.807 83.6335L148.735 83.4893Z" fill="#5B7BAA"/>
<path opacity="0.5" d="M119.652 257.103C118.642 257.751 118.065 258.04 117.415 258.328C116.188 258.905 114.745 259.338 113.23 259.842C111.714 260.347 110.127 260.852 108.106 260.563C106.085 260.275 103.559 259.265 101.466 257.607C99.3737 255.949 97.4973 253.714 95.6932 251.695C93.889 249.676 92.0127 247.874 90.7137 245.927C89.4147 243.981 88.6208 242.034 88.0435 240.52C87.4662 239.006 87.1053 237.924 87.3218 236.194C87.394 235.185 87.6827 233.959 87.9713 232.733C88.1878 231.796 88.4043 230.787 88.5487 229.849C88.9817 227.686 89.1982 225.668 89.126 222.856C89.126 220.116 88.7652 216.583 88.4043 212.762C88.0435 209.013 87.6105 204.976 87.394 200.578C87.2497 197.045 87.2497 193.223 87.2497 189.33C80.1052 191.493 72.5998 194.017 64.445 196.901C44.3827 204.038 20.7842 213.123 9.38183 222.279C-2.09267 231.508 -1.371 240.808 4.258 250.469C9.887 260.059 20.4955 270.008 32.6195 281.183C44.6713 292.431 58.2387 304.976 73.3937 312.618C88.5487 320.261 105.291 323.072 122.106 323.144C138.921 323.144 155.808 320.549 168.365 315.79C180.922 311.032 189.149 304.183 195.86 296.468C202.572 288.754 207.696 280.102 210.15 270.513C212.603 260.996 212.314 250.542 208.778 238.862C205.242 227.254 198.386 214.42 190.232 205.48C182.582 197.117 173.705 192.142 162.375 188.537C161.798 190.267 161.148 192.07 160.571 193.944C158.839 199.208 157.107 205.48 155.952 209.878C154.798 214.276 154.148 216.728 153.859 218.746C153.715 219.828 153.715 220.765 153.859 221.63C154.004 222.351 154.292 222.928 154.798 223.577C155.88 224.947 157.901 226.172 159.561 227.182C161.221 228.191 162.736 228.984 163.674 229.849C164.612 230.787 165.118 231.796 165.118 232.95C165.118 234.103 164.54 235.257 163.746 236.194C162.952 237.131 161.942 237.708 160.282 237.924C158.622 238.141 156.241 237.996 153.787 237.276C151.334 236.555 148.808 235.185 146.426 233.815C144.622 232.805 142.962 231.724 140.003 230.498C140.436 232.301 140.797 233.959 141.086 235.401C150.179 239.438 153.499 240.304 155.592 240.953C157.684 241.601 158.55 241.962 159.128 244.269C159.633 246.504 159.777 250.686 159.633 254.219C159.488 257.751 159.055 260.78 158.911 263.808C158.911 264.889 158.911 265.971 158.911 267.196C158.911 267.196 158.911 267.196 158.983 267.196C161.004 267.268 163.169 267.485 164.468 267.845C165.767 268.206 166.272 268.782 166.056 269.503C165.839 270.224 165.118 271.162 162.592 273.18C160.066 275.199 155.88 278.155 152.128 280.318C148.303 282.481 144.911 283.851 141.88 284.644C138.921 285.437 136.395 285.726 134.447 285.509C132.426 285.293 130.983 284.572 130.55 283.563C130.117 282.553 130.838 281.183 131.632 280.462C131.632 280.462 131.776 280.318 131.849 280.318C131.416 279.669 130.91 278.876 130.405 278.011C128.673 274.983 126.292 270.224 124.271 266.547C122.25 262.87 120.591 260.131 119.797 257.319C119.797 257.319 119.797 257.247 119.797 257.175L119.652 257.103Z" fill="#646464"/>
<path opacity="0.5" d="M129.972 195.17C130.045 195.458 130.117 195.746 130.261 196.107C131.777 201.082 132.931 205.119 133.942 208.436C136.179 200.433 135.818 195.53 136.034 191.276C136.251 186.085 137.261 181.976 137.766 177.938C138.199 174.982 138.344 172.026 137.983 165.609C136.395 170.079 135.746 171.882 135.241 173.54C134.952 174.477 134.735 175.415 134.519 176.28C134.375 177.073 134.23 177.938 134.086 178.803C133.797 180.678 133.581 182.841 133.292 184.355C133.003 185.797 132.787 186.59 132.426 187.671C132.137 188.753 131.777 190.123 131.488 191.204C131.199 192.286 130.911 193.151 130.55 193.872C130.333 194.304 130.117 194.737 129.828 195.17H129.972Z" fill="#646464"/>
<path opacity="0.5" d="M129.467 142.538C128.817 146.792 128.312 150.469 127.807 153.281C127.157 157.318 126.58 159.481 126.003 162.87C125.57 165.321 125.137 168.421 124.704 171.594C124.559 172.891 124.343 174.261 124.199 175.559C122.178 168.638 120.013 161.356 117.92 154.434C118.137 154.146 118.209 153.569 118.281 152.92C118.281 152.271 118.281 151.622 118.137 151.046C117.992 150.469 117.776 149.892 117.415 149.532C117.054 149.171 116.693 148.955 116.621 148.522C116.621 148.09 116.838 147.441 117.054 146.936C117.271 146.431 117.343 145.927 117.415 145.35C117.487 144.773 117.631 144.052 117.631 143.331C117.631 142.61 117.415 141.817 117.126 141.168C116.838 140.519 116.477 140.087 115.972 139.87C115.466 139.654 114.961 139.726 114.528 139.798C114.167 139.87 113.879 140.015 113.734 140.375C113.518 139.51 113.229 138.717 113.013 137.924C120.662 138.429 126.219 137.924 129.467 142.466V142.538Z" fill="#646464"/>
<path opacity="0.5" d="M113.663 190.627C111.858 200.793 111.786 205.407 111.353 209.372C110.848 213.843 109.766 217.447 109.188 221.557C108.611 225.667 108.539 230.281 108.611 233.525C108.611 234.391 108.611 235.184 108.755 235.905C108.9 237.851 109.26 239.221 110.126 240.447C111.209 242.177 113.157 243.547 115.178 245.349C116.477 246.503 117.848 247.801 119.364 249.315C119.797 247.152 120.735 245.782 121.89 244.556C123.116 243.331 124.632 242.321 133.292 239.077C132.859 237.491 132.426 235.616 132.065 233.742C131.849 232.444 131.632 231.074 130.333 225.955C129.467 222.639 128.168 217.664 126.075 210.021C124.848 205.695 123.405 200.504 121.817 194.881C120.013 194.304 119.219 194.088 118.498 193.871C117.776 193.655 117.199 193.511 116.766 193.222C116.333 192.934 115.828 192.718 115.322 192.357C114.817 191.997 114.24 191.492 113.807 190.843C113.807 190.843 113.735 190.699 113.663 190.627Z" fill="#646464"/>
<path d="M82.486 130.426C83.0634 139.51 83.352 144.124 83.9294 148.378C84.651 153.281 85.8779 157.751 86.5995 161.572C87.3212 165.393 87.5377 168.494 87.5377 172.531C87.5377 176.569 87.3934 181.471 87.249 186.446C87.1769 191.349 87.1047 196.251 87.249 200.722C87.4655 205.192 87.8985 209.157 88.2594 212.906C88.6202 216.655 88.9089 220.188 88.981 223C88.981 225.74 88.8367 227.758 88.4037 229.993C88.1872 230.931 87.9707 231.868 87.8264 232.877C90.713 234.824 92.7337 235.545 95.1152 236.05C98.507 236.771 102.621 237.059 108.683 236.05C108.683 235.329 108.61 234.536 108.538 233.67C108.466 230.354 108.538 225.74 109.116 221.702C109.693 217.593 110.775 213.988 111.281 209.518C111.714 205.552 111.786 200.938 113.59 190.772C113.229 190.195 113.085 189.546 112.868 188.753C112.652 187.888 112.507 186.951 112.435 185.941C112.363 184.932 112.58 183.778 113.013 182.625C113.373 181.543 114.023 180.462 117.343 179.453C115.105 171.594 112.796 163.447 110.631 155.876C110.559 156.021 110.415 156.093 110.27 156.165C109.693 156.453 108.683 156.309 107.672 156.165C106.662 156.021 105.724 155.804 104.713 155.3C103.703 154.723 102.693 153.786 101.177 152.199C99.6617 150.613 97.5689 148.306 93.8884 141.529C87.9707 138.284 86.2387 135.545 83.8572 132.589C83.352 132.012 82.8469 131.363 82.2695 130.714" fill="#5B7BAA"/>
<path d="M119.364 249.315C117.849 247.801 116.477 246.503 115.178 245.35C113.158 243.547 111.209 242.177 110.127 240.447C109.333 239.221 108.972 237.851 108.756 235.905C102.694 236.842 98.58 236.626 95.1882 235.905C92.8067 235.4 90.786 234.679 87.8993 232.732C87.6107 234.03 87.3942 235.184 87.2498 236.193C87.1055 237.924 87.4663 239.005 87.9715 240.519C88.5488 242.033 89.3427 244.052 90.6417 245.926C91.9407 247.801 93.817 249.676 95.6212 251.694C97.4253 253.713 99.3017 255.948 101.395 257.606C103.487 259.265 106.013 260.274 108.034 260.562C110.055 260.851 111.642 260.274 113.158 259.841C114.673 259.337 116.117 258.904 117.343 258.327C117.921 258.039 118.498 257.751 119.581 257.102C118.787 254.29 118.859 251.406 119.292 249.243L119.364 249.315Z" fill="#5CAD86"/>
<path d="M135.89 110.959C130.045 110.382 125.715 110.814 122.467 111.103C118.859 111.391 116.622 111.463 114.529 111.535C112.436 111.607 110.343 111.535 109.188 110.598C107.962 109.661 107.673 107.714 107.817 105.623C107.962 103.532 108.683 101.297 109.621 99.5671C110.56 97.8367 111.859 96.539 114.024 95.9622C116.189 95.3854 119.147 95.6017 122.106 95.5296C125.065 95.5296 128.096 95.2412 131.344 95.097C133.942 95.0249 136.612 94.9528 142.096 94.8086C141.158 97.1878 140.148 99.7834 139.21 102.235C138.055 105.191 136.973 107.858 135.89 110.886V110.959Z" fill="#3A4960"/>
<path d="M140.003 230.569C142.962 231.867 144.694 232.876 146.426 233.886C148.807 235.256 151.333 236.553 153.787 237.346C156.24 238.067 158.622 238.212 160.282 237.995C161.942 237.779 163.024 237.13 163.746 236.265C164.467 235.4 165.117 234.174 165.117 233.021C165.117 231.867 164.684 230.858 163.674 229.92C162.735 228.983 161.292 228.262 159.56 227.253C157.828 226.243 155.807 225.018 154.797 223.648C154.292 223.071 154.003 222.422 153.859 221.701C148.952 222.278 143.034 222.35 137.838 221.99C137.982 222.566 138.127 223.143 138.271 223.72C138.271 223.936 138.343 224.08 138.415 224.297C138.993 226.532 139.498 228.623 139.931 230.569" fill="#5CAD86"/>
<path d="M137.983 165.611C138.344 172.027 138.199 174.911 137.766 177.939C137.189 181.905 136.251 186.014 136.034 191.278C135.89 195.531 136.179 200.434 133.941 208.437C135.962 215.358 137.045 219.107 137.911 221.991C143.034 222.352 148.952 222.28 153.932 221.703C153.715 220.838 153.787 219.901 153.932 218.819C154.148 216.872 154.798 214.349 156.024 209.951C157.179 205.553 158.911 199.28 160.643 194.017C162.375 188.754 164.035 184.5 165.262 179.886C166.489 175.272 167.138 170.441 167.571 165.899C168.004 161.357 168.293 157.031 167.715 152.921C167.138 148.812 165.767 144.846 164.035 140.953C162.303 137.06 160.138 133.238 158.262 129.634C156.89 126.966 155.591 124.442 152.633 120.693C151.045 126.605 148.663 134.104 146.354 141.386C143.467 150.398 140.509 159.05 138.632 164.313C138.488 164.745 138.344 165.106 138.199 165.466L137.983 165.611Z" fill="#5B7BAA"/>
<path d="M122.106 86.1579C122.467 84.3555 122.828 82.3367 122.756 80.0296C122.683 77.3619 121.962 74.3338 121.457 71.3778C120.951 68.4218 120.663 65.4657 119.941 62.5097C119.219 59.5537 118.065 56.4535 116.766 53.7858C115.467 51.0461 113.951 48.739 111.642 46.4318C110.199 44.9898 108.467 43.62 106.157 41.8896C109.044 40.5198 111.714 39.3662 114.529 38.1405C117.343 36.9869 120.158 35.8334 122.178 35.1124C123.838 34.5356 124.921 34.2472 126.653 33.8867C127.086 34.8961 127.879 35.8334 129.395 36.9148C129.395 37.1311 129.395 37.3474 129.395 37.5637C129.395 38.4289 129.684 39.5104 129.972 40.736C130.261 41.8896 130.477 43.1153 130.838 44.341C131.127 45.5666 131.488 46.7202 131.704 47.8017C131.921 48.8831 132.065 49.8925 132.57 50.7577C133.003 51.6229 133.797 52.416 134.374 53.0648C134.952 53.7137 135.385 54.2184 136.251 55.0836C137.117 55.9488 138.416 57.1744 139.643 58.1117C140.797 59.049 141.88 59.6979 143.323 60.2747C144.766 60.8514 146.643 61.3561 148.158 61.3561C148.375 61.3561 148.519 61.3561 148.663 61.3561C148.663 70.08 148.014 73.036 147.942 74.5501C147.87 76.0642 148.23 76.1363 148.303 77.3619C148.303 77.6503 148.303 78.0829 148.303 78.5155C144.478 81.5436 141.014 83.1298 136.828 84.4276C132.354 85.7974 127.013 86.951 122.106 85.9416" fill="#65935A"/>
<path d="M130.477 283.562C130.91 284.572 132.354 285.293 134.374 285.509C136.395 285.725 138.849 285.509 141.808 284.644C144.766 283.851 148.23 282.481 152.055 280.318C155.88 278.155 160.066 275.127 162.519 273.18C164.973 271.233 165.839 270.224 165.983 269.503C166.128 268.782 165.695 268.205 164.396 267.845C163.097 267.484 160.932 267.34 158.911 267.196C156.89 267.124 154.942 267.124 152.849 267.556C150.756 267.989 148.519 268.782 146.787 269.936C145.055 271.017 143.828 272.459 142.601 273.757C141.375 275.055 140.076 276.208 138.704 277.145C137.261 278.083 135.746 278.876 134.519 279.308C133.292 279.741 132.426 279.813 131.632 280.534C130.838 281.255 130.189 282.625 130.55 283.634L130.477 283.562Z" fill="#9F734C"/>
<path d="M131.776 280.318C132.498 279.741 133.364 279.669 134.446 279.308C135.673 278.876 137.188 278.083 138.632 277.145C140.075 276.208 141.302 275.054 142.529 273.757C143.756 272.459 144.982 271.089 146.714 269.935C148.446 268.854 150.684 267.989 152.776 267.556C154.869 267.124 156.746 267.124 158.766 267.196C158.766 265.97 158.766 264.889 158.766 263.807C158.911 260.779 159.344 257.823 159.488 254.218C159.632 250.685 159.488 246.504 158.983 244.268C158.478 242.033 157.539 241.601 155.447 240.952C153.354 240.303 150.034 239.438 140.941 235.4C140.941 235.617 141.013 235.761 141.085 235.905C141.735 238.861 142.168 240.591 142.024 242.033C141.879 243.475 141.23 244.557 140.436 245.206C139.642 245.855 138.56 245.999 137.621 245.71C136.683 245.422 135.817 244.773 135.168 243.764C134.518 242.754 134.013 241.529 133.508 239.798C133.436 239.51 133.364 239.294 133.291 239.005C124.631 242.25 123.116 243.259 121.889 244.485C120.662 245.71 119.796 247.08 119.363 249.243C118.93 251.406 118.858 254.434 119.652 257.246C120.446 260.058 122.106 262.726 124.126 266.475C126.147 270.224 128.528 274.91 130.26 277.938C130.766 278.876 131.271 279.597 131.704 280.245L131.776 280.318Z" fill="#EFC926"/>
<path d="M106.158 41.8887C108.467 43.5469 110.199 44.9889 111.642 46.4309C113.952 48.738 115.467 51.1172 116.766 53.7849C118.065 56.5246 119.22 59.5527 119.941 62.5088C120.663 65.4648 120.952 68.4208 121.457 71.3768C121.962 74.3329 122.684 77.361 122.756 80.0286C122.828 82.6963 122.323 84.9313 121.89 86.9501C121.457 88.9688 121.096 90.6271 120.447 91.7085C119.797 92.79 118.931 93.1505 117.849 93.3668C116.766 93.5831 115.539 93.5831 114.385 93.3668C113.23 93.2226 112.147 92.8621 111.642 92.1411C111.137 91.348 111.281 90.1945 111.498 88.6083C111.714 87.0222 111.931 85.0034 112.147 82.6242C112.364 80.2449 112.653 77.5052 112.508 74.3329C112.364 71.1605 111.859 67.6277 110.993 64.0949C110.127 60.5621 108.9 57.1014 96.415 47.5123C96.848 47.1518 97.281 46.8634 97.714 46.503C100.168 44.7005 103.199 43.2585 106.085 41.8887H106.158Z" fill="#3A4960"/>
<path d="M94.1053 141.241C97.7858 148.09 99.8064 150.325 101.394 151.911C102.91 153.498 103.992 154.507 104.93 155.012C105.941 155.588 106.879 155.733 107.889 155.877C108.899 156.021 109.91 156.237 110.487 155.877C111.064 155.588 111.137 154.94 111.064 154.291C111.064 153.642 110.776 153.065 110.415 152.488C110.054 151.911 109.693 151.19 109.765 150.902C109.91 150.614 110.559 150.83 111.209 151.19C111.786 151.623 112.291 152.2 112.941 152.704C113.59 153.137 114.384 153.425 115.034 153.714C115.683 154.002 116.26 154.291 116.693 154.435C117.126 154.579 117.559 154.651 117.776 154.435C117.992 154.146 118.137 153.498 118.137 152.921C118.137 152.272 118.137 151.623 117.992 151.046C117.848 150.469 117.632 149.893 117.271 149.532C116.91 149.172 116.549 148.955 116.477 148.523C116.477 148.09 116.693 147.441 116.91 146.937C117.126 146.36 117.199 145.927 117.271 145.35C117.343 144.774 117.487 144.053 117.487 143.332C117.487 142.611 117.271 141.818 116.982 141.169C116.693 140.52 116.333 140.087 115.827 139.871C115.322 139.655 114.817 139.727 114.384 139.799C114.023 139.871 113.735 140.015 113.59 140.376C114.384 142.971 115.178 145.783 116.044 148.667C115.683 148.306 114.889 147.658 113.662 146.937C113.446 146.865 113.229 146.72 112.869 146.504C112.291 146.144 111.642 145.711 111.064 145.134C110.198 144.269 109.621 143.332 109.116 142.394C108.611 141.457 108.033 140.736 107.456 140.015C106.879 139.294 106.157 138.645 105.508 138.141C104.786 137.636 104.064 137.348 103.487 136.987C103.126 136.771 102.765 136.482 101.899 135.617C100.672 138.285 100.167 138.934 99.5178 139.366C98.7239 139.871 97.7136 140.159 96.4868 140.448C95.8373 140.664 95.1156 140.808 93.9609 141.169L94.1053 141.241Z" fill="#E0DBAD"/>
<path d="M111.569 88.97C111.569 88.97 111.497 88.97 111.425 88.97C109.621 89.8352 108.322 91.1329 107.095 92.3586C105.868 93.5843 104.641 94.6657 103.487 95.3867C102.332 96.0356 101.322 96.2519 100.384 96.2519C99.4454 96.2519 98.5794 95.8193 97.8577 95.4588C97.136 95.0983 96.5587 94.5936 95.2597 94.3773C93.9607 94.161 92.0122 94.0889 90.1359 94.2331C88.2595 94.3773 86.3832 94.5936 85.0842 95.0262C83.7852 95.4588 83.1357 96.1798 82.2697 96.9729C81.4037 97.766 80.4655 98.7032 79.5273 99.8568C78.5892 101.01 77.7232 102.452 77.2902 103.606C76.8572 104.759 76.9294 105.553 77.0737 106.274C77.218 106.995 77.5067 107.571 78.0119 108.509C78.5892 109.518 79.4552 110.888 80.9707 112.402C82.414 113.916 84.4347 115.646 85.878 117.16C87.3214 118.674 88.2595 120.044 90.8575 123.145C93.4555 126.245 97.7855 131.075 100.167 133.671C100.961 134.536 101.538 135.185 101.971 135.618C100.744 138.285 100.239 138.934 99.5897 139.367C98.7959 139.871 97.7855 140.16 96.5587 140.448C95.9092 140.664 95.1875 140.809 94.0329 141.169C88.1152 137.925 86.3832 135.185 84.0017 132.229C81.6202 129.273 78.517 126.028 75.2695 122.856C72.022 119.684 68.6302 116.584 65.96 114.493C63.2899 112.402 61.2692 111.248 60.0423 110.095C58.7433 108.941 58.166 107.643 58.166 105.841C58.166 104.039 58.7433 101.659 60.4032 97.2613C61.9908 92.8633 64.5888 86.4465 67.259 81.1834C69.9292 75.9202 72.5993 71.8106 74.7643 68.6383C76.8572 65.466 78.4449 63.2309 81.115 60.7075C83.7852 58.184 87.61 55.3722 90.4967 52.8488C92.8782 50.83 94.6102 49.0276 96.5587 47.4414C109.044 57.1026 110.27 60.5633 111.136 64.024C112.002 67.5568 112.508 71.0896 112.652 74.2619C112.796 77.4343 112.508 80.174 112.291 82.5532C112.075 84.9325 111.786 86.8791 111.642 88.5374C111.642 88.6816 111.642 88.8258 111.642 88.8979" fill="#65935A"/>
<path d="M105.796 138.284C106.446 138.788 107.095 139.437 107.672 140.086C108.25 140.807 108.827 141.6 109.332 142.465C109.837 143.331 110.487 144.34 111.281 145.205C111.858 145.782 112.508 146.214 113.085 146.575C113.374 146.791 113.662 146.863 113.879 147.008C115.106 147.801 115.899 148.377 116.26 148.738C114.095 141.456 112.147 134.823 110.631 129.704C105.868 113.482 105.796 112.761 105.363 112.04C104.93 111.319 104.208 110.598 103.342 110.31C102.476 110.021 101.394 110.165 100.6 110.454C99.7341 110.742 99.0846 111.175 99.0124 112.328C98.9403 113.482 99.3733 115.501 104.786 134.751C105.074 135.904 105.435 137.058 105.796 138.284Z" fill="#514B29"/>
<path d="M117.487 179.381C114.168 180.318 113.518 181.4 113.157 182.553C112.797 183.635 112.58 184.788 112.58 185.87C112.58 186.951 112.797 187.816 113.013 188.682C113.23 189.547 113.446 190.268 113.879 190.844C114.312 191.421 114.889 191.926 115.395 192.359C115.9 192.719 116.333 193.007 116.838 193.224C117.343 193.44 117.92 193.656 118.57 193.873C119.219 194.089 120.085 194.305 121.89 194.882C120.518 190.051 119.075 184.788 117.56 179.453L117.487 179.381Z" fill="#E0DBAD"/>
<path d="M140.797 7.28259C140.508 8.43616 140.797 10.0944 141.879 11.8969C142.89 13.6993 144.549 15.5739 145.848 17.0879C147.147 18.6741 148.158 19.9719 149.457 21.2696C150.756 22.6395 152.343 24.0094 154.22 25.235C156.168 26.4607 158.405 27.4701 160.498 28.119C162.591 28.7679 164.395 28.9842 166.055 28.9842C167.715 28.9842 169.158 28.6958 170.385 28.1911C171.612 27.7585 172.694 27.1096 173.344 26.2444C173.993 25.3792 174.354 24.2257 174.643 22.9279C174.932 21.6301 175.148 20.1161 175.076 18.3857C175.004 16.5833 174.571 14.5645 173.633 12.69C172.694 10.8875 171.107 9.30134 168.437 7.78728C165.766 6.27321 162.086 4.83125 159.488 3.96607C156.89 3.10089 155.374 2.8125 153.57 2.8125C151.766 2.8125 149.673 3.10089 147.797 3.53348C145.921 3.96607 144.333 4.47076 143.106 4.97545C141.879 5.55223 140.941 6.12902 140.652 7.28259H140.797Z" fill="#B2A420"/>
<path d="M175.149 20.1154C175.437 25.1623 175.365 27.2532 175.004 29.1277C174.571 31.0023 173.85 32.5163 173.056 33.5978C172.262 34.6072 171.468 35.184 170.53 35.5445C169.592 35.9771 168.365 36.2654 167.138 36.4096C165.911 36.5538 164.54 36.6259 163.169 36.5538C161.726 36.5538 160.21 36.3375 158.695 36.0492C157.179 35.7608 155.736 35.3282 154.22 34.8235C152.705 34.3188 151.189 33.742 149.818 33.021C148.447 32.3 147.148 31.4349 145.849 30.065C144.55 28.6951 143.107 26.8206 141.952 25.1623C140.797 23.5762 139.859 22.2063 139.354 20.548C138.849 18.9619 138.777 17.0152 140.725 8.36344C140.725 8.00295 140.725 7.64245 140.797 7.35406C141.086 6.20049 141.952 5.6237 143.251 5.04692C144.478 4.47013 146.065 3.96545 147.942 3.60495C148.086 3.60495 148.303 3.53286 148.519 3.46076C139.426 2.30719 135.746 3.17236 133.148 4.32594C130.55 5.47951 128.962 6.92147 127.952 8.43553C126.941 10.0217 126.58 11.68 126.364 13.2661C126.147 14.8523 126.075 16.2221 126.22 17.592C126.364 18.9619 126.725 20.3317 127.302 21.6295C127.879 22.9273 128.673 24.225 129.611 25.4507C130.477 26.6764 131.488 27.7579 132.787 29.0556C134.086 30.3534 135.746 31.7954 136.828 32.9489C137.911 34.1025 138.56 34.9677 139.354 35.9771C140.148 36.9143 141.23 37.9958 142.529 39.3657C143.9 40.7355 145.488 42.3938 147.797 43.8358C150.107 45.2777 153.138 46.4313 155.664 47.1523C158.189 47.8733 160.282 48.1617 163.241 47.9454C166.272 47.7291 170.241 46.936 172.984 46.0708C175.726 45.2056 177.241 44.1963 178.324 42.8264C179.406 41.4565 180.056 39.7983 180.345 37.7074C180.633 35.6166 180.633 33.0931 179.912 30.2092C179.19 27.3253 177.819 23.9367 175.149 20.0433V20.1154Z" fill="#EFDD00"/>
<path d="M140.725 8.29085C138.777 16.9426 138.849 18.8172 139.354 20.4754C139.859 22.0616 140.797 23.4315 141.952 25.0897C143.107 26.6759 144.478 28.6225 145.849 29.9924C147.148 31.3623 148.447 32.2275 149.818 32.9484C151.189 33.6694 152.705 34.2462 154.22 34.7509C155.736 35.2556 157.179 35.6882 158.695 35.9766C160.21 36.265 161.726 36.4091 163.169 36.4812C164.612 36.4812 165.911 36.4812 167.138 36.3371C168.365 36.1929 169.52 35.9045 170.53 35.4719C171.468 35.0393 172.262 34.5346 173.056 33.5252C173.85 32.5158 174.571 30.9297 175.004 29.0551C175.437 27.1806 175.437 25.0897 175.149 20.0429C175.149 21.1243 174.932 22.0616 174.716 22.9268C174.427 24.2246 174.066 25.3781 173.417 26.2433C172.767 27.1085 171.685 27.7574 170.458 28.19C169.231 28.6225 167.788 28.9109 166.128 28.983C164.468 28.983 162.592 28.7667 160.571 28.1179C158.478 27.469 156.241 26.4596 154.293 25.2339C152.344 24.0083 150.756 22.6384 149.53 21.2685C148.231 19.8987 147.292 18.673 145.921 17.0868C144.622 15.5007 142.962 13.6261 141.952 11.8958C141.23 10.5259 140.797 9.30022 140.797 8.21875L140.725 8.29085Z" fill="#A55716"/>
<path d="M129.467 36.9873C127.662 35.6895 126.869 34.5359 126.508 33.3103C126.147 32.0846 126.075 30.7868 126.219 29.1286C126.363 27.4703 126.652 25.3795 127.157 21.4141C127.157 21.4862 127.229 21.5583 127.302 21.7025C127.879 23.0002 128.673 24.298 129.611 25.5237C130.116 26.1725 130.621 26.8214 131.271 27.4703C131.343 29.7054 130.549 32.5893 130.044 34.3196C129.683 35.6174 129.539 36.3384 129.539 36.9152L129.467 36.9873Z" fill="black"/>
<path d="M162.158 48.0169C158.478 52.6312 157.323 54.5057 156.096 56.164C154.797 57.8944 153.426 59.3363 152.127 60.2015C150.828 61.1388 149.673 61.4993 148.158 61.4993C146.642 61.4993 144.766 60.9946 143.323 60.4178C141.879 59.841 140.869 59.1921 139.642 58.2549C138.488 57.3176 137.116 56.0919 136.25 55.2267C135.384 54.3615 135.024 53.8569 134.374 53.208C133.725 52.5591 133.003 51.766 132.57 50.9008C132.137 50.0357 131.993 49.0263 131.704 47.9448C131.415 46.8633 131.127 45.7098 130.838 44.4841C130.549 43.2584 130.261 42.0328 129.972 40.8792C129.683 39.7256 129.467 38.6441 129.395 37.7069C129.395 36.8417 129.395 36.1928 129.9 34.3903C130.405 32.5879 131.199 29.7761 131.127 27.541C131.632 28.0457 132.137 28.6225 132.714 29.1272C134.013 30.4249 135.673 31.8669 136.756 33.0205C137.838 34.1741 138.488 35.0392 139.281 36.0486C140.075 36.9859 141.158 38.0674 142.457 39.4372C143.828 40.8071 145.416 42.4653 147.725 43.9073C150.034 45.3493 153.065 46.5028 155.591 47.2238C157.828 47.8727 159.705 48.1611 162.158 48.089V48.0169Z" fill="#E0DBAD"/>
<path d="M148.736 83.4892C147.942 81.3984 148.375 78.8749 148.303 77.5772C148.231 76.2794 147.87 76.2073 147.942 74.7653C148.014 73.2513 148.664 70.2953 148.664 61.5714C149.963 61.5714 150.973 61.0667 152.128 60.2736C152.994 59.6968 153.86 58.8316 154.726 57.8223C155.014 62.0761 155.592 65.8252 156.097 71.5209C155.447 73.1792 154.798 74.6212 154.076 75.991C152.777 78.4424 151.334 80.4611 149.746 82.2636C149.385 82.6961 149.025 83.0566 148.664 83.4892H148.736Z" fill="#3A4960"/>
<path d="M134.591 176.28C134.807 175.343 135.024 174.478 135.313 173.54C135.818 171.738 136.612 169.791 138.416 164.456C140.292 159.193 143.251 150.541 146.138 141.529C149.024 132.516 151.911 123.144 153.426 117.015C154.942 110.815 155.231 107.859 156.097 104.11C156.963 100.361 158.55 95.8905 159.777 92.5739C161.004 89.2574 161.87 87.0945 163.097 83.9222C164.324 80.7498 165.767 76.496 166.777 73.1795C167.715 69.863 168.148 67.4117 168.509 64.6719C168.87 61.9322 169.087 58.9041 169.014 56.5248C169.014 54.2177 168.654 52.5594 167.355 50.8291C166.705 49.9639 165.839 49.0987 164.54 47.873C164.107 47.873 163.674 47.9451 163.241 48.0172C162.88 48.0172 162.519 48.0172 162.159 48.0172C158.478 52.6315 157.323 54.5061 156.097 56.1643C155.664 56.7411 155.231 57.3179 154.798 57.8226C155.086 62.0764 155.664 65.8255 156.169 71.5213C155.519 73.1795 154.87 74.6215 154.148 75.9914C152.849 78.4427 151.406 80.4614 149.818 82.2639C148.23 84.0663 146.498 85.6525 144.694 89.0411C142.89 92.4297 141.014 97.6208 139.21 102.235C137.405 106.849 135.673 110.887 134.158 116.655C132.642 122.423 131.416 129.993 130.333 136.698C129.251 143.403 128.457 149.243 127.807 153.281C127.158 157.318 126.58 159.481 126.003 162.87C125.57 165.321 125.137 168.421 124.704 171.594C127.086 173.901 128.457 174.838 130.189 175.487C131.343 175.919 132.642 176.208 134.591 176.28Z" fill="#65935A"/>
<path d="M127.59 187.167C126.219 191.493 125.497 191.998 125.137 192.647C124.776 193.296 124.704 194.161 124.704 194.882C124.704 195.603 124.848 196.324 125.064 196.901C125.209 197.477 125.425 197.982 125.786 198.198C126.147 198.415 126.652 198.27 127.085 198.126C127.518 197.91 127.879 197.694 128.312 197.333C128.745 196.973 129.178 196.468 129.611 195.963C130.044 195.386 130.477 194.738 130.766 194.017C131.126 193.296 131.343 192.43 131.704 191.349C131.992 190.268 132.353 188.898 132.642 187.816C132.931 186.735 133.219 185.942 133.508 184.5C133.797 183.058 134.013 180.895 134.302 178.948C134.446 178.083 134.59 177.218 134.735 176.425C132.786 176.28 131.487 175.992 130.333 175.632C128.601 174.983 127.302 174.045 124.848 171.738C124.704 173.036 124.487 174.406 124.343 175.704C125.57 179.741 126.724 183.634 127.807 187.239L127.59 187.167Z" fill="#E0DBAD"/>
<path d="M117.92 154.507C117.703 154.795 117.27 154.723 116.837 154.507C116.404 154.363 115.827 154.074 115.178 153.786C114.528 153.498 113.734 153.209 113.085 152.777C112.435 152.344 111.93 151.695 111.353 151.263C110.775 150.83 110.054 150.686 109.909 150.974C109.765 151.263 110.198 151.912 110.559 152.56C110.92 153.209 111.136 153.786 111.208 154.363C111.208 154.868 111.208 155.444 110.848 155.733C116.116 174.334 122.394 196.252 126.147 209.879C128.24 217.521 129.611 222.496 130.405 225.812C133.436 225.235 135.962 224.587 138.343 223.649C137.188 219.179 135.529 213.7 130.26 196.036C130.188 195.747 130.116 195.459 129.972 195.098C129.827 195.315 129.683 195.531 129.539 195.747C129.106 196.324 128.673 196.757 128.24 197.117C127.807 197.478 127.446 197.766 127.013 197.91C126.58 198.126 126.075 198.199 125.714 197.982C125.353 197.766 125.137 197.261 124.992 196.685C124.848 196.108 124.704 195.459 124.631 194.666C124.559 193.873 124.631 193.08 125.064 192.431C125.497 191.782 126.147 191.277 127.518 186.951C124.559 177.002 121.095 165.25 117.848 154.291L117.92 154.507Z" fill="#514B29"/>
</g>
<defs>
<clipPath id="clip0_3244_36844">
<rect width="433" height="323" fill="white"/>
</clipPath>
</defs>
</svg>
