<?xml version="1.0" encoding="utf-8"?>
<svg viewBox="0 0 500 100" xmlns="http://www.w3.org/2000/svg" xmlns:bx="https://boxy-svg.com">
  <rect style="fill: rgb(48, 127, 58);" x="0.169" y="-0.601" width="500.466" height="100.249" rx="20" ry="20"/>
  <path d="M 487.68 49.512 C 487.68 69.926 472.764 86.777 453.47 89.29 L 452.684 62.592 L 443.534 62.368 L 443.655 89.315 C 424.267 86.89 409.251 69.994 409.251 49.512 C 409.251 27.365 426.808 9.41 448.466 9.41 C 470.123 9.41 487.68 27.365 487.68 49.512 Z" style="stroke: rgb(101, 142, 82); stroke-width: 0px; fill: rgb(110, 158, 87);"/>
  <circle style="fill: rgb(255, 255, 255);" cx="37.07" cy="62.292" r="5.069" transform="matrix(1.839521, 0, 0, 1.910959, 358.889923, -86.302597)"/>
  <circle style="fill: rgb(255, 255, 255);" cx="37.07" cy="62.292" r="5.069" transform="matrix(1.839521, 0, 0, 1.910959, 369.931274, -94.467819)"/>
  <circle style="fill: rgb(255, 255, 255);" cx="37.07" cy="62.292" r="5.069" transform="matrix(1.839521, 0, 0, 1.910959, 383.213898, -95.318794)"/>
  <circle style="fill: rgb(255, 255, 255);" cx="37.07" cy="62.292" r="5.069" transform="matrix(1.839521, 0, 0, 1.910959, 396.540497, -92.68145)"/>
  <circle style="fill: rgb(255, 255, 255);" cx="37.07" cy="62.292" r="5.069" transform="matrix(1.839521, 0, 0, 1.910959, 404.311432, -82.6511)"/>
  <circle style="fill: rgb(255, 255, 255);" cx="37.07" cy="62.292" r="5.069" transform="matrix(1.839521, 0, 0, 1.910959, 354.966553, -60.167332)"/>
  <circle style="fill: rgb(255, 255, 255);" cx="37.07" cy="62.292" r="5.069" transform="matrix(1.839521, 0, 0, 1.910959, 404.902466, -59.115196)"/>
  <circle style="fill: rgb(255, 255, 255);" cx="37.07" cy="62.292" r="5.069" transform="matrix(1.839521, 0, 0, 1.910959, 355.349976, -73.541595)"/>
  <circle style="fill: rgb(255, 255, 255);" cx="37.07" cy="62.292" r="5.069" transform="matrix(1.839521, 0, 0, 1.910959, 404.98407, -73.271988)"/>
  <circle style="fill: rgb(255, 255, 255);" cx="131.869" cy="54.027" r="35.854" transform="matrix(0.842985, 0, 0, 0.881384, 337.745728, 4.907754)"/>
  <circle style="fill: rgb(202, 230, 190);" cx="37.07" cy="62.292" r="5.069" transform="matrix(1.839521, 0, 0, 1.910959, 370.500519, -80.786293)"/>
  <circle style="fill: rgb(202, 230, 190);" cx="37.07" cy="62.292" r="5.069" transform="matrix(1.839521, 0, 0, 1.910959, 391.784058, -80.812935)"/>
  <circle style="fill: rgb(110, 158, 87);" transform="matrix(-0.518523, 0.053554, 0.058421, 0.546116, 659.281616, -289.23053)" cx="487.72265625" cy="552.453125" r="7.41719013324158"/>
  <circle style="fill: rgb(110, 158, 87);" transform="matrix(-0.518523, 0.053554, 0.058421, 0.546116, 680.745605, -289.47406)" cx="487.72265625" cy="552.453125" r="7.41719013324158" bx:origin="0.502 0.556"/>
  <path style="fill: rgb(110, 158, 87);" d="M 448.932 74.926 C 444.024 74.926 439.413 72.905 435.943 69.245 C 435.226 68.489 435.226 67.26 435.943 66.505 C 436.658 65.748 437.823 65.748 438.538 66.505 C 444.091 72.366 453.766 72.366 459.32 66.505 C 460.038 65.748 461.201 65.748 461.917 66.505 C 462.635 67.26 462.635 68.489 461.917 69.245 C 458.45 72.905 453.839 74.926 448.932 74.926 Z"/>
</svg>