<?xml version="1.0" encoding="utf-8"?>
<svg viewBox="49.249 340.765 107.278 10.149" width="107.278" height="10.149" xmlns="http://www.w3.org/2000/svg">
  <path style="stroke-width: 0px; fill: rgb(14, 68, 14);" d="M 49.249 340.794 L 53.531 340.8 L 53.369 345.322 L 55 342.532 L 56.388 345.237 L 56.481 340.806 L 60.187 340.792 L 59.896 350.885 L 56.006 350.88 L 54.85 348.177 L 53.322 350.891 L 49.255 350.914 L 49.249 340.794 Z"/>
  <path style="stroke-width: 0px; fill: rgb(14, 68, 14);" d="M 68.492 340.822 L 68.647 344.895 L 70.048 344.916 L 70.053 350.878 L 73.335 350.91 L 73.438 345.045 L 75.249 345.04 L 75.371 340.833 L 68.492 340.822 Z"/>
  <path d="M 109.465 350.866 L 105.885 350.8 L 105.866 347.716 L 104.887 347.692 L 104.848 350.856 L 100.691 350.896 L 100.752 340.788 L 105.022 340.787 L 104.907 344.656 L 105.856 344.659 L 105.994 340.809 L 109.671 340.78 L 109.465 350.866 Z" style="white-space: pre; fill: rgb(14, 68, 14);"/>
  <path d="M 68.733 350.887 L 65.221 350.878 L 65.114 349.457 L 63.904 349.422 L 63.707 350.903 L 60.349 350.903 L 60.556 340.742 L 68.154 340.779 L 68.733 350.887 Z M 64.544 343.275 C 64.544 343.275 63.948 343.059 63.87 345.248 C 63.87 345.248 65.276 345.258 65.276 345.235 C 65.244 343.052 64.544 343.275 64.544 343.275 Z" style="white-space: pre; fill: rgb(14, 68, 14);"/>
  <path style="stroke-width: 0px; fill: rgb(14, 68, 14);" d="M 93.74 340.854 L 93.713 344.753 L 95.335 344.768 L 95.207 350.866 L 98.937 350.866 L 98.937 344.944 L 100.457 344.966 L 100.479 340.758 L 93.74 340.854 Z"/>
  <path d="M 136.248 344.48 C 136.161 345.104 136.065 345.143 135.354 346.08 C 135.186 346.184 136.168 345.67 136.129 348.028 L 136.089 350.943 L 132.306 350.881 L 132.232 348.689 L 131.746 348.629 L 131.683 350.912 L 127.501 350.872 L 127.722 340.84 L 133.074 340.806 C 133.484 340.806 135.066 340.667 135.776 341.078 C 136.486 341.489 136.313 342.339 136.31 342.837 C 136.307 343.335 136.325 343.919 136.248 344.48 Z M 132.43 344.193 C 132.467 343.925 132.448 343.702 132.374 343.527 C 132.3 343.347 132.192 343.256 132.049 343.256 L 131.789 343.263 L 131.686 345.159 L 131.785 345.142 C 131.93 345.142 132.063 345.051 132.188 344.865 C 132.311 344.682 132.392 344.458 132.43 344.193 Z" style="white-space: pre; fill: rgb(14, 68, 14);"/>
  <path d="M 142.688 350.872 L 142.92 340.853 L 148.791 340.888 L 148.741 343.859 L 146.497 343.829 C 145.855 343.885 146.213 344.371 146.47 344.4 L 148.737 344.537 L 148.652 347.144 L 146.296 347.185 C 145.765 347.136 145.317 347.588 146.292 347.65 L 148.771 347.658 L 148.747 350.9 L 142.688 350.872 Z" style="white-space: pre; fill: rgb(14, 68, 14);"/>
  <path d="M 152.557 340.837 C 153.495 340.837 155.021 340.728 155.574 341.08 C 156.127 341.432 155.738 344.135 155.738 344.135 L 152.987 343.945 C 152.987 343.945 152.526 343.977 152.211 344.025 C 151.901 344.073 151.486 344.002 151.379 344.287 C 151.267 344.585 152.561 344.481 153.078 344.558 C 153.665 344.646 154.896 344.569 155.278 344.743 C 155.657 344.923 155.714 345.062 155.791 345.706 C 155.868 346.35 155.955 346.865 155.963 347.551 C 155.963 348.709 156.075 349.804 155.695 350.414 C 155.315 351.024 153.729 350.874 152.747 350.874 C 151.608 350.874 150.254 350.94 149.553 350.653 C 148.852 350.366 149.069 348.99 149.069 347.69 L 151.618 347.724 C 151.931 347.729 152.182 347.693 152.585 347.693 C 152.884 347.693 153.177 347.584 153.177 347.315 C 153.177 347.077 152.652 347.059 152.146 347.041 C 151.536 347.019 151.209 347.031 150.696 347.006 C 150.183 346.981 149.5 347.167 149.208 346.739 C 148.917 346.311 149.026 344.575 149.026 343.841 C 149.026 342.769 149.022 341.21 149.464 340.976 C 150.069 340.656 151.607 340.837 152.557 340.837 Z" style="white-space: pre; stroke-width: 0.5px; fill: rgb(14, 68, 14);"/>
  <path style="stroke-width: 0px; fill: rgb(14, 68, 14);" d="M 120.606 340.832 L 120.579 344.857 L 122.24 344.872 L 122.11 350.97 L 125.931 350.97 L 125.931 345.048 L 127.399 345.07 L 127.51 340.862 L 120.606 340.832 Z"/>
  <path d="M 136.395 350.821 L 136.627 340.802 L 142.498 340.837 L 142.448 343.808 L 140.204 343.778 C 139.562 343.834 139.92 344.32 140.177 344.349 L 142.444 344.486 L 142.359 347.093 L 140.003 347.134 C 139.472 347.085 139.024 347.537 139.999 347.599 L 142.478 347.607 L 142.454 350.849 L 136.395 350.821 Z" style="white-space: pre; fill: rgb(14, 68, 14);"/>
  <path d="M 109.815 350.879 L 110.047 340.86 L 115.918 340.895 L 115.868 343.866 L 113.624 343.836 C 112.982 343.892 113.34 344.378 113.597 344.407 L 115.864 344.544 L 115.779 347.151 L 113.423 347.192 C 112.892 347.143 112.444 347.595 113.419 347.657 L 115.898 347.665 L 115.874 350.907 L 109.815 350.879 Z" style="white-space: pre; fill: rgb(14, 68, 14);"/>
  <path d="M 75.415 350.889 L 75.647 340.87 L 81.518 340.905 L 81.468 343.876 L 79.224 343.846 C 78.582 343.902 78.94 344.388 79.197 344.417 L 81.464 344.554 L 81.379 347.161 L 79.023 347.202 C 78.492 347.153 78.044 347.605 79.019 347.667 L 81.498 347.675 L 81.474 350.917 L 75.415 350.889 Z" style="white-space: pre; fill: rgb(14, 68, 14);"/>
  <path d="M 90.455 344.542 C 90.368 345.166 90.272 345.205 89.561 346.142 C 89.393 346.246 90.375 345.732 90.336 348.09 L 90.448 350.99 L 86.513 350.943 L 86.439 348.751 L 85.953 348.691 L 85.89 350.974 L 81.708 350.934 L 81.929 340.902 L 87.281 340.868 C 87.691 340.868 89.273 340.729 89.983 341.14 C 90.693 341.551 90.52 342.401 90.517 342.899 C 90.514 343.397 90.532 343.981 90.455 344.542 Z M 86.637 344.255 C 86.674 343.987 86.655 343.764 86.581 343.589 C 86.507 343.409 86.399 343.318 86.256 343.318 L 85.996 343.325 L 85.893 345.221 L 85.992 345.204 C 86.137 345.204 86.27 345.113 86.395 344.927 C 86.518 344.744 86.599 344.52 86.637 344.255 Z" style="white-space: pre; fill: rgb(14, 68, 14);"/>
</svg>