<?xml version="1.0" encoding="utf-8"?>
<svg width="76" height="76" viewBox="0 0 76 76" xmlns="http://www.w3.org/2000/svg">
  <defs>
    <style>
      .a {
        fill: #fff;
      }
    </style>
    <clipPath clipPathUnits="userSpaceOnUse" id="clipPath202">
      <path d="M 0,980 H 1400 V 0 H 0 Z" id="path200"/>
    </clipPath>
  </defs>
  <g id="layer1" style="" transform="matrix(0.712683, 0, 0, 0.712683, -32.193932, -54.391258)">
    <g id="g188" transform="matrix(0.35277777,0,0,-0.35277777,148.31511,130.46655)">
      <path d="m 0,0 0.002,-4.486 2.124,-4.629 -2.553,-4.336 0.184,-6.721 1.886,-5.91 -2.808,-5.067 -3.761,-4.726 -0.537,-5.459 1.178,-6.172 -4.998,-3.958 1.21,-7.606 -3.861,-3.884 -4.69,-3.292 -1.092,-5.193 -0.602,-5.651 -2.397,-4.635 -3.883,-3.587 -5.517,-2.187 -3.531,-3.622 -2.539,-4.511 -2.329,-4.841 -6.205,-0.881 -1.381,-6.035 -5.326,-1.571 -4.542,-2.362 -3.236,-4.131 -4.027,-3.107 -4.123,-3.011 -4.303,-2.747 -4.721,-1.973 -3.344,-4.934 -5.387,-0.566 -5.783,0.814 -4.783,-1.571 -4.283,-3.294 -5.155,-0.405 -4.764,-1.946 -5.14,-0.184 -4.723,-2.827 -6.71,2.214 -5.49,0.355 -5.584,-2.295 -4.858,0.335 -5.037,-0.65 -3.981,5.331 -5.53,-3.387 -4.43,2.778 -4.56,2.03 -5.094,-0.843 -5.202,3.387 -5.499,0.75 -4.903,1.646 -6.675,-0.278 -3.071,5.847 -4.499,2.177 -2.972,4.422 -5.375,0.931 -4.169,2.658 -4.347,2.351 -5.207,0.757 -3.983,3.027 -3.113,4.365 -6.289,-0.537 -0.962,6.98 -4.157,2.54 -4.165,2.705 -3.863,3.131 -3.981,3.148 -2.735,5.316 -2.088,5.633 -5.148,4.409 -4.125,4.766 1.149,7.33 -1.709,3.365 -4.122,4.434 0.616,5.447 -1.819,5.074 1.217,5.48 -0.339,5.287 -2.435,4.957 -0.718,5.216 -3.335,4.569 -0.817,5.122 2.178,6.09 -5.157,4.399 -0.05,5.257 4.564,5.487 -4.111,5.261 3.989,4.865 -0.414,5.205 -2.291,5.764 1.241,5.173 1.325,5.169 6.941,2.934 -1.064,6.652 0.151,5.284 5.155,3.457 1.041,5.027 -0.114,5.842 3.712,3.808 2.243,4.734 5.17,2.437 4.919,2.069 0.81,6.852 4.08,2.894 7.067,-0.819 2.439,4.982 3.7,3.402 5.528,1.202 3.025,4.215 2.105,5.287 4.455,2.497 3.431,3.711 2.921,4.698 6.881,-0.121 4.561,5.043 7.277,-0.732 3.098,3.378 4.967,0.568 4.966,0.429 4.726,1.593 4.952,0.44 4.539,3.32 5.122,-0.674 5.264,-2.031 4.504,4.22 4.912,0.846 4.866,1.143 5.218,-2.152 5.732,3.574 5.682,-1.376 5.416,-2.717 6.104,1.624 6.237,-2.818 4.734,-1.962 5.056,-0.803 5.398,-0.022 4.488,-2.638 4.042,-3.506 4.362,-5.185 5.083,-2.085 4.708,-1.624 5.339,-0.426 4.295,-2.519 4.1,-2.825 4.26,-2.651 1.512,-5.788 3.869,-2.979 6.162,-1.897 0.793,-6.366 6.262,-1.038 1.599,-5.534 2.739,-4.342 5.716,-1.84 3.919,-3.545 0.86,-5.615 3.118,-4.1 3.371,-4.189 -1.429,-5.848 0.517,-5.18 5.759,-3.875 -0.545,-5.573 3.829,-4.118 1.918,-4.792 -3.818,-6.084 2.391,-4.606 0.648,-4.965 L 0.58,15.063 3.47,10.225 2.691,5.079 Z" style="fill:#6a290b;fill-opacity:1;fill-rule:nonzero;stroke:none" id="path190"/>
    </g>
    <g id="g192" transform="matrix(0.35277777,0,0,-0.35277777,146.61463,130.46467)">
      <path d="m 0,0 0.031,-3.248 2.143,-3.354 -2.316,-3.144 0.662,-3.328 2.43,-3.538 -2.105,-3.029 -3.082,-3.04 0.232,-3.615 2.174,-4.052 -3.793,-2.768 2.961,-4.401 -2.675,-2.966 -3.505,-2.57 0.276,-3.808 0.851,-4.17 -0.695,-3.124 -2.217,-2.499 -4.186,-2.054 -1.948,-3.036 -0.742,-3.679 -0.389,-3.957 -4.909,-1.248 0.948,-4.888 -3.807,-1.793 -2.818,-2.385 -1.052,-3.705 -2.003,-3.023 -2.049,-3.009 -2.232,-2.871 -2.794,-2.35 -0.513,-4.645 -3.742,-1.407 -4.539,-0.381 -2.778,-2.264 -1.647,-3.682 -3.427,-1.48 -2.45,-2.771 -3.412,-1.42 -1.955,-3.651 -4.583,0.545 -3.339,-1.366 -2.079,-3.707 -3.01,-2.098 -2.676,-2.895 -5.095,2.551 -1.762,-5.219 -4.08,0.459 -3.781,-0.125 -2.92,-2.729 -4.099,1.158 -3.394,-1.177 -3.541,-0.594 -2.844,-4.147 -4.16,2.641 -3.373,-1.778 -3.285,1.308 -2.864,-2.412 -2.701,0.034 -2.7,-0.127 -2.723,-1.763 -2.797,0.774 -3.262,2.779 -4.236,-3.05 -2.746,5.405 -3.711,-0.102 -3.745,-0.264 -3.7,-0.013 -3.753,-0.264 -3.434,1.493 -3.34,1.949 -3.096,-1.537 -2.901,-0.815 -1.988,4.471 -2.625,0.389 -6.083,-1.519 -1.896,2.698 -2.963,0.49 -1.464,3.032 -2.088,1.691 -3.766,1.211 -2.756,2.467 -4.217,0.351 -2.726,2.481 -1.147,5.312 -5.467,-2.116 -3.082,2.047 -1.077,5.78 -5.223,-1.817 -2.359,5.334 -3.533,0.975 -4.819,-0.541 -2.942,2.243 -2.968,2.229 1.048,6.295 -4.963,0.128 -3.507,1.724 0.302,4.954 -2.515,1.614 -3.86,0.787 -0.631,3.047 -2.24,1.982 0.469,3.953 0.377,3.761 -6.058,1.176 -1.6,3.643 2.706,5.627 -3.613,2.557 -0.926,3.467 1.89,3.971 -1.762,3.385 -3.06,3.248 0.462,3.73 -1.047,3.524 -2.105,3.356 2.718,4.085 -2.936,3.171 2.775,4.27 -2.674,3.15 -0.283,3.71 -0.488,3.716 -1.832,3.115 -0.121,4.897 -2.873,4.819 1.146,5.25 2.638,3.403 -3.322,3.661 0.096,3.546 -0.029,3.589 3.308,2.991 -2.87,4.221 1.718,3.261 2.853,2.835 -1.295,4.181 2.57,2.832 1.712,2.323 0.496,2.766 -0.411,4.133 2.12,3.352 2.942,2.927 4.06,2.23 1.162,3.545 1.469,3.431 0.32,4.28 2.155,3.151 2.37,2.996 3.003,4.093 4.9,-0.378 2.529,2.555 0.945,4.537 5.116,-0.718 0.492,5.054 4.374,0.254 3.293,1.6 0.772,4.64 2.116,2.998 4.198,0.52 2.257,2.834 1.838,3.316 4.702,-0.036 3.074,1.877 0.329,5.301 3.69,-0.55 1.333,3.377 3.41,2.392 5.812,-2.674 3.096,2.919 3.71,1.357 3.122,1.593 2.886,3.132 3.687,-0.242 4.025,-2.336 2.741,4.801 3.783,-1.256 3.322,1.713 3.782,-1.642 3.59,-0.367 2.99,4.599 3.531,0.14 3.764,-1.742 3.312,1.916 3.748,-1.477 3.5,0.124 2.569,-1.589 2.858,2.771 3.123,-2.249 3.153,-1.117 3.322,0.368 3.07,-1.371 3.762,2.322 3.166,-0.559 3.419,0.448 2.502,-4.316 3.354,-0.807 3.754,0.387 4.016,0.897 3.081,-1.861 3.675,-0.332 1.836,-4.625 3.919,1.292 1.343,-4.114 5.526,-0.731 3.291,-1.686 1.975,-4.222 3.019,-1.977 5.564,1.871 3.171,-2.101 3.076,-2.236 1.818,-3.716 4.235,-0.903 0.478,-4.939 4.193,0.277 -0.446,-4.258 1.545,-3.577 5.158,-0.018 2.99,-2.167 -1.09,-6.022 4.223,-1.004 2.14,-2.925 0.887,-3.89 3.447,-1.849 3.603,-1.925 -0.364,-4.458 4.966,-1.477 -0.972,-4.469 3.354,-2.669 -1.77,-4.283 -0.584,-4.021 2.289,-4.95 5.258,-1.812 -0.501,-3.869 0.968,-3.358 0.411,-3.502 0.918,-3.36 -1.307,-3.825 3.561,-2.845 -2.249,-3.889 1.143,-3.314 1.518,-3.312 1.984,-3.339 -3.8,-3.716 4.145,-3.317 z" style="fill:#9e6333;fill-opacity:1;fill-rule:nonzero;stroke:none" id="path194"/>
    </g>
    <g transform="matrix(0.35277777,0,0,-0.35277777,-145.93494,381.63002)" id="g196">
      <g id="g198" clip-path="url(#clipPath202)">
        <g id="g204" transform="translate(824.8096,712.2471)">
          <path d="m 0,0 c 0.511,-11.511 -1.061,-23.083 -4.118,-34.313 -0.438,-1.605 -0.904,-3.202 -1.4,-4.791 -3.04,-5.784 -4.088,-12.073 -7.215,-18.603 -0.727,-1.629 -1.486,-3.241 -2.28,-4.831 -2.383,-4.769 -5.093,-9.337 -8.249,-13.581 -1.127,-1.663 -2.291,-3.298 -3.489,-4.905 -19.184,-25.709 -47.276,-44.127 -79.582,-50.466 -2.019,-0.396 -4.055,-0.745 -6.106,-1.046 -1.864,-0.253 -3.733,-0.456 -5.607,-0.61 -1.874,-0.155 -3.754,-0.262 -5.635,-0.322 -13.327,1.109 -26.57,4.009 -39.647,6.747 -1.868,0.391 -3.733,0.783 -5.578,1.195 -1.678,0.413 -3.337,0.878 -4.974,1.392 -1.637,0.521 -3.254,1.09 -4.828,1.748 -7.686,5.732 -15.722,11.219 -23.886,16.583 -1.632,1.074 -3.269,2.144 -4.908,3.214 -10.685,8.438 -24.311,13.679 -31.906,26.639 -1.123,1.653 -2.209,3.337 -3.259,5.05 -3.005,4.645 -5.62,9.317 -7.871,14.1 -0.751,1.594 -1.461,3.202 -2.124,4.829 -2.21,16.516 -0.114,33.286 -8.13,48.995 -0.38,1.649 -0.743,3.299 -1.134,4.945 -0.178,1.738 -0.33,3.481 -0.452,5.231 -0.169,1.495 -0.291,2.988 -0.367,4.477 -0.53,10.421 1.193,20.639 4.877,30.067 0.602,1.539 1.255,3.057 1.96,4.551 4.394,11.744 9.82,22.97 17.332,32.803 1.074,1.404 2.189,2.78 3.368,4.098 13.876,10.271 25.406,23.897 39.767,33.763 1.353,0.801 2.716,1.578 4.092,2.329 3.609,1.972 7.296,3.768 11.073,5.359 1.26,0.533 2.529,1.042 3.812,1.524 16.973,2.933 33.743,6.078 50.613,7.371 1.612,-0.043 3.228,-0.134 4.846,-0.252 4.855,-0.35 9.729,-0.952 14.67,-1.812 2.022,-0.385 4.023,-0.827 6.009,-1.316 9.217,-2.273 18.053,-5.537 26.395,-9.676 1.668,-0.827 3.32,-1.692 4.958,-2.597 1.639,-0.765 3.254,-1.575 4.867,-2.396 9.956,-3.676 17.554,-10.231 24.202,-17.887 1.108,-1.275 2.189,-2.582 3.258,-3.909 12.366,-11.759 22.847,-25.385 26.733,-42.514 0.624,-1.582 1.235,-3.174 1.816,-4.781 C -3.384,33.391 -0.596,19.428 -0.085,4.873 -0.028,3.256 0,1.631 0,0" style="fill:#d8964a;fill-opacity:1;fill-rule:nonzero;stroke:none" id="path206"/>
        </g>
        <g id="g208" transform="translate(646.3623,590.3198)">
          <path d="m 0,0 c 1.399,-0.583 2.946,-1.141 4.726,-1.707 1.635,-0.514 3.298,-0.979 4.941,-1.383 1.832,-0.409 3.693,-0.8 5.56,-1.191 l 2.579,-0.541 c 12.077,-2.536 24.564,-5.159 36.973,-6.194 1.869,0.06 3.745,0.167 5.579,0.319 1.87,0.155 3.746,0.359 5.58,0.608 2.024,0.297 4.07,0.647 6.075,1.041 31.546,6.189 59.695,24.04 79.263,50.264 1.191,1.596 2.36,3.24 3.476,4.887 2.992,4.025 5.676,8.441 8.214,13.521 0.767,1.536 1.531,3.154 2.269,4.81 1.495,3.122 2.516,6.198 3.502,9.172 1.095,3.301 2.13,6.419 3.729,9.46 0.456,1.495 0.925,3.101 1.357,4.685 3.204,11.768 4.584,23.258 4.102,34.153 -0.001,1.631 -0.03,3.264 -0.086,4.878 -0.499,14.206 -3.184,28.125 -7.981,41.369 -0.523,1.446 -1.099,2.961 -1.811,4.767 -3.373,14.839 -11.819,28.265 -26.607,42.327 -1.227,1.516 -2.289,2.79 -3.292,3.945 -7.746,8.919 -15.368,14.556 -23.989,17.738 -1.498,0.759 -3.202,1.617 -4.906,2.413 -1.639,0.904 -3.3,1.774 -4.969,2.603 -8.387,4.16 -17.23,7.403 -26.289,9.636 -2.027,0.5 -4.041,0.941 -5.981,1.311 -4.89,0.851 -9.808,1.458 -14.61,1.803 -1.751,0.129 -3.328,0.211 -4.822,0.251 -14.821,-1.139 -29.947,-3.778 -44.574,-6.331 l -5.936,-1.032 c -1.135,-0.436 -2.409,-0.946 -3.697,-1.49 -3.646,-1.536 -7.355,-3.332 -11.026,-5.337 -1.358,-0.741 -2.729,-1.522 -4.076,-2.319 -7.633,-5.246 -14.607,-11.697 -21.352,-17.936 -5.839,-5.402 -11.878,-10.988 -18.327,-15.765 -1.069,-1.199 -2.151,-2.517 -3.306,-4.028 -6.64,-8.691 -12.285,-19.377 -17.258,-32.668 -0.714,-1.518 -1.368,-3.038 -1.962,-4.559 -3.735,-9.557 -5.364,-19.6 -4.842,-29.849 0.075,-1.48 0.197,-2.976 0.364,-4.445 0.12,-1.722 0.272,-3.476 0.453,-5.236 0.233,-0.962 0.467,-1.993 0.7,-3.025 l 0.409,-1.794 c 5.649,-11.106 6.308,-22.918 6.946,-34.34 0.269,-4.826 0.548,-9.816 1.198,-14.699 0.627,-1.535 1.329,-3.13 2.087,-4.742 2.239,-4.754 4.802,-9.346 7.837,-14.038 1.064,-1.735 2.156,-3.428 3.253,-5.04 5.234,-8.929 13.46,-14.23 21.414,-19.355 3.492,-2.251 7.105,-4.579 10.384,-7.167 1.6,-1.042 3.238,-2.113 4.87,-3.188 C -14.417,10.359 -6.834,5.095 0,0 m 54.753,-12.065 -0.029,0.002 c -12.485,1.039 -25.016,3.67 -37.133,6.215 l -2.579,0.542 c -1.87,0.391 -3.737,0.783 -5.585,1.196 -1.674,0.411 -3.359,0.882 -5.017,1.403 -1.837,0.584 -3.431,1.161 -4.873,1.764 l -0.112,0.064 c -6.83,5.094 -14.412,10.358 -23.86,16.565 -1.631,1.075 -3.268,2.144 -4.906,3.213 -3.277,2.585 -6.868,4.899 -10.34,7.137 -8.058,5.192 -16.39,10.561 -21.732,19.676 -1.087,1.597 -2.188,3.303 -3.254,5.041 -3.054,4.721 -5.64,9.353 -7.898,14.15 -0.777,1.651 -1.495,3.284 -2.135,4.855 l -0.034,0.128 c -0.662,4.945 -0.943,9.979 -1.214,14.847 -0.634,11.334 -1.287,23.054 -6.863,33.98 l -0.044,0.12 -0.424,1.86 c -0.233,1.029 -0.466,2.056 -0.709,3.082 -0.194,1.84 -0.346,3.605 -0.466,5.316 -0.166,1.468 -0.291,2.985 -0.367,4.487 -0.529,10.398 1.124,20.588 4.912,30.284 0.603,1.543 1.267,3.085 1.974,4.584 4.993,13.349 10.687,24.123 17.39,32.897 1.185,1.551 2.295,2.901 3.394,4.13 l 0.078,0.072 c 6.419,4.751 12.45,10.33 18.282,15.725 6.772,6.264 13.775,12.741 21.5,18.048 1.387,0.824 2.77,1.61 4.138,2.357 3.701,2.022 7.443,3.833 11.121,5.383 1.299,0.548 2.588,1.064 3.831,1.53 l 6.029,1.059 c 14.651,2.556 29.802,5.2 44.729,6.345 1.563,-0.04 3.157,-0.123 4.922,-0.253 4.837,-0.347 9.791,-0.959 14.723,-1.817 1.967,-0.375 3.998,-0.82 6.044,-1.325 9.133,-2.251 18.05,-5.52 26.504,-9.714 1.683,-0.835 3.358,-1.713 4.979,-2.609 1.686,-0.786 3.4,-1.649 4.849,-2.387 8.737,-3.222 16.496,-8.952 24.361,-18.01 1.011,-1.164 2.082,-2.448 3.271,-3.924 14.896,-14.16 23.438,-27.753 26.835,-42.726 0.693,-1.74 1.272,-3.264 1.799,-4.719 4.834,-13.347 7.54,-27.373 8.043,-41.689 0.055,-1.627 0.085,-3.272 0.085,-4.892 0.488,-10.98 -0.905,-22.579 -4.138,-34.451 -0.435,-1.597 -0.907,-3.216 -1.404,-4.809 -1.596,-3.053 -2.617,-6.131 -3.698,-9.391 -0.997,-3.005 -2.028,-6.113 -3.545,-9.281 -0.739,-1.658 -1.508,-3.29 -2.284,-4.84 -2.567,-5.134 -5.28,-9.603 -8.297,-13.659 -1.111,-1.641 -2.29,-3.298 -3.49,-4.906 -19.723,-26.433 -48.1,-44.427 -79.901,-50.667 -2.023,-0.397 -4.085,-0.751 -6.131,-1.05 -1.856,-0.252 -3.753,-0.458 -5.64,-0.615 -1.86,-0.153 -3.764,-0.262 -5.662,-0.322 z" style="fill:#6a290b;fill-opacity:1;fill-rule:nonzero;stroke:none" id="path210"/>
        </g>
        <g id="g212" transform="translate(649.7764,597.3325)">
          <path d="m 0,0 c 1.451,-0.507 2.943,-0.923 4.437,-1.238 1.576,-0.333 3.189,-0.56 4.792,-0.674 1.777,-0.347 3.492,-0.669 5.204,-0.986 13.766,-2.551 29.834,-5.32 46.325,-5.899 1.884,0.19 3.758,0.434 5.572,0.724 1.886,0.301 3.772,0.663 5.604,1.075 2.024,0.414 4.056,0.882 6.046,1.395 24.661,6.345 46.542,19.947 63.282,39.337 1.267,1.469 2.502,2.969 3.668,4.458 2.888,4.137 5.354,7.859 7.521,11.358 0.81,1.307 1.608,2.63 2.389,3.97 4.022,5.68 6.243,11.75 8.595,18.176 1.092,2.988 2.223,6.077 3.556,9.158 0.457,1.532 0.907,3.151 1.316,4.758 2.487,9.818 3.574,19.763 3.229,29.559 0.001,1.849 -0.039,3.7 -0.119,5.519 -0.076,1.798 -0.195,3.625 -0.352,5.433 -0.916,9.848 -3.028,18.292 -5.114,26.097 -0.509,1.636 -1.065,3.307 -1.65,4.945 -0.577,1.615 -1.201,3.254 -1.857,4.868 -5.372,19.798 -14.353,34.364 -27.477,44.59 -1.238,1.296 -2.435,2.488 -3.613,3.595 -7.759,7.288 -16.337,12.421 -25.494,15.258 -1.768,0.863 -3.499,1.656 -5.221,2.386 -1.374,0.653 -2.775,1.284 -4.183,1.886 -4.066,1.739 -8.289,3.276 -12.549,4.567 -1.962,0.61 -3.955,1.176 -5.927,1.683 -1.703,0.439 -3.39,0.833 -5.017,1.174 -5.431,0.697 -10.409,1.203 -15.178,1.543 -1.694,0.121 -3.394,0.222 -5.099,0.302 -7.127,-1.184 -14.477,-1.889 -21.585,-2.571 -10.058,-0.966 -20.457,-1.964 -30.429,-4.332 -1.22,-0.462 -2.507,-0.98 -3.764,-1.519 -3.807,-1.631 -7.484,-3.523 -10.931,-5.625 -1.703,-1.038 -3.181,-2.024 -4.518,-3.013 -5.967,-6.607 -13.18,-12.441 -20.154,-18.083 -6.597,-5.337 -13.42,-10.856 -19.251,-17.082 -0.837,-1.233 -1.715,-2.619 -2.559,-4.056 -4.246,-7.228 -7.434,-15.395 -10.246,-22.6 -0.817,-1.532 -1.528,-3.027 -2.139,-4.5 -3.404,-8.21 -4.125,-17.091 -4.38,-24.697 -0.057,-1.712 -0.09,-3.427 -0.111,-5.138 -0.435,-6.295 1.962,-12.13 4.28,-17.773 2.365,-5.758 4.81,-11.713 4.284,-18.155 0.099,-1.709 0.223,-3.384 0.38,-5.049 0.217,-2.288 0.408,-4.595 0.602,-6.922 0.413,-4.964 0.839,-10.097 1.527,-15.278 0.791,-1.71 1.644,-3.395 2.536,-5.01 0.757,-1.404 1.554,-2.823 2.373,-4.225 4.91,-11.388 14.15,-17.757 23.933,-24.502 4.3,-2.964 8.746,-6.029 12.767,-9.544 l 0.334,-0.259 c 1.263,-0.984 2.526,-1.966 3.783,-2.953 3.228,-2.498 6.432,-5.029 9.64,-7.563 C -7.372,5.748 -3.681,2.832 0,0 m 60.793,-9.848 -0.036,0.002 c -16.576,0.579 -32.701,3.358 -46.515,5.917 -1.716,0.318 -3.436,0.641 -5.152,0.981 -1.587,0.108 -3.246,0.342 -4.869,0.684 -1.566,0.33 -3.13,0.768 -4.648,1.303 l -0.145,0.078 c -3.708,2.853 -7.426,5.789 -11.02,8.629 -3.205,2.531 -6.407,5.06 -9.634,7.558 -1.259,0.988 -2.52,1.97 -3.783,2.953 l -0.357,0.278 c -3.998,3.494 -8.42,6.542 -12.696,9.489 -9.474,6.532 -19.271,13.286 -24.271,24.894 -0.795,1.354 -1.599,2.785 -2.358,4.194 -0.915,1.655 -1.791,3.387 -2.602,5.144 l -0.043,0.151 c -0.698,5.234 -1.128,10.406 -1.543,15.408 -0.194,2.323 -0.385,4.626 -0.601,6.911 -0.159,1.678 -0.284,3.366 -0.383,5.16 0.507,6.264 -1.783,11.84 -4.208,17.744 -2.364,5.754 -4.807,11.704 -4.358,18.214 0.021,1.689 0.054,3.411 0.112,5.131 0.258,7.699 0.99,16.698 4.459,25.062 0.624,1.505 1.35,3.032 2.156,4.537 2.801,7.184 6.004,15.392 10.293,22.694 0.856,1.457 1.747,2.862 2.648,4.178 5.93,6.342 12.781,11.883 19.407,17.243 6.943,5.617 14.123,11.425 20.114,18.04 1.439,1.079 2.942,2.081 4.672,3.136 3.488,2.127 7.21,4.043 11.063,5.694 1.271,0.545 2.574,1.068 3.872,1.556 10.105,2.403 20.541,3.406 30.634,4.374 7.109,0.682 14.459,1.388 21.568,2.571 l 0.055,0.009 0.056,-0.003 c 1.731,-0.08 3.458,-0.183 5.179,-0.305 4.789,-0.342 9.787,-0.85 15.278,-1.556 1.682,-0.351 3.386,-0.749 5.106,-1.192 1.986,-0.511 3.996,-1.082 5.971,-1.696 4.294,-1.301 8.553,-2.851 12.654,-4.606 1.421,-0.607 2.835,-1.244 4.2,-1.893 1.72,-0.729 3.469,-1.53 5.178,-2.372 9.234,-2.853 17.949,-8.066 25.827,-15.465 1.193,-1.12 2.403,-2.326 3.596,-3.584 13.252,-10.318 22.353,-25.064 27.768,-45.029 0.639,-1.569 1.269,-3.221 1.851,-4.851 0.59,-1.651 1.151,-3.335 1.67,-5.006 2.103,-7.869 4.228,-16.362 5.151,-26.294 0.158,-1.826 0.278,-3.669 0.356,-5.481 0.08,-1.835 0.12,-3.701 0.119,-5.547 0.348,-9.876 -0.749,-19.92 -3.262,-29.835 -0.412,-1.622 -0.865,-3.256 -1.348,-4.859 -1.342,-3.111 -2.467,-6.185 -3.555,-9.16 -2.376,-6.494 -4.62,-12.627 -8.698,-18.382 -0.762,-1.309 -1.564,-2.64 -2.379,-3.955 -2.176,-3.516 -4.653,-7.253 -7.57,-11.429 -1.193,-1.525 -2.438,-3.038 -3.716,-4.519 C 125.177,13.497 103.11,-0.22 78.243,-6.618 c -2.01,-0.517 -4.057,-0.989 -6.09,-1.404 -1.843,-0.416 -3.75,-0.782 -5.657,-1.086 -1.847,-0.295 -3.754,-0.543 -5.669,-0.736 z" style="fill:#6a290b;fill-opacity:1;fill-rule:nonzero;stroke:none" id="path214"/>
        </g>
        <g id="g216" transform="translate(654.3672,603.1245)">
          <path d="m 0,0 c 1.513,-0.395 3.076,-0.657 4.646,-0.782 1.68,-0.229 3.331,-0.482 4.964,-0.76 4.217,-0.716 8.467,-1.626 12.577,-2.505 9.04,-1.933 18.388,-3.933 27.715,-3.933 2.803,0 5.547,0.182 8.157,0.542 1.772,0.197 3.528,0.436 5.245,0.71 1.747,0.28 3.505,0.605 5.223,0.968 2.015,0.439 4.059,0.942 6.069,1.494 20.808,5.724 39.68,17.099 54.576,32.895 1.353,1.434 2.656,2.891 3.872,4.328 2.368,2.517 4.595,5.26 6.656,8.192 0.651,0.925 1.304,1.897 1.944,2.891 7.901,13.2 13.418,25.216 16.846,36.705 0.495,1.828 0.943,3.697 1.322,5.527 1.617,7.813 2.136,15.613 1.541,23.184 -0.023,2.087 -0.079,4.062 -0.167,5.943 l -0.004,0.093 0.011,0.092 c 0.422,3.251 -0.248,6.982 -0.897,10.59 -0.381,2.116 -0.774,4.302 -0.942,6.376 -0.254,1.345 -0.543,2.709 -0.858,4.054 -0.962,4.113 -2.171,8.05 -3.594,11.702 -0.614,1.767 -1.256,3.494 -1.925,5.171 -5.951,19.151 -15.709,34.404 -29.862,46.708 -1.212,1.113 -2.453,2.172 -3.71,3.167 -6.544,5.175 -13.877,8.916 -21.796,11.117 l -0.192,0.074 c -1.646,0.831 -3.298,1.644 -4.947,2.441 -1.543,0.802 -3.042,1.538 -4.484,2.203 -4.859,2.238 -9.42,3.845 -13.944,4.914 -1.813,0.429 -3.641,0.772 -5.429,1.021 -4.799,1.041 -9.641,1.665 -14.883,1.922 -1.58,0.078 -3.217,0.123 -4.87,0.133 -9.753,-0.884 -19.71,-2.344 -29.339,-3.757 -6.858,-1.005 -13.95,-2.045 -20.925,-2.865 -1.592,-0.493 -3.253,-1.084 -4.935,-1.759 -3.455,-1.385 -6.653,-2.979 -9.506,-4.738 -1.288,-0.794 -2.494,-1.628 -3.587,-2.477 -5.524,-7.849 -13.271,-13.982 -20.765,-19.915 -6.052,-4.791 -11.768,-9.316 -16.424,-14.675 -0.882,-1.19 -1.805,-2.528 -2.692,-3.914 -4.111,-6.427 -7.384,-13.759 -9.726,-21.794 l -0.039,-0.109 c -0.729,-1.755 -1.381,-3.34 -1.977,-4.959 -1.69,-4.603 -2.898,-9.486 -3.59,-14.514 -0.171,-1.244 -0.31,-2.493 -0.452,-3.778 -1.955,-13.184 4.072,-24.235 10.454,-35.935 3.463,-5.769 2.058,-12.57 0.222,-17.319 l 0.007,-1.592 c 0.004,-1.114 0.008,-2.231 0.018,-3.35 0.029,-3.018 0.102,-6.586 0.43,-10.211 0.592,-1.704 1.217,-3.424 1.86,-5.115 0.706,-1.403 1.395,-2.663 2.101,-3.847 5.72,-6.126 12.165,-11.576 18.398,-16.848 6.839,-5.784 13.911,-11.765 20.166,-18.733 1.359,-1.087 2.723,-2.168 4.092,-3.245 C -12.894,8.225 -8.752,5.072 -4.692,2.092 -3.151,1.31 -1.574,0.606 0,0 m 49.902,-10.077 c -9.548,0 -19.006,2.024 -28.154,3.98 -4.088,0.875 -8.316,1.779 -12.488,2.489 -1.613,0.274 -3.24,0.524 -4.839,0.742 -1.654,0.13 -3.36,0.419 -5.009,0.853 l -0.109,0.035 c -1.686,0.647 -3.376,1.401 -5.023,2.24 l -0.144,0.089 c -4.101,3.01 -8.282,6.192 -12.781,9.729 -1.396,1.098 -2.787,2.201 -4.173,3.31 l -0.126,0.119 c -6.173,6.888 -13.211,12.84 -20.017,18.596 -6.308,5.334 -12.829,10.85 -18.653,17.101 l -0.132,0.175 c -0.762,1.27 -1.5,2.619 -2.258,4.126 l -0.043,0.098 c -0.671,1.767 -1.325,3.565 -1.941,5.345 l -0.054,0.247 c -0.345,3.744 -0.42,7.414 -0.45,10.51 -0.01,1.124 -0.014,2.245 -0.019,3.362 l -0.008,1.991 0.074,0.188 c 1.698,4.318 3.074,10.547 -0.017,15.699 -6.288,11.525 -12.767,23.405 -10.714,37.245 0.139,1.266 0.281,2.532 0.455,3.794 0.712,5.177 1.956,10.208 3.699,14.951 0.603,1.642 1.257,3.232 1.987,4.989 2.396,8.204 5.746,15.7 9.957,22.282 0.913,1.427 1.864,2.806 2.825,4.096 4.834,5.568 10.894,10.366 16.755,15.006 7.416,5.871 15.085,11.942 20.439,19.601 l 0.212,0.224 c 1.186,0.931 2.498,1.842 3.901,2.707 2.955,1.822 6.261,3.47 9.827,4.9 1.768,0.709 3.515,1.329 5.19,1.844 l 0.185,0.039 c 6.977,0.819 14.085,1.862 20.96,2.87 9.659,1.416 19.645,2.88 29.557,3.774 1.783,-0.007 3.452,-0.052 5.06,-0.131 5.358,-0.263 10.313,-0.903 15.147,-1.954 1.775,-0.244 3.666,-0.6 5.543,-1.043 4.663,-1.101 9.352,-2.754 14.339,-5.051 1.472,-0.677 3.002,-1.428 4.548,-2.233 1.602,-0.774 3.234,-1.575 4.861,-2.396 8.151,-2.28 15.699,-6.138 22.434,-11.465 1.298,-1.027 2.578,-2.119 3.807,-3.247 14.434,-12.549 24.397,-28.116 30.439,-47.573 0.653,-1.628 1.308,-3.386 1.918,-5.147 1.445,-3.706 2.684,-7.738 3.668,-11.948 0.326,-1.393 0.624,-2.805 0.886,-4.197 l 0.015,-0.111 c 0.158,-1.988 0.529,-4.047 0.92,-6.228 0.672,-3.732 1.366,-7.59 0.925,-11.138 0.089,-1.88 0.143,-3.85 0.162,-5.858 0.608,-7.696 0.077,-15.695 -1.58,-23.702 -0.388,-1.872 -0.845,-3.781 -1.359,-5.677 -3.485,-11.683 -9.071,-23.855 -17.082,-37.236 -0.673,-1.046 -1.343,-2.042 -2.008,-2.99 -2.119,-3.014 -4.41,-5.835 -6.808,-8.383 -1.205,-1.425 -2.532,-2.909 -3.911,-4.371 C 115.539,11.115 96.331,-0.461 75.151,-6.287 73.106,-6.849 71.025,-7.361 68.967,-7.81 c -1.76,-0.371 -3.551,-0.702 -5.332,-0.987 -1.749,-0.281 -3.538,-0.523 -5.318,-0.722 -2.676,-0.369 -5.516,-0.558 -8.415,-0.558" style="fill:#6a290b;fill-opacity:1;fill-rule:nonzero;stroke:none" id="path218"/>
        </g>
        <g id="g220" transform="translate(596.0664,660.9683)">
          <path d="m 0,0 c 0.982,-1.312 1.831,-2.755 2.729,-4.281 l 0.664,-1.122 c 2.179,-3.648 4.699,-7.321 9.403,-8.665 7.099,-2.13 11.911,-7.161 16.564,-12.025 2.346,-2.453 4.772,-4.989 7.479,-7.154 0.994,-0.894 1.974,-1.753 2.954,-2.61 l 0.738,-0.646 c 3.681,-3.187 7.237,-6.414 11.001,-9.832 1.333,-0.924 2.731,-1.778 4.149,-2.54 3.044,-1.636 5.999,-2.763 9.033,-3.446 1.79,-0.254 3.615,-0.533 5.436,-0.818 1.929,-0.302 3.853,-0.614 5.771,-0.924 10.98,-1.777 21.352,-3.455 31.771,-3.455 3.656,0 7.034,0.205 10.329,0.629 1.37,0.198 2.767,0.427 4.145,0.681 2.782,0.513 5.562,1.14 8.26,1.864 1.901,0.52 3.813,1.098 5.681,1.716 l 0.814,0.272 c 1.249,0.417 2.54,0.848 4.034,1.272 7.187,0.833 12.164,4.836 17.434,9.075 3.38,2.719 6.875,5.53 10.963,7.391 1.127,0.622 2.205,1.353 3.259,2.217 1.171,0.97 2.346,1.985 3.492,3.014 1.449,1.304 2.849,2.638 4.162,3.964 1.83,1.97 3.635,4.042 5.356,6.146 0.865,1.059 1.716,2.133 2.554,3.225 12.641,15.848 20.408,31.214 23.091,45.679 0.422,1.854 0.78,3.706 1.065,5.524 0.89,5.667 1.145,11.437 0.76,17.147 -0.02,1.197 -0.049,2.359 -0.087,3.517 -0.704,3.738 -0.949,7.596 -1.186,11.328 -0.345,5.441 -0.671,10.581 -2.356,15.292 -0.449,1.754 -0.934,3.438 -1.454,5.051 -0.534,1.655 -1.124,3.285 -1.753,4.848 -6.849,17.547 -15.565,31.981 -26.647,44.132 -1.331,1.489 -2.678,2.865 -4.01,4.096 -0.939,0.867 -1.905,1.693 -2.873,2.456 -0.973,0.77 -1.968,1.496 -3.121,2.336 l -0.095,0.069 c -4.724,3.537 -10.059,5.012 -15.707,6.572 -4.065,1.123 -8.269,2.284 -12.203,4.285 -0.906,0.549 -2.078,1.025 -3.109,1.42 -2.294,0.881 -4.636,1.707 -6.959,2.457 -1.762,0.57 -3.563,1.111 -5.35,1.608 -3.949,0.297 -7.25,0.535 -10.294,0.73 -1.74,0.112 -3.482,0.215 -5.225,0.307 -6.254,-0.621 -12.619,-1.037 -18.774,-1.438 -11.688,-0.763 -23.774,-1.552 -36.023,-3.801 -0.983,-0.376 -2.05,-0.806 -3.083,-1.251 -1.055,-0.456 -2.098,-0.938 -3.1,-1.433 -1.525,-0.753 -3.022,-1.57 -4.452,-2.428 -6.22,-6.202 -13.172,-12.062 -19.896,-17.728 -6.693,-5.642 -13.615,-11.476 -20.029,-17.802 -0.979,-1.313 -1.992,-2.783 -2.962,-4.312 -4.651,-7.33 -8.164,-15.722 -10.441,-24.942 -0.609,-1.724 -1.151,-3.459 -1.627,-5.208 -0.367,-1.345 -0.701,-2.73 -0.995,-4.112 -0.229,-1.077 -0.435,-2.161 -0.645,-3.265 l -0.182,-0.957 C -15.273,59.18 -10.288,43.833 1.458,34.045 5.183,30.324 0.952,19.403 -1.089,14.776 -1.164,13.167 -1.261,11.563 -1.372,9.972 -1.484,8.381 -1.607,6.804 -1.734,5.245 -1.304,3.683 -0.751,2.012 0,0 m 107.692,-58.566 c -10.503,0 -20.915,1.685 -31.939,3.468 -1.916,0.31 -3.838,0.621 -5.765,0.924 -1.817,0.284 -3.637,0.562 -5.463,0.823 -3.17,0.712 -6.211,1.872 -9.34,3.552 -1.452,0.781 -2.883,1.655 -4.253,2.599 l -0.105,0.089 c -3.759,3.413 -7.31,6.637 -10.985,9.818 l -0.739,0.647 c -0.984,0.862 -1.967,1.723 -2.942,2.601 -2.738,2.188 -5.188,4.75 -7.558,7.227 -4.77,4.986 -9.274,9.695 -16.101,11.744 -5.066,1.447 -7.723,5.306 -10.009,9.134 l -0.667,1.128 c -0.897,1.523 -1.743,2.961 -2.709,4.242 l -0.073,0.132 c -0.79,2.112 -1.366,3.859 -1.814,5.496 l -0.024,0.088 0.007,0.092 c 0.129,1.585 0.256,3.189 0.369,4.806 0.113,1.616 0.211,3.244 0.286,4.878 l 0.045,0.188 c 1.512,3.415 6.185,14.815 2.839,18.162 -12.022,10.016 -17.141,25.769 -13.323,41.079 l 0.176,0.926 c 0.212,1.112 0.419,2.203 0.649,3.288 0.299,1.402 0.638,2.805 1.01,4.17 0.483,1.773 1.033,3.533 1.635,5.233 2.29,9.281 5.848,17.777 10.559,25.203 0.984,1.552 2.013,3.045 3.06,4.438 6.494,6.413 13.432,12.26 20.141,17.915 6.723,5.666 13.675,11.526 19.876,17.715 l 0.1,0.078 c 1.471,0.884 3.013,1.726 4.582,2.501 1.018,0.504 2.077,0.994 3.15,1.456 1.049,0.453 2.132,0.888 3.219,1.296 12.399,2.284 24.516,3.075 36.234,3.839 6.147,0.402 12.502,0.816 18.819,1.438 1.826,-0.091 3.572,-0.194 5.315,-0.305 3.048,-0.196 6.356,-0.434 10.408,-0.75 1.901,-0.519 3.714,-1.064 5.491,-1.638 2.341,-0.755 4.701,-1.588 7.012,-2.475 1.13,-0.433 2.304,-0.913 3.243,-1.484 3.806,-1.934 7.958,-3.081 11.973,-4.19 5.493,-1.518 11.174,-3.087 16.051,-6.738 l 0.09,-0.065 c 1.161,-0.848 2.164,-1.579 3.153,-2.362 0.987,-0.779 1.976,-1.623 2.935,-2.509 1.355,-1.252 2.727,-2.653 4.077,-4.163 11.167,-12.244 19.948,-26.784 26.842,-44.448 0.636,-1.58 1.234,-3.234 1.776,-4.912 0.528,-1.633 1.018,-3.339 1.458,-5.067 1.72,-4.803 2.051,-10.014 2.401,-15.532 0.235,-3.7 0.478,-7.526 1.179,-11.281 0.047,-1.242 0.076,-2.41 0.095,-3.587 0.389,-5.76 0.13,-11.608 -0.771,-17.353 -0.29,-1.842 -0.651,-3.717 -1.076,-5.573 C 209.582,14.8 201.744,-0.722 189,-16.699 c -0.839,-1.092 -1.695,-2.175 -2.568,-3.241 -1.735,-2.122 -3.554,-4.21 -5.411,-6.208 -1.337,-1.352 -2.753,-2.7 -4.218,-4.018 -1.155,-1.039 -2.341,-2.063 -3.526,-3.044 -1.106,-0.907 -2.236,-1.673 -3.456,-2.344 -4.004,-1.824 -7.446,-4.593 -10.775,-7.272 -5.153,-4.146 -10.484,-8.432 -17.888,-9.282 -1.388,-0.402 -2.668,-0.83 -3.905,-1.243 l -0.816,-0.272 c -1.885,-0.624 -3.816,-1.207 -5.737,-1.733 -2.728,-0.731 -5.535,-1.365 -8.344,-1.883 -1.391,-0.257 -2.802,-0.489 -4.194,-0.689 -3.348,-0.43 -6.769,-0.638 -10.47,-0.638" style="fill:#6a290b;fill-opacity:1;fill-rule:nonzero;stroke:none" id="path222"/>
        </g>
        <g id="g224" transform="translate(604.0117,664.3662)">
          <path d="m 0,0 0.312,-0.604 c 0.445,-0.864 0.89,-1.728 1.35,-2.567 1.609,-2.94 3.497,-5.821 6.384,-6.975 7.41,-3.368 12.3,-8.903 17.029,-14.256 2.718,-3.077 5.528,-6.258 8.768,-8.96 1.169,-1.05 2.331,-2.081 3.498,-3.117 2.381,-2.113 4.759,-4.221 7.205,-6.333 1.383,-1.019 2.873,-2.037 4.399,-3.001 1.563,-0.989 3.145,-1.91 4.703,-2.738 1.564,-0.616 3.268,-1.231 5.013,-1.802 15.478,-5.224 33.679,-7.105 54.152,-5.598 1.795,0.21 3.626,0.466 5.418,0.761 1.788,0.386 3.624,0.836 5.435,1.331 11.292,1.272 19.944,7.435 28.311,13.395 3.553,2.531 7.227,5.149 11.067,7.376 1.194,0.577 2.467,1.68 3.567,2.671 2.106,2.265 4.157,4.556 6.059,6.775 0.997,1.162 1.982,2.337 2.952,3.525 15.493,17.736 23.88,34.012 26.405,51.238 0.265,1.816 0.457,3.658 0.572,5.475 0.234,3.705 0.153,7.405 -0.242,10.998 -0.02,1.194 -0.047,2.332 -0.083,3.462 -0.171,1.921 -0.317,3.869 -0.462,5.811 -0.729,9.814 -1.419,19.084 -5.613,28.059 -0.665,1.565 -1.397,3.092 -2.184,4.553 -2.362,4.179 -4.507,8.57 -6.58,12.816 -5.286,10.819 -10.749,22.005 -20.168,30.164 l -0.945,0.92 c -1.116,1.091 -2.268,2.219 -3.551,3.359 -5.654,5.034 -12.567,6.451 -19.253,7.821 -5.895,1.208 -11.462,2.349 -16.242,5.753 -1.033,0.592 -2.473,1.026 -3.857,1.418 -1.669,0.473 -3.328,0.901 -4.931,1.272 -3.094,0.072 -6.167,0.163 -9.229,0.254 l -1.106,0.033 c -1.72,0.051 -3.439,0.101 -5.154,0.145 -3.322,-0.206 -6.698,-0.373 -10.077,-0.54 -14.028,-0.695 -28.535,-1.414 -42.39,-5.106 -1.109,-0.47 -2.278,-0.998 -3.408,-1.55 -1.559,-0.761 -3.036,-1.562 -4.39,-2.38 C 30.242,131.573 17.729,120.269 6.54,111.163 5.5,109.865 4.469,108.391 3.391,106.659 -1.021,99.568 -4.622,91.363 -7.942,80.837 -8.507,79.404 -9.005,77.971 -9.436,76.542 -10.044,74.67 -10.826,72.66 -11.654,70.532 -15.124,61.611 -19.058,51.5 -11.809,47.473 6.835,36.986 4.213,22.356 -0.854,9.408 -0.758,7.813 -0.647,6.231 -0.509,4.663 -0.36,2.974 -0.194,1.448 0,0 m 99.365,-57.508 c -15.116,0 -28.923,2.072 -41.035,6.16 -1.761,0.577 -3.485,1.199 -5.121,1.848 -1.634,0.864 -3.239,1.798 -4.824,2.8 -1.547,0.978 -3.059,2.012 -4.493,3.07 -2.481,2.139 -4.862,4.251 -7.219,6.342 -1.196,1.062 -2.36,2.095 -3.516,3.135 -3.286,2.739 -6.124,5.95 -8.868,9.057 -4.656,5.271 -9.471,10.72 -16.654,13.986 -3.172,1.268 -5.189,4.323 -6.892,7.435 -0.464,0.847 -0.913,1.719 -1.363,2.591 L -1.026,-0.23 C -1.228,1.261 -1.4,2.832 -1.553,4.571 -1.695,6.187 -1.809,7.817 -1.908,9.459 l -0.007,0.116 0.042,0.107 C 5.209,27.717 2.183,38.4 -12.32,46.558 c -8.046,4.47 -3.757,15.495 -0.311,24.354 0.822,2.113 1.599,4.11 2.194,5.944 0.436,1.445 0.944,2.906 1.507,4.331 3.335,10.577 6.972,18.858 11.432,26.025 1.112,1.788 2.177,3.309 3.256,4.651 l 0.077,0.077 c 11.188,9.103 23.709,20.413 36.208,32.708 l 0.096,0.075 c 1.395,0.846 2.918,1.672 4.526,2.457 1.148,0.56 2.335,1.097 3.529,1.598 14.031,3.743 28.594,4.465 42.677,5.162 3.374,0.167 6.745,0.335 10.109,0.541 1.762,-0.043 3.481,-0.093 5.204,-0.144 l 1.106,-0.033 c 3.077,-0.092 6.166,-0.184 9.276,-0.256 l 0.106,-0.013 c 1.637,-0.377 3.329,-0.814 5.033,-1.297 1.445,-0.409 2.956,-0.865 4.137,-1.545 4.641,-3.303 10.103,-4.422 15.886,-5.608 6.822,-1.397 13.876,-2.843 19.74,-8.064 1.301,-1.156 2.515,-2.344 3.587,-3.393 l 0.92,-0.896 c 9.558,-8.28 15.07,-19.564 20.401,-30.477 2.067,-4.232 4.205,-8.609 6.558,-12.77 0.806,-1.499 1.552,-3.055 2.222,-4.632 4.269,-9.133 4.997,-18.932 5.701,-28.408 0.145,-1.937 0.289,-3.88 0.463,-5.827 0.037,-1.165 0.065,-2.309 0.082,-3.458 0.399,-3.604 0.482,-7.366 0.243,-11.131 -0.117,-1.845 -0.312,-3.715 -0.58,-5.56 -2.556,-17.434 -11.022,-33.882 -26.641,-51.762 -0.965,-1.182 -1.956,-2.363 -2.957,-3.531 -1.913,-2.23 -3.973,-4.532 -6.121,-6.84 -1.242,-1.119 -2.529,-2.232 -3.812,-2.85 -3.762,-2.184 -7.415,-4.786 -10.949,-7.304 -8.476,-6.037 -17.24,-12.281 -28.722,-13.568 -1.75,-0.484 -3.605,-0.938 -5.436,-1.334 -1.834,-0.302 -3.681,-0.56 -5.514,-0.774 -4.637,-0.342 -9.188,-0.514 -13.548,-0.514" style="fill:#6a290b;fill-opacity:1;fill-rule:nonzero;stroke:none" id="path226"/>
        </g>
        <g id="g228" transform="translate(650.811,627.978)">
          <path d="m 0,0 c 1.198,-0.859 2.405,-1.678 3.588,-2.433 1.265,-0.806 2.541,-1.565 3.795,-2.255 1.543,-0.666 3.19,-1.335 4.851,-1.966 1.51,-0.573 3.052,-1.124 4.583,-1.638 4.387,-0.634 8.956,-1.696 13.375,-2.724 7.587,-1.764 15.432,-3.588 23.531,-3.588 2.911,0 5.648,0.228 8.364,0.695 1.417,0.134 2.809,0.292 4.181,0.478 1.388,0.188 2.78,0.407 4.136,0.65 1.568,0.328 3.299,0.652 5.502,0.652 l 0.201,-0.001 c 1.789,0.474 3.57,0.819 5.294,1.154 4.501,0.874 8.755,1.701 12.438,4.648 2.988,2.241 5.444,4.889 7.819,7.45 4.3,4.637 8.362,9.018 14.864,10.34 1.499,0.848 2.931,2.309 4.268,3.735 0.952,1.015 1.889,2.05 2.829,3.102 13.672,12.582 23.355,30.87 26.605,50.212 0.275,1.651 0.485,3.313 0.624,4.938 0.289,3.367 0.29,6.726 0.002,9.98 0.003,1.244 -0.006,2.438 -0.024,3.629 0.419,10.885 -2.034,22.956 -7.293,35.903 -0.73,1.447 -1.557,2.949 -2.443,4.425 -6.399,12.161 -12.338,22.938 -20.379,31.935 -1.252,1.441 -2.531,3.152 -3.735,4.782 l -0.055,0.092 c -2.235,4.865 -6.494,6.891 -11.42,8.862 -3.552,0.965 -7.203,1.543 -10.734,2.1 -7.85,1.241 -15.267,2.413 -21.841,7.722 -1.691,0.359 -3.433,0.675 -5.177,0.937 -1.736,0.261 -3.521,0.478 -5.308,0.643 -1.768,0.165 -3.553,0.281 -5.307,0.348 -14.987,-0.222 -30.562,-2.51 -50.473,-7.422 -1.266,-0.494 -2.547,-1.032 -3.744,-1.58 -9.201,-5.101 -16.945,-12.689 -24.434,-20.027 -4.107,-4.022 -8.353,-8.182 -12.777,-11.863 -1.072,-1.348 -2.179,-2.855 -3.312,-4.536 -4.557,-6.757 -7.956,-14.006 -10.105,-21.545 l -0.169,-0.565 c -0.417,-1.41 -0.848,-2.868 -1.652,-4.433 l -0.071,-0.105 c -5.403,-6.206 -7.661,-12.397 -6.711,-18.397 1.092,-6.898 6.466,-13.422 15.54,-18.867 7.445,-3.721 4.404,-10.905 1.463,-17.854 -1.378,-3.254 -2.802,-6.619 -3.057,-9.507 0.03,-1.628 0.274,-3.29 0.482,-4.549 0.263,-1.586 0.561,-3.047 0.91,-4.461 0.928,-1.293 1.966,-2.596 3.086,-3.874 4.164,-4.749 9.195,-8.849 14.061,-12.814 5.552,-4.524 11.293,-9.201 15.87,-14.92 1.496,-1.243 2.837,-2.422 4.099,-3.6 C -2.457,2.578 -1.194,1.305 0,0 m 53.723,-15.652 c -8.22,-0.001 -16.124,1.838 -23.768,3.615 -4.601,1.07 -8.946,2.08 -13.381,2.73 -1.635,0.539 -3.19,1.095 -4.712,1.673 -1.676,0.636 -3.338,1.311 -4.94,2.006 -1.318,0.723 -2.614,1.493 -3.898,2.311 -1.213,0.775 -2.452,1.615 -3.68,2.498 l -0.081,0.072 c -1.186,1.298 -2.441,2.564 -3.839,3.87 -1.257,1.174 -2.597,2.35 -4.094,3.593 l -0.075,0.076 c -4.512,5.65 -10.223,10.304 -15.746,14.804 -4.899,3.992 -9.966,8.12 -14.187,12.935 -1.167,1.33 -2.246,2.689 -3.209,4.037 l -0.082,0.178 c -0.366,1.472 -0.677,2.99 -0.951,4.64 -0.214,1.295 -0.464,3.005 -0.494,4.758 0.271,3.106 1.728,6.549 3.138,9.878 2.879,6.802 5.599,13.227 -1.002,16.527 -9.384,5.629 -14.929,12.407 -16.071,19.621 -0.999,6.305 1.328,12.765 6.913,19.201 0.741,1.457 1.153,2.849 1.551,4.195 l 0.167,0.562 c 2.178,7.638 5.625,14.987 10.242,21.837 1.15,1.705 2.275,3.237 3.438,4.681 4.466,3.728 8.696,7.873 12.788,11.881 7.539,7.387 15.334,15.024 24.695,20.213 1.252,0.574 2.552,1.121 3.902,1.642 20.054,4.952 35.701,7.25 50.799,7.472 1.801,-0.067 3.604,-0.185 5.391,-0.351 1.808,-0.167 3.613,-0.386 5.367,-0.65 1.808,-0.272 3.613,-0.6 5.364,-0.976 l 0.124,-0.025 0.098,-0.081 c 6.379,-5.199 13.695,-6.354 21.441,-7.579 3.559,-0.562 7.238,-1.143 10.903,-2.143 5.179,-2.068 9.615,-4.186 12.017,-9.366 1.182,-1.6 2.436,-3.275 3.647,-4.668 8.115,-9.082 14.088,-19.917 20.505,-32.115 0.885,-1.473 1.725,-2.998 2.484,-4.507 5.331,-13.123 7.811,-25.34 7.388,-36.347 0.017,-1.17 0.026,-2.37 0.022,-3.573 0.29,-3.266 0.29,-6.686 -0.005,-10.115 -0.142,-1.651 -0.354,-3.34 -0.634,-5.02 -3.288,-19.568 -13.091,-38.074 -26.893,-50.773 -0.909,-1.023 -1.854,-2.064 -2.812,-3.085 -1.415,-1.509 -2.935,-3.059 -4.595,-3.975 l -0.15,-0.054 C 110.591,9.215 106.625,4.937 102.426,0.409 c -2.407,-2.595 -4.895,-5.279 -7.945,-7.566 -3.872,-3.098 -8.248,-3.948 -12.881,-4.847 -1.727,-0.336 -3.514,-0.683 -5.292,-1.157 l -0.069,-0.019 -0.333,0.003 c -2.104,0 -3.773,-0.313 -5.301,-0.633 -1.387,-0.249 -2.793,-0.47 -4.195,-0.66 -1.387,-0.188 -2.795,-0.348 -4.185,-0.477 -2.736,-0.473 -5.53,-0.705 -8.502,-0.705" style="fill:#6a290b;fill-opacity:1;fill-rule:nonzero;stroke:none" id="path230"/>
        </g>
        <g id="g232" transform="translate(663.8765,629.3735)">
          <path d="M 0,0 C 1.737,-0.654 3.511,-1.275 5.275,-1.848 6.899,-2.375 8.547,-2.87 10.172,-3.32 21.057,-5.444 31,-7.21 42.059,-7.21 c 1.186,0 2.383,0.021 3.589,0.065 1.683,0.119 3.387,0.287 5.048,0.499 l 0.584,0.076 c 1.501,0.196 3.062,0.399 4.774,0.317 1.681,-0.373 3.25,-0.556 4.755,-0.556 8.763,0 14.897,6.029 21.393,12.413 5.342,5.252 10.868,10.682 18.137,12.825 1.564,0.641 2.905,1.875 4.035,2.981 13.705,13.403 22.064,28.756 24.845,45.63 0.402,1.72 0.741,3.444 1.017,5.158 0.552,3.435 0.868,6.975 0.938,10.52 0.105,2.038 0.159,4.051 0.159,6 -0.444,11.069 -3.595,20.447 -8.19,31.115 -0.633,1.302 -1.318,2.65 -2.028,3.985 -0.651,1.261 -1.291,2.517 -1.931,3.772 -3.632,7.127 -7.388,14.496 -12.413,21.036 l -0.487,0.632 c -0.838,1.082 -1.703,2.201 -2.538,3.488 -4.916,11.601 -16.382,13.417 -27.471,15.174 -2.967,0.47 -6.036,0.956 -8.917,1.621 -1.766,0.586 -3.159,1.727 -4.506,2.831 -1.219,0.998 -2.369,1.941 -3.674,2.407 l -0.102,0.049 c -1.243,0.779 -2.754,1.283 -4.62,1.542 -1.692,0.234 -3.456,0.431 -5.244,0.584 -1.731,0.149 -3.501,0.258 -5.26,0.326 -4.829,-0.468 -9.764,-0.674 -14.99,-0.893 -10.786,-0.451 -21.939,-0.918 -32.558,-3.867 -1.485,-0.864 -2.974,-1.777 -4.551,-2.789 -11.991,-7.698 -23.117,-17.368 -36.075,-31.354 -0.935,-1.319 -1.877,-2.766 -2.837,-4.373 -2.89,-4.839 -5.349,-10.187 -7.31,-15.894 -0.476,-1.39 -0.939,-2.793 -1.392,-4.208 -1.057,-2.722 -2.928,-5.454 -4.738,-8.097 -3.568,-5.21 -6.938,-10.131 -3.689,-14.029 l 1.792,-2.496 c 9.63,-13.394 17.951,-24.967 13.051,-43.263 0.457,-1.466 0.945,-2.896 1.45,-4.253 0.545,-1.462 1.13,-2.893 1.741,-4.257 1.05,-1.243 2.182,-2.476 3.459,-3.768 3.627,-3.67 7.706,-7.06 11.652,-10.339 4.166,-3.463 8.102,-6.734 11.515,-10.281 1.195,-0.797 2.399,-1.571 3.592,-2.34 l 0.265,-0.17 c 1.3,-0.838 2.587,-1.669 3.854,-2.501 1.205,-0.772 2.282,-1.504 3.291,-2.234 C -7.09,4.921 -5.644,3.949 -4.208,2.963 -2.792,1.99 -1.388,1.003 0,0 m 42.059,-8.258 c -11.153,0 -21.148,1.775 -32.127,3.918 -1.68,0.465 -3.342,0.964 -4.98,1.495 -1.802,0.585 -3.614,1.22 -5.387,1.889 l -0.122,0.065 c -1.4,1.013 -2.817,2.009 -4.245,2.99 -1.43,0.983 -2.872,1.952 -4.322,2.914 -1.009,0.731 -2.071,1.452 -3.263,2.216 -1.269,0.833 -2.554,1.663 -3.852,2.499 l -0.264,0.17 c -1.214,0.782 -2.437,1.57 -3.654,2.38 l -0.088,0.074 c -3.381,3.52 -7.309,6.785 -11.468,10.242 -3.965,3.295 -8.064,6.702 -11.727,10.407 -1.316,1.332 -2.482,2.603 -3.563,3.887 l -0.078,0.124 c -0.63,1.404 -1.234,2.879 -1.796,4.385 -0.529,1.421 -1.039,2.919 -1.514,4.455 l -0.046,0.145 0.041,0.147 c 4.854,17.9 -2.959,28.767 -12.851,42.524 l -1.77,2.468 c -3.733,4.476 0.022,9.959 3.653,15.261 1.776,2.594 3.612,5.275 4.615,7.855 0.445,1.392 0.91,2.801 1.389,4.199 1.985,5.775 4.474,11.189 7.401,16.09 0.975,1.632 1.932,3.103 2.926,4.497 13.062,14.105 24.251,23.827 36.32,31.576 1.61,1.033 3.13,1.964 4.648,2.846 l 0.123,0.051 c 10.754,2.997 21.992,3.468 32.86,3.924 5.211,0.217 10.132,0.423 15.003,0.89 1.846,-0.066 3.632,-0.177 5.382,-0.326 1.805,-0.155 3.587,-0.354 5.296,-0.591 1.991,-0.276 3.623,-0.819 4.985,-1.661 1.454,-0.533 2.714,-1.565 3.932,-2.564 1.274,-1.044 2.591,-2.122 4.125,-2.634 2.798,-0.643 5.848,-1.127 8.798,-1.594 11.371,-1.801 23.129,-3.664 28.23,-15.72 0.768,-1.169 1.62,-2.271 2.444,-3.336 l 0.489,-0.634 c 5.085,-6.617 8.863,-14.03 12.516,-21.199 0.638,-1.253 1.279,-2.508 1.925,-3.761 0.713,-1.341 1.405,-2.701 2.053,-4.036 4.651,-10.797 7.834,-20.279 8.284,-31.53 0,-1.988 -0.052,-4.019 -0.158,-6.058 -0.071,-3.577 -0.391,-7.166 -0.95,-10.65 -0.28,-1.738 -0.624,-3.486 -1.024,-5.196 -2.812,-17.064 -11.273,-32.612 -25.142,-46.175 -1.2,-1.175 -2.631,-2.49 -4.421,-3.219 C 93.618,15.355 88.188,10.018 82.936,4.857 76.284,-1.682 70,-7.857 60.809,-7.857 c -1.583,0 -3.229,0.191 -4.896,0.569 h -0.007 c -0.163,0 -0.409,0.006 -0.654,0.006 -1.334,0 -2.606,-0.167 -3.835,-0.328 L 50.829,-7.686 C 49.147,-7.9 47.423,-8.07 45.704,-8.191 44.466,-8.237 43.257,-8.258 42.059,-8.258" style="fill:#6a290b;fill-opacity:1;fill-rule:nonzero;stroke:none" id="path234"/>
        </g>
        <g id="g236" transform="translate(716.5879,627.1235)">
          <path d="m 0,0 c 0.659,0 1.277,-0.042 1.888,-0.129 0.6,-0.044 1.262,-0.102 1.92,-0.158 2.049,-0.177 3.987,-0.343 5.87,-0.343 4.142,0 7.108,0.879 9.604,2.848 8.267,9.301 16.819,18.899 28.373,22.296 1.247,1.174 2.464,2.371 3.62,3.562 12.639,13.018 19.985,27.103 21.833,41.865 0.261,1.491 0.504,3.039 0.75,4.784 0.286,2.025 0.538,4.044 0.788,6.039 0.142,1.13 0.282,2.253 0.427,3.365 0.15,2.013 0.243,4.077 0.275,6.075 1.039,10.726 -2.232,21.446 -10.287,33.824 -0.874,1.402 -1.753,2.773 -2.627,4.135 l -0.108,0.165 -0.038,0.193 c -0.78,3.883 -3.288,6.933 -5.943,10.162 -1.825,2.22 -3.712,4.516 -5.194,7.244 -0.877,1.211 -1.779,2.403 -2.684,3.6 l -0.665,0.878 -0.024,0.307 c -0.472,6.231 -6.186,11.172 -11.209,12.177 -3.559,0.968 -7.231,1.644 -10.781,2.298 -8.122,1.494 -16.518,3.039 -23.765,8.001 -1.55,0.252 -3.169,0.45 -4.814,0.588 -1.627,0.138 -3.341,0.223 -5.094,0.252 -14.92,-0.672 -30.654,-2.775 -45.447,-6.082 -1.43,-0.759 -2.878,-1.609 -4.307,-2.525 -13.036,-8.367 -23.038,-21.176 -32.163,-33.588 -0.704,-1.33 -1.379,-2.698 -2.007,-4.065 -1.932,-4.205 -3.545,-8.675 -4.792,-13.286 -0.443,-1.492 -1.117,-2.939 -2.129,-4.578 l -0.135,-0.174 c -0.476,-0.497 -1.008,-1.02 -1.561,-1.565 -2.725,-2.683 -6.117,-6.022 -5.378,-8.979 1.523,-4.867 3.634,-9.477 5.676,-13.934 4.925,-10.75 9.578,-20.907 5.983,-34.072 0.482,-1.571 1.017,-3.098 1.591,-4.543 0.673,-1.554 1.459,-3.08 2.326,-4.512 0.861,-0.985 1.787,-1.975 2.827,-3.022 2.7,-2.72 5.708,-5.35 8.617,-7.892 4.695,-4.103 9.547,-8.345 13.213,-13.067 1.208,-0.997 2.424,-1.98 3.656,-2.94 4.225,-3.29 8.144,-5.878 11.981,-7.911 1.295,-0.547 2.774,-1.126 4.316,-1.683 1.661,-0.598 3.367,-1.161 5.068,-1.673 1.689,-0.508 3.425,-0.98 5.158,-1.403 5.482,-1.591 10.385,-2.001 15.575,-2.433 1.814,-0.152 3.675,-0.308 5.621,-0.516 1.342,-0.051 2.774,-0.079 4.182,-0.079 l 1.046,0.005 c 1.756,0.017 3.528,0.077 5.266,0.179 l 0.387,0.049 C -2.255,-0.132 -1.159,0 0,0 m 9.678,-2.726 c -1.973,0 -3.953,0.17 -6.051,0.351 -0.65,0.056 -1.308,0.112 -1.968,0.163 -1.645,0.23 -3.112,0.065 -4.722,-0.13 l -0.456,-0.054 c -1.833,-0.11 -3.639,-0.172 -5.428,-0.189 l -1.067,-0.005 c -1.436,0 -2.894,0.028 -4.335,0.086 -2,0.211 -3.843,0.365 -5.643,0.515 -5.297,0.443 -10.301,0.86 -15.941,2.498 -1.725,0.421 -3.497,0.902 -5.221,1.421 -1.737,0.522 -3.478,1.097 -5.175,1.708 -1.579,0.57 -3.095,1.164 -4.506,1.765 -4.026,2.129 -8.047,4.781 -12.368,8.147 -1.278,0.996 -2.54,2.017 -3.793,3.052 l -0.162,0.168 c -3.549,4.597 -8.356,8.799 -13.005,12.863 -2.937,2.566 -5.974,5.221 -8.725,7.993 -1.097,1.104 -2.071,2.147 -2.979,3.19 l -0.105,0.142 c -0.936,1.536 -1.783,3.176 -2.518,4.876 -0.644,1.618 -1.228,3.3 -1.75,5.03 l -0.088,0.292 0.083,0.294 c 3.539,12.569 -0.992,22.459 -5.789,32.929 -2.069,4.517 -4.209,9.188 -5.787,14.24 -1.047,4.177 2.819,7.982 5.925,11.04 0.508,0.501 0.998,0.982 1.44,1.441 0.88,1.438 1.465,2.696 1.838,3.955 1.272,4.698 2.924,9.278 4.904,13.588 0.655,1.427 1.36,2.853 2.095,4.24 l 0.082,0.13 c 9.254,12.589 19.406,25.597 32.766,34.172 1.519,0.974 3.061,1.877 4.583,2.68 l 0.26,0.096 c 14.951,3.351 30.863,5.482 46.015,6.163 1.863,-0.03 3.624,-0.117 5.298,-0.259 1.783,-0.15 3.537,-0.367 5.213,-0.647 l 0.232,-0.038 0.194,-0.135 c 6.917,-4.812 15.167,-6.329 23.144,-7.797 3.593,-0.662 7.307,-1.345 10.883,-2.32 5.619,-1.121 12.08,-6.682 12.79,-13.744 l 0.297,-0.392 c 0.928,-1.228 1.853,-2.45 2.753,-3.692 l 0.072,-0.117 c 1.389,-2.575 3.225,-4.809 5.001,-6.968 2.784,-3.387 5.415,-6.587 6.338,-10.883 0.844,-1.316 1.692,-2.641 2.526,-3.978 8.318,-12.78 11.693,-23.928 10.61,-35.067 -0.026,-1.955 -0.122,-4.061 -0.281,-6.172 -0.15,-1.165 -0.291,-2.285 -0.43,-3.412 -0.251,-2.005 -0.505,-4.035 -0.793,-6.071 -0.249,-1.768 -0.496,-3.34 -0.753,-4.803 C 73.282,54.457 65.742,39.968 52.779,26.615 51.543,25.343 50.24,24.063 48.905,22.812 L 48.72,22.64 48.477,22.57 C 37.355,19.396 28.934,9.921 20.788,0.757 L 20.66,0.636 C 16.935,-2.344 12.834,-2.726 9.678,-2.726" style="fill:#6a290b;fill-opacity:1;fill-rule:nonzero;stroke:none" id="path238"/>
        </g>
        <g id="g240" transform="translate(714.9219,632.6548)">
          <path d="m 0,0 c 1.31,0 2.618,-0.159 3.89,-0.473 5.03,-1.92 10.086,-1.121 14.322,2.056 0.807,0.813 1.669,1.687 2.534,2.563 7.557,7.654 15.368,15.567 25.481,18.444 1.276,1.111 2.572,2.325 3.85,3.611 10.889,10.95 17.556,23.609 19.816,37.626 0.416,1.611 0.78,3.257 1.093,4.939 0.59,3.169 1.021,6.553 1.318,10.349 0.204,1.795 0.354,3.575 0.447,5.31 l 0.025,0.134 c 3.742,11.511 -2.861,21.493 -9.246,31.145 l -0.644,0.975 c -0.882,1.51 -1.632,2.837 -2.307,4.079 -0.934,1.041 -1.892,2.154 -2.93,3.401 -0.965,1.199 -1.924,2.414 -2.875,3.654 -2.155,3.046 -3.967,5.485 -5.712,7.694 -0.995,1.258 -2.001,2.507 -3.021,3.74 l -0.095,0.176 c -3.572,11.368 -13.459,13.703 -23.926,16.176 -6.357,1.501 -12.929,3.053 -18.026,6.795 -1.466,0.839 -3.033,1.102 -4.51,1.296 -1.522,0.201 -3.131,0.337 -4.783,0.404 -2.302,-0.156 -4.626,-0.287 -6.926,-0.417 -12.221,-0.692 -23.765,-1.345 -35.546,-5.47 -1.348,-0.603 -2.725,-1.295 -4.051,-2.041 -9.657,-5.243 -16.398,-13.791 -22.917,-22.057 -1.658,-2.101 -3.372,-4.275 -5.114,-6.371 -0.873,-1.387 -1.771,-2.912 -2.628,-4.476 -2.894,-5.273 -5.159,-10.596 -6.731,-15.821 -0.329,-1.091 -0.631,-2.189 -0.897,-3.263 l -0.049,-0.126 c -0.76,-1.382 -1.991,-2.703 -3.182,-3.981 -1.944,-2.086 -3.954,-4.242 -3.954,-6.671 0.815,-5.252 3.325,-10.384 5.753,-15.348 3.761,-7.687 7.649,-15.636 5.637,-24.765 -0.218,-1.778 0.214,-3.349 0.595,-4.734 0.549,-1.542 1.154,-3.113 1.785,-4.63 0.65,-1.563 1.353,-3.128 2.088,-4.65 0.726,-1.013 1.581,-2.14 2.568,-3.373 4.941,-6.163 10.657,-11.708 15.085,-15.85 1.293,-1.017 2.745,-2.086 4.405,-3.236 5.455,-3.781 11.671,-7.596 19.003,-11.665 1.464,-0.568 3.014,-1.128 4.543,-1.635 8.069,-2.674 16.219,-4.083 24.221,-4.19 1.539,0 3.096,0.043 4.626,0.128 1.775,0.098 3.564,0.255 5.316,0.466 C -1.102,-0.027 -0.544,0 0,0 m 9.295,-2.561 c -1.912,0 -3.837,0.367 -5.719,1.09 -1.597,0.388 -3.361,0.519 -5.132,0.347 -1.762,-0.212 -3.574,-0.371 -5.372,-0.471 -1.548,-0.086 -3.126,-0.129 -4.69,-0.129 -8.116,0.107 -16.372,1.536 -24.544,4.243 -1.546,0.513 -3.114,1.079 -4.659,1.685 -7.426,4.114 -13.67,7.948 -19.154,11.748 -1.678,1.163 -3.147,2.244 -4.491,3.304 -4.487,4.194 -10.237,9.773 -15.22,15.989 -1.001,1.248 -1.867,2.392 -2.65,3.497 -0.788,1.615 -1.498,3.198 -2.156,4.779 -0.638,1.534 -1.249,3.121 -1.816,4.717 -0.399,1.443 -0.88,3.193 -0.628,5.226 1.941,8.82 -1.865,16.602 -5.546,24.127 -2.463,5.034 -5.009,10.24 -5.854,15.729 -0.006,2.922 2.147,5.231 4.229,7.466 1.181,1.267 2.298,2.465 2.997,3.713 0.267,1.068 0.568,2.16 0.894,3.244 1.593,5.295 3.887,10.686 6.816,16.024 0.868,1.582 1.776,3.126 2.701,4.586 1.773,2.141 3.483,4.309 5.137,6.406 6.584,8.349 13.393,16.982 23.232,22.324 1.349,0.758 2.754,1.465 4.173,2.097 11.96,4.19 23.576,4.847 35.874,5.543 2.296,0.131 4.617,0.261 6.971,0.418 1.738,-0.068 3.379,-0.207 4.934,-0.412 1.511,-0.199 3.263,-0.491 4.943,-1.458 4.974,-3.648 11.441,-5.175 17.695,-6.652 10.264,-2.425 20.877,-4.931 24.654,-16.783 1.002,-1.213 1.992,-2.441 2.971,-3.679 1.756,-2.223 3.578,-4.678 5.734,-7.722 0.932,-1.218 1.885,-2.425 2.842,-3.612 1.038,-1.249 2.001,-2.367 2.939,-3.411 l 0.071,-0.1 c 0.676,-1.248 1.43,-2.582 2.304,-4.081 l 0.629,-0.949 C 70.914,106.441 77.646,96.264 73.795,84.3 73.699,82.567 73.55,80.789 73.347,79.015 73.049,75.2 72.614,71.779 72.017,68.574 71.699,66.869 71.328,65.199 70.917,63.612 68.632,49.422 61.866,36.571 50.82,25.462 49.494,24.128 48.149,22.87 46.824,21.722 L 46.622,21.613 C 36.724,18.838 28.98,10.995 21.491,3.41 20.625,2.532 19.761,1.657 18.896,0.793 15.958,-1.418 12.657,-2.561 9.295,-2.561" style="fill:#6a290b;fill-opacity:1;fill-rule:nonzero;stroke:none" id="path242"/>
        </g>
        <g id="g244" transform="translate(633.4521,683.7524)">
          <path d="m 0,0 c 0.464,-1.292 0.964,-2.569 1.487,-3.795 1.691,-3.965 3.721,-7.636 6.035,-10.912 1.055,-1.234 2.198,-2.516 3.468,-3.88 3.079,-3.31 6.253,-6.406 9.322,-9.401 l 1.448,-1.414 c 1.22,-0.971 2.556,-1.973 4.046,-3.032 5.801,-4.119 11.72,-7.465 17.591,-9.943 1.482,-0.553 3.016,-1.071 4.538,-1.531 4.747,-1.437 9.62,-2.386 14.485,-2.821 5.343,-0.479 11.157,-0.327 16.676,0.437 l 0.112,0.016 c 1.729,0.24 3.598,0.43 5.049,0.102 0.705,-0.007 1.507,-0.059 2.306,-0.111 0.962,-0.062 1.958,-0.127 2.92,-0.127 2.079,0 4.542,0.254 7.054,2.138 7.202,7.21 14.708,14.715 24.585,17.878 1.558,0.716 2.744,1.678 4.027,2.896 7.449,7.071 12.617,15.203 15.362,24.169 0.472,1.543 0.883,3.151 1.219,4.777 1.647,4.46 2.317,9.041 3.026,13.892 0.499,3.413 1.015,6.943 1.895,10.437 0.275,1.173 0.49,2.626 0.657,4.434 1.359,8.745 -2.358,16.631 -6.981,25.3 -0.622,1.121 -1.261,2.237 -1.917,3.345 -1.959,3.309 -4.103,6.579 -6.372,9.721 -0.936,1.332 -1.947,2.707 -3.094,4.209 -1.006,1.303 -2.114,2.648 -3.291,3.992 -1.105,1.262 -2.306,2.565 -3.568,3.872 l -0.106,0.161 c -4.35,10.31 -13.666,13.324 -23.53,16.514 -4.936,1.596 -10.04,3.247 -14.37,5.9 -1.547,0.24 -3.142,0.442 -4.744,0.599 -1.556,0.153 -3.183,0.271 -4.832,0.349 -4.34,-0.43 -8.944,-0.435 -13.398,-0.44 -10.006,-0.011 -20.354,-0.022 -28.938,-4.946 -1.047,-0.858 -2.164,-1.75 -3.273,-2.637 L 28.299,99.673 C 19.665,92.77 10.737,85.632 5.73,73.787 5.116,72.395 4.495,71.036 3.87,69.694 3.412,68.71 2.953,67.735 2.496,66.764 0.433,62.381 -1.517,58.241 -3.15,53.755 -3.658,52.114 -4.391,50.465 -5.381,48.737 l -0.67,-0.795 c -1.857,-2.153 -3.462,-4.015 -3.484,-6.633 1.129,-5.25 2.674,-10.142 4.17,-14.872 C -2.648,17.84 -0.082,9.718 0,0 m 68.716,-48.052 c -2.173,0 -4.322,0.094 -6.39,0.28 -4.935,0.441 -9.879,1.403 -14.695,2.86 -1.543,0.468 -3.097,0.993 -4.621,1.561 -5.962,2.516 -11.947,5.899 -17.811,10.062 -1.506,1.07 -2.858,2.085 -4.132,3.103 l -1.486,1.448 c -3.079,3.003 -6.262,6.109 -9.358,9.436 -1.281,1.376 -2.435,2.669 -3.528,3.952 -2.385,3.375 -4.452,7.111 -6.172,11.143 -0.543,1.272 -1.061,2.597 -1.54,3.937 l -0.031,0.173 c -0.065,9.6 -2.616,17.672 -5.317,26.218 -1.508,4.77 -3.067,9.704 -4.207,15.024 l -0.011,0.109 c 0,3.037 1.815,5.143 3.738,7.373 l 0.61,0.71 c 0.896,1.581 1.598,3.162 2.091,4.753 1.659,4.555 3.618,8.716 5.691,13.121 0.457,0.969 0.916,1.943 1.373,2.925 0.622,1.336 1.24,2.688 1.848,4.067 5.107,12.081 14.141,19.304 22.878,26.289 l 0.593,0.475 c 1.109,0.885 2.223,1.776 3.337,2.679 8.895,5.111 19.384,5.123 29.528,5.133 4.428,0.005 9.007,0.01 13.372,0.438 1.745,-0.078 3.388,-0.197 4.962,-0.352 1.658,-0.163 3.309,-0.372 4.908,-0.622 l 0.194,-0.073 c 4.24,-2.619 9.319,-4.261 14.231,-5.85 9.627,-3.113 19.582,-6.333 24.134,-17.014 1.25,-1.296 2.439,-2.587 3.536,-3.839 1.193,-1.362 2.314,-2.722 3.334,-4.044 1.158,-1.516 2.176,-2.902 3.117,-4.24 2.283,-3.162 4.444,-6.459 6.42,-9.795 0.661,-1.117 1.304,-2.241 1.936,-3.378 4.717,-8.846 8.504,-16.897 7.1,-25.929 -0.168,-1.825 -0.391,-3.324 -0.678,-4.553 -0.87,-3.452 -1.382,-6.954 -1.877,-10.342 -0.718,-4.906 -1.396,-9.541 -3.059,-14.028 -0.32,-1.582 -0.739,-3.222 -1.22,-4.796 -2.799,-9.141 -8.062,-17.425 -15.644,-24.622 -1.176,-1.116 -2.52,-2.266 -4.371,-3.112 -9.693,-3.108 -17.106,-10.522 -24.277,-17.692 -2.83,-2.129 -5.618,-2.395 -7.739,-2.395 -0.996,0 -2.008,0.065 -2.987,0.128 -0.785,0.052 -1.574,0.102 -2.368,0.122 -0.601,0.125 -1.138,0.18 -1.746,0.18 -0.975,0 -1.973,-0.138 -3.029,-0.285 l -0.114,-0.016 c -3.462,-0.479 -7.003,-0.722 -10.523,-0.722" style="fill:#6a290b;fill-opacity:1;fill-rule:nonzero;stroke:none" id="path246"/>
        </g>
        <g id="g248" transform="translate(701.873,785.355)">
          <path d="M 0,0 C -1.326,0 -2.706,-0.027 -4.1,-0.08 -6.517,-0.386 -9.01,-0.515 -11.421,-0.641 -17.375,-0.949 -23,-1.24 -28.454,-4.003 c -1.1,-0.512 -2.182,-1.087 -3.233,-1.718 -1.018,-0.612 -2.038,-1.294 -3.031,-2.027 -0.96,-0.708 -1.92,-1.484 -2.855,-2.308 -3.981,-2.356 -6.227,-5.944 -8.401,-9.412 -1.074,-1.716 -2.185,-3.49 -3.477,-5.072 -0.591,-0.872 -1.197,-1.784 -1.792,-2.7 -0.797,-1.223 -1.572,-2.453 -2.342,-3.691 -3.881,-5.548 -6.895,-11.403 -8.973,-17.427 -0.496,-1.437 -0.973,-2.966 -1.417,-4.543 l -0.046,-0.113 c -4.703,-8.461 -2.44,-17.03 -0.252,-25.317 1.345,-5.095 2.736,-10.364 2.519,-15.581 0.21,-1.741 0.698,-3.294 1.364,-5.065 1.959,-4.95 4.465,-9.403 7.449,-13.227 1.114,-1.472 2.298,-2.923 3.524,-4.319 2.43,-2.767 5.126,-5.433 8.014,-7.926 1.289,-0.953 2.716,-1.928 4.334,-2.957 5.188,-3.302 11.215,-6.465 18.968,-9.954 1.404,-0.469 2.872,-0.906 4.316,-1.279 1.483,-0.384 2.984,-0.712 4.461,-0.975 2.05,-0.376 4.155,-0.663 6.26,-0.853 4.941,-0.447 10.018,-0.371 14.934,0.222 1.408,0.169 2.8,0.368 4.137,0.589 l 0.084,0.014 0.082,-0.013 c 0.764,-0.12 1.54,-0.18 2.304,-0.18 5.896,0 10.876,3.491 16.148,7.188 4.289,3.007 8.723,6.115 13.766,7.256 1.556,1.133 3.019,2.305 4.348,3.486 5.84,5.184 10.383,11.081 13.501,17.526 0.718,1.483 1.366,3.011 1.925,4.542 l 0.05,0.101 c 3.54,5.571 4.135,11.516 4.764,17.81 0.394,3.93 0.801,7.994 1.984,11.99 0.308,1.239 0.603,2.483 0.872,3.704 0.131,1.058 0.094,2.411 -0.123,4.088 -0.761,5.778 -3.051,10.872 -5.476,16.265 -0.61,1.359 -1.227,2.734 -1.829,4.137 -0.739,1.005 -1.489,2.015 -2.246,3.028 -2.719,3.633 -5.015,6.57 -7.223,9.243 -1.108,1.353 -2.257,2.711 -3.418,4.037 -1.408,1.785 -2.928,3.475 -4.666,5.185 l -0.221,0.216 c -0.745,0.733 -1.517,1.491 -2.128,2.271 -5.235,7.247 -13.935,10.14 -22.349,12.938 -2.415,0.803 -4.912,1.634 -7.254,2.548 -1.55,0.663 -2.953,0.892 -4.257,1.07 -4.482,0.782 -9.067,1.174 -14.037,1.204 z m 3.351,-141.803 c -2.168,0 -4.359,0.098 -6.51,0.292 -2.136,0.193 -4.273,0.484 -6.351,0.865 -1.501,0.268 -3.029,0.602 -4.537,0.993 -1.468,0.38 -2.961,0.822 -4.435,1.318 -7.849,3.529 -13.918,6.715 -19.15,10.044 -1.639,1.043 -3.086,2.032 -4.426,3.024 -2.954,2.549 -5.685,5.25 -8.146,8.052 -1.243,1.415 -2.443,2.886 -3.568,4.372 -3.041,3.898 -5.598,8.438 -7.595,13.489 -0.604,1.603 -1.193,3.36 -1.431,5.403 0.207,5.141 -1.163,10.332 -2.489,15.353 -2.236,8.47 -4.548,17.227 0.32,26.039 0.445,1.576 0.922,3.104 1.418,4.543 2.11,6.116 5.168,12.058 9.09,17.662 0.758,1.221 1.537,2.457 2.337,3.686 0.598,0.921 1.209,1.839 1.831,2.755 1.279,1.567 2.323,3.235 3.429,5.001 2.24,3.576 4.556,7.273 8.676,9.702 0.878,0.784 1.862,1.58 2.846,2.306 1.02,0.753 2.067,1.453 3.114,2.082 1.082,0.65 2.197,1.242 3.314,1.761 5.637,2.855 11.636,3.166 17.437,3.468 2.392,0.123 4.866,0.252 7.289,0.556 C -2.732,1.021 -1.339,1.048 0,1.048 L 0.615,1.046 c 5.029,-0.03 9.669,-0.427 14.19,-1.216 1.357,-0.185 2.839,-0.428 4.493,-1.135 2.303,-0.899 4.787,-1.726 7.189,-2.525 8.572,-2.85 17.435,-5.797 22.856,-13.301 0.556,-0.712 1.269,-1.412 2.025,-2.154 l 0.22,-0.216 c 1.771,-1.743 3.32,-3.464 4.737,-5.264 1.152,-1.314 2.309,-2.68 3.422,-4.04 2.218,-2.684 4.524,-5.633 7.253,-9.28 0.771,-1.033 1.534,-2.061 2.287,-3.085 l 0.061,-0.104 c 0.605,-1.417 1.228,-2.803 1.844,-4.175 2.458,-5.465 4.779,-10.628 5.56,-16.559 0.228,-1.768 0.265,-3.208 0.114,-4.402 -0.278,-1.278 -0.576,-2.531 -0.892,-3.801 -1.161,-3.923 -1.563,-7.937 -1.951,-11.819 -0.613,-6.122 -1.247,-12.452 -4.893,-18.22 -0.567,-1.546 -1.221,-3.089 -1.945,-4.586 -3.181,-6.57 -7.806,-12.576 -13.749,-17.853 -1.38,-1.226 -2.9,-2.442 -4.518,-3.613 l -0.195,-0.088 c -4.882,-1.076 -9.261,-4.146 -13.495,-7.115 -5.174,-3.628 -10.524,-7.379 -16.751,-7.379 -0.79,0 -1.591,0.061 -2.381,0.18 -1.327,-0.218 -2.705,-0.414 -4.101,-0.582 -2.849,-0.343 -5.757,-0.517 -8.644,-0.517" style="fill:#6a290b;fill-opacity:1;fill-rule:nonzero;stroke:none" id="path250"/>
        </g>
        <g id="g252" transform="translate(688.436,778.4062)">
          <path d="m 0,0 c -1.799,-0.109 -3.591,-0.372 -5.329,-0.783 -3.357,-0.793 -6.623,-2.165 -9.71,-4.079 -1.479,-0.916 -2.93,-1.965 -4.314,-3.118 -3.851,-3.618 -7.428,-7.782 -10.585,-12.333 -0.619,-0.893 -1.219,-1.797 -1.803,-2.712 -4.988,-8.11 -8.655,-16.257 -10.888,-24.199 -0.482,-1.713 -0.903,-3.441 -1.251,-5.134 -2.113,-9.74 -0.49,-19.296 1.08,-28.537 l 0.358,-2.115 c 0.388,-1.633 0.857,-3.275 1.38,-4.814 2.312,-6.806 5.807,-12.51 10.384,-16.954 1.184,-1.292 2.404,-2.534 3.67,-3.737 1.238,-1.177 2.551,-2.347 3.902,-3.476 1.156,-0.902 2.417,-1.823 3.721,-2.716 4.883,-3.344 10.465,-6.368 16.589,-8.987 1.124,-0.368 2.332,-0.708 3.506,-0.981 1.847,-0.509 3.699,-0.93 5.546,-1.266 8.468,-1.536 17.383,-1.342 25.756,0.567 1.507,0.336 2.909,0.642 4.132,0.882 2.478,1.114 4.928,1.959 7.297,2.776 3.843,1.324 7.472,2.576 10.865,4.823 l 0.103,0.06 c 1.514,0.771 2.882,1.62 4.434,2.752 5.44,3.965 9.91,8.815 13.287,14.415 0.401,0.652 0.782,1.307 1.176,1.983 0.622,1.068 1.266,2.173 2.048,3.388 5.96,9.172 6.315,20.423 6.659,31.304 l 0.084,2.214 c 0.24,1.311 0.462,2.591 0.653,3.842 l 0.036,0.227 0.127,0.192 c 1.013,1.537 0.738,3.615 0.483,4.717 -0.245,0.977 -0.577,2.02 -1.009,3.169 -0.609,1.627 -1.342,3.264 -2.052,4.846 -0.68,1.521 -1.383,3.093 -1.977,4.653 -0.878,1.402 -1.816,2.821 -2.789,4.219 -4.557,6.544 -9.838,12.588 -15.694,17.964 -1.181,1.084 -2.401,2.154 -3.625,3.178 -7.574,6.455 -13.458,9.906 -19.683,11.547 l -0.128,0.043 c -1.307,0.53 -2.68,1.07 -3.85,1.319 -1.23,0.259 -2.493,0.473 -3.75,0.636 -1.944,0.337 -3.827,0.59 -5.638,0.76 L 22.952,0.589 C 21.326,1.158 19.538,1.435 17.485,1.435 15.003,1.435 12.426,1.029 9.934,0.638 7.465,0.249 4.911,-0.152 2.469,-0.152 1.589,-0.152 0.781,-0.103 0,0 m 17.748,-129.067 c -3.984,0 -7.976,0.358 -11.866,1.063 -1.909,0.347 -3.823,0.783 -5.687,1.297 -1.195,0.277 -2.465,0.635 -3.732,1.054 -6.334,2.705 -12.036,5.795 -17.032,9.216 -1.341,0.917 -2.637,1.865 -3.854,2.816 -1.412,1.179 -2.759,2.379 -4.03,3.587 -1.3,1.236 -2.555,2.513 -3.728,3.797 -4.775,4.632 -8.445,10.615 -10.865,17.738 -0.544,1.602 -1.033,3.31 -1.451,5.075 l -0.37,2.178 c -1.603,9.437 -3.26,19.197 -1.064,29.321 0.356,1.731 0.788,3.508 1.284,5.269 2.286,8.129 6.031,16.453 11.129,24.743 0.607,0.953 1.223,1.879 1.857,2.794 3.242,4.673 6.915,8.949 10.919,12.709 1.506,1.256 3.037,2.363 4.599,3.33 3.279,2.033 6.755,3.492 10.332,4.337 1.888,0.447 3.837,0.73 5.79,0.842 L 0.082,2.104 0.182,2.09 C 0.899,1.992 1.647,1.944 2.469,1.944 c 2.278,0 4.64,0.371 7.14,0.764 2.572,0.405 5.231,0.823 7.876,0.823 2.242,0 4.217,-0.302 6.036,-0.921 1.828,-0.174 3.723,-0.431 5.633,-0.763 1.265,-0.163 2.584,-0.387 3.869,-0.657 1.319,-0.281 2.768,-0.845 4.144,-1.403 6.525,-1.733 12.641,-5.311 20.435,-11.955 1.243,-1.04 2.486,-2.13 3.691,-3.236 5.968,-5.479 11.352,-11.639 15.997,-18.31 1.013,-1.455 1.989,-2.933 2.901,-4.393 l 0.092,-0.186 c 0.578,-1.534 1.253,-3.04 1.967,-4.634 0.721,-1.612 1.467,-3.279 2.1,-4.967 0.46,-1.223 0.814,-2.339 1.084,-3.413 0.551,-2.386 0.319,-4.556 -0.644,-6.16 -0.184,-1.177 -0.393,-2.381 -0.617,-3.61 l -0.064,-1.98 c -0.336,-10.648 -0.718,-22.716 -6.994,-32.377 -0.756,-1.171 -1.386,-2.255 -1.997,-3.304 -0.403,-0.69 -0.792,-1.359 -1.196,-2.017 -3.519,-5.833 -8.177,-10.89 -13.843,-15.02 -1.607,-1.171 -3.09,-2.093 -4.665,-2.898 -3.6,-2.374 -7.336,-3.662 -11.289,-5.025 -2.361,-0.814 -4.801,-1.656 -7.229,-2.754 l -0.231,-0.074 c -1.234,-0.241 -2.661,-0.552 -4.191,-0.893 -4.797,-1.094 -9.754,-1.648 -14.726,-1.648" style="fill:#6a290b;fill-opacity:1;fill-rule:nonzero;stroke:none" id="path254"/>
        </g>
        <g id="g256" transform="translate(695.3379,774.8525)">
          <path d="m 0,0 c -4.833,0 -9.497,-0.849 -13.863,-2.523 -1.607,-0.616 -3.195,-1.353 -4.72,-2.191 -5.51,-3.989 -10.6,-8.989 -15.072,-14.826 -1.11,-1.448 -2.176,-2.945 -3.167,-4.448 -0.435,-1.014 -0.918,-2.107 -1.401,-3.201 -3.343,-7.571 -6.799,-15.397 -8.602,-23.518 -0.367,-1.653 -0.635,-3.182 -0.821,-4.673 -1.315,-4.534 -0.451,-9.232 0.385,-13.774 0.276,-1.497 0.56,-3.044 0.763,-4.56 0.346,-1.438 0.77,-2.934 1.251,-4.393 2.445,-7.435 6.391,-14.291 11.726,-20.382 0.968,-1.045 2.034,-2.146 3.158,-3.259 1.079,-1.07 2.176,-2.118 3.281,-3.148 1.161,-1.049 2.337,-2.041 3.49,-2.94 3.879,-3.028 7.767,-5.267 11.884,-6.843 1.663,-0.667 3.369,-1.261 5.08,-1.769 9.054,-2.685 18.865,-3.08 28.109,-1.151 1.257,0.263 2.521,0.571 3.756,0.918 14.14,3.31 25.722,10.72 32.634,20.869 0.806,1.145 1.787,2.317 2.827,3.559 0.405,0.482 0.819,0.976 1.234,1.483 5.471,6.495 5.362,14.824 5.256,22.878 -0.052,3.852 -0.104,7.835 0.475,11.497 0.097,1.192 0.205,2.644 0.254,4.075 l 0.042,2.528 c 0.033,2.228 0.061,3.986 0.165,6.468 -0.097,0.887 -0.51,1.979 -0.908,2.929 -0.952,1.316 -1.921,2.624 -2.908,3.921 -9.419,12.39 -19.971,23.285 -30.513,31.509 -1.288,0.642 -2.763,1.292 -4.298,1.878 -4.562,1.743 -9.27,2.796 -13.996,3.129 C 14.035,0.207 12.576,0.314 11.14,0.363 9.686,0.411 8.224,0.403 6.759,0.334 5.288,0.264 3.806,0.133 2.354,-0.057 1.498,-0.02 0.745,0 0,0 m 9.709,-119.857 c -5.657,0 -11.254,0.809 -16.635,2.404 -1.742,0.517 -3.48,1.122 -5.164,1.798 -4.209,1.612 -8.184,3.899 -12.146,6.992 -1.173,0.915 -2.369,1.923 -3.555,2.995 -1.204,1.122 -2.285,2.159 -3.31,3.175 -1.135,1.124 -2.211,2.236 -3.198,3.303 -5.439,6.207 -9.454,13.187 -11.944,20.755 -0.489,1.487 -0.922,3.011 -1.284,4.53 -0.209,1.542 -0.492,3.076 -0.765,4.561 -0.858,4.663 -1.745,9.485 -0.376,14.176 0.171,1.441 0.445,3.002 0.819,4.689 1.826,8.221 5.304,16.097 8.667,23.712 0.483,1.094 0.965,2.185 1.442,3.277 1.048,1.603 2.129,3.12 3.253,4.588 4.534,5.918 9.697,10.989 15.345,15.071 1.621,0.895 3.253,1.654 4.903,2.287 5.177,1.984 10.709,2.841 16.553,2.53 1.384,0.19 2.895,0.324 4.396,0.395 1.492,0.071 2.982,0.079 4.465,0.029 1.464,-0.049 2.952,-0.159 4.423,-0.325 4.804,-0.338 9.614,-1.413 14.273,-3.192 1.569,-0.6 3.078,-1.265 4.483,-1.978 10.698,-8.333 21.315,-19.294 30.789,-31.754 1.003,-1.321 1.99,-2.652 2.957,-3.99 l 0.058,-0.104 c 0.436,-1.034 0.895,-2.242 1.011,-3.359 -0.102,-2.543 -0.128,-4.296 -0.162,-6.516 l -0.042,-2.54 c -0.05,-1.462 -0.16,-2.928 -0.262,-4.172 -0.57,-3.613 -0.521,-7.375 -0.468,-11.358 0.109,-8.247 0.221,-16.774 -5.497,-23.562 -0.414,-0.504 -0.83,-1.001 -1.236,-1.486 -1.025,-1.225 -1.994,-2.381 -2.769,-3.482 -7.055,-10.361 -18.86,-17.924 -33.234,-21.288 -1.237,-0.347 -2.523,-0.662 -3.803,-0.929 -3.919,-0.818 -7.952,-1.232 -11.987,-1.232" style="fill:#6a290b;fill-opacity:1;fill-rule:nonzero;stroke:none" id="path258"/>
        </g>
        <g id="g260" transform="translate(668.5513,681.3735)">
          <path d="m 0,0 c 0.929,-1.073 1.917,-2.085 3.015,-3.089 4.171,-3.816 9.13,-6.718 14.379,-9.79 l 0.503,-0.295 c 1.608,-0.729 3.321,-1.404 5.045,-1.979 5.339,-1.784 10.927,-2.688 16.61,-2.688 1.532,0 3.08,0.068 4.601,0.199 1.5,0.131 3.011,0.329 4.489,0.587 8.108,1.676 19.633,5.361 28.408,13.388 1.308,1.196 2.543,2.461 3.67,3.76 l 0.145,0.116 c 12.434,6.818 11.909,22.501 10.442,36.665 0.098,2.179 0.132,4.011 0.102,5.679 0.223,3.307 0.199,5.338 -0.095,7.757 -0.542,1.194 -1.475,2.503 -2.376,3.769 C 79.417,67.262 69.676,79.422 55.25,83.337 53.625,83.776 51.894,84.186 49.803,84.629 40.577,86.916 31.144,86.745 22.864,84.141 21.126,83.594 19.422,82.936 17.799,82.184 16.306,81.378 14.796,80.452 13.338,79.445 11.909,78.456 10.499,77.367 9.148,76.208 5.532,72.597 2.287,68.316 -0.468,63.511 -1.343,62.021 -2.18,60.464 -3.029,58.745 -3.345,57.926 -3.682,57.07 -4.017,56.217 -6.332,50.329 -8.519,44.767 -9.682,38.73 -10.032,36.916 -10.265,35.186 -10.395,33.441 -11.023,22.792 -10.415,11.729 -1.77,3.026 -0.949,1.871 -0.401,0.927 0,0 m 39.552,-18.889 c -5.797,0 -11.496,0.922 -16.942,2.742 -1.759,0.587 -3.506,1.274 -5.194,2.044 l -0.551,0.319 c -5.299,3.102 -10.304,6.031 -14.557,9.921 -1.151,1.052 -2.183,2.112 -3.155,3.239 l -0.085,0.138 c -0.375,0.882 -0.895,1.784 -1.638,2.841 -8.878,8.927 -9.514,20.254 -8.871,31.156 0.134,1.794 0.372,3.563 0.73,5.418 1.182,6.131 3.386,11.737 5.719,17.672 0.335,0.851 0.671,1.706 1.005,2.566 0.879,1.784 1.727,3.363 2.612,4.87 2.799,4.881 6.101,9.235 9.812,12.939 1.407,1.21 2.846,2.321 4.306,3.331 1.488,1.029 3.032,1.976 4.588,2.814 1.691,0.785 3.438,1.459 5.219,2.02 8.461,2.663 18.112,2.835 27.488,0.509 2.092,-0.442 3.842,-0.857 5.486,-1.3 14.757,-4.006 24.628,-16.316 34.266,-29.661 0.952,-1.335 1.934,-2.714 2.514,-4.024 l 0.041,-0.149 c 0.312,-2.527 0.34,-4.618 0.111,-7.99 0.032,-1.645 -0.003,-3.499 -0.105,-5.623 1.498,-14.389 2.012,-30.418 -10.899,-37.567 -1.138,-1.305 -2.38,-2.574 -3.694,-3.776 -8.951,-8.189 -20.667,-11.939 -28.919,-13.644 -1.524,-0.268 -3.066,-0.469 -4.596,-0.602 -1.551,-0.134 -3.129,-0.203 -4.691,-0.203" style="fill:#6a290b;fill-opacity:1;fill-rule:nonzero;stroke:none" id="path262"/>
        </g>
        <g id="g264" transform="translate(707.6924,761.9121)">
          <path d="m 0,0 c -2.267,0 -4.582,-0.209 -6.88,-0.623 -1.693,-0.303 -3.401,-0.723 -5.077,-1.245 -8.293,-2.744 -15.18,-8.588 -20.462,-17.365 -0.943,-1.568 -1.841,-3.246 -2.671,-4.986 -2.666,-5.579 -3.947,-11.03 -5.186,-16.302 -0.446,-1.895 -0.906,-3.856 -1.421,-5.767 -0.275,-1.795 -0.512,-3.671 -0.693,-5.517 -0.602,-8.449 1.204,-15.039 5.522,-20.131 2.117,-3.068 4.563,-5.847 7.3,-8.301 8.51,-7.63 19.498,-11.831 30.938,-11.831 1.583,0 3.178,0.08 4.741,0.239 1.514,0.154 3.068,0.388 4.619,0.695 7.759,1.135 14.896,4.265 20.664,9.056 1.129,0.939 2.225,1.957 3.252,3.025 l 0.145,0.105 c 13.582,6.771 13.474,21.36 12.305,34.502 -0.01,1.428 -0.063,2.769 -0.159,4.029 -0.267,1.231 -0.442,2.478 -0.61,3.684 -0.281,2.017 -0.546,3.923 -1.254,5.718 l -0.031,0.113 c -0.207,1.336 -0.842,2.754 -1.938,4.334 -4.728,6.57 -11.465,12.776 -20.019,18.438 -1.497,0.992 -3.081,1.985 -4.704,2.953 C 12.838,-1.74 6.657,0 0,0 m 1.37,-93.117 c -11.699,0 -22.935,4.297 -31.638,12.1 -2.798,2.509 -5.299,5.35 -7.432,8.445 -4.471,5.27 -6.358,12.105 -5.734,20.855 0.184,1.88 0.424,3.775 0.713,5.646 0.522,1.95 0.981,3.903 1.425,5.791 1.252,5.325 2.545,10.832 5.26,16.512 0.844,1.771 1.759,3.478 2.72,5.075 5.414,8.999 12.492,14.996 21.039,17.823 1.725,0.538 3.475,0.968 5.211,1.28 2.36,0.423 4.738,0.638 7.066,0.638 6.855,0 13.222,-1.793 18.926,-5.33 1.629,-0.97 3.226,-1.973 4.739,-2.974 8.658,-5.733 15.486,-12.027 20.294,-18.707 1.181,-1.698 1.869,-3.241 2.109,-4.722 0.739,-1.894 1.01,-3.842 1.297,-5.903 0.166,-1.188 0.337,-2.416 0.607,-3.679 0.108,-1.355 0.162,-2.721 0.17,-4.13 1.194,-13.417 1.289,-28.367 -12.802,-35.448 -1.037,-1.072 -2.14,-2.094 -3.277,-3.039 -5.917,-4.914 -13.232,-8.124 -21.154,-9.282 -1.558,-0.31 -3.145,-0.549 -4.691,-0.706 -1.599,-0.162 -3.23,-0.245 -4.848,-0.245" style="fill:#6a290b;fill-opacity:1;fill-rule:nonzero;stroke:none" id="path266"/>
        </g>
        <g id="g268" transform="translate(748.6699,715.9478)">
          <path d="m 0,0 c 2.597,-10.855 2.597,-25.53 -10.879,-28.897 -1.178,-1.149 -2.391,-2.245 -3.644,-3.275 -5.02,-4.122 -10.914,-7.026 -17.983,-8.118 -1.334,-0.276 -2.687,-0.487 -4.059,-0.629 -1.374,-0.143 -2.768,-0.216 -4.179,-0.216 -12.411,0 -23.531,5.645 -31.025,14.555 -1.249,1.484 -2.397,3.06 -3.43,4.717 -0.941,1.703 -1.746,3.469 -2.418,5.28 -0.671,1.811 -1.209,3.667 -1.569,5.566 0.027,22.172 10.509,52.569 38.16,52.146 1.575,-0.044 3.147,-0.189 4.703,-0.441 4.668,-0.758 9.18,-2.483 13.216,-5.295 1.366,-0.877 2.687,-1.826 3.964,-2.837 5.591,-4.423 10.358,-10.032 14.527,-15.994 0.8,-1.205 1.199,-2.594 1.477,-4.038 1.543,-2.417 1.543,-5.561 2.593,-8.147 C -0.321,2.985 -0.132,1.533 0,0" style="fill:#eeb767;fill-opacity:1;fill-rule:nonzero;stroke:none" id="path270"/>
        </g>
        <g id="g272" transform="translate(707.0742,756.5571)">
          <path d="m 0,0 c -27.148,0 -37.041,-30.875 -37.065,-51.626 0.328,-1.684 0.847,-3.528 1.535,-5.385 0.668,-1.8 1.47,-3.552 2.385,-5.208 0.995,-1.594 2.134,-3.161 3.373,-4.634 7.68,-9.13 18.841,-14.367 30.624,-14.367 1.377,0 2.764,0.071 4.124,0.213 1.336,0.138 2.684,0.347 4.007,0.621 6.641,1.026 12.441,3.644 17.756,8.01 1.201,0.986 2.416,2.078 3.613,3.245 l 0.101,0.098 0.137,0.034 c 14.697,3.674 12.236,20.992 10.496,28.268 -0.133,1.476 -0.308,2.878 -0.544,4.358 -0.432,1.08 -0.69,2.251 -0.94,3.384 -0.356,1.607 -0.723,3.269 -1.587,4.622 l -0.073,0.183 c -0.219,1.141 -0.577,2.609 -1.4,3.848 -4.703,6.727 -9.421,11.921 -14.414,15.871 -1.279,1.013 -2.6,1.958 -3.923,2.807 -3.862,2.691 -8.236,4.443 -13.017,5.219 -1.511,0.245 -3.07,0.392 -4.633,0.435 z m 0.852,-82.268 c -12.092,0 -23.546,5.372 -31.426,14.741 -1.271,1.51 -2.439,3.117 -3.474,4.777 -0.954,1.726 -1.779,3.526 -2.464,5.375 -0.709,1.912 -1.244,3.812 -1.592,5.651 C -38.088,-30.452 -27.917,1.048 0,1.048 L 0.578,1.043 C 2.193,0.999 3.799,0.848 5.356,0.596 c 4.937,-0.802 9.457,-2.612 13.432,-5.383 1.336,-0.857 2.684,-1.821 3.991,-2.856 5.074,-4.014 9.86,-9.281 14.63,-16.104 0.908,-1.367 1.303,-2.919 1.544,-4.142 0.924,-1.489 1.304,-3.209 1.672,-4.874 0.256,-1.161 0.499,-2.258 0.91,-3.272 l 0.031,-0.113 c 0.247,-1.528 0.428,-2.972 0.551,-4.416 5.384,-22.476 -5.874,-28.055 -11.135,-29.416 -1.185,-1.15 -2.388,-2.229 -3.578,-3.207 -5.465,-4.487 -11.428,-7.18 -18.234,-8.23 -1.332,-0.276 -2.715,-0.491 -4.086,-0.633 -1.395,-0.145 -2.818,-0.218 -4.232,-0.218" style="fill:#6a290b;fill-opacity:1;fill-rule:nonzero;stroke:none" id="path274"/>
        </g>
        <g id="g276" transform="translate(745.9414,715.5605)">
          <path d="m 0,0 c 2.181,-9.42 0.084,-20.95 -10.834,-24.055 -1.547,-0.797 -2.892,-1.878 -4.296,-2.864 -1.041,-0.758 -2.117,-1.464 -3.224,-2.106 -1.107,-0.642 -2.222,-1.208 -3.35,-1.695 -4.415,-2.807 -8.608,-1.759 -13.088,-2.903 -2.205,-0.005 -4.331,0.189 -6.333,0.547 -2.001,0.358 -3.942,0.886 -5.811,1.57 -1.245,0.456 -2.457,0.981 -3.629,1.569 -4.371,1.985 -7.976,4.85 -10.81,8.287 -0.945,1.147 -1.804,2.356 -2.578,3.618 -1.038,1.49 -1.92,3.094 -2.65,4.781 -0.73,1.687 -1.302,3.459 -1.671,5.298 -1.867,19.495 8.614,45.7 32.721,43.603 3.145,0 6.289,-2.096 8.971,-3.21 1.634,-0.852 3.329,-1.769 5.145,-2.555 1.537,-0.885 3.037,-1.854 4.495,-2.903 3.644,-2.621 7.032,-5.743 10.096,-9.123 1.022,-1.127 2.006,-2.282 2.952,-3.458 1.882,-2.859 2.93,-6.003 2.859,-8.714 C -0.577,3.915 -0.226,2.023 0,0" style="fill:#eeb767;fill-opacity:1;fill-rule:nonzero;stroke:none" id="path278"/>
        </g>
        <g id="g280" transform="translate(678.7056,707.7617)">
          <path d="m 0,0 c 0.343,-1.688 0.879,-3.382 1.595,-5.037 0.712,-1.645 1.569,-3.191 2.548,-4.596 0.786,-1.28 1.624,-2.456 2.526,-3.552 2.853,-3.459 6.363,-6.15 10.434,-7.998 1.179,-0.59 2.363,-1.103 3.558,-1.54 1.824,-0.667 3.719,-1.18 5.634,-1.522 1.957,-0.35 3.982,-0.528 6.019,-0.531 1.658,0.409 3.259,0.538 4.81,0.663 2.696,0.217 5.244,0.422 7.844,2.076 l 0.148,0.078 c 1.08,0.467 2.17,1.018 3.239,1.639 1.052,0.61 2.105,1.298 3.134,2.047 0.349,0.246 0.681,0.487 1.012,0.728 1.071,0.777 2.177,1.58 3.42,2.221 l 0.194,0.076 c 9.968,2.835 12.256,13.499 10.098,22.81 l -0.02,0.121 c -0.213,1.916 -0.551,3.78 -1.007,5.541 l -0.037,0.142 0.003,0.148 c 0.066,2.462 -0.912,5.418 -2.685,8.11 -0.887,1.094 -1.868,2.241 -2.854,3.33 -3.167,3.494 -6.508,6.514 -9.932,8.976 -1.407,1.013 -2.872,1.96 -4.353,2.817 -1.567,0.68 -3.028,1.446 -4.441,2.187 l -0.718,0.376 c -0.658,0.269 -1.406,0.635 -2.198,1.023 -2.075,1.017 -4.22,2.068 -6.288,2.068 C 30.72,42.48 29.847,42.519 29,42.519 21.573,42.519 15.221,39.673 10.12,34.06 2.776,25.979 -1.193,12.616 0,0 m 32.359,-26.872 c -2.175,0 -4.34,0.189 -6.432,0.563 -2.035,0.364 -4.05,0.908 -5.987,1.618 -1.27,0.464 -2.527,1.008 -3.74,1.617 -4.327,1.964 -8.091,4.848 -11.148,8.556 -0.965,1.17 -1.861,2.428 -2.662,3.738 -1.026,1.468 -1.952,3.138 -2.719,4.911 -0.781,1.806 -1.366,3.659 -1.737,5.509 l -0.016,0.106 c -1.263,13.192 2.917,27.214 10.65,35.724 6.061,6.668 14.122,9.813 23.207,9.023 h 0.011 c 2.46,0 4.929,-1.21 7.108,-2.278 0.762,-0.373 1.481,-0.725 2.162,-1.008 l 0.804,-0.416 c 1.396,-0.732 2.841,-1.489 4.356,-2.145 l 0.107,-0.054 c 1.559,-0.899 3.101,-1.895 4.582,-2.96 3.543,-2.548 6.995,-5.667 10.262,-9.271 1.013,-1.118 2.02,-2.297 2.992,-3.503 2.054,-3.114 3.13,-6.364 3.092,-9.25 0.457,-1.796 0.8,-3.69 1.019,-5.633 2.35,-10.232 -0.293,-21.961 -11.478,-25.209 -1.066,-0.56 -2.034,-1.264 -3.059,-2.008 -0.34,-0.247 -0.681,-0.494 -1.025,-0.736 -1.072,-0.781 -2.188,-1.509 -3.3,-2.155 -1.116,-0.648 -2.255,-1.226 -3.385,-1.718 -3.015,-1.892 -5.921,-2.126 -8.731,-2.352 -1.573,-0.126 -3.058,-0.246 -4.589,-0.636 z" style="fill:#6a290b;fill-opacity:1;fill-rule:nonzero;stroke:none" id="path282"/>
        </g>
        <g id="g284" transform="translate(706.4238,745.2617)">
          <path d="m 0,0 c -1.879,0 -3.612,-0.274 -5.303,-0.837 -10.955,-3.913 -19.618,-19.724 -15.135,-39.403 0.827,-1.809 1.778,-3.543 2.792,-5.052 4.206,-7.055 10.79,-10.62 19.584,-10.62 10.829,0 22.067,5.37 27.801,8.57 0.921,0.643 1.797,1.509 2.562,2.547 2.952,4.013 3.78,9.981 2.012,14.512 l -0.032,0.119 c -0.222,1.614 -0.555,3.211 -1.017,4.88 -0.467,1.57 -0.913,3.187 -1.355,4.793 l -0.096,0.343 c -0.455,1.655 -1.393,2.94 -2.338,4.082 -2.134,2.581 -4.44,4.879 -6.852,6.832 -1.276,1.033 -2.603,1.983 -3.941,2.824 -0.878,0.481 -1.727,0.962 -2.539,1.424 -1.208,0.685 -2.349,1.332 -3.462,1.91 C 8.894,-1.6 4.428,0 0,0 m 1.938,-56.96 c -9.189,0 -16.076,3.737 -20.469,11.107 -1.032,1.534 -2.011,3.319 -2.896,5.281 -3.656,15.999 1.27,35.543 15.782,40.725 1.785,0.596 3.679,0.895 5.645,0.895 4.61,0 9.187,-1.636 13.113,-3.17 1.181,-0.61 2.33,-1.263 3.546,-1.953 0.81,-0.459 1.654,-0.938 2.554,-1.432 1.399,-0.878 2.76,-1.853 4.069,-2.912 2.467,-1.997 4.822,-4.345 7,-6.979 1.02,-1.232 2.033,-2.626 2.543,-4.472 l 0.094,-0.342 c 0.441,-1.599 0.885,-3.21 1.352,-4.783 0.471,-1.703 0.811,-3.325 1.041,-4.965 1.861,-4.841 0.975,-11.187 -2.167,-15.457 -0.832,-1.13 -1.791,-2.077 -2.851,-2.812 -5.867,-3.278 -17.291,-8.731 -28.356,-8.731" style="fill:#6a290b;fill-opacity:1;fill-rule:nonzero;stroke:none" id="path286"/>
        </g>
        <g id="g288" transform="translate(736.3418,716.0322)">
          <path d="m 0,0 c 1.299,-13.036 -12.327,-18.277 -22.809,-21.421 -6.289,-1.049 -12.577,2.096 -17.818,6.288 -4.192,5.241 -6.289,11.53 -5.993,18.023 0.182,2.228 0.527,4.231 0.982,6.019 1.343,5.306 4.487,10.023 9.203,12.643 7.337,3.145 16.771,1.049 22.861,-3.092 1.084,-0.74 2.134,-1.577 3.149,-2.511 1.356,-1.113 2.628,-2.323 3.836,-3.579 1.208,-1.258 2.351,-2.562 3.442,-3.863 1.09,-1.301 1.872,-2.96 2.523,-4.753 C -0.313,2.417 -0.119,1.203 0,0" style="fill:#eeb767;fill-opacity:1;fill-rule:nonzero;stroke:none" id="path290"/>
        </g>
        <g id="g292" transform="translate(696.0879,701.272)">
          <path d="m 0,0 c 6.187,-4.936 12.068,-7.026 17.359,-6.145 11.707,3.517 23.579,8.758 22.373,20.853 -0.121,1.23 -0.322,2.437 -0.613,3.688 -0.723,1.979 -1.496,3.439 -2.414,4.535 -1.237,1.474 -2.355,2.729 -3.418,3.836 -1.305,1.358 -2.545,2.515 -3.791,3.537 -1.011,0.929 -2.05,1.758 -3.112,2.484 -4.159,2.828 -9.66,4.517 -14.714,4.517 -2.791,0 -5.362,-0.496 -7.644,-1.474 -4.33,-2.408 -7.508,-6.782 -8.902,-12.29 C -5.348,21.684 -5.674,19.687 -5.843,17.608 -6.133,11.256 -4.113,5.162 0,0 m 14.968,-7.389 c -4.917,0 -10.189,2.223 -15.668,6.607 L -0.782,-0.7 c -4.299,5.373 -6.41,11.727 -6.107,18.374 0.176,2.158 0.511,4.211 0.997,6.124 1.465,5.792 4.824,10.399 9.456,12.973 2.461,1.058 5.173,1.582 8.106,1.582 5.256,0 10.976,-1.757 15.304,-4.699 1.104,-0.755 2.184,-1.616 3.21,-2.558 1.255,-1.03 2.525,-2.215 3.859,-3.603 1.079,-1.123 2.213,-2.396 3.465,-3.889 1,-1.192 1.831,-2.752 2.614,-4.91 0.319,-1.357 0.527,-2.607 0.654,-3.882 C 42.229,0.227 24.967,-4.952 17.596,-7.163 16.694,-7.318 15.831,-7.389 14.968,-7.389" style="fill:#6a290b;fill-opacity:1;fill-rule:nonzero;stroke:none" id="path294"/>
        </g>
        <g id="g296" transform="translate(730.7539,719.2402)">
          <path d="m 0,0 c 2.694,-11.003 -11.979,-18.341 -20.365,-19.389 -3.145,0 -7.337,1.048 -10.482,4.193 -7.337,7.337 -6.288,20.963 2.44,27.69 1.212,0.864 2.394,1.484 3.655,1.891 1.262,0.407 2.62,0.612 4.053,0.583 1.431,-0.029 2.888,-0.289 4.245,-0.79 C -10.932,11.007 -5.691,8.911 -1.625,3.248 -0.839,2.205 -0.278,1.117 0,0" style="fill:#eeb767;fill-opacity:1;fill-rule:nonzero;stroke:none" id="path298"/>
        </g>
        <g id="g300" transform="translate(709.7891,733.6865)">
          <path d="m 0,0 c -1.256,0 -2.476,-0.188 -3.627,-0.56 -1.183,-0.383 -2.332,-0.978 -3.512,-1.819 -4.125,-3.18 -6.701,-8.148 -7.054,-13.62 -0.33,-5.129 1.376,-9.967 4.682,-13.273 2.522,-2.522 6.287,-4.03 10.078,-4.039 5.975,0.757 14.353,4.522 18.143,10.026 1.899,2.757 2.486,5.688 1.746,8.714 -0.253,1.011 -0.769,2.04 -1.535,3.057 -3.273,4.558 -7.374,6.79 -11.717,9.154 -0.973,0.528 -1.958,1.066 -2.954,1.637 -1.186,0.431 -2.595,0.692 -3.995,0.721 z M 0.633,-34.359 H 0.6 c -1.956,0 -6.93,0.423 -10.852,4.346 -3.519,3.519 -5.337,8.652 -4.987,14.081 0.372,5.773 3.097,11.019 7.476,14.394 1.284,0.917 2.527,1.559 3.815,1.975 C -2.694,0.843 -1.365,1.048 0,1.048 L 0.275,1.045 c 1.516,-0.03 3.043,-0.314 4.417,-0.821 1.069,-0.605 2.047,-1.138 3.012,-1.663 4.452,-2.423 8.656,-4.71 12.062,-9.454 0.843,-1.12 1.421,-2.276 1.708,-3.426 0.814,-3.331 0.175,-6.547 -1.9,-9.561 -3.971,-5.765 -12.707,-9.7 -18.909,-10.475 z" style="fill:#6a290b;fill-opacity:1;fill-rule:nonzero;stroke:none" id="path302"/>
        </g>
        <g id="g304" transform="translate(723.7617,720.02)">
          <path d="m 0,0 c -0.795,-8.639 -12.324,-15.976 -19.662,-9.687 -5.24,5.241 -4.192,14.674 3.144,17.818 4.194,1.049 9.434,0 12.99,-4.128 C -1.775,2.899 -0.492,1.526 0,0" style="fill:#eeb767;fill-opacity:1;fill-rule:nonzero;stroke:none" id="path306"/>
        </g>
        <g id="g308" transform="translate(710.3633,728.0059)">
          <path d="m 0,0 c -1.021,0 -2.027,-0.122 -2.992,-0.363 -3.035,-1.308 -5.19,-3.979 -5.829,-7.301 -0.679,-3.523 0.416,-7.126 2.928,-9.638 1.7,-1.454 3.723,-2.206 5.985,-2.206 6.097,0 12.154,5.449 12.774,11.462 -0.457,1.307 -1.587,2.557 -3.275,3.619 L 9.474,-4.325 C 7.071,-1.536 3.706,0 0,0 m 0.092,-20.556 c -2.484,0 -4.799,0.859 -6.696,2.485 -2.789,2.786 -3.991,6.74 -3.247,10.605 0.706,3.669 3.085,6.619 6.526,8.093 5.132,1.313 10.254,-0.437 13.542,-4.209 1.904,-1.214 3.177,-2.68 3.68,-4.243 L 13.93,-7.927 13.921,-8.034 C 13.316,-14.587 6.726,-20.556 0.092,-20.556" style="fill:#6a290b;fill-opacity:1;fill-rule:nonzero;stroke:none" id="path310"/>
        </g>
        <g id="g312" transform="translate(698.9082,826.6597)">
          <path d="m 0,0 c 0,0 -0.082,-0.283 -0.235,-0.813 -0.171,-0.526 -0.481,-1.295 -0.952,-2.22 -0.467,-0.932 -1.161,-1.987 -1.93,-3.194 -0.758,-1.213 -1.67,-2.54 -2.354,-4.111 -0.705,-1.566 -1.083,-3.372 -0.935,-5.332 0.104,-0.942 0.335,-1.903 0.701,-2.87 0.38,-0.957 0.897,-1.893 1.465,-2.829 1.119,-1.878 2.548,-3.716 3.391,-5.918 0.977,-2.187 0.784,-4.699 0.466,-7.011 -0.152,-1.171 -0.338,-2.332 -0.428,-3.478 -0.099,-1.139 -0.101,-2.287 0.221,-3.295 0.534,-2.189 3.033,-2.489 4.924,-3.971 l 0.663,-0.629 c 0.213,-0.217 0.357,-0.499 0.53,-0.75 0.084,-0.15 0.162,-0.209 0.249,-0.435 l 0.141,-0.378 c 0.088,-0.258 0.195,-0.491 0.267,-0.763 0.263,-1.184 0.319,-2.282 0.196,-3.317 -0.171,-2.082 -0.714,-3.942 -0.864,-5.624 -0.031,-0.439 -0.074,-0.873 -0.088,-1.289 0,-0.41 0,-0.811 0.001,-1.201 0.021,-0.787 0.044,-1.548 0.087,-2.259 0.078,-1.425 0.206,-2.668 0.249,-3.702 0.053,-1.03 0.072,-1.846 0.046,-2.401 -0.029,-0.554 -0.042,-0.849 -0.042,-0.849 l -0.105,0.006 c 0,0 -0.014,0.292 -0.04,0.841 -0.026,0.546 -0.12,1.347 -0.271,2.363 -0.143,1.02 -0.316,2.259 -0.513,3.68 -0.085,0.717 -0.178,1.477 -0.225,2.296 -0.015,0.413 -0.032,0.836 -0.05,1.27 0,0.428 0.025,0.855 0.038,1.297 0.091,1.841 0.553,3.702 0.687,5.655 0.103,0.976 -0.001,1.97 -0.162,2.862 -0.059,0.239 -0.174,0.497 -0.259,0.746 l -0.139,0.379 c -0.001,0.028 -0.114,0.175 -0.164,0.258 -0.138,0.189 -0.233,0.41 -0.398,0.586 l -0.52,0.516 c -0.781,0.639 -1.779,1.092 -2.797,1.692 -0.254,0.148 -0.51,0.293 -0.777,0.523 -0.268,0.208 -0.535,0.422 -0.685,0.648 l -0.271,0.335 c -0.165,0.218 -0.168,0.307 -0.259,0.467 -0.157,0.281 -0.255,0.582 -0.335,0.888 -0.614,2.481 0.123,4.84 0.528,7.124 0.215,1.15 0.404,2.302 0.427,3.455 0.023,1.141 -0.216,2.29 -0.629,3.347 -0.844,2.136 -2.283,3.922 -3.563,5.728 -1.279,1.799 -2.383,3.779 -2.587,5.95 -0.018,0.251 -0.037,0.502 -0.055,0.75 -0.022,0.297 0.008,0.529 0.011,0.793 -0.005,0.515 0.089,1.014 0.171,1.504 0.218,0.967 0.516,1.882 0.917,2.697 0.769,1.649 1.723,2.989 2.573,4.143 0.85,1.155 1.569,2.166 2.115,3.026 0.548,0.862 0.909,1.569 1.135,2.071 0.218,0.508 0.335,0.778 0.335,0.778 z" style="fill:#6a290b;fill-opacity:1;fill-rule:nonzero;stroke:none" id="path314"/>
        </g>
        <g id="g316" transform="translate(750.7383,722.439)">
          <path d="m 0,0 c 0,0 0.61,0.122 1.671,0.319 0.52,0.149 1.144,0.243 1.867,0.453 0.726,0.188 1.545,0.401 2.439,0.632 0.909,0.205 1.905,0.416 2.988,0.512 0.539,0.049 1.105,0.02 1.675,0.012 0.568,-0.035 1.148,-0.148 1.731,-0.222 1.141,-0.233 2.305,-0.51 3.501,-0.675 0.599,-0.071 1.199,-0.136 1.801,-0.113 0.302,0.002 0.601,0.031 0.9,0.082 0.299,0.045 0.598,0.073 0.894,0.15 0.594,0.129 1.18,0.276 1.764,0.458 0.583,0.152 1.172,0.327 1.754,0.497 1.172,0.324 2.375,0.627 3.611,0.668 1.236,0.043 2.42,-0.237 3.449,-0.618 0.299,-0.132 0.483,-0.192 0.756,-0.344 0.26,-0.134 0.499,-0.273 0.709,-0.426 0.437,-0.296 0.82,-0.615 1.178,-0.922 0.708,-0.619 1.318,-1.189 1.88,-1.653 0.563,-0.466 1.107,-0.779 1.577,-1 0.475,-0.208 0.88,-0.312 1.16,-0.357 0.282,-0.048 0.432,-0.074 0.432,-0.074 v -0.104 c 0,0 -0.156,-0.007 -0.45,-0.021 -0.295,-0.008 -0.732,0.028 -1.28,0.161 -0.544,0.143 -1.174,0.432 -1.831,0.842 -0.666,0.401 -1.331,0.951 -2.06,1.493 C 31.751,0.017 31.37,0.287 30.961,0.518 30.756,0.64 30.554,0.749 30.353,0.844 30.178,0.946 29.861,1.049 29.676,1.127 28.706,1.432 27.689,1.684 26.609,1.687 24.447,1.701 22.056,0.778 19.552,0.583 18.302,0.458 17.029,0.511 15.827,0.71 14.624,0.897 13.442,1.077 12.294,1.147 11.727,1.146 11.175,1.188 10.635,1.157 10.095,1.087 9.568,1.076 9.058,1.002 8.035,0.865 7.062,0.707 6.163,0.534 5.26,0.361 4.425,0.204 3.673,0.101 2.93,-0.017 2.25,-0.074 1.711,-0.119 0.629,-0.138 0.009,-0.104 0.009,-0.104 Z" style="fill:#6a290b;fill-opacity:1;fill-rule:nonzero;stroke:none" id="path318"/>
        </g>
        <g id="g320" transform="translate(732.4492,667.8662)">
          <path d="m 0,0 c -0.386,-1.309 -0.593,-2.589 -0.43,-3.906 -0.006,-0.654 0.199,-1.299 0.285,-1.943 0.157,-0.638 0.352,-1.269 0.533,-1.899 0.421,-1.25 0.915,-2.474 1.504,-3.66 0.59,-1.184 1.221,-2.348 1.892,-3.493 0.676,-1.141 1.356,-2.287 2.114,-3.382 0.374,-0.552 0.752,-1.102 1.159,-1.632 0.389,-0.542 0.802,-1.066 1.236,-1.573 0.848,-1.038 1.79,-1.97 2.784,-2.881 0.483,-0.466 0.987,-0.901 1.428,-1.428 0.472,-0.493 0.897,-1.022 1.306,-1.572 0.787,-1.113 1.422,-2.356 1.813,-3.684 0.397,-1.328 0.53,-2.704 0.638,-4.048 0.094,-1.347 0.148,-2.681 0.274,-4 0.132,-1.317 0.31,-2.626 0.579,-3.915 0.067,-0.31 0.125,-0.675 0.198,-0.939 l 0.283,-0.965 0.54,-1.937 c 0.388,-1.277 0.893,-2.482 1.323,-3.736 0.471,-1.238 1.058,-2.442 1.559,-3.678 0.542,-1.219 1.159,-2.404 1.72,-3.62 l -0.368,-0.205 -0.367,0.58 c -0.071,0.09 -0.166,0.16 -0.248,0.242 -0.088,0.077 -0.166,0.162 -0.262,0.236 -0.193,0.15 -0.396,0.284 -0.584,0.446 l -0.555,0.494 0.071,0.078 c 0.398,-0.28 0.794,-0.549 1.224,-0.793 0.105,-0.065 0.205,-0.15 0.308,-0.225 0.099,-0.08 0.212,-0.15 0.301,-0.242 l 0.483,-0.614 -0.369,-0.205 c -0.678,1.161 -1.37,2.319 -2.012,3.505 -0.601,1.208 -1.218,2.405 -1.767,3.646 -0.499,1.259 -1.092,2.511 -1.496,3.795 l -0.58,1.925 -0.28,0.966 c -0.103,0.383 -0.143,0.683 -0.218,1.029 -0.555,2.677 -0.597,5.423 -0.693,8.079 -0.041,1.33 -0.129,2.645 -0.425,3.913 -0.281,1.271 -0.797,2.484 -1.497,3.6 -0.697,1.124 -1.591,2.094 -2.565,3.028 -0.955,0.93 -1.936,1.871 -2.833,2.873 -0.911,0.991 -1.801,2.008 -2.631,3.073 -0.835,1.061 -1.644,2.148 -2.36,3.298 -0.73,1.142 -1.379,2.337 -1.943,3.574 -0.569,1.233 -1.046,2.511 -1.444,3.817 -0.175,0.66 -0.311,1.333 -0.435,2.003 -0.047,0.687 -0.209,1.356 -0.16,2.048 l 0.028,1.028 c 0.04,0.342 0.123,0.686 0.183,1.024 0.075,0.697 0.424,1.277 0.657,1.909 z" style="fill:#6a290b;fill-opacity:1;fill-rule:nonzero;stroke:none" id="path322"/>
        </g>
        <g id="g324" transform="translate(616.0146,660.6426)">
          <path d="m 0,0 c 0,0 0.347,0.218 1.011,0.592 0.651,0.379 1.576,0.975 2.728,1.762 1.146,0.795 2.501,1.796 3.996,3.023 1.503,1.22 3.11,2.7 4.908,4.287 1.808,1.576 3.813,3.274 5.819,5.196 1.988,1.941 3.933,4.128 5.897,6.457 1.999,2.309 4.076,4.676 6.707,6.699 1.31,1.015 2.847,1.914 4.572,2.411 1.739,0.442 3.426,0.492 5.016,0.544 1.591,0.072 3.177,0.148 4.711,0.339 0.375,0.045 0.73,0.106 0.979,0.187 0.229,0.06 0.395,0.208 0.739,0.507 0.665,0.586 1.384,1.003 2.16,1.413 2.951,1.418 5.8,2.581 8.596,3.792 5.572,2.386 10.793,4.557 15.27,6.414 8.96,3.698 14.935,6.163 14.935,6.163 l 0.083,-0.191 c 0,0 -5.896,-2.647 -14.739,-6.617 C 68.967,40.993 63.81,38.677 58.284,36.196 55.547,34.945 52.623,33.673 49.868,32.281 49.274,31.889 48.688,31.364 48.202,30.837 48.066,30.695 47.942,30.545 47.739,30.363 47.548,30.186 47.286,30.009 47.042,29.897 46.548,29.671 46.111,29.561 45.696,29.47 44.054,29.131 42.417,28.918 40.784,28.798 39.155,28.651 37.586,28.625 36.196,28.273 34.802,27.946 33.477,27.281 32.23,26.414 31.005,25.563 29.752,24.561 28.586,23.578 27.41,22.582 26.227,21.602 25.114,20.579 22.85,18.571 20.839,16.438 19.022,14.334 17.229,12.207 15.58,10.132 13.877,8.367 10.428,4.878 6.914,2.592 4.318,1.354 3.031,0.708 1.932,0.377 1.211,0.118 0.48,-0.097 0.082,-0.193 0.082,-0.193 Z" style="fill:#6a290b;fill-opacity:1;fill-rule:nonzero;stroke:none" id="path326"/>
        </g>
        <g id="g328" transform="translate(639.063,656.8765)">
          <path d="m 0,0 c 0,0 -0.088,0.394 -0.197,1.085 -0.094,0.697 -0.263,1.664 -0.32,2.867 -0.018,0.602 -0.068,1.255 0.035,1.958 0.05,0.358 0.076,0.689 0.178,1.085 0.098,0.338 0.218,0.695 0.385,1.062 0.322,0.704 0.676,1.38 0.954,2.105 0.278,0.719 0.454,1.493 0.317,2.217 -0.041,0.414 -0.188,0.735 -0.299,1.071 -0.151,0.348 -0.293,0.692 -0.462,1.043 -0.308,0.706 -0.674,1.419 -0.846,2.228 -0.06,0.194 -0.088,0.399 -0.099,0.605 -0.006,0.219 -0.047,0.376 -0.023,0.64 0.044,0.365 0.036,0.681 0.157,1.068 0.17,0.767 0.437,1.348 0.665,1.903 0.233,0.549 0.461,1.031 0.616,1.469 0.189,0.435 0.251,0.831 0.351,1.158 0.086,0.328 0.083,0.596 0.118,0.779 0.027,0.185 0.042,0.284 0.042,0.284 l 0.104,0.011 c 0,0 0.018,-0.099 0.053,-0.285 0.02,-0.187 0.093,-0.467 0.099,-0.827 C 1.825,23.168 1.815,22.722 1.716,22.231 1.654,21.729 1.481,21.194 1.325,20.622 1.156,20.058 0.964,19.432 0.859,18.863 0.778,18.595 0.788,18.201 0.736,17.859 0.751,17.611 0.743,17.25 0.81,16.933 c 0.086,-0.66 0.381,-1.35 0.641,-2.092 0.14,-0.365 0.25,-0.766 0.354,-1.164 0.07,-0.431 0.152,-0.875 0.119,-1.258 C 1.94,11.555 1.599,10.774 1.333,10.047 1.042,9.32 0.768,8.592 0.619,7.888 0.537,7.554 0.486,7.202 0.451,6.837 0.442,6.529 0.452,6.157 0.434,5.838 0.38,5.186 0.384,4.55 0.373,3.965 0.335,2.792 0.332,1.784 0.243,1.094 0.171,0.4 0.104,0.002 0.104,0.002 Z" style="fill:#6a290b;fill-opacity:1;fill-rule:nonzero;stroke:none" id="path330"/>
        </g>
        <g id="g332" transform="translate(668.394,737.5059)">
          <path d="m 0,0 c 0,0 -0.893,0.556 -2.37,1.626 -0.73,0.55 -1.603,1.247 -2.584,2.068 -0.971,0.813 -2.036,1.78 -3.197,2.802 -1.144,1.035 -2.384,2.155 -3.695,3.34 -0.659,0.579 -1.33,1.183 -2.002,1.822 -0.708,0.593 -1.432,1.199 -2.167,1.816 -0.768,0.572 -1.574,1.126 -2.407,1.666 -0.382,0.273 -0.872,0.479 -1.315,0.709 -0.453,0.226 -0.903,0.469 -1.38,0.62 -1.84,0.801 -3.908,1.138 -5.917,1.252 -2.025,0.12 -4.027,-0.168 -5.938,-0.563 -0.45,-0.119 -1.012,-0.206 -1.366,-0.33 -0.234,-0.085 -0.491,-0.163 -0.704,-0.253 l -0.575,-0.278 c -0.838,-0.423 -1.737,-0.951 -2.792,-1.331 l -0.832,-0.237 c -0.291,-0.052 -0.598,-0.069 -0.897,-0.091 -0.299,-0.044 -0.6,0.03 -0.899,0.067 l -0.446,0.071 -0.11,0.02 -0.028,0.004 c 0.01,-0.005 -0.192,0.062 -0.116,0.037 l -0.041,0.016 -0.165,0.062 c -1.191,0.464 -1.922,1.227 -2.578,1.89 -1.31,1.363 -2.286,2.746 -3.25,3.93 -0.471,0.59 -0.932,1.148 -1.38,1.556 l -0.084,0.077 c -10e-4,0.004 -0.057,0.049 -0.012,0.017 l -0.053,0.039 -0.21,0.156 c -0.137,0.105 -0.273,0.209 -0.407,0.312 -0.268,0.209 -0.513,0.342 -0.76,0.513 -1.031,0.633 -2.069,1.242 -2.752,1.928 -0.169,0.172 -0.328,0.335 -0.478,0.489 -0.125,0.174 -0.241,0.338 -0.35,0.49 -0.229,0.292 -0.378,0.564 -0.475,0.8 -0.209,0.452 -0.32,0.694 -0.32,0.694 l 0.187,0.097 c 0,0 0.162,-0.199 0.466,-0.573 0.142,-0.192 0.325,-0.418 0.588,-0.637 0.123,-0.114 0.255,-0.236 0.396,-0.367 0.16,-0.107 0.329,-0.221 0.508,-0.341 0.721,-0.476 1.682,-0.841 2.891,-1.375 0.299,-0.148 0.648,-0.295 0.936,-0.463 0.146,-0.083 0.294,-0.168 0.445,-0.254 l 0.225,-0.133 0.057,-0.033 0.092,-0.064 0.122,-0.09 c 0.658,-0.483 1.211,-1.029 1.773,-1.603 1.097,-1.149 2.19,-2.443 3.39,-3.62 0.612,-0.572 1.247,-1.115 1.814,-1.338 0.592,-0.158 1.316,-0.235 2.091,0.023 0.794,0.236 1.641,0.662 2.611,1.097 l 0.804,0.326 c 0.257,0.091 0.489,0.147 0.735,0.223 0.615,0.167 1.071,0.203 1.618,0.301 2.103,0.325 4.296,0.292 6.396,-0.12 0.53,-0.064 1.048,-0.188 1.562,-0.326 0.512,-0.143 1.034,-0.229 1.527,-0.424 l 1.497,-0.484 c 0.488,-0.191 0.975,-0.382 1.459,-0.572 0.985,-0.375 1.851,-0.824 2.796,-1.257 0.882,-0.494 1.805,-0.908 2.675,-1.385 0.848,-0.517 1.681,-1.024 2.497,-1.521 0.776,-0.549 1.523,-1.107 2.244,-1.661 1.389,-1.157 2.624,-2.339 3.726,-3.445 C -5.823,6.669 -4.843,5.642 -3.988,4.703 -3.123,3.794 -2.397,2.971 -1.786,2.295 -0.531,0.97 0.138,0.158 0.138,0.158 Z" style="fill:#6a290b;fill-opacity:1;fill-rule:nonzero;stroke:none" id="path334"/>
        </g>
      </g>
    </g>
  </g>
</svg>