<?xml version="1.0" encoding="utf-8"?>
<svg width="76" height="76" viewBox="0 0 76 76" xmlns="http://www.w3.org/2000/svg">
  <defs>
    <style>
      .a {
        fill: #fff;
      }
    </style>
  </defs>
  <g style="" transform="matrix(0.157709, 0, 0, 0.157709, 0.432147, 0.237624)"/>
  <g style="" transform="matrix(0.157709, 0, 0, 0.157709, 0.432147, 0.237624)"/>
  <g style="" transform="matrix(0.157709, 0, 0, 0.157709, 0.432147, 0.237624)"/>
  <g style="" transform="matrix(0.157709, 0, 0, 0.157709, 0.432147, 0.237624)"/>
  <g style="" transform="matrix(0.157709, 0, 0, 0.157709, 0.432147, 0.237624)"/>
  <g style="" transform="matrix(0.157709, 0, 0, 0.157709, 0.432147, 0.237624)"/>
  <g style="" transform="matrix(0.157709, 0, 0, 0.157709, 0.432147, 0.237624)"/>
  <g style="" transform="matrix(0.157709, 0, 0, 0.157709, 0.432147, 0.237624)"/>
  <g style="" transform="matrix(0.157709, 0, 0, 0.157709, 0.432147, 0.237624)"/>
  <g style="" transform="matrix(0.157709, 0, 0, 0.157709, 0.432147, 0.237624)"/>
  <g style="" transform="matrix(0.157709, 0, 0, 0.157709, 0.432147, 0.237624)"/>
  <g style="" transform="matrix(0.157709, 0, 0, 0.157709, 0.432147, 0.237624)"/>
  <g style="" transform="matrix(0.157709, 0, 0, 0.157709, 0.432147, 0.237624)"/>
  <g style="" transform="matrix(0.157709, 0, 0, 0.157709, 0.432147, 0.237624)"/>
  <g style="" transform="matrix(0.157709, 0, 0, 0.157709, 0.432147, 0.237624)"/>
  <g style="" transform="matrix(0.17313, 0, 0, 0.17313, -8.341507, 2.875021)">
    <path d="m256 383.467c-8.284 0-15-6.716-15-15v-296.19c0-8.284 6.716-15 15-15s15 6.716 15 15v296.189c0 8.285-6.716 15.001-15 15.001z" style="fill: rgb(159, 151, 124);"/>
    <path d="M 256.051 -16.003 C 222.013 -16.003 172.409 -4.564 145.568 17.824 C 118.926 40.046 128.351 58.079 104.175 65.723 C 94.216 68.873 83.934 136.516 91.243 145.949 C 94.62 150.306 108.038 153.951 109.332 159.418 C 110.766 165.474 106.076 183.173 111.016 186.992 C 123.023 196.272 139.168 184.716 151.642 189.84 C 156.419 191.803 150.929 215.439 152.928 220.745 C 153.102 221.207 172.422 226.64 174.207 227.131 C 181.834 229.23 202.792 191.408 209.658 200.384 C 219.514 213.27 224.87 199.209 239.497 202.88 C 254.065 206.538 268.865 215.256 283.22 218.433 C 295.994 221.258 307.483 206.35 319.473 211.656 C 341.274 221.303 355.193 224.094 376.416 203.363 C 392.732 187.426 410.072 165.13 420.923 142.181 C 426.021 131.401 422.071 113.54 422.931 101.307 C 424.963 72.376 423.564 24.511 399.898 9.657 C 365.779 -11.76 339.007 3.755 302.733 -3.514 C 293.891 -5.286 288.19 -12.465 279.355 -12.465 C 275.748 -12.465 262.327 -7.101 259.997 -10.244 C 258.565 -12.176 254.435 -17.174 252.487 -17.174" style="fill: rgb(148, 224, 101);"/>
    <path d="M 352.4 409.409 L 159.6 409.409 C 151.316 409.409 144.6 406.553 144.6 403.031 C 144.6 384.447 180.159 369.328 223.867 369.328 L 288.135 369.328 C 331.843 369.328 367.402 384.447 367.402 403.031 C 367.4 406.554 360.685 409.409 352.4 409.409 Z" style="fill: rgb(194, 194, 194);"/>
    <path d="M 367.4 403.031 C 367.4 384.447 331.841 369.328 288.133 369.328 L 256 369.328 L 256 409.409 L 352.4 409.409 C 360.685 409.409 367.4 406.554 367.4 403.031 Z" style="fill: rgb(194, 194, 194);"/>
  </g>
  <g transform="matrix(0.105262, 0, 0, 0.106257, 17.249268, -9.602306)" style="stroke-width: 1.5724; vector-effect: non-scaling-stroke;">
    <circle style="" cx="116.845" cy="192.932" r="32"/>
    <circle style="" cx="289.037" cy="194.049" r="32"/>
  </g>
  <path d="M 50.202 68.323 C 48.376 65.994 46.392 63.642 45.513 61.032 C 44.921 59.272 44.211 57.632 43.876 55.837 C 43.641 54.576 43.084 53.772 42.475 52.583 C 41.945 51.551 41.52 48.201 39.592 48.201 C 39.305 48.201 40.141 48.373 40.345 48.524 C 40.633 48.735 40.961 49.703 40.759 50.011 C 40.502 50.403 39.065 50.568 38.521 50.643 C 36.238 50.958 33.234 51.224 30.857 50.991 C 29.244 50.833 28.55 49.481 29.327 48.563 C 29.68 48.146 30.087 47.754 30.802 47.591 C 31.082 47.528 31.987 47.56 31.69 47.56 C 29.663 47.56 28.92 48.938 28.53 50.249 C 27.718 52.986 27.439 55.511 27.25 58.384 C 27.099 60.688 25.846 62.875 25.282 65.105 C 25.128 65.713 23.359 69.498 22.918 69.498" style="stroke-linecap: round; fill: none; stroke: rgb(194, 194, 194); stroke-width: 2px;" transform="matrix(0.999176, 0.040576, -0.040576, 0.999176, 2.404818, -1.435261)"/>
  <path style="" d="M 38.909 30.058 C 34.409 30.058 30.182 28.286 26.999 25.076 C 26.342 24.413 26.342 23.335 26.999 22.672 C 27.655 22.009 28.723 22.009 29.38 22.672 C 34.47 27.813 43.342 27.813 48.435 22.672 C 49.092 22.009 50.16 22.009 50.816 22.672 C 51.473 23.335 51.473 24.413 50.816 25.076 C 47.637 28.286 43.409 30.058 38.909 30.058 Z"/>
</svg>