<svg xmlns="http://www.w3.org/2000/svg" width="76" height="76" viewBox="0 0 76 76">
  <defs>
    <style>
      .a {
        fill: #fff;
      }

      .b {
        fill-rule: evenodd;
      }
    </style>
  </defs>
  <g>
    <circle class="a" cx="38" cy="38" r="38"/>
    <g>
      <path class="b" d="M44.47,52.62l1.94-1.95a1,1,0,1,1,1.37,1.38L45.84,54A1,1,0,1,1,44.47,52.62Z"/>
      <rect x="31.9" y="35.82" width="12.9" height="5.81" rx="1.29"/>
      <path class="b" d="M39.64,33.88v-5.2A.64.64,0,0,0,39,28H37.71a.65.65,0,0,0-.65.64v5.2H33.19a2.58,2.58,0,0,1-2.58-2.58V17.75a2.59,2.59,0,0,1,2.58-2.58H43.52a2.58,2.58,0,0,1,2.58,2.58V31.3a2.57,2.57,0,0,1-2.58,2.58Z"/>
      <path class="b" d="M48,18.4h7.1a1.29,1.29,0,0,1,1.29,1.29v3.87a1.29,1.29,0,0,1-1.29,1.29H48Z"/>
      <path class="b" d="M21.58,18.4h7.09v6.45H21.58a1.29,1.29,0,0,1-1.29-1.29V19.69A1.28,1.28,0,0,1,21.58,18.4Z"/>
      <path class="b" d="M41.27,43.59V55.25a.94.94,0,0,1-.22.6l-1.94,2.43a1,1,0,0,1-1.52,0l-1.94-2.43a.93.93,0,0,1-.21-.6V43.59Z"/>
      <path class="b" d="M34.47,56.7l0,.06L36,58.65H17.54a1,1,0,1,1,0-1.95Z"/>
      <path class="b" d="M40.69,58.65l1.5-1.89.05-.06h18a1,1,0,0,1,0,1.95Z"/>
      <path class="b" d="M32.24,52.62a1,1,0,0,1,0,1.37,1,1,0,0,1-1.38,0l-1.94-1.94a1,1,0,0,1,0-1.38,1,1,0,0,1,1.37,0Z"/>
    </g>
  </g>
</svg>
