<svg xmlns="http://www.w3.org/2000/svg" width="76" height="76" viewBox="0 0 76 76">
  <defs>
    <style>
      .a {
        fill: #fff;
      }

      .b {
        stroke: #000;
      }
    </style>
  </defs>
  <title>insects</title>
  <g>
    <circle class="a" cx="38" cy="38" r="38"/>
    <path class="b" d="M50.81,51.25a.7.7,0,0,1-.69-.69v0s0,0,0,0l-1.38-11a.69.69,0,0,0-.37-.53l-5.12-2.56v-1a.68.68,0,0,1,.68-.69h5.5a2.07,2.07,0,0,0,2.07-2.06.69.69,0,0,0-1.38,0,.68.68,0,0,1-.68.69h-5.5a1.85,1.85,0,0,0-.7.13s0-.09,0-.13A6.36,6.36,0,0,0,43.07,32h.86A2.07,2.07,0,0,0,46,29.94v-5.5a.69.69,0,0,1,.69-.69.69.69,0,0,0,0-1.37,2.06,2.06,0,0,0-2.06,2.06v5.5a.7.7,0,0,1-.69.69H42.51a5.37,5.37,0,0,0-1.81-1.89,2.74,2.74,0,0,0-.26-4.65l1.92-1.92a.69.69,0,1,0-1-1l-2.55,2.55H36.66L34.11,21.2a.68.68,0,0,0-1,0,.69.69,0,0,0,0,1l1.92,1.92A2.74,2.74,0,0,0,34,27.8a3,3,0,0,0,.85.95A5.37,5.37,0,0,0,33,30.64H31.56a.68.68,0,0,1-.68-.69v-5.5a2.07,2.07,0,0,0-2.07-2.06.69.69,0,0,0,0,1.37.69.69,0,0,1,.69.69v5.5A2.06,2.06,0,0,0,31.56,32h.87a5.33,5.33,0,0,0-.18,1.38v.12a2,2,0,0,0-.69-.12h-5.5a.69.69,0,0,1-.69-.69.69.69,0,0,0-1.37,0,2.06,2.06,0,0,0,2.06,2.06h5.5a.69.69,0,0,1,.69.69v1L27.13,39a.68.68,0,0,0-.38.53l-1.37,11s0,.06,0,.08a.68.68,0,0,1-.68.69.69.69,0,0,0-.06,1.38h.06a2.07,2.07,0,0,0,2.06-2L28.07,40l3.52-1.76a8.45,8.45,0,0,0-.72,3.57v3.83c0,.07.09,6.72,6.72,8.33a.86.86,0,0,0,.32,0c6.63-1.61,6.71-8.26,6.71-8.33V41.82a8.29,8.29,0,0,0-.71-3.57L47.42,40l1.34,10.64h0a2.06,2.06,0,0,0,2.05,2,.7.7,0,0,0,.66-.72.68.68,0,0,0-.66-.66ZM36.38,27.88a1.38,1.38,0,1,1,0-2.75h2.75a1.38,1.38,0,0,1,0,2.75Zm1.37,1.37a4.14,4.14,0,0,1,4.13,4.13,4.21,4.21,0,0,1-.61,2.13,7.66,7.66,0,0,0-3.52-.76,7.66,7.66,0,0,0-3.52.76,4.12,4.12,0,0,1,3.52-6.26Zm5.5,16.4a7.42,7.42,0,0,1-5.5,7,7.34,7.34,0,0,1-5.5-7V41.82c0-5,3.45-5.7,5.5-5.7s5.5.74,5.5,5.7Z"/>
  </g>
</svg>
