<?xml version="1.0" encoding="utf-8"?>
<svg width="76" height="76" viewBox="0 0 76 76" xmlns="http://www.w3.org/2000/svg" xmlns:bx="https://boxy-svg.com">
  <defs>
    <style>
      .a {
        fill: #fff;
      }
    </style>
  </defs>
  <g transform="matrix(0.255947, 0, 0, 0.198492, -28.074209, -10.818916)" style="">
    <g>
      <g/>
      <g/>
      <g>
        <circle style="fill: rgb(150, 233, 185);" cx="6.98" cy="3.52" r="2.279" transform="matrix(24.489059, 0, 0, 31.577597, 86.706322, 18.510429)"/>
        <g style="" transform="matrix(4.720977, 0, 0, 6.087499, 106.966728, 50.143646)">
          <path d="m29 29h2v2h-2z" style="fill: rgb(220, 210, 210);"/>
          <path d="m37 29h2v2h-2z" style="fill: rgb(220, 210, 210);"/>
          <path d="m25 29h2v2h-2z" style="fill: rgb(220, 210, 210);"/>
          <path d="m33 29h2v2h-2z" style="fill: rgb(220, 210, 210);"/>
          <g fill="#35495e" transform="matrix(1, 0, 0, 1, 38.718044, 9.954336)">
            <path id="Shape" d="M -15.739 16.651 C -16.162 16.651 -15.873 16.751 -21.853 13.316 L -29.423 12.204 C -30.037 12.119 -30.465 11.551 -30.38 10.937 C -30.293 10.323 -29.726 9.895 -29.112 9.981 L -21.331 11.093 C -21.031 11.093 -21.442 10.937 -15.183 14.505 C -14.635 14.694 -14.324 15.273 -14.47 15.835 C -14.615 16.396 -15.168 16.751 -15.739 16.651 Z" style="fill: rgb(220, 210, 210);"/>
            <path id="Shape" d="M -34.826 14.428 C -35.36 14.429 -35.82 14.05 -35.92 13.525 C -36.021 13 -35.734 12.479 -35.237 12.282 L -32.258 11.093 L -35.237 9.903 C -35.808 9.676 -36.087 9.029 -35.86 8.458 C -35.632 7.887 -34.985 7.609 -34.415 7.835 L -28.857 10.059 C -28.432 10.227 -28.153 10.637 -28.153 11.093 C -28.153 11.548 -28.432 11.959 -28.857 12.126 C -34.893 14.55 -34.526 14.428 -34.826 14.428 Z" style="fill: rgb(220, 210, 210);"/>
            <path id="Shape" d="M 1.669 16.651 C 1.163 16.654 0.719 16.315 0.588 15.826 C 0.458 15.337 0.673 14.822 1.113 14.572 C 7.372 11.004 6.961 11.237 7.261 11.159 L 15.042 10.048 C 15.657 9.962 16.224 10.39 16.31 11.004 C 16.396 11.617 15.968 12.185 15.354 12.271 L 7.783 13.383 C 1.758 16.718 2.081 16.651 1.669 16.651 Z" style="fill: rgb(220, 210, 210);"/>
            <path id="Shape" d="M 20.756 14.428 C 20.467 14.428 20.856 14.561 14.787 12.126 C 14.363 11.959 14.084 11.548 14.084 11.093 C 14.084 10.637 14.363 10.227 14.787 10.059 L 20.345 7.835 C 20.715 7.689 21.134 7.75 21.447 7.997 C 21.758 8.242 21.915 8.637 21.858 9.03 C 21.8 9.423 21.538 9.756 21.168 9.903 L 18.188 11.093 L 21.168 12.282 C 21.665 12.479 21.951 13 21.851 13.525 C 21.75 14.05 21.291 14.429 20.756 14.428 Z" style="fill: rgb(220, 210, 210);"/>
            <path id="path-1" d="M -16.559 31.499 C -17.002 31.499 -16.699 31.599 -22.955 28.164 L -30.875 27.052 C -31.517 26.967 -31.965 26.399 -31.876 25.785 C -31.785 25.171 -31.192 24.743 -30.55 24.829 L -22.409 25.941 C -22.095 25.941 -22.525 25.785 -15.977 29.353 C -15.404 29.542 -15.079 30.121 -15.231 30.683 C -15.383 31.244 -15.962 31.599 -16.559 31.499 Z" style="fill: rgb(220, 210, 210);"/>
            <path id="path-1" d="M 1.653 31.499 C 1.124 31.502 0.659 31.163 0.522 30.674 C 0.386 30.185 0.611 29.67 1.071 29.42 C 7.619 25.852 7.189 26.085 7.503 26.007 L 15.644 24.896 C 16.287 24.81 16.88 25.238 16.97 25.852 C 17.06 26.465 16.612 27.033 15.97 27.119 L 8.049 28.231 C 1.746 31.566 2.084 31.499 1.653 31.499 Z" style="fill: rgb(220, 210, 210);"/>
            <path id="path-2" d="M -14.606 46.424 C -14.989 46.424 -14.727 46.51 -20.134 43.541 L -26.979 42.58 C -27.534 42.507 -27.921 42.016 -27.844 41.485 C -27.766 40.954 -27.253 40.584 -26.698 40.659 L -19.662 41.62 C -19.391 41.62 -19.762 41.485 -14.103 44.569 C -13.608 44.732 -13.327 45.233 -13.458 45.718 C -13.589 46.203 -14.09 46.51 -14.606 46.424 Z" style="fill: rgb(220, 210, 210);" transform="matrix(0.838671, -0.544639, 0.544639, 0.838671, -27.045509, -4.216352)"/>
            <path id="path-2" d="M 1.135 46.424 C 0.678 46.426 0.276 46.133 0.157 45.711 C 0.04 45.288 0.234 44.843 0.632 44.627 C 6.291 41.543 5.92 41.744 6.191 41.677 L 13.227 40.717 C 13.783 40.642 14.296 41.012 14.373 41.543 C 14.451 42.073 14.064 42.564 13.509 42.638 L 6.663 43.599 C 1.215 46.482 1.507 46.424 1.135 46.424 Z" style="fill: rgb(220, 210, 210);" transform="matrix(0.819152, 0.573576, -0.573576, 0.819152, 26.29998, 3.718553)"/>
          </g>
        </g>
        <g style="" transform="matrix(4.720977, 0, 0, 6.087499, 106.966728, 50.143646)">
          <g>
            <path d="m45.99 15c.01.08.01.16.01.24 0 .5-.12.99-.34 1.44-.78 1.56-1.85 2.93-3.12 4.04-.55.48-1.14.92-1.76 1.3-2.06 1.27-4.46 1.98-6.96 1.98h-3.64c-3.26 0-6.35-1.2-8.72-3.28-1.27-1.11-2.34-2.48-3.12-4.04-.22-.45-.34-.94-.34-1.44 0-.08 0-.16.01-.24.06-.8.4-1.51.94-2.05.59-.59 1.39-.95 2.29-.95h3.76 14 3.76c1.71 0 3.11 1.32 3.23 3z" style="fill: rgb(186, 240, 186);"/>
          </g>
          <g>
            <path d="m18.34 16.68c.78 1.56 1.85 2.93 3.12 4.04l.92 9.53 1.62 16.75h-10.23c-.48-1.06-.87-2.17-1.17-3.32-.38-1.49-.6-3.05-.6-4.68 0-4.05.5-7.77 1.22-11 .7-3.2 1.61-5.92 2.45-8.04 1.25-3.15 2.33-4.96 2.33-4.96h.01c-.01.08-.01.16-.01.24 0 .5.12.99.34 1.44z" style="fill: rgb(155, 207, 118);"/>
          </g>
          <g>
            <path d="m46 15s1.08 1.81 2.33 4.96c.84 2.12 1.75 4.84 2.45 8.04.72 3.23 1.22 6.95 1.22 11 0 1.63-.22 3.19-.6 4.68-.3 1.15-.69 2.26-1.17 3.32h-10.23l1.62-16.75.92-9.53c1.27-1.11 2.34-2.48 3.12-4.04.22-.45.34-.94.34-1.44 0-.08 0-.16-.01-.24z" style="fill: rgb(155, 207, 118);"/>
          </g>
          <g>
            <path d="m40.78 22.02c-2.06 1.27-4.46 1.98-6.96 1.98h-3.64c-3.26 0-6.35-1.2-8.72-3.28l2.54 26.28 8 5 8-5 2.54-26.28c-.55.48-1.14.92-1.76 1.3z" style="fill: rgb(157, 223, 139);"/>
          </g>
          <g>
            <path d="m40 47-8 5-8-5h-10.23c1.29 2.9 3.16 5.45 5.11 7.58 1.75 1.91 3.57 3.48 5.12 4.68.21.17.43.32.65.47 2.16 1.48 4.72 2.27 7.35 2.27 1.45 0 2.88-.24 4.23-.7 1.1-.37 2.15-.9 3.12-1.57.22-.15.44-.3.65-.47 1.55-1.2 3.37-2.77 5.12-4.68 1.95-2.13 3.82-4.68 5.11-7.58z" style="fill: rgb(186, 240, 186);"/>
          </g>
        </g>
      </g>
    </g>
  </g>
  <g transform="matrix(0.102946, 0, 0, 0.102946, 11.447242, -9.768549)" style="">
    <circle style="" cx="174.095" cy="188.795" r="32"/>
    <circle style="" cx="338.867" cy="188.58" r="32"/>
    <rect x="139.636" y="243.558" width="236.624" height="66.756" style="" rx="14.635" ry="14.635"/>
    <path d="M 367.597 533.029 L 395.447 580.681 L 341.787 580.681 L 367.597 533.029 Z" style="fill: rgb(255, 255, 255);" transform="matrix(0.477416, 0.878677, -0.878677, 0.477416, 547.888611, -333.800537)" bx:shape="triangle 341.787 533.029 53.66 47.652 0.481 0 1@403796f7"/>
    <path d="M 366.739 510.216 L 395.447 555.829 L 341.787 555.829 L 366.739 510.216 Z" style="fill: rgb(255, 255, 255);" transform="matrix(0.477417, 0.878677, -0.878677, 0.477417, 589.269226, -322.205505)" bx:shape="triangle 341.787 510.216 53.66 45.613 0.465 0 1@87ea5411"/>
  </g>
  <g style="" transform="matrix(0.159766, 0, 0, 0.159766, -0.577546, -0.47355)"/>
  <g style="" transform="matrix(0.159766, 0, 0, 0.159766, -0.577546, -0.47355)"/>
  <g style="" transform="matrix(0.159766, 0, 0, 0.159766, -0.577546, -0.47355)"/>
  <g style="" transform="matrix(0.159766, 0, 0, 0.159766, -0.577546, -0.47355)"/>
  <g style="" transform="matrix(0.159766, 0, 0, 0.159766, -0.577546, -0.47355)"/>
  <g style="" transform="matrix(0.159766, 0, 0, 0.159766, -0.577546, -0.47355)"/>
  <g style="" transform="matrix(0.159766, 0, 0, 0.159766, -0.577546, -0.47355)"/>
  <g style="" transform="matrix(0.159766, 0, 0, 0.159766, -0.577546, -0.47355)"/>
  <g style="" transform="matrix(0.159766, 0, 0, 0.159766, -0.577546, -0.47355)"/>
  <g style="" transform="matrix(0.159766, 0, 0, 0.159766, -0.577546, -0.47355)"/>
  <g style="" transform="matrix(0.159766, 0, 0, 0.159766, -0.577546, -0.47355)"/>
  <g style="" transform="matrix(0.159766, 0, 0, 0.159766, -0.577546, -0.47355)"/>
  <g style="" transform="matrix(0.159766, 0, 0, 0.159766, -0.577546, -0.47355)"/>
  <g style="" transform="matrix(0.159766, 0, 0, 0.159766, -0.577546, -0.47355)"/>
  <g style="" transform="matrix(0.159766, 0, 0, 0.159766, -0.577546, -0.47355)"/>
  <g style="" transform="matrix(0.084585, -0.084585, 0.084585, 0.084585, 23.688873, 37.998493)"/>
  <g style="" transform="matrix(0.084585, -0.084585, 0.084585, 0.084585, 23.688873, 37.998493)"/>
  <g style="" transform="matrix(0.084585, -0.084585, 0.084585, 0.084585, 23.688873, 37.998493)"/>
  <g style="" transform="matrix(0.084585, -0.084585, 0.084585, 0.084585, 23.688873, 37.998493)"/>
  <g style="" transform="matrix(0.084585, -0.084585, 0.084585, 0.084585, 23.688873, 37.998493)"/>
  <g style="" transform="matrix(0.084585, -0.084585, 0.084585, 0.084585, 23.688873, 37.998493)"/>
  <g style="" transform="matrix(0.084585, -0.084585, 0.084585, 0.084585, 23.688873, 37.998493)"/>
  <g style="" transform="matrix(0.084585, -0.084585, 0.084585, 0.084585, 23.688873, 37.998493)"/>
  <g style="" transform="matrix(0.084585, -0.084585, 0.084585, 0.084585, 23.688873, 37.998493)"/>
  <g style="" transform="matrix(0.084585, -0.084585, 0.084585, 0.084585, 23.688873, 37.998493)"/>
  <g style="" transform="matrix(0.084585, -0.084585, 0.084585, 0.084585, 23.688873, 37.998493)"/>
  <g style="" transform="matrix(0.084585, -0.084585, 0.084585, 0.084585, 23.688873, 37.998493)"/>
  <g style="" transform="matrix(0.084585, -0.084585, 0.084585, 0.084585, 23.688873, 37.998493)"/>
  <g style="" transform="matrix(0.084585, -0.084585, 0.084585, 0.084585, 23.688873, 37.998493)"/>
  <g style="" transform="matrix(0.084585, -0.084585, 0.084585, 0.084585, 23.688873, 37.998493)"/>
</svg>