<?xml version="1.0" encoding="utf-8"?>
<svg width="76" height="76" viewBox="0 0 76 76" xmlns="http://www.w3.org/2000/svg">
  <defs>
    <style>
      .a {
        fill: #fff;
      }
    </style>
  </defs>
  <g style="" transform="matrix(0.157709, 0, 0, 0.157709, 0.432147, 0.237624)"/>
  <g style="" transform="matrix(0.157709, 0, 0, 0.157709, 0.432147, 0.237624)"/>
  <g style="" transform="matrix(0.157709, 0, 0, 0.157709, 0.432147, 0.237624)"/>
  <g style="" transform="matrix(0.157709, 0, 0, 0.157709, 0.432147, 0.237624)"/>
  <g style="" transform="matrix(0.157709, 0, 0, 0.157709, 0.432147, 0.237624)"/>
  <g style="" transform="matrix(0.157709, 0, 0, 0.157709, 0.432147, 0.237624)"/>
  <g style="" transform="matrix(0.157709, 0, 0, 0.157709, 0.432147, 0.237624)"/>
  <g style="" transform="matrix(0.157709, 0, 0, 0.157709, 0.432147, 0.237624)"/>
  <g style="" transform="matrix(0.157709, 0, 0, 0.157709, 0.432147, 0.237624)"/>
  <g style="" transform="matrix(0.157709, 0, 0, 0.157709, 0.432147, 0.237624)"/>
  <g style="" transform="matrix(0.157709, 0, 0, 0.157709, 0.432147, 0.237624)"/>
  <g style="" transform="matrix(0.157709, 0, 0, 0.157709, 0.432147, 0.237624)"/>
  <g style="" transform="matrix(0.157709, 0, 0, 0.157709, 0.432147, 0.237624)"/>
  <g style="" transform="matrix(0.157709, 0, 0, 0.157709, 0.432147, 0.237624)"/>
  <g style="" transform="matrix(0.157709, 0, 0, 0.157709, 0.432147, 0.237624)"/>
  <g transform="matrix(0.108746, 0, 0, -0.144942, 0.949293, 74.943588)" style="">
    <g>
      <g>
        <g>
          <path d="m253.68 491.048v-410.659c0-3.314-1.017-6.549-2.914-9.267l-17.296-24.784c-2.531-3.627-6.674-5.788-11.096-5.788l-21.335 30.571c-1.897 2.718-2.914 5.952-2.914 9.267v410.659c0 11.572 9.381 20.952 20.953 20.952h13.649c11.572.001 20.953-9.38 20.953-20.951z" fill="#ce9875"/>
          <path d="m311.036 71.122-46.563-66.722c-4.094-5.866-12.777-5.866-16.87 0l-25.228 36.151 21.335 30.571c1.897 2.718 2.914 5.952 2.914 9.267v410.659c0 11.572-9.381 20.953-20.952 20.953h67.328c11.572 0 20.953-9.381 20.953-20.953v-410.659c-.003-3.314-1.02-6.549-2.917-9.267z" fill="#c6865c"/>
        </g>
      </g>
    </g>
    <g>
      <g>
        <g>
          <path d="m418.097 491.047v-410.658c0-3.314-1.017-6.549-2.914-9.267l-17.296-24.784c-2.531-3.627-6.674-5.787-11.096-5.787l-21.335 30.572c-1.897 2.718-2.914 5.952-2.914 9.266v410.659c0 11.572 9.381 20.952 20.952 20.952h13.649c11.573 0 20.954-9.381 20.954-20.953z" fill="#ce9875"/>
          <path d="m475.453 71.122-46.563-66.722c-4.094-5.866-12.777-5.866-16.87 0l-25.228 36.151 21.335 30.571c1.897 2.718 2.914 5.952 2.914 9.267v410.659c0 11.572-9.381 20.953-20.953 20.953h67.328c11.572 0 20.953-9.381 20.953-20.953v-410.659c-.002-3.314-1.019-6.549-2.916-9.267z" fill="#c6865c"/>
        </g>
      </g>
    </g>
  </g>
  <g transform="matrix(0.105262, 0, 0, 0.106257, 10.447591, -11.57184)" style="stroke-width: 1.5724; vector-effect: non-scaling-stroke;">
    <circle style="" cx="160" cy="192" r="32"/>
    <circle style="" cx="352" cy="192" r="32"/>
  </g>
  <rect style="stroke-linecap: round;" x="24.594" y="22.803" width="26.063" height="17.263" rx="2" ry="2"/>
</svg>