<?xml version="1.0" encoding="utf-8"?>
<svg width="76" height="76" viewBox="0 0 76 76" xmlns="http://www.w3.org/2000/svg">
  <defs>
    <style>
      .a {
        fill: #fff;
      }
    </style>
  </defs>
  <g style="" transform="matrix(0.157709, 0, 0, 0.157709, 0.432147, 0.237624)">
    <g>
      <path d="M251.385,5.277c-6.823-6.947-17.985-7.047-24.931-0.225c-0.076,0.074-0.151,0.149-0.225,0.225 C219.778,12.325,68.14,179.254,68.14,306.947c0,113.254,57.412,170.667,170.667,170.667s170.667-57.412,170.667-170.667 C409.474,179.254,257.836,12.325,251.385,5.277z" style="fill: rgb(0, 247, 255); stroke-width: 6.34079px;"/>
    </g>
  </g>
  <g style="" transform="matrix(0.157709, 0, 0, 0.157709, 0.432147, 0.237624)"/>
  <g style="" transform="matrix(0.157709, 0, 0, 0.157709, 0.432147, 0.237624)"/>
  <g style="" transform="matrix(0.157709, 0, 0, 0.157709, 0.432147, 0.237624)"/>
  <g style="" transform="matrix(0.157709, 0, 0, 0.157709, 0.432147, 0.237624)"/>
  <g style="" transform="matrix(0.157709, 0, 0, 0.157709, 0.432147, 0.237624)"/>
  <g style="" transform="matrix(0.157709, 0, 0, 0.157709, 0.432147, 0.237624)"/>
  <g style="" transform="matrix(0.157709, 0, 0, 0.157709, 0.432147, 0.237624)"/>
  <g style="" transform="matrix(0.157709, 0, 0, 0.157709, 0.432147, 0.237624)"/>
  <g style="" transform="matrix(0.157709, 0, 0, 0.157709, 0.432147, 0.237624)"/>
  <g style="" transform="matrix(0.157709, 0, 0, 0.157709, 0.432147, 0.237624)"/>
  <g style="" transform="matrix(0.157709, 0, 0, 0.157709, 0.432147, 0.237624)"/>
  <g style="" transform="matrix(0.157709, 0, 0, 0.157709, 0.432147, 0.237624)"/>
  <g style="" transform="matrix(0.157709, 0, 0, 0.157709, 0.432147, 0.237624)"/>
  <g style="" transform="matrix(0.157709, 0, 0, 0.157709, 0.432147, 0.237624)"/>
  <g style="" transform="matrix(0.157709, 0, 0, 0.157709, 0.432147, 0.237624)"/>
  <g transform="matrix(0.105262, 0, 0, 0.106257, 10.685961, 17.907335)" style="stroke-width: 1.5724; vector-effect: non-scaling-stroke;">
    <circle style="" cx="160" cy="192" r="32"/>
    <circle style="" cx="352" cy="192" r="32"/>
    <path style="" d="M256,416c-42.752,0-82.912-16.672-113.152-46.88c-6.24-6.24-6.24-16.384,0-22.624 s16.384-6.24,22.624,0c48.352,48.384,132.64,48.384,181.024,0c6.24-6.24,16.384-6.24,22.624,0s6.24,16.384,0,22.624 C338.912,399.328,298.752,416,256,416z"/>
  </g>
</svg>