<?xml version="1.0" encoding="utf-8"?>
<svg viewBox="-1.455 -24.445 81.596 84.232" width="81.596" height="84.232" xmlns="http://www.w3.org/2000/svg">
  <defs>
    <style>
      .a {
        fill: #fff;
      }
    </style>
  </defs>
  <g style="" transform="matrix(0.215026, 0, 0, 0.215026, -8.213856, -49.210876)"/>
  <g style="" transform="matrix(0.215026, 0, 0, 0.215026, -8.213856, -49.210876)"/>
  <g style="" transform="matrix(0.215026, 0, 0, 0.215026, -8.213856, -49.210876)"/>
  <g style="" transform="matrix(0.215026, 0, 0, 0.215026, -8.213856, -49.210876)"/>
  <g style="" transform="matrix(0.215026, 0, 0, 0.215026, -8.213856, -49.210876)"/>
  <g style="" transform="matrix(0.215026, 0, 0, 0.215026, -8.213856, -49.210876)"/>
  <g style="" transform="matrix(0.215026, 0, 0, 0.215026, -8.213856, -49.210876)"/>
  <g style="" transform="matrix(0.215026, 0, 0, 0.215026, -8.213856, -49.210876)"/>
  <g style="" transform="matrix(0.215026, 0, 0, 0.215026, -8.213856, -49.210876)"/>
  <g style="" transform="matrix(0.215026, 0, 0, 0.215026, -8.213856, -49.210876)"/>
  <g style="" transform="matrix(0.215026, 0, 0, 0.215026, -8.213856, -49.210876)"/>
  <g style="" transform="matrix(0.215026, 0, 0, 0.215026, -8.213856, -49.210876)"/>
  <g style="" transform="matrix(0.215026, 0, 0, 0.215026, -8.213856, -49.210876)"/>
  <g style="" transform="matrix(0.215026, 0, 0, 0.215026, -8.213856, -49.210876)"/>
  <g style="" transform="matrix(0.215026, 0, 0, 0.215026, -8.213856, -49.210876)"/>
  <path d="M 74.424 21.188 C 74.028 21.188 73.632 21.031 73.325 20.751 L 57.161 5.989 C 56.523 5.407 56.432 4.461 56.96 3.883 L 64.598 -4.555 C 65.128 -5.135 66.071 -5.135 66.708 -4.555 L 82.874 10.208 C 83.512 10.79 83.601 11.735 83.073 12.316 L 75.433 20.751 C 75.183 21.031 74.819 21.188 74.424 21.188 Z M 60.227 4.936 L 74.082 17.588 L 79.811 11.263 L 65.955 -1.392 Z M 60.227 4.936" style="fill: rgb(185, 184, 193);" transform="matrix(0.693686, 0.720277, -0.720277, 0.693686, 27.280654, -47.950743)"/>
  <path d="M 77.503 16.54 L 56.492 39.741 L 24.159 10.219 L 34.665 -1.383 L 45.17 -12.983 Z M 77.503 16.54" style="fill: rgb(215, 214, 218);" transform="matrix(0.693686, 0.720277, -0.720277, 0.693686, 25.206813, -32.514237)"/>
  <path d="M 52.472 -9.52 L 65.841 -24.281 L 61.221 -28.498 L 34.485 1.024 L 39.104 5.241 L 41.969 2.078 Z M 52.472 -9.52" style="fill: rgb(185, 184, 193);" transform="matrix(0.693686, 0.720277, -0.720277, 0.693686, 6.989866, -39.693231)"/>
  <path d="M 62.024 -17.328 L 52.193 -6.473 L 41.688 5.126 L 41.013 5.873 L 38.563 3.637 L 49.07 -7.964 L 59.574 -19.564 Z M 62.024 -17.328" style="fill: rgb(239, 239, 239);" transform="matrix(0.693686, 0.720277, -0.720277, 0.693686, 10.474925, -38.322127)"/>
  <path d="M 15.361 9.396 C 16.012 10.235 16.523 11.164 16.878 12.148 C 17.253 13.174 17.446 14.242 17.44 15.302 L 39.575 10.678 L 32.889 4.575 Z M 15.361 9.396" style="fill: rgb(185, 184, 193);" transform="matrix(0.693686, 0.720277, -0.720277, 0.693686, 15.572296, -16.740275)"/>
  <path d="M 20.434 2.346 C 20.034 1.261 19.216 0.335 18.16 -0.226 C 17.104 -0.788 15.903 -0.937 14.815 -0.645 L 17.86 7.512 C 19.572 7.059 20.708 5.59 20.705 3.834 C 20.708 3.333 20.617 2.83 20.434 2.346 Z M 20.434 2.346" style="fill: rgb(239, 239, 239);" transform="matrix(0.693686, 0.720277, -0.720277, 0.693686, 7.860618, -11.762787)"/>
  <path d="M 10.785 9.289 C 11.34 7.799 9.971 2.626 9.971 2.626 C 9.971 2.626 5.695 5.278 5.144 6.77 C 4.767 7.739 4.966 8.886 5.662 9.769 C 6.357 10.653 7.446 11.137 8.509 11.039 C 9.571 10.94 10.442 10.273 10.789 9.289 Z M 10.785 9.289" style="fill: rgb(68, 82, 173);" transform="matrix(0.693686, 0.720277, -0.720277, 0.693686, 7.356924, -3.621858)"/>
  <path d="M 5.569 2.487 C 6.624 1.323 7.078 -3.841 7.078 -3.841 C 7.078 -3.841 2.004 -2.898 0.95 -1.732 C -0.105 -0.567 0.072 1.323 1.35 2.487 C 2.625 3.65 4.515 3.65 5.569 2.487 Z M 5.569 2.487" style="fill: rgb(68, 82, 173);" transform="matrix(0.693686, 0.720277, -0.720277, 0.693686, 0.95064, -2.71712)"/>
  <path d="M 10.528 -3.266 C 12.026 -3.828 14.658 -8.108 14.658 -8.108 C 14.658 -8.108 9.461 -9.433 7.957 -8.869 C 6.496 -8.284 5.89 -6.595 6.589 -5.068 C 7.29 -3.541 9.041 -2.739 10.528 -3.266 Z M 10.528 -3.266" style="fill: rgb(68, 82, 173);" transform="matrix(0.693686, 0.720277, -0.720277, 0.693686, -1.152663, -9.40257)"/>
  <g transform="matrix(0.081147, -0.004252, 0.004293, 0.081914, 28.84234, -12.682636)" style="stroke-width: 1.5724; vector-effect: non-scaling-stroke;">
    <circle style="fill: rgb(68, 82, 173);" cx="160.574" cy="188.538" r="55.847"/>
    <circle style="fill: rgb(68, 82, 173);" cx="352.415" cy="191.736" r="58.687"/>
    <circle style="fill: rgb(2, 154, 249);" transform="matrix(1.666218, 0.086502, -0.088879, 1.679802, -412.110443, -778.766724)" cx="487.72265625" cy="552.453125" r="7.41719013324158"/>
    <circle style="fill: rgb(2, 154, 249);" transform="matrix(1.666218, 0.086502, -0.088879, 1.679802, -603.756592, -778.598572)" cx="487.72265625" cy="552.453125" r="7.41719013324158"/>
    <path style="fill: rgb(68, 82, 173);" d="M 255.136 504.154 C 202.023 504.154 152.131 483.442 114.563 445.914 C 106.811 438.162 106.811 425.559 114.563 417.807 C 122.315 410.055 134.918 410.055 142.67 417.807 C 202.739 477.916 307.453 477.916 367.562 417.807 C 375.314 410.055 387.916 410.055 395.669 417.807 C 403.422 425.559 403.422 438.162 395.669 445.914 C 358.141 483.442 308.248 504.154 255.136 504.154 Z"/>
  </g>
  <path d="M 51.827 16.709 C 53.88 15.937 57.486 10.072 57.486 10.072 C 57.486 10.072 50.362 8.256 48.304 9.029 C 46.3 9.831 45.469 12.146 46.428 14.238 C 47.39 16.331 49.79 17.431 51.827 16.709 Z M 51.827 16.709" style="fill: rgb(68, 82, 173);" transform="matrix(0.275593, -0.961274, 0.961274, 0.275593, 25.108782, 59.086822)"/>
</svg>