<?xml version="1.0" encoding="utf-8"?>
<svg viewBox="-1.455 -24.445 81.596 84.232" width="81.596" height="84.232" xmlns="http://www.w3.org/2000/svg" xmlns:bx="https://boxy-svg.com">
  <defs>
    <style>
      .a {
        fill: #fff;
      }
    </style>
  </defs>
  <g style="" transform="matrix(-0.215026, 0, 0, 0.215026, 85.986595, -58.407104)"/>
  <g style="" transform="matrix(-0.215026, 0, 0, 0.215026, 85.986595, -58.407104)"/>
  <g style="" transform="matrix(-0.215026, 0, 0, 0.215026, 85.986595, -58.407104)"/>
  <g style="" transform="matrix(-0.215026, 0, 0, 0.215026, 85.986595, -58.407104)"/>
  <g style="" transform="matrix(-0.215026, 0, 0, 0.215026, 85.986595, -58.407104)"/>
  <g style="" transform="matrix(-0.215026, 0, 0, 0.215026, 85.986595, -58.407104)"/>
  <g style="" transform="matrix(-0.215026, 0, 0, 0.215026, 85.986595, -58.407104)"/>
  <g style="" transform="matrix(-0.215026, 0, 0, 0.215026, 85.986595, -58.407104)"/>
  <g style="" transform="matrix(-0.215026, 0, 0, 0.215026, 85.986595, -58.407104)"/>
  <g style="" transform="matrix(-0.215026, 0, 0, 0.215026, 85.986595, -58.407104)"/>
  <g style="" transform="matrix(-0.215026, 0, 0, 0.215026, 85.986595, -58.407104)"/>
  <g style="" transform="matrix(-0.215026, 0, 0, 0.215026, 85.986595, -58.407104)"/>
  <g style="" transform="matrix(-0.215026, 0, 0, 0.215026, 85.986595, -58.407104)"/>
  <g style="" transform="matrix(-0.215026, 0, 0, 0.215026, 85.986595, -58.407104)"/>
  <g style="" transform="matrix(-0.215026, 0, 0, 0.215026, 85.986595, -58.407104)"/>
  <path d="M 38.198 1.285 C 38.849 0.446 39.36 -0.483 39.715 -1.467 C 40.09 -2.493 40.283 -3.561 40.277 -4.621 L 62.412 0.003 L 55.726 6.106 Z M 38.198 1.285" style="fill: rgb(110, 163, 184);" transform="matrix(-0.693686, 0.720277, -0.720277, -0.693686, 85.735701, -34.97598)"/>
  <path d="M 62.687 -4.821 C 62.287 -3.736 61.469 -2.81 60.413 -2.249 C 59.357 -1.687 58.156 -1.538 57.068 -1.83 L 60.113 -9.987 C 61.825 -9.534 62.961 -8.065 62.958 -6.309 C 62.961 -5.808 62.87 -5.305 62.687 -4.821 Z M 62.687 -4.821" style="fill: rgb(115, 84, 84);" transform="matrix(-0.693686, 0.720277, -0.720277, -0.693686, 97.440102, -53.109493)"/>
  <path d="M 72.685 -4.808 C 73.24 -3.318 71.871 1.855 71.871 1.855 C 71.871 1.855 67.595 -0.797 67.044 -2.289 C 66.667 -3.258 66.866 -4.405 67.562 -5.288 C 68.257 -6.172 69.346 -6.656 70.409 -6.558 C 71.471 -6.459 72.342 -5.792 72.689 -4.808 Z M 72.685 -4.808" style="fill: rgb(110, 163, 184);" transform="matrix(-0.693686, 0.720277, -0.720277, -0.693686, 116.58332, -54.295089)"/>
  <path d="M 74.066 -12.248 C 75.121 -11.084 75.575 -5.92 75.575 -5.92 C 75.575 -5.92 70.501 -6.863 69.447 -8.029 C 68.392 -9.194 68.569 -11.084 69.847 -12.248 C 71.122 -13.411 73.012 -13.411 74.066 -12.248 Z M 74.066 -12.248" style="fill: rgb(110, 163, 184);" transform="matrix(-0.693686, 0.720277, -0.720277, -0.693686, 115.370945, -68.104265)"/>
  <path d="M 67.344 -18.043 C 68.842 -17.481 71.474 -13.201 71.474 -13.201 C 71.474 -13.201 66.277 -11.876 64.773 -12.44 C 63.312 -13.025 62.706 -14.714 63.405 -16.241 C 64.106 -17.768 65.857 -18.57 67.344 -18.043 Z M 67.344 -18.043" style="fill: rgb(110, 163, 184);" transform="matrix(-0.693686, 0.720277, -0.720277, -0.693686, 102.989652, -74.303615)"/>
  <path style="fill: rgb(115, 84, 84);" d="M -41.321 -18.38 H -12.926 A 2 2 0 0 1 -10.926 -16.38 V 25.817 A 5 5 0 0 1 -15.926 30.817 H -38.321 A 5 5 0 0 1 -43.321 25.817 V -16.38 A 2 2 0 0 1 -41.321 -18.38 Z" transform="matrix(-1, 0, 0, 1, 0, 0)" bx:shape="rect -43.321 -18.38 32.395 49.197 2 2 5 5 1@e6c4174c"/>
  <g transform="matrix(-0.081147, -0.004252, -0.004293, 0.081914, 48.99876, -21.409626)" style="stroke-width: 1.5724; vector-effect: non-scaling-stroke;">
    <circle style="fill: rgb(255, 255, 255);" cx="160.574" cy="188.538" r="55.847"/>
    <circle style="fill: rgb(255, 255, 255);" cx="352.415" cy="191.736" r="58.687"/>
    <circle style="" transform="matrix(1.666218, 0.086502, -0.088879, 1.679802, -412.110443, -778.766724)" cx="487.72265625" cy="552.453125" r="7.41719013324158"/>
    <circle style="" transform="matrix(1.666218, 0.086502, -0.088879, 1.679802, -603.594604, -781.660278)" cx="487.72265625" cy="552.453125" r="7.41719013324158"/>
    <rect style="fill: rgb(255, 255, 255);" transform="matrix(-0.998656, -0.051838, -0.05283, 0.998604, 627.66553, -43.667608)" x="198.328" y="474.651" width="299.385" height="102.796" rx="51.443" ry="51.443"/>
  </g>
  <path d="M 26.152 0.332 C 28.205 1.104 31.811 6.969 31.811 6.969 C 31.811 6.969 24.687 8.785 22.629 8.012 C 20.625 7.21 19.794 4.895 20.753 2.803 C 21.715 0.71 24.115 -0.39 26.152 0.332 Z M 26.152 0.332" style="fill: rgb(110, 163, 184);" transform="matrix(-0.275593, -0.961274, 0.961274, -0.275593, 29.27518, 30.375549)"/>
  <path style="stroke-width: 3px; fill: none; stroke: rgb(110, 163, 184);" d="M -9.436 -11.42 H -5.578 A 3.858 5 0 0 1 -1.72 -6.42 V 9.938 A 3.858 5 0 0 1 -5.578 14.938 H -9.436 V -11.42 Z" transform="matrix(-1, 0, 0, 1, 0, 0)" bx:shape="rect -9.436 -11.42 7.716 26.358 0 5 5 0 1@9fb016fd"/>
  <rect style="fill: rgb(110, 163, 184);" x="-45.303" y="-19.961" width="35.866" height="5.169" rx="2.3" ry="2.3" transform="matrix(-1, 0, 0, 1, 0, 0)"/>
  <rect style="fill: rgb(110, 163, 184);" x="-40.54" y="-23.305" width="25.787" height="5.169" rx="2.3" ry="2.3" transform="matrix(-1, 0, 0, 1, 0, 0)"/>
</svg>