<?xml version="1.0" encoding="utf-8"?>
<svg viewBox="-1.455 -24.445 81.596 84.232" width="81.596" height="84.232" xmlns="http://www.w3.org/2000/svg" xmlns:bx="https://boxy-svg.com">
  <defs>
    <style>
      .a {
        fill: #fff;
      }
    </style>
  </defs>
  <g style="" transform="matrix(-0.073543, -0.202058, -0.202058, 0.073543, 109.038086, 44.958111)"/>
  <g style="" transform="matrix(-0.073543, -0.202058, -0.202058, 0.073543, 109.038086, 44.958111)"/>
  <g style="" transform="matrix(-0.073543, -0.202058, -0.202058, 0.073543, 109.038086, 44.958111)"/>
  <g style="" transform="matrix(-0.073543, -0.202058, -0.202058, 0.073543, 109.038086, 44.958111)"/>
  <g style="" transform="matrix(-0.073543, -0.202058, -0.202058, 0.073543, 109.038086, 44.958111)"/>
  <g style="" transform="matrix(-0.073543, -0.202058, -0.202058, 0.073543, 109.038086, 44.958111)"/>
  <g style="" transform="matrix(-0.073543, -0.202058, -0.202058, 0.073543, 109.038086, 44.958111)"/>
  <g style="" transform="matrix(-0.073543, -0.202058, -0.202058, 0.073543, 109.038086, 44.958111)"/>
  <g style="" transform="matrix(-0.073543, -0.202058, -0.202058, 0.073543, 109.038086, 44.958111)"/>
  <g style="" transform="matrix(-0.073543, -0.202058, -0.202058, 0.073543, 109.038086, 44.958111)"/>
  <g style="" transform="matrix(-0.073543, -0.202058, -0.202058, 0.073543, 109.038086, 44.958111)"/>
  <g style="" transform="matrix(-0.073543, -0.202058, -0.202058, 0.073543, 109.038086, 44.958111)"/>
  <g style="" transform="matrix(-0.073543, -0.202058, -0.202058, 0.073543, 109.038086, 44.958111)"/>
  <g style="" transform="matrix(-0.073543, -0.202058, -0.202058, 0.073543, 109.038086, 44.958111)"/>
  <g style="" transform="matrix(-0.073543, -0.202058, -0.202058, 0.073543, 109.038086, 44.958111)"/>
  <path d="M 29.145 32.201 C 29.796 31.362 30.307 30.433 30.662 29.449 C 31.037 28.423 31.23 27.355 31.224 26.295 L 53.359 30.919 L 46.673 37.022 Z M 29.145 32.201" style="fill: rgb(110, 163, 184);" transform="matrix(-0.914094, -0.405503, 0.405503, -0.914094, 66.122598, 77.325135)"/>
  <path d="M 53.428 39.546 C 53.028 40.631 52.21 41.557 51.154 42.118 C 50.098 42.68 48.897 42.829 47.809 42.537 L 50.854 34.38 C 52.566 34.833 53.702 36.302 53.699 38.058 C 53.702 38.559 53.611 39.062 53.428 39.546 Z M 53.428 39.546" style="fill: rgb(115, 84, 84);" transform="matrix(-0.914094, -0.405503, 0.405503, -0.914094, 81.523358, 94.333839)"/>
  <path d="M 53.694 46.502 C 54.249 47.992 52.88 53.165 52.88 53.165 C 52.88 53.165 48.604 50.513 48.053 49.021 C 47.676 48.052 47.875 46.905 48.571 46.022 C 49.266 45.138 50.355 44.654 51.418 44.752 C 52.48 44.851 53.351 45.518 53.698 46.502 Z M 53.694 46.502" style="fill: rgb(110, 163, 184);" transform="matrix(-0.914094, -0.405503, 0.405503, -0.914094, 77.473269, 114.3173)"/>
  <path d="M 60.273 45.964 C 61.328 47.128 61.782 52.292 61.782 52.292 C 61.782 52.292 56.708 51.349 55.654 50.183 C 54.599 49.018 54.776 47.128 56.054 45.964 C 57.329 44.801 59.219 44.801 60.273 45.964 Z M 60.273 45.964" style="fill: rgb(110, 163, 184);" transform="matrix(-0.914094, -0.405503, 0.405503, -0.914094, 91.988423, 116.871586)"/>
  <path d="M 62.143 39.363 C 63.641 39.925 66.273 44.205 66.273 44.205 C 66.273 44.205 61.076 45.53 59.572 44.966 C 58.111 44.381 57.505 42.692 58.204 41.165 C 58.905 39.638 60.656 38.836 62.143 39.363 Z M 62.143 39.363" style="fill: rgb(110, 163, 184);" transform="matrix(-0.914094, -0.405503, 0.405503, -0.914094, 101.759336, 105.864796)"/>
  <path style="fill: rgb(115, 84, 84);" d="M 45.321 18.38 H 73.716 A 2 2 0 0 1 75.716 20.38 V 62.577 A 5 5 0 0 1 70.716 67.577 H 48.321 A 5 5 0 0 1 43.321 62.577 V 20.38 A 2 2 0 0 1 45.321 18.38 Z" transform="matrix(-0.34202, -0.939693, -0.939693, 0.34202, 88.920623, 52.977742)" bx:shape="rect 43.321 18.38 32.395 49.197 2 2 5 5 1@f1f68eff"/>
  <g transform="matrix(-0.023758, -0.077708, -0.078442, 0.023982, 61.621246, 22.854795)" style="stroke-width: 1.5724; vector-effect: non-scaling-stroke;">
    <circle style="fill: rgb(255, 255, 255);" cx="160.574" cy="188.538" r="55.847"/>
    <circle style="fill: rgb(255, 255, 255);" cx="352.415" cy="191.736" r="58.687"/>
    <circle style="" transform="matrix(1.666218, 0.086502, -0.088879, 1.679802, -412.110443, -778.766724)" cx="487.72265625" cy="552.453125" r="7.41719013324158"/>
    <circle style="" transform="matrix(1.666218, 0.086502, -0.088879, 1.679802, -603.594604, -781.660278)" cx="487.72265625" cy="552.453125" r="7.41719013324158"/>
    <path style="fill: rgb(255, 255, 255);" d="M 255.136 504.154 C 202.023 504.154 152.131 483.442 114.563 445.914 C 106.811 438.162 106.811 425.559 114.563 417.807 C 122.315 410.055 134.918 410.055 142.67 417.807 C 202.739 477.916 307.453 477.916 367.562 417.807 C 375.314 410.055 387.916 410.055 395.669 417.807 C 403.422 425.559 403.422 438.162 395.669 445.914 C 358.141 483.442 308.248 504.154 255.136 504.154 Z"/>
  </g>
  <path d="M 29.828 6.241 C 31.881 7.013 35.487 12.878 35.487 12.878 C 35.487 12.878 28.363 14.694 26.305 13.921 C 24.301 13.119 23.47 10.804 24.429 8.712 C 25.391 6.619 27.791 5.519 29.828 6.241 Z M 29.828 6.241" style="fill: rgb(110, 163, 184);" transform="matrix(0.809044, -0.587748, 0.587748, 0.809044, -0.233642, 19.412929)"/>
  <path style="stroke-width: 3px; fill: none; stroke: rgb(110, 163, 184);" d="M 9.436 11.42 H 13.294 A 3.858 5 0 0 1 17.152 16.42 V 32.778 A 3.858 5 0 0 1 13.294 37.778 H 9.436 V 11.42 Z" transform="matrix(-0.34202, -0.939693, -0.939693, 0.34202, 52.661401, -5.944313)" bx:shape="rect 9.436 11.42 7.716 26.358 0 5 5 0 1@a071c755"/>
  <rect style="fill: rgb(110, 163, 184);" x="45.303" y="19.961" width="35.866" height="5.169" rx="2.3" ry="2.3" transform="matrix(-0.34202, -0.939693, -0.939693, 0.34202, 93.247703, 55.621214)"/>
  <rect style="fill: rgb(110, 163, 184);" x="40.54" y="23.305" width="25.787" height="5.169" rx="2.3" ry="2.3" transform="matrix(-0.34202, -0.939693, -0.939693, 0.34202, 96.274282, 44.382273)"/>
</svg>