<?xml version="1.0" encoding="utf-8"?>
<svg width="76" height="76" viewBox="0 0 76 76" xmlns="http://www.w3.org/2000/svg">
  <defs>
    <style>
      .a {
        fill: #fff;
      }
    </style>
  </defs>
  <g transform="matrix(0.255947, 0, 0, 0.198492, -28.074209, -10.818916)" style="">
    <g>
      <g/>
      <g/>
      <g>
        <path d="m313.611 144.043c-39.362-50.911-57.611-88.52-57.611-88.52s-18.249 37.609-57.611 88.52c-47.798 61.821-97.315 149.349 57.611 291.434 154.926-142.085 105.409-229.613 57.611-291.434z" style="fill: rgb(158, 239, 200);"/>
        <path d="m256 435.477v-379.954s18.243 37.614 57.608 88.52c47.804 61.827 97.322 149.353-57.608 291.434z" style="fill: rgb(109, 215, 150);"/>
      </g>
    </g>
  </g>
  <g transform="matrix(0.102946, 0, 0, 0.102946, 10.902445, 18.17799)" style="">
    <circle style="" cx="160" cy="192" r="32"/>
    <circle style="" cx="352" cy="192" r="32"/>
  </g>
  <g style="" transform="matrix(0.159766, 0, 0, 0.159766, -0.577546, -0.47355)"/>
  <g style="" transform="matrix(0.159766, 0, 0, 0.159766, -0.577546, -0.47355)"/>
  <g style="" transform="matrix(0.159766, 0, 0, 0.159766, -0.577546, -0.47355)"/>
  <g style="" transform="matrix(0.159766, 0, 0, 0.159766, -0.577546, -0.47355)"/>
  <g style="" transform="matrix(0.159766, 0, 0, 0.159766, -0.577546, -0.47355)"/>
  <g style="" transform="matrix(0.159766, 0, 0, 0.159766, -0.577546, -0.47355)"/>
  <g style="" transform="matrix(0.159766, 0, 0, 0.159766, -0.577546, -0.47355)"/>
  <g style="" transform="matrix(0.159766, 0, 0, 0.159766, -0.577546, -0.47355)"/>
  <g style="" transform="matrix(0.159766, 0, 0, 0.159766, -0.577546, -0.47355)"/>
  <g style="" transform="matrix(0.159766, 0, 0, 0.159766, -0.577546, -0.47355)"/>
  <g style="" transform="matrix(0.159766, 0, 0, 0.159766, -0.577546, -0.47355)"/>
  <g style="" transform="matrix(0.159766, 0, 0, 0.159766, -0.577546, -0.47355)"/>
  <g style="" transform="matrix(0.159766, 0, 0, 0.159766, -0.577546, -0.47355)"/>
  <g style="" transform="matrix(0.159766, 0, 0, 0.159766, -0.577546, -0.47355)"/>
  <g style="" transform="matrix(0.159766, 0, 0, 0.159766, -0.577546, -0.47355)"/>
  <g style="" transform="matrix(0.084585, -0.084585, 0.084585, 0.084585, 23.688873, 37.998493)"/>
  <g style="" transform="matrix(0.084585, -0.084585, 0.084585, 0.084585, 23.688873, 37.998493)"/>
  <g style="" transform="matrix(0.084585, -0.084585, 0.084585, 0.084585, 23.688873, 37.998493)"/>
  <g style="" transform="matrix(0.084585, -0.084585, 0.084585, 0.084585, 23.688873, 37.998493)"/>
  <g style="" transform="matrix(0.084585, -0.084585, 0.084585, 0.084585, 23.688873, 37.998493)"/>
  <g style="" transform="matrix(0.084585, -0.084585, 0.084585, 0.084585, 23.688873, 37.998493)"/>
  <g style="" transform="matrix(0.084585, -0.084585, 0.084585, 0.084585, 23.688873, 37.998493)"/>
  <g style="" transform="matrix(0.084585, -0.084585, 0.084585, 0.084585, 23.688873, 37.998493)"/>
  <g style="" transform="matrix(0.084585, -0.084585, 0.084585, 0.084585, 23.688873, 37.998493)"/>
  <g style="" transform="matrix(0.084585, -0.084585, 0.084585, 0.084585, 23.688873, 37.998493)"/>
  <g style="" transform="matrix(0.084585, -0.084585, 0.084585, 0.084585, 23.688873, 37.998493)"/>
  <g style="" transform="matrix(0.084585, -0.084585, 0.084585, 0.084585, 23.688873, 37.998493)"/>
  <g style="" transform="matrix(0.084585, -0.084585, 0.084585, 0.084585, 23.688873, 37.998493)"/>
  <g style="" transform="matrix(0.084585, -0.084585, 0.084585, 0.084585, 23.688873, 37.998493)"/>
  <g style="" transform="matrix(0.084585, -0.084585, 0.084585, 0.084585, 23.688873, 37.998493)"/>
  <path style="" d="M 37.667 59.474 C 33.167 59.474 28.94 57.702 25.757 54.492 C 25.1 53.829 25.1 52.751 25.757 52.088 C 26.413 51.425 27.481 51.425 28.138 52.088 C 33.228 57.229 42.1 57.229 47.193 52.088 C 47.85 51.425 48.918 51.425 49.574 52.088 C 50.231 52.751 50.231 53.829 49.574 54.492 C 46.395 57.702 42.167 59.474 37.667 59.474 Z"/>
  <path d="M 43.113 57.475 C 43.033 57.721 42.702 57.918 42.38 58.118 C 42.1 58.294 41.913 58.509 41.502 58.637 C 41.225 58.723 40.733 58.742 40.404 58.742 C 40.051 58.742 39.74 58.754 39.421 58.687 C 37.628 58.312 38.713 58.011 38.191 57.378 C 38.106 57.276 37.806 57.145 37.466 57.119 C 37.376 57.161 37.309 57.206 37.275 57.247 C 36.753 57.879 37.838 58.18 36.045 58.554 C 35.726 58.622 35.415 58.609 35.062 58.609 C 34.733 58.609 34.241 58.59 33.964 58.504 C 33.802 58.453 33.676 58.389 33.564 58.32 C 32.318 58.012 32.204 57.295 32.204 56.698 C 32.204 56.54 32.031 56.2 32.204 56.06 C 32.298 55.986 33.213 55.882 33.405 55.961 C 34.43 56.381 35.836 56.532 37.217 56.702 C 37.281 56.695 37.34 56.689 37.391 56.681 C 39.025 56.451 40.822 56.337 42.061 55.828 C 42.253 55.75 43.168 55.853 43.262 55.929 C 43.435 56.067 43.262 56.407 43.262 56.567 C 43.262 56.758 43.25 56.963 43.193 57.162 C 43.173 57.267 43.147 57.37 43.113 57.475 Z" style="fill: rgb(255, 255, 255);"/>
</svg>