<svg xmlns="http://www.w3.org/2000/svg" xmlns:xlink="http://www.w3.org/1999/xlink" width="83.83" height="83.83" viewBox="0 0 83.83 83.83">
  <defs>
    <style>
      .a {
        fill: none;
      }

      .b {
        clip-path: url(#a);
      }

      .c {
        fill: #1877f2;
      }

      .d {
        fill: #fff;
      }
    </style>
    <clipPath id="a">
      <rect class="a" width="83.83" height="83.83"/>
    </clipPath>
  </defs>
  <title>facebook</title>
  <g class="b">
    <path class="c" d="M83.83,41.92a41.92,41.92,0,1,0-48.46,41.4V54H24.72V41.92H35.37V32.68c0-10.5,6.25-16.31,15.83-16.31a64.4,64.4,0,0,1,9.38.82V27.51H55.3c-5.21,0-6.84,3.23-6.84,6.54v7.87H60.09L58.23,54H48.46V83.32a41.92,41.92,0,0,0,35.37-41.4"/>
    <path class="d" d="M58.23,54l1.86-12.11H48.46V34.05c0-3.31,1.63-6.54,6.84-6.54h5.28V17.19a64.4,64.4,0,0,0-9.38-.82c-9.58,0-15.83,5.81-15.83,16.31v9.24H24.72V54H35.37V83.32a42.25,42.25,0,0,0,13.09,0V54Z"/>
  </g>
</svg>
