<svg xmlns="http://www.w3.org/2000/svg" width="79.09" height="80.69" viewBox="0 0 79.09 80.69">
  <defs>
    <style>
      .a {
        fill: #4285f4;
      }

      .b {
        fill: #34a853;
      }

      .c {
        fill: #fbbc04;
      }

      .d {
        fill: #ea4335;
      }
    </style>
  </defs>
  <title>Google</title>
  <g>
    <path class="a" d="M79.09,41.27a47,47,0,0,0-.7-8.2h-38V48.61H62.13a18.68,18.68,0,0,1-8.06,12.26V71h13C74.7,63.92,79.09,53.54,79.09,41.27Z"/>
    <path class="b" d="M40.34,80.69c10.88,0,20.06-3.58,26.74-9.74l-13-10.08a24.47,24.47,0,0,1-36.37-12.8H4.29v10.4A40.36,40.36,0,0,0,40.34,80.69Z"/>
    <path class="c" d="M17.69,48.07a24.14,24.14,0,0,1,0-15.44V22.24H4.29a40.39,40.39,0,0,0,0,36.23Z"/>
    <path class="d" d="M40.34,16a21.91,21.91,0,0,1,15.48,6h0L67.33,10.5A38.75,38.75,0,0,0,40.34,0,40.34,40.34,0,0,0,4.29,22.24l13.4,10.39A24.14,24.14,0,0,1,40.34,16Z"/>
  </g>
</svg>
