<svg xmlns="http://www.w3.org/2000/svg" xmlns:xlink="http://www.w3.org/1999/xlink" width="75.11" height="61.04" viewBox="0 0 75.11 61.04">
  <defs>
    <style>
      .a {
        fill: none;
      }

      .b {
        clip-path: url(#a);
      }

      .c {
        fill: #2caae1;
      }
    </style>
    <clipPath id="a" transform="translate(0 0)">
      <rect class="a" width="75.11" height="61.04"/>
    </clipPath>
  </defs>
  <title>twitter</title>
  <g class="b">
    <path class="c" d="M75.11,7.23a30.84,30.84,0,0,1-8.85,2.42A15.43,15.43,0,0,0,73,1.13a31,31,0,0,1-9.79,3.74A15.42,15.42,0,0,0,36.59,15.41a15.61,15.61,0,0,0,.4,3.51A43.74,43.74,0,0,1,5.23,2.82,15.41,15.41,0,0,0,10,23.39a15.39,15.39,0,0,1-7-1.92v.19A15.42,15.42,0,0,0,15.38,36.77a15.37,15.37,0,0,1-7,.26A15.43,15.43,0,0,0,22.81,47.74,30.9,30.9,0,0,1,3.68,54.33,31.91,31.91,0,0,1,0,54.12,43.63,43.63,0,0,0,23.62,61C52,61,67.47,37.56,67.47,17.2c0-.67,0-1.34,0-2a31.16,31.16,0,0,0,7.69-8" transform="translate(0 0)"/>
  </g>
</svg>
