<svg xmlns="http://www.w3.org/2000/svg" width="31.31" height="60.24" viewBox="0 0 31.31 60.24">
  <title>about</title>
  <path d="M15.42,45.45H13.67A39.37,39.37,0,0,1,15,36.57a59.17,59.17,0,0,1,4.32-9.78,44.45,44.45,0,0,0,3.32-7.39,18.16,18.16,0,0,0,.77-5.21,12.38,12.38,0,0,0-2.88-8.61,9.1,9.1,0,0,0-7-3.19A9,9,0,0,0,7.67,4.13,5,5,0,0,0,5.54,7.92,8.33,8.33,0,0,0,6.82,11.8a8.2,8.2,0,0,1,1.27,3.49,3.59,3.59,0,0,1-1,2.58,3.11,3.11,0,0,1-2.38,1,4.21,4.21,0,0,1-3.26-1.76A7.48,7.48,0,0,1,0,12.23,11.19,11.19,0,0,1,4.13,3.71Q8.27,0,15.34,0q8.78,0,12.9,5.11a12.79,12.79,0,0,1,3.07,8.31,16.44,16.44,0,0,1-1.38,6.39,30.76,30.76,0,0,1-5.26,7.71q-6.18,7-7.57,9.9A22.29,22.29,0,0,0,15.42,45.45Zm-.59,5.29a4.73,4.73,0,0,1,4.77,4.77,4.51,4.51,0,0,1-1.41,3.34,4.65,4.65,0,0,1-3.36,1.39,4.75,4.75,0,1,1,0-9.5Z"/>
</svg>
