<svg xmlns="http://www.w3.org/2000/svg" width="76" height="76" viewBox="0 0 76 76">
  <defs>
    <style>
      .a {
        fill: #fff;
      }
    </style>
  </defs>
  <g>
    <circle class="a" cx="38" cy="38" r="38"/>
    <g>
      <g>
        <path d="M51.88,28.8l-35.7-.06a1.16,1.16,0,0,0-1.31,1,1.18,1.18,0,0,0,1,1.31h.49l8.51,10.68a8.94,8.94,0,0,1,3.48,2.88l17.1-5a4.9,4.9,0,0,0,3-2.41l3.21-6.08h.25a1.17,1.17,0,1,0,0-2.33Z"/>
        <path d="M64.13,18.6a9.86,9.86,0,0,0-7.47,6.24L54,35.69A7.56,7.56,0,0,1,49,40.3L27.63,46.55A7.44,7.44,0,1,0,28.46,50a6.75,6.75,0,0,0-.1-1.19l7.2-2.1,3.58,7.15a2.89,2.89,0,0,0,5.59-.56l1.37-9.67,3.51-1a9.93,9.93,0,0,0,6.62-6.05l2.63-10.85a7.5,7.5,0,0,1,5.63-4.73,1.21,1.21,0,0,0,1-1.16v-.06A1.16,1.16,0,0,0,64.13,18.6ZM21,54.56A4.6,4.6,0,1,1,25.6,50,4.62,4.62,0,0,1,21,54.56ZM43.11,53a1.26,1.26,0,0,1-2.44.21l-.05-.11-3.44-6.9,7.18-2.1Z"/>
        <circle cx="21" cy="49.96" r="2.96"/>
      </g>
      <path d="M48.15,27.78a4.52,4.52,0,0,0-5.21-3.21,4.2,4.2,0,0,0-3.76-1.68,4.82,4.82,0,0,0-6-1.86C30,16.68,23.56,19,23.47,24.93v0H23.4A5.1,5.1,0,0,0,18.88,28H48.06A.85.85,0,0,1,48.15,27.78Z"/>
    </g>
  </g>
</svg>
