<svg xmlns="http://www.w3.org/2000/svg" width="76" height="76" viewBox="0 0 76 76">
  <defs>
    <style>
      .a {
        fill: #fff;
      }
    </style>
  </defs>
  <g>
    <circle class="a" cx="38" cy="38" r="38"/>
    <g>
      <path d="M63.91,46.39a4.53,4.53,0,0,0-2.18-2.18L48.89,38.62l-1.86-1a1.19,1.19,0,0,0-.52-.07.67.67,0,0,0-.38.33l-.65,1.22L41.9,37.41a3.78,3.78,0,0,0-1-1.82,3,3,0,0,0-.43-.37C33.93,18.51,22.05,12.17,21.6,12l-.2,0a.6.6,0,0,0-.51.22.59.59,0,0,0,0,.77l14.83,22.4a3.36,3.36,0,0,0-.29.24,1.63,1.63,0,0,0-.17.2L12.93,20.84a.81.81,0,0,0-.39-.1.77.77,0,0,0-.38.1.6.6,0,0,0-.19.7c.19.45,6.38,12.08,22.89,18.83a3.93,3.93,0,0,0,2.61,1.82l.76,1.57,1,1.8L38,46.2a.74.74,0,0,0-.33.9l1,1.86L44.2,61.8a3.92,3.92,0,0,0,2.12,2.06,3.55,3.55,0,0,0,1.15.19A3,3,0,0,0,49,63.66l.45-.25A3.48,3.48,0,0,0,51,61.35a3.6,3.6,0,0,0-.45-2.89L43.3,46.52l-1-1.86a.67.67,0,0,0-.39-.32.48.48,0,0,0-.51.06L40.28,45,38.83,42.2A4,4,0,0,0,41,41.1v0a4.06,4.06,0,0,0,1-2l3,1.25-.58,1.15a.58.58,0,0,0,.26.84l1.86,1,11.94,7.32a3.68,3.68,0,0,0,2,.58,5.27,5.27,0,0,0,1-.13,3.46,3.46,0,0,0,2.05-1.61l.26-.45A3.36,3.36,0,0,0,63.91,46.39ZM42.53,47.61l7,11.43A2.67,2.67,0,0,1,49.85,61a1.87,1.87,0,0,1-1,1.22l-.45.25a2,2,0,0,1-1.61.07,2.43,2.43,0,0,1-1.41-1.35L40.09,48.9Zm-1-1.8.39.71-2.38,1.22L39.13,47Zm-18.85-32C25.9,15.89,34,22.4,39.1,34.57a3.61,3.61,0,0,0-.94-.12,4.12,4.12,0,0,0-1.43.27ZM34.31,39.06C22,33.78,15.86,25.82,13.75,22.59l21,14a3.82,3.82,0,0,0-.43,1.73,3.72,3.72,0,0,0,.09.81Zm5.92,1.34a2.91,2.91,0,1,1-4.1-4.12,2.9,2.9,0,0,1,2-.83,2.73,2.73,0,0,1,2,.83,3,3,0,0,1,.84,2A3.09,3.09,0,0,1,40.23,40.4Zm5.64,1.11,1.22-2.37.71.38L46.58,41.9ZM62.5,48.38l-.26.45a1.76,1.76,0,0,1-1.22,1,2.48,2.48,0,0,1-1.92-.25L47.67,42.47,49,40l12.27,5.33a2.41,2.41,0,0,1,1.34,1.42A1.94,1.94,0,0,1,62.5,48.38Z"/>
      <path d="M36.91,37a1.82,1.82,0,0,0,1.29,3.1,1.78,1.78,0,0,0,1.28-.53A2.05,2.05,0,0,0,40,38.24,1.8,1.8,0,0,0,39.48,37,1.84,1.84,0,0,0,36.91,37Zm1.86,1.87h0a.85.85,0,0,1-1.15,0,.82.82,0,0,1,0-1.16.81.81,0,0,1,1.15,0,.77.77,0,0,1,.24.55A1.14,1.14,0,0,1,38.77,38.85Z"/>
    </g>
  </g>
</svg>
