<svg id="sprout" xmlns="http://www.w3.org/2000/svg" width="42.8" height="43.439" viewBox="0 0 42.8 43.439">
  <g id="Groupe_12" data-name="Groupe 12">
    <path id="Tracé_20" data-name="Tracé 20" d="M1498.462,316.012c-.037-1.556-.041-5.715-.041-6.429a21.36,21.36,0,0,1,2.044-2.854,7.93,7.93,0,0,0,2.237.347,5.271,5.271,0,0,0,2.237-.463,6.691,6.691,0,0,0,2.545-2.352c.463-.578,1.041-1.311,1.851-2.2.733-.771,1.465-1.542,2.275-2.275l.887-.964-1.08-.694a8.121,8.121,0,0,0-9.255.27,8.451,8.451,0,0,0-3.085,6.748,5.96,5.96,0,0,0-.617.771c.077-1.08.193-2.121.308-3.162h.039v-.039a43.405,43.405,0,0,1,1.658-7.288c4.165-1.157,7.018-3.046,8.407-5.669a11.646,11.646,0,0,0,1.157-4.358,16.734,16.734,0,0,1,1.311-5.244,17.869,17.869,0,0,1,2.969-4.627l1.075-1.232-1.62-.347c-6.671-1.465-13.458,1.658-16.2,7.4-2.854,6.016.116,11.839,1.041,13.42-.386,1.35-.771,2.776-1.08,4.165a22.339,22.339,0,0,0-2.391-4.049c-.077-1.774-.656-7.057-5.052-10.3-4.618-3.424-11.328-3.154-16.3.7l-1.2.964,1.35.694a23.01,23.01,0,0,1,4.589,3.008,19.654,19.654,0,0,1,3.008,3.162,10.5,10.5,0,0,0,2.545,2.507,9.647,9.647,0,0,0,5.4,1.465,18.655,18.655,0,0,0,4.4-.578,19.137,19.137,0,0,1,2.931,6.363,45.788,45.788,0,0,0-.386,6.093v.039h0c0,.675.024,5.368.054,7.049a.994.994,0,0,0,.97.976h0a1,1,0,0,0,1.017-.983Zm4.9-16.031a6.083,6.083,0,0,1,5.9-.771c-.463.463-.925.964-1.388,1.427-.848.925-1.465,1.7-1.928,2.314a5.1,5.1,0,0,1-1.852,1.773,2.612,2.612,0,0,1-2.176.005,34.61,34.61,0,0,1,2.951-2.539.493.493,0,0,0,.16-.664h0a.5.5,0,0,0-.685-.177l-.015.01c-.483.313-2.482,1.646-3.311,2.357A6.4,6.4,0,0,1,1503.357,299.981Zm-4.01-17.816a12.176,12.176,0,0,1,11.144-6.633c.424,0,.848.039,1.273.077a21.067,21.067,0,0,0-2.237,3.815,18.382,18.382,0,0,0-1.465,5.784,9.722,9.722,0,0,1-.964,3.7c-1,1.89-3.008,3.316-5.939,4.319a83.558,83.558,0,0,1,4.376-9.757.407.407,0,0,0-.1-.56h0a.406.406,0,0,0-.567.1l-.008.011c-.81,1.24-4.051,5.931-5.319,9.208a12.223,12.223,0,0,1-.2-10.059Zm-10.413,3.972a10.563,10.563,0,0,1,3.9,6.17c-2.473-2.339-6.872-3.625-7.722-3.927a.381.381,0,0,0-.487.23l-.005.014h0a.378.378,0,0,0,.231.469,29.023,29.023,0,0,1,7.714,5.72c-3.162.656-5.63.347-7.4-.81a10.058,10.058,0,0,1-2.121-2.121,21.3,21.3,0,0,0-3.278-3.393,25.467,25.467,0,0,0-3.548-2.507A11.4,11.4,0,0,1,1488.934,286.137Z" transform="translate(-1472.584 -273.592)"/>
  </g>
</svg>
