<svg xmlns="http://www.w3.org/2000/svg" width="76" height="76" viewBox="0 0 76 76">
  <defs>
    <style>
      .a {
        fill: #fff;
      }
    </style>
  </defs>
  <g>
    <circle class="a" cx="38" cy="38" r="38"/>
    <g>
      <path d="M28.73,61.28a1.65,1.65,0,0,1-1.63-1.35l-1.53-8.1V17.88a3.16,3.16,0,0,1,3.16-3.16,3.19,3.19,0,0,1,3.17,3.16v33.9l-1.54,8.11A1.64,1.64,0,0,1,28.73,61.28Zm-2.09-9.64,1.53,8.06a.56.56,0,0,0,.56.47.55.55,0,0,0,.56-.47l1.54-8.06V17.88a2.1,2.1,0,0,0-4.19,0Z"/>
      <path d="M38,61.28a1.65,1.65,0,0,1-1.63-1.35l-1.54-8.1V17.88a3.17,3.17,0,0,1,6.34,0v33.9l-1.54,8.11A1.65,1.65,0,0,1,38,61.28Zm-2.1-9.64,1.54,8.06a.57.57,0,0,0,1.12,0l1.54-8.06V17.88a2.1,2.1,0,0,0-4.2,0Z"/>
      <path d="M47.31,61.28a1.65,1.65,0,0,1-1.63-1.35l-1.53-8.1V17.88a3.17,3.17,0,0,1,6.33,0v33.9l-1.54,8.11A1.68,1.68,0,0,1,47.31,61.28Zm-2.14-9.64,1.54,8.06a.55.55,0,0,0,.56.47.56.56,0,0,0,.56-.47l1.53-8.06V17.88a2.1,2.1,0,0,0-4.19,0Z"/>
      <path d="M28.73,52.25H26.08a.56.56,0,1,1,0-1.12h2.65a.57.57,0,0,1,.56.56A.59.59,0,0,1,28.73,52.25Z"/>
      <path d="M38,52.25H35.35a.56.56,0,1,1,0-1.12H38a.57.57,0,0,1,.56.56A.54.54,0,0,1,38,52.25Z"/>
      <path d="M47.31,52.25H44.66a.56.56,0,0,1,0-1.12h2.65a.57.57,0,0,1,.56.56A.59.59,0,0,1,47.31,52.25Z"/>
    </g>
  </g>
</svg>
