<svg xmlns="http://www.w3.org/2000/svg" width="104.99" height="181.23" viewBox="0 0 104.99 181.23">
  <defs>
    <style>
      .a {
        fill: #76923e;
      }

      .b {
        fill: #324416;
      }
    </style>
  </defs>
  <title>Insect tree</title>
  <g>
    <circle class="a" cx="52.5" cy="52.5" r="52.5"/>
    <path class="b" d="M80.27,84.61l0,.81v-.81a.4.4,0,0,1-.4-.4v-.15l0-.17-3-23.33a2.53,2.53,0,0,0-1.37-1.94L65.25,53.48V52.12a.4.4,0,0,1,.4-.4H77.32a5.46,5.46,0,0,0,5.44-5.44,2.52,2.52,0,0,0-5,0,.4.4,0,0,1-.4.4H65.64l-.44,0q0-.41-.09-.81h.54a5.45,5.45,0,0,0,5.44-5.44V28.78a.41.41,0,0,1,.44-.4A2.52,2.52,0,0,0,74,25.77a2.54,2.54,0,0,0-2.46-2.43,5.46,5.46,0,0,0-5.44,5.44V40.45a.4.4,0,0,1-.4.4H63.21a13,13,0,0,0-2.71-3,6.87,6.87,0,0,0,.61-8.59,6.81,6.81,0,0,0-1.23-1.34l3.18-3.18a2.52,2.52,0,0,0-3.56-3.56l-5.1,5.09H50.65l-5.09-5.09a2.57,2.57,0,0,0-3.57,0,2.52,2.52,0,0,0,0,3.56l3.18,3.18a6.86,6.86,0,0,0-1.63,8.5,6.53,6.53,0,0,0,1,1.43,13,13,0,0,0-2.71,3H39.4a.4.4,0,0,1-.4-.4V28.78a5.47,5.47,0,0,0-5.48-5.44,2.55,2.55,0,0,0-1.75.81,2.52,2.52,0,0,0,1.79,4.23.4.4,0,0,1,.4.4V40.45a5.47,5.47,0,0,0,5.44,5.44h.54c0,.27-.07.54-.1.81l-.44,0H27.73a.41.41,0,0,1-.4-.44,2.5,2.5,0,0,0-.81-1.75,2.48,2.48,0,0,0-1.81-.67,2.53,2.53,0,0,0-2.42,2.47,5.44,5.44,0,0,0,5.44,5.43H39.39a.4.4,0,0,1,.4.4v1.36L29.52,58.62a2.52,2.52,0,0,0-1.38,1.94L25.23,83.9a1.67,1.67,0,0,0,0,.31.4.4,0,0,1-.36.4,2.52,2.52,0,0,0-.2,5h.16a5.41,5.41,0,0,0,5.43-5.26L33,62.52l4.59-2.3a18.94,18.94,0,0,0-.69,5.44v8.13c0,.13.15,12.68,11.62,17.56L47.31,176v.15A5.19,5.19,0,0,0,57.68,176l-1.19-84.6C68,86.51,68.17,73.92,68.17,73.78v-8.1a19,19,0,0,0-.69-5.46l4.59,2.3,2.75,21.95a5.42,5.42,0,0,0,5.45,5.17,2.5,2.5,0,0,0,1.76-.8A2.56,2.56,0,0,0,82.7,87,2.53,2.53,0,0,0,80.27,84.61ZM49.61,31.3h5.83a1.86,1.86,0,1,1,0,3.71H49.61a1.86,1.86,0,1,1,0-3.71ZM45.05,45.92a7.67,7.67,0,0,1,7.45-5.87h0a7.72,7.72,0,0,1,7.69,7.69,7.47,7.47,0,0,1-.7,3.16,17.64,17.64,0,0,0-7-1.3,17.79,17.79,0,0,0-7,1.3A7.54,7.54,0,0,1,45.05,45.92ZM63.14,73.77A14.61,14.61,0,0,1,52.52,87.44a14.54,14.54,0,0,1-10.6-13.65V65.66c0-9.12,5.77-11,10.61-11s10.61,1.91,10.61,11Z"/>
  </g>
</svg>
