<svg xmlns="http://www.w3.org/2000/svg" width="107" height="179.88" viewBox="0 0 107 179.88">
  <path d="M105.7,42.37H104l.44-3.53-1.25-4.69a1.29,1.29,0,0,0-1.25-1,1.27,1.27,0,0,0-.34,0,1.29,1.29,0,0,0-.79.6,1.32,1.32,0,0,0-.13,1l1.12,4.2-.53,4.21L98.43,47.7l-6,1.28-9.13-3.9,2.64-5.24.19,0a2.45,2.45,0,0,0,.71-.11l5.31-1.67L92.93,41l-1.79,3A1.25,1.25,0,0,0,91,45a1.28,1.28,0,0,0,.6.8,1.26,1.26,0,0,0,.66.18,1.34,1.34,0,0,0,1.12-.64l1.16-2,1.93,2.18a1.3,1.3,0,0,0,2-1.72l-2.92-3.3L94.42,36.7l3.28-4.47L100,30.55a1.3,1.3,0,0,0-.77-2.34,1.25,1.25,0,0,0-.77.25l-.72.52-.19-1.25a1.3,1.3,0,0,0-1.28-1.11h-.2A1.3,1.3,0,0,0,95,28.12L95.41,31l-3.07,4.18-4,0,3.82-7.56h.09a1.66,1.66,0,0,0,1-.84.88.88,0,0,0,0-.15l5.44-2.38a.54.54,0,0,0,.31-.63.54.54,0,0,0-.66-.39l-5.37,1.37-2-6,0-.1-.15-.25.89-2.59a1.11,1.11,0,0,0-.06-.84,1.08,1.08,0,0,0-.64-.56,1,1,0,0,0-.35-.06,1.1,1.1,0,0,0-1,.75l-.28.81-1.17-2a1.12,1.12,0,0,0-.95-.54,1.17,1.17,0,0,0-.57.16,1.11,1.11,0,0,0-.38,1.52l2.67,4.45L90,26.27h0L80.43,39.45l-.06-4.74,2.51-7.11,4.42-5a1.29,1.29,0,0,0-.11-1.84,1.29,1.29,0,0,0-.86-.32,1.31,1.31,0,0,0-1,.43l-4.7,5.3-2,5.47-1.92-2.8,2.95-4.42.63-6.87a1.3,1.3,0,0,0-1.17-1.4h-.13a1.29,1.29,0,0,0-1.29,1.18l-.57,6.21-2.43,3.63-8.45-4.34a1.35,1.35,0,0,0-.59-.14,1.3,1.3,0,0,0-.6,2.45l2.15,1.1-4.74,2.07a1.28,1.28,0,0,0-.69.72,1.29,1.29,0,0,0,1.21,1.78,1.35,1.35,0,0,0,.52-.11l6.68-2.92,4.06,2.08,3.38,4.94-.56,3.93-3.64-2,.19-4.53a1.32,1.32,0,0,0-1.31-1.36,1.3,1.3,0,0,0-1.29,1.25l-.19,4.6L67.6,38.48,67,32a1.3,1.3,0,0,0-1.29-1.18h-.12a1.31,1.31,0,0,0-1.18,1.41l.7,8-2.52,4-.76-2.38c-1.48-4.64-3-9.28-4.5-13.9l.55-6.85,8.87-3.32,7.72-1,1.73-2.65L81.48,14a1.3,1.3,0,0,0,.91-.4,1.31,1.31,0,0,0,.35-.94,1.29,1.29,0,0,0-1.34-1.25l-3.43.1L79,10a1.28,1.28,0,0,0,.19-1,1.3,1.3,0,0,0-.56-.83A1.37,1.37,0,0,0,77.89,8a1.3,1.3,0,0,0-1.09.59L73,14.43l-5.2.66v-5l6.51-3.06a1.3,1.3,0,0,0-.55-2.48,1.24,1.24,0,0,0-.56.13L66.93,7.65,62.67,1.31A1.32,1.32,0,0,0,61.59.74a1.36,1.36,0,0,0-.73.22,1.36,1.36,0,0,0-.55.83,1.36,1.36,0,0,0,.2,1L65.18,9.7v5.82L57,17.34l-3.93-7.1,3.33-8.46A1.31,1.31,0,0,0,55.69.09,1.27,1.27,0,0,0,55.22,0,1.29,1.29,0,0,0,54,.83L51.39,7.48l-1.87-3,.87-2.84A1.3,1.3,0,0,0,49.53.06,1.23,1.23,0,0,0,49.14,0,1.32,1.32,0,0,0,47.9.92L47.28,3,42.08.84a1.19,1.19,0,0,0-.49-.1,1.28,1.28,0,0,0-1.2.81,1.26,1.26,0,0,0,0,1,1.3,1.3,0,0,0,.71.71l6.13,2.5L50.52,11l3.84,8.75,0,.19-.77,4.33L49,22.66,45.8,15.17l2-5.41a1.29,1.29,0,0,0-.75-1.67A1.27,1.27,0,0,0,46.62,8a1.31,1.31,0,0,0-1.21.84l-1.6,4.23L39.64,9.78l.55-3.93a1.32,1.32,0,0,0-.26-1,1.27,1.27,0,0,0-.85-.51H38.9a1.3,1.3,0,0,0-1.29,1.12l-.37,2.68-.89-.56a1.27,1.27,0,0,0-.69-.2,1.29,1.29,0,0,0-.87.34l-.54-2.37A1.17,1.17,0,0,0,33,4.49a1.16,1.16,0,0,0-1,1.29l1.51,13.29-3.64.86-6.32-3.47-2.94-4.27a1.3,1.3,0,0,0-1.07-.56,1.26,1.26,0,0,0-.73.23,1.31,1.31,0,0,0-.34,1.81l2.1,3L12.77,19a1.3,1.3,0,0,0-.77.63,1.3,1.3,0,0,0,1.14,1.91,1.14,1.14,0,0,0,.37,0l8.89-2.64,3.86,2.66-5.33,2.54-8.65-2.18a1.87,1.87,0,0,0-.32,0,1.3,1.3,0,0,0-1.26,1,1.29,1.29,0,0,0,.94,1.58l7.49,1.89-2.24,4.11-4.37-2.08a1.38,1.38,0,0,0-.56-.12,1.31,1.31,0,0,0-1.23,1.73,1.32,1.32,0,0,0,.67.74l4.22,2-1.68,2.93a1.31,1.31,0,0,0,.48,1.77,1.34,1.34,0,0,0,.65.17,1.3,1.3,0,0,0,1.13-.65L18,33.79h0l4-7.31,7.64-3,6.07-.94,9.73,4.92a2.65,2.65,0,0,0,1.66.83l3.8,1.92c1.31,4.62,2.66,9.23,4,13.83l4.16,14.12-2.35,9.32-1.54-4.75,0-.06-4.58-11,.11-.16L46,44.68l2.93-4.44,3-.63a1.28,1.28,0,0,0,.82-.56,1.24,1.24,0,0,0,.18-1,1.29,1.29,0,0,0-1.27-1h-.18l-3.17.66-4.57-2.52,3.8-3.78a1.3,1.3,0,0,0-.91-2.22,1.29,1.29,0,0,0-.92.37l-4.62,4.6L37.92,34l1.49-2.88a1.3,1.3,0,0,0-.55-1.75,1.42,1.42,0,0,0-.6-.14,1.3,1.3,0,0,0-1.16.7l-2,3.88-3-.19-1.79-2.44,3.89-4.88a1.3,1.3,0,0,0-.2-1.83,1.33,1.33,0,0,0-.81-.28,1.3,1.3,0,0,0-1,.49L28.68,29l-1.14-1.55a1.3,1.3,0,0,0-1.05-.53,1.23,1.23,0,0,0-.62.17,1.29,1.29,0,0,0-.63.78,1.32,1.32,0,0,0,.12,1L29,35.44l-3.56,5.67-13.84-3h0L6.85,28.86a.86.86,0,0,0-1.59.66L8.44,39.2,4.5,46.8.61,49.24a1.3,1.3,0,0,0,.69,2.4,1.32,1.32,0,0,0,.69-.2L5.73,49.1,8.63,53,3.84,60.32a2.58,2.58,0,0,0-.3,2.21l2.05,6.35,5.07,2.82v6.64a1.3,1.3,0,1,0,2.6,0V70.17L7.67,67.06,6.87,65l9.78,4,4.71,5.51.71,11.12a1.16,1.16,0,0,0,.24.63l-4.65-.81-.15,0h-.07a1.31,1.31,0,0,0-1.28,1.08,1.3,1.3,0,0,0,1.06,1.5l9.92,1.73L27,94.44a1.25,1.25,0,0,0,.34.93,1.38,1.38,0,0,0,1,.42,1.29,1.29,0,0,0,1.29-1.25l.2-5,7.88-3.39,3.48.47L35,96a1.3,1.3,0,1,0,2.17,1.43l3.16-4.79,1.87,2.42,1,4.45a1.31,1.31,0,0,0,1.27,1,1.27,1.27,0,0,0,.28,0,1.34,1.34,0,0,0,.82-.57,1.25,1.25,0,0,0,.17-1l-.35-1.6,3.1,2.07a1.35,1.35,0,0,0,.72.22,1.32,1.32,0,0,0,1.09-.58,1.31,1.31,0,0,0-.36-1.8l-5.72-3.81L41.8,90.34,44,87,52,88.12l-1,86.51v.12a5.19,5.19,0,1,0,10.37-.12l-.9-77.29a.58.58,0,0,0,.12-.1l10.82-10,4.63-1.34.48,3.39L74.28,96a1.33,1.33,0,0,0,.06,1,1.3,1.3,0,0,0,.75.65,1.2,1.2,0,0,0,.42.07,1.29,1.29,0,0,0,1.23-.88l1.62-4.76L81,95.31a1.3,1.3,0,0,0,1,.48,1.32,1.32,0,0,0,.83-.3A1.3,1.3,0,0,0,83,93.66L79.12,88.9l-.61-4.28,5.22-6.83A1.29,1.29,0,0,0,83.49,76a1.35,1.35,0,0,0-.79-.27,1.3,1.3,0,0,0-1,.51L76.45,83l-3.14.33,3.3-8.56,3.91-3.49a1.3,1.3,0,0,0,.11-1.84,1.31,1.31,0,0,0-1.84-.1l-3.26,2.91L71.9,68.86l1.44-3,5.36-1,4.56,3.8,2.29,8.2L80.69,88.19a1.29,1.29,0,0,0,0,1,1.33,1.33,0,0,0,1.21.82,1.3,1.3,0,0,0,1.19-.79l4.3-10,2.26,3.06-1.74,6A1.3,1.3,0,0,0,88.79,90a1.36,1.36,0,0,0,.36.05,1.31,1.31,0,0,0,1.24-.94L92,83.43l3.22.28h.13a1.3,1.3,0,0,0,.11-2.59l-3.71-.32-3.91-5.26-1.74-6.27h4.95a1.3,1.3,0,1,0,0-2.6h-6.2l-3.62-3,5.83-3.81L90.19,61l3,5a1.29,1.29,0,0,0,1.11.62,1.27,1.27,0,0,0,.68-.19,1.31,1.31,0,0,0,.43-1.79l-2.37-3.88,3.81-1.1s.06,0,.1-.06l.91,1.34-.64,8.91-3.92,4.71a1.3,1.3,0,0,0,.17,1.83,1.27,1.27,0,0,0,.83.3,1.28,1.28,0,0,0,1-.46l2.61-3.15.77,2.67a1.3,1.3,0,0,0,1.25.94,1.47,1.47,0,0,0,.36,0,1.34,1.34,0,0,0,.78-.62,1.37,1.37,0,0,0,.11-1L99.83,70.2l.58-8.12,3.77.65.16,0h.06a1.3,1.3,0,0,0,.22-2.58l-4.64-.8-5.56-8.16,5.63-1.2,3.15-5h2.5a1.3,1.3,0,0,0,0-2.6Zm-38.23-.86,4.71-2.58,3.89,2.17a1.27,1.27,0,0,0,.63.17h.08l-.43,3L65.16,52.22,64,48.68Zm-30-30.13L43.2,15.9,44,21l-6.65-2.26-2-8.68Zm-5,26,8.81-.57,5,2.72L43.35,44l-3.82,5.18-7.6,1a1.34,1.34,0,0,0-.86.5,1.28,1.28,0,0,0-.25,1,1.31,1.31,0,0,0,1.29,1.13h.12l6.3-.87L37,58.08a1.3,1.3,0,0,0,1,1.57,1.06,1.06,0,0,0,.31,0,1.31,1.31,0,0,0,1.26-1l1.94-7.8,2.92-4,3.18,4.53-5.85,8.34a1.3,1.3,0,0,0,2.13,1.5l.08-.12.15,3.57A1.31,1.31,0,0,0,45.42,66h0a1.31,1.31,0,0,0,1.25-1.36l-.3-7,2.48-3.54,3.51,8.45-3.65,7.78a1.26,1.26,0,0,0-.05,1,1.3,1.3,0,0,0,.68.74,1.26,1.26,0,0,0,.55.12,1.29,1.29,0,0,0,1.17-.75l2.5-5.32.72,2.21a1.29,1.29,0,0,0,1.23.9,1.14,1.14,0,0,0,.41-.07,1.22,1.22,0,0,0,.43-.24L53.68,79.53,29.46,58.86l.2-13.24ZM38,83.53l-3.15-3.67A1.3,1.3,0,0,0,33,79.72a1.33,1.33,0,0,0-.45.89,1.24,1.24,0,0,0,.31.94l2.4,2.81-7,3-4.2-.73a1.31,1.31,0,0,0,.54-1.12L24,75.76l3.81,1,2.08,6.7a1.3,1.3,0,0,0,1.24.92,1.32,1.32,0,0,0,.39-.06,1.31,1.31,0,0,0,.85-1.63l-1.6-5.15,2.74.72a1.27,1.27,0,0,0,.34,0,1.28,1.28,0,0,0,1.25-1,1.29,1.29,0,0,0-.92-1.59l-4.54-1.2a1.28,1.28,0,0,0-.86-.33l-.28,0-5.19-1.36-2.23-2.61,4.8,1.26,3.32,2.37a1.28,1.28,0,0,0,1.81-.3,1.24,1.24,0,0,0,.23-1,1.3,1.3,0,0,0-.52-.84l-3.64-2.6L26,68.91l1-.52a1.3,1.3,0,0,0,.58-1.74,1.31,1.31,0,0,0-1.74-.59L22.23,67.9l-4.37-1.17L6.42,62l4.08-7.09L13.92,58l1.34,5a1.3,1.3,0,0,0,1.25,1,1.22,1.22,0,0,0,.34,0,1.28,1.28,0,0,0,.79-.61,1.31,1.31,0,0,0,.13-1l-1-3.69h3.49a1.3,1.3,0,0,0,0-2.6H19l1.14-4.19a1.31,1.31,0,0,0-.13-1,1.27,1.27,0,0,0-1.13-.65,1.29,1.29,0,0,0-1.25,1L16.35,56h-.78l-4.33-3.94-2.38-5L11.78,42,23.7,46.41l-.57,13.8-.06,1.44,1.14,1L46.93,83.11Zm35.89-9.21-2.12,4.09-6.3-2.61a1.39,1.39,0,0,0-.5-.1,1.3,1.3,0,0,0-.49,2.51l6.09,2.52-1.81,3.5-8.37,5.6,0-2.87,4.43-19.5.75-.14a1.22,1.22,0,0,0-.1.24,1.29,1.29,0,0,0,.07,1,1.27,1.27,0,0,0,.76.64l3.35,1.1Zm-6.23-7.39,2.49-.45-.54,1.11Zm27.77-9.59L91.13,58.6l-2.6-1,1.11-3.52a1.29,1.29,0,0,0-.85-1.63,1.23,1.23,0,0,0-.39-.06,1.3,1.3,0,0,0-1.24.91l-1.34,4.25-7.15,4.67-2,.05,4.14-4.86.76-2.65,3.84-.63a1.31,1.31,0,0,0,1.07-1.49,1.29,1.29,0,0,0-1.28-1.09H85L82.31,52l.38-1.32a1.29,1.29,0,0,0-.9-1.6,1,1,0,0,0-.35-.05,1.3,1.3,0,0,0-1.25,1l-1.71,6.09-5.34,6.27-7.2.16.61-2.71L80.78,48.55l10.67,2.91Z"/>
</svg>
