<svg xmlns="http://www.w3.org/2000/svg" width="76" height="76" viewBox="0 0 76 76">
  <defs>
    <style>
      .a {
        fill: #fff;
      }
    </style>
  </defs>
  <g>
    <circle class="a" cx="38" cy="38" r="38"/>
    <path d="M49.74,53.9a62.3,62.3,0,0,1,3.87-18.78.66.66,0,0,0-1.1-.68,33.63,33.63,0,0,0-7,10.91,109,109,0,0,1,4.19-20.11.66.66,0,0,0-1.06-.68q-7.08,6.2-9.48,17.28A45.52,45.52,0,0,0,25.91,18.68a.65.65,0,0,0-1.07.69q5.41,15.54,6.75,27-2.71-6.26-9.65-12a.65.65,0,0,0-1,.8A46.92,46.92,0,0,1,26.08,53.9h-9.8v.46h42V53.9Zm-16.4,0Q33.46,41,27,21.65,39,34.53,39.22,53.9Zm6.5-8.48q1.68-11.56,7.9-18.18A94.32,94.32,0,0,0,43.8,53.9H40.53A57.88,57.88,0,0,0,39.84,45.42Zm8.59,8.48h-3.3a26.76,26.76,0,0,1,6.14-16A62.7,62.7,0,0,0,48.43,53.9Zm-21,0a47.1,47.1,0,0,0-4-16.45Q31.72,45.25,32,53.9Z"/>
  </g>
</svg>
