<?xml version="1.0" encoding="utf-8"?>
<svg width="76" height="76" viewBox="0 0 76 76" xmlns="http://www.w3.org/2000/svg">
  <defs>
    <style>
      .a {
        fill: #fff;
      }
    </style>
  </defs>
  <g style="" transform="matrix(0.157709, 0, 0, 0.157709, 0.432147, 0.237624)"/>
  <g style="" transform="matrix(0.157709, 0, 0, 0.157709, 0.432147, 0.237624)"/>
  <g style="" transform="matrix(0.157709, 0, 0, 0.157709, 0.432147, 0.237624)"/>
  <g style="" transform="matrix(0.157709, 0, 0, 0.157709, 0.432147, 0.237624)"/>
  <g style="" transform="matrix(0.157709, 0, 0, 0.157709, 0.432147, 0.237624)"/>
  <g style="" transform="matrix(0.157709, 0, 0, 0.157709, 0.432147, 0.237624)"/>
  <g style="" transform="matrix(0.157709, 0, 0, 0.157709, 0.432147, 0.237624)"/>
  <g style="" transform="matrix(0.157709, 0, 0, 0.157709, 0.432147, 0.237624)"/>
  <g style="" transform="matrix(0.157709, 0, 0, 0.157709, 0.432147, 0.237624)"/>
  <g style="" transform="matrix(0.157709, 0, 0, 0.157709, 0.432147, 0.237624)"/>
  <g style="" transform="matrix(0.157709, 0, 0, 0.157709, 0.432147, 0.237624)"/>
  <g style="" transform="matrix(0.157709, 0, 0, 0.157709, 0.432147, 0.237624)"/>
  <g style="" transform="matrix(0.157709, 0, 0, 0.157709, 0.432147, 0.237624)"/>
  <g style="" transform="matrix(0.157709, 0, 0, 0.157709, 0.432147, 0.237624)"/>
  <g style="" transform="matrix(0.157709, 0, 0, 0.157709, 0.432147, 0.237624)"/>
  <g style="" transform="matrix(0.17313, 0, 0, 0.17313, -8.341507, 2.875021)">
    <path d="m256 383.467c-8.284 0-15-6.716-15-15v-296.19c0-8.284 6.716-15 15-15s15 6.716 15 15v296.189c0 8.285-6.716 15.001-15 15.001z" style="fill: rgb(159, 151, 124);"/>
    <path d="M 256.051 -16.003 C 222.013 -16.003 201.826 49.27 174.985 71.658 C 148.343 93.88 128.351 58.079 104.175 65.723 C 94.216 68.873 83.934 136.516 91.243 145.949 C 94.62 150.306 108.038 153.951 109.332 159.418 C 110.766 165.474 106.076 183.173 111.016 186.992 C 123.023 196.272 139.168 184.716 151.642 189.84 C 156.419 191.803 150.929 215.439 152.928 220.745 C 153.102 221.207 172.422 226.64 174.207 227.131 C 181.834 229.23 202.792 191.408 209.658 200.384 C 219.514 213.27 224.87 199.209 239.497 202.88 C 254.065 206.538 268.865 215.256 283.22 218.433 C 295.994 221.258 307.483 206.35 319.473 211.656 C 341.274 221.303 355.193 224.094 376.416 203.363 C 392.732 187.426 410.072 165.13 420.923 142.181 C 426.021 131.401 422.071 113.54 422.931 101.307 C 424.963 72.376 423.564 24.511 399.898 9.657 C 365.779 -11.76 339.007 3.755 302.733 -3.514 C 293.891 -5.286 288.19 -12.465 279.355 -12.465 C 275.748 -12.465 262.327 -7.101 259.997 -10.244 C 258.565 -12.176 254.435 -17.174 252.487 -17.174" style="fill: rgb(182, 214, 162);"/>
    <path d="M 352.4 409.409 L 159.6 409.409 C 151.316 409.409 144.6 406.553 144.6 403.031 C 144.6 384.447 180.159 369.328 223.867 369.328 L 288.135 369.328 C 331.843 369.328 367.402 384.447 367.402 403.031 C 367.4 406.554 360.685 409.409 352.4 409.409 Z" style="fill: rgb(194, 194, 194);"/>
    <path d="M 367.4 403.031 C 367.4 384.447 331.841 369.328 288.133 369.328 L 256 369.328 L 256 409.409 L 352.4 409.409 C 360.685 409.409 367.4 406.554 367.4 403.031 Z" style="fill: rgb(194, 194, 194);"/>
  </g>
  <g transform="matrix(0.105262, 0, 0, 0.106257, 17.249268, -9.602306)" style="stroke-width: 1.5724; vector-effect: non-scaling-stroke;">
    <circle style="" cx="160" cy="192" r="32"/>
    <circle style="" cx="352" cy="192" r="32"/>
    <path style="" d="M256,416c-42.752,0-82.912-16.672-113.152-46.88c-6.24-6.24-6.24-16.384,0-22.624 s16.384-6.24,22.624,0c48.352,48.384,132.64,48.384,181.024,0c6.24-6.24,16.384-6.24,22.624,0s6.24,16.384,0,22.624 C338.912,399.328,298.752,416,256,416z"/>
  </g>
  <path d="M 50.502 67.684 C 48.676 65.355 46.692 63.003 45.813 60.393 C 45.221 58.633 44.511 56.993 44.176 55.198 C 43.941 53.937 43.384 53.133 42.775 51.944 C 42.245 50.912 41.82 47.562 39.892 47.562 C 39.605 47.562 40.441 47.734 40.645 47.885 C 40.933 48.096 41.261 49.064 41.059 49.372 C 40.802 49.764 39.365 49.929 38.821 50.004 C 36.538 50.319 33.534 50.585 31.157 50.352 C 29.544 50.194 28.85 48.842 29.627 47.924 C 29.98 47.507 30.387 47.115 31.102 46.952 C 31.382 46.889 32.287 46.921 31.99 46.921 C 29.963 46.921 29.22 48.299 28.83 49.61 C 28.018 52.347 27.739 54.872 27.55 57.745 C 27.399 60.049 26.146 62.236 25.582 64.466 C 25.428 65.074 23.659 68.859 23.218 68.859" style="stroke-linecap: round; fill: none; stroke: rgb(194, 194, 194); stroke-width: 2px;" transform="matrix(0.999176, 0.040576, -0.040576, 0.999176, 2.379137, -1.447961)"/>
</svg>