<?xml version="1.0" encoding="utf-8"?>
<svg width="76" height="76" viewBox="0 0 76 76" xmlns="http://www.w3.org/2000/svg">
  <defs>
    <style>
      .a {
        fill: #fff;
      }

      .b {
        stroke: #000;
      }
    </style>
  </defs>
  <title>insects</title>
  <g transform="matrix(0.005558, 0, 0, -0.005688, 0.25106, 74.025108)" fill="#000000" stroke="none" style="">
    <path d="M 6805.309 9791.384 C 6761.088 9771.642 6715.287 9710.838 6663.169 9602.652 C 6608.682 9485.782 6584.202 9434.453 6564.461 9387.862 C 6556.564 9370.489 6527.346 9306.526 6498.917 9245.722 C 6449.168 9137.537 6427.058 9090.157 6382.836 8993.027 C 6360.726 8944.068 6355.987 8933.012 6268.335 8744.282 C 6239.117 8681.108 6208.319 8615.565 6201.212 8598.193 C 6193.315 8580.82 6174.363 8538.968 6158.57 8505.011 C 6142.776 8471.845 6130.142 8442.627 6130.142 8441.048 C 6130.142 8439.469 6112.769 8401.564 6091.448 8356.554 C 6070.127 8311.543 6032.222 8230.207 6007.743 8175.719 C 5982.474 8121.232 5948.518 8047.004 5931.145 8009.889 C 5913.773 7972.774 5886.134 7911.969 5868.761 7874.066 C 5852.178 7836.161 5834.805 7799.047 5830.857 7791.151 C 5826.119 7783.254 5793.743 7712.973 5758.208 7634.795 C 5723.462 7556.619 5680.82 7463.437 5663.447 7427.902 C 5646.864 7392.367 5632.65 7361.569 5632.65 7359.99 C 5632.65 7357.621 5615.278 7319.717 5593.956 7274.706 C 5572.635 7229.695 5537.89 7153.887 5515.779 7105.716 C 5494.458 7058.337 5459.712 6983.318 5439.181 6939.886 C 5418.649 6896.454 5379.956 6811.17 5352.317 6750.366 C 5325.468 6689.561 5282.826 6597.96 5258.347 6545.841 C 5233.867 6494.512 5214.125 6451.87 5214.125 6450.291 C 5214.125 6448.712 5197.542 6412.386 5177.8 6369.744 C 5134.368 6277.353 5128.841 6264.719 5055.402 6106.784 C 5005.652 5997.81 4998.545 5978.069 4995.387 5925.161 C 4991.438 5873.832 4993.018 5863.567 5007.232 5846.194 L 5023.025 5826.452 L 5389.431 5830.4 C 5590.008 5832.77 5874.289 5834.349 6019.588 5834.349 L 6284.127 5834.349 L 6322.821 5814.607 C 6347.301 5801.973 6365.463 5786.179 6373.36 5770.385 C 6385.995 5742.747 6389.943 5756.961 6304.659 5530.326 C 6288.076 5484.525 6262.806 5417.403 6249.382 5380.288 C 6235.957 5343.174 6220.954 5306.06 6217.006 5297.373 C 6213.057 5288.686 6200.423 5254.731 6188.578 5222.355 C 6177.522 5189.978 6163.308 5152.864 6157.781 5139.44 C 6151.463 5126.804 6107.242 5009.144 6058.282 4878.848 C 6010.112 4748.552 5962.732 4624.574 5954.835 4602.464 C 5946.149 4581.143 5931.145 4540.08 5920.88 4511.652 C 5910.614 4483.223 5886.134 4417.681 5865.602 4365.563 C 5828.488 4268.433 5811.116 4222.633 5728.99 4002.315 C 5702.93 3932.823 5667.396 3837.274 5648.444 3789.104 C 5630.281 3741.724 5607.381 3679.34 5597.115 3650.912 C 5586.849 3622.484 5562.369 3556.941 5541.838 3504.823 C 5522.096 3452.704 5492.879 3376.107 5477.875 3335.044 C 5462.871 3293.981 5447.077 3252.918 5443.13 3244.232 C 5439.181 3235.545 5423.388 3192.903 5407.594 3149.472 C 5392.591 3106.039 5376.007 3063.397 5372.059 3054.711 C 5367.321 3046.025 5349.949 3000.224 5332.576 2952.054 C 5315.992 2904.674 5285.195 2822.549 5265.453 2770.43 C 5245.711 2718.311 5220.442 2652.769 5210.966 2624.341 C 5200.701 2595.913 5174.641 2524.842 5152.531 2466.407 C 5131.21 2407.972 5110.678 2347.957 5108.309 2333.743 C 5103.571 2305.315 5121.733 2250.038 5134.368 2254.776 C 5143.844 2257.934 5266.243 2421.396 6323.611 3836.484 C 6479.176 4044.957 6736.608 4390.042 6896.121 4602.464 C 7054.845 4815.675 7275.163 5110.222 7384.927 5257.889 C 7495.481 5405.558 7600.507 5546.12 7618.669 5569.809 C 7662.101 5626.665 7756.861 5753.013 8112.213 6229.183 C 8274.095 6446.343 8424.133 6646.918 8445.454 6675.347 C 8497.572 6745.627 8516.524 6786.69 8513.366 6823.015 L 8510.996 6853.023 L 8353.062 6857.76 C 8266.198 6860.919 7900.582 6863.289 7540.492 6864.078 C 6947.45 6864.868 6886.645 6865.657 6891.384 6877.502 C 6893.753 6884.61 6926.129 6935.149 6961.664 6989.635 C 6997.989 7044.912 7066.69 7148.359 7113.28 7220.219 C 7160.661 7292.079 7243.576 7418.426 7297.273 7500.552 C 7351.761 7583.467 7436.256 7711.394 7484.426 7784.833 C 7533.385 7859.062 7624.197 7997.254 7687.371 8092.804 C 7749.755 8188.354 7843.725 8330.494 7895.054 8408.672 C 7946.382 8486.849 8038.774 8627.41 8100.368 8720.592 C 8284.361 8999.345 8441.506 9238.614 8521.261 9360.224 C 8562.324 9423.397 8623.918 9516.579 8657.085 9567.118 C 8734.472 9683.199 8752.635 9751.111 8718.68 9792.174 C 8706.044 9807.177 6839.266 9806.387 6805.309 9791.384 Z" style=""/>
  </g>
</svg>