<svg id="Layer_1" enable-background="new 0 0 512.02 512.02" height="512" viewBox="0 0 512.02 512.02" width="512" xmlns="http://www.w3.org/2000/svg"><g><path d="m451.576 303.283c33.329 0 60.443-27.115 60.443-60.443v-28.87h-38.306c-11.765 0-23.144 3.437-32.891 9.792-1.088-5.996-2.452-11.919-4.107-17.747l11.556-6.651c13.982-8.072 23.983-21.106 28.162-36.701 4.179-15.596 2.035-31.884-6.038-45.866l-14.435-25.004-33.174 19.153c-10.19 5.883-18.32 14.548-23.575 24.924-4.165-4.894-8.603-9.588-13.293-14.071l5.569-9.645c16.665-28.863 6.74-65.903-22.124-82.567l-25.001-14.435-19.153 33.173c-8.073 13.982-10.217 30.271-6.039 45.866 4.179 15.595 14.18 28.629 28.162 36.701l10.809 6.241c35.426 30.031 55.727 73.822 55.727 120.355 0 32.201-9.715 62.559-26.667 87.896-.157.214-.323.421-.478.637l.036.026c-15.201 22.475-36.124 40.942-61.03 53.161-.239.105-.481.199-.719.307l.016.035c-9.274 4.493-19.09 8.128-29.368 10.777l7.486 29.051c1.441-.371 2.872-.763 4.298-1.166l6.639 11.535c8.072 13.982 21.107 23.983 36.702 28.162 5.208 1.396 10.491 2.085 15.742 2.085 10.473 0 20.811-2.747 30.124-8.124l25.003-14.434-19.153-33.175c-5.863-10.155-14.489-18.265-24.817-23.521 4.64-3.945 9.075-8.109 13.297-12.473l11.5 6.664c9.496 5.482 19.872 8.086 30.12 8.086 20.904 0 41.265-10.842 52.447-30.209l14.435-25.004-33.173-19.151c-10.176-5.876-21.74-8.579-33.361-7.94 2.035-5.704 3.802-11.525 5.285-17.45z" fill="#bee75e"/><path d="m451.576 303.283c33.329 0 60.443-27.115 60.443-60.443v-28.87h-38.306c-11.765 0-23.144 3.437-32.891 9.792-1.088-5.996-2.452-11.919-4.107-17.747l11.556-6.651c13.982-8.072 23.983-21.106 28.162-36.701 4.179-15.596 2.035-31.884-6.038-45.866l-14.435-25.004-33.174 19.153c-10.19 5.883-18.32 14.548-23.575 24.924-4.165-4.894-8.603-9.588-13.293-14.071l5.569-9.645c16.665-28.863 6.74-65.903-22.124-82.567l-25.001-14.435-19.153 33.173c-8.073 13.982-10.217 30.271-6.039 45.866 4.179 15.595 14.18 28.629 28.162 36.701l10.809 6.241c35.426 30.031 55.727 73.822 55.727 120.355 0 32.201-9.715 62.559-26.667 87.896-.157.214-.323.421-.478.637l.036.026c-15.201 22.475-36.124 40.942-61.03 53.161-.239.105-.481.199-.719.307l.016.035c-9.274 4.493-19.09 8.128-29.368 10.777l7.486 29.051c1.441-.371 2.872-.763 4.298-1.166l6.639 11.535c8.072 13.982 21.107 23.983 36.702 28.162 5.208 1.396 10.491 2.085 15.742 2.085 10.473 0 20.811-2.747 30.124-8.124l25.003-14.434-19.153-33.175c-5.863-10.155-14.489-18.265-24.817-23.521 4.64-3.945 9.075-8.109 13.297-12.473l11.5 6.664c9.496 5.482 19.872 8.086 30.12 8.086 20.904 0 41.265-10.842 52.447-30.209l14.435-25.004-33.173-19.151c-10.176-5.876-21.74-8.579-33.361-7.94 2.035-5.704 3.802-11.525 5.285-17.45z" fill="#5bc980"/><path d="m216.363 410.326c-10.278-2.65-20.094-6.287-29.367-10.78l.013-.029c-.2-.091-.404-.169-.604-.258-24.953-12.221-45.915-30.709-61.138-53.215l.029-.021c-.125-.174-.259-.34-.385-.513-17.005-25.363-26.753-55.768-26.753-88.02 0-46.533 20.302-90.324 55.728-120.355l10.808-6.24c28.864-16.664 38.789-53.704 22.124-82.567l-19.152-33.172-25.003 14.434c-28.863 16.664-38.788 53.704-22.124 82.567l5.569 9.645c-4.692 4.484-9.131 9.18-13.297 14.075-5.255-10.378-13.386-19.045-23.578-24.929l-33.174-19.155-14.435 25.002c-8.073 13.982-10.217 30.271-6.038 45.866s14.18 28.629 28.18 36.712l11.543 6.644c-1.654 5.828-3.019 11.751-4.106 17.747-9.749-6.357-21.129-9.795-32.897-9.795h-38.306v28.87c0 33.328 27.115 60.443 60.464 60.443l13.332-.018c1.484 5.925 3.251 11.746 5.286 17.45-11.624-.641-23.19 2.063-33.369 7.939l-33.173 19.152 14.435 25.004c11.182 19.367 31.533 30.206 52.443 30.206 10.251 0 20.641-2.608 30.143-8.094l11.49-6.656c4.222 4.363 8.657 8.527 13.296 12.472-10.333 5.256-18.961 13.368-24.826 23.525l-19.153 33.175 25.002 14.434c9.314 5.378 19.65 8.124 30.124 8.124 5.25 0 10.535-.69 15.742-2.085 15.595-4.179 28.629-14.18 36.712-28.18l6.629-11.519c1.425.403 2.855.795 4.295 1.166z" fill="#bee75e"/><path d="m197.618 327.706v169.16l58.394-20.187 58.39 20.188v-169.171z" fill="#5ecbf1"/><path d="m256.003 327.701v148.981l.009-.003 58.39 20.188v-169.171z" fill="#4793ff"/><circle cx="256.003" cy="257.411" fill="#fff16b" r="95.674"/><g fill="#ffd321"><path d="m351.676 257.411c0-52.839-42.834-95.674-95.674-95.674v191.347c52.84 0 95.674-42.834 95.674-95.673z"/><path d="m256.003 368.084c-61.026 0-110.674-49.648-110.674-110.674s49.648-110.674 110.674-110.674c61.025 0 110.673 49.648 110.673 110.674s-49.648 110.674-110.673 110.674zm0-191.347c-44.484 0-80.674 36.19-80.674 80.674s36.19 80.674 80.674 80.674c44.483 0 80.673-36.19 80.673-80.674s-36.19-80.674-80.673-80.674z"/><path d="m271.01 278.249v-71.675h-45.002v30h15.002v41.675h-20.002v30h70.004v-30z"/></g><path d="m291.012 278.249h-20.002v-71.675h-15.007v101.675h35.009z" fill="#ffaf00"/><path d="m256.003 146.737v30c44.483 0 80.673 36.19 80.673 80.674s-36.19 80.674-80.673 80.674v30c61.025 0 110.673-49.648 110.673-110.674s-49.648-110.674-110.673-110.674z" fill="#ffaf00"/></g></svg>