<?xml version="1.0" encoding="utf-8"?>
<svg width="76" height="76" viewBox="0 0 76 76" xmlns="http://www.w3.org/2000/svg">
  <defs>
    <style>
      .a {
        fill: #fff;
      }
    </style>
  </defs>
  <g style="" transform="matrix(0.157709, 0, 0, 0.157709, 0.432147, 0.237624)"/>
  <g style="" transform="matrix(0.157709, 0, 0, 0.157709, 0.432147, 0.237624)"/>
  <g style="" transform="matrix(0.157709, 0, 0, 0.157709, 0.432147, 0.237624)"/>
  <g style="" transform="matrix(0.157709, 0, 0, 0.157709, 0.432147, 0.237624)"/>
  <g style="" transform="matrix(0.157709, 0, 0, 0.157709, 0.432147, 0.237624)"/>
  <g style="" transform="matrix(0.157709, 0, 0, 0.157709, 0.432147, 0.237624)"/>
  <g style="" transform="matrix(0.157709, 0, 0, 0.157709, 0.432147, 0.237624)"/>
  <g style="" transform="matrix(0.157709, 0, 0, 0.157709, 0.432147, 0.237624)"/>
  <g style="" transform="matrix(0.157709, 0, 0, 0.157709, 0.432147, 0.237624)"/>
  <g style="" transform="matrix(0.157709, 0, 0, 0.157709, 0.432147, 0.237624)"/>
  <g style="" transform="matrix(0.157709, 0, 0, 0.157709, 0.432147, 0.237624)"/>
  <g style="" transform="matrix(0.157709, 0, 0, 0.157709, 0.432147, 0.237624)"/>
  <g style="" transform="matrix(0.157709, 0, 0, 0.157709, 0.432147, 0.237624)"/>
  <g style="" transform="matrix(0.157709, 0, 0, 0.157709, 0.432147, 0.237624)"/>
  <g style="" transform="matrix(0.157709, 0, 0, 0.157709, 0.432147, 0.237624)"/>
  <path d="M 37.681 71.97 C 36.432 71.03 35.124 70.21 33.838 69.363 C 33.292 69.002 32.507 68.473 31.857 68.654 C 31.514 68.75 31.293 69.56 30.927 69.755 C 29.713 70.402 27.968 71.281 26.648 70.793 C 25.133 70.232 23.54 68.132 22.63 66.52 C 22.167 65.7 21.893 64.394 21.344 63.681 C 20.671 62.806 19.745 62.095 18.984 61.341 C 18.051 60.416 16.606 59.511 16.046 58.099 C 15.571 56.901 15.965 54.751 16.128 53.532 C 16.446 51.149 16.615 48.5 16.384 46.087 C 16.202 44.189 15.066 42.47 14.916 40.637 C 14.782 38.985 15.29 37.367 15.49 35.777 C 15.756 33.662 15.965 31.503 16.056 29.352 C 16.12 27.847 16.108 26.344 16.108 24.837 C 16.108 24.328 15.946 23.149 16.133 22.66 C 16.29 22.25 17.408 21.877 17.719 21.589 C 18.571 20.797 19.162 19.625 19.567 18.376 C 20.012 17 20.252 15.519 20.712 14.153 C 20.884 13.639 21.045 13.125 21.224 12.614 C 21.308 12.374 21.573 11.683 21.431 11.872 C 21.335 11.999 22.484 11.126 22.733 10.838 C 23.474 9.978 24.155 9.102 24.814 8.132 C 26.189 6.11 27.089 3.928 28.967 2.697 C 29.096 2.613 29.821 3.055 29.966 3.086 C 30.962 3.303 32.179 3.993 33.211 3.628 C 35.244 2.91 38.243 0.765 40.558 1.412 C 42.181 1.866 43.337 4.526 44.526 5.793 C 45.395 6.72 46.725 7.204 47.826 7.204 C 48.21 7.204 48.53 6.831 48.937 6.944 C 49.148 7.002 49.435 7.618 49.556 7.813 C 50.145 8.776 50.705 9.762 51.266 10.755 C 52.226 12.452 53.185 14.214 53.919 16.099 C 53.974 16.241 54.733 18.093 54.318 18.093 C 54.054 18.093 54.802 18.401 54.988 18.646 C 55.551 19.388 56.057 20.328 56.547 21.153 C 57.849 23.342 59.82 25.983 60.29 28.821 C 60.545 30.36 60.326 32.21 60.326 33.774 C 60.326 34.784 60.476 36.024 60.285 37.015 C 60.121 37.865 59.741 38.623 59.589 39.492 C 59.108 42.248 58.737 45.358 58.438 48.152 C 57.917 53.032 57.966 57.911 57.005 62.703 C 56.792 63.769 56.654 64.846 56.464 65.912 C 56.455 65.963 56.376 66.752 56.331 66.774 C 54.513 67.659 54.4 70.217 52.948 71.836 C 51.489 73.464 49.203 73.719 47.379 74.224 C 46.755 74.397 46.434 75.473 45.839 75.764 C 45.098 76.126 44.51 75.389 43.786 75.265 C 42.493 75.044 40.598 75.375 39.504 74.253 C 39.185 73.926 38.976 73.251 38.705 72.909 C 38.453 72.59 37.576 72.389 37.576 71.769" style="fill: rgba(207, 183, 113, 0.91);"/>
  <g transform="matrix(0.105262, 0, 0, 0.106257, 10.685961, 17.907335)" style="stroke-width: 1.5724; vector-effect: non-scaling-stroke;">
    <circle style="" cx="160" cy="192" r="32"/>
    <circle style="" cx="352" cy="192" r="32"/>
    <path style="" d="M256,416c-42.752,0-82.912-16.672-113.152-46.88c-6.24-6.24-6.24-16.384,0-22.624 s16.384-6.24,22.624,0c48.352,48.384,132.64,48.384,181.024,0c6.24-6.24,16.384-6.24,22.624,0s6.24,16.384,0,22.624 C338.912,399.328,298.752,416,256,416z"/>
  </g>
  <path d="M 35.129 9.759 C 34.934 11.628 33.153 13.053 32.117 14.531 C 30.302 17.122 28.698 19.963 26.556 22.316 C 25.774 23.174 24.524 23.153 23.641 23.903 C 23.111 24.353 23.1 25.187 22.895 25.805 C 22.362 27.415 21.587 28.543 21.587 30.238" style="fill: none; stroke-linecap: round; stroke-miterlimit: 5; stroke-width: 2px; stroke: rgb(216, 170, 70);"/>
</svg>