<?xml version="1.0" encoding="utf-8"?>
<svg width="76" height="76" viewBox="0 0 76 76" xmlns="http://www.w3.org/2000/svg">
  <defs>
    <style>
      .a {
        fill: #fff;
      }
    </style>
  </defs>
  <g style="" transform="matrix(0.197376, 0, 0, 0.186671, -14.429134, -8.595099)"/>
  <g style="" transform="matrix(0.197376, 0, 0, 0.186671, -14.429134, -8.595099)"/>
  <g style="" transform="matrix(0.197376, 0, 0, 0.186671, -14.429134, -8.595099)"/>
  <g style="" transform="matrix(0.197376, 0, 0, 0.186671, -14.429134, -8.595099)"/>
  <g style="" transform="matrix(0.197376, 0, 0, 0.186671, -14.429134, -8.595099)"/>
  <g style="" transform="matrix(0.197376, 0, 0, 0.186671, -14.429134, -8.595099)"/>
  <g style="" transform="matrix(0.197376, 0, 0, 0.186671, -14.429134, -8.595099)"/>
  <g style="" transform="matrix(0.197376, 0, 0, 0.186671, -14.429134, -8.595099)"/>
  <g style="" transform="matrix(0.197376, 0, 0, 0.186671, -14.429134, -8.595099)"/>
  <g style="" transform="matrix(0.197376, 0, 0, 0.186671, -14.429134, -8.595099)"/>
  <g style="" transform="matrix(0.197376, 0, 0, 0.186671, -14.429134, -8.595099)"/>
  <g style="" transform="matrix(0.197376, 0, 0, 0.186671, -14.429134, -8.595099)"/>
  <g style="" transform="matrix(0.197376, 0, 0, 0.186671, -14.429134, -8.595099)"/>
  <g style="" transform="matrix(0.197376, 0, 0, 0.186671, -14.429134, -8.595099)"/>
  <g style="" transform="matrix(0.197376, 0, 0, 0.186671, -14.429134, -8.595099)"/>
  <g style="" transform="matrix(0.199951, 0, 0, 0.189106, -49.49345, -3.316039)"/>
  <g style="" transform="matrix(0.199951, 0, 0, 0.189106, -49.49345, -3.316039)"/>
  <g style="" transform="matrix(0.199951, 0, 0, 0.189106, -49.49345, -3.316039)"/>
  <g style="" transform="matrix(0.199951, 0, 0, 0.189106, -49.49345, -3.316039)"/>
  <g style="" transform="matrix(0.199951, 0, 0, 0.189106, -49.49345, -3.316039)"/>
  <g style="" transform="matrix(0.199951, 0, 0, 0.189106, -49.49345, -3.316039)"/>
  <g style="" transform="matrix(0.199951, 0, 0, 0.189106, -49.49345, -3.316039)"/>
  <g style="" transform="matrix(0.199951, 0, 0, 0.189106, -49.49345, -3.316039)"/>
  <g style="" transform="matrix(0.199951, 0, 0, 0.189106, -49.49345, -3.316039)"/>
  <g style="" transform="matrix(0.199951, 0, 0, 0.189106, -49.49345, -3.316039)"/>
  <g style="" transform="matrix(0.199951, 0, 0, 0.189106, -49.49345, -3.316039)"/>
  <g style="" transform="matrix(0.199951, 0, 0, 0.189106, -49.49345, -3.316039)"/>
  <g style="" transform="matrix(0.199951, 0, 0, 0.189106, -49.49345, -3.316039)"/>
  <g style="" transform="matrix(0.199951, 0, 0, 0.189106, -49.49345, -3.316039)"/>
  <g style="" transform="matrix(0.199951, 0, 0, 0.189106, -49.49345, -3.316039)"/>
  <path style="fill: rgb(188, 183, 199);" d="M 32.345 63.624 L 29.122 66.249 L 23.979 63.839 L 22.709 60.475 L 25.987 55.898 L 26.213 55.527 C 26.67 54.848 26.84 54.015 26.792 53.15 L 26.507 47.501 C 26.409 45.711 26.185 43.921 25.903 42.193 C 25.225 37.81 24.119 33.488 22.935 29.444 C 22.894 29.289 22.822 29.105 22.783 28.95 C 20.228 20.276 24.618 9.75 31.719 4.595 C 37.128 0.65 44.412 -0.266 50.963 1.967 C 52.392 2.455 53.096 4.088 52.326 5.31 L 37.122 29.413 L 38.462 30.679 C 40.018 32.152 40.734 34.287 40.349 36.309 L 38.796 44.445 L 36.609 55.651 C 36.365 56.825 35.995 57.936 35.401 58.953 C 35.376 59.046 35.379 59.108 35.321 59.171 L 32.345 63.624 Z" transform="matrix(0.726536, -0.687129, 0.687129, 0.726536, -12.813954, 34.825627)"/>
  <path style="fill: rgb(188, 183, 199);" d="M 44.018 63.883 L 40.795 66.507 L 35.652 64.098 L 34.382 60.734 L 37.66 56.157 L 37.886 55.786 C 38.343 55.107 38.513 54.274 38.465 53.409 L 38.18 47.76 C 38.082 45.97 37.858 44.18 37.576 42.452 L 49.253 30.104 L 50.135 30.937 C 51.671 32.45 52.381 34.643 52 36.678 L 50.469 44.704 L 48.282 55.91 C 48.038 57.082 47.668 58.194 47.074 59.212 C 47.049 59.305 47.052 59.367 46.994 59.429 L 44.018 63.883 Z" transform="matrix(0.726536, -0.687129, 0.687129, 0.726536, -21.367058, 42.922403)"/>
  <path style="fill: rgb(217, 212, 228);" d="M 37.642 47.838 C 37.485 47.808 37.296 47.746 37.14 47.716 C 33.003 46.727 28.689 45.863 24.246 45.462 C 22.472 45.247 20.672 45.123 18.879 45.123 L 13.222 45.153 C 12.358 45.153 11.568 45.4 10.881 45.863 L 10.733 45.956 L 6.316 49.514 L 3.393 49.205 L 1.22 44.051 L 2.636 40.07 L 6.738 36.973 C 6.858 36.911 7.007 36.819 7.128 36.757 C 8.086 36.201 9.145 35.801 10.213 35.522 L 21.278 32.713 L 29.174 30.708 C 31.229 30.185 33.47 30.794 35.073 32.312 L 36.349 33.516 L 59.566 16.995 C 60.743 16.157 62.415 16.77 62.979 18.168 C 65.576 24.585 65.065 31.909 61.427 37.529 C 56.677 44.906 46.444 49.907 37.642 47.838 Z" transform="matrix(0.726536, -0.687129, 0.687129, 0.726536, -13.718861, 31.657017)"/>
  <path style="fill: rgb(217, 212, 228);" d="M 34.099 40.143 C 33.941 40.113 33.753 40.051 33.596 40.02 C 29.46 39.032 25.146 38.168 20.703 37.767 L 32.38 25.42 L 32.804 25.82 L 56.023 9.3 C 57.199 8.462 58.872 9.075 59.436 10.472 C 62.033 16.89 61.522 24.214 57.884 29.834 C 53.133 37.211 42.9 42.212 34.099 40.143 Z" transform="matrix(0.726536, -0.687129, 0.687129, 0.726536, -5.837546, 34.864224)"/>
  <path style="fill: rgb(214, 240, 243);" d="M 25.723 68.922 L 18.894 73.985 C 16.958 75.311 14.314 75.034 12.52 73.336 C 9.978 70.932 10.239 67.251 13.072 65.496 L 22.042 59.477 L 25.723 68.922 Z" transform="matrix(0.726536, -0.687129, 0.687129, 0.726536, -41.150402, 30.900166)"/>
  <path style="fill: rgb(181, 226, 245);" d="M 46.252 73.213 C 44.457 71.516 44.028 68.788 45.244 66.781 L 49.804 59.867 L 59.441 63.016 L 54.044 72.121 C 52.53 74.899 48.7 75.528 46.252 73.213 Z" transform="matrix(0.726536, -0.687129, 0.687129, 0.726536, -31.989094, 54.11954)"/>
  <g style="" transform="matrix(0.10586, -0.100118, 0.10586, 0.100118, -19.12348, 42.221035)"/>
  <g style="" transform="matrix(0.10586, -0.100118, 0.10586, 0.100118, -19.12348, 42.221035)"/>
  <g style="" transform="matrix(0.10586, -0.100118, 0.10586, 0.100118, -19.12348, 42.221035)"/>
  <g style="" transform="matrix(0.10586, -0.100118, 0.10586, 0.100118, -19.12348, 42.221035)"/>
  <g style="" transform="matrix(0.10586, -0.100118, 0.10586, 0.100118, -19.12348, 42.221035)"/>
  <g style="" transform="matrix(0.10586, -0.100118, 0.10586, 0.100118, -19.12348, 42.221035)"/>
  <g style="" transform="matrix(0.10586, -0.100118, 0.10586, 0.100118, -19.12348, 42.221035)"/>
  <g style="" transform="matrix(0.10586, -0.100118, 0.10586, 0.100118, -19.12348, 42.221035)"/>
  <g style="" transform="matrix(0.10586, -0.100118, 0.10586, 0.100118, -19.12348, 42.221035)"/>
  <g style="" transform="matrix(0.10586, -0.100118, 0.10586, 0.100118, -19.12348, 42.221035)"/>
  <g style="" transform="matrix(0.10586, -0.100118, 0.10586, 0.100118, -19.12348, 42.221035)"/>
  <g style="" transform="matrix(0.10586, -0.100118, 0.10586, 0.100118, -19.12348, 42.221035)"/>
  <g style="" transform="matrix(0.10586, -0.100118, 0.10586, 0.100118, -19.12348, 42.221035)"/>
  <g style="" transform="matrix(0.10586, -0.100118, 0.10586, 0.100118, -19.12348, 42.221035)"/>
  <g style="" transform="matrix(0.10586, -0.100118, 0.10586, 0.100118, -19.12348, 42.221035)"/>
  <g transform="matrix(0.105262, 0, 0, 0.106257, 8.141895, -3.948367)" style="stroke-width: 1.5724; vector-effect: non-scaling-stroke;">
    <circle style="" cx="161.153" cy="127.159" r="32"/>
    <circle style="" cx="353.153" cy="127.159" r="32"/>
    <path style="" d="M 257.153 351.159 C 214.401 351.159 174.241 334.487 144.001 304.279 C 137.761 298.039 137.761 287.895 144.001 281.655 C 150.241 275.415 160.385 275.415 166.625 281.655 C 214.977 330.039 299.265 330.039 347.649 281.655 C 353.889 275.415 364.033 275.415 370.273 281.655 C 376.513 287.895 376.513 298.039 370.273 304.279 C 340.065 334.487 299.905 351.159 257.153 351.159 Z"/>
  </g>
</svg>