<?xml version="1.0" encoding="utf-8"?>
<svg width="76" height="76" viewBox="0 0 76 76" xmlns="http://www.w3.org/2000/svg" xmlns:bx="https://boxy-svg.com">
  <defs>
    <style>
      .a {
        fill: #fff;
      }
    </style>
  </defs>
  <g transform="matrix(0.255947, 0, 0, 0.198492, -28.074209, -10.818916)" style="">
    <g>
      <g/>
      <g/>
      <g>
        <path d="m313.611 144.043c-39.362-50.911-57.611-88.52-57.611-88.52s-18.249 37.609-57.611 88.52c-47.798 61.821-97.315 149.349 57.611 291.434 154.926-142.085 105.409-229.613 57.611-291.434z" style="fill: rgb(158, 239, 200);"/>
        <path d="m256 435.477v-379.954s18.243 37.614 57.608 88.52c47.804 61.827 97.322 149.353-57.608 291.434z" style="fill: rgb(109, 215, 150);"/>
      </g>
    </g>
  </g>
  <g transform="matrix(0.102946, 0, 0, 0.102946, 10.902445, 18.17799)" style="">
    <circle style="" cx="160" cy="192" r="32"/>
    <circle style="" cx="352" cy="192" r="32"/>
    <rect x="93.478" y="287.74" width="328.035" height="108.224" style="" rx="14.635" ry="14.635"/>
    <path d="M 367.597 533.029 L 395.447 580.681 L 341.787 580.681 L 367.597 533.029 Z" style="fill: rgb(255, 255, 255);" transform="matrix(0.477416, 0.878677, -0.878677, 0.477416, 548.172791, -289.606689)" bx:shape="triangle 341.787 533.029 53.66 47.652 0.481 0 1@403796f7"/>
    <path d="M 366.739 533.028 L 395.447 580.68 L 341.787 580.68 L 366.739 533.028 Z" style="fill: rgb(255, 255, 255);" transform="matrix(0.477417, 0.878677, -0.878677, 0.477417, 609.56604, -289.760895)" bx:shape="triangle 341.787 533.028 53.66 47.652 0.465 0 1@e30cb4ea"/>
  </g>
  <g style="" transform="matrix(0.159766, 0, 0, 0.159766, -0.577546, -0.47355)"/>
  <g style="" transform="matrix(0.159766, 0, 0, 0.159766, -0.577546, -0.47355)"/>
  <g style="" transform="matrix(0.159766, 0, 0, 0.159766, -0.577546, -0.47355)"/>
  <g style="" transform="matrix(0.159766, 0, 0, 0.159766, -0.577546, -0.47355)"/>
  <g style="" transform="matrix(0.159766, 0, 0, 0.159766, -0.577546, -0.47355)"/>
  <g style="" transform="matrix(0.159766, 0, 0, 0.159766, -0.577546, -0.47355)"/>
  <g style="" transform="matrix(0.159766, 0, 0, 0.159766, -0.577546, -0.47355)"/>
  <g style="" transform="matrix(0.159766, 0, 0, 0.159766, -0.577546, -0.47355)"/>
  <g style="" transform="matrix(0.159766, 0, 0, 0.159766, -0.577546, -0.47355)"/>
  <g style="" transform="matrix(0.159766, 0, 0, 0.159766, -0.577546, -0.47355)"/>
  <g style="" transform="matrix(0.159766, 0, 0, 0.159766, -0.577546, -0.47355)"/>
  <g style="" transform="matrix(0.159766, 0, 0, 0.159766, -0.577546, -0.47355)"/>
  <g style="" transform="matrix(0.159766, 0, 0, 0.159766, -0.577546, -0.47355)"/>
  <g style="" transform="matrix(0.159766, 0, 0, 0.159766, -0.577546, -0.47355)"/>
  <g style="" transform="matrix(0.159766, 0, 0, 0.159766, -0.577546, -0.47355)"/>
  <g style="" transform="matrix(0.084585, -0.084585, 0.084585, 0.084585, 23.688873, 37.998493)"/>
  <g style="" transform="matrix(0.084585, -0.084585, 0.084585, 0.084585, 23.688873, 37.998493)"/>
  <g style="" transform="matrix(0.084585, -0.084585, 0.084585, 0.084585, 23.688873, 37.998493)"/>
  <g style="" transform="matrix(0.084585, -0.084585, 0.084585, 0.084585, 23.688873, 37.998493)"/>
  <g style="" transform="matrix(0.084585, -0.084585, 0.084585, 0.084585, 23.688873, 37.998493)"/>
  <g style="" transform="matrix(0.084585, -0.084585, 0.084585, 0.084585, 23.688873, 37.998493)"/>
  <g style="" transform="matrix(0.084585, -0.084585, 0.084585, 0.084585, 23.688873, 37.998493)"/>
  <g style="" transform="matrix(0.084585, -0.084585, 0.084585, 0.084585, 23.688873, 37.998493)"/>
  <g style="" transform="matrix(0.084585, -0.084585, 0.084585, 0.084585, 23.688873, 37.998493)"/>
  <g style="" transform="matrix(0.084585, -0.084585, 0.084585, 0.084585, 23.688873, 37.998493)"/>
  <g style="" transform="matrix(0.084585, -0.084585, 0.084585, 0.084585, 23.688873, 37.998493)"/>
  <g style="" transform="matrix(0.084585, -0.084585, 0.084585, 0.084585, 23.688873, 37.998493)"/>
  <g style="" transform="matrix(0.084585, -0.084585, 0.084585, 0.084585, 23.688873, 37.998493)"/>
  <g style="" transform="matrix(0.084585, -0.084585, 0.084585, 0.084585, 23.688873, 37.998493)"/>
  <g style="" transform="matrix(0.084585, -0.084585, 0.084585, 0.084585, 23.688873, 37.998493)"/>
</svg>