<svg xmlns="http://www.w3.org/2000/svg" width="77.57" height="78.17" viewBox="0 0 77.57 78.17">
  <defs>
    <style>
      .a {
        fill: #009245;
        fill-rule: evenodd;
      }
    </style>
  </defs>
  <title>Whatsapp</title>
  <path class="a" d="M39.49,0A38.09,38.09,0,0,0,6.87,57.74L0,78.17l21.08-6.75A38.08,38.08,0,1,0,39.49,0Zm0,69.78a31.5,31.5,0,0,1-17.44-5.24L9.87,68.44l4-11.77A31.69,31.69,0,1,1,39.49,69.78ZM57.34,46.73c-1-.52-5.64-3-6.52-3.41s-1.52-.54-2.21.41S46,46.79,45.39,47.42s-1.16.69-2.11.16a26.49,26.49,0,0,1-7.64-5.11,29.51,29.51,0,0,1-5.15-6.93c-.53-1,0-1.51.5-2s1-1.1,1.52-1.65a6.7,6.7,0,0,0,1-1.58,1.81,1.81,0,0,0,0-1.71c-.23-.49-2-5.35-2.73-7.33s-1.56-1.68-2.13-1.7-1.21-.13-1.86-.15a3.56,3.56,0,0,0-2.64,1.12,10.92,10.92,0,0,0-3.7,8c-.18,4.78,3.13,9.53,3.59,10.2s6.32,11,16.05,15.29,9.79,3,11.58,2.87,5.84-2.14,6.73-4.37,1-4.19.74-4.6S58.3,47.25,57.34,46.73Z"/>
</svg>
