<svg xmlns="http://www.w3.org/2000/svg" width="76" height="76" viewBox="0 0 76 76">
  <defs>
    <style>
      .a {
        fill: #fff;
      }
    </style>
  </defs>
  <title>achievement-planted</title>
  <g>
    <circle class="a" cx="38" cy="38" r="38"/>
    <path d="M37.88,59.63c0-1.56,0-5.72,0-6.43a21.23,21.23,0,0,1,2-2.86,7.76,7.76,0,0,0,2.24.35,5.34,5.34,0,0,0,2.23-.46,6.7,6.7,0,0,0,2.55-2.35c.46-.58,1-1.32,1.85-2.21S50.22,44.13,51,43.4l.88-1-1.08-.7a8.12,8.12,0,0,0-9.25.27,8.48,8.48,0,0,0-3.09,6.75,6.44,6.44,0,0,0-.61.77c.07-1.08.19-2.12.3-3.16h0v0A43.46,43.46,0,0,1,39.88,39c4.17-1.16,7-3,8.41-5.67A11.76,11.76,0,0,0,49.45,29a16.75,16.75,0,0,1,1.31-5.24,17.5,17.5,0,0,1,3-4.63l1.07-1.23-1.62-.34C46.51,16.1,39.72,19.22,37,25c-2.85,6,.12,11.83,1,13.42-.39,1.35-.77,2.77-1.08,4.16a22,22,0,0,0-2.39-4c-.08-1.77-.66-7.06-5-10.3-4.62-3.42-11.33-3.15-16.3.7l-1.2,1,1.35.69a23.59,23.59,0,0,1,4.59,3,20,20,0,0,1,3,3.16,10.62,10.62,0,0,0,2.54,2.51,9.64,9.64,0,0,0,5.4,1.46,18.63,18.63,0,0,0,4.4-.57,18.9,18.9,0,0,1,2.93,6.36,45.89,45.89,0,0,0-.38,6.09v0h0c0,.68,0,5.37,0,7.05a1,1,0,0,0,1,1h0a1,1,0,0,0,1-1Zm4.89-16a6.12,6.12,0,0,1,5.9-.77c-.46.47-.92,1-1.39,1.43-.84.93-1.46,1.7-1.92,2.31a5.26,5.26,0,0,1-1.85,1.78,2.6,2.6,0,0,1-2.18,0,34,34,0,0,1,3-2.54.49.49,0,0,0,.16-.66h0a.5.5,0,0,0-.68-.18h0c-.48.32-2.48,1.65-3.31,2.36A6.4,6.4,0,0,1,42.77,43.59Zm-4-17.81a12.18,12.18,0,0,1,11.15-6.63c.42,0,.85,0,1.27.07A20.89,20.89,0,0,0,48.94,23a18.35,18.35,0,0,0-1.46,5.78,9.72,9.72,0,0,1-1,3.7c-1,1.89-3,3.32-5.93,4.32A83.52,83.52,0,0,1,45,27.08a.41.41,0,0,0-.1-.56h0a.41.41,0,0,0-.57.1h0c-.81,1.24-4.05,5.93-5.32,9.21-1-2.23-2.05-6.17-.2-10.06Zm-10.41,4a10.61,10.61,0,0,1,3.9,6.17c-2.48-2.34-6.88-3.62-7.73-3.93a.38.38,0,0,0-.48.23v0h0a.38.38,0,0,0,.23.47A28.85,28.85,0,0,1,32,38.43c-3.17.65-5.63.34-7.4-.81a9.91,9.91,0,0,1-2.12-2.12,22,22,0,0,0-3.28-3.4,25.79,25.79,0,0,0-3.55-2.5A11.4,11.4,0,0,1,28.35,29.75Z"/>
  </g>
</svg>
