<svg xmlns="http://www.w3.org/2000/svg" width="29.35" height="24.01" viewBox="0 0 29.35 24.01">
  <defs>
    <style>
      .a {
        fill: #fff;
      }
    </style>
  </defs>
  <title>take picture</title>
  <g>
    <path class="a" d="M14.56,8.28a4.27,4.27,0,1,0,4.26,4.27h0a4.2,4.2,0,0,0-4.15-4.27Z"/>
    <path class="a" d="M26,2.68h-3.6L20.82.81A1.27,1.27,0,0,0,19.49,0H9.62a1.4,1.4,0,0,0-1.33.8L6.82,2.68H3.22A2.86,2.86,0,0,0,0,5.18a2.73,2.73,0,0,0,0,.7v15.2A3,3,0,0,0,3.13,24h23a3.1,3.1,0,0,0,3.2-2.93V5.88C29.22,3.21,27.62,2.68,26,2.68ZM14.55,19.08a6.67,6.67,0,1,1,6.67-6.67h0a6.61,6.61,0,0,1-6.53,6.67ZM25.35,8a1.74,1.74,0,1,1,1.74-1.73h0A1.68,1.68,0,0,1,25.46,8Z"/>
  </g>
</svg>
