<svg xmlns="http://www.w3.org/2000/svg" width="82" height="82" viewBox="0 0 82 82">
  <defs>
    <style>
      .a {
        fill: #4d4d4d;
      }
    </style>
  </defs>
  <title>email</title>
  <g>
    <path class="a" d="M41,0A41,41,0,1,0,82,41,41,41,0,0,0,41,0ZM62.84,58.9H20.13a4.22,4.22,0,0,1-4.36-3.28,5.16,5.16,0,0,1-.1-1V26.84a4.2,4.2,0,0,1,4-4.41,5.42,5.42,0,0,1,.57,0H62.9a4.14,4.14,0,0,1,4.45,3.8,4.86,4.86,0,0,1,0,.54V54.56a4.18,4.18,0,0,1-4,4.35A2.77,2.77,0,0,1,62.84,58.9Z"/>
    <path class="a" d="M61.07,31.37l.36-.36a2,2,0,0,0-1.13-3.33,2.19,2.19,0,0,0-2.06.7L43,43.19a1.79,1.79,0,0,1-2.48.44,1.84,1.84,0,0,1-.44-.44L25,28.56a5.57,5.57,0,0,0-.51-.46,2.06,2.06,0,0,0-2.91.25,2.14,2.14,0,0,0-.43.85,2.07,2.07,0,0,0,.72,2.07l9.22,9,.43.43-.46.46-9.22,8.91a2.08,2.08,0,0,0-.74,1.85,2,2,0,0,0,1.39,1.65A2.07,2.07,0,0,0,24.73,53L34,44l.42-.38q1.72,1.74,3.4,3.28a5,5,0,0,0,7,.28,3.7,3.7,0,0,0,.28-.28c1.13-1,2.28-2.07,3.58-3.3h0A2.07,2.07,0,0,0,49,44q3.72,3.61,7.46,7.23c.65.63,1.3,1.28,2,1.89a2.06,2.06,0,0,0,2.14.45A2,2,0,0,0,62,52a2.1,2.1,0,0,0-.81-1.92l-9.21-8.91-.49-.49a5.89,5.89,0,0,0,.55-.44Z"/>
  </g>
</svg>
