<?xml version="1.0" encoding="utf-8"?>
<svg viewBox="-33.215 45.614 82.458 82.393" width="82.458" height="82.393" xmlns="http://www.w3.org/2000/svg" xmlns:bx="https://boxy-svg.com">
  <path style="fill: rgb(124, 74, 74); stroke-width: 4px;" d="M -2.267 103.699 H 17.211 V 125.997 A 2 2 0 0 1 15.211 127.997 H -0.267 A 2 2 0 0 1 -2.267 125.997 V 103.699 Z" bx:shape="rect -2.267 103.699 19.478 24.298 0 0 2 2 1@c823211b"/>
  <path opacity="0.996078431372549" d="M 20.283 115.371 C 19.327 115.028 18.547 113.897 17.669 113.873 C 16.802 113.848 15.882 114.884 15.053 115.186 C 14.33 115.446 13.707 115.572 12.981 115.653 C 12.223 115.736 11.344 115.736 10.585 115.653 C 9.858 115.572 9.275 115.498 8.512 115.186 C 7.538 114.785 6.238 113.244 5.245 113.219 C 4.371 113.195 3.749 114.281 2.848 114.622 C 1.905 114.98 0.767 115.244 -0.312 115.279 C -1.413 115.313 -2.631 115.16 -3.69 114.809 C -4.776 114.451 -5.924 113.434 -6.742 113.124 C -7.31 112.909 -7.654 112.864 -8.16 112.844 C -8.704 112.822 -9.185 113.026 -9.902 113.032 C -10.86 113.038 -12.382 113.038 -13.499 112.749 C -14.596 112.468 -15.647 112.03 -16.551 111.346 C -17.542 110.592 -18.403 109.516 -19.111 108.301 C -19.914 106.92 -19.738 104.633 -20.965 103.383 C -22.226 102.095 -25.376 101.636 -26.683 100.763 C -27.637 100.122 -28.086 99.611 -28.591 98.842 C -29.148 97.998 -29.648 96.854 -29.79 95.845 C -29.929 94.856 -29.784 93.765 -29.463 92.847 C -29.154 91.961 -28.134 91.265 -27.937 90.413 C -27.745 89.578 -27.894 88.593 -28.266 87.789 C -28.644 86.966 -29.752 86.36 -30.226 85.543 C -30.693 84.735 -31.034 83.891 -31.097 82.921 C -31.17 81.824 -30.896 80.29 -30.445 79.267 C -30.045 78.366 -29.093 77.372 -28.7 77.021 C -28.512 76.849 -28.359 76.965 -28.266 76.784 C -28.093 76.456 -28.05 75.526 -28.266 74.772 C -28.535 73.814 -29.717 72.508 -30.119 71.495 C -30.459 70.625 -30.654 69.899 -30.662 69.058 C -30.669 68.183 -30.483 67.187 -30.119 66.342 C -29.753 65.502 -29.296 64.741 -28.481 64.002 C -27.507 63.116 -25.013 61.994 -24.394 61.521 C -24.128 61.314 -24.064 61.297 -24.015 61.098 C -23.948 60.828 -24.22 60.462 -24.232 59.973 C -24.25 59.273 -24.237 58.069 -23.907 57.164 C -23.561 56.225 -22.851 55.178 -22.163 54.447 C -21.54 53.789 -20.911 53.32 -20.038 52.902 C -19.049 52.433 -17.689 51.987 -16.441 51.872 C -15.166 51.758 -13.189 52.51 -12.463 52.247 C -12.001 52.079 -12.177 51.638 -11.808 51.265 C -11.275 50.721 -10.207 49.822 -9.249 49.343 C -8.297 48.872 -7.196 48.536 -6.089 48.407 C -4.948 48.276 -3.821 48.317 -2.493 48.593 C -0.871 48.933 1.561 50.4 2.956 50.562 C 3.918 50.673 4.523 50.433 5.245 50.187 C 5.98 49.938 6.561 49.341 7.315 49.064 C 8.086 48.775 8.902 48.561 9.823 48.501 C 10.845 48.435 12.132 48.505 13.2 48.782 C 14.276 49.063 15.471 49.659 16.251 50.187 C 16.908 50.63 17.11 51.31 17.723 51.64 C 18.341 51.97 19.098 52.254 19.956 52.154 C 21.07 52.02 22.734 50.725 23.88 50.376 C 24.78 50.099 25.407 50.012 26.276 49.997 C 27.245 49.987 28.464 50.102 29.437 50.376 C 30.383 50.64 31.274 51.053 32.053 51.592 C 32.86 52.151 33.635 52.836 34.178 53.7 C 34.78 54.658 35.29 56.49 35.376 57.164 C 35.42 57.507 35.17 57.599 35.266 57.821 C 35.392 58.106 35.75 58.44 36.302 58.71 C 37.136 59.117 39.138 59.324 40.226 59.74 C 41.145 60.094 41.836 60.455 42.515 60.958 C 43.2 61.467 43.827 62.043 44.313 62.782 C 44.855 63.614 45.371 64.771 45.512 65.781 C 45.649 66.77 45.535 67.822 45.184 68.778 C 44.823 69.761 43.877 70.985 43.331 71.588 C 42.973 71.982 42.372 71.962 42.351 72.337 C 42.318 72.883 43.609 73.739 44.203 74.772 C 44.967 76.094 46.121 78.41 46.383 79.829 C 46.586 80.924 46.401 81.568 46.167 82.64 C 45.872 83.964 44.756 86.03 44.532 87.227 C 44.368 88.082 44.286 88.625 44.532 89.289 C 44.792 90.004 45.783 90.628 46.167 91.348 C 46.53 92.039 46.738 92.735 46.819 93.502 C 46.902 94.322 46.883 95.254 46.601 96.126 C 46.297 97.063 45.679 98.159 44.968 98.936 C 44.284 99.676 42.741 100.011 42.46 100.716 C 42.198 101.369 43.075 102.143 43.113 102.963 C 43.155 103.875 42.961 105.046 42.568 105.959 C 42.187 106.853 41.503 107.733 40.826 108.395 C 40.199 109.006 39.439 109.476 38.702 109.845 C 38.002 110.197 37.454 110.424 36.521 110.595 C 35.272 110.826 32.692 110.336 31.671 110.876 C 30.844 111.317 31.054 112.387 30.364 113.077 C 29.543 113.9 28.038 114.901 26.823 115.371 C 25.724 115.797 24.546 115.939 23.444 115.934 C 22.369 115.93 21.25 115.72 20.283 115.371 Z" style="fill-opacity: 1; fill-rule: nonzero; stroke-dasharray: none; stroke-dashoffset: 0px; stroke-linecap: butt; stroke-linejoin: miter; stroke-miterlimit: 4; stroke-opacity: 1; paint-order: normal; vector-effect: none; opacity: 1; mix-blend-mode: normal; isolation: auto; stroke-width: 4px; fill: rgb(19, 120, 21); stroke: rgb(19, 84, 11);"/>
  <g transform="matrix(0.121024, 0, 0, 0.122168, -23.99505, 48.948631)" style="stroke-width: 1.5724; vector-effect: non-scaling-stroke;">
    <circle style="fill: rgb(255, 255, 255);" cx="160" cy="192" r="32"/>
    <circle style="fill: rgb(255, 255, 255);" cx="352" cy="192" r="32"/>
    <path style="fill: rgb(255, 255, 255);" d="M 259.985 394.116 C 217.234 394.116 177.078 377.44 146.839 347.23 C 140.597 340.99 140.597 330.845 146.839 324.606 C 153.071 318.366 163.217 318.366 169.458 324.606 C 217.814 372.988 302.099 372.988 350.483 324.606 C 356.724 318.366 366.871 318.366 373.103 324.606 C 379.344 330.845 379.344 340.99 373.103 347.23 C 342.902 377.44 302.735 394.116 259.985 394.116 Z"/>
  </g>
</svg>