<svg xmlns="http://www.w3.org/2000/svg" width="32.094" height="49.043" viewBox="0 0 32.094 49.043">
  <g id="ghost" transform="translate(3 3)">
    <g id="Ellipse_8" data-name="Ellipse 8" fill="none">
      <path d="M13.047,0A13.047,13.047,0,1,1,0,13.047,13.047,13.047,0,0,1,13.047,0Z" stroke="none"/>
      <path d="M 13.04708194732666 1.9073486328125e-06 C 5.841381072998047 1.9073486328125e-06 1.9073486328125e-06 5.841381072998047 1.9073486328125e-06 13.04708194732666 C 1.9073486328125e-06 20.25278091430664 5.841381072998047 26.09416198730469 13.04708194732666 26.09416198730469 C 20.25278091430664 26.09416198730469 26.09416198730469 20.25278091430664 26.09416198730469 13.04708194732666 C 26.09416198730469 5.841381072998047 20.25278091430664 1.9073486328125e-06 13.04708194732666 1.9073486328125e-06 M 13.04708194732666 -2.999998092651367 C 15.21210193634033 -2.999998092651367 17.31395149230957 -2.575298309326172 19.29425239562988 -1.737707138061523 C 21.20548248291016 -0.9293289184570312 22.92131233215332 0.2273120880126953 24.39408111572266 1.700082778930664 C 25.86685180664062 3.1728515625 27.02349281311035 4.888681411743164 27.83187103271484 6.799911499023438 C 28.66946220397949 8.78021240234375 29.09416198730469 10.88206195831299 29.09416198730469 13.04708194732666 C 29.09416198730469 15.21210193634033 28.66946220397949 17.31395149230957 27.83187103271484 19.29425239562988 C 27.02349281311035 21.20548248291016 25.86685180664062 22.92131233215332 24.39408111572266 24.39408111572266 C 22.92131233215332 25.86685180664062 21.20548248291016 27.02349281311035 19.29425239562988 27.83187103271484 C 17.31395149230957 28.66946220397949 15.21210193634033 29.09416198730469 13.04708194732666 29.09416198730469 C 10.88206195831299 29.09416198730469 8.78021240234375 28.66946220397949 6.799911499023438 27.83187103271484 C 4.888681411743164 27.02349281311035 3.1728515625 25.86685180664062 1.700082778930664 24.39408111572266 C 0.2273120880126953 22.92131233215332 -0.9293289184570312 21.20548248291016 -1.737707138061523 19.29425239562988 C -2.575298309326172 17.31395149230957 -2.999998092651367 15.21210193634033 -2.999998092651367 13.04708194732666 C -2.999998092651367 10.88206195831299 -2.575298309326172 8.78021240234375 -1.737707138061523 6.799911499023438 C -0.9293289184570312 4.888681411743164 0.2273120880126953 3.1728515625 1.700082778930664 1.700082778930664 C 3.1728515625 0.2273120880126953 4.888681411743164 -0.9293289184570312 6.799911499023438 -1.737707138061523 C 8.78021240234375 -2.575298309326172 10.88206195831299 -2.999998092651367 13.04708194732666 -2.999998092651367 Z" stroke="none" fill="#bebebe"/>
    </g>
    <g id="Path_52" data-name="Path 52" transform="translate(-1730.054 -339.176)" fill="#fff">
      <path d="M 1743.716186523438 384.7192077636719 C 1742.742797851562 384.7191162109375 1741.939086914062 383.9278259277344 1741.924560546875 382.9552917480469 L 1741.924560546875 382.9515686035156 L 1741.924560546875 382.9478454589844 L 1741.924560546875 382.9110412597656 L 1741.924560546875 382.9075317382812 L 1741.924560546875 382.9040222167969 L 1742.224487304688 361.5600891113281 L 1735.513916015625 355.3440856933594 C 1735.290405273438 355.137451171875 1735.16064453125 354.8556213378906 1735.149047851562 354.5509033203125 C 1735.137451171875 354.2467956542969 1735.244995117188 353.9561462402344 1735.451904296875 353.7324829101562 C 1735.665771484375 353.5003662109375 1735.970947265625 353.3668518066406 1736.288696289062 353.3668518066406 C 1736.5537109375 353.3668518066406 1736.81201171875 353.45947265625 1737.01611328125 353.6276550292969 L 1742.836303710938 358.4516906738281 L 1743.979858398438 353.9547424316406 L 1742.007080078125 346.7517395019531 C 1741.926513671875 346.457763671875 1741.96533203125 346.1499328613281 1742.116577148438 345.8851013183594 C 1742.267578125 345.6206359863281 1742.512817382812 345.4309692382812 1742.806884765625 345.3510437011719 C 1742.90283203125 345.3243103027344 1743.005004882812 345.310302734375 1743.107421875 345.310302734375 C 1743.595581054688 345.310302734375 1744.029052734375 345.621337890625 1744.186157226562 346.0842590332031 L 1746.139892578125 351.8150939941406 L 1748.927001953125 349.9913330078125 C 1749.099609375 349.8788757324219 1749.298461914062 349.8197326660156 1749.502807617188 349.8197326660156 C 1749.859985351562 349.8197326660156 1750.189453125 349.9981384277344 1750.38427734375 350.2969970703125 C 1750.674438476562 350.7386474609375 1750.5888671875 351.3308410644531 1750.184326171875 351.6729736328125 L 1746.654541015625 354.6926879882812 L 1745.196899414062 361.1671142578125 L 1745.501831054688 382.9040222167969 C 1745.5166015625 383.8894958496094 1744.726318359375 384.7039794921875 1743.740112304688 384.7190551757812 L 1743.716186523438 384.7192077636719 Z" stroke="none"/>
      <path d="M 1743.107421875 345.810302734375 C 1743.051391601562 345.810302734375 1742.994506835938 345.8178100585938 1742.93798828125 345.8335571289062 C 1742.595336914062 345.9266662597656 1742.396118164062 346.2796630859375 1742.489379882812 346.6196594238281 L 1744.484130859375 353.903076171875 C 1744.48193359375 353.9356079101562 1744.484130859375 353.968017578125 1744.484130859375 354.0005493164062 L 1743.1259765625 359.3412475585938 L 1736.698120117188 354.0134887695312 C 1736.579223632812 353.91552734375 1736.433715820312 353.8668518066406 1736.288696289062 353.8668518066406 C 1736.116333007812 353.8668518066406 1735.944702148438 353.9355773925781 1735.818969726562 354.0719909667969 C 1735.57861328125 354.3318481445312 1735.593627929688 354.7368774414062 1735.853759765625 354.9772644042969 L 1742.7275390625 361.3445434570312 L 1742.424560546875 382.9110412597656 C 1742.424560546875 382.9218444824219 1742.424560546875 382.93701171875 1742.424560546875 382.9478454589844 C 1742.43505859375 383.6549072265625 1743.011108398438 384.2192077636719 1743.71630859375 384.2192077636719 C 1743.7216796875 384.2192077636719 1743.72705078125 384.2191772460938 1743.732421875 384.2191162109375 C 1744.442993164062 384.208251953125 1745.012573242188 383.6235046386719 1745.001831054688 382.9110412597656 L 1744.696166992188 361.114990234375 L 1746.203247070312 354.4207458496094 L 1749.861450195312 351.2911682128906 C 1750.071411132812 351.1136169433594 1750.119018554688 350.8039245605469 1749.96533203125 350.5700073242188 C 1749.859619140625 350.4078063964844 1749.68310546875 350.3197326660156 1749.502807617188 350.3197326660156 C 1749.399169921875 350.3197021484375 1749.294311523438 350.3488464355469 1749.200805664062 350.4097290039062 L 1745.87451171875 352.5862426757812 L 1743.712646484375 346.2449645996094 C 1743.623291015625 345.9817504882812 1743.375244140625 345.810302734375 1743.107421875 345.810302734375 M 1743.107421875 344.810302734375 C 1743.809814453125 344.810302734375 1744.43359375 345.2576904296875 1744.659545898438 345.923583984375 L 1746.4052734375 351.0439147949219 L 1748.6533203125 349.5729370117188 C 1748.908081054688 349.4069213867188 1749.201293945312 349.3197326660156 1749.502807617188 349.3197326660156 C 1750.029663085938 349.3197631835938 1750.515747070312 349.5830383300781 1750.803100585938 350.0240173339844 C 1751.230346679688 350.6742553710938 1751.10498046875 351.5470581054688 1750.509765625 352.0525817871094 L 1747.105834960938 354.964599609375 L 1745.69775390625 361.21923828125 L 1746.001708984375 382.8970336914062 C 1746.020751953125 384.1575927734375 1745.009643554688 385.19970703125 1743.747680664062 385.218994140625 L 1743.71630859375 385.2192077636719 C 1742.47119140625 385.2192077636719 1741.443237304688 384.2069702148438 1741.424682617188 382.9627380371094 L 1741.424560546875 382.9552917480469 L 1741.424560546875 382.9478454589844 L 1741.424560546875 382.9110412597656 L 1741.424560546875 382.9040222167969 L 1741.424682617188 382.8970031738281 L 1741.721435546875 361.775634765625 L 1735.174194335938 355.7108764648438 C 1734.852783203125 355.4138488769531 1734.666015625 355.0083312988281 1734.6494140625 354.5699157714844 C 1734.6328125 354.1325073242188 1734.787475585938 353.7145385742188 1735.084838867188 353.3929748535156 C 1735.392456054688 353.0591430664062 1735.831665039062 352.8668518066406 1736.288696289062 352.8668518066406 C 1736.66943359375 352.8668518066406 1737.040771484375 353 1737.334106445312 353.2418212890625 L 1742.546630859375 357.5621643066406 L 1743.462768554688 353.95947265625 L 1741.52490234375 346.8838195800781 C 1741.408935546875 346.4609985351562 1741.46484375 346.0181274414062 1741.682373046875 345.6371154785156 C 1741.899536132812 345.2569580078125 1742.251708984375 344.9842224121094 1742.674194335938 344.8689880371094 C 1742.815551757812 344.8300476074219 1742.961303710938 344.810302734375 1743.107421875 344.810302734375 Z" stroke="none"/>
    </g>
  </g>
</svg>
