<?xml version="1.0" encoding="utf-8"?>
<svg viewBox="0 0 275 125" xmlns="http://www.w3.org/2000/svg">
  <path d="M 29.11 8.173 C 34.733 8.591 44.496 11.041 49.933 8.776 C 57.668 5.555 60.071 -1.305 69.846 0.847 C 75.461 2.083 77.62 12.762 82.278 16.189 C 87.358 19.927 97.224 19.044 102.88 18.179 C 110.803 16.968 111.899 6.186 119.939 4.398 C 125.32 3.201 135.31 3.511 140.232 6.518 C 144.494 9.124 150.698 16.795 156.123 13.244 C 159.796 10.84 166.264 10.597 170.992 8.92 C 178.628 6.214 184.369 -0.494 192.601 0.193 C 200.539 0.855 204.496 12.865 213.185 12.865 C 221.462 12.865 230.76 1.114 239.061 3.848 C 242.305 4.918 249.327 20.229 252.004 23.544 C 256.125 28.646 264.837 18.848 266.983 30.162 C 268.562 38.489 260.766 41.098 261.403 49.481 C 262.211 60.121 272.537 69.635 269.284 83.196 C 267.601 90.218 254.546 85.783 252.821 90.226 C 250.476 96.27 256.247 109.117 253.331 113.985 C 251.678 116.745 244.869 115.296 242.436 115.296 C 234.325 115.296 224.926 126.015 216.698 122.861 C 212.304 121.176 210.995 112.612 206.477 111.366 C 197.303 108.835 190.163 120.249 181.011 120.249 C 173.051 120.249 165.829 114.606 159.131 115.296 C 141.381 117.127 123.57 124.163 105.961 121.304 C 101.61 120.597 100.394 113.118 96.133 112.175 C 78.205 108.21 60.73 122.561 42.643 118.555 C 36.874 117.277 32.435 107.837 27.646 106.543 C 25.059 105.844 21.928 107.103 19.577 105.554 C 13.645 101.644 16.467 89.662 14.86 83.51 C 13.995 80.198 8.139 81.838 7.121 79.154 C 4.961 73.46 8.052 48.604 10.355 42.48 C 14.093 32.535 23.896 37.375 27.205 28.59 C 29.375 22.828 18.564 9.245 29.401 9.245" style="stroke-width: 3px; stroke: rgb(83, 171, 43); fill: rgb(51, 137, 30); fill-opacity: 0.34;"/>
</svg>