<?xml version="1.0" encoding="utf-8"?>
<svg viewBox="82.862 1.648 96.91 96.91" width="96.91" height="96.91" xmlns="http://www.w3.org/2000/svg" xmlns:bx="https://boxy-svg.com">
  <path d="M 178.88 50.24 C 178.88 74.586 160.772 94.684 137.348 97.681 L 136.394 65.839 L 125.285 65.572 L 125.432 97.711 C 101.894 94.818 83.664 74.668 83.664 50.24 C 83.664 23.826 104.979 2.412 131.272 2.412 C 157.565 2.412 178.88 23.826 178.88 50.24 Z" style="stroke: rgb(101, 142, 82); stroke-width: 0px; fill: rgb(110, 158, 87);"/>
  <circle style="fill: rgb(255, 255, 255);" cx="37.07" cy="62.292" r="5.069" transform="matrix(2.233268, 0, 0, 2.279099, 22.522448, -111.739143)"/>
  <circle style="fill: rgb(255, 255, 255);" cx="37.07" cy="62.292" r="5.069" transform="matrix(2.233268, 0, 0, 2.279099, 35.927189, -121.477364)"/>
  <circle style="fill: rgb(255, 255, 255);" cx="37.07" cy="62.292" r="5.069" transform="matrix(2.233268, 0, 0, 2.279099, 52.052956, -122.492279)"/>
  <circle style="fill: rgb(255, 255, 255);" cx="37.07" cy="62.292" r="5.069" transform="matrix(2.233268, 0, 0, 2.279099, 68.232071, -119.346863)"/>
  <circle style="fill: rgb(255, 255, 255);" cx="37.07" cy="62.292" r="5.069" transform="matrix(2.233268, 0, 0, 2.279099, 77.666367, -107.384193)"/>
  <circle style="fill: rgb(255, 255, 255);" cx="37.07" cy="62.292" r="5.069" transform="matrix(2.233268, 0, 0, 2.279099, 17.759302, -80.568993)"/>
  <circle style="fill: rgb(255, 255, 255);" cx="37.07" cy="62.292" r="5.069" transform="matrix(2.233268, 0, 0, 2.279099, 78.383904, -79.314178)"/>
  <circle style="fill: rgb(255, 255, 255);" cx="37.07" cy="62.292" r="5.069" transform="matrix(2.233268, 0, 0, 2.279099, 18.224783, -96.519775)"/>
  <circle style="fill: rgb(255, 255, 255);" cx="37.07" cy="62.292" r="5.069" transform="matrix(2.233268, 0, 0, 2.279099, 78.482994, -96.198227)"/>
  <circle style="fill: rgb(255, 255, 255);" cx="131.869" cy="54.027" r="35.854" transform="matrix(1.023425, 0, 0, 1.05118, -3.147638, -2.957401)"/>
  <circle style="fill: rgb(202, 230, 190);" cx="37.07" cy="62.292" r="5.069" transform="matrix(2.233268, 0, 0, 2.279099, 36.618298, -105.160141)"/>
  <circle style="fill: rgb(202, 230, 190);" cx="37.07" cy="62.292" r="5.069" transform="matrix(2.233268, 0, 0, 2.279099, 62.457539, -105.19191)"/>
  <circle style="fill: rgb(110, 158, 87);" transform="matrix(-0.629512, 0.063871, 0.070926, 0.651323, 387.212616, -353.760498)" cx="487.72265625" cy="552.453125" r="7.41719013324158"/>
  <circle style="fill: rgb(110, 158, 87);" transform="matrix(-0.629512, 0.063871, 0.070926, 0.651323, 413.270905, -354.050934)" cx="487.72265625" cy="552.453125" r="7.41719013324158" bx:origin="0.502 0.556"/>
  <path style="fill: rgb(110, 158, 87);" d="M 131.838 80.55 C 125.88 80.55 120.282 78.139 116.069 73.774 C 115.198 72.873 115.198 71.407 116.069 70.506 C 116.937 69.604 118.351 69.604 119.22 70.506 C 125.961 77.497 137.707 77.497 144.45 70.506 C 145.322 69.604 146.734 69.604 147.603 70.506 C 148.474 71.407 148.474 72.873 147.603 73.774 C 143.394 78.139 137.796 80.55 131.838 80.55 Z"/>
</svg>