<?xml version="1.0" encoding="utf-8"?>
<svg viewBox="82.862 1.648 96.91 96.91" width="96.91" height="96.91" xmlns="http://www.w3.org/2000/svg" xmlns:bx="https://boxy-svg.com">
  <path d="M 179.529 50.032 C 179.529 74.589 161.187 94.86 137.461 97.884 L 137.461 81.666 L 125.392 81.666 L 125.392 97.914 C 101.55 94.996 83.085 74.672 83.085 50.032 C 83.085 23.389 104.675 1.79 131.307 1.79 C 157.939 1.79 179.529 23.389 179.529 50.032 Z" style="stroke: rgb(101, 142, 82); stroke-width: 0.199959px; fill: rgb(255, 255, 255);"/>
  <circle style="fill: rgb(99, 146, 77);" cx="37.07" cy="62.292" r="5.069" transform="matrix(2.182153, 0, 0, 2.168135, 23.859167, -108.380859)"/>
  <circle style="fill: rgb(99, 146, 77);" cx="37.07" cy="62.292" r="5.069" transform="matrix(2.182153, 0, 0, 2.168135, 36.957092, -117.644943)"/>
  <circle style="fill: rgb(99, 146, 77);" cx="37.07" cy="62.292" r="5.069" transform="matrix(2.182153, 0, 0, 2.168135, 52.713757, -118.610451)"/>
  <circle style="fill: rgb(99, 146, 77);" cx="37.07" cy="62.292" r="5.069" transform="matrix(2.182153, 0, 0, 2.168135, 68.52256, -115.618179)"/>
  <circle style="fill: rgb(99, 146, 77);" cx="37.07" cy="62.292" r="5.069" transform="matrix(2.182153, 0, 0, 2.168135, 77.740906, -104.237946)"/>
  <circle style="fill: rgb(99, 146, 77);" cx="37.07" cy="62.292" r="5.069" transform="matrix(2.182153, 0, 0, 2.168135, 19.205044, -78.728325)"/>
  <circle style="fill: rgb(99, 146, 77);" cx="37.07" cy="62.292" r="5.069" transform="matrix(2.182153, 0, 0, 2.168135, 78.442024, -77.534607)"/>
  <circle style="fill: rgb(99, 146, 77);" cx="37.07" cy="62.292" r="5.069" transform="matrix(2.182153, 0, 0, 2.168135, 19.65987, -93.902496)"/>
  <circle style="fill: rgb(99, 146, 77);" cx="37.07" cy="62.292" r="5.069" transform="matrix(2.182153, 0, 0, 2.168135, 78.538849, -93.596603)"/>
  <circle style="fill: rgb(101, 142, 82);" cx="130.646" cy="49.131" r="35.854"/>
  <circle style="fill: rgb(99, 146, 77);" cx="37.07" cy="62.292" r="5.069" transform="matrix(2.182153, 0, 0, 2.168135, 37.632381, -102.122177)"/>
  <circle style="fill: rgb(99, 146, 77);" cx="37.07" cy="62.292" r="5.069" transform="matrix(2.182153, 0, 0, 2.168135, 62.880188, -102.152397)"/>
  <circle style="fill: rgb(110, 158, 87);" transform="matrix(-0.615104, 0.060761, 0.069303, 0.619612, 380.202087, -338.618652)" cx="487.72265625" cy="552.453125" r="7.41719013324158"/>
  <circle style="fill: rgb(110, 158, 87);" transform="matrix(-0.615104, 0.060761, 0.069303, 0.619612, 405.66391, -338.894958)" cx="487.72265625" cy="552.453125" r="7.41719013324158" bx:origin="0.502 0.556"/>
  <path style="fill: rgb(110, 158, 87);" d="M 130.673 74.545 C 124.851 74.545 119.382 72.252 115.264 68.099 C 114.414 67.242 114.414 65.847 115.264 64.99 C 116.113 64.131 117.494 64.131 118.344 64.99 C 124.93 71.641 136.408 71.641 142.997 64.99 C 143.848 64.131 145.229 64.131 146.078 64.99 C 146.928 65.847 146.928 67.242 146.078 68.099 C 141.965 72.252 136.495 74.545 130.673 74.545 Z"/>
</svg>