<?xml version="1.0" encoding="utf-8"?>
<svg viewBox="82.862 1.648 96.91 96.91" width="96.91" height="96.91" xmlns="http://www.w3.org/2000/svg" xmlns:bx="https://boxy-svg.com">
  <circle style="fill: rgb(99, 146, 77);" cx="37.07" cy="62.292" r="5.069" transform="matrix(2.584667, 0, 0, 2.568064, 5.67306, -133.021439)"/>
  <circle style="fill: rgb(99, 146, 77);" cx="37.07" cy="62.292" r="5.069" transform="matrix(2.584667, 0, 0, 2.568064, 21.186996, -143.994354)"/>
  <circle style="fill: rgb(99, 146, 77);" cx="37.07" cy="62.292" r="5.069" transform="matrix(2.584667, 0, 0, 2.568064, 39.850098, -145.137955)"/>
  <circle style="fill: rgb(99, 146, 77);" cx="37.07" cy="62.292" r="5.069" transform="matrix(2.584667, 0, 0, 2.568064, 58.574944, -141.593735)"/>
  <circle style="fill: rgb(99, 146, 77);" cx="37.07" cy="62.292" r="5.069" transform="matrix(2.584667, 0, 0, 2.568064, 69.493675, -128.114334)"/>
  <circle style="fill: rgb(99, 146, 77);" cx="37.07" cy="62.292" r="5.069" transform="matrix(2.584667, 0, 0, 2.568064, 0.160453, -97.899277)"/>
  <circle style="fill: rgb(99, 146, 77);" cx="37.07" cy="62.292" r="5.069" transform="matrix(2.584667, 0, 0, 2.568064, 70.324127, -96.485367)"/>
  <circle style="fill: rgb(99, 146, 77);" cx="37.07" cy="62.292" r="5.069" transform="matrix(2.584667, 0, 0, 2.568064, 0.699174, -115.872437)"/>
  <circle style="fill: rgb(99, 146, 77);" cx="37.07" cy="62.292" r="5.069" transform="matrix(2.584667, 0, 0, 2.568064, 70.438805, -115.510124)"/>
  <circle style="fill: rgb(101, 142, 82);" cx="132.157" cy="53.545" r="42.467"/>
  <circle style="fill: rgb(99, 146, 77);" cx="37.07" cy="62.292" r="5.069" transform="matrix(2.584667, 0, 0, 2.568064, 21.986849, -125.608299)"/>
  <circle style="fill: rgb(99, 146, 77);" cx="37.07" cy="62.292" r="5.069" transform="matrix(2.584667, 0, 0, 2.568064, 51.8918, -125.644096)"/>
  <circle style="fill: rgb(110, 158, 87);" transform="matrix(-0.728565, 0.071969, 0.082087, 0.733904, 427.746063, -405.728302)" cx="487.72265625" cy="552.453125" r="7.41719013324158"/>
  <circle style="fill: rgb(110, 158, 87);" transform="matrix(-0.728565, 0.071969, 0.082087, 0.733904, 457.90451, -406.055573)" cx="487.72265625" cy="552.453125" r="7.41719013324158" bx:origin="0.502 0.556"/>
  <path style="fill: rgb(110, 158, 87);" d="M 132.189 83.647 C 125.293 83.647 118.816 80.931 113.938 76.012 C 112.931 74.997 112.931 73.345 113.938 72.329 C 114.943 71.312 116.579 71.312 117.586 72.329 C 125.387 80.207 138.982 80.207 146.787 72.329 C 147.794 71.312 149.43 71.312 150.436 72.329 C 151.442 73.345 151.442 74.997 150.436 76.012 C 145.564 80.931 139.085 83.647 132.189 83.647 Z"/>
</svg>