<?xml version="1.0" encoding="utf-8"?>
<svg viewBox="64.774 329.674 10.604 9.781" width="10.604" height="9.781" xmlns="http://www.w3.org/2000/svg">
  <path d="M 68.273 330.181 L 71.809 330.181 C 72.299 330.181 72.696 330.58 72.696 331.072 L 72.696 332.41 L 73.854 332.41 C 74.344 332.41 74.743 332.808 74.743 333.301 L 74.743 335.911 C 74.743 336.402 74.344 336.801 73.854 336.801 L 72.696 336.801 L 72.696 338.007 C 72.696 338.497 72.299 338.896 71.809 338.896 L 68.273 338.896 C 67.782 338.896 67.386 338.497 67.386 338.007 L 67.386 336.801 L 66.214 336.801 C 65.724 336.801 65.326 336.402 65.326 335.911 L 65.326 333.301 C 65.326 332.808 65.724 332.41 66.214 332.41 L 67.386 332.41 L 67.386 331.072 C 67.386 330.58 67.782 330.181 68.273 330.181 Z" style="fill: rgb(255, 255, 255); stroke: rgb(0, 0, 0);"/>
</svg>