<svg xmlns="http://www.w3.org/2000/svg" xmlns:xlink="http://www.w3.org/1999/xlink" width="39.403" height="37.072" viewBox="0 0 39.403 37.072">
  <defs>
    <clipPath id="clip-path">
      <rect id="SVGID" width="39.403" height="37.072" fill="none"/>
    </clipPath>
  </defs>
  <g id="Group_29" data-name="Group 29" clip-path="url(#clip-path)">
    <path id="Path_46" data-name="Path 46" d="M1730.1,284.144a1.026,1.026,0,1,0-1.027-1.027,1.026,1.026,0,0,0,1.027,1.027" transform="translate(-1710.428 -278.127)"/>
    <path id="Path_47" data-name="Path 47" d="M1743.769,284.657h-10.553v-3.53a3.435,3.435,0,0,0-3.432-3.431h-3.431a3.436,3.436,0,0,0-3.432,3.431v3.53h-10.478a4.043,4.043,0,0,0-4.038,4.039V310.73a4.043,4.043,0,0,0,4.038,4.039h31.326a4.044,4.044,0,0,0,4.038-4.039V288.7a4.044,4.044,0,0,0-4.038-4.039m-17.42-4.925h3.431a1.38,1.38,0,0,1,1.379,1.379v7.983h-6.185v-7.967a1.378,1.378,0,0,1,1.378-1.378Zm19.406,31a1.987,1.987,0,0,1-1.986,1.986h-31.326a1.987,1.987,0,0,1-1.986-1.986V288.7a1.987,1.987,0,0,1,1.986-1.986h10.478v2.381h-1.949a1.026,1.026,0,0,0,0,2.052h14.194a1.026,1.026,0,0,0,0-2.052h-1.95V286.71h10.553a1.987,1.987,0,0,1,1.986,1.986Z" transform="translate(-1708.404 -277.696)"/>
    <path id="Path_48" data-name="Path 48" d="M1742.332,297.612h-9.8a1.026,1.026,0,1,0,0,2.052h9.8a1.026,1.026,0,1,0,0-2.052" transform="translate(-1710.666 -279.647)"/>
    <path id="Path_49" data-name="Path 49" d="M1742.332,303.068h-9.8a1.026,1.026,0,1,0,0,2.052h9.8a1.026,1.026,0,1,0,0-2.052" transform="translate(-1710.666 -280.181)"/>
    <path id="Path_50" data-name="Path 50" d="M1742.332,308.519h-9.8a1.026,1.026,0,1,0,0,2.052h9.8a1.026,1.026,0,1,0,0-2.052" transform="translate(-1710.666 -280.715)"/>
    <g id="Group_28" data-name="Group 28" transform="translate(4.974 15.89)">
      <circle id="Ellipse_8" data-name="Ellipse 8" cx="5.434" cy="5.434" r="5.434" fill="none" stroke="#000" stroke-miterlimit="10" stroke-width="1"/>
      <path id="Path_51" data-name="Path 51" d="M1722.42,300.658a.23.23,0,0,0-.275-.368l-1.386.908-.9-2.642a.267.267,0,0,0-.51.157l.831,3.033c0,.014,0,.027,0,.042l-.566,2.224-2.677-2.218a.267.267,0,0,0-.352.4l2.863,2.651-.125,8.984a.041.041,0,0,0,0,.014.537.537,0,0,0,1.073-.014l-.128-9.079.628-2.788Z" transform="translate(-1714.17 -295.611)"/>
    </g>
  </g>
</svg>
