<svg xmlns="http://www.w3.org/2000/svg" width="104.99" height="181.94" viewBox="0 0 104.99 181.94">
  <defs>
    <style>
      .a {
        fill: #999;
      }

      .b {
        fill: none;
        stroke: #000;
        stroke-linecap: round;
        stroke-miterlimit: 10;
        stroke-width: 1.42px;
        stroke-dasharray: 4.32 4.32;
      }
    </style>
  </defs>
  <g>
    <circle class="a" cx="52.5" cy="52.5" r="52.5"/>
    <path d="M79.7,48.75A2.22,2.22,0,0,0,77,45.2L63.66,54,55,28.44A2.58,2.58,0,0,0,50,30l8,29.31c0,.13,0,.26,0,.39L52.6,81.14,26.74,59.7a2.58,2.58,0,0,0-3.4,3.88L51,89.19l-1.22,65.35v.14a5.19,5.19,0,1,0,10.37-.14L58.92,88.27,65,61.33Z"/>
    <ellipse class="b" cx="54.57" cy="166.57" rx="33.06" ry="14.66"/>
    <polygon points="54.57 166.57 74.35 144.58 34.78 144.58 54.57 166.57"/>
  </g>
</svg>
