<?xml version="1.0" encoding="utf-8"?>
<svg width="104.99" height="181.23" viewBox="0 0 104.99 181.23" xmlns="http://www.w3.org/2000/svg">
  <defs>
    <style>
      .a {
        fill: #76923e;
      }

      .b {
        fill: #324416;
      }
    </style>
  </defs>
  <title>Tree</title>
  <g>
    <circle class="a" cx="52.5" cy="52.5" r="52.5" style="fill: rgb(255, 106, 0);"/>
    <path class="b" d="M79.7,48.75A2.22,2.22,0,0,0,77,45.2L63.66,54,55,28.44A2.58,2.58,0,0,0,50,30l8,29.31c0,.13,0,.26,0,.39L52.6,81.14,26.74,59.7a2.58,2.58,0,0,0-3.4,3.88L51,89.19,49.78,176v.15A5.19,5.19,0,0,0,60.15,176l-1.23-87.7L65,61.33Z" style="fill: rgb(149, 54, 3);"/>
  </g>
</svg>