<svg xmlns="http://www.w3.org/2000/svg" width="105" height="188.02" viewBox="0 0 105 188.02">
  <defs>
    <style>
      .a {
        fill: #76923e;
      }

      .b {
        fill: #324416;
      }
    </style>
  </defs>
  <title>Broken tree</title>
  <g>
    <circle class="a" cx="52.5" cy="52.5" r="52.5"/>
    <path class="b" d="M47.89,115.23c-1.26,2.53,1,6-.31,8.54-.62-3.91-3-6.34-5.41-8.43l22,69.06a.78.78,0,0,0,.05.14A5.19,5.19,0,0,0,74,181.12l-21.31-61a2.6,2.6,0,0,1-1.61,1.43C50.42,119.65,47.57,117.44,47.89,115.23Z"/>
    <path class="b" d="M80.71,49.14a2.22,2.22,0,0,0-3-1L63.41,55.27,57.77,28.9a2.58,2.58,0,0,0-5.07.92l4.53,30.05c0,.13,0,.26,0,.39L49.24,81,26.07,56.63a2.58,2.58,0,0,0-3.83,3.45L46.7,88.77,44.82,103c1.32,2.94,2.41,6.14,1.31,9.93,2.22-1.75,1.69-5.84,3.92-7.59-1.23,1.87.4,5.08.17,7.07a2.59,2.59,0,0,0,2.06-.62l2.39-23,9.19-26L80,52A2.22,2.22,0,0,0,80.71,49.14Z"/>
  </g>
</svg>
