<?xml version="1.0" encoding="utf-8"?>
<svg width="76" height="76" viewBox="0 0 76 76" xmlns="http://www.w3.org/2000/svg">
  <defs>
    <style>
      .a {
        fill: #fff;
      }
    </style>
  </defs>
  <circle style="fill: rgb(0, 101, 35);" cx="37.566" cy="38.075" r="36.349"/>
  <g style="" transform="matrix(0.141988, 0, 0, 0.141988, 1.216561, 1.726112)">
    <circle style="" cx="160" cy="192" r="32"/>
    <circle style="" cx="352" cy="192" r="32"/>
    <path style="" d="M256,416c-42.752,0-82.912-16.672-113.152-46.88c-6.24-6.24-6.24-16.384,0-22.624 s16.384-6.24,22.624,0c48.352,48.384,132.64,48.384,181.024,0c6.24-6.24,16.384-6.24,22.624,0s6.24,16.384,0,22.624 C338.912,399.328,298.752,416,256,416z"/>
  </g>
  <g style="" transform="matrix(0.141988, 0, 0, 0.141988, 1.216561, 1.726112)"/>
  <g style="" transform="matrix(0.141988, 0, 0, 0.141988, 1.216561, 1.726112)"/>
  <g style="" transform="matrix(0.141988, 0, 0, 0.141988, 1.216561, 1.726112)"/>
  <g style="" transform="matrix(0.141988, 0, 0, 0.141988, 1.216561, 1.726112)"/>
  <g style="" transform="matrix(0.141988, 0, 0, 0.141988, 1.216561, 1.726112)"/>
  <g style="" transform="matrix(0.141988, 0, 0, 0.141988, 1.216561, 1.726112)"/>
  <g style="" transform="matrix(0.141988, 0, 0, 0.141988, 1.216561, 1.726112)"/>
  <g style="" transform="matrix(0.141988, 0, 0, 0.141988, 1.216561, 1.726112)"/>
  <g style="" transform="matrix(0.141988, 0, 0, 0.141988, 1.216561, 1.726112)"/>
  <g style="" transform="matrix(0.141988, 0, 0, 0.141988, 1.216561, 1.726112)"/>
  <g style="" transform="matrix(0.141988, 0, 0, 0.141988, 1.216561, 1.726112)"/>
  <g style="" transform="matrix(0.141988, 0, 0, 0.141988, 1.216561, 1.726112)"/>
  <g style="" transform="matrix(0.141988, 0, 0, 0.141988, 1.216561, 1.726112)"/>
  <g style="" transform="matrix(0.141988, 0, 0, 0.141988, 1.216561, 1.726112)"/>
  <g style="" transform="matrix(0.141988, 0, 0, 0.141988, 1.216561, 1.726112)"/>
</svg>