<svg xmlns="http://www.w3.org/2000/svg" width="35" height="54.46" viewBox="0 0 35 54.46">
  <defs>
    <style>
      .a {
        fill: #999;
      }

      .b {
        fill: #fff;
      }
    </style>
  </defs>
  <title>Ghost tree</title>
  <g>
    <path class="a" d="M17.5,2.83A14.67,14.67,0,1,1,2.83,17.5,14.67,14.67,0,0,1,17.5,2.83M17.5,0A17.5,17.5,0,1,0,35,17.5,17.52,17.52,0,0,0,17.5,0Z"/>
    <g>
      <path class="b" d="M18.19,54A1.94,1.94,0,0,1,16.25,52L16.58,28,9,21a1.22,1.22,0,0,1,1.6-1.83l6.62,5.49,1.32-5.17-2.23-8.12a1.23,1.23,0,0,1,.12-.92,1.22,1.22,0,0,1,.74-.57,1.12,1.12,0,0,1,.32,0,1.22,1.22,0,0,1,1.15.82l2.22,6.52,3.21-2.09a1.11,1.11,0,0,1,1.33,1.78l-4,3.41-1.64,7.31L20.13,52a1.94,1.94,0,0,1-1.91,2Z"/>
      <path d="M17.51,10.29a.72.72,0,0,1,.68.49l2.43,7.13,3.74-2.45a.59.59,0,0,1,.34-.1.63.63,0,0,1,.52.28.62.62,0,0,1-.12.81L21,20l-1.7,7.53L19.64,52a1.46,1.46,0,0,1-1.43,1.47h0A1.45,1.45,0,0,1,16.74,52v0l.34-24.25L9.35,20.6a.72.72,0,0,1,0-1,.71.71,0,0,1,.52-.23.7.7,0,0,1,.46.16l7.23,6,1.53-6a.21.21,0,0,1,0-.11L16.81,11.2a.72.72,0,0,1,.51-.88.58.58,0,0,1,.19,0m0-1h0a1.76,1.76,0,0,0-.46.06,1.72,1.72,0,0,0-1,.8,1.65,1.65,0,0,0-.16,1.3l2.18,8L17,23.74l-6-5a1.76,1.76,0,0,0-1.1-.39,1.71,1.71,0,0,0-1.16,3l7.4,6.85L15.75,52v.07A2.44,2.44,0,1,0,20.63,52L20.29,27.6l1.59-7.09,3.87-3.3a1.61,1.61,0,0,0-1.05-2.84,1.65,1.65,0,0,0-.89.26l-2.66,1.75-2-5.92A1.72,1.72,0,0,0,17.51,9.3Z"/>
    </g>
  </g>
</svg>
