<svg xmlns="http://www.w3.org/2000/svg" width="310.75" height="224.86" viewBox="0 0 310.75 224.86">
  <defs>
    <style>
      .a {
        fill: #76923e;
      }

      .b, .c, .d {
        fill: none;
        stroke-linecap: round;
        stroke-miterlimit: 10;
      }

      .b, .c {
        stroke: #324416;
      }

      .b {
        stroke-width: 7.09px;
      }

      .c {
        stroke-width: 7.23px;
      }

      .d {
        stroke: #000;
        stroke-width: 1.42px;
      }
    </style>
  </defs>
  <title>100k</title>
  <g>
    <path class="a" d="M190.12,51.47A58.52,58.52,0,0,0,153,64.68a62.37,62.37,0,0,1,2.74,93.08A58.7,58.7,0,1,0,190.12,51.47Z"/>
    <path class="a" d="M112.78,55a57.24,57.24,0,0,0-39,15.22v69.1a35.6,35.6,0,0,1-2.47,13A57.49,57.49,0,1,0,112.78,55Z"/>
    <rect class="a" x="7.47" width="61.35" height="169.95" rx="30.67"/>
    <line class="b" x1="112.49" y1="95.83" x2="112.49" y2="221.04"/>
    <line class="b" x1="112.49" y1="146.22" x2="146.71" y2="119.46"/>
    <line class="b" x1="112.49" y1="125.16" x2="86.61" y2="104.44"/>
    <line class="b" x1="261.19" y1="138.52" x2="261.19" y2="221.09"/>
    <line class="b" x1="261.19" y1="188.91" x2="295.41" y2="162.15"/>
    <line class="b" x1="298.63" y1="191.82" x2="278.3" y2="175.53"/>
    <line class="b" x1="37.85" y1="35.11" x2="37.85" y2="221.04"/>
    <line class="b" x1="37.85" y1="72.76" x2="57.22" y2="57.62"/>
    <line class="b" x1="37.85" y1="105.01" x2="16.63" y2="88.03"/>
    <polyline class="c" points="190.41 93.21 190.41 141.02 190.41 221.04"/>
    <line class="c" x1="190.41" y1="123.16" x2="216.83" y2="102"/>
    <line class="d" x1="0.71" y1="224.16" x2="310.04" y2="224.16"/>
  </g>
</svg>
