<?xml version="1.0" encoding="utf-8"?>
<svg viewBox="82.862 1.648 96.91 96.91" width="96.91" height="96.91" xmlns="http://www.w3.org/2000/svg" xmlns:bx="https://boxy-svg.com">
  <circle style="fill: rgb(101, 142, 82);" cx="131.317" cy="50.103" r="48.455"/>
  <circle style="fill: rgb(114, 197, 131);" cx="37.07" cy="62.292" r="5.069" transform="matrix(2.949137, 0, 0, 2.930193, 5.611764, -141.312851)"/>
  <circle style="fill: rgb(114, 197, 131);" cx="37.07" cy="62.292" r="5.069" transform="matrix(2.949137, 0, 0, 2.930193, 39.733681, -141.353699)"/>
  <circle style="" transform="matrix(-0.831302, 0.082118, 0.093662, 0.837393, 468.587982, -460.933197)" cx="487.72265625" cy="552.453125" r="7.41719013324158"/>
  <circle style="" transform="matrix(-0.831302, 0.082118, 0.093662, 0.837393, 502.999146, -461.30661)" cx="487.72265625" cy="552.453125" r="7.41719013324158" bx:origin="0.502 0.556"/>
  <path style="" d="M 131.354 82.45 C 123.485 82.45 116.095 79.351 110.529 73.739 C 109.38 72.58 109.38 70.695 110.529 69.536 C 111.676 68.376 113.543 68.376 114.692 69.536 C 123.593 78.525 139.105 78.525 148.01 69.536 C 149.159 68.376 151.026 68.376 152.174 69.536 C 153.322 70.695 153.322 72.58 152.174 73.739 C 146.615 79.351 139.222 82.45 131.354 82.45 Z"/>
</svg>