<?xml version="1.0" encoding="UTF-8"?><svg xmlns="http://www.w3.org/2000/svg" viewBox="0 0 216 24"><defs><style>.cls-1{fill:#e1e2b0;}.cls-2{fill:#158712;}.cls-3,.cls-4,.cls-5,.cls-6,.cls-7,.cls-8,.cls-9,.cls-10,.cls-11{stroke-linecap:round;stroke-linejoin:round;}.cls-3,.cls-6,.cls-12,.cls-7,.cls-13,.cls-8,.cls-14,.cls-15,.cls-9,.cls-16,.cls-10,.cls-17,.cls-11{stroke-width:.1px;}.cls-3,.cls-6,.cls-12,.cls-7,.cls-13,.cls-15,.cls-17{stroke:#fff;}.cls-3,.cls-13,.cls-18{fill:red;}.cls-19,.cls-4,.cls-9{fill:#fff;}.cls-4,.cls-5{stroke-width:.2px;}.cls-4,.cls-5,.cls-8,.cls-14,.cls-9,.cls-16,.cls-10,.cls-11{stroke:#000;}.cls-5,.cls-14,.cls-20,.cls-10{fill:none;}.cls-21{fill:#f4c9c9;}.cls-6{fill:#fff800;}.cls-12{fill:#cd00ff;}.cls-12,.cls-13,.cls-14,.cls-15,.cls-16,.cls-17{stroke-miterlimit:10;}.cls-22{fill:#bcaf8e;}.cls-23,.cls-16{fill:#fdffe1;}.cls-24{fill:#b3fff0;}.cls-25{fill:#e2752b;}.cls-26{fill:#48bc3f;}.cls-27{fill:#fffde9;}.cls-28,.cls-7,.cls-17{fill:blue;}.cls-29{fill:#ff5f5f;}.cls-30{fill:#333;}.cls-31{fill:#969696;}.cls-32{fill:#8e7938;}.cls-33{fill:#dcfffe;}.cls-34{fill:#874f25;}.cls-35{fill:#60cc5a;}.cls-15{fill:#ff0;}.cls-36{fill:#b51c1c;}.cls-37{fill:#edf9f9;}.cls-38{fill:#dbfbfc;}.cls-39{fill:#fffbd9;}.cls-11{fill:#ff3e3e;}.cls-40{fill:#ba823e;}.cls-41{fill:#ff2727;}.cls-42{fill:#e2b700;}.cls-43{fill:#b0b0ff;}</style></defs><g id="Color"><path class="cls-27" d="M184.11,19.33V4.55c0-.53,.08-.92,.71-.92h7.35c1.18,0,2.59-.18,3.02,1.37,.22,.81-.11,1.65-.83,2.09-.81,.5-1.59,.28-2.42,.28h-2.54c-.44,0-.91-.09-.94,.52,0,.14,0,.27,0,.41,0,.45-.23,.96,.42,1.11,.45,.11,.88,.01,1.32,.01h1.33c.9,0,1.8-.29,2.21,.89,.3,.85-.33,1.74-1.23,1.76-.91,.02-1.83,0-2.74,0-.81,0-1.31-.13-1.31,.9,0,.49-.24,1.12,.52,1.16,.96,.05,1.93,0,2.89,0,1.64,0,3.05,.61,3.34,2.42,.25,1.56-.81,3.03-2.37,3.29-.97,.16-3.7,.04-4.65,.04h-2.53c-.47,0-1.55,.24-1.55-.55Z"/><path class="cls-28" d="M193.38,4.27c-1.4,0-2.8,0-4.2,0-.7,0-1.4,0-2.1,0-.35,0-1.76-.09-2.1,.26-.37,.38-.25,1.48-.25,1.88v11.35c0,.35-.09,.69,.11,1.05,.18,.31,.38,.44,.74,.44,.55,0,1.09,0,1.64,0,1.04,0,2.08,0,3.12,0,.83,0,1.64,.13,2.48-.05,.96-.2,1.68-1.01,1.77-1.99,.1-1.16-.7-2.21-1.85-2.41-.71-.12-1.4-.03-2.1-.03h-1.14c-.68,0-1.25,.06-1.59-.71-.19-.43-.1-.84-.1-1.26,0-1.69,1.34-1.35,2.51-1.35,.34,0,2.07,.09,2.42-.05,.47-.19,.58-.82,.19-1.15-.45-.39-3.91-.08-4.35-.24-.83-.3-.77-.9-.77-1.61,0-.8,0-1.46,.98-1.63,.77-.13,4.28,.24,5.08-.13,1.21-.55,.81-2.36-.52-2.36Z"/><path class="cls-19" d="M193.38,4.58h-6.3c-.24,0-1.62-.08-1.86,.16-.33,.33-.16,1.32-.16,1.66v11.54c0,.55,.05,.98,.72,.98h5.09c.73,0,1.44,.16,2.19-.12,.85-.32,1.36-1.19,1.22-2.09-.14-.92-.92-1.61-1.85-1.63-.69-.02-1.39,0-2.08,0-.35,0-.71,0-1.06,0-.36,0-.69,0-1.02-.19-.45-.26-.66-.56-.74-1.07-.06-.38-.02-.75-.02-1.13,0-.57,.16-.95,.64-1.29,.42-.3,.84-.27,1.3-.27,.48,0,.97,0,1.45,0,.48,0,.97,0,1.45,0,.18,0,.33,.01,.45-.17,.21-.32,.08-.58-.31-.58-.67,0-1.34,0-2.01,0-.86,0-2.09,.32-2.74-.69-.47-.74-.39-2.42,.37-2.98,.68-.5,2.62-.29,3.29-.29,.47,0,1.81,.12,2.3-.06,.96-.36,.7-1.78-.33-1.78Z"/><path class="cls-25" d="M193.38,4.25c1.33,0,1.72,1.81,.51,2.36-.8,.37-4.32,0-5.09,.13-.98,.17-.98,.83-.98,1.63,0,.71-.05,1.31,.79,1.61,.43,.15,3.9-.15,4.34,.24,.38,.34,.27,.96-.2,1.15-.35,.14-2.09,.05-2.42,.05-1.16,0-2.5-.33-2.5,1.36,0,.42-.09,.83,.1,1.26,.34,.77,.91,.71,1.59,.71h1.14c.7,0,1.39-.09,2.1,.03,1.15,.2,1.95,1.25,1.85,2.41-.09,.98-.81,1.79-1.77,1.99-.84,.17-1.65,.05-2.48,.05-1.04,0-2.08,0-3.12,0-.55,0-1.09,0-1.64,0-.36,0-.56-.13-.74-.44-.2-.35-.11-.69-.11-1.05V6.39c0-.4-.13-1.5,.25-1.88,.34-.34,1.74-.25,2.1-.25,.7,0,1.4,0,2.1,0,1.4,0,2.8,0,4.19,0Z"/><path class="cls-23" d="M61.77,7.37h2.07c.22,0,1.91,.07,2.12-.16,.2-.22,.14-1.51,.14-1.73,0-.25,.1-1.5-.18-1.73-.25-.22-1.47-.12-1.72-.12h-7.79c-.3,0-1.09-.15-1.35,.2-.27,.36-.1,1.67-.1,2.02v13.03c0,.5-.04,.99,.63,.99h8.19c.22,0,1.82,.07,2.05-.06,.53-.28,.27-.71,.27-1.12v-3.76c0-.46-.06-.81-.61-.81h-1.25c-.71,0-1,.04-1-.79v-3.34c0-1.19-1.25-.24-1.78-.7-.35-.3-.18-.63-.18-.97,0-.44-.15-.96,.5-.97Z"/><path class="cls-1" d="M61.77,7.06h3.27c.14,0,.7,.1,.74-.16,.1-.56,0-1.11,0-1.67v-.84c0-.53-.12-.44-.57-.44h-9.29c-.18,0-.35-.08-.54,.02-.07,.04-.09,.08-.1,.15-.14,1.68,0,3.36,0,5.04v7.53c0,.9-.1,1.8,0,2.7,0,.08,.04,.13,.12,.16,.25,.09,.49,.01,.73,.01h8.98c.58,0,.68,.14,.68-.54v-4.09c0-.28-.04-.48-.37-.48-.23,0-.46,0-.69,0-.78,0-1.8,.36-1.8-.85v-1c0-.49,0-.98,0-1.46v-.81c0-.24,.15-.59-.24-.59-.77,0-1.72,.29-1.72-.87v-.63c0-.63,0-1.18,.81-1.2Z"/><path class="cls-24" d="M61.76,6.74c-.58,.01-1.07,.46-1.12,1.04,0,.11,0,.21,0,.32v.48c0,1.04,.43,1.48,1.47,1.48,.15,0,.31,0,.46,0,.18,0,.03,.17,.03,.26v1.54c0,.34,0,.69,0,1.03,0,.16,0,.33,0,.49,0,.78,.15,1.29,1.03,1.37,.48,.05,.96,0,1.44,0,.6,0,.38,.15,.38,.6v3.84c0,.15-.15,.03-.23,.03h-9.63c-.09,0,0-.09,0-.14V4.95c0-.26-.24-.68,.21-.68h9.66c.12,0,0,.12,0,.18v2.14c0,.05,.08,.16-.02,.16-1.23,0-2.45,0-3.68,0Z"/><path class="cls-23" d="M155.29,19.28c.04,.95,1.43,.6,1.97,.6,.29,0,1.97,.1,2.23-.25,.17-.22,.13-1.52,.13-1.74v-2.32c0-.09-.14-.32,.03-.26l.15,.05c.2,.07,.41,.13,.61,.2,.41,.13,.81,.27,1.22,.4,.2,.07,.11,.83,.11,.95v2.23c0,.85,.65,.74,1.27,.74h2.01c.68,0,1.49,.21,1.49-.79v-4.02c0-1.47,.06-2.67-1.55-3.45-.31-.15-.62-.23-.96-.26-.14-.01-.32,.05-.32-.16s.17-.24,.3-.32c.58-.34,1.13-.71,1.66-1.13,.26-.21,.52-.42,.77-.65,.12-.11,.09-.86,.09-.97v-2.01c0-1.54-.93-2.5-2.48-2.5h-8.03c-1.06,0-.69,.92-.69,1.58v14.06Z"/><path class="cls-22" d="M94.87,11.86c1.03-.01,1.32,.03,1.51,.09s.27,.15,.27,.36-.08,.54-.54,.91c-.12,.13-.24,.24-.33,.35-.13,.16-.21,.28-.26,.45-.05,.17-.07,.37,.03,.55s.33,.31,.58,.41c.25,.09,.51,.13,.82,.22,.31,.09,.65,.23,.87,.37,.22,.14,.31,.28,.32,.53,0,.25-.07,.61-.24,.84s-.4,.32-.68,.38c-.28,.06-.6,.09-.9,.1s-.58,0-.81,.01c-.23,.02-.42,.08-.56,.21s-.24,.35-.41,.6c-.17,.25-.4,.53-.64,.73s-.47,.32-.71,.39c-.24,.07-.49,.09-.72,.06-.23-.03-.43-.1-.58-.22-.15-.12-.23-.3-.25-.5-.02-.2,.03-.43,.08-.7,.05-.28,.11-.61,.13-.87,.01-.26-.02-.46-.07-.61-.05-.16-.13-.28-.31-.34-.19-.06-.48-.06-.78-.01s-.6,.14-.85,.17c-.24,.03-.43,0-.57-.09-.14-.09-.24-.23-.28-.41-.04-.19-.02-.42,.08-.67,.1-.25,.28-.52,.49-.74,.21-.22,.45-.38,.62-.54,.17-.16,.25-.31,.26-.45s-.08-.28-.2-.41c-.12-.13-.28-.25-.4-.4-.12-.15-.21-.33-.23-.6-.02-.27,.02-.63,.07-.89,.05-.26,.11-.41,.29-.59,.19-.18,.5-.4,.83-.52,.32-.12,.66-.15,.97-.09,.31,.05,.6,.19,.85,.37,.25,.18,.46,.41,.6,.64,.14,.23,.21,.45,.29,.6,.08,.14,.17,.2,.34,.24s.43,.05,.7,.06c.1,0,.2,.01,.31,.02Z"/><path class="cls-2" d="M141.16,6.19c-.2,.15-.4,.3-.6,.45-.36,.28-.71,.57-.93,.81-.22,.24-.32,.42-.37,.65-.05,.22-.07,.48-.05,.7s.05,.4,.12,.55c.07,.16,.16,.29,.34,.41,.17,.12,.42,.24,.71,.26,.29,.02,.64-.04,1.19-.33,0,.08,.02,.16,.03,.23,.04,.26,.1,.48,.2,.64,.1,.16,.25,.27,.44,.36,.18,.08,.4,.14,.62,.19,.22,.04,.44,.06,.68-.06,.16-.08,.33-.23,.57-.51,.12-.14,.27-.32,.44-.54h0c.04,.3,.06,.48,.12,.64s.15,.29,.25,.4c.1,.11,.21,.2,.39,.26,.18,.06,.42,.09,.63,.1,.21,0,.39-.02,.58-.08,.19-.06,.39-.16,.91-.73,.12,.2,.24,.35,.37,.46,.27,.25,.54,.35,.82,.39,.09,.01,.18,.02,.27,.02,.18,0,.36-.02,.53-.06,.25-.05,.47-.13,.69-.3,.21-.17,.42-.43,.77-1.23,.35,.26,.54,.24,.75,.19,.21-.05,.44-.12,.66-.25,.22-.13,.44-.33,.63-.54,.19-.21,.35-.44,.46-.72,.11-.28,.16-.63,.06-.95-.1-.32-.35-.62-.7-.92-.11-.1-.23-.19-.36-.29-.17,.31-.33,.51-.59,.65-.25,.14-.6,.22-2.31,.03-.03,.3-.18,.45-.36,.57-.18,.11-.39,.18-.62,.24-.23,.06-.49,.1-.73,.1-.24,0-.47-.03-1.27-.57-.45,.38-.64,.53-.85,.62-.21,.09-.43,.12-.69,.07-.26-.05-.57-.17-1.44-.93-.2,.12-.45,.22-.7,.29-.24,.06-.47,.08-.73,.02-.27-.06-.57-.19-.92-1.27Z"/><path class="cls-2" d="M143.04,4.92c1.21,.65,1.63,.67,1.96,.65,.34-.02,.59-.07,.83-.17,.24-.09,.46-.23,.57-.31,.97,.39,1.34,.36,1.6,.33,.26-.04,.4-.08,.55-.12,.15-.05,.31-.1,.45-.17,.15-.07,.29-.16,.56-.55-.27-.13-.59-.27-.95-.43-.5-.32-.92-.47-1.3-.52,.04,.19,.07,.37,.11,.56-.21-.12-.43-.24-.64-.36-.22,.12-.44,.24-.66,.36,.04-.17,.07-.34,.11-.51-.51,.11-1,.3-1.51,.5-.57,.23-1.16,.47-1.67,.74Z"/><path class="cls-26" d="M152.37,6.39c-.28-.21-.59-.43-.89-.66-.37-.28-.73-.58-1.92-1.15-.27,.39-.41,.48-.56,.55-.15,.07-.3,.12-.45,.17-.15,.05-.29,.09-.55,.12-.26,.04-.63,.06-1.6-.33-.1,.08-.33,.21-.57,.31-.24,.09-.49,.15-.83,.17-.34,.02-.76,0-1.96-.65-.02,0-.03,.02-.05,.03-.52,.28-.93,.59-1.32,.87-.17,.13-.34,.25-.51,.38,.35,1.08,.65,1.21,.92,1.27,.27,.06,.49,.04,.73-.02,.24-.06,.5-.17,.7-.29,.87,.76,1.18,.88,1.44,.93,.26,.05,.48,.02,.69-.07,.21-.09,.4-.24,.85-.62,.79,.54,1.02,.58,1.27,.57,.24,0,.5-.05,.73-.1,.23-.06,.44-.12,.62-.24,.18-.11,.32-.27,.36-.57,1.71,.2,2.06,.12,2.31-.03,.25-.14,.41-.34,.59-.65Z"/><path class="cls-38" d="M180.76,5.62c-.15,.39-.33,.72-.63,1.02-.14,.14-.12,.28-.11,.45,.02,.33,.09,.65,.07,.98-.03,.47,.15,1.94-.41,1.26-.22-.27-.13-.59-.23-.87-.1-.28-.08-.55-.08-.83,0-.48-.43-.47-.68-.68-.08-.07-.75-.42-.88-.36-.24,.1-.16,.66-.21,.81-.07,.19-.12,.37-.16,.57-.05,.23-.3,.02-.31-.18,0-.21-.12-.92-.44-.92-.19,0-.34,.12-.54,.09-.16-.03-.3-.08-.47,0-.13,.06-.76-.05-.88-.07-.13-.02-.24-.04-.37,0-.1,.03-.19,.05-.15,.18,.15,.49-.12,.97,.11,1.47,.08,.17,.12,.32,.06,.51-.02,.07-.17,.51-.13,.6,.06,.15,.05,.3,.06,.45,.01,.35,.35,.14,.53,.18,.37,.09,.61,.41,1,.48,.24,.04,.47,.09,.72,.06,.19-.02,.37-.09,.57-.1,.21,0,.41,.06,.62,.02,.34-.06,.62-.28,.99-.28,.28,0,.52,.05,.75,.21,.84,.54,.55,1.25,.53,1.98,0,.29,.21,.56-.02,.87-.11,.16-.15-.13-.18-.24-.05-.22-.22,.03-.33,.04-.18,.01-.47-.15-.48,.16-.02,.32-.48,.42-.71,.43-.37,0-.41-.4-.72-.46-.12-.03-.23,0-.35,0-.12,0-.15-.1-.23-.14-.19-.09-.32-.01-.31,.21,.01,.15,0,.64-.06,.79-.05,.13,.03,.3-.14,.4-.44,.25-.24-.44-.16-.74,.04-.14,.18-.25,.05-.42-.11-.14-.21-.11-.35-.06-.24,.09-.42-.12-.65-.07-.23,.05-.44,0-.66-.04-.43-.09-.39,.29-.39,.6-.01,.39,0,.76,.12,1.15,.11,.31,.31,.58-.02,.87-.4,.35,.47,.26,.66,.46,.23,.25,.43-.02,.65-.03,.11,0,.22,0,.34,0,.5-.01,.97,.13,1.47,.13,.47,0,.94,0,1.41,0,.91,0,1.7,.41,1.87,1.39,.07,.41,.13,.81,.12,1.23,0,.16-.1,.21-.21,.29-.3,.22,0,.51-.13,.75-.08,.16-.1,.33-.23,.47-.16,.17-.41,.09-.34-.14,.14-.46-.47-.09-.69-.21-.36-.19-1.45-.3-1.84-.26-.17,.02-.3,.44-.34,.54-.06,.14-.22,.3-.29,.11-.07-.21,.11-.4-.03-.61-.07-.11-.62-.02-.7,0-.13,.02-.73-.05-.86,.08-.05,.05-.05,.1-.05,.16-.01,.18-.16,.11-.27,.13-.13,.03-.57,.14-.64-.07-.04-.13,.1-.1,.19-.1,.08,0,.15,.03,.22,.03,.34,.02-.25-.24-.46-.23-.2,.01-.4-.02-.61,0-.34,.04-.65,.15-.97,.26-.3,.1-.4,.46-.77,.47-.16,0-.25-.04-.28-.2-.05-.25-.23-.25-.43-.28-.25-.05-.5,.02-.75-.06-.18-.06-.29-.2-.42-.32-.11-.1-.36,.06-.36-.18V6.28c0-.31-.17-.61,.04-.94,.08-.12,.13-.25,.18-.38,.08-.2,.18-.39,.29-.58,.3-.5,.32-.31,.8-.36,.3-.03,.56-.15,.83-.25,.32-.13,.64-.13,.97-.13h4.94c.72,0,1.81-.24,2.51,.3,.52,.39,.71,1.08,.48,1.68Z"/><path class="cls-24" d="M177.78,4.34c-.56-.01-1.13-.08-1.58-.1-.45-.02-.77,0-1.33,.06-.56,.06-1.36,.16-1.92,.29-.57,.13-.9,.29-1.14,.48-.24,.2-.38,.44-.51,.91s-.25,1.18-.29,1.86c-.04,.68-.01,1.32,0,1.74,0,.41,0,.59,0,.85,0,.26-.01,.62-.01,.91,0,.3,0,.54,0,.78,0,.24,0,.47,0,.71,0,.24,0,.48,.02,.81,.03,.32,.08,.72,.08,1.12s-.07,.81-.12,1.09c-.04,.27-.05,.41-.06,.59,0,.17,0,.39,.01,.59,.02,.21,.06,.42,.16,.65,.11,.24,.28,.51,.51,.75,.23,.24,.51,.46,.75,.58,.24,.13,.44,.16,.61,.19s.29,.04,.46,.06c.16,.02,.37,.05,.59,.07,.22,.02,.45,.03,.72,.04s.58,.02,.95,.02,.81-.01,1.2-.04c.4-.02,.76-.06,1.12-.1,.36-.04,.71-.08,.97-.14s.43-.15,.55-.25c.12-.1,.19-.23,.25-.38,.05-.16,.08-.34,.06-.48-.02-.13-.09-.21-.19-.3-.1-.08-.24-.17-.41-.24-.17-.07-.38-.13-.59-.17s-.44-.06-.72-.07-.61,0-1,.01c-.39,.01-.83,.03-1.28,.02-.45,0-.91-.05-1.24-.16-.33-.11-.53-.29-.62-.54s-.07-.57-.14-.94-.23-.79-.3-1.33c-.07-.54-.05-1.19,.15-1.55,.2-.36,.58-.42,.96-.44,.39-.02,.79,0,1.13,.04,.34,.04,.6,.1,.93,.12,.33,.03,.71,.02,1.06,0,.35-.03,.66-.09,.92-.16,.25-.07,.45-.14,.56-.24,.11-.1,.12-.22,.09-.31-.03-.1-.1-.17-.2-.22-.11-.05-.25-.08-.43-.09-.18-.01-.4,0-.65,0-.24,0-.51,.02-.81,0-.3-.02-.64-.07-.98-.09-.34-.02-.68-.02-.94-.07-.26-.04-.46-.13-.69-.25-.24-.12-.52-.28-.72-.41-.2-.13-.32-.22-.4-.32-.08-.1-.11-.21-.15-.32-.04-.12-.07-.24-.09-.43-.01-.19,0-.45,0-.73s-.02-.56-.02-.82c0-.25,0-.48,.08-.7,.07-.22,.22-.43,.38-.6,.16-.17,.34-.29,.49-.42,.16-.13,.29-.27,.47-.36,.18-.09,.41-.12,.58-.15,.17-.03,.28-.06,.58-.1,.3-.04,.8-.1,1.19-.1,.39,0,.67,.04,.95,.05,.29,.02,.58,0,.8,0,.22,0,.36-.02,.56-.07,.2-.05,.45-.13,.6-.28,.15-.15,.2-.35,.21-.51,0-.15-.03-.25-.12-.33-.09-.08-.24-.14-.58-.15-.35,0-.89,.03-1.45,.02Z"/><path class="cls-40" d="M14.13,9.59c-.13,.32-.36,.36-.59,.1-.21-.23-.07-.46-.08-.7-.01-.48-.03-.95-.04-1.43-.01-.48-.03-.95-.04-1.43-.01-.47,.09-.92-.26-1.36-.09,0-.18-.01-.26,0-.13,.01-.25,.05-.37,.08-.12,.04-.24,.07-.34,.11-.1,.04-.17,.07-.28,.08-.11,.01-.26,0-.39,0-.13,0-.24-.01-.33-.03s-.16-.04-.25-.02c-.09,.01-.19,.06-.28,.11-.09,.05-.16,.09-.26,.12s-.22,.05-.37,.04c-.15,0-.32-.03-.47-.08-.15-.05-.27-.11-.35-.14-.09-.03-.14-.02-.2,.03-.06,.05-.12,.15-.18,.22-.06,.07-.12,.11-.19,.13s-.14,.02-.2,.02c-.05,0-.1,0-.16,0,.11,3.69,.22,7.38,.32,11.07,.01,.35,.02,.7,.03,1.04,0,.11-.02,.79,.07,.9,.17,.21,.36,.4,.57,.57,.79,.64,1.56,.89,2.57,.85,1.02-.04,1.76-.36,2.49-1.07,.17-.16,.33-.31,.42-.54,.06-.16,.1-.33,.21-.47,.34-.45,1.03-.42,1.32,.06-1.21-2.67-1.89-5.34-2.1-8.26Z"/><path class="cls-40" d="M16.23,17.85c.6,1.49,2.25,2.19,3.76,1.99,.63-.09,1.16-.29,1.68-.65,.25-.17,.47-.37,.67-.59,.32-.36,.2-1.46,.21-1.83,.09-3.06,.18-6.12,.27-9.18,.02-.66,.04-1.31,.06-1.97,.01-.37-.06-.66-.31-.96-.36-.42-.76-.69-1.28-.86-.79-.27-1.43-.24-2.19,.11-.81,.37-1.32,.74-1.35,1.73-.02,.78-.05,1.57-.07,2.35-.01,.39-.02,.78-.03,1.18-.01,.38-.09,.9-.53,.6-.38-.25-.29-.65-.47-.96-.23-.41-.51-.59-.99-.63-1.08-.09-1.22,.67-1.52,1.43,.21,2.92,.89,5.59,2.1,8.26Z"/><path class="cls-19" d="M22.3,5.51c0-.37-.15-.53-.53-.53s-.53,.15-.53,.53,.15,.53,.53,.53,.53-.15,.53-.53Z"/><path class="cls-19" d="M13.73,3.16c.03,.07,.07,.17,.09,.26s.02,.18,.03,.25c0,.07,.02,.11,.05,.2,.03,.09,.07,.22,.09,.34,.02,.12,.02,.23-.03,.33-.05,.1-.15,.21-.28,.25-.12,.04-.27,.02-.41,0-.14-.02-.28-.03-.41-.02-.13,.01-.25,.05-.37,.08-.12,.04-.24,.07-.34,.11-.1,.04-.17,.07-.28,.08-.11,.01-.26,0-.39,0-.13,0-.24-.01-.33-.03s-.16-.04-.25-.02c-.09,.01-.19,.06-.28,.11-.09,.05-.16,.09-.26,.12s-.22,.05-.37,.04c-.15,0-.32-.03-.47-.08-.15-.05-.27-.11-.35-.14-.09-.03-.14-.02-.2,.03-.06,.05-.12,.15-.18,.22-.06,.07-.12,.11-.19,.13s-.14,.02-.2,.02c-.06,0-.11,0-.18,0-.07,.01-.16,.04-.25,.06-.09,.01-.17,.01-.23-.03-.06-.05-.09-.14-.13-.23-.04-.09-.1-.18-.1-.27,0-.09,.05-.18,.1-.26,.05-.08,.11-.16,.13-.25,.02-.09,0-.19,.01-.3,0-.11,.04-.21,.09-.28,.05-.07,.14-.09,.23-.11,.1-.02,.21-.03,.32-.03,.12,0,.23,.01,.36,0,.13-.01,.26-.05,.41-.12,.15-.07,.31-.17,.46-.24,.15-.07,.28-.11,.43-.11,.15,0,.32,.03,.44,.07,.12,.04,.18,.08,.28,.1s.21,.03,.33,.01c.12-.01,.24-.04,.38-.12,.14-.07,.28-.19,.44-.28,.16-.09,.32-.14,.49-.16,.17-.02,.34-.01,.51-.02,.17,0,.33-.04,.45-.02,.12,.01,.21,.07,.26,.12,.05,.05,.07,.11,.1,.18Z"/><path class="cls-18" d="M13.35,2.85c-.12,0-.27,.01-.43,.02-.17,0-.34,0-.51,.02-.17,.02-.33,.08-.49,.16-.16,.09-.3,.2-.44,.28-.14,.07-.26,.11-.38,.12-.12,.01-.24,0-.33-.01s-.16-.06-.28-.1c-.12-.04-.29-.07-.44-.07-.15,0-.29,.04-.43,.11-.15,.07-.31,.17-.46,.24-.15,.07-.29,.11-.41,.12-.13,.01-.25,0-.36,0-.12,0-.23,.01-.32,.03-.06,.01-.12,.03-.16,.05-.05,0-.09,.01-.13,.03-.09,.04-.16,.11-.23,.18-.07,.07-.15,.12-.23,.21-.06,.06-.12,.14-.23,.23-.04-.05-.09-.09-.15-.13-.12-.07-.24-.11-.38-.1,0-.09,.02-.16,.04-.23,.03-.11,.07-.22,.15-.37,.08-.15,.19-.34,.29-.49,.1-.15,.18-.25,.27-.33,.09-.08,.19-.12,.29-.21,.1-.09,.21-.21,.39-.38,.18-.17,.42-.39,.64-.54,.22-.15,.41-.23,.58-.26,.16-.03,.3,0,.43,.02,.13,.02,.26,.02,.38,0s.24-.05,.34-.07c.1-.03,.17-.05,.26-.06,.09-.01,.2-.02,.43-.02,.23,0,.57,.01,.81,.04,.24,.03,.38,.07,.53,.15s.3,.19,.42,.3c.12,.11,.21,.21,.29,.33,.08,.13,.16,.28,.26,.73Z"/><path class="cls-19" d="M6.93,4.34c-.42-.26-.7-.19-.96,.23-.26,.42-.19,.7,.23,.96,.42,.26,.7,.19,.96-.23,.26-.42,.19-.7-.23-.96Z"/><circle class="cls-31" cx="21.89" cy="5.45" r=".16"/><circle class="cls-18" cx="23.21" cy="6.44" r=".36"/><path class="cls-2" d="M32.47,3.74c2.25,.68,2.23,3.31,2.55,4.94,.38,1.94,.77,3.87,1.15,5.81,.19,.96,.38,1.93,.57,2.89,.09,.47,.4,.88,.04,1.41-.3,.44-.66,.72-1.16,.91-1.1,.42-2.35,.01-2.99-.98-.41-.63,.33-2-1.01-2s-.61,1.36-1.01,2c-.64,.99-1.88,1.4-2.98,.98-.5-.19-.86-.47-1.16-.91-.36-.52-.04-.93,.05-1.4,.19-.97,.38-1.93,.58-2.9,.38-1.94,.77-3.87,1.15-5.81,.32-1.63,.31-4.27,2.54-4.95l-.16,.77c.33-.19,.67-.37,1-.56,.33,.18,.66,.37,.98,.55-.05-.26-.1-.51-.15-.77Z"/><polygon class="cls-42" points="30.87 3.39 30.63 4.51 31.64 3.95 32.62 4.5 32.4 3.4 33.24 2.62 32.11 2.49 31.63 1.45 31.16 2.49 30.03 2.62 30.87 3.39"/><path class="cls-20" d="M61.77,7.06c-.8,.02-.81,.56-.81,1.2v.63c0,1.15,.95,.87,1.72,.87,.39,0,.24,.35,.24,.59v.81c0,.49,0,.98,0,1.46v1c0,1.2,1.01,.85,1.8,.85,.23,0,.46,0,.69,0,.33,0,.37,.21,.37,.48v4.09c0,.68-.09,.54-.68,.54h-8.98c-.24,0-.48,.08-.73-.01-.08-.03-.11-.07-.12-.16-.1-.91,0-1.8,0-2.7v-7.53c0-1.68-.13-3.35,0-5.04,0-.07,.03-.12,.1-.15,.19-.1,.36-.02,.54-.02h9.29c.45,0,.57-.09,.57,.44v.84c0,.56,.1,1.1,0,1.67-.04,.25-.6,.16-.74,.16h-3.27Z"/><path class="cls-32" d="M95.88,13.47c.07-.08,.16-.16,.24-.25,.46-.36,.54-.69,.54-.91s-.08-.3-.27-.36-.48-.11-1.51-.09c-.04,.84,.24,1.28,1.01,1.61Z"/><path class="cls-32" d="M89.57,14.42c-.21,.22-.39,.49-.49,.74-.1,.25-.12,.48-.08,.67,.04,.19,.14,.33,.28,.41,.14,.09,.33,.12,.57,.09,.24-.03,.55-.12,.85-.17,.06,0,.12-.02,.19-.02,0-.81-.54-1.51-1.33-1.71Z"/><path class="cls-32" d="M91.77,17.86s-.02,.1-.03,.14c-.05,.28-.1,.5-.08,.7,.02,.2,.1,.37,.25,.5,.15,.12,.35,.2,.58,.22,.23,.03,.48,0,.72-.06,.24-.07,.48-.19,.71-.39,.08-.07,.16-.15,.24-.23,0-.01,.02-.02,.03-.03-.5-.82-1.51-1.17-2.41-.85Z"/><path class="cls-32" d="M96.89,15.17c-.69,.66-.93,1.3-.83,2.25,.09,0,.18,0,.27,0,.3,0,.62-.04,.9-.1,.28-.06,.52-.16,.68-.38s.24-.59,.24-.84c0-.25-.1-.39-.32-.53-.22-.14-.57-.28-.87-.37-.02,0-.05-.01-.07-.02Z"/><path class="cls-23" d="M94.15,18.74c1.08,1.76,3.74,1.41,4.32-.58,.22-.77,.1-4.74,.1-5.49v-4.32c0-.17-.14-.44,.15-.44h.59c.97,0,1.8,.08,2.51-.84,.57-.75,.59-1.78,.04-2.55-.67-.94-1.49-.89-2.47-.89h-5.5c-.91,0-1.78-.24-2.69,.29-1.85,1.07-1.17,3.89,.96,3.99,.41,.02,.83,0,1.24,0h.31c.15,0,.09,.13,.09,.22v3.63s.04,.01,.06,.02c.07,.02,.16,.03,.25,.03v-3.62c0-.1,.08-.6-.11-.6h-.99c-1,0-1.85,.09-2.39-1.03-.38-.79-.15-1.74,.56-2.26,.82-.6,1.63-.35,2.48-.35h5.57c.87,0,1.65-.15,2.31,.69,.55,.7,.52,1.69-.08,2.35-.79,.88-1.66,.6-2.6,.6h-.52c-.23,0-.09,.45-.09,.57v4.14c0,1.77,.11,3.55,0,5.32-.13,2.06-2.88,2.67-3.88,.86-.07,.09-.14,.17-.22,.26Z"/><path class="cls-1" d="M97.94,16.9c0,.99,0,1.78-1.11,2.22-.88,.34-1.87-.07-2.24-.93,0,.02-.02,.03-.03,.05-.05,.08-.11,.16-.18,.25,.99,1.82,3.74,1.21,3.88-.86,.12-1.78,0-3.55,0-5.32v-4.14c0-.12-.14-.57,.09-.57h.52c.93,0,1.81,.27,2.6-.6,.59-.66,.63-1.65,.08-2.35-.66-.84-1.44-.69-2.31-.69h-5.57c-.85,0-1.66-.25-2.48,.35-.71,.52-.95,1.47-.56,2.26,.54,1.12,1.39,1.03,2.39,1.03h.99c.19,0,.11,.5,.11,.6v3.62c.1,0,.2,.02,.32,.02V7.51c0-.13,0-.23-.17-.23h-1.31c-.36,0-.71,.05-1.07-.05-.59-.15-.89-.43-1.07-1.02-.2-.64,.05-1.33,.61-1.7,.61-.4,1.72-.25,2.33-.25h4.32c1.21,0,3.44-.49,3.53,1.44,.08,1.96-2.16,1.57-3.4,1.57-.1,0-.28-.11-.28,.08V15.64c.15,.12,.21,.25,.21,.46,0,.24-.07,.58-.21,.8Z"/><path class="cls-43" d="M97.94,16.9c0,.99,0,1.78-1.11,2.22-.88,.34-1.87-.07-2.24-.93,.15-.23,.25-.42,.38-.55,.14-.14,.33-.19,.56-.21,.23-.02,.51,0,.81-.01s.62-.04,.9-.1c.28-.06,.52-.16,.68-.38,0-.01,.01-.02,.02-.03Z"/><path class="cls-43" d="M97.94,15.64s-.07-.05-.1-.07c-.22-.14-.57-.28-.87-.37-.31-.09-.57-.13-.82-.22-.25-.09-.48-.23-.58-.41s-.08-.38-.03-.55c.05-.17,.13-.3,.26-.45,.09-.11,.21-.22,.33-.35,.46-.36,.54-.69,.54-.91s-.08-.3-.27-.36-.48-.11-1.51-.09c-.11,0-.21-.01-.31-.02-.04,0-.08,0-.13,0V7.51c0-.13,0-.23-.17-.23h-1.31c-.36,0-.71,.05-1.07-.05-.59-.15-.89-.43-1.07-1.02-.2-.64,.05-1.33,.61-1.7,.61-.4,1.72-.25,2.33-.25h4.32c1.21,0,3.44-.49,3.53,1.44,.08,1.96-2.16,1.57-3.4,1.57-.1,0-.28-.11-.28,.08V15.64Z"/><path class="cls-18" d="M108.38,12.69v4c0,.67,.09,1.33-.02,2-.11,.69-.7,1.19-1.4,1.19s-1.29-.5-1.4-1.19c-.11-.67-.02-1.33-.02-2v-4h2.84Z"/><path class="cls-18" d="M115.87,12.69v4c0,.67,.09,1.33-.02,2-.11,.69-.7,1.19-1.4,1.19s-1.29-.5-1.4-1.19c-.11-.67-.02-1.33-.02-2v-4h2.84Z"/><path class="cls-18" d="M113.04,10.82v-4c0-.67-.09-1.33,.02-2,.11-.69,.7-1.19,1.4-1.19s1.29,.5,1.4,1.19c.11,.67,.02,1.33,.02,2v4h-2.84Z"/><path class="cls-18" d="M105.54,10.82v-4c0-.67-.09-1.33,.02-2,.11-.69,.7-1.19,1.4-1.19s1.29,.5,1.4,1.19c.11,.67,.02,1.33,.02,2v4h-2.84Z"/><path class="cls-30" d="M108.83,11.76c0,.31-.03,.62,0,.93h-3.54c-.41,0-.46-.66-.46-.93h4Z"/><path class="cls-30" d="M116.59,11.76c0,.27-.05,.93-.46,.93h-3.54c.03-.31,0-.62,0-.93h4Z"/><path class="cls-30" d="M112.59,10.82h3.54c.41,0,.46,.66,.46,.93h-4c0-.31,.03-.62,0-.93Z"/><path class="cls-30" d="M104.82,11.76c0-.27,.05-.93,.46-.93h3.54c-.03,.31,0,.62,0,.93h-4Z"/><path class="cls-42" d="M109.22,13.05c1,0,2,.08,3.01,0,.59-.05,.36-.97,.36-1.31,0-.36,.24-1.28-.4-1.28-1,0-2-.08-3.01,0-.59,.05-.36,.97-.36,1.31,0,.36-.24,1.28,.4,1.28Z"/><rect class="cls-20" x="109.29" y="10.93" width="2.83" height="1.65"/><rect class="cls-30" x="109.29" y="10.93" width="2.83" height="1.65"/><path class="cls-2" d="M120.05,12.75c-.12,.38-.3,.67-.59,.93-.07,.06-.14,.12-.22,.17-.07,.05-.28-.01-.22,.15,.07,.17,.12,.34,.16,.52,.17,.8,.07,1.44-.33,2.15-.12,.22,.15,.21,.27,.29,.16,.1,.29,.23,.41,.39,.24,.34,.31,.66,.24,1.07-.04,.24,.16,.24,.3,.32,.16,.09,.31,.2,.45,.33,.07,.07,.53,.83,.7,.77,.41-.13,.72-.09,1.07,.17,.04,.03,.14,.17,.1,.08-.02-.04-.03-.08-.05-.12-.03-.09-.05-.17-.06-.26-.03-.19-.01-.37,.04-.56,.06-.19,.14-.35,.27-.49,.1-.12,.35-.13,.27-.37-.15-.4-.12-.71,.1-1.08,.09-.16,.21-.29,.36-.4,.14-.1-.1-.14-.15-.21-.05-.08-.1-.15-.14-.24-.18-.35-.27-.69-.27-1.09,0-.19,.02-.37,.07-.55,.02-.07,.14-.18,0-.22-.09-.03-.17-.06-.25-.11-.36-.18-.59-.42-.77-.78-.6-.02-.9-.24-1.09-.8-.24,.06-.45,.04-.68-.06Z"/><path class="cls-2" d="M123.04,12.5c.28-.11,.54-.13,.84-.07,.14,.03,.28,.07,.41,.14,.06,.03,.12,.07,.18,.11,.06,.04,.09,.24,.16,.13,.38-.6,.79-.76,1.48-.58,.14,.04,.27,.09,.39,.17,.04,.03,.12,.13,.13,.04,0-.07,.02-.13,.04-.2,.08-.29,.22-.53,.43-.74,.22-.22,.45-.35,.75-.42,.07-.02,.13-.03,.2-.04,.06,0,0-.06-.03-.08-.11-.09-.2-.2-.27-.32-.16-.28-.2-.54-.13-.85,.02-.09,.2-.3,.02-.27-.14,.03-.28,.03-.42,0-.33-.06-.54-.2-.73-.47-.04-.06-.07-.12-.1-.18-.02-.05,0-.25-.07-.16-.08,.11-.18,.2-.28,.29-.51,.42-.97,.52-1.61,.36-.14-.04-.27-.09-.4-.15-.06-.03-.12-.07-.17-.1-.08-.06-.08,.07-.1,.12-.13,.29-.32,.46-.62,.58,.22,.65-.1,1.36-.73,1.62,.48,.26,.64,.57,.62,1.1Z"/><path class="cls-2" d="M122.71,9.16c.12-.33,.29-.59,.55-.83,.16-.15-.01-.24-.09-.36-.1-.15-.16-.3-.19-.47-.08-.36-.03-.65,.16-.97,.09-.15,.2-.28,.33-.39,.07-.05,.13-.1,.21-.14,.09-.05-.07-.07-.12-.1-.69-.34-1.02-.78-1.16-1.55-.03-.17-.04-.33-.03-.5,0-.08,.01-.16,.03-.24,0-.03,.06-.15,.02-.1-.03,.03-.05,.07-.08,.1-.22,.26-.46,.49-.73,.7-.27,.21-.55,.38-.86,.52-.15,.07-.31,.13-.46,.19-.08,.03-.16,.05-.24,.07-.12,.03,.05,.12,.08,.17,.46,.66,.5,1.18,.14,1.9-.16,.32-.37,.55-.66,.74-.12,.07,.08,.11,.12,.16,.06,.06,.1,.13,.15,.2,.09,.15,.13,.3,.15,.47,.02,.17,0,.33-.05,.49-.03,.08-.06,.16-.1,.23-.03,.05-.19,.16-.07,.16,.4,0,.63,.13,.83,.48,.05-1.04,1.25-1.6,2.08-.97Z"/><circle class="cls-36" cx="121.86" cy="12.44" r="1.19"/><path class="cls-36" d="M120.73,12.82c-.2-.6,.1-1.26,.7-1.49-.39-.79-1.52-.78-1.9,.02s.34,1.68,1.2,1.47Z"/><path class="cls-36" d="M122.42,11.39c1.09-.45,1.06-2.01-.05-2.42-1.11-.41-2.14,.75-1.61,1.8,.32,.09,.52,.25,.66,.55,.36-.14,.65-.12,.99,.06Z"/><path class="cls-19" d="M126.42,3.63c-1.01,.53-1.61,1.62-1.5,2.76,.98-.03,1.81,.17,2.66,.66,.27-1.49,.89-2.5,2.1-3.42h-3.27Z"/><path class="cls-19" d="M130.62,19.22c-1.57-.1-2.95-1.05-3.61-2.48-.65,.27-1.29,.39-1.99,.38,.28,1.32,.87,2.12,2.07,2.76h3.02c.45,0,.69-.21,.5-.66Z"/><path class="cls-19" d="M123.04,5.57c0-.83,.48-1.59,1.23-1.94h-1.89c-.14,.82,.04,1.37,.65,1.94Z"/><path class="cls-19" d="M124.18,19.88c-.59-.38-.98-.83-1.27-1.48-.61,.38-.77,.79-.59,1.48h1.86Z"/><path class="cls-41" d="M119.57,17.41c0,1.52-.47,2.47,1.56,2.47-.25-.51-.58-.86-1.07-1.14-.05-.03-.35-.08-.32-.19,.04-.13,.05-.26,.05-.39,0-.28-.07-.51-.22-.75"/><path class="cls-41" d="M120.48,4.96c.75-.29,1.33-.71,1.84-1.33-.45,0-.88-.11-1.33,.16-.48,.29-.62,.61-.52,1.17Z"/><path class="cls-41" d="M124.18,19.88h2.92c-1.19-.64-1.79-1.43-2.07-2.76-.59,0-1.14-.11-1.69-.31-.51,.36-.69,1.03-.42,1.59,.28,.64,.67,1.1,1.27,1.48Z"/><path class="cls-41" d="M127.02,16.74c.65,1.43,2.04,2.38,3.61,2.48-.41-.94-.81-1.88-1.22-2.82-.23-.53-.54-.88-1.08-.44-.4,.33-.83,.59-1.31,.79Z"/><path class="cls-41" d="M127.59,7.05c.25,.14,1.07,.96,1.48,.66,.14-.1,.69-1.42,.74-1.55,.23-.53,.46-1.06,.69-1.59,.37-.85-.01-.93-.81-.93-1.21,.91-1.83,1.93-2.1,3.42Z"/><path class="cls-41" d="M124.93,6.39c-.11-1.14,.48-2.23,1.5-2.76h-2.15c-.75,.35-1.24,1.11-1.23,1.94,.12,.11,.25,.21,.39,.29,.07,.04,.14,.08,.22,.11,.09,.04-.04,.08-.09,.11-.3,.19-.47,.42-.57,.77,.63-.28,1.25-.43,1.93-.45Z"/><path class="cls-34" d="M148.88,11.45c-.09,0-.18,0-.27-.02-.28-.04-.55-.14-.82-.39-.12-.11-.25-.26-.37-.46-.51,.57-.72,.67-.91,.73-.19,.06-.37,.08-.58,.08-.21,0-.46-.04-.63-.1-.18-.06-.29-.15-.39-.26-.1-.11-.19-.25-.25-.4s-.08-.34-.12-.64h0c-.17,.22-.31,.39-.44,.54v5.12c0,1.66-.37,3.73,1.93,4.17,1.01,.19,1.64-.04,2.29-.83,.64-.77,.54-1.56,.54-2.43v-5.12Z"/><polygon class="cls-42" points="146.27 3.46 146.12 4.19 146.77 3.82 147.41 4.18 147.27 3.46 147.81 2.95 147.08 2.87 146.77 2.19 146.46 2.87 145.72 2.95 146.27 3.46"/><path class="cls-29" d="M164.54,4.27c.58,.14,.91,.41,1.16,.95,.28,.6,.16,1.17,.16,1.76,0,.35,0,.7,0,1.05,0,.34,.09,.65-.23,.92-.51,.43-1.05,.82-1.62,1.17-.59,.36-1.28,.58-.93,1.47,.2,.51,1.11,.41,1.44,.54,1.68,.64,1.34,1.91,1.34,3.25,0,.63,0,1.26,0,1.9,0,.18,.04,1.63-.12,1.81-.2,.22-1.6,.17-1.81,.17-.4,0-1.52,.25-1.58-.45-.07-.75,0-1.49,0-2.23,0-.94-.08-1.06-.98-1.36-.96-.31-2.41-1.14-2.41,.46,0,.53,0,1.05,0,1.58,0,.54,.13,1.07,0,1.62-.15,.64-1.57,.38-1.94,.38-1.18,0-1.12-.05-1.12-1.18V5.03c0-.97,.48-.78,1.21-.77,2.47,0,4.94,0,7.41,.01Z"/><path class="cls-33" d="M172.69,16.78c0,.06,0,.12,.02,.15,.03,.03,.1,.04,.14,.03,.05,0,.07-.03,.11-.03s.09,.04,.15,.05,.12,0,.16-.03c.03-.04,.03-.11,0-.18-.02-.06-.07-.12-.1-.18-.03-.06-.04-.14-.06-.19s-.05-.08-.1-.08c-.05,0-.13,.02-.19,.04s-.1,.03-.12,.07c-.02,.04,0,.1-.01,.16,0,.06-.02,.12-.02,.18Z"/><path class="cls-33" d="M176.13,18.31c0,.06,0,.12,.02,.15s.1,.04,.14,.03,.07-.03,.11-.03c.04,0,.09,.04,.15,.05s.12,0,.16-.03c.03-.04,.03-.11,0-.18-.02-.06-.07-.12-.1-.18-.03-.06-.04-.14-.06-.19-.02-.05-.05-.08-.1-.08-.05,0-.13,.02-.19,.04-.06,.02-.1,.03-.12,.07-.02,.04,0,.1-.01,.16,0,.06-.02,.12-.02,.18Z"/><path class="cls-33" d="M171.42,12.31c0,.06,0,.12,.02,.15,.03,.03,.1,.04,.14,.03s.07-.03,.11-.03c.04,0,.09,.04,.15,.05,.06,.01,.12,0,.16-.03,.03-.04,.03-.11,0-.18-.02-.06-.07-.12-.1-.18-.03-.06-.04-.14-.06-.19-.02-.05-.05-.08-.1-.08-.05,0-.13,.02-.19,.04-.06,.02-.1,.03-.12,.07-.02,.04,0,.1-.01,.16,0,.06-.02,.12-.02,.18Z"/><path class="cls-33" d="M173.38,11.77c0,.06,0,.12,.02,.15,.03,.03,.1,.04,.14,.03,.05,0,.07-.03,.11-.03,.04,0,.09,.04,.15,.05s.12,0,.16-.03c.03-.04,.03-.11,0-.18-.02-.06-.07-.12-.1-.18s-.04-.14-.06-.19c-.02-.05-.05-.08-.1-.08-.05,0-.13,.02-.19,.04-.06,.02-.1,.03-.12,.07-.02,.04,0,.1-.01,.16,0,.06-.02,.12-.02,.18Z"/><path class="cls-33" d="M173.38,5.38c0,.06,0,.12,.02,.15,.03,.03,.1,.04,.14,.03,.05,0,.07-.03,.11-.03s.09,.04,.15,.05,.12,0,.16-.03c.03-.04,.03-.11,0-.18-.02-.06-.07-.12-.1-.18-.03-.06-.04-.14-.06-.19s-.05-.08-.1-.08c-.05,0-.13,.02-.19,.04-.06,.02-.1,.03-.12,.07-.02,.04,0,.1-.01,.16,0,.06-.02,.12-.02,.18Z"/><path class="cls-33" d="M177.05,4.83s-.09,.08-.09,.12c0,.05,.04,.1,.08,.12,.04,.03,.07,.03,.1,.06,.03,.03,.04,.09,.08,.14,.03,.05,.08,.09,.14,.08,.05,0,.1-.06,.13-.12,.03-.06,.03-.13,.06-.2,.02-.07,.07-.12,.09-.17,.02-.05,.02-.09-.02-.13-.04-.04-.11-.07-.17-.1-.06-.03-.1-.05-.13-.03-.04,.01-.07,.06-.12,.1s-.1,.08-.14,.11Z"/><path class="cls-27" d="M192.8,4.58c.61,.48,.88,.99,.92,1.77-.54,.21-1.04,.06-1.56,.06-.01-.77-.25-1.31-.81-1.84h1.46Z"/><path class="cls-27" d="M193.38,4.58c.83,0,1.23,1,.64,1.58-.07-.64-.3-1.12-.75-1.58h.11Z"/><path class="cls-27" d="M190.84,4.58c.71,.47,.99,.99,1.01,1.84-.63,0-1.26,0-1.89,0-.24-.77-.63-1.33-1.25-1.84h2.14Z"/><path class="cls-27" d="M187.83,7c-.58-1-1.29-1.77-2.24-2.42,.85-.03,1.71,0,2.56,0,.74,.46,1.18,1.02,1.46,1.84-.69,0-1.28-.07-1.79,.58Z"/><path class="cls-27" d="M192.28,10.38c.66,0,.87,.79,.19,.74,.02-.28-.04-.51-.19-.74Z"/><path class="cls-27" d="M191.87,10.38c.23,.22,.3,.43,.28,.74-.21,0-.42,0-.63,0,.02-.29-.05-.51-.24-.74,.2,0,.39,0,.59,0Z"/><path class="cls-27" d="M190.8,10.38c.33,.17,.44,.38,.41,.74-.37,0-.75,0-1.12,0,.01-.28-.04-.51-.19-.74,.3,0,.6,0,.9,0Z"/><path class="cls-27" d="M187.64,7.32c-.17,.39-.17,1.79,0,2.18,.4,.89,1.04,.89,1.86,.89,.21,.22,.28,.44,.26,.74-.42,0-.83-.07-1.25,.08-.9-1.54-2-2.74-3.45-3.77v-1.38c0-.23-.06-1.11,.18-1.33,1.05,.68,1.8,1.49,2.4,2.59Z"/><path class="cls-27" d="M185.06,15.07c1.08,1.14,1.57,2.29,1.64,3.85-1.26,0-1.64,.3-1.64-1.22v-2.63Z"/><path class="cls-27" d="M185.06,10.72c1.89,2.51,3.01,5.11,3.54,8.21h-1.58c-.08-1.79-.66-3.06-1.96-4.3v-3.91Z"/><path class="cls-27" d="M189.52,15.08c.71,1.23,1,2.42,.94,3.84h-1.54c-.56-3.33-1.77-6.07-3.86-8.73v-2.37c1.32,.98,2.33,2.1,3.16,3.52-.85,.52-.8,1.64-.7,2.43,.06,.51,.26,.82,.7,1.09,.43,.26,.85,.22,1.3,.22Z"/><path class="cls-27" d="M191.82,15.08c.9,1.21,1.17,2.32,.93,3.81-.66,.13-1.31,.04-1.97,.04,.06-1.41-.21-2.61-.89-3.84,.65,0,1.29,0,1.94,0Z"/><path class="cls-27" d="M193.09,18.79c.19-1.42-.07-2.52-.87-3.71,2.22,0,2.97,2.88,.87,3.71Z"/><path class="cls-28" d="M203.34,16.12c.73,1.21,.99,2.35,.87,3.76-.33,0-.66,0-.99,0,.11-1.43-.2-2.57-1.01-3.75,.38,0,.76,0,1.14,0Z"/><path class="cls-28" d="M207.7,19.11c-.35-1.28-.95-2.25-1.95-3.13,.33-.14,.57-.34,.76-.65,1.04,.89,1.64,1.88,1.97,3.2-.24,.21-.5,.4-.78,.57Z"/><path class="cls-28" d="M210.04,13.58c-1.24-.53-2.3-.56-3.57-.12-.15-.21-.33-.37-.56-.5,1.31-.68,2.47-.82,3.9-.46,.11,.36,.18,.72,.23,1.08Z"/><path class="cls-28" d="M205.84,9.78c-.85,.93-1.32,1.9-1.52,3.14-.35,.05-.69,.07-1.04,.06,.06-1.15,.36-2.13,.95-3.12,.54-.1,1.07-.13,1.62-.08Z"/><path class="cls-28" d="M198.84,10.62c1.11-1.51,2.36-2.34,4.18-2.79-.17,.31-.21,.59-.14,.94-1.57,.53-2.53,1.36-3.27,2.84-.34-.28-.61-.56-.77-.99Z"/><path class="cls-28" d="M203.41,7.38c-1.37-.98-2.7-1.37-4.38-1.31,.26-.39,.55-.73,.9-1.04,1.79,.26,3.21,.91,4.59,2.09-.4,0-.75,0-1.1,.26Z"/><path class="cls-28" d="M205.51,3.63c.76,1.07,1.2,2.17,1.39,3.47-.36,0-.71,0-1.07,0-.17-1.4-.67-2.46-1.65-3.48h1.32Z"/><path class="cls-19" d="M202.2,16.12c.81,1.19,1.11,2.32,1.01,3.75-1.27,0-3.53,.51-4.03-1.38-.21-.78,.09-1.61,.74-2.08,.76-.55,1.5-.29,2.28-.29Z"/><path class="cls-19" d="M205.75,15.98c1,.88,1.6,1.85,1.95,3.13-1.13,.68-2.25,.77-3.5,.77,.13-1.4-.14-2.55-.87-3.76,.42,0,1.99,.04,2.42-.14Z"/><path class="cls-19" d="M210.04,13.58c.23,1.72-.15,3.72-1.56,4.95-.33-1.33-.93-2.31-1.97-3.2,.44-.69,.43-1.2-.05-1.87,1.27-.44,2.33-.41,3.57,.12Z"/><path class="cls-19" d="M209.81,12.5c-1.43-.36-2.59-.22-3.9,.46-.56-.31-1.06-.13-1.6-.05,.2-1.24,.67-2.21,1.52-3.14,.89,.08,1.66,.34,2.42,.8,.37,.22,.7,.48,1.02,.78,.34,.33,.42,.73,.54,1.14Z"/><path class="cls-19" d="M199.61,11.61c.74-1.48,1.7-2.32,3.27-2.84,.13,.63,.69,1.09,1.34,1.09-.59,.99-.89,1.97-.95,3.12-1.44-.04-2.55-.46-3.67-1.36Z"/><path class="cls-19" d="M203.02,7.83c-1.81,.45-3.07,1.29-4.18,2.79-.61-1.64-.55-2.97,.19-4.55,1.68-.06,3.01,.33,4.38,1.31-.17,.12-.29,.27-.4,.45Z"/><path class="cls-19" d="M204.19,3.63c.98,1.02,1.48,2.07,1.65,3.48-.44,0-.88,0-1.32,0-1.37-1.17-2.8-1.82-4.59-2.09,1.29-1.16,2.62-1.39,4.26-1.39Z"/><path class="cls-19" d="M205.51,3.63h2.03c.83,0,1.26,.28,1.58,1.05,.31,.77,.22,1.29-.34,1.9-.56,.61-1.18,.52-1.88,.52-.19-1.3-.63-2.4-1.39-3.47Z"/><path class="cls-21" d="M11.39,5.93c0-.37-.15-.53-.53-.53s-.53,.15-.53,.53,.15,.53,.53,.53,.53-.15,.53-.53Z"/><path class="cls-19" d="M30.97,9.55c0,.26-.01,.51-.02,.77,0,.22-.21,.58,.18,.58h1.07c.23,0,.13-.21,.12-.34,0-.27,.03-1.24-.23-1.49-.42-.4-1.12-.1-1.12,.48Z"/><path class="cls-37" d="M69.84,3.15c-.11,.05-.23,.11-.38,.25-.14,.14-.3,.36-.47,.6-.17,.23-.34,.48-.43,.82-.1,.34-.12,.77-.11,1.12s.06,.65,.17,1.02c.11,.37,.27,.83,.45,1.04s.37,.18,.6,.06c.23-.12,.5-.34,.69-.67,.18-.33,.27-.77,.35-1.11,.08-.34,.14-.57,.23-.71,.1-.14,.23-.2,.34-.2,.11,0,.21,.06,.26,.25,.05,.19,.04,.5,.06,.77,.01,.26,.05,.48,.13,.62,.09,.14,.23,.2,.37,.25,.15,.05,.3,.08,.5,.12s.44,.07,.63,.07c.19,0,.33-.06,.44-.15,.11-.09,.18-.23,.22-.38s.06-.31,.11-.46c.05-.15,.12-.27,.24-.3s.29,.05,.44,.09c.15,.05,.27,.06,.44,.02,.16-.04,.37-.12,.52-.25,.15-.12,.23-.29,.36-.47,.13-.18,.3-.38,.53-.52s.53-.21,.82-.24,.55,0,.77,.03c.22,.04,.38,.09,.54,.16,.16,.07,.31,.15,.52,.32s.51,.43,.65,.56c.15,.13,.15,.13,.2,.06,.06-.06,.16-.18,.19-.34,.02-.16-.04-.36-.1-.53-.06-.16-.13-.29-.21-.42-.08-.12-.17-.25-.26-.37-.1-.13-.2-.27-.32-.41-.13-.14-.27-.29-.46-.41-.18-.12-.4-.21-.62-.33-.23-.11-.47-.25-.65-.36s-.32-.18-.53-.24c-.21-.06-.49-.1-.74-.08-.25,.02-.45,.1-.64,.21s-.35,.24-.47,.32c-.11,.09-.18,.13-.31,.13-.13,0-.32-.05-.46-.15-.14-.09-.24-.23-.33-.36-.09-.12-.19-.23-.34-.31-.15-.08-.36-.13-.62-.13-.26,0-.58,.08-.82,.21-.24,.13-.39,.33-.5,.47-.11,.14-.17,.24-.31,.29-.14,.05-.37,.07-.61,.05-.24-.02-.51-.07-.69-.09-.18-.01-.27,.02-.38,.06Z"/><path class="cls-2" d="M78.75,12.16c.08,.15,.17,.31,.36,.6,.19,.3,.49,.74,.72,1.09,.23,.35,.38,.61,.54,.86s.34,.47,.64,.66c.29,.18,.7,.33,1.02,.4s.56,.08,.84,.14c.28,.06,.6,.17,.82,.36,.21,.19,.31,.45,.34,.74,.02,.3-.02,.62-.13,.92-.11,.3-.27,.56-.51,.74-.24,.18-.56,.27-.88,.31-.32,.04-.65,.02-.92-.02s-.48-.11-.72-.14c-.24-.03-.5-.03-.77,.06s-.56,.27-.77,.41-.35,.23-.55,.27c-.2,.04-.48,.03-.71-.07-.23-.11-.43-.31-.58-.54-.15-.23-.26-.48-.39-.75s-.29-.57-.48-.93-.42-.78-.62-1.1c-.21-.32-.39-.53-.61-.79-.19-.23-.41-.5-.63-.74,.72-.65,.99-.75,1.23-.89,.24-.13,.44-.3,.66-.44,.22-.15,.46-.28,.7-.4,.24-.12,.48-.24,.71-.37,.23-.13,.45-.26,.69-.37Z"/><path class="cls-18" d="M78.75,12.16c-.24,.11-.46,.25-.69,.37-.23,.13-.47,.24-.71,.37-.24,.12-.48,.26-.7,.4-.22,.15-.42,.31-.66,.44-.24,.13-.52,.24-1.23,.89-.03-.03-.06-.06-.08-.09-.25-.27-.5-.49-.67-1.29,1.35-.92,2.71-1.83,4.06-2.75,.09,.64,.27,.91,.4,1.12s.2,.36,.28,.52c0,0,0,0,0,.01Z"/><path class="cls-18" d="M68.41,14.02c.04,.21,.11,.43,.18,.71,.08,.35,.17,.79,.12,1.4-.05,.61-.25,1.39-.34,2.02-.09,.63-.09,1.11,.25,1.49,.35,.38,1.03,.65,1.8,.76,.77,.11,1.63,.06,2.49,.05,.86,0,1.73,.03,2.3-.14,.57-.17,.84-.56,.95-.92s.08-.7-.22-1.05c-.3-.35-.86-.71-1.27-.98-.41-.27-.67-.44-.87-.7-.21-.25-.37-.59-.46-1.06-.09-.46-.1-1.05-.12-1.51-.7,.13-1.14,.12-1.58,.12-.44,0-.9,.01-1.37,.03-.48,.02-.98,.04-1.86-.22Z"/><path class="cls-2" d="M73.23,14.09s0-.03,0-.04c0,0,0,0,0,0-.02-.46-.04-.78-.15-1-.11-.22-.31-.35-1-.38-.69-.03-1.88,.03-2.55,.07-.4,.02-.62,.04-.76,.05-.09,.01-.15,.03-.19,.04-.11,.04-.16,.12-.19,.29s-.03,.46,0,.73c0,.06,.02,.12,.03,.18,.88,.26,1.38,.24,1.86,.22,.48-.02,.93-.03,1.37-.03,.44,0,.88,0,1.58-.12Z"/><path class="cls-39" d="M73.09,7.42v2.33c0,.12,.12,.03,.18,0,.16-.05,.33-.11,.49-.17,.33-.12,.65-.24,.97-.37,.74-.3,1.37-.6,.96-1.53-.27-.62-1.3-.74-1.81-.79,0,0,0,0,0-.01,.04-.15,.06-.31,.11-.46,.05-.15,.12-.27,.24-.3s.29,.05,.44,.09c.15,.05,.27,.06,.44,.02,.16-.04,.37-.12,.52-.25,.15-.12,.23-.29,.36-.47,.13-.18,.3-.38,.53-.52s.53-.21,.82-.24,.55,0,.77,.03c.22,.04,.38,.09,.54,.16,.16,.07,.31,.15,.52,.32s.51,.43,.65,.56c.08,.07,.12,.1,.14,.12,.2,1.74-.52,3.45-1.91,4.52-1.35,.92-2.71,1.83-4.06,2.75-.35,.32-.61,.58-.78,.78-.02-.46-.04-.78-.15-1-.11-.22-.31-.35-1-.38-.69-.03-1.88,.03-2.55,.07-.4,.02-.62,.04-.76,.05V7.39c.09,.25,.2,.48,.31,.61,.18,.21,.37,.18,.6,.06,.23-.12,.5-.34,.69-.67,.18-.33,.27-.77,.35-1.11,.08-.34,.14-.57,.23-.71,.1-.14,.23-.2,.34-.2,.11,0,.21,.06,.26,.25,.05,.19,.04,.5,.06,.77,.01,.26,.05,.48,.13,.62,.09,.14,.23,.2,.37,.25,.15,.05,.3,.08,.5,.12,.15,.03,.33,.06,.49,.06Z"/><path class="cls-19" d="M73.88,6.91c-.05,.15-.12,.28-.22,.37-.11,.09-.25,.14-.44,.15-.04,0-.09,0-.13,0v2.33c0,.12,.12,.03,.18,0,.16-.05,.33-.11,.49-.17,.33-.12,.65-.24,.97-.37,.74-.3,1.37-.6,.96-1.53-.27-.62-1.3-.74-1.81-.79Z"/><path class="cls-18" d="M48.23,6.89c0-.45,.02-.85,.04-1.28,.02-.43,.02-.89,0-1.38-.06,.02-.12,.03-.18,.04-.16,.03-.37,.05-.55,.07-.18,.03-.34,.05-.42,.14-.08,.09-.08,.24-.08,.36,0,.12-.01,.22,0,.33s.02,.23,.01,.36c0,.12-.04,.25-.06,.38-.02,.13-.03,.28-.03,.42s0,.28,.02,.36c.02,.08,.04,.12,.16,.15,.12,.03,.34,.07,.54,.08,.21,0,.4,0,.54-.03,0,0,.01,0,.02,0Z"/><path class="cls-2" d="M48.23,6.89c.13-.03,.2-.06,.26-.08,.06-.02,.1-.02,.17,0s.18,.07,.33,.11c.14,.04,.33,.08,.52,.1,.19,.02,.39,.02,.61,0,.21-.02,.44-.06,.63-.12,.19-.07,.33-.16,.43-.26,.1-.1,.17-.2,.22-.32,.05-.11,.09-.24,.1-.37,0-.12-.02-.25-.08-.37-.06-.12-.15-.24-.26-.34-.1-.09-.22-.16-.36-.2s-.29-.08-.42-.1c-.13-.03-.23-.05-.3-.07-.07-.02-.11-.05-.14-.09-.02-.04-.03-.09-.01-.13,.02-.04,.05-.07,.13-.12s.19-.09,.25-.16c.07-.06,.08-.14,.07-.22s-.05-.17-.13-.25c-.07-.08-.18-.14-.3-.18s-.26-.05-.45,0-.45,.15-.63,.24c-.18,.08-.3,.14-.41,.19-.07,.03-.14,.05-.21,.07,.03,.49,.02,.95,0,1.38-.02,.43-.04,.84-.04,1.28Z"/><path class="cls-37" d="M41.46,6.8c-.74,.48-.92,.5-1.1,.47s-.35-.11-.5-.22c-.15-.11-.28-.25-.38-.88-.02-.24-.06-.42-.06-.6,0-.22,.1-.45,.27-.74,.17-.29,.43-.63,.69-.74,.26-.12,.51-.01,.79,.02,.27,.03,.57,0,.79-.06,.22-.05,.37-.1,.64-.17,.27-.07,.68-.16,.95-.2s.4-.04,.56,0c.16,.04,.34,.11,.51,.14s.34,.04,.55,.03c.2,0,.44-.03,.6,0,.17,.02,.27,.07,.34,.23,.06,.16,.09,.44,.04,.66-.05,.22-.16,.38-.23,.58-.06,.2-.08,.42-.08,.63s0,.38-.07,.52-.22,.26-.37,.32c-.14,.05-.27,.04-.42-.05-.15-.09-.33-.25-.49-.35s-.31-.13-.46-.15c-.15-.01-.32,0-.52,0-.2,.02-.43,.05-.61,0-.18-.04-.3-.15-.43-.32-.13-.17-.27-.39-.41-.41-.13-.02-.26,.16-.36,.41-.09,.25-.15,.56-.25,.88Z"/><path class="cls-18" d="M46.17,12.84c.15-.05,.3-.09,.47-.1,.27-.02,.56,0,1-.03,.43-.04,1-.15,1.27-.29,.27-.13,.24-.29,.18-.49-.06-.2-.15-.45-.21-.71-.06-.26-.1-.52-.16-.75-.06-.23-.14-.41-.3-.5s-.39-.07-.59,.02c-.19,.09-.35,.25-.62,.43-.28,.17-.67,.36-.93,.54-.26,.18-.38,.34-.5,.5-.1,.13-.2,.25-.35,.34,.43,.21,.63,.55,.75,1.04Z"/><path class="cls-18" d="M41.29,12.85c0,.19,.11,.45,.2,.69,.1,.24,.18,.45,.2,.71,.02,.25,0,.55,.06,.76,.07,.21,.24,.34,.4,.33s.31-.14,.52-.35c.21-.21,.49-.48,.77-.7,.29-.22,.58-.38,.86-.53,.19-.1,.38-.2,.56-.3-.03-.36-.07-.6-.15-.79-.08-.19-.21-.34-.53-.67-.18,0-.36-.02-.52-.03-.25-.01-.46,0-.69,0-.23,.02-.46,.05-.71,.13s-.49,.21-.68,.32-.3,.23-.31,.42Z"/><path class="cls-18" d="M46.17,12.84c-.12-.49-.31-.83-.75-1.04-.04,.02-.08,.05-.13,.07-.22,.1-.52,.13-.81,.14-.1,0-.2,0-.29,0,.32,.33,.45,.48,.53,.67,.08,.19,.12,.43,.15,.79,.09-.05,.17-.09,.26-.14,.26-.14,.5-.27,.75-.37,.09-.04,.19-.08,.28-.11Z"/><path class="cls-18" d="M45.22,13.89c.59,.69,1.24,1.28,2,1.78,.37,.25,.74,.5,1.14,.71,.18,.09,.3,.06,.44-.08,.18-.2,.35-.4,.5-.62,.14-.22,.27-.44,.38-.68,.12-.27-.21-.21-.37-.26-.43-.13-.87-.22-1.3-.35-.91-.26-1.62-.64-2.22-1.4-.16,.07-.32,.15-.48,.24-.02,.22-.05,.44-.08,.66Z"/><path class="cls-18" d="M44.29,13.78c-.08,.43-.1,.86-.32,1.27-.22,.42-.59,.64-.92,.93-.15,.13-.29,.27-.44,.4-.11,.1-.57,.27-.39,.48,.3,.34,.63,.59,1.05,.77,.59,.25,.67-.3,.89-.66,.23-.38,.42-.76,.58-1.17,.33-.83,.46-1.68,.56-2.55-.06,.03-.11,.06-.17,.09-.08,.05-.17,.09-.26,.14-.18,.1-.37,.2-.56,.3-.01,0-.02,.01-.03,.02Z"/><path class="cls-28" d="M45.79,12.99c.36,.45,.73,.84,1.28,1.07v-1.33c-.16,0-.3,0-.44,.01-.27,.02-.51,.11-.75,.21-.03,.01-.06,.03-.09,.04Z"/><path class="cls-19" d="M47.07,16.1c-.81,.9-1.67,1.37-2.86,1.57,0,.65-.14,1.24,.42,1.8,.47,.47,1.19,.55,1.76,.21,.69-.42,.69-.98,.69-1.67v-1.91Z"/><path class="cls-19" d="M46.65,13.85c.13,.09,.28,.16,.42,.22v-.64c-.13,.15-.27,.29-.42,.42Z"/><path class="cls-19" d="M46.84,15.42c-.4-.28-.76-.59-1.1-.95-.22,.12-.45,.22-.68,.3-.17,.76-.45,1.44-.85,2.11,1.09-.19,1.89-.64,2.63-1.46Z"/><path class="cls-19" d="M46.86,12.73c-.08,0-.15,0-.22,.01-.16,.02-.32,.05-.47,.1-.1,.03-.19,.07-.28,.11-.03,.01-.06,.03-.09,.04,.11,.14,.22,.27,.34,.4,.27-.2,.51-.41,.73-.66Z"/><path class="cls-19" d="M47.07,9.7c-.81,.9-1.67,1.37-2.86,1.57v.74c.09,0,.18,0,.28,0,.29,0,.59-.04,.81-.14,.05-.02,.09-.04,.13-.07,.15-.09,.25-.22,.35-.34,.13-.16,.25-.32,.5-.5,.22-.15,.54-.31,.8-.46v-.8Z"/><path class="cls-19" d="M44.21,10.49c1.24-.22,2.09-.74,2.86-1.74v-1.46c-.81,.9-1.67,1.37-2.86,1.57v1.64Z"/><path class="cls-19" d="M45.84,5.8s0,.08,0,.12c0,.2,0,.38-.07,.52s-.22,.26-.37,.32c-.14,.05-.27,.04-.42-.05-.15-.09-.33-.25-.49-.35-.02-.01-.03-.02-.05-.03-.08,.02-.15,.03-.23,.04-.84,.22-1.68,.36-2.54,.43h2.38c.21,0,.17,.16,.17,.31v.95c1.16-.21,1.98-.68,2.73-1.58,0-.05,0-.1,0-.15,0-.14,0-.29,.03-.42,.02-.13,.05-.26,.06-.38,0-.12,0-.25-.01-.36,0-.1,0-.2,0-.31-.35,.38-.74,.68-1.18,.94Z"/><path class="cls-19" d="M46.16,4.37c0,.12,0,.24-.02,.35,0,.02,0,.04-.01,.06,.17-.12,.33-.26,.48-.4h-.44Z"/><path class="cls-19" d="M42.49,5.94s-.01-.02-.02-.03c-.13-.17-.27-.39-.41-.41-.13-.02-.26,.16-.36,.41-.01,.04-.03,.07-.04,.11,.27-.02,.55-.05,.82-.09"/><path class="cls-35" d="M44.21,17.67c1.19-.2,2.05-.67,2.86-1.57v-.52c-.08-.05-.16-.1-.23-.16-.74,.83-1.54,1.27-2.63,1.46v.78Z"/><path class="cls-35" d="M45.06,14.78c.24-.08,.46-.18,.68-.3-.18-.19-.35-.38-.52-.58-.04,.3-.09,.59-.16,.88Z"/><path class="cls-35" d="M47.07,13.43v-.7c-.08,0-.15,0-.22,0-.22,.25-.46,.47-.73,.66,.16,.17,.32,.33,.52,.45,.15-.13,.29-.27,.42-.42"/><path class="cls-35" d="M44.21,11.27c1.19-.2,2.05-.67,2.86-1.57v-.96c-.77,1.01-1.62,1.52-2.86,1.74v.78Z"/><path class="cls-35" d="M46.94,6.48c-.75,.9-1.57,1.37-2.73,1.58v.78c1.19-.2,2.05-.67,2.86-1.57v-.45c-.08-.03-.1-.06-.11-.13-.01-.05-.02-.13-.02-.21Z"/><path class="cls-35" d="M45.84,5.8c.45-.25,.83-.56,1.18-.94,0,0,0-.01,0-.02,0-.12,0-.27,.08-.36,.05-.06,.13-.09,.24-.11h-.73c-.15,.15-.31,.28-.48,.4-.05,.19-.16,.34-.21,.52-.05,.16-.07,.34-.08,.5Z"/><path class="cls-35" d="M41.67,6.81c.86-.07,1.71-.21,2.54-.43,.08-.01,.15-.03,.23-.04-.14-.08-.27-.11-.41-.12-.15-.01-.32,0-.52,0-.2,.02-.43,.05-.61,0-.17-.04-.29-.14-.41-.29-.27,.04-.55,.07-.82,.09-.07,.23-.13,.5-.22,.77,.07,0,.14,.01,.21,.01Z"/></g><g id="Vector"><path class="cls-5" d="M112.59,12.69h3.74c.42-.68,.42-1.19,0-1.87h-3.74"/><line class="cls-10" x1="104.82" y1="11.76" x2="108.83" y2="11.76"/><line class="cls-10" x1="112.59" y1="11.76" x2="116.59" y2="11.76"/><rect class="cls-5" x="108.83" y="10.46" width="3.77" height="2.59" rx=".4" ry=".4"/><rect class="cls-10" x="109.29" y="10.93" width="2.83" height="1.65"/><path class="cls-7" d="M145.01,6.3c-.25,0-.35,.1-.36,.34,0,.25,.1,.35,.34,.36,.25,0,.35-.1,.36-.34,0-.25-.1-.35-.34-.36Z"/><path class="cls-6" d="M144.92,8.43c-.25,0-.35,.1-.36,.34,0,.25,.1,.35,.34,.36,.25,0,.35-.1,.36-.34,0-.25-.1-.35-.34-.36Z"/><path class="cls-7" d="M146.15,10.25c-.25,0-.35,.1-.36,.34,0,.25,.1,.35,.34,.36,.25,0,.35-.1,.36-.34,0-.25-.1-.35-.34-.36Z"/><path class="cls-6" d="M147.98,6.31c-.37,0-.52,.14-.53,.51,0,.37,.14,.52,.51,.53s.52-.14,.53-.51c0-.37-.14-.52-.51-.53Z"/><path class="cls-7" d="M150.87,7.97c-.37,0-.52,.14-.53,.51,0,.37,.14,.52,.51,.53,.37,0,.52-.14,.53-.51,0-.37-.14-.52-.51-.53Z"/><path class="cls-3" d="M146.52,5.48c-.25,0-.35,.1-.36,.34,0,.25,.1,.35,.34,.36,.25,0,.35-.1,.36-.34,0-.25-.1-.35-.34-.36Z"/><path class="cls-6" d="M143.44,5.73c-.37,0-.52,.14-.53,.51,0,.37,.14,.52,.51,.53,.37,0,.52-.14,.53-.51,0-.37-.14-.52-.51-.53Z"/><path class="cls-3" d="M149.53,5.95c-.25,0-.35,.1-.36,.34,0,.25,.1,.35,.34,.36,.25,0,.35-.1,.36-.34,0-.25-.1-.35-.34-.36Z"/><circle class="cls-3" cx="148.23" cy="9.9" r=".52"/><path class="cls-3" d="M142.47,8.69c-.37,0-.52,.14-.53,.51,0,.37,.14,.52,.51,.53,.37,0,.52-.14,.53-.51,0-.37-.14-.52-.51-.53Z"/><path class="cls-10" d="M143.04,4.92c1.21,.65,1.63,.67,1.96,.65,.34-.02,.59-.07,.83-.17,.24-.09,.46-.23,.57-.31,.97,.39,1.34,.36,1.6,.33,.26-.04,.4-.08,.55-.12,.15-.05,.31-.1,.45-.17,.15-.07,.29-.16,.56-.55"/><path class="cls-10" d="M141.16,6.19c.35,1.08,.65,1.21,.92,1.27,.27,.06,.49,.04,.73-.02,.24-.06,.5-.17,.7-.29,.87,.76,1.18,.88,1.44,.93,.26,.05,.48,.02,.69-.07,.21-.09,.4-.24,.85-.62,.79,.54,1.02,.58,1.27,.57,.24,0,.5-.05,.73-.1,.23-.06,.44-.12,.62-.24,.18-.11,.32-.27,.36-.57,1.71,.2,2.06,.12,2.31-.03,.25-.14,.41-.34,.59-.65"/><path class="cls-5" d="M144.11,10.54v6.95c0,1.32,1.07,2.38,2.38,2.38s2.38-1.07,2.38-2.38v-6.04"/><path class="cls-5" d="M147.3,3.62c.38,.06,.8,.21,1.3,.52,1.97,.86,2.42,1.23,2.87,1.58,.45,.34,.91,.65,1.26,.96,.35,.3,.6,.6,.7,.92,.1,.32,.05,.66-.06,.95-.11,.28-.27,.51-.46,.72-.19,.21-.41,.41-.63,.54-.22,.13-.45,.21-.66,.25-.21,.05-.41,.07-.75-.19-.35,.81-.55,1.07-.77,1.23-.21,.17-.44,.24-.69,.3-.25,.05-.53,.08-.8,.04-.28-.04-.55-.14-.82-.39-.12-.11-.25-.26-.37-.46-.51,.57-.72,.67-.91,.73-.19,.06-.37,.08-.58,.08-.21,0-.46-.04-.63-.1-.18-.06-.29-.15-.39-.26-.1-.11-.19-.25-.25-.4s-.08-.34-.12-.64h0c-.5,.64-.76,.92-1.01,1.04-.24,.13-.46,.1-.68,.06-.22-.04-.44-.1-.62-.19-.18-.08-.33-.19-.44-.36-.1-.16-.16-.38-.2-.64-.01-.07-.02-.14-.03-.23-.55,.29-.9,.35-1.19,.33-.29-.02-.54-.14-.71-.26-.17-.12-.27-.26-.34-.41-.07-.16-.11-.34-.12-.55s0-.48,.05-.7c.05-.22,.15-.41,.37-.65,.22-.24,.57-.53,.93-.81,.36-.28,.72-.54,1.11-.83,.39-.29,.8-.59,1.32-.87,.52-.28,1.13-.54,1.72-.77,.51-.2,1-.39,1.51-.5"/><polygon class="cls-5" points="146.27 3.46 146.12 4.19 146.77 3.82 147.41 4.18 147.27 3.46 147.81 2.95 147.08 2.87 146.77 2.19 146.46 2.87 145.72 2.95 146.27 3.46"/><path class="cls-9" d="M61.74,10.57c-.26,0-.37,.1-.38,.36s.1,.37,.36,.38c.26,0,.37-.1,.38-.36s-.1-.37-.36-.38Z"/><path class="cls-9" d="M56.85,12.92c-.37,0-.52,.14-.53,.51,0,.37,.14,.52,.51,.53,.37,0,.52-.14,.53-.51,0-.37-.14-.52-.51-.53Z"/><path class="cls-9" d="M56.84,7.13c-.26,0-.37,.1-.38,.36,0,.26,.1,.37,.36,.38,.26,0,.37-.1,.38-.36,0-.26-.1-.37-.36-.38Z"/><path class="cls-9" d="M57.66,4.54c-.26,0-.37,.1-.38,.36,0,.26,.1,.37,.36,.38,.26,0,.37-.1,.38-.36,0-.26-.1-.37-.36-.38Z"/><circle class="cls-9" cx="57.59" cy="9.5" r=".52"/><path class="cls-9" d="M59.47,8.58c-.26,0-.37,.1-.38,.36,0,.26,.1,.37,.36,.38s.37-.1,.38-.36c0-.26-.1-.37-.36-.38Z"/><path class="cls-9" d="M64.38,4.96c-.37,0-.52,.14-.53,.51,0,.37,.14,.52,.51,.53,.37,0,.52-.14,.53-.51s-.14-.52-.51-.53Z"/><path class="cls-9" d="M59.6,5.7c-.37,0-.52,.14-.53,.51,0,.37,.14,.52,.51,.53,.37,0,.52-.14,.53-.51,0-.37-.14-.52-.51-.53Z"/><path class="cls-9" d="M59.6,17.41c-.37,0-.52,.14-.53,.51,0,.37,.14,.52,.51,.53,.37,0,.52-.14,.53-.51,0-.37-.14-.52-.51-.53Z"/><path class="cls-9" d="M56.84,17.28c-.26,0-.37,.1-.38,.36,0,.26,.1,.37,.36,.38,.26,0,.37-.1,.38-.36,0-.26-.1-.37-.36-.38Z"/><path class="cls-9" d="M60.53,15.61c-.26,0-.37,.1-.38,.36s.1,.37,.36,.38c.26,0,.37-.1,.38-.36s-.1-.37-.36-.38Z"/><path class="cls-9" d="M63.54,16.57c-.37,0-.52,.14-.53,.51s.14,.52,.51,.53c.37,0,.52-.14,.53-.51s-.14-.52-.51-.53Z"/><path class="cls-9" d="M61.31,13.38c-.26,0-.37,.1-.38,.36s.1,.37,.36,.38c.26,0,.37-.1,.38-.36s-.1-.37-.36-.38Z"/><path class="cls-9" d="M58.48,14.76c-.37,0-.52,.14-.53,.51,0,.37,.14,.52,.51,.53,.37,0,.52-.14,.53-.51,0-.37-.14-.52-.51-.53Z"/><path class="cls-9" d="M60.14,11.18c-.37,0-.52,.14-.53,.51,0,.37,.14,.52,.51,.53,.37,0,.52-.14,.53-.51s-.14-.52-.51-.53Z"/><path class="cls-9" d="M57.54,11.33c-.26,0-.37,.1-.38,.36,0,.26,.1,.37,.36,.38,.26,0,.37-.1,.38-.36,0-.26-.1-.37-.36-.38Z"/><path class="cls-14" d="M61.76,6.74c-.62,.01-1.12,.52-1.12,1.14v1.04c0,.62,.5,1.13,1.12,1.14,.28,0,.56,0,.84,0v2.01c0,.52,0,1.05,0,1.57,.01,.62,.52,1.12,1.14,1.12,.57,0,1.15,0,1.72,0v4.48h-9.87V4.27h9.87v2.47c-1.23,0-2.47,0-3.7,0Z"/><path class="cls-14" d="M61.77,7.06c-.45,.01-.81,.37-.81,.82v1.04c0,.45,.36,.81,.81,.82h.97c.13,0,.18,.06,.18,.19v2.14c0,.52,0,1.04,0,1.57,.01,.45,.37,.81,.82,.81,.62,0,1.23,0,1.85,0,.13,0,.18,.06,.18,.19v4.73c0,.13-.05,.19-.18,.19h-10.14c-.13,0-.18-.06-.18-.19V4.14c0-.13,.05-.19,.18-.19h10.14c.13,0,.18,.06,.18,.19v2.73c0,.13-.05,.19-.18,.19h-3.83Z"/><path class="cls-5" d="M61.77,7.37c-.35,0-.5,.16-.5,.51v1.04c0,.35,.14,.5,.5,.51h.97c.35,0,.5,.16,.5,.51v3.7c0,.35,.16,.5,.51,.5h1.86c.35,0,.5,.16,.5,.51v4.73c0,.35-.14,.5-.5,.51h-10.15c-.35,0-.5-.16-.5-.51V4.14c0-.35,.14-.5,.5-.51h10.15c.35,0,.5,.16,.5,.51v2.73c0,.35-.14,.5-.5,.51h-3.83Z"/><path class="cls-5" d="M122.42,11.39c1.09-.45,1.06-2.01-.05-2.42-1.11-.41-2.14,.75-1.61,1.8"/><path class="cls-5" d="M121.43,11.33c-.39-.79-1.52-.78-1.9,.02s.34,1.68,1.2,1.47"/><path class="cls-10" d="M120.48,4.96c-.13-.69,.4-1.33,1.1-1.33h.74"/><path class="cls-5" d="M122.39,3.63h7.88c.39,.07,.51,.29,.35,.66-.46,1.07-.93,2.15-1.39,3.22-.16,.37-.4,.43-.72,.2-1.5-1.36-3.67-1.7-5.51-.87"/><path class="cls-5" d="M108.83,12.69h-3.74c-.42-.68-.42-1.19,0-1.87h3.74"/><path class="cls-10" d="M11.93,6.7c-.18,.56-.47,.77-1.06,.77s-.88-.21-1.06-.77"/><path class="cls-10" d="M11.39,5.93c0-.37-.15-.53-.53-.53s-.53,.15-.53,.53,.15,.53,.53,.53,.53-.15,.53-.53Z"/><path class="cls-10" d="M22.81,7.57c-.59,0-.88-.21-1.06-.77"/><circle class="cls-10" cx="23.21" cy="6.44" r=".36"/><circle class="cls-10" cx="21.89" cy="5.45" r=".16"/><path class="cls-10" d="M22.3,5.51c0-.37-.15-.53-.53-.53s-.53,.15-.53,.53,.15,.53,.53,.53,.53-.15,.53-.53Z"/><line class="cls-10" x1="21.89" y1="2.94" x2="22.63" y2="2.26"/><line class="cls-10" x1="21.91" y1="2.64" x2="21.4" y2="1.66"/><line class="cls-10" x1="21.83" y1="4.04" x2="21.99" y2="1.24"/><line class="cls-10" x1="18.05" y1="3.34" x2="18.64" y2="2.22"/><line class="cls-10" x1="17.83" y1="2.69" x2="16.59" y2="2.27"/><line class="cls-10" x1="18.4" y1="4.34" x2="17.49" y2="1.71"/><path class="cls-5" d="M32.05,6.89c.44-.21,.86-.45,1.28-.7"/><path class="cls-5" d="M28.37,8.07c1.03-.18,2.01-.46,2.97-.87"/><path class="cls-5" d="M33.97,5.75c.13-.09,.25-.18,.38-.27"/><path class="cls-5" d="M28.46,16.56c1.24-.2,2.45-.48,3.65-.84"/><path class="cls-5" d="M26.64,16.8c.35-.04,.7-.08,1.05-.13"/><path class="cls-5" d="M32.85,15.49c.56-.18,1.12-.39,1.67-.6"/><path class="cls-5" d="M35.23,14.59c.3-.13,.59-.26,.89-.4"/><path class="cls-5" d="M34.08,12.91c-.76-.21-1.49-.47-2.21-.78"/><path class="cls-5" d="M35.94,13.3c-.37-.06-.74-.12-1.11-.21"/><path class="cls-5" d="M31.17,11.8c-.67-.33-1.31-.71-1.93-1.14"/><path class="cls-5" d="M28.61,10.21c-.19-.15-.38-.3-.57-.45"/><path class="cls-4" d="M30.97,9.55c0-.47,.19-.66,.66-.66s.66,.19,.66,.66c.01,.45,.02,.9,.03,1.35h-1.39c.01-.45,.02-.9,.03-1.35Z"/><polygon class="cls-10" points="30.87 3.39 30.63 4.51 31.64 3.95 32.62 4.5 32.4 3.4 33.24 2.62 32.11 2.49 31.63 1.45 31.16 2.49 30.03 2.62 30.87 3.39"/><path class="cls-4" d="M159.61,9.82c.72-.23,1.43-.5,2.12-.8,.75-.38,.75-1.45,0-1.83-.7-.24-1.38-.34-2.12-.31v2.94Z"/><path class="cls-10" d="M96.89,15.17c-.69,.66-.93,1.3-.83,2.25"/><path class="cls-10" d="M94.18,18.71c-.5-.82-1.51-1.17-2.41-.85"/><path class="cls-10" d="M90.89,16.14c0-.81-.54-1.51-1.33-1.71"/><path class="cls-10" d="M95.88,13.47c-.77-.33-1.04-.77-1.01-1.61"/><path class="cls-10" d="M92.8,11.37c0,1.21-1.45,1.83-2.32,.99"/><path class="cls-8" d="M91.68,10.67c-.18,.15-.13,.28,0,.44s.26,.23,.44,.08c.18-.15,.13-.28,0-.44s-.26-.23-.44-.08Z"/><path class="cls-8" d="M90.7,11.15c-.18,.15-.13,.28,0,.44,.13,.16,.26,.23,.44,.08s.13-.28,0-.44c-.13-.16-.26-.23-.44-.08Z"/><path class="cls-5" d="M94.15,18.74c1.26,2.05,4.42,1.16,4.42-1.25V7.91h1.54c1.18,0,2.14-.96,2.14-2.14s-.96-2.14-2.14-2.14h-7.85c-1.18,0-2.14,.96-2.14,2.14s.96,2.14,2.14,2.14h1.54v3.85"/><path class="cls-10" d="M94.37,18.49c1.03,1.88,3.88,1.15,3.88-.99V7.59h1.86c1.01,0,1.82-.82,1.82-1.82s-.82-1.82-1.82-1.82h-7.85c-1.01,0-1.82,.82-1.82,1.82s.82,1.82,1.82,1.82h1.86v4.22"/><path class="cls-5" d="M94.87,11.86c1.03-.01,1.32,.03,1.51,.09s.27,.15,.27,.36-.08,.54-.54,.91c-.12,.13-.24,.24-.33,.35-.13,.16-.21,.28-.26,.45-.05,.17-.07,.37,.03,.55s.33,.31,.58,.41c.25,.09,.51,.13,.82,.22,.31,.09,.65,.23,.87,.37,.22,.14,.31,.28,.32,.53,0,.25-.07,.61-.24,.84s-.4,.32-.68,.38c-.28,.06-.6,.09-.9,.1s-.58,0-.81,.01c-.23,.02-.42,.08-.56,.21s-.24,.35-.41,.6c-.17,.25-.4,.53-.64,.73s-.47,.32-.71,.39c-.24,.07-.49,.09-.72,.06-.23-.03-.43-.1-.58-.22-.15-.12-.23-.3-.25-.5-.02-.2,.03-.43,.08-.7,.05-.28,.11-.61,.13-.87,.01-.26-.02-.46-.07-.61-.05-.16-.13-.28-.31-.34-.19-.06-.48-.06-.78-.01s-.6,.14-.85,.17c-.24,.03-.43,0-.57-.09-.14-.09-.24-.23-.28-.41-.04-.19-.02-.42,.08-.67,.1-.25,.28-.52,.49-.74,.21-.22,.45-.38,.62-.54,.17-.16,.25-.31,.26-.45s-.08-.28-.2-.41c-.12-.13-.28-.25-.4-.4-.12-.15-.21-.33-.23-.6-.02-.27,.02-.63,.07-.89,.05-.26,.11-.41,.29-.59,.19-.18,.5-.4,.83-.52,.32-.12,.66-.15,.97-.09,.31,.05,.6,.19,.85,.37,.25,.18,.46,.41,.6,.64,.14,.23,.21,.45,.29,.6,.08,.14,.17,.2,.34,.24s.43,.05,.7,.06c.1,0,.2,.01,.31,.02Z"/><path class="cls-10" d="M94.58,18.19c.76,1.74,3.35,1.2,3.35-.7v-.59"/><path class="cls-10" d="M97.94,15.64V7.28h2.18c.83,0,1.51-.67,1.51-1.51s-.67-1.51-1.51-1.51h-7.85c-.83,0-1.51,.67-1.51,1.51s.67,1.51,1.51,1.51h2.18v4.56"/><path class="cls-9" d="M92.65,5.15c-.08-.23-.21-.29-.44-.21-.23,.08-.29,.21-.21,.44s.21,.29,.44,.21c.23-.08,.29-.21,.21-.44Z"/><path class="cls-9" d="M94.93,6.39c.09-.36-.03-.55-.39-.63-.36-.09-.55,.03-.63,.39s.03,.55,.39,.63c.36,.09,.55-.03,.63-.39Z"/><path class="cls-5" d="M115.87,10.82V5.05c0-.78-.63-1.42-1.42-1.42s-1.42,.63-1.42,1.42v5.77"/><path class="cls-5" d="M115.87,12.69v5.77c0,.78-.63,1.42-1.42,1.42s-1.42-.63-1.42-1.42v-5.77"/><path class="cls-5" d="M105.54,12.69v5.77c0,.78,.63,1.42,1.42,1.42s1.42-.63,1.42-1.42v-5.77"/><path class="cls-5" d="M105.54,10.82V5.05c0-.78,.63-1.42,1.42-1.42s1.42,.63,1.42,1.42v5.77"/><path class="cls-5" d="M204.22,9.86c-.76,0-1.37-.61-1.37-1.37s.61-1.37,1.37-1.37c1.25,0,2.49-.01,3.74-.02,1.73-.51,1.73-2.96,0-3.47h-4.89c-1.64,.17-3.12,1.07-4.03,2.44-.74,1.59-.74,3.42,0,5.01,1.56,1.64,3.89,2.28,6.06,1.67,.93,0,1.68,.75,1.68,1.68s-.75,1.68-1.68,1.68c-1.53,0-3.05,0-4.58,0-1.87,.55-1.87,3.2,0,3.75,1.63,0,3.26,0,4.89,0,1.64-.17,3.12-1.06,4.03-2.44,.88-1.87,.88-4.04,0-5.92-1.34-1.41-3.31-2.04-5.22-1.67Z"/><path class="cls-5" d="M32.47,3.74c1.03,.31,1.8,1.16,2.01,2.21,.83,4.17,1.66,8.35,2.48,12.52,0,.01,0,.03,0,.04-.93,1.81-3.51,1.81-4.44,0l-.02-.94c-.03-1.16-1.71-1.16-1.74,0l-.02,.94c-.93,1.81-3.51,1.81-4.44,0,.83-4.19,1.66-8.37,2.49-12.56,.21-1.05,.98-1.9,2-2.21"/><path class="cls-10" d="M202.2,16.12c.81,1.19,1.11,2.32,1.01,3.76"/><path class="cls-10" d="M203.34,16.12c.73,1.21,.99,2.35,.87,3.76"/><path class="cls-10" d="M205.75,15.98c1,.88,1.6,1.85,1.95,3.13"/><path class="cls-10" d="M206.51,15.33c1.04,.89,1.64,1.88,1.97,3.2"/><path class="cls-10" d="M206.47,13.46c1.27-.44,2.33-.41,3.57,.12"/><path class="cls-10" d="M205.91,12.96c1.31-.68,2.47-.82,3.9-.46"/><path class="cls-10" d="M204.31,12.91c.2-1.24,.67-2.21,1.52-3.14"/><path class="cls-10" d="M203.27,12.97c.06-1.15,.36-2.13,.95-3.12"/><path class="cls-10" d="M202.88,8.77c-1.57,.53-2.53,1.36-3.27,2.84"/><path class="cls-10" d="M203.02,7.83c-1.81,.45-3.07,1.29-4.18,2.79"/><path class="cls-10" d="M203.41,7.38c-1.37-.98-2.7-1.37-4.38-1.31"/><path class="cls-10" d="M199.93,5.03c1.79,.26,3.21,.91,4.59,2.09"/><path class="cls-10" d="M204.19,3.63c.98,1.02,1.48,2.07,1.65,3.48"/><path class="cls-5" d="M120.05,12.75c-.18,.59-.48,.95-1.03,1.24,.44,1.05,.37,1.84-.24,2.81,.75,.23,1.17,1.03,.95,1.78,.67,.27,1.08,.65,1.4,1.3,.51-.21,.86-.15,1.26,.22-.28-.62-.06-1.34,.52-1.7-.26-.56-.08-1.23,.42-1.59-.64-.73-.76-1.36-.44-2.28-.53-.15-.84-.41-1.08-.91"/><path class="cls-11" d="M192.5,5.77s.04-.06,0-.1c-.03-.04-.06-.04-.1,0-.04,.03-.04,.06,0,.1,.03,.04,.06,.04,.1,0Z"/><path class="cls-11" d="M190.63,5.18c.06-.13,.03-.21-.1-.28-.13-.06-.21-.03-.28,.1-.06,.13-.03,.21,.1,.28,.13,.06,.21,.03,.28-.1Z"/><path class="cls-10" d="M193.38,4.27c.68,0,1.24,.55,1.24,1.24s-.55,1.24-1.24,1.24c-1.43,0-2.86,0-4.29,0-.36-.02-.61,.07-.88,.31-.27,.25-.38,.5-.38,.87v.96c0,.37,.11,.62,.38,.87,.26,.24,.52,.33,.88,.31,1.14,0,2.27,0,3.41,0,.49,0,.69,.2,.69,.69s-.2,.69-.69,.69c-1.14,0-2.27,0-3.41,0-.36-.02-.61,.07-.88,.31-.27,.25-.38,.5-.38,.87v.96c0,.37,.11,.62,.38,.87,.26,.24,.52,.33,.88,.31,1.1,0,2.19,0,3.29,0,1.24,0,2.24,1,2.24,2.24s-1,2.24-2.24,2.24c-2.24,0-4.48,0-6.71,0-.26,.02-.45-.05-.64-.23-.2-.18-.28-.37-.28-.64V5.13c0-.27,.08-.45,.28-.64,.19-.18,.38-.25,.64-.23,2.57,0,5.14,0,7.71,0Z"/><path class="cls-11" d="M188.35,6.24c.04-.08,.02-.13-.06-.17-.08-.04-.13-.02-.17,.06-.04,.08-.02,.13,.06,.17,.08,.04,.13,.02,.17-.06Z"/><path class="cls-11" d="M187.5,5.26c.02-.06,.01-.09-.04-.11-.06-.02-.09-.01-.11,.04-.02,.06-.01,.09,.04,.11,.06,.02,.09,.01,.11-.04Z"/><path class="cls-11" d="M190.39,6.08c.04-.09,.02-.14-.06-.18-.09-.04-.14-.02-.18,.06-.04,.09-.02,.14,.06,.18,.09,.04,.14,.02,.18-.06Z"/><path class="cls-11" d="M193.39,5.92c.1-.13,.08-.22-.05-.32-.13-.1-.22-.08-.32,.05-.1,.13-.08,.22,.05,.32,.13,.1,.22,.08,.32-.05Z"/><path class="cls-11" d="M192.28,4.93c0-.12-.05-.17-.17-.16-.12,0-.17,.05-.16,.17,0,.12,.05,.17,.17,.16,.12,0,.17-.05,.16-.17Z"/><path class="cls-11" d="M186.09,5.95c.07-.04,.09-.08,.05-.16-.04-.07-.08-.09-.16-.05-.07,.04-.09,.08-.05,.16,.04,.07,.08,.09,.16,.05Z"/><path class="cls-11" d="M187.15,8.62c.06-.05,.06-.1,0-.16-.05-.06-.1-.06-.16,0s-.06,.1,0,.16c.05,.06,.1,.06,.16,0Z"/><path class="cls-11" d="M185.64,5.86c.08-.09,.08-.16-.01-.24-.09-.08-.16-.08-.24,.01-.08,.09-.08,.16,.01,.24,.09,.08,.16,.08,.24-.01Z"/><path class="cls-11" d="M189.4,10.55s.05-.07,.02-.11c-.03-.05-.07-.05-.11-.02-.05,.03-.05,.07-.02,.11,.03,.05,.07,.05,.11,.02Z"/><path class="cls-11" d="M190.74,10.57s.02-.07-.02-.09c-.04-.03-.07-.02-.09,.02-.03,.04-.02,.07,.02,.09,.04,.03,.07,.02,.09-.02Z"/><path class="cls-11" d="M190.38,10.7c.01-.06,0-.09-.07-.1-.06-.01-.09,0-.1,.07-.01,.06,0,.09,.07,.1,.06,.01,.09,0,.1-.07Z"/><circle class="cls-11" cx="187.06" cy="12.4" r=".12"/><circle class="cls-11" cx="187.55" cy="11.05" r=".12"/><path class="cls-11" d="M185.45,9.11c.07-.01,.1-.05,.08-.12-.01-.07-.05-.1-.12-.08-.07,.01-.1,.05-.08,.12s.05,.1,.12,.08Z"/><path class="cls-11" d="M185.46,18.14c.11-.04,.13-.1,.09-.2-.04-.11-.1-.13-.2-.09-.11,.04-.13,.1-.09,.2,.04,.11,.1,.13,.2,.09Z"/><path class="cls-11" d="M193.59,17.6c.06,.05,.1,.04,.15-.02s.04-.1-.02-.15c-.06-.05-.1-.04-.15,.02s-.04,.1,.02,.15Z"/><path class="cls-11" d="M191.96,16.55c-.07-.08-.13-.08-.2-.02s-.08,.13-.02,.2,.13,.08,.2,.02,.08-.13,.02-.2Z"/><path class="cls-11" d="M191.83,18.31c.03-.11,0-.16-.11-.19s-.16,0-.19,.11,0,.16,.11,.19,.16,0,.19-.11Z"/><path class="cls-11" d="M189.92,17.3c.09-.03,.11-.08,.07-.17s-.08-.11-.17-.07c-.09,.03-.11,.08-.07,.17s.08,.11,.17,.07Z"/><path class="cls-11" d="M187.81,17.35c.03-.09,0-.13-.08-.16-.09-.03-.13,0-.16,.08s0,.13,.08,.16,.13,0,.16-.08Z"/><path class="cls-11" d="M186.18,14.65c.13-.12,.13-.22,0-.34s-.22-.13-.34,0-.13,.22,0,.34,.22,.13,.34,0Z"/><path class="cls-10" d="M189.95,6.42c-.24-.77-.63-1.33-1.25-1.84"/><path class="cls-10" d="M187.83,7c-.58-1-1.29-1.77-2.24-2.42"/><path class="cls-10" d="M192.28,10.38c.15,.24,.21,.46,.19,.74"/><path class="cls-10" d="M191.29,10.38c.18,.23,.25,.45,.24,.74"/><path class="cls-10" d="M189.9,10.38c.14,.24,.2,.47,.19,.74"/><path class="cls-10" d="M188.51,11.21c-.9-1.54-2-2.74-3.45-3.77"/><path class="cls-10" d="M189.89,15.08c.68,1.24,.95,2.43,.89,3.84"/><path class="cls-10" d="M192.21,15.08c.81,1.18,1.07,2.29,.87,3.71"/><path class="cls-10" d="M188.92,18.93c-.56-3.33-1.77-6.07-3.86-8.73"/><path class="cls-10" d="M185.06,14.63c1.3,1.24,1.88,2.51,1.96,4.3"/><path class="cls-10" d="M191.35,4.58c.56,.53,.8,1.07,.81,1.84"/><path class="cls-10" d="M193.28,4.58c.45,.46,.67,.94,.75,1.58"/><path class="cls-10" d="M192.8,4.58c.61,.48,.88,.99,.92,1.77"/><path class="cls-10" d="M190.84,4.58c.71,.47,.99,.99,1.01,1.84"/><path class="cls-10" d="M189.62,6.42c-.28-.82-.72-1.38-1.46-1.84"/><path class="cls-10" d="M187.64,7.32c-.6-1.1-1.35-1.91-2.4-2.59"/><path class="cls-10" d="M191.87,10.38c.23,.22,.3,.43,.28,.74"/><path class="cls-10" d="M190.8,10.38c.33,.17,.44,.38,.41,.74"/><path class="cls-10" d="M189.5,10.38c.21,.22,.28,.44,.26,.74"/><path class="cls-10" d="M188.23,11.35c-.83-1.41-1.85-2.54-3.16-3.52"/><path class="cls-10" d="M185.06,15.07c1.08,1.14,1.57,2.29,1.64,3.85"/><path class="cls-10" d="M188.6,18.93c-.53-3.1-1.65-5.7-3.54-8.21"/><path class="cls-10" d="M189.52,15.08c.71,1.23,1,2.42,.94,3.84"/><path class="cls-10" d="M191.82,15.08c.9,1.21,1.17,2.32,.93,3.81"/><path class="cls-10" d="M193.38,4.58c.51,0,.92,.41,.92,.92s-.41,.92-.92,.92c-1.43,0-2.86,0-4.29,0-.45-.02-.77,.09-1.1,.4-.34,.32-.48,.64-.48,1.1v.96c0,.47,.14,.79,.48,1.1,.33,.3,.65,.42,1.1,.4,1.13,0,2.27,0,3.4,0,.26,0,.37,.11,.37,.37s-.11,.37-.37,.37c-1.13,0-2.27,0-3.4,0-.45-.02-.77,.09-1.1,.4-.34,.32-.48,.64-.48,1.1v.96c0,.47,.14,.79,.48,1.1,.33,.3,.65,.42,1.1,.4,1.09,0,2.19,0,3.28,0,1.06,0,1.92,.86,1.92,1.92s-.86,1.92-1.92,1.92h-6.73c-.41,.03-.59-.13-.59-.55V5.13c0-.41,.18-.58,.59-.55h7.73Z"/><path class="cls-5" d="M184.11,19.33V4.18c0-.41,.18-.58,.59-.55h8.68c1.03,0,1.87,.84,1.87,1.87s-.84,1.87-1.87,1.87h-4.32c-.41-.03-.59,.13-.59,.55v.96c0,.41,.18,.58,.59,.55h3.44c.73,0,1.32,.59,1.32,1.32s-.59,1.32-1.32,1.32h-3.44c-.41-.03-.59,.13-.59,.55v.96c0,.41,.18,.58,.59,.55h3.32c1.59,0,2.87,1.29,2.87,2.87s-1.29,2.87-2.87,2.87h-7.68c-.41,.03-.59-.13-.59-.55Z"/><path class="cls-10" d="M122.91,18.4c.28,.64,.67,1.1,1.27,1.48"/><path class="cls-10" d="M125.03,17.12c.28,1.32,.87,2.12,2.07,2.76"/><path class="cls-10" d="M127.02,16.74c.65,1.43,2.04,2.38,3.61,2.48"/><path class="cls-10" d="M127.59,7.05c.27-1.49,.89-2.5,2.1-3.42"/><path class="cls-10" d="M124.93,6.39c-.11-1.14,.48-2.23,1.5-2.76"/><path class="cls-10" d="M123.04,5.57c0-.83,.48-1.59,1.23-1.94"/><path class="cls-10" d="M121.56,8.95c-.13-.96-.04-1.82,.29-2.73"/><path class="cls-5" d="M122.71,9.16c.14-.39,.35-.68,.67-.93-.71-.65-.53-1.81,.34-2.23-.99-.39-1.54-1.44-1.3-2.47-.65,.84-1.39,1.32-2.41,1.6,.77,.87,.56,2.21-.42,2.82,.53,.42,.61,1.19,.18,1.71,.42-.02,.67,.11,.88,.47"/><path class="cls-10" d="M120.73,12.82c-.17,1.74,.08,3.26,.82,4.84"/><path class="cls-10" d="M122.7,11.23c1.09-.54,2.09-.68,3.28-.45"/><path class="cls-5" d="M123.15,9.77c.37-.14,.56-.35,.67-.72,.8,.58,1.91,.41,2.51-.37,.17,.61,.79,.97,1.4,.81-.29,.54-.12,1.21,.4,1.54-.79,.06-1.42,.68-1.51,1.46-.63-.51-1.56-.36-2,.32-.51-.47-.95-.55-1.59-.29"/><path class="cls-5" d="M122.32,19.88h7.95c.39-.07,.51-.29,.35-.66-.46-1.07-.93-2.15-1.39-3.22-.16-.37-.4-.43-.72-.2-1.4,1.27-3.39,1.66-5.17,1.01"/><path class="cls-10" d="M119.57,17.41v.92c-.31,.74,.23,1.56,1.03,1.56h.53"/><path class="cls-10" d="M205.51,3.63c.76,1.07,1.2,2.17,1.39,3.47"/><circle class="cls-5" cx="121.86" cy="12.44" r="1.19"/><path class="cls-16" d="M157.97,15.22c-.21-.11-.34-.07-.46,.14-.11,.21-.07,.34,.14,.46,.21,.11,.34,.07,.46-.14,.11-.21,.07-.34-.14-.46Z"/><path class="cls-16" d="M164.59,13.73c-.22-.24-.41-.24-.65-.02-.24,.22-.24,.41-.02,.65,.22,.24,.41,.24,.65,.02,.24-.22,.24-.41,.02-.65Z"/><path class="cls-16" d="M161.38,13.5c-.14-.02-.2,.02-.23,.16-.02,.14,.02,.2,.16,.23,.14,.02,.2-.02,.23-.16,.02-.14-.02-.2-.16-.23Z"/><path class="cls-16" d="M157.14,8.96c-.22-.1-.35-.05-.45,.17-.1,.22-.05,.35,.17,.45,.22,.1,.35,.05,.45-.17,.1-.22,.05-.35-.17-.45Z"/><path class="cls-16" d="M157.1,5.76c-.33,.34-.33,.62,.01,.95,.34,.33,.62,.33,.95-.01,.33-.34,.33-.62-.01-.95-.34-.33-.62-.33-.95,.01Z"/><path class="cls-16" d="M161.18,5.12c-.31,.35-.27,.87,.07,1.18,.35,.31,.87,.27,1.18-.07s.27-.87-.07-1.18-.87-.27-1.18,.07Z"/><path class="cls-16" d="M164.33,6.88c-.47-.03-.88,.32-.91,.8-.03,.47,.32,.88,.8,.91,.47,.03,.88-.32,.91-.8,.03-.47-.32-.88-.8-.91Z"/><path class="cls-16" d="M162.17,10.25c-.37-.25-.63-.2-.88,.17-.25,.37-.2,.63,.17,.88,.37,.25,.63,.2,.88-.17,.25-.37,.2-.63-.17-.88Z"/><path class="cls-16" d="M157.39,16.45c-.38-.24-.64-.19-.89,.2s-.19,.64,.2,.89,.64,.19,.89-.2c.24-.38,.19-.64-.2-.89Z"/><path class="cls-16" d="M159.2,12.75c.29-.4,.2-.95-.19-1.24-.4-.29-.95-.2-1.24,.19-.29,.4-.2,.95,.19,1.24,.4,.29,.95,.2,1.24-.19Z"/><path class="cls-16" d="M164.15,15.47c.19-.35,.12-.58-.23-.77-.35-.19-.58-.12-.77,.23-.19,.35-.12,.58,.23,.77s.58,.12,.77-.23Z"/><circle class="cls-16" cx="164.67" cy="17.63" r=".68"/><path class="cls-10" d="M164.54,4.27c.79,.19,1.34,.91,1.32,1.72,0,.92,0,1.84,0,2.76-.77,.68-1.59,1.25-2.5,1.75-.24,.13-.33,.28-.33,.56v.31c0,.46,.2,.65,.66,.63,1.13-.04,2.1,.82,2.17,1.96,0,1.58,0,3.15,0,4.73,.07,.39-.09,.58-.49,.58h-2.52c-.4,0-.56-.18-.49-.58,0-.89,0-1.79,0-2.68,0-.33-.12-.5-.44-.6-.71-.23-1.41-.46-2.12-.7-.41-.13-.83,.17-.83,.6,0,1.13,0,2.25,0,3.38,.07,.39-.09,.58-.49,.58h-2.08c-.4,0-.56-.18-.49-.58V4.74c0-.4,.18-.56,.58-.49,2.68,0,5.36,.01,8.04,.02Z"/><path class="cls-5" d="M155.29,19.28c.02,.43,.2,.6,.63,.6h3.07c.43,0,.61-.17,.63-.6v-3.97c.71,.23,1.41,.46,2.12,.7v3.28c.02,.43,.2,.6,.63,.6h3.51c.43,0,.61-.17,.63-.6v-5.34c-.08-1.48-1.34-2.63-2.82-2.58v-.31c1.03-.56,1.96-1.23,2.82-2.02v-3.04c.03-1.14-.77-2.13-1.88-2.36h-8.7c-.43,0-.61,.17-.63,.6v15.04Z"/><path class="cls-5" d="M13.11,4.77c.08,.11,.16,.22,.23,.34,.04,1.49,.09,2.99,.13,4.48,.15,.38,.5,.38,.65,0,.09-.22,.18-.44,.26-.65,.42-1.04,1.9-1.04,2.32,0,.09,.22,.18,.44,.26,.65,.15,.38,.5,.38,.65,0,.04-1.49,.09-2.99,.13-4.48,1.14-1.97,3.99-1.97,5.13,0-.13,4.43-.26,8.86-.39,13.28-1.53,1.97-4.51,1.97-6.05,0-.07-.18-.15-.36-.22-.54-.31-.51-1.05-.51-1.36,0-.07,.18-.15,.36-.22,.54-1.53,1.97-4.51,1.97-6.05,0-.13-4.32-.25-8.64-.38-12.96"/><path class="cls-10" d="M8.11,4.28c.19-.06,.19-.06,.23-.03"/><path class="cls-10" d="M8.02,4.59c.21-.03,.22-.04,.28-.16"/><path class="cls-10" d="M9.96,3.83c.04-.1,.04-.12,.03-.14-.01-.02-.03-.04-.05-.06-.02-.02-.04-.04-.06-.07-.02-.03-.05-.08-.06-.12-.01-.04-.02-.06-.03-.13"/><path class="cls-10" d="M9.21,3.82c-.04,.09-.03,.13-.02,.17,.01,.04,.02,.09,.06,.13"/><path class="cls-10" d="M9.09,4.34s-.06-.08-.09-.12c-.03-.05-.07-.1-.07-.1"/><path class="cls-10" d="M12.13,3.26c.1-.07,.1-.08,.11-.1,.01-.02,.03-.04,.17-.06"/><path class="cls-10" d="M11.46,4.66c-.11-.1-.16-.12-.18-.13-.02-.02-.02-.04-.02-.07,0-.03-.02-.08-.1-.08"/><path class="cls-10" d="M13.13,4.03c.11-.13,.14-.18,.16-.21"/><path class="cls-10" d="M12.92,3.91c.08-.08,.12-.14,.13-.18"/><path class="cls-10" d="M7.08,4.47c.11-.1,.17-.17,.23-.23,.08-.09,.16-.14,.23-.21,.07-.07,.15-.14,.23-.18,.04-.02,.08-.03,.13-.03"/><path class="cls-10" d="M13.35,2.85c-.1-.45-.18-.61-.26-.73-.08-.13-.17-.23-.29-.33-.12-.11-.27-.22-.42-.3s-.29-.12-.53-.15c-.24-.03-.58-.03-.81-.04-.23,0-.34,0-.43,.02-.09,.01-.16,.04-.26,.06-.1,.03-.22,.06-.34,.07s-.25,.02-.38,0c-.13-.02-.26-.05-.43-.02-.16,.03-.36,.11-.58,.26-.22,.15-.47,.37-.64,.54-.18,.17-.29,.3-.39,.38-.1,.09-.2,.13-.29,.21-.09,.08-.17,.18-.27,.33-.1,.15-.21,.34-.29,.49-.08,.15-.12,.26-.15,.37-.02,.07-.04,.13-.04,.23"/><path class="cls-10" d="M6.77,4.27c.03-.14,.07-.27,.11-.38,.06-.16,.12-.26,.22-.34,.11-.09,.27-.16,.37-.22,.1-.06,.15-.11,.24-.17s.2-.13,.31-.24c.11-.11,.21-.25,.29-.36,.08-.11,.12-.19,.22-.28,.1-.08,.24-.17,.46-.25s.5-.16,.74-.21c.23-.06,.41-.1,.6-.13,.19-.03,.41-.05,.63-.06,.22,0,.45,0,.65,.01,.2,.02,.37,.05,.53,.11,.16,.06,.3,.15,.42,.24,.13,.08,.24,.16,.33,.27,.1,.11,.18,.25,.2,.33"/><path class="cls-10" d="M6.93,4.34c-.42-.26-.7-.19-.96,.23-.26,.42-.19,.7,.23,.96,.42,.26,.7,.19,.96-.23,.26-.42,.19-.7-.23-.96Z"/><path class="cls-5" d="M13.73,3.16c.03,.07,.07,.17,.09,.26s.02,.18,.03,.25c0,.07,.02,.11,.05,.2,.03,.09,.07,.22,.09,.34,.02,.12,.02,.23-.03,.33-.05,.1-.15,.21-.28,.25-.12,.04-.27,.02-.41,0-.14-.02-.28-.03-.41-.02-.13,.01-.25,.05-.37,.08-.12,.04-.24,.07-.34,.11-.1,.04-.17,.07-.28,.08-.11,.01-.26,0-.39,0-.13,0-.24-.01-.33-.03s-.16-.04-.25-.02c-.09,.01-.19,.06-.28,.11-.09,.05-.16,.09-.26,.12s-.22,.05-.37,.04c-.15,0-.32-.03-.47-.08-.15-.05-.27-.11-.35-.14-.09-.03-.14-.02-.2,.03-.06,.05-.12,.15-.18,.22-.06,.07-.12,.11-.19,.13s-.14,.02-.2,.02c-.06,0-.11,0-.18,0-.07,.01-.16,.04-.25,.06-.09,.01-.17,.01-.23-.03-.06-.05-.09-.14-.13-.23-.04-.09-.1-.18-.1-.27,0-.09,.05-.18,.1-.26,.05-.08,.11-.16,.13-.25,.02-.09,0-.19,.01-.3,0-.11,.04-.21,.09-.28,.05-.07,.14-.09,.23-.11,.1-.02,.21-.03,.32-.03,.12,0,.23,.01,.36,0,.13-.01,.26-.05,.41-.12,.15-.07,.31-.17,.46-.24,.15-.07,.28-.11,.43-.11,.15,0,.32,.03,.44,.07,.12,.04,.18,.08,.28,.1s.21,.03,.33,.01c.12-.01,.24-.04,.38-.12,.14-.07,.28-.19,.44-.28,.16-.09,.32-.14,.49-.16,.17-.02,.34-.01,.51-.02,.17,0,.33-.04,.45-.02,.12,.01,.21,.07,.26,.12,.05,.05,.07,.11,.1,.18Z"/><path class="cls-10" d="M177.05,4.83s-.09,.08-.09,.12c0,.05,.04,.1,.08,.12,.04,.03,.07,.03,.1,.06,.03,.03,.04,.09,.08,.14,.03,.05,.08,.09,.14,.08,.05,0,.1-.06,.13-.12,.03-.06,.03-.13,.06-.2,.02-.07,.07-.12,.09-.17,.02-.05,.02-.09-.02-.13-.04-.04-.11-.07-.17-.1-.06-.03-.1-.05-.13-.03-.04,.01-.07,.06-.12,.1s-.1,.08-.14,.11Z"/><path class="cls-10" d="M173.38,5.38c0,.06,0,.12,.02,.15,.03,.03,.1,.04,.14,.03,.05,0,.07-.03,.11-.03s.09,.04,.15,.05,.12,0,.16-.03c.03-.04,.03-.11,0-.18-.02-.06-.07-.12-.1-.18-.03-.06-.04-.14-.06-.19s-.05-.08-.1-.08c-.05,0-.13,.02-.19,.04-.06,.02-.1,.03-.12,.07-.02,.04,0,.1-.01,.16,0,.06-.02,.12-.02,.18Z"/><path class="cls-10" d="M173.38,11.77c0,.06,0,.12,.02,.15,.03,.03,.1,.04,.14,.03,.05,0,.07-.03,.11-.03,.04,0,.09,.04,.15,.05s.12,0,.16-.03c.03-.04,.03-.11,0-.18-.02-.06-.07-.12-.1-.18s-.04-.14-.06-.19c-.02-.05-.05-.08-.1-.08-.05,0-.13,.02-.19,.04-.06,.02-.1,.03-.12,.07-.02,.04,0,.1-.01,.16,0,.06-.02,.12-.02,.18Z"/><path class="cls-10" d="M171.42,12.31c0,.06,0,.12,.02,.15,.03,.03,.1,.04,.14,.03s.07-.03,.11-.03c.04,0,.09,.04,.15,.05,.06,.01,.12,0,.16-.03,.03-.04,.03-.11,0-.18-.02-.06-.07-.12-.1-.18-.03-.06-.04-.14-.06-.19-.02-.05-.05-.08-.1-.08-.05,0-.13,.02-.19,.04-.06,.02-.1,.03-.12,.07-.02,.04,0,.1-.01,.16,0,.06-.02,.12-.02,.18Z"/><path class="cls-10" d="M172.69,16.78c0,.06,0,.12,.02,.15,.03,.03,.1,.04,.14,.03,.05,0,.07-.03,.11-.03s.09,.04,.15,.05,.12,0,.16-.03c.03-.04,.03-.11,0-.18-.02-.06-.07-.12-.1-.18-.03-.06-.04-.14-.06-.19s-.05-.08-.1-.08c-.05,0-.13,.02-.19,.04s-.1,.03-.12,.07c-.02,.04,0,.1-.01,.16,0,.06-.02,.12-.02,.18Z"/><path class="cls-10" d="M176.13,18.31c0,.06,0,.12,.02,.15s.1,.04,.14,.03,.07-.03,.11-.03c.04,0,.09,.04,.15,.05s.12,0,.16-.03c.03-.04,.03-.11,0-.18-.02-.06-.07-.12-.1-.18-.03-.06-.04-.14-.06-.19-.02-.05-.05-.08-.1-.08-.05,0-.13,.02-.19,.04-.06,.02-.1,.03-.12,.07-.02,.04,0,.1-.01,.16,0,.06-.02,.12-.02,.18Z"/><path class="cls-10" d="M177.78,4.34c.56,.01,1.1-.02,1.45-.02,.35,0,.49,.07,.58,.15,.09,.08,.13,.18,.12,.33,0,.15-.06,.36-.21,.51-.15,.15-.4,.23-.6,.28-.2,.05-.35,.06-.56,.07-.22,0-.51,.02-.8,0-.29-.02-.57-.06-.95-.05-.39,0-.89,.06-1.19,.1-.3,.04-.41,.07-.58,.1-.17,.03-.4,.06-.58,.15-.18,.09-.32,.23-.47,.36-.16,.13-.33,.25-.49,.42-.16,.17-.3,.38-.38,.6-.07,.22-.08,.44-.08,.7,0,.25,.02,.54,.02,.82s-.02,.53,0,.73c.01,.19,.05,.31,.09,.43,.04,.12,.07,.22,.15,.32,.08,.1,.2,.19,.4,.32,.2,.13,.48,.29,.72,.41,.24,.12,.43,.21,.69,.25,.26,.04,.6,.04,.94,.07,.34,.02,.68,.07,.98,.09,.3,.02,.57,.01,.81,0,.24,0,.47-.02,.65,0,.18,.01,.32,.04,.43,.09,.11,.05,.17,.12,.2,.22,.03,.1,.01,.21-.09,.31-.11,.1-.3,.17-.56,.24-.25,.07-.57,.12-.92,.16-.35,.03-.73,.03-1.06,0-.33-.03-.59-.08-.93-.12-.34-.04-.74-.06-1.13-.04-.39,.02-.76,.08-.96,.44-.2,.36-.22,1.01-.15,1.55,.07,.54,.23,.96,.3,1.33s.05,.69,.14,.94,.29,.43,.62,.54c.33,.11,.79,.15,1.24,.16,.45,0,.9,0,1.28-.02,.39-.01,.72-.02,1-.01s.5,.03,.72,.07,.42,.1,.59,.17c.17,.07,.31,.16,.41,.24,.1,.08,.17,.16,.19,.3,.02,.13-.01,.32-.06,.48-.05,.16-.12,.28-.25,.38-.12,.1-.29,.19-.55,.25s-.61,.1-.97,.14c-.36,.04-.72,.08-1.12,.1-.4,.02-.83,.04-1.2,.04s-.68-.01-.95-.02-.51-.02-.72-.04c-.22-.02-.42-.05-.59-.07-.16-.02-.29-.03-.46-.06s-.37-.06-.61-.19c-.24-.13-.52-.34-.75-.58-.23-.24-.4-.51-.51-.75-.11-.24-.15-.44-.16-.65-.02-.21-.02-.42-.01-.59,0-.17,.02-.31,.06-.59,.04-.27,.11-.68,.12-1.09s-.05-.8-.08-1.12c-.03-.32-.02-.57-.02-.81,0-.24,0-.47,0-.71,0-.24,0-.48,0-.78,0-.3,0-.65,.01-.91,0-.26,.02-.44,0-.85,0-.41-.04-1.06,0-1.74,.04-.68,.16-1.38,.29-1.86s.27-.72,.51-.91c.24-.2,.57-.36,1.14-.48,.57-.13,1.36-.23,1.92-.29,.56-.06,.88-.08,1.33-.06,.45,.02,1.02,.09,1.58,.1Z"/><path class="cls-5" d="M180.76,5.62c-.34,.88-.48,.91-.58,.98-.1,.07-.15,.16-.16,.3-.01,.14,0,.33,.03,.48,.02,.14,.04,.24,.05,.36,0,.13,0,.28-.02,.42,0,.13,0,.24,0,.39,0,.14,0,.32,0,.47,0,.15,0,.27-.04,.34-.05,.07-.15,.08-.23,.05-.08-.03-.15-.11-.19-.21-.04-.1-.05-.22-.07-.36-.02-.14-.05-.29-.1-.42-.05-.13-.12-.25-.13-.37-.01-.12,.03-.24,.05-.34,.02-.1,0-.18-.02-.25-.03-.07-.08-.14-.12-.18-.05-.05-.1-.08-.15-.12-.05-.04-.11-.09-.17-.12-.06-.03-.13-.05-.18-.09s-.1-.11-.15-.14c-.06-.04-.12-.04-.19-.06-.06-.02-.12-.05-.2-.08-.08-.04-.17-.08-.24-.1-.07-.02-.1-.01-.13,0-.03,.02-.06,.04-.08,.08-.02,.03-.04,.08-.04,.11,0,.04,0,.07,0,.15,0,.08-.02,.21-.04,.31-.02,.1-.04,.16-.07,.23-.03,.07-.07,.15-.09,.24-.02,.09-.03,.18-.04,.25s-.03,.09-.09,.08c-.06,0-.16-.06-.2-.13-.04-.08-.02-.18-.02-.29,0-.11-.02-.22-.05-.29-.03-.07-.07-.09-.09-.15-.02-.06-.03-.14-.07-.21-.04-.06-.11-.1-.18-.11-.07-.01-.15,0-.2,.02-.05,.02-.06,.04-.11,.06-.05,.02-.15,.02-.24,.01-.09-.01-.19-.04-.26-.05-.07-.02-.1-.02-.14-.01-.04,.01-.08,.04-.12,.05-.04,.02-.06,.03-.16,.02-.1,0-.28-.04-.41-.05-.13-.02-.23-.02-.31-.03-.08-.01-.15-.03-.24-.03-.09,0-.21,.04-.26,.08-.05,.04-.04,.08-.02,.14,.02,.06,.05,.15,.06,.23,.01,.08,0,.16,0,.24,0,.08-.02,.15-.02,.25,0,.09,.01,.2,.01,.3s-.01,.19,0,.27c.01,.08,.04,.16,.07,.21,.03,.05,.05,.07,.07,.13,.02,.06,.02,.14,.01,.21-.01,.07-.04,.12-.06,.2-.02,.08-.03,.2-.05,.28s-.07,.13-.07,.17c0,.04,.02,.09,.03,.13,.02,.04,.02,.09,.03,.14s.01,.09,.01,.16,0,.14,.01,.2,.07,.11,.14,.12c.07,.01,.16-.01,.24-.03,.08-.02,.16-.03,.45,.18,.39,.27,.48,.27,.62,.29,.14,.02,.34,.07,.52,.08,.18,0,.35-.02,.49-.05,.14-.03,.26-.06,.38-.06,.12,0,.25,.04,.43,.04,.18,0,.42-.06,.86-.29h.32c.76,0,1.36,.64,1.32,1.4-.03,.55-.08,.68-.09,.79,0,.11,.04,.2,.07,.28,.02,.08,.02,.14,.02,.22s0,.16-.03,.25c-.03,.08-.1,.16-.13,.2-.03,.04-.03,.05-.06,.02s-.08-.1-.09-.16c0-.06,.03-.11,.03-.16,0-.04-.04-.07-.07-.08-.03,0-.05,0-.07,.03-.02,.02-.05,.04-.09,.06-.04,.01-.11,.02-.16,.02-.05,0-.1,0-.16,0-.06,0-.13,.02-.18,.03-.05,.02-.08,.04-.09,.08,0,.05,0,.12-.04,.18s-.13,.12-.19,.16c-.06,.04-.1,.06-.2,.08-.09,.02-.24,.05-.35,.04-.11,0-.18-.05-.26-.11-.09-.06-.19-.13-.23-.19-.04-.06-.03-.1-.08-.13-.05-.03-.16-.04-.24-.05-.08,0-.13,0-.17,.01-.04,0-.06,0-.1-.03-.04-.03-.1-.09-.16-.11-.05-.02-.1,0-.14,0-.04,0-.07,.01-.1,.03-.03,.02-.05,.04-.06,.09,0,.05,.01,.11,0,.21,0,.1-.04,.24-.05,.33s-.01,.13,0,.18c0,.05,.01,.1,0,.15-.01,.04-.05,.08-.06,.11-.01,.03,0,.06,0,.1,0,.04,.02,.09,0,.13-.02,.04-.08,.07-.12,.09s-.08,.03-.11,0c-.03-.03-.07-.11-.08-.17-.01-.06,0-.1,0-.14,0-.04,.01-.07,.03-.1,.02-.03,.04-.06,.05-.09,0-.03,0-.07,0-.12,0-.05,0-.11,.03-.18,.03-.07,.09-.16,.08-.24,0-.08-.07-.16-.13-.2-.07-.04-.13-.03-.2,0-.07,.02-.14,.06-.2,.07-.06,.01-.11,0-.16-.02s-.1-.07-.17-.08c-.07-.02-.15-.01-.2,0-.05,.01-.06,.03-.1,.04-.04,0-.09,0-.23-.02-.13-.03-.34-.08-.46-.1-.12-.02-.16,0-.18,.08-.03,.08-.05,.22-.06,.36,0,.14,0,.28-.02,.4-.01,.12-.04,.21-.03,.33,0,.12,.05,.26,.12,.46,.07,.2,.16,.46,.19,.62s0,.22-.04,.27c-.04,.05-.1,.09-.14,.12-.04,.03-.06,.06-.07,.1,0,.04,.01,.09,.04,.13,.03,.04,.07,.07,.14,.09,.06,.01,.15,.01,.24,.01,.09,0,.17,0,.22,.04,.06,.04,.08,.1,.2,.19,.43-.16,.54-.13,.68-.13,.14,0,.29-.02,.51,.01,.22,.03,.52,.12,1.22,.12h1.54c.82,0,1.51,.59,1.66,1.39,.13,.73,.12,.97,.12,1.12,0,.15,0,.22-.06,.29s-.2,.13-.25,.22c-.05,.09,0,.21,.01,.32,.02,.11,.02,.2-.02,.3-.04,.1-.13,.2-.17,.28s-.05,.13-.05,.16c0,.03,0,.05-.06,.07-.05,.02-.16,.05-.23,.03-.07-.03-.09-.1-.08-.17,.01-.06,.05-.11,.04-.17-.02-.06-.09-.12-.16-.13-.07-.02-.13,0-.17,.04-.04,.03-.05,.06-.11,.07-.06,.01-.15,.01-.23-.02-.08-.03-.13-.08-.23-.12s-.23-.06-.34-.07c-.11-.01-.19,0-.37,0-.18,0-.45,0-.61-.03s-.23-.05-.29-.06c-.06,0-.12,0-.16,.05-.04,.04-.06,.12-.11,.22-.05,.1-.11,.23-.14,.31s-.02,.11-.06,.13c-.04,.02-.12,.05-.17,0s-.07-.14-.06-.24c0-.1,.04-.19,.04-.27,0-.08-.03-.15-.05-.18s-.04-.03-.15-.03c-.1,0-.29,0-.41,.01-.12,.01-.17,.03-.29,.03s-.33-.02-.46-.01c-.13,0-.2,.04-.23,.08-.04,.04-.05,.09-.05,.13,0,.04,0,.08-.08,.12s-.27,.07-.38,.08-.14,.02-.22,0c-.08-.02-.21-.06-.23-.09s.05-.08,.12-.1c.07-.02,.12,0,.18,0s.12,.03,.16,.01c.03-.01,.03-.06-.01-.1-.05-.04-.15-.08-.24-.1-.1-.02-.19-.03-.26-.03-.07,0-.12,.03-.19,.03s-.15,0-.2,0c-.06-.01-.08-.03-.14-.03s-.15,.02-.22,.03c-.07,.01-.12,.01-.19,.04-.07,.02-.16,.06-.3,.1-.14,.04-.33,.09-.46,.15-.13,.06-.2,.15-.24,.21-.03,.06-.02,.09-.08,.13-.06,.04-.18,.08-.3,.09-.12,0-.23-.01-.28-.06-.04-.05,0-.12-.05-.2-.04-.07-.16-.14-.27-.19-.11-.04-.21-.06-.35-.06-.15,0-.35,0-.49-.03-.14-.04-.23-.12-.5-.38h-.32V5.41c.17-.25,.22-.45,.3-.63,.08-.18,.19-.33,.26-.46,.07-.13,.11-.22,.2-.26,.1-.04,.26-.02,.45-.03,.19,0,.42-.03,1.25-.39h7.23c1.16,0,1.85,1.29,1.22,2.26"/><line class="cls-10" x1="177.92" y1="6.55" x2="177.79" y2="6.55"/><path class="cls-9" d="M95.93,10.93c.12-.1,.12-.19,.02-.31-.1-.12-.19-.12-.31-.02-.12,.1-.12,.19-.02,.31,.1,.12,.19,.12,.31,.02Z"/><path class="cls-9" d="M97.13,17.96c0-.08-.05-.11-.13-.1-.08,0-.11,.05-.1,.13,0,.08,.05,.11,.13,.1,.08,0,.11-.05,.1-.13Z"/><path class="cls-9" d="M95.61,18.48c.19-.13,.22-.26,.09-.46-.13-.19-.26-.22-.46-.09-.19,.13-.22,.26-.09,.46,.13,.19,.26,.22,.46,.09Z"/><path class="cls-9" d="M96.97,13.96c.13-.19,.1-.32-.09-.45s-.32-.1-.45,.09c-.13,.19-.1,.32,.09,.45,.19,.13,.32,.1,.45-.09Z"/><path class="cls-9" d="M95.08,9.46c.1-.16,.07-.26-.08-.36-.16-.1-.26-.07-.36,.08-.1,.16-.07,.26,.08,.36,.16,.1,.26,.07,.36-.08Z"/><path class="cls-9" d="M97.14,9.97c.18-.22,.16-.39-.07-.57-.22-.18-.39-.16-.57,.07-.18,.22-.16,.39,.07,.57,.22,.18,.39,.16,.57-.07Z"/><path class="cls-9" d="M96.29,7.44c.2-.28,.17-.49-.11-.69-.28-.2-.49-.17-.69,.11-.2,.28-.17,.49,.11,.69,.28,.2,.49,.17,.69-.11Z"/><circle class="cls-9" cx="95.58" cy="4.97" r=".32"/><path class="cls-9" d="M99.33,6.71c.15-.31,.09-.51-.22-.66-.31-.15-.51-.09-.66,.22-.15,.31-.09,.51,.22,.66s.51,.09,.66-.22Z"/><path class="cls-9" d="M100.63,5.13c-.06-.16-.15-.2-.31-.14-.16,.06-.2,.15-.14,.31,.06,.16,.15,.2,.31,.14,.16-.06,.2-.15,.14-.31Z"/><circle class="cls-9" cx="97.41" cy="5.67" r=".39"/><circle class="cls-17" cx="30.02" cy="8.82" r=".39"/><path class="cls-12" d="M30.18,5.95c0-.27-.11-.39-.39-.39s-.39,.11-.39,.39,.11,.39,.39,.39,.39-.11,.39-.39Z"/><path class="cls-12" d="M29.6,17.74c0-.27-.11-.39-.39-.39s-.39,.11-.39,.39,.11,.39,.39,.39,.39-.11,.39-.39Z"/><circle class="cls-13" cx="29.46" cy="15.28" r=".39"/><path class="cls-13" d="M35.09,17.28c0-.27-.11-.39-.39-.39s-.39,.11-.39,.39,.11,.39,.39,.39,.39-.11,.39-.39Z"/><path class="cls-17" d="M32.77,13.87c0-.27-.11-.39-.39-.39s-.39,.11-.39,.39,.11,.39,.39,.39,.39-.11,.39-.39Z"/><path class="cls-15" d="M29.69,13.02c0-.27-.11-.39-.39-.39s-.39,.11-.39,.39,.11,.39,.39,.39,.39-.11,.39-.39Z"/><path class="cls-15" d="M34.16,9.09c0-.27-.11-.39-.39-.39s-.39,.11-.39,.39,.11,.39,.39,.39,.39-.11,.39-.39Z"/><circle class="cls-13" cx="31.7" cy="7.05" r=".39"/><path class="cls-17" d="M34.04,5.97c0-.27-.11-.39-.39-.39s-.39,.11-.39,.39,.11,.39,.39,.39,.39-.11,.39-.39Z"/><path class="cls-13" d="M29.3,10.44c0-.27-.11-.39-.39-.39s-.39,.11-.39,.39,.11,.39,.39,.39,.39-.11,.39-.39Z"/><path class="cls-12" d="M31.9,11.97c0-.27-.11-.39-.39-.39s-.39,.11-.39,.39,.11,.39,.39,.39,.39-.11,.39-.39Z"/><circle class="cls-17" cx="34.45" cy="13" r=".39"/><path class="cls-12" d="M35.26,14.74c0-.27-.11-.39-.39-.39s-.39,.11-.39,.39,.11,.39,.39,.39,.39-.11,.39-.39Z"/><path class="cls-15" d="M32.86,15.61c0-.27-.11-.39-.39-.39s-.39,.11-.39,.39,.11,.39,.39,.39,.39-.11,.39-.39Z"/><circle class="cls-17" cx="28.07" cy="16.62" r=".39"/><line class="cls-5" x1="68.76" y1="7.38" x2="68.76" y2="12.78"/><path class="cls-10" d="M74.01,13.25c-.35,.32-.61,.58-.78,.78"/><line class="cls-10" x1="76.4" y1="14.38" x2="79.02" y2="14.36"/><line class="cls-10" x1="77.07" y1="15.49" x2="78.38" y2="13.22"/><line class="cls-10" x1="77.21" y1="13.23" x2="78.26" y2="15.62"/><path class="cls-10" d="M74.76,14.63c.72-.65,.99-.75,1.23-.89,.24-.13,.44-.3,.66-.44,.22-.15,.46-.28,.7-.4,.24-.12,.48-.24,.71-.37,.23-.13,.45-.26,.69-.37"/><path class="cls-5" d="M74.01,13.25c1.35-.92,2.71-1.83,4.06-2.75,.09,.64,.27,.91,.4,1.12s.2,.36,.28,.52c.08,.16,.17,.31,.36,.61,.19,.3,.49,.74,.72,1.09,.23,.35,.38,.61,.54,.86s.34,.47,.64,.66c.29,.18,.7,.33,1.02,.4s.56,.08,.84,.14c.28,.06,.6,.17,.82,.36,.21,.19,.31,.45,.34,.74,.02,.3-.02,.62-.13,.92-.11,.3-.27,.56-.51,.74-.24,.18-.56,.27-.88,.31-.32,.04-.65,.02-.92-.02s-.48-.11-.72-.14c-.24-.03-.5-.03-.77,.06s-.56,.27-.77,.41-.35,.23-.55,.27c-.2,.04-.48,.03-.71-.07-.23-.11-.43-.31-.58-.54-.15-.23-.26-.48-.39-.75s-.29-.57-.48-.93-.42-.78-.62-1.1c-.21-.32-.39-.53-.61-.79-.22-.26-.46-.57-.71-.83-.25-.27-.5-.49-.67-1.29Z"/><path class="cls-5" d="M68.57,12.82c-.11,.04-.16,.12-.19,.29s-.03,.46,0,.73c.04,.27,.12,.53,.21,.88,.08,.35,.17,.79,.12,1.4-.05,.61-.25,1.39-.34,2.02-.09,.63-.09,1.11,.25,1.49,.35,.38,1.03,.65,1.8,.76,.77,.11,1.63,.06,2.49,.05,.86,0,1.73,.03,2.3-.14,.57-.17,.84-.56,.95-.92s.08-.7-.22-1.05c-.3-.35-.86-.71-1.27-.98-.41-.27-.67-.44-.87-.7-.21-.25-.37-.59-.46-1.06-.09-.47-.1-1.08-.12-1.55s-.04-.79-.15-1.01c-.11-.22-.31-.35-1-.38-.69-.03-1.88,.03-2.55,.07-.68,.04-.85,.05-.96,.1Z"/><path class="cls-10" d="M68.41,14.02c.88,.26,1.38,.24,1.86,.22,.48-.02,.93-.03,1.37-.03,.44,0,.88,0,1.58-.12"/><line class="cls-10" x1="71.3" y1="16.88" x2="70.56" y2="14.9"/><line class="cls-10" x1="70.32" y1="16.86" x2="71.49" y2="14.79"/><line class="cls-10" x1="71.93" y1="15.83" x2="69.88" y2="15.83"/><path class="cls-5" d="M73.09,7.42v2.4c.72-.23,1.43-.5,2.12-.8,.75-.38,.75-1.45,0-1.83-.44-.15-.87-.24-1.33-.29"/><path class="cls-5" d="M69.84,3.14c-.11,.05-.23,.11-.38,.25-.14,.14-.3,.36-.47,.6-.17,.23-.34,.48-.43,.82-.1,.34-.12,.77-.11,1.12s.06,.65,.17,1.02c.11,.37,.27,.83,.45,1.04s.37,.18,.6,.06c.23-.12,.5-.34,.69-.67,.18-.33,.27-.77,.35-1.11,.08-.34,.14-.57,.23-.71,.1-.14,.23-.2,.34-.2,.11,0,.21,.06,.26,.25,.05,.19,.04,.5,.06,.77,.01,.26,.05,.48,.13,.62,.09,.14,.23,.2,.37,.25,.15,.05,.3,.08,.5,.12s.44,.07,.63,.07c.19,0,.33-.06,.44-.15,.11-.09,.18-.23,.22-.38s.06-.31,.11-.46c.05-.15,.12-.27,.24-.3s.29,.05,.44,.09c.15,.05,.27,.06,.44,.02,.16-.04,.37-.12,.52-.25,.15-.12,.23-.29,.36-.47,.13-.18,.3-.38,.53-.52s.53-.21,.82-.24,.55,0,.77,.03c.22,.04,.38,.09,.54,.16,.16,.07,.31,.15,.52,.32s.51,.43,.65,.56c.15,.13,.15,.13,.2,.06,.06-.06,.16-.18,.19-.34,.02-.16-.04-.36-.1-.53-.06-.16-.13-.29-.21-.42-.08-.12-.17-.25-.26-.37-.1-.13-.2-.27-.32-.41-.13-.14-.27-.29-.46-.41-.18-.12-.4-.21-.62-.33-.23-.11-.47-.25-.65-.36s-.32-.18-.53-.24c-.21-.06-.49-.1-.74-.08-.25,.02-.45,.1-.64,.21s-.35,.24-.47,.32c-.11,.09-.18,.13-.31,.13-.13,0-.32-.05-.46-.15-.14-.09-.24-.23-.33-.36-.09-.12-.19-.23-.34-.31-.15-.08-.36-.13-.62-.13-.26,0-.58,.08-.82,.21-.24,.13-.39,.33-.5,.47-.11,.14-.17,.24-.31,.29-.14,.05-.37,.07-.61,.05-.24-.02-.51-.07-.69-.09-.18-.01-.27,.02-.38,.06Z"/><path class="cls-5" d="M78.06,10.5c1.38-1.07,2.1-2.78,1.9-4.51"/><path class="cls-5" d="M41.29,12.85c0,.19,.11,.45,.2,.69,.1,.24,.18,.45,.2,.71,.02,.25,0,.55,.06,.76,.07,.21,.24,.34,.4,.33s.31-.14,.52-.35c.21-.21,.49-.48,.77-.7,.29-.22,.58-.38,.86-.53s.56-.3,.81-.44,.5-.27,.75-.37c.24-.11,.48-.19,.75-.21,.27-.02,.56,0,1-.03,.43-.04,1-.15,1.27-.29,.27-.13,.24-.29,.18-.49-.06-.2-.15-.45-.21-.71-.06-.26-.1-.52-.16-.75-.06-.23-.14-.41-.3-.5s-.39-.07-.59,.02c-.19,.09-.35,.25-.62,.43-.28,.17-.67,.36-.93,.54-.26,.18-.38,.34-.5,.5-.13,.16-.26,.31-.48,.41s-.52,.13-.81,.14-.57-.02-.82-.03c-.25-.01-.46,0-.69,0-.23,.02-.46,.05-.71,.13s-.49,.21-.68,.32-.3,.23-.31,.42Z"/><path class="cls-10" d="M44.2,12c.32,.33,.45,.48,.53,.67,.08,.19,.12,.43,.15,.79"/><path class="cls-10" d="M45.42,11.8c.43,.21,.63,.55,.75,1.04"/><line class="cls-5" x1="47.07" y1="12.73" x2="47.07" y2="14.06"/><path class="cls-5" d="M41.46,6.79c-.74,.48-.92,.5-1.1,.47s-.35-.11-.5-.22c-.15-.11-.28-.25-.38-.88-.02-.24-.06-.42-.06-.6,0-.22,.1-.45,.27-.74,.17-.29,.43-.63,.69-.74,.26-.12,.51-.01,.79,.02,.27,.03,.57,0,.79-.06,.22-.05,.37-.1,.64-.17,.27-.07,.68-.16,.95-.2s.4-.04,.56,0c.16,.04,.34,.11,.51,.14s.34,.04,.55,.03c.2,0,.44-.03,.6,0,.17,.02,.27,.07,.34,.23,.06,.16,.09,.44,.04,.66-.05,.22-.16,.38-.23,.58-.06,.2-.08,.42-.08,.63s0,.38-.07,.52-.22,.26-.37,.32c-.14,.05-.27,.04-.42-.05-.15-.09-.33-.25-.49-.35s-.31-.13-.46-.15c-.15-.01-.32,0-.52,0-.2,.02-.43,.05-.61,0-.18-.04-.3-.15-.43-.32-.13-.17-.27-.39-.41-.41-.13-.02-.26,.16-.36,.41-.09,.25-.15,.56-.25,.88Z"/><path class="cls-5" d="M44.21,12V6.8h-2.54c-.07,0-.14,0-.21-.01"/><path class="cls-5" d="M47.11,4.48c-.08,.09-.08,.24-.08,.36,0,.12-.01,.22,0,.33s.02,.23,.01,.36c0,.12-.04,.25-.06,.38-.02,.13-.03,.28-.03,.42s0,.28,.02,.36c.02,.08,.04,.12,.16,.15,.12,.03,.34,.07,.54,.08,.21,0,.4,0,.54-.03,.14-.03,.22-.06,.28-.08,.06-.02,.1-.02,.17,0s.18,.07,.33,.11c.14,.04,.33,.08,.52,.1,.19,.02,.39,.02,.61,0,.21-.02,.44-.06,.63-.12,.19-.07,.33-.16,.43-.26,.1-.1,.17-.2,.22-.32,.05-.11,.09-.24,.1-.37,0-.12-.02-.25-.08-.37-.06-.12-.15-.24-.26-.34-.1-.09-.22-.16-.36-.2s-.29-.08-.42-.1c-.13-.03-.23-.05-.3-.07-.07-.02-.11-.05-.14-.09-.02-.04-.03-.09-.01-.13,.02-.04,.05-.07,.13-.12s.19-.09,.25-.16c.07-.06,.08-.14,.07-.22s-.05-.17-.13-.25c-.07-.08-.18-.14-.3-.18s-.26-.05-.45,0-.45,.15-.63,.24c-.18,.08-.3,.14-.41,.19-.12,.05-.23,.09-.4,.12-.16,.03-.37,.05-.55,.07-.18,.03-.34,.05-.42,.14Z"/><path class="cls-10" d="M48.26,4.22c.03,.49,.02,.95,0,1.38-.02,.43-.04,.84-.04,1.28"/><line class="cls-5" x1="47.07" y1="6.83" x2="47.07" y2="10.5"/><line class="cls-5" x1="46.16" y1="4.37" x2="47.34" y2="4.37"/><path class="cls-5" d="M47.07,15.57v2.88c0,.79-.64,1.43-1.43,1.43s-1.43-.64-1.43-1.43v-1.57"/><path class="cls-5" d="M45.3,13.23c-.15,1.38-.34,1.98-.53,2.47-.19,.49-.38,.87-.57,1.19-.19,.32-.38,.59-.6,.85-.61-.18-1.06-.47-1.45-.97,.4-.32,.58-.51,.85-.75,.27-.24,.63-.53,.84-.78,.21-.26,.26-.48,.44-1.46"/><path class="cls-5" d="M45.22,13.89c.85,1,1.35,1.34,1.75,1.61,.4,.27,.7,.46,.95,.62,.25,.16,.45,.28,.69,.37,.49-.47,.85-.98,1.12-1.6-.15-.07-.51-.19-.8-.27s-.52-.13-.84-.21c-.31-.09-.71-.21-1.06-.37-.35-.15-.67-.33-1.24-1.05"/><path class="cls-10" d="M44.21,17.66c1.19-.2,2.05-.67,2.86-1.57"/><path class="cls-10" d="M44.21,8.85c1.19-.2,2.05-.67,2.86-1.57"/><path class="cls-10" d="M44.21,6.37c-.84,.22-1.68,.36-2.54,.43"/><path class="cls-10" d="M44.21,6.37c.08-.01,.15-.03,.23-.04"/><path class="cls-10" d="M42.49,5.93c-.27,.04-.55,.07-.82,.09"/><path class="cls-10" d="M46.13,4.77c.17-.12,.33-.26,.48-.4"/><path class="cls-10" d="M45.84,5.8c.45-.25,.83-.56,1.18-.94"/><path class="cls-10" d="M44.21,8.06c1.16-.21,1.98-.68,2.73-1.58"/><path class="cls-10" d="M46.65,13.84c.15-.13,.29-.27,.42-.42"/><path class="cls-10" d="M46.13,13.39c.27-.2,.51-.41,.73-.66"/><path class="cls-10" d="M45.06,14.77c.24-.08,.46-.18,.68-.3"/><path class="cls-10" d="M45.22,13.91s0,0,.01,0"/><path class="cls-10" d="M44.21,16.88c1.09-.19,1.89-.64,2.63-1.46"/><path class="cls-10" d="M44.21,10.48c1.24-.22,2.09-.74,2.86-1.74"/><path class="cls-10" d="M44.21,11.27c1.19-.2,2.05-.67,2.86-1.57"/></g></svg>