<?xml version="1.0" encoding="UTF-8"?><svg xmlns="http://www.w3.org/2000/svg" viewBox="0 0 288 32.16"><defs><style>.cls-1,.cls-2,.cls-3,.cls-4{fill:#fff;}.cls-5{fill:#ada5b5;}.cls-6{opacity:.5;stroke:#646464;}.cls-6,.cls-7{stroke-width:.1px;}.cls-6,.cls-7,.cls-2,.cls-8,.cls-9,.cls-10,.cls-11,.cls-4,.cls-12{stroke-linecap:round;stroke-linejoin:round;}.cls-6,.cls-7,.cls-9,.cls-13,.cls-10,.cls-11,.cls-12{fill:none;}.cls-7,.cls-14,.cls-2,.cls-3,.cls-8,.cls-9,.cls-13,.cls-10,.cls-4,.cls-12{stroke:#000;}.cls-14{stroke-width:.5px;}.cls-14,.cls-3,.cls-13{stroke-miterlimit:10;}.cls-2,.cls-3,.cls-9{stroke-width:.3px;}.cls-15{fill:#ff6700;}.cls-16{fill:#422e5e;}.cls-17{fill:#3a3a60;}.cls-18{fill:#efe4a0;}.cls-8{fill:#fcc8c8;}.cls-8,.cls-13,.cls-10,.cls-4{stroke-width:.2px;}.cls-19{fill:#720e0e;}.cls-20{fill:#e2b279;}.cls-21{fill:#9ad375;}.cls-22{fill:#776724;}.cls-23{fill:#646464;}.cls-24{fill:#969696;}.cls-25{fill:#5b9cbc;}.cls-26{fill:#59b21f;}.cls-27{fill:#c8c8c8;}.cls-28{fill:#960400;}.cls-11{stroke:blue;}.cls-29{fill:#ffce00;}.cls-30{fill:#13771f;}.cls-31{fill:#dcdcdc;}.cls-32{fill:#c10e0e;}.cls-33{fill:#439114;}.cls-34{fill:#256823;}.cls-35{fill:#6b4f0a;}.cls-36{fill:#f4eeb8;}.cls-37{fill:#6c4e9b;}.cls-38{fill:#5d5068;}.cls-39{fill:#ffbc00;}.cls-12{stroke-width:.4px;}.cls-40{fill:#867d8e;}.cls-41{fill:red;}</style></defs><g id="Color"><path class="cls-32" d="M118.72,12.21c.1,.94,.48,1.41,1.38,1.7h2.18c.9,.29,1.28,.76,1.38,1.7v9.44c.1,.94,.48,1.41,1.38,1.7h3.64c.9-.29,1.28-.76,1.38-1.7V15.62c.1-.94,.48-1.41,1.38-1.7h2.18c.9-.29,1.28-.76,1.38-1.7V6.67c-.1-.94-.48-1.41-1.38-1.7h-13.52c-.9,.29-1.28,.76-1.38,1.7v5.54Z"/><ellipse cx="126.86" cy="16.33" rx="1.73" ry="3.1"/><path class="cls-21" d="M244.83,6.3c.07-.81,.4-1.17,1.2-1.34h12.56c.79,.16,1.12,.53,1.2,1.34v2.35c-.07,.81-.4,1.17-1.2,1.34h-6.71c-.79,.16-1.12,.53-1.2,1.34v.09c.07,.81,.4,1.17,1.2,1.34h2.88c.79,.16,1.12,.53,1.2,1.34v.88c-.07,.81-.4,1.17-1.2,1.34h-2.88c-.79,.16-1.12,.53-1.2,1.34v.09c.07,.81,.4,1.17,1.2,1.34h6.71c.79,.16,1.12,.53,1.2,1.34v5.03c-.07,.81-.4,1.17-1.2,1.34h-12.56c-.79-.16-1.12-.53-1.2-1.34V6.3Z"/><path class="cls-21" d="M234.37,4.91h4.84c.61,0,.85,.31,1.1,.79,.17,.33,.16,.66,.16,1.01,0,1.45,.53,3.21-1.63,3.21h-4.85c-.53,0-1.05-.13-1.59,.04-1.02,.33-1.38,1.49-.62,2.28,.65,.68,1.35,.43,2.09,.43,1,0,2.02-.44,2.63,.83,.34,.71,.22,1.96-.48,2.47-.48,.34-2.13,.25-2.6,.25s-.92-.08-1.38,.22c-.61,.4-.84,.8-.6,1.54,.43,1.32,1.44,1.01,2.45,1.01h3c2.59,0,3.59-.53,3.59,2.64,0,.39,.05,3.86-.15,4.27-.2,.4-.46,.62-.88,.76-.66,.21-1.27,.04-1.91,.04h-10.15c-.74,0-1.31-.02-1.7-.79-.43-.84-.16-2.65-.16-3.45V6.75c0-.72,.04-1.27,.76-1.68,.53-.3,4.83-.17,5.34-.17,.26,.18,.48,.37,.66,.64,.06,.08,.64,.46,.76,.38,.26-.19,.5-.33,.84-.35,.43-.03,.4-.38,.51-.66Z"/><path class="cls-21" d="M158.24,6.25c1.26,.4,2.41,.72,3.78,.4,1.25-.29,2.46-.67,3.79-.62,.64,.03,1.28,.01,1.93,.1,.31,.04,1.46,.71,1.82,.3,.58-.67,1.14-.32,1.79-.16,.71,.18,1.21,.08,1.77-.4,.25,.68,.22,3.22-.48,3.77-.51,.41-2.34,.3-2.85,.3h-2.98c-1.04,0-2.11-.43-2.62,.95-.32,.86,.41,1.81,1.31,1.81,.98,0,3.26-.5,3.79,.97,.17,.46,.12,1.53-.18,1.96-.62,.91-1.41,.62-2.25,.62-.76,0-1.48-.29-2.21,.31-.94,.76-.6,2.1,.54,2.43,.43,.12,.84,.03,1.26,.03h3.83c2.27,0,2.93-.12,2.93,2.45v3.87c0,.79-.7,1.39-1.46,1.39h-9.17c-.89,0-3.49,.46-4.14-.76-.31-.58-.17-1.13-.17-1.71V6.25Z"/><path class="cls-21" d="M71.53,6.25c.07-.81,.4-1.17,1.2-1.34h12.56c.79,.16,1.12,.53,1.2,1.34v2.35c-.07,.81-.4,1.17-1.2,1.34h-6.71c-.79,.16-1.12,.53-1.2,1.34v.09c.07,.81,.4,1.17,1.2,1.34h2.88c.79,.16,1.12,.53,1.2,1.34v.88c-.07,.81-.4,1.17-1.2,1.34h-2.88c-.79,.16-1.12,.53-1.2,1.34v.09c.07,.81,.4,1.17,1.2,1.34h6.71c.79,.16,1.12,.53,1.2,1.34v5.03c-.07,.81-.4,1.17-1.2,1.34h-12.56c-.79-.16-1.12-.53-1.2-1.34V6.25Z"/><path class="cls-36" d="M103.57,22.79c-1.03,.38-2.06,.59-3.16,.64,.21,.61,.43,1.22,.64,1.83h3.87c-.45-.82-.9-1.64-1.35-2.47Z"/><path class="cls-27" d="M95.61,15.44c.26,.17,.51,.37,.74,.58,.12,.1,.23,.21,.34,.33,.13,.14,.14-.13,.16-.24,.12-.64,.11-1.23-.04-1.86-.32,.01-.61-.06-.79,.32-.14,.29-.27,.59-.41,.88Z"/><path class="cls-27" d="M93.1,14.38c.17,.7,.46,1.27,.95,1.81,.22,.25,.38,.68,.78,.36,.3-.24,.44-.5,.48-.88-.29,.04-.9-.67-1.04-.81-.16-.16-.33-.33-.49-.49-.12-.12-.23,0-.34,0-.12,0-.23,0-.35,.01Z"/><path class="cls-18" d="M90.17,16.9c-.37,.7-.95,1.24-.67,2.2,.23,.81,.79,1.37,1.21,2.04,.28-.48,.62-.86,1.07-1.19l-.51-1.4c.15-.32,.3-.64,.45-.96-.61-.08-1.09-.29-1.55-.7Z"/><path class="cls-30" d="M96.81,14.24c.15,.63,.16,1.22,.04,1.86-.02,.11-.03,.38-.16,.24-.11-.11-.22-.22-.34-.33-.23-.21-.48-.4-.74-.58-.07,.14-.15,.21-.3,.23-.04,.38-.18,.64-.48,.88-.4,.33-.56-.11-.78-.36-.48-.54-.78-1.11-.95-1.81-.37,.01-.74,.03-1.11,.04-.46,.02-.61,.35-.87,.61-.26,.27-.5,.54-.73,.83-.13,.17-.63,.62-.37,.88,.58,.59,1.16,.84,1.98,.87,.17,0,.02,.17,.01,.26,0,.09,0,.18,0,.28,0,.18,0,.37,0,.55,0,.37-.01,.74-.02,1.11,3.47,.06,6.69-.47,9.96-1.63v-.55c0-.26,.24-.2,.38-.27,.32-.16,.62-.35,.9-.57,.58-.46,1-.99,1.32-1.65,.33-.66,.48-1.32,.5-2.06,0-.36-.03-.7-.1-1.05-.03-.16-.07-.31-.27-.23-.17,.06-.34,.12-.52,.18-1.39,.44-2.75,.63-4.2,.58-.18,0-.35-.02-.53-.03-.15-.01-.43-.23-.43,.05,0,.39-.08,.69-.31,1.01-.51,.73-1.03,.91-1.89,.65Z"/><path class="cls-17" d="M96.89,6.94c-.35-.64-.58-.73-.74-.84-.16-.11-.26-.24-.33-.36s-.13-.24-.2-.32c-.07-.08-.14-.11-.24-.15-.1-.04-.22-.08-.36-.11-.15-.03-.31-.06-.49-.1-.17-.04-.35-.09-.51-.12-.16-.03-.3-.03-.43-.03s-.25,0-.41,.04c-.16,.04-.36,.12-.54,.2-.18,.08-.33,.17-.45,.24-.12,.07-.21,.13-.3,.18-.09,.06-.17,.11-.24,.16-.08,.05-.15,.11-.2,.17s-.09,.12-.14,.2c-.05,.08-.12,.18-.31,.41-.11,.24-.09,.37-.07,.46,.02,.09,.05,.14,.08,.17s.05,.05,.08,.05c.04,0,.09-.02,.14-.02,0,0,0,0,0,0,.05,0,.11,0,.17-.03s.12-.12,.19-.2,.16-.17,.24-.25,.14-.15,.22-.23,.17-.18,.31-.21c.14-.03,.32,0,.46,0,.14,0,.23-.03,.33-.07s.22-.09,.32-.14c.1-.05,.2-.1,.34-.13,.14-.03,.33-.04,.46-.07,.14-.03,.23-.07,.53-.24,.44,.4,.8,.85,1.12,1.35,.32-.02,.64-.03,.96-.02Z"/><path class="cls-18" d="M94.81,5.61c-.3,.17-.39,.21-.53,.24-.14,.03-.33,.04-.46,.07-.14,.03-.23,.08-.34,.13-.1,.05-.22,.1-.32,.14s-.2,.07-.33,.07c-.14,0-.32-.04-.46,0-.14,.03-.23,.13-.31,.21s-.15,.15-.22,.23-.16,.17-.24,.25-.13,.17-.19,.2-.12,.03-.17,.03c0,0,0,0,0,0,0,0,0,0,0,0-.11,.82,0,2.4,.62,3.1,.74,.84,1.95,1.08,2.96,.61,.78-.37,1.75-1.65,1.67-2.58-.08-.91-1.08-2.15-1.68-2.7Z"/><path class="cls-36" d="M91.4,9.32c-.11-.39-.18-.77-.2-1.17-.51,0-.97,.05-.87,.69,.11,.65,.61,.49,1.07,.49Z"/><path class="cls-36" d="M96.48,8.29c-.04-.38-.19-.69-.37-1.01,.39,0,.82-.22,1.01,.33,.18,.53-.16,.69-.64,.69Z"/><path class="cls-36" d="M95.61,10.31c-.71,.79-1.39,1-2.42,.76,.26,1.17,.2,2.71,1.92,2.23,.7-.2,.9-.58,.78-1.28-.09-.57-.19-1.14-.28-1.72Z"/><path class="cls-18" d="M95.93,6.96c3.54-.27,6.85,1.74,8.23,5.01-1.38,.44-2.74,.63-4.19,.58-.67-1.59-2.14-2.7-3.85-2.93,.3-.42,.41-.82,.36-1.34,.48,0,.82-.16,.64-.69-.19-.55-.62-.33-1.01-.33-.06-.11-.12-.21-.19-.31Z"/><path class="cls-23" d="M71.53,15.62h-1.14v-2.31h1.14v2.31Z"/><path class="cls-23" d="M82.39,15.62c.35-.5,.35-1.81,0-2.31h1.4v2.31h-1.4"/><path class="cls-33" d="M71.53,20.95c2.58,1,4.55,3.12,5.35,5.77h-2.63c-.88,0-1.73,.37-2.44-.58-.39-.53-.29-2.03-.29-2.56v-2.63Z"/><path class="cls-33" d="M80.61,19h3.44c1.27,0,2.44-.05,2.44,1.61v3.44c0,.57,.13,1.13-.09,1.71-.24,.66-.57,.95-1.3,.95-2.7-1.65-4.38-4.55-4.49-7.71Z"/><path class="cls-23" d="M86.41,5.75c-.45,.21-.91,.42-1.36,.63-.55-.26-1.11-.51-1.66-.77-.15,.23-.29,.47-.44,.7-.41-.23-.81-.46-1.22-.7-.13,.29-.27,.58-.4,.87-.14-.3-.28-.61-.42-.91l-.26,.93c-.1-.23-.21-.46-.31-.7-.44,.33-.88,.66-1.32,.99-.87-.45-1.74-.9-2.61-1.35-.52,.34-1.05,.69-1.57,1.03-.31-.37-.62-.75-.93-1.12-.12,.19-.24,.39-.36,.58-.12-.22-.23-.45-.35-.67-.2,.47-.4,.95-.6,1.42-.29-.35-.58-.71-.87-1.06,.4-.7,.94-.73,1.64-.73h9.57c.85,0,2.94-.33,3.48,.86Z"/><path class="cls-23" d="M169.25,15.32c.17-.44,.13-1.54-.13-1.95,.42,0,.84-.08,1.27,.02,.52,.12,.73,.36,.77,.9,.09,1.32-1.02,1.04-1.91,1.04Z"/><path class="cls-33" d="M158.23,6.25c1,.32,1.95,.64,3.06,.53,1.05-.11,2.01-.52,3.04-.69,1.05-.17,2.08-.08,3.12,0,.54,.04,.98,.34,1.49,.44,.26,.05,.46,.09,.64-.16,.21-.28,.44-.29,.75-.27-3.84,2.69-7.84,4.98-12.1,6.92V6.25Z"/><path class="cls-33" d="M158.23,16.84c5.32,2.13,9.18,5.18,12.48,9.87h-10.87c-1.2,0-1.61-.57-1.61-1.72v-8.15Z"/><path class="cls-33" d="M171.99,26.71c-1.17-2.5-1.72-4.95-1.72-7.71,.63,0,1.95-.16,2.52,.45,.54,.58,.4,1.93,.4,2.55v2.65c0,1,.02,1.81-1.2,2.06Z"/><path class="cls-23" d="M236.56,15.2c.15-.5,.15-.95,0-1.45h.87v1.45h-.87Z"/><path class="cls-23" d="M225.51,13.31h-1.14v2.31h1.14v-2.31Z"/><path class="cls-38" d="M266.23,6.94c2.92-.49,5.78-1.16,8.61-2.02-3.1,0-5.93-.54-8.61,2.02Z"/><path class="cls-40" d="M274.84,4.91c-2.83,.87-5.69,1.54-8.61,2.02-.75,.72-1.3,1.51-1.7,2.47,5.2-.17,10.07-1.11,14.95-2.91-1.16-1.31-2.92-1.92-4.64-1.58Z"/><path class="cls-38" d="M279.48,6.49c-4.89,1.8-9.75,2.75-14.95,2.91-.62,1.31-.64,2.4-.1,3.74,5.25-1.71,10.26-3.83,15.15-6.39,.13-.12,.07-.27-.11-.27Z"/><path class="cls-5" d="M264.43,13.15c5.25-1.71,10.26-3.83,15.15-6.39,.32,.87,.4,1.69,.27,2.61-.16,1.13-1.04,1.3-1.79,1.76-1.53,.92-3.11,1.66-4.79,2.26-1.81,1.26-3.7,2.3-5.74,3.16-1.58-.47-2.78-1.77-3.1-3.39Z"/><path class="cls-38" d="M273.27,13.39c1.45,.11,2.49,.61,3.49,1.67-1.91,.19-3.73,.09-5.61-.31,.73-.42,1.43-.87,2.12-1.35Z"/><path class="cls-40" d="M271.15,14.74c1.88,.4,3.7,.51,5.61,.31,2.09,.41,3.48,2.39,3.16,4.49-2.14-.19-4.27-.47-6.39-.84-2.15-.38-4.15-.77-5.99-2.16,1.25-.53,2.45-1.13,3.62-1.81Z"/><path class="cls-38" d="M264.46,23.54c-.09-.89,.03-1.68,.36-2.51,.35-.89,.81-1.39,1.78-1.61,.86-.19,1.7-.09,2.55-.09,.92,0,1.93,.21,1.93-1.09,2.02,.42,4.04,.76,6.09,1.01-4.14,1.76-8.35,3.18-12.71,4.29Z"/><path class="cls-5" d="M279.27,23.26c-3.01-.37-6-.84-8.97-1.42,2.33-.77,4.61-1.63,6.87-2.59,.91,.11,1.83,.21,2.75,.29,.22,.83,.22,1.59,0,2.42-.17,.45-.39,.88-.64,1.29Z"/><path class="cls-40" d="M270.29,21.84c2.98,.58,5.96,1.06,8.97,1.42-.85,1.36-1.88,2.25-3.36,2.88-1.46,.63-2.9,.57-4.41,.57s-2.99,.13-4.49-.01c-1.81-.16-2.4-1.6-2.55-3.16,1.97-.5,3.91-1.07,5.84-1.7Z"/><path class="cls-38" d="M276.78,25.7c1.54-.92,2.49-2.05,3.13-3.73,.57,.53,1.02,1.11,1.39,1.8,.09,.17,.17,.34,.24,.52,.1,.23-.07,.34-.18,.48-.23,.31-.47,.59-.75,.86-.19,.18-1.51,1.32-1.89,1.22-.78-.21-1.38-.56-1.94-1.15Z"/><path class="cls-23" d="M244.83,15.2h-.87v-1.45h.87v1.45Z"/><path class="cls-23" d="M255.88,15.2c.15-.5,.15-.95,0-1.45h.87v1.45h-.87Z"/><path class="cls-33" d="M256.54,26.71c1.3-2.58,.77-5.7-1.31-7.71h1.78c.59,0,1.17-.16,1.78,.06,1.36,.49,.99,2.18,.99,3.14,0,.31,.03,3.23-.09,3.56-.48,1.31-2.23,.95-3.15,.95Z"/><path class="cls-33" d="M253.07,26.71h-5.96c-.67,0-1.29,.17-1.86-.42-.57-.58-.42-1.2-.42-1.87v-5.96c1.64,3.67,4.57,6.61,8.24,8.25Z"/><path class="cls-33" d="M249.15,4.91h7.42c.52,0,1.91-.14,2.44,.16,.97,.55,.76,1.33,.76,2.19s.3,1.62-.51,2.32c-.54,.47-1.82,.34-2.38,.34h-2.47c-2.27-1.24-3.92-2.81-5.26-5.02Z"/><path class="cls-33" d="M226.02,5.26c4.73,1.63,9.45,2.54,14.44,2.79,0-1.5,.33-3.13-1.79-3.13h-4.31c-.11,.28-.07,.63-.51,.66-.33,.02-.58,.17-.84,.35-.12,.09-.7-.29-.76-.38-.18-.27-.4-.46-.66-.64h-2.84c-.54,0-2.22-.12-2.75,.34Z"/><path class="cls-33" d="M240.46,24.6c-2.67-.98-4.82-2.99-5.97-5.59h2.74c.5,0,2.17-.1,2.67,.29,.96,.76,.57,1.65,.57,2.56v2.74Z"/><path class="cls-33" d="M230.95,26.71h-3.03c-1.09,0-2.16,.23-2.4-1.23-.17-1.02-.01-2.02-.01-3.03v-3.03c2.74,1.58,4.71,4.21,5.45,7.29Z"/><path class="cls-39" d="M131.4,4.91c.08-.64,.03-1.23-.16-1.85-.09-.3-.21-.58-.36-.86-.08-.14-.16-.27-.25-.4-.08-.11-.25-.55-.26-.29-.07,1.35-.49,2.38-1.37,3.4h2.4Z"/><path class="cls-39" d="M124.71,4.91c-.89-1.02-1.3-2.05-1.37-3.4-.01-.26-.18,.19-.26,.29-.09,.13-.17,.26-.25,.4-.15,.27-.27,.56-.36,.86-.19,.62-.24,1.21-.16,1.85h2.4Z"/><path class="cls-19" d="M123.66,24.05c-.91,.49-1.24,.49-1.5,.47-.27-.02-.48-.06-.62-.16-.14-.1-.21-.27-.27-.48s-.11-.46-.13-.79c-.02-.33-.01-.73,.02-1.02,.03-.29,.08-.46,.17-.72,.01-.04,.03-.07,.04-.11,.52-.06,.67-.05,.81-.05,.15,0,.26-.01,.33-.05,.07-.04,.08-.1,.07-.17,0-.07-.03-.15-.09-.27-.06-.12-.15-.26-.26-.46-.11-.19-.25-.42-.41-.62s-.32-.35-.44-.49c-.13-.14-.21-.25-.28-.3s-.12-.04-.16,0c-.04,.04-.06,.1-.1,.2-.04,.1-.09,.22-.17,.35-.08,.13-.18,.27-.3,.41s-.26,.3-.4,.47-.27,.36-.38,.51c-.11,.16-.21,.28-.25,.36-.04,.08-.02,.11,.04,.14,.05,.02,.14,.03,.31,.02,.17-.01,.41-.04,.7,.04-.16,.55-.25,.8-.32,1.04-.09,.3-.15,.56-.21,.82-.06,.26-.13,.52-.14,.75,0,.22,.04,.41,.1,.58,.06,.17,.12,.34,.28,.51s.41,.36,.67,.5,.54,.23,.88,.25c.35,.02,.77-.02,2.04-.62-.07-.38-.02-.74-.02-1.12Z"/><path class="cls-35" d="M60.73,6.63c0-1.15,.06-1.5-1.25-1.5s-1.25,.35-1.25,1.5c.86,.26,1.63,.26,2.5,0Z"/><path class="cls-35" d="M58.24,10.97v14.71c0,.86,.49,1.03,1.25,1.03s1.25-.16,1.25-1.03V10.97c-.85-.18-1.65-.18-2.5,0Z"/><path class="cls-23" d="M58.24,6.63c-1.79-.19-3.47-.6-5.14-1.26-.21-.08-.41-.17-.62-.26-.17-.08-.42-.45-.53-.11-.14,.42-.26,.84-.35,1.27-.19,.88-.27,1.74-.24,2.64,.02,.89,.15,1.76,.39,2.62,.12,.43,.26,.85,.43,1.27,.11,.27,.3,.03,.45-.07,.18-.12,.37-.23,.56-.34,1.61-.91,3.21-1.36,5.06-1.42,.85-.18,1.65-.18,2.5,0,1.85,.06,3.45,.51,5.06,1.42,.19,.11,.38,.22,.56,.34,.15,.1,.34,.34,.45,.07,.17-.42,.31-.84,.43-1.27,.23-.86,.36-1.73,.39-2.62,.02-.89-.06-1.76-.24-2.64-.09-.43-.21-.85-.35-1.27-.12-.34-.36,.03-.53,.11-.2,.09-.41,.17-.62,.26-1.67,.66-3.35,1.07-5.14,1.26-.86,.26-1.63,.26-2.5,0Z"/><path class="cls-36" d="M95.6,24.04c-1.02,.11-2.03,.12-3.05,.02v1.2h3.05v-1.22Z"/><path class="cls-24" d="M193.91,15.17c.09,.28,.13,.55,.1,.84-.01,.14-.04,.28-.08,.42-.03,.11-.05,.45-.17,.27-.39-.54-.45-1-.23-1.62,.12,.04,.24,.08,.37,.09Z"/><path class="cls-24" d="M194.62,15.12c.22,.57,.18,1-.13,1.53-.12,.2-.13-.19-.17-.3-.05-.13-.08-.25-.09-.38-.04-.27-.02-.52,.06-.78,.11,0,.22-.03,.33-.06Z"/><path class="cls-23" d="M195.29,13.61c-.78-.34-1.39-.32-2.15,.07-2.1-2.16-.37-4.73,.9-6.58,.14-.2,.21,.12,.28,.22,.09,.12,.19,.24,.28,.36,.18,.25,.35,.5,.5,.76,.31,.53,.57,1.07,.78,1.64,.35,.97-.16,2.71-.59,3.52Z"/><path class="cls-24" d="M200.98,14.1c.08,.24,.11,.48,.09,.74-.01,.13-.03,.25-.07,.37-.03,.1-.04,.39-.15,.24-.34-.47-.4-.88-.2-1.43,.11,.04,.22,.07,.33,.08Z"/><path class="cls-24" d="M201.61,14.06c.19,.5,.16,.88-.11,1.34-.1,.17-.12-.17-.15-.26-.04-.11-.07-.22-.08-.34-.03-.24-.01-.46,.06-.69,.1,0,.19-.02,.29-.05Z"/><path class="cls-23" d="M202.19,12.73c-.68-.3-1.23-.28-1.89,.06-1.85-1.9-.32-4.16,.79-5.78,.12-.17,.18,.11,.25,.2,.08,.1,.16,.21,.24,.32,.16,.22,.3,.44,.44,.67,.27,.46,.5,.94,.68,1.45,.31,.85-.14,2.38-.52,3.09Z"/><path class="cls-24" d="M188.5,16.33c.11,.32,.14,.62,.12,.95-.01,.16-.04,.32-.09,.47-.04,.13-.05,.51-.19,.31-.44-.61-.51-1.13-.26-1.84,.14,.05,.28,.09,.42,.1Z"/><path class="cls-24" d="M189.31,16.27c.25,.64,.21,1.14-.15,1.73-.13,.22-.15-.21-.2-.34-.05-.14-.09-.29-.11-.44-.04-.31-.02-.59,.07-.89,.13-.01,.25-.03,.37-.07Z"/><path class="cls-23" d="M190.06,14.56c-.88-.39-1.58-.37-2.44,.07-2.38-2.45-.42-5.37,1.02-7.46,.16-.23,.23,.14,.32,.25,.11,.13,.21,.27,.31,.41,.2,.28,.39,.57,.57,.86,.35,.6,.64,1.21,.88,1.86,.4,1.1-.18,3.07-.67,3.99Z"/><path class="cls-25" d="M98.99,23.38c2.09,.2,3.86-.14,5.73-1.11-.92-1.37-1.85-2.74-2.77-4.1-3.27,1.16-6.49,1.69-9.96,1.63-.55,.34-.95,.76-1.27,1.32v.74c.1,.64,.33,1.14,.76,1.63v.41c1.7,.3,3.34,.3,5.04,0v-3.71h.34c.71,1.06,1.42,2.13,2.13,3.19Z"/><path class="cls-28" d="M89.51,26.71c.23-.95,.68-1.35,1.66-1.45h5.36v1.45h-7.02Z"/><path class="cls-28" d="M107.82,26.71c-.23-.95-.68-1.35-1.66-1.45h-5.92v1.45h7.57Z"/><path class="cls-41" d="M93.3,14.14c-.07,.02-.18,.03-.26,.04s-.13,.02-.2,.02c-.06,0-.14,0-.2,0-.06,0-.12,0-.17-.01-.05,0-.1-.02-.14-.06-.04-.04-.07-.1-.07-.16s.01-.1,.05-.14,.1-.08,.19-.1c.09-.03,.22-.04,.32-.05,.11,0,.19,0,.27,.02,.08,.01,.14,.02,.19,.05,.05,.02,.09,.05,.11,.09s.05,.1,.05,.14,0,.07-.02,.1c-.02,.02-.05,.04-.12,.05Z"/><path class="cls-41" d="M93.05,13.17c-.11,0-.28-.04-.42-.07-.14-.04-.25-.07-.35-.13-.1-.06-.18-.13-.23-.2-.05-.07-.07-.13-.06-.19s.06-.11,.12-.15c.07-.04,.15-.06,.26-.06s.23,.03,.34,.09,.22,.14,.28,.21,.1,.11,.13,.15c.03,.04,.07,.09,.09,.14,.02,.05,.03,.1,0,.15-.02,.05-.06,.08-.17,.08Z"/><path class="cls-41" d="M96.47,13.2c.06-.04,.18-.07,.29-.09,.11-.02,.22-.02,.32-.01,.1,0,.2,.02,.28,.03,.08,.01,.14,.02,.2,.05,.06,.03,.11,.08,.13,.13,.01,.06-.01,.12-.05,.18-.04,.06-.08,.11-.17,.13-.09,.02-.22,0-.35,0-.14-.01-.28-.03-.37-.04-.1-.01-.16-.02-.2-.06-.05-.04-.08-.12-.1-.18s-.02-.09,.04-.13Z"/><path class="cls-41" d="M96.49,12.77c.06,.03,.22,.02,.34,0,.12-.02,.22-.03,.34-.07,.13-.03,.29-.08,.38-.13,.1-.05,.13-.09,.14-.16,.02-.07,.02-.15-.03-.22-.04-.07-.13-.12-.24-.14-.12-.03-.27-.03-.39-.03s-.19,.03-.27,.09-.17,.15-.22,.23c-.05,.08-.06,.15-.08,.23-.02,.07-.05,.15,.02,.19Z"/><path class="cls-23" d="M231.6,4.91c.06,.04,.09,.07,.1,.09,.22,.16,.25,.21,.28,.24,.03,.04,.05,.05,.07,.08,.02,.03,.05,.08,.08,.11,.03,.03,.07,.04,.1,.07,.03,.03,.05,.08,.07,.1,.02,.02,.05,.02,.08,.03,.03,0,.06,0,.09,.02,.03,.01,.05,.03,.07,.05s.05,.04,.1,.07,.11,.05,.16,.1,.09,.12,.13,.11c.13-.08,.15-.11,.19-.14,.04-.03,.11-.05,.17-.07,.06-.03,.11-.07,.17-.1,.06-.04,.11-.07,.24-.09s.31-.01,.39-.05c.08-.04,.05-.13,.08-.23,.03-.1,.13-.22,.2-.4,.02-.06,.02-.12,.02-.19v-1.37c0-.54-.22-.76-.76-.76h-1.28c-.54,0-.76,.22-.76,.76v1.37c0,.06,0,.13,.02,.19Z"/><path class="cls-23" d="M158.25,6.25c-.23-1.09-.02-1.83,.77-2.62,4.54-.86,8.87-.86,13.41,0,.61,.62,.86,1.23,.83,2.1-.69,.64-1.06,.68-1.35,.66-.26-.02-.44-.1-.8-.18-.36-.08-.91-.16-1.19-.09s-.29,.27-.44,.37c-.15,.1-.45,.09-.7,0-.25-.09-.44-.25-.87-.34-.43-.08-1.1-.08-1.7-.11-.6-.02-1.13-.07-1.85,.04-.71,.11-1.61,.39-2.41,.57-.8,.18-1.51,.28-3.71-.42Z"/><rect class="cls-23" x="156.77" y="13.06" width="1.47" height="2.56"/><rect class="cls-24" x="155.66" y="11.88" width="1.11" height="4.92"/><rect class="cls-24" x="237.43" y="13.07" width=".63" height="2.79"/><rect class="cls-24" x="256.75" y="13.07" width=".63" height="2.79"/><rect class="cls-24" x="243.33" y="13.07" width=".63" height="2.79"/><path class="cls-1" d="M127.82,18.9c.22-.26,.36-.54,.48-.85-.16-.38-.33-.77-.49-1.15,0,.67,0,1.34,.01,2Z"/><path class="cls-1" d="M127.5,19.21l-.42-1.98c-.03,.73-.07,1.47-.1,2.2,.2-.02,.37-.1,.53-.21Z"/><path class="cls-1" d="M126.56,19.38c-.08-.61-.16-1.22-.23-1.83-.09,.5-.19,1.01-.28,1.51,.15,.14,.31,.25,.51,.32Z"/><path class="cls-1" d="M126.13,13.51c.13,.6,.25,1.2,.38,1.8,.08-.69,.15-1.39,.23-2.08-.24,.03-.43,.13-.61,.28Z"/><path class="cls-1" d="M127.67,13.59c-.18-.17-.37-.29-.62-.35,.12,.58,.24,1.17,.36,1.75,.09-.47,.17-.94,.26-1.41Z"/><path class="cls-26" d="M138.4,25.15c-.05,.5-.14,.76-.18,.97-.05,.21-.05,.37-.04,.49,0,.12,.01,.2,.04,.3,.03,.09,.07,.19,.16,.26,.09,.07,.23,.1,.34,.1,.11,0,.21-.03,.33-.08,.13-.05,.29-.13,.38-.21,.09-.08,.11-.17,.12-.26,.02-.09,.04-.19,.05-.28,.01-.09,.01-.17,.03-.25,.02-.08,.06-.14,.12-.18s.14-.06,.21-.03c.07,.02,.12,.09,.18,.18,.06,.09,.13,.19,.19,.25,.06,.06,.13,.06,.19,.06,.06,0,.13-.01,.21,.03s.18,.14,.23,.24c.05,.1,.05,.19,.09,.29,.04,.1,.12,.2,.17,.32,.05,.12,.07,.25,.07,.41s-.02,.34-.03,.5c0,.16,0,.3,.01,.43s.04,.25,.08,.38c.04,.13,.09,.26,.16,.37,.06,.11,.13,.21,.22,.27s.19,.07,.29,.03,.2-.16,.25-.29c.05-.13,.05-.29,.05-.46,0-.17-.02-.36-.02-.51,0-.16,0-.28,.04-.42,.04-.14,.11-.28,.16-.39,.04-.11,.05-.18,.09-.25,.04-.07,.11-.15,.18-.18,.07-.03,.13-.02,.2,0,.07,.02,.16,.04,.21,.03s.09-.05,.16-.07,.17-.04,.22-.05c.06,0,.07,.01,.12,.02s.15,0,.21-.06c.06-.07,.08-.21,.1-.28,.02-.07,.05-.07,.11-.07s.15,0,.24,0c.09,0,.19,0,.23-.07,.05-.07,.05-.22,.05-.35s0-.24,.06-.37,.18-.27,.24-.39c.05-.12,.04-.21,.02-.3s-.05-.17-.06-.24c-.02-.07-.03-.13-.07-.42-.04-.3-.11-.83-.15-1.19-.04-.37-.04-.57,.01-.77,.05-.21,.14-.42,.18-.59s.02-.29,0-.43c-.01-.14-.02-.3-.06-.43-.04-.13-.11-.22-.14-.34-.03-.11-.03-.25-.03-.4s0-.32,.03-.44c.03-.12,.09-.21,.09-.31s-.06-.21-.09-.33c-.03-.12-.03-.25,.01-.38s.12-.26,.18-.34c.06-.08,.09-.1,.12-.11,.04-.01,.08-.01,.1,0,.02,.01,.02,.04,.03,.09,0,.04,.02,.1,.04,.16s.07,.12,.09,.16,.02,.06,.01,.09c0,.03-.03,.08-.04,.12-.01,.04-.01,.09,0,.14,.01,.05,.03,.11,.06,.16,.02,.05,.05,.08,.09,.09s.11,0,.14-.04c.04-.04,.05-.1,.06-.16,0-.06,0-.1,0-.16,0-.05,.02-.11,.05-.19s.09-.16,.13-.21c.04-.05,.05-.06,.08-.06,.03,0,.06-.01,.15-.03s.23-.06,.32-.07c.09-.01,.13,0,.14,.02,.02,.03,.01,.07,0,.09,0,.03,0,.03,.01,.04,.01,.01,.05,.03,.06,.05,.02,.02,.02,.04,.02,.07s0,.04,0,.06,.02,.03,.04,.05c.02,.02,.05,.03,.08,.03,.03,0,.06-.01,.07-.03,.02-.02,.02-.05,.02-.07s0-.05,0-.07c0-.02,.02-.05,.04-.07,.02-.02,.03-.04,.06-.04,.03,0,.07,0,.1,.01,.03,.01,.05,.04,.05,.06,0,.02,0,.05,.02,.08,.02,.03,.06,.07,.05,.13,0,.06-.06,.12-.07,.17-.01,.04,.01,.06,.04,.08,.03,.02,.05,.04,.06,.08,.01,.04,0,.1,.02,.13s.04,.03,.07,0c.03-.02,.05-.05,.06-.1,.01-.05,.02-.1,.04-.16,.02-.06,.04-.11,.05-.16,0-.05-.02-.11-.01-.15s.04-.08,.08-.1,.06-.03,.1-.03c.04,0,.08,.03,.12,.01,.03-.01,.05-.06,.07-.09,.02-.03,.05-.04,.08-.04s.07,0,.09,0c.03,.01,.05,.03,.06,.08,.02,.05,.03,.12,.04,.18,0,.06,0,.11,0,.15,0,.04,.02,.06,.02,.1,0,.04-.02,.08-.04,.32-.02,.24-.06,.66-.07,.91-.01,.24,0,.3,.03,.38,.03,.08,.09,.19,.12,.3s.03,.23,.01,.35c-.02,.12-.05,.25-.1,.35s-.13,.16-.16,.24c-.04,.08-.04,.16-.02,.26,.01,.1,.04,.2,.08,.54,.03,.34,.07,.91,.11,1.25,.04,.34,.08,.44,.1,.55s.02,.21,0,.4-.06,.46-.09,.64c-.02,.18-.03,.26-.01,.34,.02,.08,.07,.16,.1,.24,.02,.08,.02,.16,.02,.24s0,.16,.02,.22c.02,.06,.05,.1,.09,.13,.03,.03,.07,.06,.13,.07,.06,.01,.15,0,.2,.01,.05,0,.07,0,.1,.02,.03,.02,.07,.05,.1,.07s.04,.04,.15,.05c.11,.01,.31,.03,.5,.02,.18,0,.35-.04,.48-.02,.13,.02,.21,.08,.3,.12,.09,.04,.18,.05,.27,.05,.09,0,.17-.03,.22-.08,.05-.05,.08-.12,.17-.19,.09-.07,.23-.15,.3-.14,.07,0,.07,.11,.06,.28,0,.18-.03,.43-.05,.62-.03,.19-.06,.32-.08,.43-.02,.11-.02,.21,0,.29,.02,.08,.07,.15,.13,.2,.06,.05,.15,.08,.22,.05,.07-.03,.12-.13,.14-.22s.03-.19,.03-.27c0-.08,.02-.13,.07-.18,.04-.05,.11-.08,.18-.12,.07-.04,.14-.08,.17-.13,.04-.05,.04-.12,.03-.2,0-.08-.01-.16,0-.22s.02-.1,.05-.13,.09-.06,.17-.08c.08-.01,.19-.01,.29-.02,.1,0,.19,0,.23-.03s.05-.06,.07-.09c.02-.03,.07-.04,.17-.06,.11-.01,.29-.03,.39-.04,.1-.01,.12-.03,.17-.03,.05,0,.11,0,.17,.01,.06,0,.1,0,.13-.03s.04-.08,.08-.14c.03-.05,.08-.1,.11-.15,.03-.05,.03-.1,.05-.14,.02-.04,.04-.07,.08-.1,.03-.03,.07-.06,.16-.59,.08-.53,.21-1.56,.27-2.2s.07-.91,.07-1.15c0-.24,0-.44-.03-.67s-.09-.49-.15-.73c-.07-.24-.14-.47-.2-.66s-.1-.33-.1-.45,.05-.22,.07-.33c.02-.12,.02-.25-.02-.78s-.14-1.45-.18-2.12c-.04-.67-.03-1.1-.02-1.42,.01-.32,.02-.55,.07-.73,.04-.18,.12-.32,.23-.52,.11-.21,.25-.48,.31-.69,.06-.21,.02-.36-.05-.52s-.18-.32-.24-.46c-.06-.14-.06-.26-.11-.72-.05-.46-.16-1.28-.18-1.77s.01-.66,.07-.81c.05-.15,.11-.27,.19-.42,.07-.15,.16-.33,.16-.49s-.09-.29-.13-.42c-.04-.13-.04-.25-.04-.4s0-.32,.03-.52c.03-.2,.08-.43,.11-.58,.03-.15,.03-.23,0-.32s-.08-.2-.11-.29c-.03-.09-.03-.16-.03-.27s0-.24-.06-.32c-.06-.09-.19-.13-.28-.17s-.14-.05-.22-.08c-.08-.03-.2-.07-.36-.1-.16-.02-.37-.03-.46,.12-.09,.14-.06,.43-.08,.58-.02,.15-.1,.17-.17,.16-.07-.01-.13-.06-.17-.1-.04-.04-.05-.07-.06-.1,0-.03-.01-.06-.05-.08-.04-.02-.11-.04-.15-.05-.04,0-.06,0-.09,0-.03,0-.07-.01-.09-.03-.03-.02-.04-.05-.04-.08,0-.04,0-.08-.03-.14s-.07-.14-.14-.19c-.06-.06-.15-.09-.23-.08-.09,.01-.19,.07-.23,.12-.04,.06-.02,.11-.01,.15,0,.04,0,.06-.02,.1-.03,.04-.08,.09-.13,.13-.05,.04-.11,.08-.14,.11-.03,.04-.02,.07,0,.13,.03,.05,.08,.12,.11,.18,.03,.06,.05,.11,.05,.16,0,.05-.03,.1-.06,.15-.03,.05-.05,.11-.07,.16-.02,.05-.05,.1-.09,.14s-.1,.06-.15,.03-.09-.09-.1-.17c0-.07,.01-.15,.02-.22,0-.07,0-.14-.04-.2-.03-.05-.07-.09-.12-.13-.05-.04-.11-.08-.15-.12-.04-.04-.06-.08-.07-.13s-.02-.1-.07-.18c-.06-.07-.16-.16-.25-.23-.09-.07-.15-.11-.21-.13-.06-.02-.11-.03-.17-.01-.06,.02-.13,.05-.19,.09-.06,.04-.1,.09-.13,.14-.02,.05-.02,.1-.02,.14s0,.07-.03,.09c-.03,.02-.11,.04-.18,.05s-.14,0-.21,.02-.13,.04-.17,.07-.06,.07-.08,.1c-.02,.03-.04,.05-.06,.08s-.02,.05-.03,.09,0,.07,0,.11c0,.04,.01,.07,0,.11s-.04,.09-.08,.16c-.04,.07-.09,.15-.13,.22s-.08,.12-.13,.18-.1,.1-.13,.16-.03,.14-.04,.21c-.02,.08-.05,.16-.07,.25-.02,.09-.04,.19-.06,.28s-.04,.15-.01,.21c.02,.07,.09,.13,.12,.19,.03,.06,.03,.12,.03,.18v.21c0,.09,0,.22-.03,.32-.03,.1-.08,.17-.12,.22s-.05,.09-.03,.14c.03,.05,.1,.11,.16,.16,.06,.05,.11,.09,.15,.13,.04,.04,.06,.08,.02,.16-.05,.08-.17,.2-.25,.28s-.13,.13-.16,.24-.04,.29-.03,.42c0,.12,.03,.19,.05,.24s.04,.1,.05,.18c0,.08,.01,.2,.01,.28s0,.12,.02,.15,.04,.06,.04,.12c0,.06-.02,.14-.03,.21-.02,.07-.03,.13-.04,.19,0,.06,0,.13-.02,.2s-.05,.14-.09,.16-.07,0-.12,0c-.06,0-.14-.01-.19,0-.05,.02-.07,.05-.08,.09,0,.03,0,.07,0,.1,0,.04,.01,.07,0,.11,0,.04-.02,.08-.05,.11-.03,.03-.06,.06-.09,.08-.02,.02-.03,.04-.04,.06s0,.06-.02,.1-.04,.08-.07,.08c-.03,0-.07-.03-.09-.06-.01-.04,0-.08,0-.11s.03-.07,.04-.11c0-.04,0-.09,0-.15s-.02-.12-.02-.18c0-.06,0-.11-.02-.15-.03-.04-.09-.08-.13-.11s-.05-.05-.08-.08c-.03-.02-.08-.05-.12-.06s-.07-.01-.08,.02c-.01,.03,0,.09-.04,.12-.04,.04-.13,.05-.19,.05-.06,0-.08-.02-.11-.01-.03,0-.06,.04-.07,.07-.01,.03,0,.07,0,.09,0,.03,0,.05-.04,.05s-.09,0-.13-.02-.06-.04-.07-.07c-.01-.03-.02-.05-.03-.07-.01-.02-.04-.03-.05,0-.02,.03-.03,.09-.04,.13,0,.04,0,.07-.01,.11,0,.04,0,.09-.02,.15-.02,.05-.05,.11-.08,.15-.03,.04-.06,.07-.07,.11s0,.1,0,.16-.07,.11-.12,.16c-.06,.05-.13,.1-.18,.09s-.1-.08-.11-.14c-.01-.06,0-.1,.03-.14s.07-.08,.1-.13,.03-.11,0-.17c-.02-.06-.08-.12-.1-.18-.02-.07-.01-.14-.02-.21,0-.06-.03-.1-.04-.15,0-.04,0-.09-.02-.12-.02-.03-.06-.05-.1-.05-.04,0-.08,.01-.12,0-.04,0-.09-.02-.12-.05-.03-.03-.05-.09-.07-.13-.02-.04-.03-.06-.05-.1-.02-.04-.06-.11-.08-.17-.02-.06-.02-.12-.04-.2s-.07-.19-.09-.26c-.03-.07-.03-.1-.04-.14s0-.1,0-.4c0-.3,0-.86,.03-1.18,.02-.32,.07-.42,.09-.54s.02-.26,.04-.39c.02-.13,.05-.25,.07-.35s.04-.19,.04-.26c0-.07,.02-.11,0-.18,0-.07-.03-.15-.06-.23-.03-.08-.05-.15-.08-.21-.02-.06-.04-.1-.06-.17-.02-.07-.05-.17-.06-.25s-.03-.16,0-.25c.02-.09,.07-.2,.11-.27,.04-.07,.05-.11,.05-.17s-.02-.12-.06-.17c-.04-.05-.11-.09-.15-.13-.04-.04-.06-.09-.06-.15s.02-.12,0-.17c0-.05-.04-.09-.08-.14-.04-.04-.07-.09-.13-.11-.06-.02-.13,0-.22,.02-.09,.02-.18,.06-.23,.11-.05,.05-.05,.11-.09,.17-.04,.05-.13,.09-.2,.12-.07,.02-.11,.02-.18,.02s-.16-.02-.23-.04c-.08-.02-.14-.05-.31-.12-.17-.07-.44-.2-.59-.26-.15-.06-.18-.07-.28-.08-.1,0-.26-.02-.37,0s-.18,.05-.22,.09c-.04,.04-.04,.07-.06,.1-.01,.02-.03,.04-.07,.06-.04,.02-.11,.05-.16,.07-.05,.02-.08,.04-.09,.08,0,.04,.02,.1,.03,.15,.01,.05,.01,.08,0,.12-.02,.03-.06,.07-.09,.1s-.07,.05-.08,.08c-.02,.03-.01,.07,0,.1s.01,.06,0,.09-.02,.06-.07,.06-.13-.02-.17-.06c-.04-.04-.04-.1-.03-.15,0-.06,.03-.12,.04-.19,0-.07,0-.14,0-.19-.01-.05-.02-.07-.03-.1s0-.06-.03-.09c-.02-.04-.07-.08-.11-.12-.04-.04-.08-.07-.14-.09-.06-.02-.15-.04-.23-.02s-.17,.06-.22,.1-.04,.07-.08,.09-.1,.04-.15,.05c-.05,0-.08,0-.12,0-.05-.01-.1-.03-.16-.04-.05-.01-.1-.01-.17,0-.07,0-.16,.02-.2,.04s-.05,.04-.04,.1c0,.06,.02,.14,.02,.21s-.03,.11-.03,.17c0,.05,0,.12,0,.18s-.02,.13-.04,.18-.06,.09-.1,.16c-.03,.07-.06,.17-.08,.27-.02,.1-.04,.2-.06,.27-.02,.07-.05,.11-.07,.17-.01,.05-.01,.12-.01,.19s0,.14-.01,.22-.04,.16-.06,.24-.04,.15-.02,.21c.01,.06,.06,.11,.08,.16s.02,.07,.02,.1,0,.06-.02,.1c-.02,.04-.06,.09-.08,.13-.02,.04-.03,.08,0,.14,.02,.05,.06,.12,.11,.2,.05,.08,.11,.17,.11,.24s-.06,.13-.09,.18-.03,.08-.03,.11,0,.06,.05,.28c.05,.21,.15,.61,.2,.83,.05,.21,.05,.24,.07,.33,.02,.09,.05,.25,.06,.38,0,.13,0,.25-.01,.36,0,.11,.01,.22,.02,.38,.01,.16,.03,.36,.01,.5-.01,.15-.06,.24-.08,.33-.02,.09-.03,.18-.08,.3s-.15,.25-.19,.37c-.05,.12-.05,.23-.05,.37v.49c0,.18,0,.38-.06,.6-.06,.22-.19,.45-.24,.65-.05,.2-.03,.35,0,.5,.02,.15,.04,.28,.04,.44,0,.16,0,.34,0,.52s0,.34,.05,.53,.13,.39,.12,.65-.12,.57-.16,.82c-.04,.25-.02,.42,.08,.77,.1,.34,.28,.84,.36,1.15,.09,.31,.08,.42,.09,.56s.03,.3,.02,.46c0,.17-.05,.33-.08,.48-.03,.15-.06,.28-.06,.41s.04,.26,.02,.39c-.02,.13-.1,.26-.14,.69-.04,.43-.04,1.17-.09,1.67Z"/><polygon class="cls-20" points="202.5 6.48 202.5 4.91 186.22 4.91 186.22 6.48 197.36 6.48 197.36 26.71 198.75 26.71 198.75 6.48 202.5 6.48"/><path class="cls-24" d="M193.11,13.67c.76-.39,1.37-.41,2.15-.07,.42,.39,.31,1.07-.21,1.31-.66,.4-1.16,.41-1.83,.02-.47-.27-.52-.92-.11-1.27Z"/><path class="cls-24" d="M200.28,12.79c.66-.34,1.21-.36,1.89-.06,.37,.34,.27,.94-.18,1.15-.58,.35-1.02,.36-1.61,.02-.41-.24-.46-.81-.1-1.11Z"/><path class="cls-24" d="M187.6,14.64c.86-.44,1.56-.46,2.44-.07,.47,.44,.35,1.22-.24,1.49-.74,.45-1.32,.46-2.07,.02-.53-.3-.59-1.04-.13-1.44Z"/><path class="cls-40" d="M211.83,25.23c-1.6-1.94-3.38-3.1-5.8-3.79-1.14,1.58-.63,3.69,.98,4.72,1.6,1.01,3.71,.61,4.82-.93Z"/><path class="cls-5" d="M206.03,21.44c2.42,.68,4.2,1.85,5.8,3.79,.85-1.67,.85-2.99,0-4.65-.38-.67-.84-.99-1.6-1.12-1.37,.73-2.77,1.39-4.2,1.98Z"/><path class="cls-38" d="M214.68,25.24c.96,1.13,2.45,1.67,3.91,1.41,.72-1.13,1.54-2.16,2.48-3.11v-2.1c-2.67,.57-4.61,1.73-6.39,3.8Z"/><path class="cls-40" d="M211.83,20.57c.43-.54,.85-.71,1.53-.58,.37-.98,.9-1.75,1.68-2.44-.23-.19-.45-.38-.67-.58-1.34,.9-2.72,1.72-4.14,2.48,.76,.13,1.22,.45,1.6,1.12Z"/><path class="cls-40" d="M214.68,25.24c1.78-2.07,3.72-3.22,6.39-3.8v-.74c-1.08-.31-2.11-.73-3.12-1.24-1.39,.32-2.38,.95-3.27,2.06v3.73Z"/><path class="cls-40" d="M216.19,15.69c1.49,1.1,3.05,1.93,4.81,2.53-.93-1.56-2.08-2.59-3.72-3.35-.36,.28-.72,.55-1.08,.82Z"/><path class="cls-38" d="M214.68,21.51c.89-1.11,1.88-1.73,3.27-2.06-1.04-.54-1.99-1.16-2.9-1.9-.79,.69-1.32,1.46-1.68,2.44,.74,.13,1.29,.76,1.31,1.52Z"/><path class="cls-5" d="M214.37,16.97c1.99,1.79,4.12,2.97,6.69,3.72,0-.82,.1-1.64-.07-2.47-1.75-.6-3.32-1.43-4.81-2.53-.6,.44-1.2,.87-1.82,1.28Z"/><path class="cls-38" d="M206.03,7.96c3.95-.71,7.77-1.72,11.55-3.05h-6.92c-.37,0-3.07-.04-3.45,.1-1.57,.55-1.18,1.75-1.18,2.95Z"/><path class="cls-38" d="M206.03,12.21c4.86-2.09,9.81-3.71,14.96-4.9,.09-.41,0-.66-.35-.89-4.83,1.25-9.69,2.33-14.6,3.22-.26,.89-.26,1.68,0,2.57Z"/><path class="cls-38" d="M206.03,21.44c4.09-1.69,7.77-3.84,11.25-6.57,1.11-.61,2.14-1.31,3.11-2.12,.92-.77,.68-2.68,.68-3.56-4.81,2.99-9.79,5.51-15.04,7.64-1,1.38-1,3.24,0,4.61Z"/><path class="cls-5" d="M217.58,4.91c-3.78,1.33-7.61,2.34-11.55,3.05-.51,.61-.51,1.07,0,1.68,4.91-.9,9.77-1.97,14.6-3.22-.79-1.18-1.64-1.6-3.05-1.5Z"/><path class="cls-5" d="M220.99,7.31c-5.15,1.19-10.1,2.82-14.96,4.9-.77,1.64-.77,2.97,0,4.62,5.25-2.12,10.22-4.65,15.04-7.64,.45-.7,.43-1.22-.08-1.88Z"/><path class="cls-40" d="M218.58,26.65c.8-.14,1.44-.44,2.06-.98,.75-.66,.42-1.38,.42-2.13-.94,.95-1.76,1.98-2.48,3.11Z"/><path class="cls-15" d="M15.58,26.24c-1.7,.75-3.05,.72-4.71-.12-.37-.18-.7-.4-1.02-.66-.11-.09-.23-.19-.33-.3-.22-.21-.18-.45-.18-.7-.02-.81-.05-1.62-.07-2.43,2.14-.84,2.3-.8,2.48-.69,.18,.11,.37,.3,.5,.54s.2,.54,.27,.78c.08,.24,.16,.43,.36,.58s.51,.27,.74,.32c.23,.05,.39,.04,.57,.04,.18,0,.38,.02,.55,.1,.16,.07,.29,.2,.34,.4,.05,.2,.03,.47,.01,.67s-.02,.33,.07,.57c.09,.24,.29,.59,.42,.9Z"/><path class="cls-15" d="M19.26,24.45c.94-.93,1.14-1.07,1.38-1.11s.52-.01,.76,.11,.43,.34,.58,.51c.15,.17,.26,.3,.47,.35s.5,.01,.73-.21,.37-.64,.49-.93,.22-.48,.38-.66c.16-.18,.4-.36,.62-.49,.23-.13,.45-.21,.65-.25s.4-.05,.59-.02c.19,.04,.39,.12,.55,.21,.16,.09,.3,.18,.45,.26,.15,.08,.31,.16,.46,.19s.27,.02,.69-.1c-.02,.52-.03,1.04-.05,1.56-.02,.51,.12,1-.36,1.42-.83,.74-1.69,1.15-2.79,1.33-1.1,.18-2.05,.06-3.07-.38-.49-.21-.92-.48-1.33-.82-.4-.33-.67-.78-1.2-.99Z"/><path class="cls-15" d="M28.27,15.04c-.6-.57-.7-.81-.74-1.03-.03-.22,0-.42,.06-.61,.03-.11,.06-.22,.08-.34,.02-.03,.05-.05,.07-.07,.06-.05,.09-.08,.13-.12,.13-.13,.34-.25,.46-.47-.01,.88-.03,1.76-.05,2.64Z"/><path class="cls-15" d="M16.38,13.93c.8-1.15,2.34-1.53,3.58-.88,.65,.34,1.05,.78,1.31,1.47,.03,.07,.05,.14,.07,.21,.02,.07,.05,.34,.05,.2,0-.19,.01-.37,.02-.56,0-.34,.02-.67,.03-1.01,.1,.26,.15,.33,.23,.45,.08,.11,.18,.27,.24,.42s.05,.31,.05,.48-.01,.37-.05,.52c-.04,.15-.1,.27-.21,.38-.11,.11-.27,.22-.45,.26-.18,.04-.37,.02-.53-.01-.16-.04-.27-.09-.45-.11-.18-.02-.43,0-.61,.09s-.3,.24-.45,.37c-.15,.12-.32,.22-.55,.25-.23,.03-.52,0-.73-.05-.21-.05-.34-.12-.44-.21-.1-.09-.16-.2-.2-.37-.04-.17-.06-.4,.02-.63,.08-.23,.26-.47-.93-1.3Z"/><path class="cls-11" d="M22.64,17.24c.24-.1,.43-.17,.75-.12,.33,.04,.8,.19,1.11,.26s.48,.04,.67,.03,.41,.02,.72,.2c.31,.18,.72,.52,.95,.78s.28,.44,.23,.7c-.04,.26-.18,.59-.36,.81s-.39,.31-.61,.31-.43-.1-.76-.04c-.33,.06-.77,.28-1.17,.45-.4,.17-.75,.29-1.04,.32-.3,.03-.55-.03-.72-.17-.18-.13-.29-.34-.33-.54-.04-.2-.03-.4-.07-.61-.04-.22-.14-.45-.22-.71s-.14-.56-.13-.78c0-.23,.08-.38,.26-.52,.18-.14,.48-.26,.72-.36Z"/><path class="cls-15" d="M23.16,7.11c-.15-1.39,.11-2.51,.87-3.69-.68,.16-1.28,.42-1.85,.83-.53,.85-.89,1.74-1.11,2.72,.58,.54,1.45,.59,2.09,.14Z"/><path class="cls-15" d="M28.12,6.8c-.41-1.21-.95-2.31-1.66-3.37-.38-.09-.76-.14-1.15-.15,.52,1.18,.73,2.32,.67,3.6,.65,.48,1.54,.45,2.15-.08Z"/><path class="cls-29" d="M21.06,6.97c.21-.98,.57-1.87,1.11-2.72-.58,.41-1.03,.89-1.41,1.49-.18,.29-.34,.6-.46,.92-.16,.41,.46,.46,.77,.31Z"/><path class="cls-29" d="M24.03,3.42c-.76,1.18-1.02,2.29-.87,3.69,.89,.53,2.02,.44,2.81-.22,.06-1.28-.15-2.42-.67-3.6-.43,0-.85,.04-1.27,.13Z"/><path class="cls-29" d="M28.12,6.8c.61,.19,1.17,.2,1.79,.04,.42-.11,.11-.43-.01-.67-.14-.27-.3-.53-.48-.77-.79-1.06-1.68-1.65-2.96-1.96,.71,1.06,1.26,2.16,1.66,3.37Z"/><path class="cls-34" d="M25.73,3.31c.19-.51,.47-.8,.98-.99,.35-.13,0-.38-.13-.56-.14-.2-.31-.36-.51-.5-.41-.29-.91,.45-1.09,.71-.29,.43-.41,.84-.41,1.36,.39-.05,.77-.05,1.15-.01Z"/><path class="cls-11" d="M16.61,18.74c.33,.07,.5,.09,.77,.12,.27,.03,.63,.06,.95,.17,.32,.11,.59,.31,.82,.56s.4,.55,.44,.82c.03,.28-.08,.53-.24,.78-.16,.25-.37,.51-.6,.82-.23,.31-.48,.69-.87,.78-.39,.1-.93-.09-1.25-.32-.32-.23-.42-.51-.57-.72-.15-.21-.34-.35-.63-.54-.29-.19-.69-.42-.97-.71-.29-.29-.46-.64-.5-.97-.04-.32,.05-.62,.3-.81,.25-.18,.66-.25,1.1-.23,.45,.03,.94,.16,1.27,.23Z"/><path class="cls-15" d="M23.59,7.31c.06,.46,.18,.51,.32,.55,.14,.05,.3,.09,.46,.16,.16,.07,.3,.16,.44,.23,.14,.07,.27,.13,.42,.14s.32,0,.45,0c.13,0,.24,0,.33,.01s.18,.02,.33,.04c.14,.02,.34,.06,.47,.08,.13,.02,.19,.03,.28,.06s.2,.07,.29,.18c.1,.1,.18,.26,.24,.43,.06,.17,.1,.36,.17,.54,.07,.18,.18,.34,.59,1.38,.04-1.4,.08-2.8,.12-4.2-.13-.02-.26-.06-.39-.09-.61,.53-1.5,.57-2.15,.08-.77,.65-1.43,.76-2.38,.43Z"/><path class="cls-15" d="M9.04,14.53c1.05-.25,1.31-.31,1.49-.38s.28-.15,.41-.25c.13-.1,.27-.2,.36-.39,.09-.18,.11-.44,.13-.63,.02-.19,.03-.33,.05-.5,.01-.17,.03-.37,.11-.56,.08-.19,.23-.36,.37-.49,.13-.13,.25-.21,.37-.32,.12-.11,.23-.24,.31-.34,.08-.11,.12-.19,.17-.32,.05-.13,.1-.29,.06-.58-1.27,.55-2.57,.96-3.92,1.26,.03,1.16,.07,2.33,.1,3.49Z"/><path class="cls-37" d="M27.73,12.99c-.05,0-.04,.05-.04,.08-.05,.15-.08,.24-.1,.33-.05,.19-.09,.39-.06,.61,.03,.22,.14,.46,.74,1.03-.07,2.43-.14,4.85-.21,7.28-.42,.12-.54,.13-.69,.1s-.31-.11-.46-.19c-.15-.08-.28-.18-.45-.26-.16-.09-.36-.17-.55-.21-.19-.04-.38-.03-.59,.02s-.43,.12-.65,.25c-.23,.13-.46,.31-.62,.49-.16,.18-.26,.36-.38,.66s-.26,.71-.49,.93-.52,.26-.73,.21-.32-.17-.47-.35c-.15-.17-.34-.39-.58-.51s-.52-.16-.76-.11-.44,.18-1.38,1.11c-.85-.33-1.35-.06-1.93,.55-.51,.54-1.08,.93-1.75,1.23-.13-.31-.32-.66-.42-.9-.09-.24-.09-.37-.07-.57s.04-.47-.01-.67c-.05-.2-.18-.33-.34-.4-.16-.07-.37-.1-.55-.1-.18,0-.34,.01-.57-.04-.23-.05-.54-.17-.74-.32s-.29-.34-.36-.58c-.08-.24-.14-.54-.27-.78s-.32-.43-.5-.54c-.18-.11-.34-.15-2.48,.69-.07-2.5-.15-4.99-.22-7.49,1.05-.25,1.31-.31,1.49-.38s.28-.15,.41-.25c.13-.1,.27-.2,.36-.39,.09-.18,.11-.44,.13-.63,.02-.19,.03-.33,.05-.5,.01-.17,.03-.37,.11-.56,.08-.19,.23-.36,.37-.49,.13-.13,.25-.21,.37-.32,.12-.11,.23-.24,.31-.34,.08-.11,.12-.19,.17-.32,.05-.13,.1-.29,.06-.58,1-.43,1.96-.93,2.88-1.51,.04,1.3,.08,2.59,.11,3.89,.02,.65,.04,1.3,.06,1.95,0,.23-.06,1.15,.06,.7,.08-.32,.22-.61,.41-.88,1.19,.83,1.01,1.06,.93,1.3-.08,.23-.06,.46-.02,.63,.04,.17,.1,.28,.2,.37,.1,.09,.23,.16,.44,.21,.21,.05,.5,.08,.73,.05,.23-.03,.4-.13,.55-.25,.15-.13,.27-.28,.45-.37s.43-.11,.61-.09c.18,.02,.3,.07,.45,.11,.16,.04,.35,.06,.53,.01,.18-.04,.34-.15,.45-.26,.11-.11,.17-.22,.21-.38,.04-.15,.04-.35,.05-.52s0-.33-.05-.48-.16-.31-.24-.42c-.08-.11-.14-.19-.23-.45,.06-2.02,.12-4.04,.18-6.06,.59,.22,1.03,.16,1.54-.2,.14,.08,.28,.15,.43,.2,.06,.46,.18,.51,.32,.55,.14,.05,.3,.09,.46,.16,.16,.07,.3,.16,.44,.23,.14,.07,.27,.13,.42,.14s.32,0,.45,0c.13,0,.24,0,.33,.01s.18,.02,.33,.04c.14,.02,.34,.06,.47,.08,.13,.02,.19,.03,.28,.06s.2,.07,.29,.18c.1,.1,.18,.26,.24,.43,.06,.17,.1,.36,.17,.54,.07,.18,.18,.34,.59,1.38-.01,.43,.03,.87-.06,1.3-.12,.22-.32,.34-.46,.47-.05,.04-.08,.09-.13,.12Z"/><path class="cls-15" d="M22.64,17.24c-.24,.1-.54,.22-.72,.36-.18,.14-.25,.3-.26,.52,0,.23,.05,.52,.13,.78s.18,.5,.22,.71c.04,.22,.02,.41,.07,.61,.04,.2,.15,.4,.33,.54,.18,.13,.43,.2,.72,.17,.3-.03,.65-.15,1.04-.32,.4-.17,.84-.39,1.17-.45,.33-.06,.55,.04,.76,.04s.43-.09,.61-.31,.32-.55,.36-.81c.04-.26,0-.44-.23-.7s-.64-.6-.95-.78c-.31-.18-.53-.2-.72-.2s-.36,.03-.67-.03-.79-.22-1.11-.26c-.33-.04-.51,.03-.75,.12Z"/><path class="cls-15" d="M16.61,18.74c-.33-.07-.82-.2-1.27-.23-.45-.03-.85,.04-1.1,.23-.25,.18-.35,.48-.3,.81,.04,.32,.22,.67,.5,.97,.29,.29,.68,.53,.97,.71,.29,.19,.48,.33,.63,.54,.15,.21,.25,.49,.57,.72,.32,.23,.86,.42,1.25,.32,.39-.1,.64-.47,.87-.78,.23-.31,.44-.57,.6-.82,.16-.25,.28-.51,.24-.78-.03-.28-.21-.57-.44-.82s-.5-.44-.82-.56c-.32-.11-.68-.15-.95-.17-.27-.03-.44-.04-.77-.12Z"/><path class="cls-16" d="M11.12,6.48c.24-.1,.47-.19,.71-.29,.11,.26,.21,.52,.32,.78-.14,.06-.27,.11-.41,.17-.14,.05-.23,.21-.42,.12-.2-.1-.46-.67-.2-.78Z"/><path class="cls-23" d="M12.59,5.14c-.14-.17-.58,.12-.69,.17-.24,.11-.47,.23-.7,.35-.18,.09-1.21,.55-1.19,.89-.66,.35-1.33,.69-2,1.02-.13-.67-.16-1.32-.09-2,.01-.14-.12-.11-.19-.15-.07-.05-.13-.1-.2-.15-.13-.1-.26-.21-.38-.33-.12-.11-.24-.23-.36-.35-.16-.16-.29,0-.28,.19,0,.24,.25,.03,.36,.14,.17,.18,.04,.31-.06,.47-.1,.17-.24,.2-.42,.23-.08,.01-.17,.02-.25,.02-.08,0-.22,.12-.24-.03-.08-.73,.05-1.3,.45-1.92,.48-.74,1.16-.52,1.81-.62,.66-.1,1.33-.18,1.99-.25,1-.1,2.92,1.14,3.58,1.66-.38,.23-.77,.45-1.15,.67Z"/><path class="cls-23" d="M8.31,8.89c.13,.27,.32,.2,.54,.14,.23-.06,.45-.12,.68-.19,.45-.14,.89-.3,1.33-.47,.28,.27,1.26-.44,1.45-.54,.24-.13,.48-.26,.71-.39,.12-.07,.61-.26,.54-.48,.27-.17,1.61-.85,1.46-1.38,.89-.36,1.76-.74,2.63-1.15,.44-.21,.93-.7,1.23,0,.24,.56-.02,.93-.24,1.38-.6,1.21-3.51,2.87-4.53,3.39-1.73,.88-3.5,1.5-5.39,1.9-.47,.1-.94,.16-1.42,.16-.24,0-.48-.02-.71-.02-.29,.01-.61-.11-.38-.41,.6-.78,1.41-1.29,2.11-1.94Z"/><path class="cls-16" d="M12.59,5.14c.4-.23,.79-.45,1.19-.69,.43-.25,.84,.3,1.02,.6,.12,.2,.21,.4,.26,.63,.07,.32-.2,.35-.37,.49-.36,.28-.73,.54-1.12,.79-.05-.16-.11-.33-.18-.48,.29-.12,.2-.32,.11-.54-.1-.25-.25-.31-.5-.21-.13-.2-.26-.4-.41-.58Z"/><path class="cls-16" d="M10.01,6.55c.05,.75,.3,1.29,.85,1.82-.5,.2-1.01,.38-1.54,.53-.76,.22-.86,.49-1.18-.41-.3-.83-.42-.78,.42-1.2,.48-.24,.97-.49,1.45-.74Z"/><path class="cls-22" d="M11.83,6.19c.38-.15,1.41-.91,1.69-.23,.28,.69-1,.86-1.37,1.01-.11-.26-.21-.52-.32-.78Z"/><path class="cls-22" d="M13.39,6.47c.08,.19,.15,.38,.2,.57,.05,.16-.39,.29-.46,.33-.35,.2-.7,.4-1.06,.58-1.17,.59-1.21,.9-1.81-.46-.58-1.29-.24-1.19,.83-1.78,.36-.19,.72-.37,1.09-.53,.18-.08,.33-.17,.49,.03,.12,.16,.24,.32,.34,.5-.63,.25-1.26,.51-1.88,.76-.29,.12,.06,.55,.12,.7,.12,.29,.54-.06,.7-.12,.48-.19,.96-.39,1.45-.58Z"/><path class="cls-31" d="M47.04,11.48c-.27-6.91-9.47-9.07-12.78-3-.44,.81-.7,1.63-.8,2.54-.22,2.06-.13,4.11-.18,6.17l-.11,4.28-.06,2.14c-.02,.83-.23,1.59,.53,2.3,1.17,1.1,1.33-1.57,2.56-.88,.51,.29,.78,1.5,1.35,.53,.15-.26,.18-.61,.61-.55,.37,.05,.33,.39,.49,.59,.62,.8,.78-.93,.96-1.43,.12-.32,.52-.7,.86-.45,.29,.2,.23,.62,.62,.76,.49,.18,.53-.39,.87-.48,.54-.15,.55,.31,.63,.69,.07,.35-.06,.71,.24,1.04,.21,.23,.84,.13,1-.13,.22-.36,.4-.94,.89-.51,.32,.28,.16,.74,.51,1.01,.52,.41,.62-.34,.9-.56,.5-.41,.63,.22,.8,.6,.03,.08,.05,.16,.13,.21,.23,.15,.19-.2,.25-.34,.24-.67,.05-1.28,.04-1.93-.03-1.25-.06-2.5-.1-3.74-.08-2.95-.15-5.91-.23-8.86Z"/></g><g id="Hatch"><line class="cls-6" x1="92.21" y1="19.81" x2="104.43" y2="15.37"/><line class="cls-6" x1="94.78" y1="24.09" x2="94.63" y2="23.69"/><line class="cls-6" x1="95.21" y1="20.31" x2="95.07" y2="19.91"/><line class="cls-6" x1="95.79" y1="21.91" x2="95.65" y2="21.51"/><line class="cls-6" x1="96.37" y1="23.51" x2="96.23" y2="23.11"/><line class="cls-6" x1="96.81" y1="19.73" x2="96.72" y2="19.49"/><line class="cls-6" x1="98.99" y1="20.74" x2="98.85" y2="20.34"/><line class="cls-6" x1="99.57" y1="22.34" x2="99.43" y2="21.94"/><line class="cls-6" x1="100.59" y1="20.16" x2="100.44" y2="19.76"/><line class="cls-6" x1="101.17" y1="21.76" x2="101.03" y2="21.36"/><line class="cls-6" x1="101.73" y1="23.29" x2="101.61" y2="22.96"/><line class="cls-6" x1="102.19" y1="19.58" x2="102.04" y2="19.18"/><line class="cls-6" x1="102.77" y1="21.18" x2="102.63" y2="20.78"/><line class="cls-6" x1="103.35" y1="22.78" x2="103.21" y2="22.38"/><line class="cls-6" x1="96.54" y1="19.6" x2="96.91" y2="19.47"/><line class="cls-6" x1="94.94" y1="20.18" x2="95.34" y2="20.04"/><line class="cls-6" x1="93.34" y1="20.76" x2="93.74" y2="20.62"/><line class="cls-6" x1="92.01" y1="21.47" x2="91.87" y2="21.07"/><line class="cls-6" x1="92.59" y1="23.07" x2="92.45" y2="22.67"/><line class="cls-6" x1="93.61" y1="20.89" x2="93.47" y2="20.49"/><line class="cls-6" x1="91.74" y1="21.35" x2="92.14" y2="21.2"/><line class="cls-6" x1="101.92" y1="19.45" x2="102.32" y2="19.31"/><line class="cls-6" x1="100.32" y1="20.03" x2="100.72" y2="19.89"/><line class="cls-6" x1="98.72" y1="20.62" x2="99.12" y2="20.47"/><line class="cls-6" x1="97.44" y1="21.08" x2="97.52" y2="21.05"/><line class="cls-6" x1="95.52" y1="21.78" x2="95.92" y2="21.64"/><line class="cls-6" x1="93.92" y1="22.36" x2="94.32" y2="22.22"/><line class="cls-6" x1="92.32" y1="22.94" x2="92.72" y2="22.8"/><line class="cls-6" x1="102.5" y1="21.05" x2="102.9" y2="20.91"/><line class="cls-6" x1="100.9" y1="21.63" x2="101.3" y2="21.49"/><line class="cls-6" x1="99.3" y1="22.22" x2="99.7" y2="22.07"/><line class="cls-6" x1="96.1" y1="23.38" x2="96.5" y2="23.23"/><line class="cls-6" x1="94.5" y1="23.96" x2="94.9" y2="23.82"/><line class="cls-6" x1="103.08" y1="22.65" x2="103.48" y2="22.51"/><line class="cls-6" x1="101.48" y1="23.23" x2="101.88" y2="23.09"/><line class="cls-6" x1="90.42" y1="17.09" x2="90.11" y2="16.24"/><line class="cls-6" x1="90.98" y1="17.4" x2="90.41" y2="15.84"/><line class="cls-6" x1="91.49" y1="17.55" x2="90.73" y2="15.46"/><line class="cls-6" x1="92.32" y1="19.82" x2="92" y2="18.94"/><line class="cls-6" x1="91.97" y1="17.61" x2="91.05" y2="15.11"/><line class="cls-6" x1="92.77" y1="19.81" x2="92.02" y2="17.75"/><line class="cls-6" x1="93.22" y1="19.81" x2="91.39" y2="14.77"/><line class="cls-6" x1="93.66" y1="19.79" x2="91.72" y2="14.46"/><line class="cls-6" x1="94.11" y1="19.77" x2="92.16" y2="14.42"/><line class="cls-6" x1="94.55" y1="19.74" x2="92.61" y2="14.4"/><line class="cls-6" x1="94.99" y1="19.7" x2="93.05" y2="14.38"/><line class="cls-6" x1="95.43" y1="19.66" x2="94.24" y2="16.4"/><line class="cls-6" x1="95.86" y1="19.61" x2="94.77" y2="16.6"/><line class="cls-6" x1="96.29" y1="19.56" x2="95.09" y2="16.26"/><line class="cls-6" x1="96.72" y1="19.49" x2="95.33" y2="15.66"/><line class="cls-6" x1="97.15" y1="19.42" x2="95.73" y2="15.52"/><line class="cls-6" x1="97.58" y1="19.35" x2="96.37" y2="16.04"/><line class="cls-6" x1="98" y1="19.27" x2="96.85" y2="16.1"/><line class="cls-6" x1="98.42" y1="19.18" x2="96.92" y2="15.07"/><line class="cls-6" x1="98.84" y1="19.09" x2="97.1" y2="14.3"/><line class="cls-6" x1="99.26" y1="18.99" x2="97.55" y2="14.3"/><line class="cls-6" x1="99.67" y1="18.88" x2="97.96" y2="14.19"/><line class="cls-6" x1="100.08" y1="18.77" x2="98.34" y2="13.97"/><line class="cls-6" x1="100.49" y1="18.65" x2="98.67" y2="13.64"/><line class="cls-6" x1="100.9" y1="18.53" x2="98.93" y2="13.12"/><line class="cls-6" x1="101.31" y1="18.4" x2="99.16" y2="12.51"/><line class="cls-6" x1="101.71" y1="18.26" x2="99.63" y2="12.54"/><line class="cls-6" x1="101.94" y1="17.66" x2="100.09" y2="12.56"/><line class="cls-6" x1="102.29" y1="17.38" x2="100.54" y2="12.56"/><line class="cls-6" x1="102.67" y1="17.18" x2="100.99" y2="12.55"/><line class="cls-6" x1="103.04" y1="16.94" x2="101.43" y2="12.52"/><line class="cls-6" x1="103.39" y1="16.66" x2="101.87" y2="12.48"/><line class="cls-6" x1="103.72" y1="16.33" x2="102.3" y2="12.42"/><line class="cls-6" x1="104.04" y1="15.96" x2="102.72" y2="12.34"/><line class="cls-6" x1="104.34" y1="15.53" x2="103.14" y2="12.25"/><line class="cls-6" x1="104.6" y1="15.02" x2="103.56" y2="12.15"/><line class="cls-6" x1="104.83" y1="14.41" x2="103.97" y2="12.03"/><line class="cls-6" x1="105" y1="13.63" x2="104.37" y2="11.9"/><line class="cls-6" x1="105.01" y1="12.4" x2="104.77" y2="11.76"/><line class="cls-6" x1="91.54" y1="14.63" x2="92.11" y2="14.42"/><line class="cls-6" x1="90.84" y1="15.34" x2="93.13" y2="14.5"/><line class="cls-6" x1="98.99" y1="12.82" x2="99.74" y2="12.55"/><line class="cls-6" x1="90.3" y1="15.99" x2="93.26" y2="14.91"/><line class="cls-6" x1="98.85" y1="13.33" x2="100.98" y2="12.55"/><line class="cls-6" x1="89.87" y1="16.59" x2="93.43" y2="15.3"/><line class="cls-6" x1="98.35" y1="13.96" x2="102.89" y2="12.31"/><line class="cls-6" x1="96.86" y1="14.5" x2="97.38" y2="14.31"/><line class="cls-6" x1="90.21" y1="16.92" x2="93.64" y2="15.67"/><line class="cls-6" x1="96.92" y1="14.93" x2="104.94" y2="12.01"/><line class="cls-6" x1="90.63" y1="17.22" x2="93.9" y2="16.03"/><line class="cls-6" x1="96.93" y1="15.38" x2="105.01" y2="12.44"/><line class="cls-6" x1="95.23" y1="16" x2="96" y2="15.72"/><line class="cls-6" x1="91.19" y1="17.47" x2="94.21" y2="16.37"/><line class="cls-6" x1="96.89" y1="15.85" x2="105.04" y2="12.88"/><line class="cls-6" x1="94.68" y1="16.65" x2="96.37" y2="16.04"/><line class="cls-6" x1="92.02" y1="17.62" x2="94.58" y2="16.69"/><line class="cls-6" x1="96.8" y1="16.34" x2="105.03" y2="13.34"/><line class="cls-6" x1="92.01" y1="18.08" x2="96.71" y2="16.37"/><line class="cls-6" x1="92" y1="18.53" x2="104.98" y2="13.81"/><line class="cls-6" x1="92" y1="18.99" x2="104.87" y2="14.3"/><line class="cls-6" x1="99.97" y1="18.8" x2="101.94" y2="18.08"/><line class="cls-6" x1="96.91" y1="19.47" x2="101.94" y2="17.63"/><line class="cls-6" x1="95.02" y1="19.7" x2="103.4" y2="16.65"/><line class="cls-6" x1="93.51" y1="19.8" x2="104.04" y2="15.96"/><line class="cls-6" x1="91.99" y1="19.44" x2="104.69" y2="14.82"/><line class="cls-6" x1="94.19" y1="22.49" x2="94.05" y2="22.09"/></g><g id="Dark_Line"><rect class="cls-14" x="22.11" y="11.25" width="5.63" height="1.86" rx=".25" ry=".25"/><rect class="cls-14" x="56.73" y="8.84" width="5.51" height="1.52" rx=".5" ry=".5"/><path class="cls-9" d="M200.65,14.02c-.21,.58-.14,.99,.24,1.48,.24-.48,.26-.89,.09-1.39"/><path class="cls-12" d="M71.53,6.25c.07-.81,.4-1.17,1.2-1.34h12.56c.79,.16,1.12,.53,1.2,1.34v2.35c-.07,.81-.4,1.17-1.2,1.34h-6.71c-.79,.16-1.12,.53-1.2,1.34v.09c.07,.81,.4,1.17,1.2,1.34h2.88c.79,.16,1.12,.53,1.2,1.34v.88c-.07,.81-.4,1.17-1.2,1.34h-2.88c-.79,.16-1.12,.53-1.2,1.34v.09c.07,.81,.4,1.17,1.2,1.34h6.71c.79,.16,1.12,.53,1.2,1.34v5.03c-.07,.81-.4,1.17-1.2,1.34h-12.56c-.79-.16-1.12-.53-1.2-1.34V6.25Z"/><polyline class="cls-9" points="71.73 5.64 72.59 6.69 73.19 5.28 73.54 5.94 73.9 5.37 74.83 6.48 76.4 5.45 78.99 6.79 80.31 5.82 80.62 6.5 80.87 5.59 81.29 6.49 81.69 5.63 82.91 6.32 83.34 5.62 85 6.38 86.35 5.76"/><path class="cls-9" d="M71.53,8.61c.24,3.82,2.14,7.35,5.2,9.65,.45,.3,.92,.5,1.45,.6"/><path class="cls-10" d="M71.78,11.44c.16-.08,.28-.18,.39-.32"/><path class="cls-10" d="M72.67,14.21c.11-.4,.3-.7,.62-.98"/><path class="cls-10" d="M74.43,16.66c.14-.25,.32-.44,.56-.6"/><path class="cls-10" d="M75.89,18.12c.14-.25,.32-.44,.56-.6"/><path class="cls-10" d="M73.03,22.35c.21-.31,.36-.64,.45-1"/><path class="cls-10" d="M74.71,23.93c.31-.28,.54-.59,.71-.98"/><path class="cls-10" d="M75.87,25.28c.25-.11,.45-.26,.63-.46"/><path class="cls-10" d="M82.16,25.17c.51-.18,.99-.42,1.45-.71"/><path class="cls-10" d="M80.62,22.62c.54-.04,1.05-.16,1.55-.37"/><path class="cls-10" d="M79.91,20.23c.55,0,1.08-.07,1.61-.2"/><path class="cls-9" d="M85.1,26.71c-2.7-1.65-4.38-4.55-4.49-7.71"/><path class="cls-9" d="M71.53,20.95c2.58,1,4.55,3.12,5.35,5.77"/><rect class="cls-3" x="74.5" y="14.11" width="1.84" height="1.63"/><rect class="cls-3" x="77.97" y="14.92" width="1.84" height=".81"/><line class="cls-9" x1="73.39" y1="15.73" x2="81.21" y2="15.73"/><line class="cls-9" x1="72.81" y1="7.22" x2="85.21" y2="7.22"/><circle cx="82.32" cy="8.48" r="1.1"/><circle cx="75.7" cy="8.48" r="1.1"/><polyline class="cls-9" points="71.53 13.31 70.4 13.31 70.4 15.62 71.53 15.62"/><rect class="cls-7" x="69.82" y="13.89" width=".58" height="1.16"/><rect class="cls-7" x="83.79" y="13.89" width=".58" height="1.16"/><polyline class="cls-9" points="82.39 13.31 83.79 13.31 83.79 15.62 82.39 15.62"/><path class="cls-10" d="M169.77,7.31c-.22-.24-.42-.49-.61-.75"/><path class="cls-10" d="M168.84,7.79c-.35-.23-.62-.51-.84-.87"/><path class="cls-10" d="M166.78,9.22c-.36-.28-.63-.6-.84-1"/><path class="cls-10" d="M165.7,9.77c-.32-.27-.49-.57-.56-.98"/><path class="cls-10" d="M164.11,10.72c-.2-.35-.35-.72-.45-1.11"/><path class="cls-10" d="M163.04,11.26c-.31-.25-.54-.54-.72-.9"/><path class="cls-10" d="M160.77,10.86c.23,.53,.52,1,.9,1.44"/><path class="cls-10" d="M159.23,11.57c.21,.58,.5,1.07,.9,1.54"/><path class="cls-10" d="M169.31,20.48c.67-.16,1.33-.21,2.01-.16"/><path class="cls-10" d="M169.71,22.97c.62-.27,1.23-.38,1.9-.36"/><path class="cls-10" d="M170.68,25.4c.43-.23,.86-.36,1.34-.41"/><path class="cls-10" d="M168.7,25.5c.38-.45,.78-.85,1.23-1.22"/><path class="cls-10" d="M167,23.9c.4-.59,.85-1.13,1.36-1.64"/><path class="cls-10" d="M160.9,19.45c.39-.72,.85-1.36,1.43-1.94"/><path class="cls-10" d="M163.19,20.67c.4-.6,.87-1.05,1.49-1.43"/><path class="cls-9" d="M171.99,26.71c-1.17-2.5-1.72-4.95-1.72-7.71"/><path class="cls-9" d="M158.23,13.03c4.27-1.94,8.27-4.23,12.1-6.92"/><path class="cls-12" d="M173.1,5.87c.05,.12,.07,.25,.09,.38v2.35c-.07,.81-.4,1.17-1.2,1.34h-6.71c-.79,.16-1.12,.53-1.2,1.34v.09c.07,.81,.4,1.17,1.2,1.34h2.88c.79,.16,1.12,.53,1.2,1.34v.88c-.07,.81-.4,1.17-1.2,1.34h-2.88c-.79,.16-1.12,.53-1.2,1.34v.09c.07,.81,.4,1.17,1.2,1.34h6.71c.79,.16,1.12,.53,1.2,1.34v5.03c-.07,.81-.4,1.17-1.2,1.34h-12.56c-.79-.16-1.12-.53-1.2-1.34V6.25"/><path class="cls-12" d="M158.23,6.25c-.23-1.09-.02-1.83,.77-2.62,4.54-.86,8.87-.86,13.41,0,.61,.62,.86,1.23,.83,2.1-.69,.64-1.06,.68-1.35,.66-.26-.02-.44-.1-.8-.18-.36-.08-.91-.16-1.19-.09s-.29,.27-.44,.37c-.15,.1-.45,.09-.7,0-.25-.09-.44-.25-.87-.34-.43-.08-1.1-.08-1.7-.11-.6-.02-1.13-.07-1.85,.04-.71,.11-1.61,.39-2.41,.57-.8,.18-1.51,.28-3.71-.42Z"/><rect class="cls-9" x="155.66" y="11.88" width="1.11" height="4.92"/><rect class="cls-9" x="156.77" y="13.06" width="1.47" height="2.56"/><path class="cls-10" d="M169.12,13.36h1.17c1.16,.14,1.16,1.82,0,1.95h-1.04"/><path class="cls-10" d="M169.45,13.36c.29,.64,.4,1.25,.36,1.95"/><path class="cls-10" d="M170.05,13.36c.29,.65,.36,1.25,.24,1.95"/><path class="cls-10" d="M170.65,13.48c.2,.51,.27,1,.22,1.55"/><path class="cls-9" d="M170.71,26.71c-3.3-4.69-7.15-7.74-12.48-9.87"/><rect class="cls-2" x="161.73" y="14.11" width="1.84" height="1.63"/><rect class="cls-2" x="165.65" y="14.11" width="1.84" height="1.63"/><line class="cls-9" x1="159.51" y1="7.99" x2="171.9" y2="7.99"/><circle cx="162.4" cy="9.47" r=".64"/><circle cx="169.02" cy="8.92" r=".73"/><rect class="cls-7" x="223.79" y="13.89" width=".58" height="1.16"/><polyline class="cls-10" points="225.51 13.31 224.37 13.31 224.37 15.62 225.51 15.62"/><rect class="cls-10" x="237.43" y="13.07" width=".63" height="2.79"/><polyline class="cls-10" points="236.56 13.74 237.43 13.74 237.43 15.2 236.56 15.2"/><line class="cls-9" x1="226.73" y1="15.73" x2="235.6" y2="15.73"/><rect class="cls-2" x="227.86" y="14.85" width="1" height=".89"/><rect class="cls-2" x="233.98" y="14.99" width=".84" height=".74"/><path d="M236.72,9.21c0-.3-.13-.43-.43-.43s-.43,.13-.43,.43,.13,.43,.43,.43,.43-.13,.43-.43Z"/><path d="M230.12,9.47c0-.32-.13-.45-.45-.45s-.45,.13-.45,.45,.13,.45,.45,.45,.45-.13,.45-.45Z"/><path class="cls-12" d="M231.6,4.91c.06,.04,.09,.07,.1,.09,.22,.16,.25,.21,.28,.24,.03,.04,.05,.05,.07,.08,.02,.03,.05,.08,.08,.11,.03,.03,.07,.04,.1,.07,.03,.03,.05,.08,.07,.1,.02,.02,.05,.02,.08,.03,.03,0,.06,0,.09,.02,.03,.01,.05,.03,.07,.05s.05,.04,.1,.07,.11,.05,.16,.1,.09,.12,.13,.11c.13-.08,.15-.11,.19-.14,.04-.03,.11-.05,.17-.07,.06-.03,.11-.07,.17-.1,.06-.04,.11-.07,.24-.09s.31-.01,.39-.05c.08-.04,.05-.13,.08-.23,.03-.1,.13-.22,.2-.4,.02-.06,.02-.12,.02-.19v-1.37c0-.54-.22-.76-.76-.76h-1.28c-.54,0-.76,.22-.76,.76v1.37c0,.06,0,.13,.02,.19Z"/><path class="cls-12" d="M234.36,4.91h4.9c.79,.16,1.12,.53,1.2,1.34v2.35c-.07,.81-.4,1.17-1.2,1.34h-6.71c-.79,.16-1.12,.53-1.2,1.34v.09c.07,.81,.4,1.17,1.2,1.34h2.88c.79,.16,1.12,.53,1.2,1.34v.88c-.07,.81-.4,1.17-1.2,1.34h-2.88c-.79,.16-1.12,.53-1.2,1.34v.09c.07,.81,.4,1.17,1.2,1.34h6.71c.79,.16,1.12,.53,1.2,1.34v5.03c-.07,.81-.4,1.17-1.2,1.34h-12.56c-.79-.16-1.12-.53-1.2-1.34V6.25c.07-.81,.4-1.17,1.2-1.34h4.9"/><line class="cls-9" x1="226.18" y1="8.45" x2="239.54" y2="8.45"/><path class="cls-9" d="M240.46,8.05c-4.99-.25-9.71-1.16-14.44-2.79"/><path class="cls-9" d="M225.51,15.07c1.71-1.98,3.63-3.38,6.04-4.41"/><path class="cls-9" d="M225.51,19.42c2.74,1.58,4.71,4.21,5.45,7.29"/><path class="cls-9" d="M234.48,19c1.15,2.6,3.31,4.62,5.97,5.59"/><path class="cls-10" d="M238.47,8.42c.03-.34,.11-.66,.23-.98"/><path class="cls-10" d="M236.54,8.27c.04-.38,.15-.73,.31-1.08"/><path class="cls-10" d="M234.47,8.03c.04-.42,.15-.81,.34-1.2"/><path class="cls-10" d="M232.06,7.67c.13-.48,.35-.89,.66-1.27"/><path class="cls-10" d="M230.34,7.28c.09-.47,.22-.92,.39-1.37"/><path class="cls-10" d="M228.79,6.67c.09-.35,.22-.66,.43-.96"/><path class="cls-10" d="M227.17,6.28c.15-.39,.35-.73,.62-1.05"/><path class="cls-10" d="M229.72,10.55c.48,.42,.85,.88,1.14,1.45"/><path class="cls-10" d="M228.72,11.33c.48,.28,.8,.62,1.04,1.12"/><path class="cls-10" d="M227.63,12.06c.52,.26,.86,.6,1.12,1.11"/><path class="cls-10" d="M226.32,13.11c.49,.29,.83,.64,1.1,1.14"/><path class="cls-10" d="M226.54,21.35c.41-.58,.9-.94,1.56-1.19"/><path class="cls-10" d="M227.58,22.3c.46-.48,.97-.82,1.59-1.05"/><path class="cls-10" d="M228.71,23.73c.51-.38,1.04-.64,1.65-.81"/><path class="cls-10" d="M229.32,25.54c.74-.4,1.47-.6,2.32-.63"/><path class="cls-10" d="M238.75,24.71c.23-.51,.54-.91,.97-1.27"/><path class="cls-10" d="M236.84,23.47c.38-.44,.81-.77,1.35-1.01"/><path class="cls-10" d="M235.49,22.1c.42-.37,.87-.63,1.39-.82"/><path class="cls-10" d="M234.47,20.66c.45-.29,.92-.5,1.43-.65"/><line class="cls-9" x1="246.68" y1="15.73" x2="254.5" y2="15.73"/><path class="cls-12" d="M244.83,6.25c.07-.81,.4-1.17,1.2-1.34h12.56c.79,.16,1.12,.53,1.2,1.34v2.35c-.07,.81-.4,1.17-1.2,1.34h-6.71c-.79,.16-1.12,.53-1.2,1.34v.09c.07,.81,.4,1.17,1.2,1.34h2.88c.79,.16,1.12,.53,1.2,1.34v.88c-.07,.81-.4,1.17-1.2,1.34h-2.88c-.79,.16-1.12,.53-1.2,1.34v.09c.07,.81,.4,1.17,1.2,1.34h6.71c.79,.16,1.12,.53,1.2,1.34v5.03c-.07,.81-.4,1.17-1.2,1.34h-12.56c-.79-.16-1.12-.53-1.2-1.34V6.25Z"/><rect class="cls-2" x="247.34" y="14.76" width="1.84" height=".97"/><rect class="cls-2" x="251.77" y="14.92" width="1.84" height=".81"/><rect class="cls-10" x="256.75" y="13.07" width=".63" height="2.79"/><polyline class="cls-10" points="255.88 13.74 256.75 13.74 256.75 15.2 255.88 15.2"/><rect class="cls-10" x="243.33" y="13.07" width=".63" height="2.79"/><polyline class="cls-10" points="244.83 13.74 243.96 13.74 243.96 15.2 244.83 15.2"/><circle cx="255.61" cy="8.99" r=".48"/><path class="cls-12" d="M89.49,26.71c.23-.95,.68-1.35,1.66-1.45h5.36v1.45h-7.02Z"/><path class="cls-12" d="M107.81,26.71c-.23-.95-.68-1.35-1.66-1.45h-5.92v1.45h7.57Z"/><line class="cls-10" x1="92.55" y1="24.05" x2="92.55" y2="25.26"/><line class="cls-10" x1="95.6" y1="24.04" x2="95.6" y2="25.26"/><path class="cls-12" d="M98.99,23.39c2.09,.2,3.86-.14,5.73-1.11-.92-1.37-1.85-2.74-2.77-4.1-3.27,1.16-6.49,1.69-9.96,1.63-.55,.34-.95,.76-1.27,1.32v.74c.1,.64,.33,1.14,.76,1.63v.41c1.7,.3,3.34,.3,5.04,0v-3.71h.34c.71,1.06,1.42,2.13,2.13,3.19Z"/><line class="cls-10" x1="100.41" y1="23.43" x2="101.05" y2="25.26"/><line class="cls-10" x1="103.57" y1="22.79" x2="104.92" y2="25.26"/><path d="M249.79,9.18c0-.56-.23-.79-.79-.79s-.79,.23-.79,.79,.23,.79,.79,.79,.79-.23,.79-.79Z"/><path class="cls-12" d="M101.94,18.18v-.65c2.32-.9,3.58-3.41,2.93-5.81-1.95,.76-3.8,1-5.87,.77,.09,1.19-1.04,2.1-2.19,1.75-.22,0-.43,.02-.65,.02-.21,.46-.43,.92-.64,1.37-.14,.02-.28,.04-.42,.06-.44-.45-.89-.89-1.33-1.34-.67,.03-1.34,.05-2.01,.08-.73,.64-1.35,1.34-1.89,2.15,.6,.71,1.22,1.01,2.15,1.03-.01,.73-.02,1.47-.04,2.2"/><path class="cls-10" d="M93.1,14.38c.23,1,.68,1.7,1.49,2.32,.46-.23,.66-.52,.72-1.04"/><path class="cls-10" d="M95.61,15.44c.43,.29,.81,.61,1.16,.99,.2-.75,.22-1.44,.04-2.19"/><line class="cls-9" x1="246.11" y1="7.93" x2="258.5" y2="7.93"/><path class="cls-9" d="M254.41,9.93c-2.27-1.24-3.92-2.81-5.26-5.02"/><path class="cls-10" d="M90.17,16.9c-.23,.43-.46,.86-.68,1.3-.11,.45-.07,.81,.14,1.21,.36,.57,.72,1.15,1.08,1.72"/><polyline class="cls-10" points="91.73 17.59 91.28 18.55 91.79 19.94"/><path class="cls-9" d="M244.83,18.46c1.64,3.67,4.57,6.61,8.24,8.25"/><path class="cls-9" d="M255.22,19c2.08,2,2.61,5.13,1.31,7.71"/><path class="cls-12" d="M91.24,7.17c-.15,1.06,0,1.96,.47,2.93,1.08,1.48,3.33,1.35,4.23-.24,.61-.62,.73-1.57,.31-2.33-.39-.78-.89-1.43-1.55-2.01"/><path class="cls-10" d="M96.11,7.28h.72c.42,.21,.42,.81,0,1.01h-.35"/><path class="cls-12" d="M93.19,11.08c.13,.57,.26,1.15,.39,1.72,.64,.83,1.91,.73,2.41-.19-.13-.77-.25-1.53-.38-2.3"/><path class="cls-12" d="M96.89,6.94c-.35-.64-.58-.73-.74-.84-.16-.11-.26-.24-.33-.36s-.13-.24-.2-.32c-.07-.08-.14-.11-.24-.15-.1-.04-.22-.08-.36-.11-.15-.03-.31-.06-.49-.1-.17-.04-.35-.09-.51-.12-.16-.03-.3-.03-.43-.03s-.25,0-.41,.04c-.16,.04-.36,.12-.54,.2-.18,.08-.33,.17-.45,.24-.12,.07-.21,.13-.3,.18-.09,.06-.17,.11-.24,.16-.08,.05-.15,.11-.2,.17s-.09,.12-.14,.2c-.05,.08-.12,.18-.31,.41-.11,.24-.09,.37-.07,.46,.02,.09,.05,.14,.08,.17s.05,.05,.08,.05c.04,0,.09-.02,.14-.02s.11,0,.17-.03,.12-.12,.19-.2,.16-.17,.24-.25,.14-.15,.22-.23,.17-.18,.31-.21c.14-.03,.32,0,.46,0,.14,0,.23-.03,.33-.07s.22-.09,.32-.14c.1-.05,.2-.1,.34-.13,.14-.03,.33-.04,.46-.07,.14-.03,.23-.07,.53-.24"/><path class="cls-9" d="M95.93,6.96c3.54-.27,6.85,1.74,8.23,5.01"/><path class="cls-9" d="M244.83,10.81c3.48,2.23,7.02,3.53,11.11,4.1"/><path class="cls-10" d="M91.19,8.14h-.48c-.52,.21-.52,.96,0,1.17h.68"/><path class="cls-10" d="M93.29,14.14c-.07,.02-.18,.03-.26,.04s-.13,.02-.2,.02c-.06,0-.14,0-.2,0-.06,0-.12,0-.17-.01-.05,0-.1-.02-.14-.06-.04-.04-.07-.1-.07-.16s.01-.1,.05-.14,.1-.08,.19-.1c.09-.03,.22-.04,.32-.05,.11,0,.19,0,.27,.02,.08,.01,.14,.02,.19,.05,.05,.02,.09,.05,.11,.09s.05,.1,.05,.14,0,.07-.02,.1c-.02,.02-.05,.04-.12,.05Z"/><path class="cls-10" d="M93.04,13.17c-.11,0-.28-.04-.42-.07-.14-.04-.25-.07-.35-.13-.1-.06-.18-.13-.23-.2-.05-.07-.07-.13-.06-.19s.06-.11,.12-.15c.07-.04,.15-.06,.26-.06s.23,.03,.34,.09,.22,.14,.28,.21,.1,.11,.13,.15c.03,.04,.07,.09,.09,.14,.02,.05,.03,.1,0,.15-.02,.05-.06,.08-.17,.08Z"/><path class="cls-10" d="M96.46,13.2c.06-.04,.18-.07,.29-.09,.11-.02,.22-.02,.32-.01,.1,0,.2,.02,.28,.03,.08,.01,.14,.02,.2,.05,.06,.03,.11,.08,.13,.13,.01,.06-.01,.12-.05,.18-.04,.06-.08,.11-.17,.13-.09,.02-.22,0-.35,0-.14-.01-.28-.03-.37-.04-.1-.01-.16-.02-.2-.06-.05-.04-.08-.12-.1-.18s-.02-.09,.04-.13Z"/><path class="cls-10" d="M96.48,12.77c.06,.03,.22,.02,.34,0,.12-.02,.22-.03,.34-.07,.13-.03,.29-.08,.38-.13,.1-.05,.13-.09,.14-.16,.02-.07,.02-.15-.03-.22-.04-.07-.13-.12-.24-.14-.12-.03-.27-.03-.39-.03s-.19,.03-.27,.09-.17,.15-.22,.23c-.05,.08-.06,.15-.08,.23-.02,.07-.05,.15,.02,.19Z"/><path class="cls-4" d="M93.72,8.69c-.11,.04-.28,.1-.41,.17-.13,.07-.22,.15-.31,.22-.09,.07-.18,.14-.27,.22-.09,.08-.17,.18-.22,.27-.05,.09-.07,.18-.07,.26s.02,.15,.05,.22c.03,.06,.08,.11,.14,.15,.06,.04,.13,.07,.21,.09,.08,.02,.16,.02,.25,0,.09-.02,.18-.05,.29-.12,.11-.06,.23-.16,.33-.23,.1-.08,.17-.13,.24-.19,.07-.05,.15-.11,.27-.13,.12-.03,.27-.03,.4-.03,.13,0,.23,0,.35-.02,.12-.01,.25-.04,.35-.07,.1-.03,.16-.08,.2-.15,.03-.07,.03-.17,.02-.24s-.03-.14-.06-.2-.08-.11-.16-.15-.22-.07-.37-.09c-.15-.02-.32-.03-.5-.04-.17,0-.35,0-.47,0-.11,.01-.16,.03-.27,.08Z"/><path class="cls-9" d="M96.12,9.63c1.71,.23,3.17,1.34,3.85,2.93"/><path class="cls-10" d="M94,8.05c-.01-.25-.12-.35-.37-.34s-.35,.12-.34,.37c.01,.25,.12,.35,.37,.34,.25-.01,.35-.12,.34-.37Z"/><path class="cls-4" d="M92.45,6.72c.4,0,.43,.63,.43,.9s-.02,.9-.43,.9-.43-.63-.43-.9,.02-.9,.43-.9Z"/><line class="cls-10" x1="92.45" y1="7.91" x2="92.45" y2="7.33"/><ellipse class="cls-4" cx="94.49" cy="7.04" rx=".43" ry=".9"/><line class="cls-10" x1="94.49" y1="7.34" x2="94.49" y2="6.75"/><path class="cls-10" d="M246.17,12.76c.26-.63,.61-1.17,1.09-1.66"/><path class="cls-10" d="M252.53,9.76c.45-.39,.93-.73,1.45-1.04"/><path class="cls-10" d="M251.5,8.68c.32-.31,.67-.54,1.09-.7"/><path class="cls-10" d="M250.51,7.77c.3-.37,.64-.59,1.1-.7"/><path class="cls-10" d="M249.4,6.53c.38-.33,.77-.52,1.26-.6"/><path class="cls-10" d="M254.27,15.29c.04-.45,.15-.85,.35-1.25"/><path class="cls-10" d="M251.29,14.59c.15-.46,.36-.87,.65-1.25"/><path class="cls-10" d="M248.73,13.83c.17-.57,.42-1.04,.81-1.49"/><path class="cls-10" d="M245.14,20.94c.43-.43,.9-.8,1.42-1.12"/><path class="cls-10" d="M246.11,22.51c.46-.5,.95-.95,1.49-1.35"/><path class="cls-10" d="M247.44,23.94c.36-.54,.78-1,1.27-1.42"/><path class="cls-10" d="M248.89,25.36c.36-.61,.8-1.1,1.37-1.52"/><path class="cls-10" d="M250.48,26.34c.35-.52,.77-.92,1.3-1.25"/><path class="cls-10" d="M256.04,25.42c.64,.09,1.23,.27,1.8,.57"/><path class="cls-10" d="M256.23,23.7c.68-.1,1.33-.07,2.01,.07"/><path class="cls-10" d="M256.04,21.94c.57-.28,1.13-.4,1.76-.39"/><path class="cls-10" d="M255.29,20.36c.53-.28,1.07-.43,1.66-.48"/><path class="cls-12" d="M118.72,12.16c.1,.94,.48,1.41,1.38,1.7h2.18c.9,.29,1.28,.76,1.38,1.7v9.44c.1,.94,.48,1.41,1.38,1.7h3.64c.9-.29,1.28-.76,1.38-1.7V15.57c.1-.94,.48-1.41,1.38-1.7h2.18c.9-.29,1.28-.76,1.38-1.7V6.62c-.1-.94-.48-1.41-1.38-1.7h-13.52c-.9,.29-1.28,.76-1.38,1.7v5.54Z"/><circle cx="123.49" cy="8.44" r="1.1"/><circle cx="130.11" cy="8.44" r="1.1"/><path d="M127.68,10.79c0-.58-.24-.83-.83-.83s-.83,.24-.83,.83,.24,.83,.83,.83,.83-.24,.83-.83Z"/><ellipse class="cls-12" cx="126.86" cy="16.33" rx="1.73" ry="3.1"/><path class="cls-12" d="M124.7,19.42c.22,.32,.49,.61,.81,.84,.4,.28,.87,.45,1.35,.45s.95-.17,1.35-.45c.32-.22,.59-.51,.81-.83"/><path class="cls-10" d="M123.66,3.13c-.36-.25-.7-.33-1.13-.25"/><path class="cls-10" d="M122.28,4.09c.55-.2,1.09-.29,1.67-.29"/><path class="cls-10" d="M129.67,3.97c.56-.21,1.12-.31,1.72-.31"/><path class="cls-10" d="M130.05,3.14c.38-.11,.76-.19,1.14-.24"/><path class="cls-10" d="M130.26,2.43c.22-.09,.43-.14,.66-.16"/><path class="cls-10" d="M122.81,2.24c.23-.06,.41-.04,.62,.07"/><path class="cls-12" d="M123.68,25.16c-1.27,.59-1.69,.64-2.04,.62-.35-.02-.62-.11-.88-.25s-.52-.33-.67-.5-.22-.34-.28-.51c-.06-.17-.11-.36-.1-.58,0-.22,.08-.49,.14-.75,.06-.26,.12-.52,.21-.82,.07-.23,.16-.49,.32-1.04-.28-.08-.53-.05-.7-.04-.17,.01-.25,0-.31-.02-.05-.02-.08-.06-.04-.14,.04-.08,.13-.2,.25-.36,.11-.16,.24-.34,.38-.51s.28-.32,.4-.47,.22-.28,.3-.41c.08-.13,.13-.26,.17-.35,.04-.1,.06-.16,.1-.2,.04-.04,.09-.05,.16,0s.16,.17,.28,.3c.13,.14,.29,.29,.44,.49s.29,.43,.41,.62c.11,.19,.2,.34,.26,.46,.06,.12,.08,.2,.09,.27,0,.07,0,.13-.07,.17-.07,.04-.18,.05-.33,.05-.13,0-.29,0-.81,.05-.01,.04-.03,.08-.04,.11-.09,.26-.14,.44-.17,.72-.03,.29-.04,.69-.02,1.02,.02,.33,.07,.58,.13,.79s.13,.37,.27,.48c.14,.1,.35,.14,.62,.16,.27,.02,.59,.02,1.5-.47"/><path class="cls-9" d="M124.71,4.91c-.89-1.02-1.3-2.05-1.37-3.4-.01-.26-.18,.19-.26,.29-.09,.13-.17,.26-.25,.4-.15,.27-.27,.56-.36,.86-.19,.62-.24,1.21-.16,1.85"/><path class="cls-9" d="M131.4,4.91c.08-.64,.03-1.23-.16-1.85-.09-.3-.21-.58-.36-.86-.08-.14-.16-.27-.25-.4-.08-.11-.25-.55-.26-.29-.07,1.35-.49,2.38-1.37,3.4"/><polyline class="cls-10" points="126.04 19.07 126.32 17.56 126.56 19.38"/><polyline class="cls-10" points="126.97 19.42 127.07 17.23 127.5 19.21"/><polyline class="cls-10" points="127.82 18.9 127.81 16.9 128.3 18.05"/><polyline class="cls-10" points="127.05 13.25 127.41 15 127.67 13.59"/><polyline class="cls-10" points="126.74 13.23 126.51 15.31 126.13 13.51"/><path class="cls-12" d="M58.24,6.63c.86,.26,1.63,.26,2.5,0"/><path class="cls-12" d="M58.24,10.97c.85-.18,1.65-.18,2.5,0"/><path class="cls-8" d="M193.97,14.01c.04-.08,.09-.15,.15-.21,.08,.05,.12,.12,.14,.21-.1,.12-.19,.12-.29,0Z"/><path class="cls-10" d="M194.37,14.5c.11-.25,.3-.27,.47-.06"/><path class="cls-10" d="M193.42,14.62c.11-.27,.32-.3,.5-.07"/><path class="cls-9" d="M194.29,15.18c-.17,.56-.12,1,.18,1.5,.33-.53,.37-.97,.15-1.56"/><path class="cls-9" d="M193.54,15.07c-.24,.66-.16,1.13,.27,1.68,.27-.54,.3-1.01,.1-1.59"/><path class="cls-9" d="M194.01,13.41c-.46-.75-.8-1.53-1.02-2.39-.12-.98,.06-1.76,.59-2.59,.27-.44,.43-.89,.5-1.4"/><line class="cls-10" x1="194.73" y1="6.75" x2="194.73" y2="7.87"/><line class="cls-10" x1="193.41" y1="6.75" x2="193.41" y2="8.08"/><path class="cls-9" d="M195.29,13.61c.6-1.11,.79-2.15,.64-3.39-.42-1.2-1.01-2.22-1.84-3.18-.66,.94-1.2,1.93-1.66,2.98-.51,1.25-.23,2.69,.71,3.66"/><path class="cls-12" d="M193.14,13.67c.76-.39,1.37-.41,2.15-.07,.42,.39,.31,1.07-.21,1.31-.66,.4-1.16,.41-1.83,.02-.47-.27-.52-.92-.11-1.27Z"/><line class="cls-10" x1="194.73" y1="6.75" x2="194.73" y2="6.48"/><line class="cls-10" x1="193.41" y1="6.75" x2="193.41" y2="6.48"/><path class="cls-10" d="M194.41,6.48c.07,.42,.58,.42,.65,0"/><path class="cls-10" d="M193.08,6.48c.07,.42,.58,.42,.65,0"/><path class="cls-8" d="M201.03,13.09c.03-.07,.08-.13,.13-.19,.07,.05,.11,.1,.12,.19-.09,.1-.17,.1-.25,0Z"/><path class="cls-10" d="M201.39,13.51c.1-.22,.26-.24,.41-.05"/><path class="cls-10" d="M200.55,13.62c.1-.24,.28-.26,.44-.06"/><path class="cls-9" d="M201.32,14.11c-.15,.49-.1,.88,.16,1.32,.29-.47,.33-.86,.13-1.37"/><path class="cls-9" d="M201.07,12.56c-.41-.66-.7-1.35-.9-2.1-.11-.86,.05-1.55,.52-2.27,.24-.39,.38-.78,.44-1.23"/><line class="cls-10" x1="201.7" y1="6.7" x2="201.7" y2="7.68"/><line class="cls-10" x1="200.54" y1="6.7" x2="200.54" y2="7.87"/><path class="cls-9" d="M202.19,12.73c.52-.97,.69-1.89,.56-2.98-.37-1.05-.89-1.96-1.62-2.8-.58,.83-1.06,1.69-1.46,2.62-.45,1.1-.21,2.37,.62,3.22"/><path class="cls-12" d="M200.3,12.79c.66-.34,1.21-.36,1.89-.06,.37,.34,.27,.94-.18,1.15-.58,.35-1.02,.36-1.61,.02-.41-.24-.46-.81-.1-1.11Z"/><line class="cls-10" x1="201.7" y1="6.7" x2="201.7" y2="6.46"/><line class="cls-10" x1="200.54" y1="6.7" x2="200.54" y2="6.46"/><path class="cls-10" d="M201.42,6.46c.06,.37,.51,.37,.57,0"/><path class="cls-10" d="M200.26,6.46c.06,.37,.51,.37,.57,0"/><path class="cls-8" d="M188.57,15.02c.04-.09,.1-.17,.17-.24,.09,.06,.14,.13,.16,.24-.11,.14-.22,.13-.33,0Z"/><path class="cls-10" d="M189.02,15.57c.13-.28,.34-.31,.53-.07"/><path class="cls-10" d="M187.95,15.71c.13-.31,.36-.34,.57-.08"/><path class="cls-9" d="M188.93,16.34c-.19,.64-.13,1.13,.21,1.7,.37-.6,.42-1.1,.17-1.76"/><path class="cls-9" d="M188.08,16.22c-.27,.75-.18,1.28,.3,1.9,.3-.62,.34-1.15,.12-1.8"/><path class="cls-9" d="M188.62,14.34c-.53-.85-.9-1.74-1.16-2.71-.14-1.11,.06-1.99,.67-2.93,.31-.5,.49-1.01,.56-1.59"/><line class="cls-10" x1="189.43" y1="6.79" x2="189.43" y2="8.05"/><line class="cls-10" x1="187.93" y1="6.79" x2="187.93" y2="8.3"/><path class="cls-9" d="M190.06,14.56c.67-1.25,.9-2.43,.72-3.85-.47-1.36-1.14-2.52-2.08-3.61-.74,1.07-1.36,2.18-1.88,3.38-.58,1.42-.27,3.05,.8,4.15"/><path class="cls-12" d="M187.62,14.64c.86-.44,1.56-.46,2.44-.07,.47,.44,.35,1.22-.24,1.49-.74,.45-1.32,.46-2.07,.02-.53-.3-.59-1.04-.13-1.44Z"/><line class="cls-10" x1="189.43" y1="6.79" x2="189.43" y2="6.48"/><line class="cls-10" x1="187.93" y1="6.79" x2="187.93" y2="6.48"/><path class="cls-10" d="M189.06,6.48c.08,.48,.66,.48,.74,0"/><path class="cls-10" d="M187.56,6.48c.08,.48,.66,.48,.74,0"/><polygon class="cls-12" points="202.49 6.48 202.49 4.91 186.22 4.91 186.22 6.48 197.36 6.48 197.36 26.71 198.75 26.71 198.75 6.48 202.49 6.48"/><path class="cls-10" d="M150.65,8.76c.2,.53,.18,.67,.17,.82s-.01,.32,0,.45c0,.13,.02,.22,.07,.27,.04,.05,.12,.05,.2,.03,.09-.03,.19-.08,.28-.19,.08-.11,.15-.27,.23-.49"/><path class="cls-10" d="M148.49,6.81c.18,.53,.17,.75,.16,.93-.01,.17-.03,.29-.05,.38-.02,.09-.04,.14-.06,.22s-.03,.17-.04,.25c-.01,.08-.02,.16-.02,.23,0,.07-.01,.15,0,.22,.02,.08,.06,.16,.11,.22,.04,.07,.08,.12,.15,.16s.16,.05,.25,.04,.18-.06,.25-.13c.07-.07,.13-.17,.16-.28s.04-.24,.02-.41c-.02-.16-.06-.36-.11-.53-.05-.17-.11-.31-.11-.48s.05-.35,.19-.52"/><path class="cls-10" d="M148.08,16.13c.06,.43,.03,.63,0,.78s-.04,.24-.02,.34,.06,.22,.15,.3c.09,.07,.22,.11,.33,.01,.1-.09,.17-.31,.06-.82"/><path class="cls-10" d="M145.1,14.97c.24,.58,.24,.75,.23,.89-.02,.14-.05,.24-.07,.37-.02,.13-.03,.29-.04,.4,0,.11,0,.18,.02,.24s.08,.12,.17,.13c.09,.02,.22-.01,.3-.09,.08-.08,.11-.21,.13-.33,.02-.12,.02-.23,.02-.34,0-.11,0-.23,.02-.35,.02-.12,.07-.25,.12-.44"/><path class="cls-10" d="M139.79,17.69c0,.39-.04,.58-.09,.79s-.11,.44-.18,.63c-.07,.18-.14,.32-.17,.52-.03,.2-.02,.47,.04,.67,.07,.2,.19,.33,.32,.39s.26,.06,.4,.02c.15-.04,.3-.1,.38-.24,.07-.14,.06-.35,.01-.59s-.13-.5-.17-.72c-.04-.22-.05-.41-.02-.53"/><path class="cls-10" d="M140.75,20.95c.01,.55-.02,.91-.03,1.2s0,.49,.04,.64c.05,.15,.13,.25,.25,.3,.12,.05,.27,.06,.4,.02,.12-.04,.22-.13,.27-.27,.05-.14,.06-.35,.02-.58-.03-.24-.11-.51-.15-.76s-.06-.49-.03-.73"/><path class="cls-10" d="M143.01,18.73c-.13,.23-.12,.41-.09,.53s.08,.19,.17,.23c.09,.04,.23,.07,.41-.05"/><path class="cls-10" d="M143.71,24.2c.17,.32,.15,.52,.13,.69s-.03,.33-.03,.44c0,.11,0,.19,.04,.26,.04,.07,.1,.13,.2,.14,.1,.01,.24-.02,.32-.1,.07-.08,.07-.21,.05-.4s-.07-.44-.06-.86"/><path class="cls-10" d="M149.87,17.24c.22,.29,.19,.44,.16,.58s-.05,.25-.06,.35,0,.19,.03,.27c.02,.08,.05,.15,.15,.18,.1,.03,.26,.02,.35-.05,.09-.07,.12-.21,.13-.36,.01-.16,.01-.34-.08-.52"/><path class="cls-10" d="M153.45,20.34c.19,.3,.19,.47,.17,.61-.01,.15-.04,.28-.05,.38s0,.18,0,.27c.02,.09,.05,.19,.13,.25,.09,.07,.23,.1,.32,.07,.1-.03,.15-.12,.21-.22s.13-.22,.09-.49"/><path class="cls-10" d="M150.69,20.93c.23,.54,.21,.82,.2,1.07s-.01,.46-.02,.63c0,.17-.01,.29,0,.4,.01,.11,.04,.2,.1,.28,.06,.08,.15,.14,.27,.16,.11,.02,.25,0,.35-.06,.1-.05,.16-.12,.21-.24s.09-.27,.1-.46c.01-.2,0-.44-.05-.68-.05-.24-.13-.47-.18-.65-.04-.18-.04-.3,0-.44,.04-.14,.11-.31,.19-.43"/><path class="cls-10" d="M148.46,22.95c.19,.52,.16,.66,.13,.76s-.06,.16-.08,.23-.04,.15-.06,.23c-.02,.08-.04,.17-.06,.27-.01,.09-.02,.19,0,.32,.03,.12,.09,.27,.16,.36,.06,.09,.13,.14,.22,.15s.19,0,.27-.03c.08-.03,.14-.08,.18-.16s.04-.2,.04-.34,0-.3-.02-.42-.02-.21-.02-.33c0-.12-.01-.28,0-.46"/><path class="cls-10" d="M147.77,13.31c-.09,.39-.11,.53-.11,.64s.01,.2,.07,.27c.06,.07,.16,.11,.26,.09s.19-.1,.27-.19c.07-.09,.13-.19,.15-.32,.02-.13,.01-.29-.01-.42s-.07-.24-.09-.35c-.03-.11-.04-.23,0-.38"/><path class="cls-10" d="M152.25,14.63c-.01,.47-.09,.63-.13,.78s-.05,.28-.04,.4c0,.12,.04,.21,.07,.29,.04,.08,.09,.13,.18,.13,.09,0,.23-.06,.31-.15,.08-.09,.09-.21,.1-.32"/><path class="cls-10" d="M152.76,9.73c.16,.71,.2,.93,.21,1.1,0,.17-.03,.3-.08,.44-.05,.15-.11,.31-.18,.46-.07,.16-.14,.3-.17,.43-.04,.13-.04,.25,0,.36,.03,.11,.08,.21,.19,.28,.1,.07,.26,.11,.38,.09,.12-.01,.21-.08,.29-.19,.08-.11,.16-.27,.21-.44,.04-.17,.05-.36,.06-.52,0-.17,.01-.32-.01-.5-.02-.17-.07-.36-.12-.53-.05-.17-.09-.31-.07-.46,.02-.14,.09-.28,.14-.38"/><path class="cls-10" d="M142.26,9.5c.19,.67,.14,.85,.1,1-.04,.15-.08,.25-.11,.4-.03,.15-.06,.33-.06,.49s.03,.32,.07,.45,.1,.23,.2,.29c.1,.07,.23,.1,.35,.08,.12-.01,.23-.07,.31-.21,.08-.14,.12-.36,.12-.63s-.04-.6-.08-.9c-.04-.31-.08-.59-.15-1.01"/><path class="cls-10" d="M142.84,14.02c-.1,.8-.14,.93-.17,1.05s-.06,.26-.05,.37c.01,.11,.06,.22,.15,.28,.08,.07,.2,.1,.3,.08,.1-.02,.18-.08,.24-.15,.07-.07,.12-.16,.15-.25,.03-.09,.04-.17,0-.29-.03-.12-.1-.27-.12-.48"/><path class="cls-10" d="M140.42,13.74c.04,.39-.02,.57-.06,.71-.04,.14-.05,.25-.07,.37s-.04,.24-.04,.34c0,.1,0,.18,.05,.27,.05,.09,.13,.18,.21,.23s.12,.04,.2,.04c.07,0,.17,0,.24-.03,.07-.03,.13-.08,.17-.15,.04-.07,.08-.15,.1-.26,.02-.11,.03-.23-.01-.46-.04-.23-.13-.55-.14-.63"/><path class="cls-12" d="M138.4,25.15c-.05,.5-.14,.76-.18,.97-.05,.21-.05,.37-.04,.49,0,.12,.01,.2,.04,.3,.03,.09,.07,.19,.16,.26,.09,.07,.23,.1,.34,.1,.11,0,.21-.03,.33-.08,.13-.05,.29-.13,.38-.21,.09-.08,.11-.17,.12-.26,.02-.09,.04-.19,.05-.28,.01-.09,.01-.17,.03-.25,.02-.08,.06-.14,.12-.18s.14-.06,.21-.03c.07,.02,.12,.09,.18,.18,.06,.09,.13,.19,.19,.25,.06,.06,.13,.06,.19,.06,.06,0,.13-.01,.21,.03s.18,.14,.23,.24c.05,.1,.05,.19,.09,.29,.04,.1,.12,.2,.17,.32,.05,.12,.07,.25,.07,.41s-.02,.34-.03,.5c0,.16,0,.3,.01,.43s.04,.25,.08,.38c.04,.13,.09,.26,.16,.37,.06,.11,.13,.21,.22,.27s.19,.07,.29,.03,.2-.16,.25-.29c.05-.13,.05-.29,.05-.46,0-.17-.02-.36-.02-.51,0-.16,0-.28,.04-.42,.04-.14,.11-.28,.16-.39,.04-.11,.05-.18,.09-.25,.04-.07,.11-.15,.18-.18,.07-.03,.13-.02,.2,0,.07,.02,.16,.04,.21,.03s.09-.05,.16-.07,.17-.04,.22-.05c.06,0,.07,.01,.12,.02s.15,0,.21-.06c.06-.07,.08-.21,.1-.28,.02-.07,.05-.07,.11-.07s.15,0,.24,0c.09,0,.19,0,.23-.07,.05-.07,.05-.22,.05-.35s0-.24,.06-.37,.18-.27,.24-.39c.05-.12,.04-.21,.02-.3s-.05-.17-.06-.24c-.02-.07-.03-.13-.07-.42-.04-.3-.11-.83-.15-1.19-.04-.37-.04-.57,.01-.77,.05-.21,.14-.42,.18-.59s.02-.29,0-.43c-.01-.14-.02-.3-.06-.43-.04-.13-.11-.22-.14-.34-.03-.11-.03-.25-.03-.4s0-.32,.03-.44c.03-.12,.09-.21,.09-.31s-.06-.21-.09-.33c-.03-.12-.03-.25,.01-.38s.12-.26,.18-.34c.06-.08,.09-.1,.12-.11,.04-.01,.08-.01,.1,0,.02,.01,.02,.04,.03,.09,0,.04,.02,.1,.04,.16s.07,.12,.09,.16,.02,.06,.01,.09c0,.03-.03,.08-.04,.12-.01,.04-.01,.09,0,.14,.01,.05,.03,.11,.06,.16,.02,.05,.05,.08,.09,.09s.11,0,.14-.04c.04-.04,.05-.1,.06-.16,0-.06,0-.1,0-.16,0-.05,.02-.11,.05-.19s.09-.16,.13-.21c.04-.05,.05-.06,.08-.06,.03,0,.06-.01,.15-.03s.23-.06,.32-.07c.09-.01,.13,0,.14,.02,.02,.03,.01,.07,0,.09,0,.03,0,.03,.01,.04,.01,.01,.05,.03,.06,.05,.02,.02,.02,.04,.02,.07s0,.04,0,.06,.02,.03,.04,.05c.02,.02,.05,.03,.08,.03,.03,0,.06-.01,.07-.03,.02-.02,.02-.05,.02-.07s0-.05,0-.07c0-.02,.02-.05,.04-.07,.02-.02,.03-.04,.06-.04,.03,0,.07,0,.1,.01,.03,.01,.05,.04,.05,.06,0,.02,0,.05,.02,.08,.02,.03,.06,.07,.05,.13,0,.06-.06,.12-.07,.17-.01,.04,.01,.06,.04,.08,.03,.02,.05,.04,.06,.08,.01,.04,0,.1,.02,.13s.04,.03,.07,0c.03-.02,.05-.05,.06-.1,.01-.05,.02-.1,.04-.16,.02-.06,.04-.11,.05-.16,0-.05-.02-.11-.01-.15s.04-.08,.08-.1,.06-.03,.1-.03c.04,0,.08,.03,.12,.01,.03-.01,.05-.06,.07-.09,.02-.03,.05-.04,.08-.04s.07,0,.09,0c.03,.01,.05,.03,.06,.08,.02,.05,.03,.12,.04,.18,0,.06,0,.11,0,.15,0,.04,.02,.06,.02,.1,0,.04-.02,.08-.04,.32-.02,.24-.06,.66-.07,.91-.01,.24,0,.3,.03,.38,.03,.08,.09,.19,.12,.3s.03,.23,.01,.35c-.02,.12-.05,.25-.1,.35s-.13,.16-.16,.24c-.04,.08-.04,.16-.02,.26,.01,.1,.04,.2,.08,.54,.03,.34,.07,.91,.11,1.25,.04,.34,.08,.44,.1,.55s.02,.21,0,.4-.06,.46-.09,.64c-.02,.18-.03,.26-.01,.34,.02,.08,.07,.16,.1,.24,.02,.08,.02,.16,.02,.24s0,.16,.02,.22c.02,.06,.05,.1,.09,.13,.03,.03,.07,.06,.13,.07,.06,.01,.15,0,.2,.01,.05,0,.07,0,.1,.02,.03,.02,.07,.05,.1,.07s.04,.04,.15,.05c.11,.01,.31,.03,.5,.02,.18,0,.35-.04,.48-.02,.13,.02,.21,.08,.3,.12,.09,.04,.18,.05,.27,.05,.09,0,.17-.03,.22-.08,.05-.05,.08-.12,.17-.19,.09-.07,.23-.15,.3-.14,.07,0,.07,.11,.06,.28,0,.18-.03,.43-.05,.62-.03,.19-.06,.32-.08,.43-.02,.11-.02,.21,0,.29,.02,.08,.07,.15,.13,.2,.06,.05,.15,.08,.22,.05,.07-.03,.12-.13,.14-.22s.03-.19,.03-.27c0-.08,.02-.13,.07-.18,.04-.05,.11-.08,.18-.12,.07-.04,.14-.08,.17-.13,.04-.05,.04-.12,.03-.2,0-.08-.01-.16,0-.22s.02-.1,.05-.13,.09-.06,.17-.08c.08-.01,.19-.01,.29-.02,.1,0,.19,0,.23-.03s.05-.06,.07-.09c.02-.03,.07-.04,.17-.06,.11-.01,.29-.03,.39-.04,.1-.01,.12-.03,.17-.03,.05,0,.11,0,.17,.01,.06,0,.1,0,.13-.03s.04-.08,.08-.14c.03-.05,.08-.1,.11-.15,.03-.05,.03-.1,.05-.14,.02-.04,.04-.07,.08-.1,.03-.03,.07-.06,.16-.59,.08-.53,.21-1.56,.27-2.2s.07-.91,.07-1.15c0-.24,0-.44-.03-.67s-.09-.49-.15-.73c-.07-.24-.14-.47-.2-.66s-.1-.33-.1-.45,.05-.22,.07-.33c.02-.12,.02-.25-.02-.78s-.14-1.45-.18-2.12c-.04-.67-.03-1.1-.02-1.42,.01-.32,.02-.55,.07-.73,.04-.18,.12-.32,.23-.52,.11-.21,.25-.48,.31-.69,.06-.21,.02-.36-.05-.52s-.18-.32-.24-.46c-.06-.14-.06-.26-.11-.72-.05-.46-.16-1.28-.18-1.77s.01-.66,.07-.81c.05-.15,.11-.27,.19-.42,.07-.15,.16-.33,.16-.49s-.09-.29-.13-.42c-.04-.13-.04-.25-.04-.4s0-.32,.03-.52c.03-.2,.08-.43,.11-.58,.03-.15,.03-.23,0-.32s-.08-.2-.11-.29c-.03-.09-.03-.16-.03-.27s0-.24-.06-.32c-.06-.09-.19-.13-.28-.17s-.14-.05-.22-.08c-.08-.03-.2-.07-.36-.1-.16-.02-.37-.03-.46,.12-.09,.14-.06,.43-.08,.58-.02,.15-.1,.17-.17,.16-.07-.01-.13-.06-.17-.1-.04-.04-.05-.07-.06-.1,0-.03-.01-.06-.05-.08-.04-.02-.11-.04-.15-.05-.04,0-.06,0-.09,0-.03,0-.07-.01-.09-.03-.03-.02-.04-.05-.04-.08,0-.04,0-.08-.03-.14s-.07-.14-.14-.19c-.06-.06-.15-.09-.23-.08-.09,.01-.19,.07-.23,.12-.04,.06-.02,.11-.01,.15,0,.04,0,.06-.02,.1-.03,.04-.08,.09-.13,.13-.05,.04-.11,.08-.14,.11-.03,.04-.02,.07,0,.13,.03,.05,.08,.12,.11,.18,.03,.06,.05,.11,.05,.16,0,.05-.03,.1-.06,.15-.03,.05-.05,.11-.07,.16-.02,.05-.05,.1-.09,.14s-.1,.06-.15,.03-.09-.09-.1-.17c0-.07,.01-.15,.02-.22,0-.07,0-.14-.04-.2-.03-.05-.07-.09-.12-.13-.05-.04-.11-.08-.15-.12-.04-.04-.06-.08-.07-.13s-.02-.1-.07-.18c-.06-.07-.16-.16-.25-.23-.09-.07-.15-.11-.21-.13-.06-.02-.11-.03-.17-.01-.06,.02-.13,.05-.19,.09-.06,.04-.1,.09-.13,.14-.02,.05-.02,.1-.02,.14s0,.07-.03,.09c-.03,.02-.11,.04-.18,.05s-.14,0-.21,.02-.13,.04-.17,.07-.06,.07-.08,.1c-.02,.03-.04,.05-.06,.08s-.02,.05-.03,.09,0,.07,0,.11c0,.04,.01,.07,0,.11s-.04,.09-.08,.16c-.04,.07-.09,.15-.13,.22s-.08,.12-.13,.18-.1,.1-.13,.16-.03,.14-.04,.21c-.02,.08-.05,.16-.07,.25-.02,.09-.04,.19-.06,.28s-.04,.15-.01,.21c.02,.07,.09,.13,.12,.19,.03,.06,.03,.12,.03,.18v.21c0,.09,0,.22-.03,.32-.03,.1-.08,.17-.12,.22s-.05,.09-.03,.14c.03,.05,.1,.11,.16,.16,.06,.05,.11,.09,.15,.13,.04,.04,.06,.08,.02,.16-.05,.08-.17,.2-.25,.28s-.13,.13-.16,.24-.04,.29-.03,.42c0,.12,.03,.19,.05,.24s.04,.1,.05,.18c0,.08,.01,.2,.01,.28s0,.12,.02,.15,.04,.06,.04,.12c0,.06-.02,.14-.03,.21-.02,.07-.03,.13-.04,.19,0,.06,0,.13-.02,.2s-.05,.14-.09,.16-.07,0-.12,0c-.06,0-.14-.01-.19,0-.05,.02-.07,.05-.08,.09,0,.03,0,.07,0,.1,0,.04,.01,.07,0,.11,0,.04-.02,.08-.05,.11-.03,.03-.06,.06-.09,.08-.02,.02-.03,.04-.04,.06s0,.06-.02,.1-.04,.08-.07,.08c-.03,0-.07-.03-.09-.06-.01-.04,0-.08,0-.11s.03-.07,.04-.11c0-.04,0-.09,0-.15s-.02-.12-.02-.18c0-.06,0-.11-.02-.15-.03-.04-.09-.08-.13-.11s-.05-.05-.08-.08c-.03-.02-.08-.05-.12-.06s-.07-.01-.08,.02c-.01,.03,0,.09-.04,.12-.04,.04-.13,.05-.19,.05-.06,0-.08-.02-.11-.01-.03,0-.06,.04-.07,.07-.01,.03,0,.07,0,.09,0,.03,0,.05-.04,.05s-.09,0-.13-.02-.06-.04-.07-.07c-.01-.03-.02-.05-.03-.07-.01-.02-.04-.03-.05,0-.02,.03-.03,.09-.04,.13,0,.04,0,.07-.01,.11,0,.04,0,.09-.02,.15-.02,.05-.05,.11-.08,.15-.03,.04-.06,.07-.07,.11s0,.1,0,.16-.07,.11-.12,.16c-.06,.05-.13,.1-.18,.09s-.1-.08-.11-.14c-.01-.06,0-.1,.03-.14s.07-.08,.1-.13,.03-.11,0-.17c-.02-.06-.08-.12-.1-.18-.02-.07-.01-.14-.02-.21,0-.06-.03-.1-.04-.15,0-.04,0-.09-.02-.12-.02-.03-.06-.05-.1-.05-.04,0-.08,.01-.12,0-.04,0-.09-.02-.12-.05-.03-.03-.05-.09-.07-.13-.02-.04-.03-.06-.05-.1-.02-.04-.06-.11-.08-.17-.02-.06-.02-.12-.04-.2s-.07-.19-.09-.26c-.03-.07-.03-.1-.04-.14s0-.1,0-.4c0-.3,0-.86,.03-1.18,.02-.32,.07-.42,.09-.54s.02-.26,.04-.39c.02-.13,.05-.25,.07-.35s.04-.19,.04-.26c0-.07,.02-.11,0-.18,0-.07-.03-.15-.06-.23-.03-.08-.05-.15-.08-.21-.02-.06-.04-.1-.06-.17-.02-.07-.05-.17-.06-.25s-.03-.16,0-.25c.02-.09,.07-.2,.11-.27,.04-.07,.05-.11,.05-.17s-.02-.12-.06-.17c-.04-.05-.11-.09-.15-.13-.04-.04-.06-.09-.06-.15s.02-.12,0-.17c0-.05-.04-.09-.08-.14-.04-.04-.07-.09-.13-.11-.06-.02-.13,0-.22,.02-.09,.02-.18,.06-.23,.11-.05,.05-.05,.11-.09,.17-.04,.05-.13,.09-.2,.12-.07,.02-.11,.02-.18,.02s-.16-.02-.23-.04c-.08-.02-.14-.05-.31-.12-.17-.07-.44-.2-.59-.26-.15-.06-.18-.07-.28-.08-.1,0-.26-.02-.37,0s-.18,.05-.22,.09c-.04,.04-.04,.07-.06,.1-.01,.02-.03,.04-.07,.06-.04,.02-.11,.05-.16,.07-.05,.02-.08,.04-.09,.08,0,.04,.02,.1,.03,.15,.01,.05,.01,.08,0,.12-.02,.03-.06,.07-.09,.1s-.07,.05-.08,.08c-.02,.03-.01,.07,0,.1s.01,.06,0,.09-.02,.06-.07,.06-.13-.02-.17-.06c-.04-.04-.04-.1-.03-.15,0-.06,.03-.12,.04-.19,0-.07,0-.14,0-.19-.01-.05-.02-.07-.03-.1s0-.06-.03-.09c-.02-.04-.07-.08-.11-.12-.04-.04-.08-.07-.14-.09-.06-.02-.15-.04-.23-.02s-.17,.06-.22,.1-.04,.07-.08,.09-.1,.04-.15,.05c-.05,0-.08,0-.12,0-.05-.01-.1-.03-.16-.04-.05-.01-.1-.01-.17,0-.07,0-.16,.02-.2,.04s-.05,.04-.04,.1c0,.06,.02,.14,.02,.21s-.03,.11-.03,.17c0,.05,0,.12,0,.18s-.02,.13-.04,.18-.06,.09-.1,.16c-.03,.07-.06,.17-.08,.27-.02,.1-.04,.2-.06,.27-.02,.07-.05,.11-.07,.17-.01,.05-.01,.12-.01,.19s0,.14-.01,.22-.04,.16-.06,.24-.04,.15-.02,.21c.01,.06,.06,.11,.08,.16s.02,.07,.02,.1,0,.06-.02,.1c-.02,.04-.06,.09-.08,.13-.02,.04-.03,.08,0,.14,.02,.05,.06,.12,.11,.2,.05,.08,.11,.17,.11,.24s-.06,.13-.09,.18-.03,.08-.03,.11,0,.06,.05,.28c.05,.21,.15,.61,.2,.83,.05,.21,.05,.24,.07,.33,.02,.09,.05,.25,.06,.38,0,.13,0,.25-.01,.36,0,.11,.01,.22,.02,.38,.01,.16,.03,.36,.01,.5-.01,.15-.06,.24-.08,.33-.02,.09-.03,.18-.08,.3s-.15,.25-.19,.37c-.05,.12-.05,.23-.05,.37v.49c0,.18,0,.38-.06,.6-.06,.22-.19,.45-.24,.65-.05,.2-.03,.35,0,.5,.02,.15,.04,.28,.04,.44,0,.16,0,.34,0,.52s0,.34,.05,.53,.13,.39,.12,.65-.12,.57-.16,.82c-.04,.25-.02,.42,.08,.77,.1,.34,.28,.84,.36,1.15,.09,.31,.08,.42,.09,.56s.03,.3,.02,.46c0,.17-.05,.33-.08,.48-.03,.15-.06,.28-.06,.41s.04,.26,.02,.39c-.02,.13-.1,.26-.14,.69-.04,.43-.04,1.17-.09,1.67Z"/><path class="cls-12" d="M264.46,23.54c4.36-1.11,8.57-2.53,12.71-4.29"/><path class="cls-10" d="M270.29,21.84c2.98,.58,5.96,1.06,8.97,1.42"/><path class="cls-10" d="M276.78,25.7c.58,.61,1.2,.97,2.01,1.17,1.22-.55,2.09-1.31,2.81-2.44-.38-.97-.92-1.75-1.69-2.46"/><path class="cls-12" d="M267.53,16.55c2.03-.86,3.92-1.9,5.74-3.16"/><path class="cls-10" d="M271.15,14.74c1.88,.4,3.7,.51,5.61,.31"/><path class="cls-12" d="M264.43,13.15c5.25-1.71,10.26-3.83,15.15-6.39"/><path class="cls-12" d="M264.53,9.41c5.2-.17,10.07-1.11,14.95-2.91"/><path class="cls-10" d="M266.23,6.94c2.92-.49,5.78-1.16,8.61-2.02"/><path class="cls-12" d="M279.48,6.49c-1.16-1.31-2.92-1.92-4.64-1.58"/><path class="cls-12" d="M279.48,6.49c.18,0,.24,.15,.11,.27"/><path class="cls-12" d="M264.53,9.41c-.62,1.31-.64,2.4-.1,3.74"/><path class="cls-12" d="M264.53,9.41c1.05-2.49,3.38-4.21,6.07-4.49h4.25"/><path class="cls-12" d="M264.43,13.15c.32,1.62,1.51,2.93,3.1,3.39"/><path class="cls-12" d="M267.53,16.55c1.09,.82,2.22,1.36,3.54,1.69,2.92,.61,5.86,1.05,8.84,1.31"/><path class="cls-12" d="M273.27,13.39c1.45,.11,2.49,.61,3.49,1.67"/><path class="cls-12" d="M273.27,13.39c.88-.31,1.73-.67,2.56-1.09,1.4-.62,2.68-1.37,3.9-2.29,.31-1.14,.27-2.13-.14-3.24"/><path class="cls-12" d="M276.75,15.05c2.09,.41,3.48,2.39,3.16,4.49"/><path class="cls-12" d="M279.91,19.55c.22,.83,.22,1.59,0,2.42"/><path class="cls-12" d="M279.91,21.97c-1,2.61-3.38,4.45-6.16,4.74h-6.57c-.68-.03-1.23-.21-1.78-.62-1.3-1.86-1.29-4.33,.02-6.18,.63-.41,1.24-.59,1.99-.59h2.57c.6,0,1.09-.49,1.09-1.09"/><path class="cls-1" d="M59.56,8.84c0,.66,.27,.94,.94,.93s.94-.28,.93-.94"/><path class="cls-1" d="M59.41,8.84c0,.66-.27,.94-.94,.93s-.94-.28-.93-.94"/><circle cx="62.74" cy="7.69" r="1.1"/><circle cx="56.12" cy="7.69" r="1.1"/><line class="cls-9" x1="161.06" y1="15.73" x2="168.33" y2="15.73"/><path class="cls-9" d="M60.73,6.63c0-1.15,.06-1.5-1.25-1.5s-1.25,.35-1.25,1.5c.86,.26,1.63,.26,2.5,0Z"/><path class="cls-9" d="M58.24,10.97v14.71c0,.86,.49,1.03,1.25,1.03s1.25-.16,1.25-1.03V10.97c-.85-.18-1.65-.18-2.5,0Z"/><path class="cls-12" d="M58.24,6.63c-1.79-.19-3.47-.6-5.14-1.26-.21-.08-.41-.17-.62-.26-.17-.08-.42-.45-.53-.11-.14,.42-.26,.84-.35,1.27-.19,.88-.27,1.74-.24,2.64,.02,.89,.15,1.76,.39,2.62,.12,.43,.26,.85,.43,1.27,.11,.27,.3,.03,.45-.07,.18-.12,.37-.23,.56-.34,1.61-.91,3.21-1.36,5.06-1.42,.85-.18,1.65-.18,2.5,0,1.85,.06,3.45,.51,5.06,1.42,.19,.11,.38,.22,.56,.34,.15,.1,.34,.34,.45,.07,.17-.42,.31-.84,.43-1.27,.23-.86,.36-1.73,.39-2.62,.02-.89-.06-1.76-.24-2.64-.09-.43-.21-.85-.35-1.27-.12-.34-.36,.03-.53,.11-.2,.09-.41,.17-.62,.26-1.67,.66-3.35,1.07-5.14,1.26-.86,.26-1.63,.26-2.5,0Z"/><path class="cls-12" d="M206.03,16.82c5.25-2.12,10.22-4.65,15.04-7.64"/><path class="cls-12" d="M220.99,7.3c-5.15,1.19-10.1,2.82-14.96,4.9"/><path class="cls-12" d="M206.03,9.63c4.91-.9,9.77-1.97,14.6-3.22"/><path class="cls-12" d="M206.03,7.96c3.95-.71,7.77-1.72,11.55-3.05"/><path class="cls-13" d="M218.58,26.65c.72-1.13,1.54-2.16,2.48-3.11"/><path class="cls-13" d="M214.68,25.23c1.78-2.07,3.72-3.22,6.39-3.8"/><path class="cls-13" d="M214.68,21.5c.89-1.11,1.88-1.73,3.27-2.06"/><path class="cls-13" d="M213.37,19.99c.37-.98,.9-1.75,1.68-2.44"/><path class="cls-12" d="M221,18.22c-.93-1.56-2.08-2.59-3.72-3.35"/><path class="cls-13" d="M221,18.22c-1.75-.6-3.32-1.43-4.81-2.53"/><path class="cls-12" d="M214.37,16.97c1.99,1.79,4.12,2.97,6.69,3.72"/><path class="cls-12" d="M211.83,20.57c-.38-.67-.84-.99-1.6-1.12"/><path class="cls-12" d="M217.28,14.87c-3.48,2.73-7.16,4.88-11.25,6.57"/><path class="cls-13" d="M206.03,21.43c2.42,.68,4.2,1.85,5.8,3.79"/><path class="cls-12" d="M217.58,4.91h-9.78c-.97,0-1.77,.78-1.77,1.75v1.3"/><path class="cls-12" d="M217.28,14.87c1.19-.65,2.28-1.4,3.3-2.28,.36-.42,.51-.82,.49-1.37v-2.03"/><path class="cls-12" d="M220.99,7.3c.51,.66,.53,1.18,.08,1.88"/><path class="cls-12" d="M220.63,6.41c.35,.24,.44,.48,.35,.89"/><path class="cls-12" d="M217.58,4.91c1.42-.1,2.26,.32,3.05,1.5"/><path class="cls-12" d="M206.03,9.63c-.51-.61-.51-1.07,0-1.68"/><path class="cls-12" d="M206.03,9.63c-.26,.89-.26,1.68,0,2.57"/><path class="cls-12" d="M206.03,16.82c-.77-1.64-.77-2.97,0-4.62"/><path class="cls-12" d="M206.03,21.43c-1-1.38-1-3.24,0-4.61"/><path class="cls-12" d="M206.03,21.43c-.81,1.13-.81,2.66,0,3.79,1.43,1.98,4.37,1.98,5.8,0"/><path class="cls-12" d="M211.83,20.57c.92-1.17,2.8-.55,2.85,.93v3.73c1.68,1.97,4.71,1.97,6.39,0v-6.5c0-.17-.03-.34-.07-.51"/><path class="cls-12" d="M211.83,20.57c.85,1.67,.85,2.99,0,4.65"/><path class="cls-14" d="M27.1,9.61c0-.39-.16-.55-.55-.55s-.55,.16-.55,.55,.16,.55,.55,.55,.55-.16,.55-.55Z"/><path class="cls-12" d="M47.04,11.48c-.14-3.65-3.15-6.54-6.81-6.54s-6.66,2.89-6.81,6.54c-.11,4.45-.23,8.9-.34,13.35,.26,.9,.59,1.16,.84,1.26,.25,.1,.41,.06,.6-.09,.19-.15,.4-.39,.58-.6s.32-.4,.5-.47,.39-.01,.56,.07c.17,.08,.28,.2,.38,.33,.1,.13,.17,.28,.24,.38,.07,.11,.15,.18,.25,.19,.11,.01,.24-.03,.36-.15,.11-.11,.2-.3,.28-.44,.08-.14,.16-.22,.25-.28,.1-.05,.22-.07,.33-.02,.11,.05,.21,.18,.26,.29,.06,.11,.07,.21,.14,.29,.07,.08,.21,.15,.29,.16,.08,0,.12-.06,.19-.24,.08-.18,.2-.47,.27-.68s.09-.35,.14-.51,.11-.34,.22-.47c.11-.13,.28-.21,.43-.22,.15-.01,.27,.04,.34,.14,.07,.1,.09,.24,.17,.37,.08,.13,.23,.25,.35,.31,.13,.06,.24,.04,.35-.04,.11-.08,.22-.24,.36-.34s.3-.13,.42-.08,.21,.19,.27,.33c.07,.14,.11,.29,.14,.47,.03,.18,.03,.4,.06,.56s.07,.26,.13,.34c.06,.08,.14,.14,.31,.16,.17,.01,.42-.02,.57-.1,.15-.08,.18-.2,.26-.36,.07-.16,.19-.36,.35-.42,.16-.06,.38,.03,.5,.17,.12,.14,.14,.34,.18,.5,.04,.16,.1,.29,.21,.39,.1,.11,.25,.19,.37,.19,.12,0,.2-.11,.3-.27,.1-.16,.21-.36,.36-.45,.15-.09,.33-.05,.45,.04,.12,.09,.17,.23,.22,.38,.05,.14,.1,.29,.17,.38,.07,.1,.16,.15,.37-.55l-.37-14.27Z"/><path d="M38.17,8.73c.64,.13,.42,1.18,.34,1.58-.08,.4-.29,1.46-.93,1.33-.64-.13-.42-1.18-.34-1.58,.08-.4,.29-1.46,.93-1.33Z"/><path d="M42.31,8.73c-.64,.13-.42,1.18-.34,1.58,.08,.4,.29,1.46,.93,1.33,.64-.13,.42-1.18,.34-1.58-.08-.4-.29-1.46-.93-1.33Z"/><path d="M39.3,16.67c.5,.55,1.37,.55,1.87,0-.03-1.27-.07-2.53-.1-3.8-.22-.87-1.45-.87-1.67,0-.03,1.27-.07,2.53-.1,3.8Z"/><path class="cls-10" d="M25.9,1.78c.04-.05,.08-.08,.14-.1"/><path class="cls-10" d="M25.6,2.05c.05-.09,.12-.14,.21-.18"/><path class="cls-10" d="M25.42,2.38c0-.08,.02-.13,.09-.16"/><path class="cls-9" d="M10.01,6.55c-.69,.36-1.39,.72-2.09,1.06,.08,.55,.24,1.04,.51,1.53,.83-.19,1.64-.45,2.43-.77"/><path class="cls-12" d="M8.01,7.57c-.13-.68-.16-1.33-.08-2.02-.45-.32-.85-.67-1.23-1.07-.22,.09-.27,.22-.15,.42,.17-.18,.37-.11,.38,.14-.03,.2-.1,.34-.25,.48-.26,.09-.5,.11-.78,.07-.11-.93,.1-1.6,.73-2.3,1.19-.22,2.39-.39,3.6-.51,.2-.03,.38,0,.57,.07,1.09,.37,2.04,.89,2.94,1.6"/><path class="cls-10" d="M25.07,3.13c.01-.12,.05-.22,.12-.32"/><path class="cls-10" d="M25.3,3.29c0-.3,.09-.51,.32-.71"/><path class="cls-10" d="M28.12,6.8c-.41-1.21-.95-2.31-1.66-3.37"/><path class="cls-10" d="M25.97,6.88c.06-1.28-.15-2.42-.67-3.6"/><path class="cls-10" d="M23.16,7.11c-.15-1.39,.11-2.51,.87-3.69"/><path class="cls-10" d="M21.06,6.97c.21-.98,.57-1.87,1.11-2.72"/><path class="cls-9" d="M25.73,3.31c.19-.51,.47-.8,.98-.99,.35-.13,0-.38-.13-.56-.14-.2-.31-.36-.51-.5-.41-.29-.91,.45-1.09,.71-.29,.43-.41,.84-.41,1.36"/><path class="cls-12" d="M24.03,3.42c-.68,.16-1.28,.42-1.85,.83-.58,.41-1.03,.89-1.41,1.49-.18,.29-.34,.6-.46,.92-.16,.41,.46,.46,.77,.31,.58,.54,1.45,.59,2.09,.14,.89,.53,2.02,.44,2.81-.22,.65,.48,1.54,.45,2.15-.08,.61,.19,1.17,.2,1.79,.04,.42-.11,.11-.43-.01-.67-.14-.27-.3-.53-.48-.77-.79-1.06-1.68-1.65-2.96-1.96-.38-.09-.76-.14-1.15-.15-.43,0-.85,.04-1.27,.13Z"/><rect class="cls-10" x="11.05" y="6.03" width="2.56" height=".84" rx=".15" ry=".15" transform="translate(-1.52 5.08) rotate(-21.96)"/><line class="cls-10" x1="11.83" y1="6.19" x2="12.14" y2="6.98"/><path class="cls-9" d="M13,5.72c-.15-.24-.31-.46-.49-.67-.89,.36-1.71,.79-2.51,1.32,0,.9,.28,1.5,.96,2.09,.92-.39,1.8-.84,2.64-1.37-.06-.21-.13-.41-.22-.61"/><path class="cls-10" d="M16.61,18.74c-.33-.07-.82-.2-1.27-.23-.45-.03-.85,.04-1.1,.23-.25,.18-.35,.48-.3,.81,.04,.32,.22,.67,.5,.97,.29,.29,.68,.53,.97,.71,.29,.19,.48,.33,.63,.54,.15,.21,.25,.49,.57,.72,.32,.23,.86,.42,1.25,.32,.39-.1,.64-.47,.87-.78,.23-.31,.44-.57,.6-.82,.16-.25,.28-.51,.24-.78-.03-.28-.21-.57-.44-.82s-.5-.44-.82-.56c-.32-.11-.68-.15-.95-.17-.27-.03-.44-.04-.77-.12Z"/><path class="cls-10" d="M22.64,17.24c-.24,.1-.54,.22-.72,.36-.18,.14-.25,.3-.26,.52,0,.23,.05,.52,.13,.78s.18,.5,.22,.71c.04,.22,.02,.41,.07,.61,.04,.2,.15,.4,.33,.54,.18,.13,.43,.2,.72,.17,.3-.03,.65-.15,1.04-.32,.4-.17,.84-.39,1.17-.45,.33-.06,.55,.04,.76,.04s.43-.09,.61-.31,.32-.55,.36-.81c.04-.26,0-.44-.23-.7s-.64-.6-.95-.78c-.31-.18-.53-.2-.72-.2s-.36,.03-.67-.03-.79-.22-1.11-.26c-.33-.04-.51,.03-.75,.12Z"/><path class="cls-10" d="M28.38,11.1c-.41-1.04-.52-1.21-.59-1.38-.07-.18-.11-.36-.17-.54-.06-.17-.14-.33-.24-.43-.1-.1-.21-.15-.29-.18s-.15-.03-.28-.06c-.13-.02-.33-.06-.47-.08-.14-.02-.23-.03-.33-.04s-.2-.02-.33-.01c-.14,0-.3,.03-.45,0s-.28-.07-.42-.14c-.14-.07-.29-.16-.44-.23-.16-.07-.32-.11-.46-.16-.14-.05-.26-.1-.32-.55"/><path class="cls-10" d="M28.27,15.04c-.6-.57-.7-.81-.74-1.03-.03-.22,0-.42,.06-.61,.05-.19,.1-.36,.28-.53,.18-.17,.48-.32,.49-.72"/><path class="cls-10" d="M19.26,24.45c.94-.93,1.14-1.07,1.38-1.11s.52-.01,.76,.11,.43,.34,.58,.51c.15,.17,.26,.3,.47,.35s.5,.01,.73-.21,.37-.64,.49-.93,.22-.48,.38-.66c.16-.18,.4-.36,.62-.49,.23-.13,.45-.21,.65-.25s.4-.05,.59-.02c.19,.04,.39,.12,.55,.21,.16,.09,.3,.18,.45,.26,.15,.08,.31,.16,.46,.19s.27,.02,.69-.1"/><path class="cls-10" d="M16.38,13.93c1.19,.83,1.01,1.06,.93,1.3-.08,.23-.06,.46-.02,.63,.04,.17,.1,.28,.2,.37,.1,.09,.23,.16,.44,.21,.21,.05,.5,.08,.73,.05,.23-.03,.4-.13,.55-.25,.15-.13,.27-.28,.45-.37s.43-.11,.61-.09c.18,.02,.3,.07,.45,.11,.16,.04,.35,.06,.53,.01,.18-.04,.34-.15,.45-.26,.11-.11,.17-.22,.21-.38,.04-.15,.04-.35,.05-.52s0-.33-.05-.48-.16-.31-.24-.42c-.08-.11-.14-.19-.23-.45"/><path class="cls-10" d="M9.04,14.53c1.05-.25,1.31-.31,1.49-.38s.28-.15,.41-.25c.13-.1,.27-.2,.36-.39,.09-.18,.11-.44,.13-.63,.02-.19,.03-.33,.05-.5,.01-.17,.03-.37,.11-.56,.08-.19,.23-.36,.37-.49,.13-.13,.25-.21,.37-.32,.12-.11,.23-.24,.31-.34,.08-.11,.12-.19,.17-.32,.05-.13,.1-.29,.06-.58"/><path class="cls-10" d="M9.26,22.02c2.14-.84,2.3-.8,2.48-.69,.18,.11,.37,.3,.5,.54s.2,.54,.27,.78c.08,.24,.16,.43,.36,.58s.51,.27,.74,.32c.23,.05,.39,.04,.57,.04,.18,0,.38,.02,.55,.1,.16,.07,.29,.2,.34,.4,.05,.2,.03,.47,.01,.67s-.02,.33,.07,.57c.09,.24,.29,.59,.42,.9"/><path class="cls-1" d="M24.89,11.25c0,.33-.14,.47-.47,.47-.33,0-.47-.14-.46-.47,.31,0,.62,0,.93,0Z"/><path class="cls-1" d="M24.97,11.25c0,.33,.14,.47,.47,.47,.33,0,.47-.14,.46-.47-.31,0-.62,0-.93,0Z"/><path class="cls-14" d="M23.8,9.61c0-.39-.16-.55-.55-.55s-.55,.16-.55,.55,.16,.55,.55,.55,.55-.16,.55-.55Z"/><path class="cls-14" d="M14.99,12.9c0-.45-.19-.64-.64-.64s-.64,.19-.64,.64,.19,.64,.64,.64,.64-.19,.64-.64Z"/><path class="cls-14" d="M11.16,12.9c0-.45-.19-.64-.64-.64s-.64,.19-.64,.64,.19,.64,.64,.64,.64-.19,.64-.64Z"/><path d="M12.47,17.13c-.87,0-1.69-.34-2.31-.96-.13-.13-.13-.34,0-.47,.13-.13,.33-.13,.46,0,.99,1,2.7,1,3.69,0,.13-.13,.33-.13,.46,0,.13,.13,.13,.34,0,.47-.62,.62-1.43,.96-2.31,.96Z"/><path class="cls-9" d="M13.56,6.96c.53-.34,1.03-.71,1.52-1.11-.11-.74-.41-1.18-1.07-1.54-.47,.28-.95,.56-1.43,.83"/><path class="cls-12" d="M15.74,8.27c.07,2.22,.13,4.45,.2,6.67,.62-2.95,4.83-2.95,5.45,0,.07-2.54,.15-5.09,.22-7.63"/><path class="cls-12" d="M28.51,6.89c-.18,6.03-.35,12.06-.53,18.09-2.17,2.3-5.83,2.3-8,0-.67-.86-1.97-.86-2.63,0-2.17,2.3-5.83,2.3-8,0l-.41-13.95"/><path class="cls-12" d="M8.31,8.89c-.69,.63-1.38,1.26-2.07,1.89-.16,.12-.16,.24-.01,.36,.13,.08,.26,.1,.41,.08,.59,.05,1.17,.02,1.76-.08,3.43-.66,6.31-1.96,9.09-4.09,.92-.56,1.33-1.22,1.45-2.29,.02-.23-.04-.4-.2-.56-.24-.15-.42-.14-.65,.02-1.01,.48-2.03,.94-3.06,1.36"/></g></svg>