<?xml version="1.0" encoding="utf-8"?>
<svg viewBox="49.249 340.765 107.278 10.149" width="107.278" height="10.149" xmlns="http://www.w3.org/2000/svg">
  <path style="stroke-width: 0px; fill: rgb(14, 68, 14);" d="M 49.249 340.794 L 53.531 340.8 L 53.369 345.322 L 55 342.532 L 56.388 345.237 L 56.481 340.806 L 60.187 340.792 L 59.896 350.885 L 56.006 350.88 L 54.85 348.177 L 53.322 350.891 L 49.255 350.914 L 49.249 340.794 Z"/>
  <path style="stroke-width: 0px; fill: rgb(14, 68, 14);" d="M 68.666 340.799 L 68.647 344.895 L 70.048 344.916 L 70.053 350.878 L 73.335 350.91 L 73.438 345.045 L 74.969 345.04 L 75.072 340.804 L 68.666 340.799 Z"/>
  <path d="M 109.465 350.866 L 105.885 350.8 L 105.866 347.716 L 104.887 347.692 L 104.848 350.856 L 100.691 350.896 L 100.752 340.788 L 105.022 340.787 L 104.907 344.656 L 105.856 344.659 L 105.994 340.809 L 109.671 340.78 L 109.465 350.866 Z" style="white-space: pre; fill: rgb(14, 68, 14);"/>
  <path d="M 75.199 350.86 L 75.43 340.772 L 81.301 340.807 L 81.251 343.773 L 79.007 343.743 L 78.99 344.47 L 81.248 344.45 L 81.163 347.053 L 78.807 347.093 L 78.804 347.558 L 81.281 347.566 L 81.258 350.873 L 75.199 350.86 Z" style="white-space: pre; fill: rgb(14, 68, 14);"/>
  <path d="M 90.079 344.451 C 89.992 345.075 89.819 345.639 89.562 346.144 C 89.305 346.644 89.572 346.184 89.177 346.728 L 89.748 350.877 L 86.106 350.925 L 85.595 347.849 L 85.464 347.854 L 85.391 350.895 L 81.792 350.922 L 81.916 340.75 L 87.268 340.74 C 87.677 340.74 88.96 341.117 89.505 341.738 C 90.051 342.36 89.997 342.414 90.075 342.892 C 90.154 343.372 90.155 343.891 90.079 344.451 Z M 86.623 344.135 C 86.66 343.867 86.641 343.645 86.567 343.47 C 86.493 343.291 86.386 343.199 86.242 343.199 L 85.336 343.191 L 85.335 345.085 L 85.98 345.082 C 86.123 345.082 86.257 344.992 86.381 344.806 C 86.505 344.623 86.585 344.399 86.623 344.135 Z" style="white-space: pre; fill: rgb(14, 68, 14);"/>
  <path d="M 68.733 350.887 L 65.221 350.878 L 65.114 349.457 L 63.904 349.422 L 63.707 350.903 L 60.349 350.903 L 61.084 340.814 L 68.154 340.779 L 68.733 350.887 Z M 64.544 343.275 C 64.544 343.275 63.948 343.059 63.87 345.248 C 63.87 345.248 65.276 345.258 65.276 345.235 C 65.244 343.052 64.544 343.275 64.544 343.275 Z" style="white-space: pre; fill: rgb(14, 68, 14);"/>
  <path style="stroke-width: 0px; fill: rgb(14, 68, 14);" d="M 93.738 340.854 L 93.713 344.753 L 95.253 344.768 L 95.132 350.866 L 98.675 350.866 L 98.675 344.944 L 100.036 344.966 L 100.139 340.758 L 93.738 340.854 Z"/>
  <path d="M 110.13 350.838 L 110.385 340.829 L 116.22 340.767 L 116.181 343.715 L 113.938 343.684 L 113.921 344.423 L 116.179 344.402 L 116.094 347.051 L 113.738 347.093 L 113.734 347.565 L 116.213 347.574 L 116.189 350.866 L 110.13 350.838 Z" style="white-space: pre; fill: rgb(14, 68, 14);"/>
  <path d="M 135.885 344.51 C 135.798 345.134 135.625 345.699 135.368 346.205 C 135.111 346.706 135.378 346.245 134.984 346.79 L 135.554 350.802 L 131.885 350.824 L 131.401 347.914 L 131.27 347.918 L 131.185 350.871 L 127.501 350.872 L 127.722 340.84 L 133.074 340.806 C 133.484 340.806 134.766 341.169 135.312 341.792 C 135.857 342.414 135.803 342.469 135.882 342.948 C 135.961 343.428 135.962 343.949 135.885 344.51 Z M 132.43 344.193 C 132.467 343.925 132.448 343.702 132.374 343.527 C 132.3 343.347 132.192 343.256 132.049 343.256 L 131.143 343.247 L 131.141 345.145 L 131.785 345.142 C 131.93 345.142 132.063 345.051 132.188 344.865 C 132.311 344.682 132.392 344.458 132.43 344.193 Z" style="white-space: pre; fill: rgb(14, 68, 14);"/>
  <path d="M 136.315 350.875 L 136.547 340.857 L 142.418 340.891 L 142.368 343.863 L 140.124 343.832 L 140.107 344.561 L 142.365 344.54 L 142.279 347.148 L 139.924 347.189 L 139.92 347.654 L 142.398 347.662 L 142.374 350.903 L 136.315 350.875 Z" style="white-space: pre; fill: rgb(14, 68, 14);"/>
  <path d="M 143.049 350.872 L 143.281 340.853 L 149.152 340.888 L 149.102 343.859 L 146.858 343.829 L 146.841 344.557 L 149.098 344.537 L 149.013 347.144 L 146.657 347.185 L 146.653 347.65 L 149.132 347.658 L 149.108 350.9 L 143.049 350.872 Z" style="white-space: pre; fill: rgb(14, 68, 14);"/>
  <path d="M 153.043 340.818 C 153.981 340.818 155.156 341.136 155.676 341.687 C 156.196 342.238 156.283 344.011 156.283 344.011 L 153.507 343.945 C 153.507 343.945 153.528 343.322 153.209 343.322 C 152.899 343.322 152.86 343.45 152.86 343.63 C 152.86 343.889 153.094 344.42 153.598 344.558 C 154.185 344.716 154.67 344.882 155.052 345.056 C 155.431 345.236 155.762 345.524 156.046 345.92 C 156.33 346.322 156.475 346.865 156.483 347.551 C 156.483 348.709 156.358 349.792 155.77 350.352 C 155.187 350.917 154.249 350.874 153.267 350.874 C 152.128 350.874 150.917 351.009 150.283 350.491 C 149.644 349.979 149.638 348.933 149.638 347.633 L 152.629 347.648 C 152.697 347.933 152.702 348.218 153.105 348.218 C 153.404 348.218 153.576 348.047 153.576 347.778 C 153.576 347.54 153.183 347.28 152.694 347.149 C 152.099 346.978 151.606 346.803 151.216 346.618 C 150.826 346.433 150.404 346.259 150.112 345.831 C 149.821 345.403 149.546 344.575 149.546 343.841 C 149.546 342.769 149.835 341.95 150.458 341.438 C 151.077 340.932 152.093 340.818 153.043 340.818 Z" style="white-space: pre; stroke-width: 0.5px; fill: rgb(14, 68, 14);"/>
  <path style="stroke-width: 0px; fill: rgb(14, 68, 14);" d="M 120.604 340.832 L 120.579 344.857 L 122.119 344.872 L 121.998 350.97 L 125.541 350.97 L 125.541 345.048 L 126.902 345.07 L 127.005 340.862 L 120.604 340.832 Z"/>
</svg>