<?xml version="1.0" encoding="utf-8"?>
<svg viewBox="48.636 337.105 121.472 13.664" width="121.472" height="13.664" xmlns="http://www.w3.org/2000/svg">
  <path style="stroke-width: 0px; stroke: rgb(42, 52, 11); fill: rgb(236, 236, 236);" d="M 48.641 337.601 L 53.357 337.64 L 52.872 342.914 L 54.459 339.852 L 55.123 342.856 L 56.419 337.632 L 61.211 337.538 L 58.191 350.664 L 53.976 350.633 L 53.894 345.056 L 52.714 350.645 L 48.636 350.692 L 48.641 337.601 Z"/>
  <path style="stroke-width: 0px; stroke: rgb(42, 52, 11); fill: rgb(236, 236, 236);" d="M 97.884 337.479 L 96.534 342.935 L 99.316 343.003 L 97.419 350.643 L 101.694 350.692 L 103.359 343.217 L 105.564 343.19 L 106.951 337.656 L 97.884 337.479 Z"/>
  <path style="stroke-width: 0px; stroke: rgb(42, 52, 11); fill: rgb(236, 236, 236);" d="M 127.684 337.559 L 126.387 343.094 L 129.202 343.159 L 127.329 350.645 L 131.552 350.692 L 133.196 343.37 L 135.166 343.3 L 136.742 337.591 L 127.684 337.559 Z"/>
  <path d="M 67.207 350.692 L 64.598 350.659 L 64.476 348.813 L 62.737 348.777 L 62.221 350.692 L 59.04 350.692 L 62.221 337.566 L 66.353 337.566 L 67.207 350.692 Z M 64.153 341.225 C 64.153 341.225 63.931 342.328 63.526 343.984 L 64.24 343.946 L 64.153 341.225 Z M 74.68 343.837 L 73.012 343.86 L 71.983 350.692 L 68.411 350.654 L 69.538 343.938 L 67.374 343.906 L 66.852 337.573 L 75.99 337.566 L 74.68 343.837 Z M 73.972 350.692 L 76.59 337.474 L 84.419 337.553 L 83.355 341.679 L 78.823 341.591 L 78.654 342.528 L 83.131 342.583 L 82.391 345.637 L 78.227 345.54 L 78.003 346.499 L 82.151 346.512 L 81.099 350.724 L 73.972 350.692 Z" style="white-space: pre; fill: rgb(236, 236, 236);"/>
  <path d="M 113.47 350.633 L 109.254 350.689 L 110.206 346.749 L 109.346 346.694 L 108.382 350.634 L 104.287 350.692 L 107.478 337.668 L 111.373 337.641 L 109.994 342.987 L 110.863 342.973 L 112.236 337.517 L 116.295 337.548 L 113.47 350.633 Z" style="white-space: pre; fill: rgb(236, 236, 236);"/>
  <path d="M 167.024 337.102 C 167.971 337.102 168.701 337.443 169.215 338.124 C 169.729 338.807 170.248 339.675 170.074 341.011 L 170.067 341.434 L 167.465 341.374 L 166.772 341.453 C 166.826 341.07 166.947 340.632 166.824 340.378 C 166.704 340.124 166.704 340.045 166.381 340.045 C 166.066 340.045 166.14 340.048 165.947 340.21 C 165.754 340.38 165.642 340.584 165.609 340.824 C 165.56 341.168 165.639 341.423 165.843 341.587 C 166.051 341.752 166.397 341.923 166.881 342.104 C 167.445 342.318 167.902 342.544 168.253 342.779 C 168.604 343.017 168.886 343.398 169.099 343.932 C 169.308 344.468 169.354 345.195 169.233 346.111 C 169.015 347.662 168.558 348.811 167.862 349.561 C 167.162 350.315 166.317 350.692 165.328 350.692 C 164.172 350.692 162.621 350.435 162.075 349.744 C 161.529 349.06 161.423 347.683 161.669 345.945 L 164.575 346.018 C 164.483 346.676 164.53 346.86 164.692 347.082 C 164.856 347.306 165.128 347.673 165.536 347.673 C 165.838 347.673 166.096 347.616 166.308 347.503 C 166.521 347.39 166.653 347.154 166.705 346.794 C 166.747 346.476 166.672 346.236 166.478 346.078 C 166.28 345.921 165.947 345.751 165.478 345.573 C 164.906 345.347 164.442 345.109 164.083 344.859 C 163.722 344.612 163.435 344.204 163.222 343.632 C 163.01 343.059 162.972 342.284 163.107 341.301 C 163.31 339.865 163.773 338.807 164.499 338.124 C 165.221 337.443 166.063 337.102 167.024 337.102 Z" style="white-space: pre; fill: rgb(236, 236, 236);"/>
  <path d="M 113.981 350.692 L 116.851 337.619 L 123.811 337.615 L 123.03 341.661 L 118.833 341.591 L 118.663 342.528 L 122.882 342.538 L 122.355 345.636 L 118.237 345.539 L 118.012 346.499 L 122.277 346.529 L 121.615 350.692 L 113.981 350.692 Z" style="white-space: pre; fill: rgb(236, 236, 236);"/>
  <path d="M 145.486 341.525 C 145.374 342.33 145.149 343.058 144.814 343.708 C 144.478 344.353 144.139 344.819 143.629 345.126 L 143.677 350.699 L 139.668 350.63 L 140.087 345.908 L 139.513 345.86 L 138.276 350.602 L 133.854 350.604 L 137.21 337.566 L 141.737 337.566 C 142.27 337.566 144.515 337.684 144.841 338.045 C 145.166 338.406 145.38 338.898 145.483 339.517 C 145.585 340.134 145.587 340.804 145.486 341.525 Z M 141.933 341.344 C 141.982 341 141.957 340.713 141.86 340.487 C 141.765 340.256 141.624 340.139 141.437 340.139 L 140.759 340.291 L 140.152 342.576 L 141.096 342.564 C 141.283 342.564 141.457 342.447 141.618 342.21 C 141.78 341.973 141.885 341.686 141.933 341.344 Z" style="white-space: pre; fill: rgb(236, 236, 236);"/>
  <path d="M 144.369 350.67 L 146.569 337.78 L 154.609 337.603 L 153.786 341.661 L 149.548 341.591 L 149.379 342.528 L 153.683 342.538 L 153.134 345.651 L 148.952 345.539 L 148.727 346.499 L 152.992 346.529 L 152.22 350.692 L 144.369 350.67 Z" style="white-space: pre; fill: rgb(236, 236, 236);"/>
  <path d="M 153.081 350.692 L 155.527 337.521 L 162.911 337.615 L 162.028 341.649 L 157.933 341.591 L 157.764 342.528 L 161.982 342.538 L 161.456 345.636 L 157.337 345.539 L 157.112 346.499 L 161.378 346.529 L 160.715 350.692 L 153.081 350.692 Z" style="white-space: pre; fill: rgb(236, 236, 236);"/>
  <path d="M 93.354 341.504 C 93.241 342.308 93.016 343.035 92.681 343.686 C 92.346 344.331 92.007 344.797 91.496 345.104 L 91.544 350.678 L 87.535 350.723 L 87.955 345.885 L 87.38 345.837 L 86.144 350.639 L 81.731 350.769 L 85.077 337.544 L 89.605 337.544 C 90.138 337.544 92.382 337.662 92.708 338.023 C 93.034 338.383 93.247 338.877 93.35 339.494 C 93.452 340.112 93.454 340.782 93.354 341.504 Z M 89.801 341.322 C 89.849 340.977 89.825 340.691 89.728 340.465 C 89.632 340.234 89.492 340.116 89.305 340.116 L 88.626 340.27 L 88.019 342.554 L 88.963 342.543 C 89.15 342.543 89.324 342.427 89.486 342.188 C 89.647 341.952 89.752 341.663 89.801 341.322 Z" style="white-space: pre; fill: rgb(236, 236, 236);"/>
</svg>