<?xml version="1.0" encoding="utf-8"?>
<svg viewBox="33.901 324.576 166.928 34.524" width="166.928" height="34.524" xmlns="http://www.w3.org/2000/svg">
  <path style="stroke-width: 0px; stroke: rgb(42, 52, 11); fill: rgb(255, 255, 255);" d="M 33.983 324.596 L 62.262 324.576 L 59.348 338.257 L 68.892 330.173 L 72.867 338.105 L 80.654 324.703 L 109.448 324.669 L 91.302 358.708 L 65.985 358.627 L 65.495 343.908 L 58.4 358.659 L 33.901 358.785 L 33.983 324.596 Z"/>
  <path style="stroke-width: 0px; stroke: rgb(42, 52, 11); fill: rgb(255, 255, 255);" d="M 109.053 324.686 L 101.879 338.473 L 117.712 338.654 L 106.916 358.821 L 131.259 358.95 L 140.733 339.219 L 158.076 339.108 L 165.03 324.874 L 109.053 324.686 Z"/>
  <path style="stroke-width: 0px; stroke: rgb(42, 52, 11); fill: rgb(255, 255, 255);" d="M 148.81 324.812 L 141.284 338.929 L 157.514 338.804 L 146.718 358.971 L 171.061 359.1 L 180.535 339.369 L 193.083 339.298 L 200.829 325.088 L 148.81 324.812 Z"/>
</svg>