<?xml version="1.0" encoding="utf-8"?>
<svg viewBox="28.488 324.396 195.93 34.46" width="195.93" height="34.46" xmlns="http://www.w3.org/2000/svg">
  <path style="stroke-width: 0px; stroke: rgb(42, 52, 11);" d="M 33.983 324.596 L 62.262 324.576 L 59.348 338.257 L 68.892 330.173 L 72.867 338.105 L 80.654 324.703 L 109.448 324.669 L 91.302 358.708 L 65.985 358.627 L 65.495 343.908 L 58.4 358.659 L 33.901 358.785 L 33.983 324.596 Z"/>
  <path style="stroke-width: 0px; stroke: rgb(42, 52, 11);" d="M 115.011 324.396 L 107.837 338.183 L 123.67 338.364 L 112.874 358.531 L 137.217 358.66 L 146.691 338.929 L 159.24 338.858 L 166.985 324.648 L 115.011 324.396 Z"/>
  <path style="stroke-width: 0px; stroke: rgb(42, 52, 11);" d="M 172.444 324.592 L 164.873 338.379 L 181.103 338.56 L 170.307 358.727 L 194.65 358.856 L 204.124 339.125 L 216.672 339.054 L 224.418 324.844 L 172.444 324.592 Z"/>
</svg>