<?xml version="1.0" encoding="utf-8"?>
<svg viewBox="14.04 -44.422 136.743 261.534" width="136.743" height="261.534" xmlns="http://www.w3.org/2000/svg">
  <defs>
    <linearGradient gradientUnits="userSpaceOnUse" x1="202.929" y1="-1.045" x2="202.929" y2="245.032" id="gradient-1" gradientTransform="matrix(0.022071, 0.999757, -0.805806, 0.01779, 296.885481, -92.974449)">
      <stop offset="0" style="stop-color: rgb(215, 221, 153);"/>
      <stop offset="1" style="stop-color: rgb(228, 181, 140);"/>
    </linearGradient>
    <linearGradient gradientUnits="userSpaceOnUse" x1="284.973" y1="30.52" x2="284.973" y2="430.894" id="gradient-0" gradientTransform="matrix(0.97, 0.712411, -0.314136, 0.335375, 117.890701, -46.524521)">
      <stop offset="0" style="stop-color: rgb(215, 221, 153);"/>
      <stop offset="1" style="stop-color: rgb(228, 181, 140);"/>
    </linearGradient>
    <linearGradient gradientUnits="userSpaceOnUse" x1="255.632" y1="-123.493" x2="255.632" y2="319.107" id="gradient-2" gradientTransform="matrix(0.999641, -0.029642, 0.009015, 0.372716, -0.752649, 30.698388)">
      <stop offset="0" style="stop-color: rgb(215, 221, 153);"/>
      <stop offset="1" style="stop-color: rgb(228, 181, 140);"/>
    </linearGradient>
  </defs>
  <g id="svg_117" style="" transform="matrix(0, 0.290474, -0.262342, 0, 105.119194, -75.43766)">
    <path id="svg_123" fill-rule="evenodd" clip-rule="evenodd" d="M 251.673 -111.273 C 260.799 -116.303 263.342 -122.174 274.015 -120.414 C 282.026 -119.092 296.415 -105.499 296.357 -92.995 C 296.299 -80.545 281.419 -72.308 283.155 -59.481 C 283.909 -53.919 288.31 -49.55 293.312 -49.327 C 305.104 -48.8 320.058 -80.967 339.008 -71.668 C 346.537 -67.974 351.705 -59.964 349.165 -48.312 C 348.699 -46.173 346.801 -43.256 347.132 -40.186 C 347.881 -33.26 356.575 -32.011 359.317 -23.938 C 361.783 -16.691 358.762 -12.259 358.305 -1.597 C 351.264 10.2 339.235 16.006 324.79 22.776 C 313.013 28.298 302.858 31.67 299.402 45.118 C 302.162 57.636 315.19 55.734 326.82 50.195 C 331.653 47.895 336.232 43.439 341.038 43.086 C 345.795 42.739 355.931 46.351 358.305 49.18 C 365.622 57.904 359.544 71.191 352.211 78.63 C 352.766 84.676 356.906 86.998 357.287 91.833 C 358.587 108.261 341.108 114.812 329.869 121.283 C 323.128 119.663 318.061 119.025 309.559 122.298 C 299.273 126.254 289.296 131.527 290.262 144.641 C 297.85 153.93 312.374 143.128 319.71 151.749 C 326.957 160.263 319.849 173.064 312.605 180.186 C 308.188 181.861 302.094 181.861 299.402 185.261 C 303.229 202.602 293.194 214.032 278.075 215.728 C 274.009 219.442 273.904 225.073 271.984 229.943 C 270.472 233.777 267.439 236.568 266.905 241.116 C 266.295 246.311 269.309 258.146 268.935 267.518 C 268.779 271.462 267.77 276.332 267.92 277.676 C 268.787 285.416 273.051 289.772 271.983 295.954 C 271.013 301.566 264.812 304.763 262.843 309.154 C 259.871 311.263 254.97 311.442 252.687 314.232 C 249.592 315.057 248.308 321.298 244.562 318.296 C 241.554 307.344 251.113 297.579 252.687 285.796 C 254.992 268.529 249.296 250.962 250.655 234.005 C 247.84 230.052 245.266 225.854 244.562 219.79 C 240.41 215.055 239.124 209.577 232.376 206.584 C 225.059 203.343 218.281 206.48 213.081 200.493 C 211.778 198.993 211.804 195.709 210.034 194.399 C 206.363 191.678 200.919 192.734 197.847 189.323 C 194.874 186.017 193.27 174.094 197.847 167.997 C 202.284 162.087 219.615 161.495 220.188 149.718 C 220.993 133.209 202.428 139.333 187.691 137.53 C 176.745 136.189 156.278 121.097 154.179 109.093 C 152.908 101.827 154.854 99.512 157.226 92.846 C 151.054 83.029 149.184 64.043 161.288 61.365 C 165.508 60.431 168.987 63.24 174.49 64.412 C 188.837 67.465 207.492 45.512 204.956 41.055 C 203.527 38.545 200.256 33.848 197.847 31.916 C 188.544 24.451 172.706 23.786 163.319 17.698 C 149.093 8.473 143.72 -14.635 158.242 -28.002 C 155.054 -44.568 160.365 -60.036 180.586 -56.435 C 190.274 -48.858 198.353 -39.673 211.052 -35.108 C 215.545 -36.708 218.639 -39.707 221.208 -43.233 C 223.57 -61.424 201.543 -74.84 203.943 -97.057 C 205.254 -109.181 217.651 -124.284 232.379 -123.461 C 242.342 -122.903 243.165 -115.05 251.673 -111.273 Z" style="fill-opacity: 0.32; fill: url(#gradient-2);"/>
  </g>
  <g transform="matrix(0, 0.628818, -0.628818, 0, 244.170181, 121.330963)" style="">
    <title>Layer 1</title>
    <g transform="matrix(0, -1, 1, 0, -182.011642, 293.096405)">
      <title>Layer 1</title>
      <g id="svg_1" style="" transform="matrix(0.429071, 0, 0, 0.429071, -50.740311, 48.897015)">
        <path id="svg_22" fill-rule="evenodd" clip-rule="evenodd" d="M 219.461 6.203 C 219.493 6.202 219.524 6.202 219.554 6.203 C 218.668 4.139 216.847 7.512 219.461 6.203 Z M 400.622 132.091 C 399.988 132.733 402.527 133.807 402.525 134.176 C 402.511 136.857 395.814 135.587 394.415 136.108 C 393.715 136.369 395.903 137.092 395.842 137.836 C 395.68 139.797 392.024 138.868 390.064 139.039 C 388.272 139.196 387.672 140.675 386.494 140.924 C 385.464 141.142 384.275 137.197 383.266 139.12 C 382.752 140.099 384.35 141.047 384.854 142.031 C 385.277 142.856 383.623 143.551 382.742 143.839 C 377.569 145.531 376.833 143.814 368.663 143.33 C 368.197 143.302 369.364 143.948 369.702 144.27 C 370.775 145.293 373.485 146.999 372.295 147.884 C 367.539 151.422 367.013 152.334 359.095 152.992 C 357.126 153.156 352.608 151.051 353.169 152.945 C 354.151 156.258 358.823 158.439 358.438 161.873 C 358.2 163.991 353.777 162.906 352.93 163.646 C 352.281 164.213 354.811 164.79 354.595 165.625 C 354.202 167.144 351.393 166.084 350.073 166.933 C 348.742 167.789 349.665 170.921 348.119 171.26 C 347.403 171.417 347.556 169.872 347.058 169.333 C 346.282 168.493 342.077 167.833 341.86 169.137 C 341.019 174.188 346.458 174.365 346.914 177.796 C 347.187 179.848 337.309 183.47 336.203 184.305 C 335.919 184.52 335.625 187.523 334.226 187.213 C 328.579 185.962 338.085 188.926 337.823 192.07 C 337.504 195.911 330.213 194.465 327.424 197.126 C 325.798 198.677 330.561 200.547 332.641 201.397 C 334.524 202.166 334.79 204.927 336.326 206.26 C 338.138 207.833 343.853 208.802 342.149 210.492 C 338.144 214.464 331.605 216.58 326.913 218.28 C 325.648 218.738 324.386 217.127 323.041 217.144 C 321.833 217.159 321.183 219.04 319.976 219.077 C 319.024 219.106 317.404 216.374 317.78 217.249 C 318.739 219.481 322.429 223.759 320.036 224.179 C 318.471 224.453 316.841 223.126 315.31 223.551 C 314.575 223.755 314.801 225.221 314.085 225.485 C 312.519 226.061 310.605 224.033 309.005 224.62 C 308.262 224.893 308.095 226.171 307.312 226.285 C 306.487 226.405 301.89 219.213 302.693 223.723 C 303.197 226.551 308.727 228.327 307.456 230.903 C 306.477 232.887 302.971 230.49 301.723 230.743 C 300.894 230.911 301.187 232.685 300.366 232.888 C 299.298 233.152 298.272 231.881 297.181 232.023 C 296.447 232.119 296.469 233.52 295.759 233.729 C 293.485 234.399 291.878 230.292 289.508 230.339 C 288.177 230.365 291.073 232.507 291.669 233.698 C 292.198 234.754 293.463 241.87 290.577 241.512 C 289.103 241.329 289.107 238.773 287.841 237.996 C 286.587 237.226 285.937 240.536 285.379 240.689 C 283.034 241.331 280.774 239.126 278.453 238.4 C 276.381 237.752 274.438 236.631 272.296 236.277 C 271.152 236.088 271.609 238.051 270.567 238 C 270.377 237.991 268.881 235.64 268.855 235.936 C 268.589 238.931 271.732 243.705 268.998 244.956 C 267.433 245.672 264.599 241.093 262.351 241.641 C 261.591 241.826 261.657 243.335 260.887 243.477 C 259.753 243.687 259.088 242.022 258.102 241.423 C 257.29 240.93 256.936 243.03 256.559 243.093 C 252 243.85 248.834 237.961 244.66 235.978 C 244.263 235.789 244.97 236.819 244.979 237.259 C 245.016 238.962 245.865 241.179 244.635 242.358 C 242.868 244.053 240.114 241.539 238.569 241.128 C 237.543 240.855 237.818 243.502 236.791 243.77 C 234.659 244.326 233.569 240.899 231.704 240.601 C 231.006 240.489 230.877 241.988 230.519 242.011 C 228.768 242.124 228.128 239.319 226.549 238.552 C 225.631 238.106 224.55 239.309 223.545 239.136 C 222.804 239.009 222.972 237.562 222.28 237.267 C 221.226 236.817 221.99 240.206 220.86 240.398 C 219.045 240.706 217.675 238.254 215.841 238.093 C 214.888 238.009 214.882 240.336 213.931 240.235 C 211.851 240.013 208.38 236.058 205.78 235.657 C 205.657 235.638 203.979 239.893 202.683 239.768 C 200.877 239.594 200.06 237.089 198.356 236.467 C 196.984 235.966 195.404 237.814 194.048 237.271 C 192.828 236.783 192.987 234.783 192.027 233.885 C 190.649 232.596 190.159 234.832 189.263 234.607 C 187.671 234.207 187.883 231.437 186.527 230.511 C 185.231 229.626 184.403 234.573 183.084 233.722 C 181.376 232.62 179.792 229.578 177.493 228.743 C 177.277 228.665 176.312 230.135 175.97 230.115 C 173.968 230.001 173.235 227.171 171.717 225.861 C 171.084 225.315 170.961 227.613 170.151 227.818 C 168.651 228.199 168.094 226.712 167.083 225.944 C 166.5 225.501 165.512 228.154 165.36 228.171 C 164.256 228.296 163.748 223.684 162.739 224.686 C 159.879 227.524 160.553 225.013 156.95 221.567 C 156.082 220.737 155.751 224.429 154.561 224.266 C 153.332 224.098 152.889 222.337 151.766 221.811 C 150.878 221.395 149.914 223.175 149.001 222.818 C 147.791 222.345 148.258 219.829 147.01 219.466 C 145.704 219.086 144.307 221.094 143.07 220.528 C 140.713 219.449 140.266 215.845 137.956 214.668 C 135.2 213.264 137.476 216.769 135.915 216.459 C 133.756 216.031 133.419 214.159 130.236 213.852 C 126.131 213.456 124.845 207.42 121.328 205.265 C 117.577 202.967 120.912 207.62 119.39 207.463 C 111.733 206.674 106.195 199.532 99.567 195.619 C 99.365 195.5 97.953 196.908 97.136 196.311 C 93.087 193.352 90.549 188.716 86.829 185.353 C 85.751 184.378 84.019 184.212 83.109 183.079 C 81.526 181.107 81.111 186.584 79.495 185.231 C 77.898 183.894 79.244 180.858 78.049 179.152 C 77.413 178.244 72.049 175.707 71.746 175.643 C 69.739 175.217 70.082 171.826 68.744 170.271 C 68.192 169.63 67.582 172.02 66.754 171.847 C 64.792 171.438 64.936 168.251 63.73 166.65 C 62.953 165.618 61.098 166.497 59.913 165.983 C 57.565 164.964 58.977 160.861 57.745 158.618 C 57.2 157.625 55.731 157.451 55.056 156.541 C 54.692 156.05 52.898 150.8 52.336 150.148 C 51.491 149.168 49.537 149.647 48.774 148.601 C 47.352 146.654 46.072 139.026 44.35 136.656 C 43.77 135.858 42.596 138.036 41.899 137.222 C 38.298 133.016 43.328 123.693 38.512 120.96 C 27.185 114.533 16.72 121.099 6.47 123.553 C 4.199 124.097 -2.106 119.519 -1.127 116.707 C 1.578 108.939 20.228 113.809 24.93 111.329 C 26.486 110.508 24.542 99.55 24.606 99.092 C 24.893 97.033 26.527 95.368 27.058 93.359 C 27.476 91.778 27.589 90.091 27.415 88.465 C 27.34 87.767 25.934 87.225 26.341 86.653 C 27.076 85.619 30.506 88.562 31.122 85.406 C 31.47 83.624 29.73 81.417 30.823 79.967 C 31.771 78.709 34.42 79.689 35.267 78.361 C 36.028 77.169 34.903 75.497 35.218 74.118 C 35.491 72.924 37.659 73.534 38.87 73.716 C 40.104 73.902 45.536 63.01 47.085 62.765 C 48.563 62.531 49.044 67.647 49.787 66.349 C 51.708 62.994 51.498 58.061 54.646 55.816 C 55.054 55.525 57.332 56.8 57.369 56.642 C 57.646 55.443 55.955 54.122 56.546 53.043 C 57.371 51.537 60.254 52.812 61.5 51.631 C 62.449 50.731 61.499 48.781 62.369 47.804 C 62.966 47.134 64.301 47.997 65.043 47.493 C 66.603 46.434 65.678 42.84 67.348 42.013 C 68.636 41.375 69.965 45.767 70.8 44.597 C 72.882 41.679 73.024 36.867 76.264 35.334 C 77.256 34.865 78.271 37.189 79.257 36.707 C 81.501 35.61 80.606 32.136 83.429 31.594 C 84.23 31.44 85.045 32.896 85.723 32.443 C 87.823 31.041 88.119 26.858 90.638 26.677 C 92.031 26.577 91.719 31.608 92.481 30.438 C 93.79 28.428 95.751 20.773 96.678 20.195 C 98.113 19.3 99.549 24.884 100.526 23.503 C 101.755 21.767 102.206 18.321 104.332 18.383 C 104.564 18.39 105.688 20.023 105.856 19.91 C 107.675 18.684 108.483 16.099 110.508 15.256 C 111.694 14.762 112.187 18.819 113.194 18.021 C 114.711 16.818 115.202 14.692 116.442 13.204 C 116.861 12.701 117.249 11.743 117.889 11.878 C 118.211 11.946 117.346 15.187 119.137 13.746 C 120.655 12.525 120.49 8.76 122.288 10.011 C 124.596 11.616 125.635 9.298 127.729 8.287 C 129.976 7.201 130.254 8.048 132.092 8.936 C 133.305 9.522 133.613 6.515 134.85 5.981 C 136.018 5.477 135.953 10.089 136.877 9.215 C 143.518 2.934 148.829 2.255 158.536 0.607 C 160.253 0.316 158.306 7.35 158.418 8.827 C 158.423 8.893 162.016 4.3 162.267 4.309 C 163.011 4.336 162.952 6.53 163.573 6.12 C 165.238 5.023 175.962 -4.861 176.56 2.28 C 176.564 2.33 180.04 -1.842 181.109 -0.909 C 185.23 2.689 183.345 3.841 182.198 8.631 C 181.875 9.98 183.985 6.423 185.194 5.744 C 189.325 3.424 193.474 -2.029 197.96 -0.505 C 198.751 -0.236 198.156 1.378 198.854 1.837 C 199.944 2.554 201.869 -1.251 203.131 -0.916 C 205.959 -0.166 202.401 9.668 206.281 8.891 C 208.756 8.396 210.714 3.658 212.787 4.105 C 214.058 4.379 212.192 6.279 214.499 5.889 C 216.605 5.533 219.75 2.025 221.631 1.756 C 222.81 1.587 222.681 5.142 223.755 4.628 C 225.479 3.802 226.891 1.909 228.803 1.907 C 229.942 1.906 229.255 5.051 230.387 4.933 C 231.742 4.792 232.856 2.917 233.866 2.942 C 238.197 3.047 234.072 10.707 234.264 10.831 C 236.5 12.272 241.324 6.141 243.422 7.326 C 244.319 7.832 243.719 10.488 245.854 9.464 C 247.702 8.578 249.018 5.552 250.994 6.093 C 252.416 6.482 251.244 9.674 254.416 8.808 C 256.451 8.252 258.028 6.188 260.136 6.1 C 264.555 5.915 260.296 13.066 259.784 14.022 C 259.355 14.823 262.07 14.068 262.355 14.931 C 262.771 16.19 259.598 16.355 259.474 17.675 C 259.418 18.266 260.667 17.567 261.23 17.379 C 263.339 16.675 265.401 15.834 267.466 15.009 C 269.606 14.155 269.059 17.976 271.993 17.118 C 273.906 16.559 275.448 14.355 277.424 14.617 C 284.476 15.553 277.409 24.856 277.492 26.182 C 277.671 29.061 284.732 25.001 284.761 25.004 C 287.713 25.261 295.957 27.221 298.471 27.959 C 301.047 28.716 296.807 30.663 296.391 31.897 C 295.995 33.072 297.299 35.117 296.161 35.61 C 294.76 36.217 290.52 36.934 291.961 37.44 C 295.94 38.837 301.223 36.127 301.498 36.217 C 302.659 36.598 302.15 38.812 303.177 39.474 C 306.074 41.341 309.955 38.601 312.609 39.62 C 313.842 40.093 311.445 42.873 312.559 43.581 C 315.478 45.437 321.566 44.94 321.752 48.394 C 321.807 49.42 318.614 49.825 319.442 50.433 C 322.84 52.93 330.169 52.264 330.564 56.463 C 330.91 60.141 323.578 58.979 320.37 60.811 C 319.042 61.569 322.825 62.72 324.266 63.232 C 326.97 64.193 332.025 63.229 332.392 66.075 C 332.503 66.936 330.186 67.125 330.548 67.914 C 331.417 69.807 335.022 66.714 336.296 68.842 C 336.826 69.727 334.535 71.119 335.326 71.782 C 338.074 74.086 344.948 74.991 343.813 78.392 C 342.84 81.306 337.657 79.072 334.75 80.066 C 333.989 80.326 336.262 80.632 337.048 80.804 C 338.694 81.164 340.487 80.988 342.028 81.669 C 342.894 82.052 341.959 84.211 342.892 84.375 C 344.788 84.708 346.823 84.418 348.621 85.105 C 349.482 85.434 348.237 87.615 349.135 87.823 C 350.611 88.164 355.001 88.402 355.29 90.118 C 355.794 93.11 349.521 93.676 348.958 96.657 C 348.752 97.748 348.607 98.657 348.515 99.408 C 348.794 99.471 349.073 99.549 349.352 99.649 C 349.583 100.49 349.918 101.115 350.318 101.598 C 351.604 100.272 353.165 98.106 353.752 98.791 C 356.729 102.259 360.076 105.245 364.46 108.024 C 364.873 108.286 365.708 108.072 365.831 108.545 C 366.055 109.405 363.241 109.854 363.931 110.414 C 365.021 111.299 367.178 110.693 367.865 111.917 C 368.141 112.409 366.768 113.768 367.341 113.876 C 368.813 114.154 373.483 115.017 373.264 116.846 C 373.164 117.677 366.912 119.29 369.526 119.535 C 372.833 119.844 376.277 116.694 379.361 117.928 C 380.251 118.284 379.022 120.81 379.977 120.736 C 382.362 120.552 384.711 119.655 387.096 119.838 C 388.028 119.909 387.947 122.009 388.881 121.999 C 391.757 121.967 394.469 120.638 397.273 119.998 C 398.535 119.71 396.748 123.364 397.96 123.821 C 400.82 124.899 404.004 125.794 406.126 127.995 C 406.633 128.521 407.324 129.344 407.008 130.003 C 406.797 130.444 401.902 130.795 400.622 132.091 Z M 285.862 32.142 C 286.617 31.975 287.209 31.779 287.489 31.514 C 286.955 31.733 286.411 31.94 285.862 32.142 Z M 285.18 29.679 C 284.246 29.557 283.161 29.597 282.041 29.696 C 283.087 29.739 284.133 29.726 285.18 29.679 Z M 291.201 40.397 C 290.744 40.064 290.296 39.718 289.848 39.369 C 290.269 39.811 290.723 40.144 291.201 40.397 Z" style="fill-opacity: 0.46; fill: url(#gradient-1);"/>
      </g>
    </g>
    <g id="layer1" style="" transform="matrix(0.354512, 0, 0, 0.401693, -48.892178, 164.296814)">
      <g id="layer1-1" fill="#ff6600">
        <path id="path2396" d="M 158.467 402.105 C 152.295 411.405 146.443 398.32 148.479 394.388 C 156.822 378.27 162.515 371.899 187.519 350.697 C 205.522 335.432 214.265 327.38 216.899 323.645 C 219.604 319.803 218.074 319.134 205.671 318.735 C 197.252 318.463 191.578 318.827 179.005 320.444 C 155.781 323.428 136.223 323.176 118.767 319.668 C 112.055 318.32 110.509 317.13 111.699 314.231 C 112.351 312.642 113.807 311.918 119.943 310.13 C 126.383 308.253 128.218 307.301 133.473 303.114 C 140.43 297.569 142.452 293.833 140.399 290.32 C 138.831 287.636 128.116 282.54 115.848 278.645 L 105.737 275.434 L 95.779 275.988 C 85.063 276.584 83.356 276.145 83.794 272.899 C 84.066 270.88 86.944 268.586 95.524 263.546 C 98.911 261.557 102.564 259.144 103.638 258.186 L 105.595 256.443 L 99.381 250.346 C 93.351 244.431 92.56 243.028 91.479 236.306 C 90.422 229.744 72.907 211.131 59.968 202.821 C 53.652 198.765 52.12 197.373 52.322 195.875 C 52.806 192.292 54.698 191.831 63.873 193.062 C 76.832 194.799 104.938 193.58 112.163 190.964 C 113.891 190.339 116.981 188.587 119.028 187.071 C 123.514 183.749 126.03 183.106 131.364 183.92 C 133.59 184.26 136.206 184.471 137.177 184.39 C 142.189 183.969 144.617 183.321 145.216 182.243 C 146.895 179.225 142.789 156.879 138.626 146.379 C 135.945 139.62 131.483 134.933 121.379 128.264 C 114.202 123.526 112.601 121.101 115.084 118.728 C 116.872 117.018 117.688 117.173 127.742 121.122 C 140.132 125.987 143.39 125.973 154.946 121.011 C 170.716 114.238 178.139 106.094 177.954 95.766 C 177.914 93.546 177.994 91.02 178.131 90.156 C 178.431 88.276 181.289 86.35 183.058 86.837 C 192.381 89.401 192.115 89.39 194.827 87.32 C 196.23 86.249 199.337 82.889 201.732 79.852 C 206.458 73.861 207.19 71.308 207.231 60.67 C 207.247 56.571 207.538 55.543 209.122 53.996 C 212.413 50.783 214.73 52.257 220.851 61.46 C 226.387 69.781 232.38 76.123 236.809 78.352 C 240.694 80.305 254.889 83.388 259.998 83.388 C 264.392 83.388 265.047 83.14 269.399 79.814 C 274.642 75.808 278.328 75.069 278.934 77.903 C 279.129 78.818 278.384 84.269 277.277 90.017 L 275.267 100.468 L 278.526 105.99 C 281.929 111.761 282.237 114.605 279.737 117.196 C 277.501 119.512 277.612 120.978 280.217 123.554 C 282.296 125.61 283.132 125.865 287.249 125.703 C 293.81 125.442 305.792 121.946 310.609 118.888 C 316.149 115.37 319.405 111.526 325.541 101.261 C 336.076 83.638 335.652 84.171 344.323 77.629 C 350.789 72.748 353.034 71.472 355.147 71.472 C 358.284 71.472 358.972 73.619 357.427 78.59 C 356.58 81.32 356.734 81.884 358.822 83.667 C 363.301 87.496 376.133 87.508 389.343 83.696 C 395.089 82.039 399.952 79.819 408.399 74.999 C 422.307 67.063 424.872 65.912 428.638 65.912 C 433.673 65.912 434.558 67.928 433.557 77.117 C 432.636 85.564 434.003 96.427 437.562 108.944 C 440.164 118.099 441.832 119.359 454.257 121.561 C 457.795 122.189 459.476 122.945 460.241 124.253 C 462.456 128.042 458.913 131.191 441.055 141.302 C 428.899 148.186 425.334 150.929 420.832 156.868 C 419.175 159.053 412.034 167.426 404.961 175.475 C 397.888 183.524 392.706 189.798 393.445 189.418 C 394.186 189.036 399.063 186.155 404.284 183.015 C 417.139 175.285 420.45 173.924 428.517 173.057 C 437.88 172.049 438.638 171.773 452.212 164.442 C 467.468 156.2 469.029 155.533 472.342 155.829 C 475.849 156.142 476.015 158.299 472.879 162.81 C 471.624 164.616 470.737 166.753 470.909 167.558 C 471.39 169.815 478.289 176.703 481.577 178.212 C 490.367 182.246 513.601 184.885 521.143 182.706 C 523.034 182.161 527.967 179.766 532.107 177.385 C 540.942 172.303 544.302 171.904 544.192 175.954 C 544.138 177.905 542.567 179.997 535.848 187.059 C 525.301 198.145 521.287 203.922 516.915 214.308 C 515.34 218.045 515.236 218.89 516.094 220.875 C 516.637 222.127 517.842 223.55 518.774 224.035 C 522.659 226.063 526.532 230.54 526.244 232.672 C 525.815 235.854 524.397 236.919 513.139 242.521 C 499.246 249.433 496.409 251.707 493.103 258.581 C 491.642 261.622 489.837 267.025 489.093 270.588 C 487.933 276.141 487.939 277.566 489.128 280.566 C 489.892 282.49 491.471 284.99 492.64 286.121 C 495.003 288.409 513.604 301.706 519.63 305.417 C 523.669 307.904 524.548 309.857 522.504 311.811 C 520.81 313.429 514.365 313.282 500.233 311.304 C 479.638 308.42 466.56 310.19 443.499 318.987 C 434.042 322.595 432.787 322.873 424.216 323.267 L 415.049 323.688 L 420.343 328.027 C 427.247 333.686 429.115 337.031 433.168 351.004 C 435.021 357.389 437.46 364.578 438.586 366.982 C 440.971 372.067 449.292 385.735 456.237 395.976 C 465.347 409.412 470.879 422.692 469.135 426.94 C 468.487 428.52 467.763 428.944 465.72 428.944 C 463.672 428.944 461.371 427.332 454.777 421.279 C 444.679 412.011 438.497 408.9 426.399 406.999 C 419.54 405.921 416.886 405.858 410.305 406.615 C 400.583 407.732 387.832 410.91 382.547 413.532 C 377.367 416.103 375.749 418.567 373 428.073 C 370.492 436.748 369.294 438.914 366.584 439.667 C 362.038 440.932 360.032 438.628 351.833 422.723 C 345.122 409.705 340.462 404.893 325.812 395.867 C 307.122 384.351 304.805 383.769 298.274 388.946 C 296.152 390.628 291.566 395.401 288.082 399.552 C 284.598 403.702 279.618 409.081 277.014 411.505 C 268.029 419.871 266.991 421.403 266.165 427.518 C 265.757 430.544 264.923 433.711 264.312 434.557 C 263.043 436.312 260.366 436.581 259.193 435.068 C 258.756 434.505 258.712 428.517 259.098 421.763 C 260.227 401.965 259.768 398.706 253.597 382.78 C 251.475 377.306 249.028 368.266 247.574 360.538 C 244.896 346.295 239.928 332.742 236.458 330.214 C 234.487 328.778 234.227 328.769 231.379 330.03 C 224.601 333.031 193.427 358.552 181.877 370.556 C 174.917 377.791 171.954 381.784 158.467 402.105 Z" style="fill: url(#gradient-0); fill-opacity: 0.33;" transform="matrix(0.772041, -0.560921, 0.720159, 0.772041, -109.318591, 223.419391)"/>
      </g>
    </g>
  </g>
</svg>