<?xml version="1.0" encoding="utf-8"?>
<svg viewBox="-33.215 45.614 82.458 82.393" width="82.458" height="82.393" xmlns="http://www.w3.org/2000/svg" xmlns:bx="https://boxy-svg.com">
  <path style="fill: rgb(124, 74, 74);" d="M 2.726 105.291 H 13.032 V 125.583 A 2 2 0 0 1 11.032 127.583 H 4.726 A 2 2 0 0 1 2.726 125.583 V 105.291 Z" bx:shape="rect 2.726 105.291 10.306 22.292 0 0 2 2 1@bc31aae1"/>
  <path opacity="0.996078431372549" d="M 23.869 112.38 C 25.008 112.385 26.223 112.247 27.357 111.828 C 28.611 111.367 30.164 110.387 31.012 109.579 C 31.724 108.901 31.506 107.852 32.361 107.421 C 33.415 106.89 36.078 107.371 37.366 107.144 C 38.329 106.976 38.895 106.754 39.617 106.41 C 40.379 106.047 41.164 105.587 41.81 104.987 C 42.509 104.338 43.215 103.475 43.608 102.599 C 44.013 101.703 44.214 100.555 44.17 99.661 C 44.132 98.857 43.227 98.096 43.496 97.456 C 43.786 96.765 45.379 96.437 46.084 95.712 C 46.819 94.95 47.457 93.875 47.77 92.955 C 48.062 92.101 48.081 91.187 47.994 90.384 C 47.912 89.631 47.697 88.947 47.321 88.271 C 46.925 87.566 45.903 86.952 45.634 86.251 C 45.382 85.6 45.465 85.068 45.634 84.23 C 45.866 83.055 47.017 81.029 47.321 79.731 C 47.564 78.68 47.755 78.048 47.545 76.975 C 47.274 75.583 46.083 73.312 45.295 72.015 C 44.682 71.003 43.349 70.164 43.384 69.628 C 43.406 69.26 44.025 69.279 44.395 68.893 C 44.959 68.303 45.934 67.102 46.308 66.138 C 46.67 65.2 46.787 64.168 46.646 63.198 C 46.5 62.209 45.968 61.074 45.409 60.258 C 44.907 59.532 44.261 58.968 43.553 58.469 C 42.853 57.975 42.139 57.621 41.19 57.274 C 40.067 56.866 38.002 56.664 37.141 56.265 C 36.571 56 36.201 55.673 36.072 55.392 C 35.973 55.174 36.231 55.085 36.185 54.749 C 36.096 54.087 35.569 52.29 34.948 51.351 C 34.388 50.505 33.588 49.832 32.755 49.284 C 31.95 48.755 31.032 48.351 30.056 48.091 C 29.051 47.823 27.792 47.71 26.793 47.722 C 25.896 47.735 25.248 47.82 24.319 48.091 C 23.137 48.434 21.421 49.705 20.27 49.835 C 19.384 49.934 18.603 49.655 17.965 49.331 C 17.332 49.008 17.124 48.34 16.446 47.906 C 15.64 47.389 14.407 46.804 13.297 46.528 C 12.194 46.257 10.866 46.189 9.811 46.254 C 8.862 46.312 8.018 46.523 7.224 46.805 C 6.445 47.078 5.845 47.663 5.087 47.906 C 4.342 48.146 3.717 48.384 2.724 48.274 C 1.283 48.116 -1.226 46.676 -2.9 46.344 C -4.271 46.074 -5.434 46.032 -6.611 46.161 C -7.754 46.287 -8.89 46.616 -9.872 47.08 C -10.862 47.548 -11.963 48.43 -12.515 48.963 C -12.895 49.329 -12.713 49.763 -13.19 49.927 C -13.939 50.185 -15.98 49.447 -17.296 49.559 C -18.584 49.671 -19.988 50.108 -21.008 50.57 C -21.909 50.979 -22.56 51.44 -23.201 52.084 C -23.912 52.8 -24.646 53.828 -25.001 54.749 C -25.341 55.636 -25.355 56.816 -25.337 57.504 C -25.325 57.983 -25.043 58.342 -25.112 58.607 C -25.164 58.801 -25.23 58.818 -25.505 59.02 C -26.144 59.486 -28.717 60.585 -29.723 61.454 C -30.563 62.179 -31.036 62.926 -31.413 63.748 C -31.788 64.577 -31.982 65.554 -31.975 66.413 C -31.966 67.236 -31.764 67.949 -31.413 68.801 C -30.999 69.795 -29.779 71.076 -29.499 72.015 C -29.278 72.755 -29.322 73.667 -29.499 73.989 C -29.597 74.166 -29.754 74.052 -29.949 74.22 C -30.353 74.565 -31.337 75.54 -31.749 76.424 C -32.215 77.426 -32.498 78.93 -32.423 80.006 C -32.358 80.958 -32.006 81.786 -31.524 82.578 C -31.035 83.379 -29.891 83.973 -29.499 84.781 C -29.117 85.569 -28.963 86.535 -29.161 87.354 C -29.364 88.189 -30.417 88.871 -30.736 89.74 C -31.068 90.641 -31.217 91.711 -31.075 92.68 C -30.928 93.669 -30.41 94.792 -29.837 95.619 C -29.315 96.374 -28.852 96.875 -27.868 97.502 C -26.518 98.361 -23.268 98.81 -21.965 100.073 C -20.699 101.298 -20.881 103.541 -20.052 104.895 C -19.321 106.086 -18.432 107.141 -17.409 107.88 C -16.476 108.553 -15.391 108.982 -14.26 109.257 C -13.107 109.54 -11.535 109.541 -10.547 109.534 C -9.807 109.528 -9.31 109.328 -8.749 109.349 C -8.227 109.37 -7.872 109.414 -7.286 109.625 C -6.441 109.929 -5.256 110.927 -4.136 111.277 C -3.043 111.621 -1.786 111.772 -0.649 111.738 C 0.464 111.704 1.639 111.444 2.612 111.093 C 3.542 110.759 4.186 109.695 5.087 109.717 C 6.111 109.741 7.453 111.254 8.459 111.646 C 9.246 111.952 9.848 112.026 10.598 112.105 C 11.381 112.186 12.288 112.186 13.071 112.105 C 13.821 112.026 14.463 111.901 15.209 111.646 C 16.066 111.352 17.015 110.336 17.909 110.36 C 18.815 110.383 19.62 111.492 20.608 111.828 C 21.606 112.169 22.76 112.376 23.869 112.38 Z" style="fill-opacity: 1; fill-rule: nonzero; stroke-dasharray: none; stroke-dashoffset: 0px; stroke-linecap: butt; stroke-linejoin: miter; stroke-miterlimit: 4; stroke-opacity: 1; paint-order: normal; vector-effect: none; opacity: 1; mix-blend-mode: normal; isolation: auto; fill: rgb(28, 204, 86); stroke: rgb(19, 163, 45);"/>
  <path style="" transform="matrix(0, -0.153316, 0.189611, 0, -91.943489, 119.461235)" d="M 222.871 633.043 A 105.843 105.843 0 1 1 221.102 421.372 L 221.102 527.215 Z" bx:shape="pie 221.102 527.215 0 105.843 179.042 360 1@9f4a9f26"/>
  <circle style="" transform="matrix(-0.939662, 0.092821, 0.105871, 0.946546, 394.660065, -499.913055)" cx="487.72265625" cy="552.453125" r="7.41719013324158" bx:origin="0.502 0.556"/>
  <circle style="" transform="matrix(-0.939662, 0.092821, 0.105871, 0.946546, 420.990723, -500.745514)" cx="487.72265625" cy="552.453125" r="7.41719013324158" bx:origin="0.502 0.556"/>
</svg>