<?xml version="1.0" encoding="UTF-8"?><svg xmlns="http://www.w3.org/2000/svg" viewBox="0 0 96 96"><defs><style>.cls-1{fill:#fff;}.cls-2{stroke-width:.2px;}.cls-2,.cls-3{stroke:#000;}.cls-2,.cls-3,.cls-4{fill:none;stroke-linecap:round;stroke-linejoin:round;}.cls-5{fill:#323232;}.cls-6{fill:#ffffe6;}.cls-7{fill:#f9db00;}.cls-8{fill:#969696;}.cls-9{fill:#82cc58;}.cls-3{stroke-width:.1px;}.cls-4{stroke:#646464;stroke-width:.05px;}</style></defs><g id="Color"><path class="cls-6" d="M32.37,68.81c.76,4.54,.68,5.94,.72,7.24,.04,1.29,.2,2.48,.28,3.76s.06,2.68,.17,3.76c.11,1.08,.33,1.84,.84,2.42,.51,.58,1.32,.98,2.33,1.38,1,.4,2.2,.81,3.17,.99,.97,.18,1.7,.13,2.47,.14,.76,.01,1.55,.08,2.62,.32,1.07,.24,2.44,.65,3.4,.96,.96,.31,1.51,.53,2.03,.65,.52,.13,1,.16,1.52,.16,.52,0,1.08-.03,1.84-.27,.76-.24,1.73-.68,2.5-1.23,.76-.55,1.32-1.19,2.24-1.7,.92-.5,2.19-.87,3.23-1.09,1.04-.22,1.85-.31,2.49-.45s1.11-.32,1.65-.69c.55-.37,1.17-.93,1.63-1.93,.46-1,.76-2.44,.94-3.7,.19-1.26,.27-2.34,.23-3.27-.03-.93-.18-1.72-.27-2.85-.09-1.13-.11-2.61-.57-5.5-.98,.34-1.89,.83-2.85,1.23-.28,2.39-.04,2.48-1.3,4.64-.17,.29-.35,.57-.54,.85-1.1,1.61-2.4,2.88-4.03,3.95-1.27,.84-2.6,1.44-4.07,1.85-.73,.2-1.46,.35-2.21,.44-.37,.04-.75,.07-1.12,.09-.19,0-.38,.01-.56,.01-.09,0-.19,0-.28,0-.09,0-.26,.14-.26-.04,0,.17-.17,.01-.25,0-.09,0-.18,0-.27-.01-.18-.01-.36-.03-.54-.05-.36-.04-.72-.09-1.08-.15-.72-.13-1.42-.31-2.11-.56-2.37-.82-4.24-2.05-5.94-3.89-.82-.89-1.5-1.85-2.08-2.91-.59-1.08-.85-2.2-1.04-3.4-1.72-.12-3.31-.6-4.92-1.15Z"/><path class="cls-6" d="M29.71,34.89c-.03,.87,.06,1.32,.07,1.72,.02,.71-.22,1.28-.38,1.97-.16,.69-.24,1.49-.24,2.26s.08,1.52,.13,2.29c.05,.77,.07,1.56,.42,2.47,.3,.77,.84,1.63,1.25,2.39-.17,.49-.3,.8-.6,1.16-.37,.45-.99,.98-1.33,1.61-.34,.64-.41,1.38-.43,1.91-.02,.53,.02,.86-.09,1.31s-.35,1.01-.77,2.66c-.42,1.65-1.01,4.37-1.32,5.96-.31,1.59-.32,2.04-.21,2.46,.12,.42,.37,.8,.86,1.25s1.23,.95,2.19,1.38c.95,.43,2.11,.78,3.11,1.11,.99,.34,1.82,.66,2.82,.87,.62,.13,1.31,.22,2.09,.27,.4,.03,.82,.05,1.27,.06,.09,0,.18,0,.27,0,.96,.02,2.03,0,3.03-.09,.53-.05,1.03-.11,1.49-.2,1.18-.23,2.05-.62,2.99-.85,.13-.03,.26-.06,.39-.08,1.1-.19,2.35-.1,3.4,.07,.16,.03,.32,.05,.47,.08,.84,.16,1.58,.36,2.42,.5,.64,.1,1.34,.17,2.02,.2,.39,.02,.77,.03,1.13,.03,1,0,1.86-.07,2.73-.1,.07,0,.14,0,.21,0,.8-.02,1.61-.02,2.44,0,.53,0,1.07,.02,1.6-.01,.36-.02,.71-.07,1.05-.15,.28-.07,.54-.16,.8-.27,.51-.21,.99-.48,1.47-.69,.47-.21,.95-.38,1.38-.53,.23-.08,.44-.15,.63-.22,.54-.2,.89-.38,1.3-.7,.41-.32,.88-.79,1.28-1.4,.4-.62,.72-1.38,.91-2.17,.2-.78,.27-1.58,.24-2.47-.03-.89-.17-1.87-.51-2.92-.34-1.06-.89-2.2-1.33-3.25s-.78-2.03-1.12-3.13c-.34-1.1-.67-2.31-.92-3.21-.03-.11-.06-.21-.08-.31,.99-2.19,1.29-3.85,1.49-5.16,.26-1.67,.36-2.8,.4-3.82,.03-1.01-.01-1.91-.12-2.85-.07-.58-.16-1.18-.31-1.81-13.64,3.45-26.29,3.58-40,.42Z"/><path class="cls-1" d="M59.13,69.58v4.87c1.35-.16,2.7-.35,4.03-.59,0-1.43,0-2.87,0-4.3-.52,.03-1.06,.01-1.6,0-.83-.01-1.64-.02-2.44,0,0,0,0,0,0,0Z"/><path class="cls-7" d="M55.06,69.67c-.68-.04-1.38-.11-2.02-.21-.84-.14-1.58-.34-2.42-.5v5.95c1.48,.01,2.96-.03,4.44-.11,0-1.71,0-3.42,0-5.13Z"/><path class="cls-1" d="M46.35,68.88c-.94,.22-1.81,.62-2.99,.85-.46,.09-.97,.16-1.49,.2h0v4.36c1.49,.2,2.99,.35,4.49,.45v-5.86Z"/><path class="cls-1" d="M37.29,69.96c.1,.67,.1,1.34,.37,1.99,.26,.63,.56,1.23,.91,1.82,0-1.25,0-2.5,0-3.75-.45-.02-.87-.03-1.27-.06Z"/><path class="cls-5" d="M29.46,27.8c12.83,1.44,25.47,1.53,38.32,.28-.06-3.01-.11-6.02-.17-9.03-.03-1.53-.06-3.06-.09-4.6l-.02-1.15c0-.37,.23-.73-.16-1.07-.55-.46-1.11-.9-1.69-1.32-5.25-3.79-10.41-5.48-16.89-5.51-6.48-.03-11.66,1.61-16.95,5.35-.59,.42-1.16,.85-1.71,1.31-.33,.27-.35,.57-.36,.95,0,.38-.01,.77-.02,1.15-.03,1.53-.06,3.07-.09,4.6-.06,3.01-.11,6.02-.17,9.03Z"/><path class="cls-5" d="M28.73,29.87c-1.51-.84-3.06-1.58-4.66-2.24-1.71-.71-3.26-1.75-4.55,.42-1.12,1.89,.92,3.17,2.25,3.97,1.5,.9,3.05,1.58,4.72,2.08,6.73,1.97,13.45,2.81,20.43,2.96,6.98,.16,13.73-.51,20.54-2.04,2.16-.48,7.92-1.37,9.18-4.16,.35-.77,.12-1.88-.75-2.21-.86-.32-1.67-.3-2.55-.19-1.83,.23-3.29,.78-4.67,2.07,.09,.21,.14,.42,.17,.64,1.12-.96,2.21-1.82,3.66-2.29,.67-.22,1.89-.47,1.48,.49-.32,.77-.96,1.05-1.56,1.46-2.53,1.77-5.28,2.2-8.14,2.73-5.74,1.07-11.45,1.36-17.26,1.29-3.95-.05-13.31-.49-17.2-1.78-1.87-.62-6.13-2.6-7.51-4.21-.67-.78-.59-1.47,.49-1.17,.71,.2,1.34,.54,2,.83,1.32,.58,2.62,1.21,3.9,1.88,0-.18,0-.36,0-.54Z"/><path class="cls-9" d="M68.56,32.63c.52-.92,.38-2.07-.36-2.83-.43-.44-.33-.94-.4-1.44-.04-.31-.27-.26-.51-.24-.25,.02-.51,.05-.76,.07-2.02,.18-4.05,.34-6.08,.45-4.06,.23-8.12,.33-12.19,.3-4.07-.04-8.12-.21-12.18-.52-2.03-.15-4.05-.34-6.07-.56-.25-.03-.5-.06-.76-.08-.35-.04-.3,.26-.35,.49-.1,.5-.17,1-.19,1.51-.05,1.03,.05,2.02,.3,3.02,4.55,1.7,15.14,2.08,19.76,2.06,6.71-.02,13.22-.6,19.76-2.23Z"/><path class="cls-8" d="M68.56,32.63c1.19-.3,4.87-1.86,5.44-3.29,.28-.7-.44-.7-.98-.6-.55,.1-1.02,.34-1.5,.6-.96,.51-1.84,1.12-2.67,1.83,.07,.54-.02,.99-.29,1.46Z"/><path class="cls-8" d="M28.72,30.41c-1.22-.64-2.45-1.24-3.71-1.79-.63-.28-1.26-.55-1.9-.81-.82-.34-1.64-.11-1.05,.73,1.11,1.58,5.35,3.66,6.97,4.26-.2-.79-.31-1.58-.31-2.39Z"/><path class="cls-1" d="M63.7,73.77c1.27-2.15,1.02-2.25,1.3-4.64-.26,.11-.52,.2-.8,.27-.33,.08-.69,.13-1.05,.16,0,1.43,0,2.87,0,4.3,.18-.03,.36-.06,.54-.1Z"/><path class="cls-1" d="M55.06,74.8c1.36-.08,2.72-.19,4.07-.35v-4.87c-.07,0-.14,0-.21,0-.87,.03-1.72,.1-2.73,.1-.36,0-.75,0-1.13-.02,0,1.71,0,3.42,0,5.13Z"/><path class="cls-1" d="M46.35,74.75c1.42,.1,2.84,.15,4.27,.16v-5.95c-.15-.03-.31-.06-.47-.08-1.05-.17-2.3-.26-3.4-.07-.13,.02-.26,.05-.39,.08v5.86Z"/><path class="cls-1" d="M38.56,73.77c1.1,.2,2.19,.38,3.3,.52v-4.36c-1,.09-2.07,.1-3.03,.09-.09,0-.18,0-.27,0,0,1.25,0,2.5,0,3.75Z"/><path class="cls-1" d="M63.16,73.87v.75c.19-.28,.37-.56,.54-.85-.18,.03-.36,.07-.54,.1Z"/><path class="cls-1" d="M55.06,80.42c1.47-.41,2.79-1.01,4.07-1.85v-4.12c-1.35,.16-2.71,.27-4.07,.35v5.62Z"/><path class="cls-1" d="M50.62,74.91c-1.42-.01-2.84-.06-4.27-.16v5.4c1.4,.49,2.79,.74,4.27,.78,0-2.01,0-4.01,0-6.02Z"/><path class="cls-1" d="M38.56,73.77c.88,1.5,1.95,2.75,3.3,3.86v-3.34c-1.1-.15-2.2-.32-3.3-.52Z"/><path class="cls-1" d="M59.13,78.57c1.63-1.07,2.93-2.34,4.03-3.95v-.75c-1.34,.23-2.68,.43-4.03,.59v4.12Z"/><path class="cls-1" d="M55.06,74.8c-1.48,.08-2.96,.12-4.44,.11,0,2.01,0,4.01,0,6.02,1.55,.17,2.97-.1,4.44-.51v-5.62Z"/><path class="cls-1" d="M46.35,74.75c-1.5-.1-3-.25-4.49-.45v3.34c1.37,1.13,2.82,1.94,4.49,2.52v-5.4Z"/><path class="cls-5" d="M52.76,62.32c-.22,.28-.53,.5-.8,.67s-.49,.31-.8,.42c-.31,.11-.72,.21-1.07,.2-.35-.01-.64-.14-.97-.33-.32-.19-.68-.46-.94-.89s-.43-1.02-.48-1.61c-.05-.59,.02-1.19,.18-1.91,.17-.72,.43-1.57,.66-2.21,.23-.65,.41-1.1,.62-1.42s.42-.48,.55-.59,.18-.15,.4-.05c.22,.1,.62,.35,.93,.73,.32,.38,.55,.88,.85,1.51,.3,.63,.66,1.37,.88,2.14,.23,.77,.33,1.57,.32,2.15,0,.57-.12,.91-.33,1.19Z"/><path class="cls-1" d="M55.44,63.79c.22,.02,.46,.03,.71,.06,.28,.02,.59,.06,.92,.13,.01,0,.03,0,.04,0,.15,.03,.31,.08,.47,.12,.14,.04,.28,.08,.42,.13,.13,.04,.27,.09,.4,.13,.14,.04,.27,.09,.41,.13,.12,.04,.25,.07,.37,.11,.03,0,.05,.01,.08,.02,.19,.05,.38,.09,.55,.13,.29,.06,.56,.1,.81,.13,.13,.02,.25,.03,.37,.04,.51,.04,.92,.03,1.33-.01,.06,0,.12-.01,.19-.02,.21-.03,.43-.07,.68-.13,.15-.04,.3-.08,.48-.13,.04-.01,.07-.02,.11-.03,.09-.03,.19-.06,.3-.1,.12-.04,.24-.08,.36-.13,.11-.04,.21-.08,.32-.13,.09-.04,.19-.08,.28-.13,.09-.04,.17-.08,.25-.13,.08-.04,.15-.08,.23-.13,.07-.04,.14-.09,.21-.13,.04-.03,.08-.05,.11-.08,.02-.02,.05-.03,.07-.05,.06-.04,.11-.09,.17-.13,.05-.04,.1-.09,.15-.13,.05-.04,.1-.09,.14-.13,.05-.04,.09-.09,.13-.13,.04-.04,.09-.09,.13-.13,.04-.04,.08-.09,.12-.13,.04-.04,.08-.09,.11-.13,.04-.04,.07-.09,.11-.13,.04-.04,.07-.09,.11-.13,.03-.04,.07-.09,.1-.13,.03-.04,.07-.09,.1-.13,.03-.04,.06-.09,.1-.13,.03-.04,.06-.08,.09-.13,0,0,0,0,0,0,.03-.04,.06-.09,.09-.13,.03-.04,.06-.09,.09-.13,.03-.04,.06-.09,.09-.13,.03-.04,.06-.09,.09-.13,.03-.04,.06-.09,.09-.13,.03-.04,.06-.09,.09-.13,.03-.04,.06-.09,.09-.13,.03-.04,.06-.09,.09-.13,.03-.04,.06-.09,.09-.13,.03-.04,.06-.09,.09-.13,.03-.04,.06-.09,.09-.13,.03-.05,.07-.09,.1-.13,.02-.02,.03-.04,.05-.06,.02-.03,.04-.05,.06-.07,.04-.05,.08-.09,.12-.13,.05-.05,.1-.09,.14-.13,.06-.05,.12-.09,.17-.13,.1-.06,.18-.11,.25-.13,0,0,0,0,.01,0,.1-.03,.16-.03,.2,0,.03,.03,.05,.07,.07,.13,0,.01,0,.02,0,.04,0,.03,.01,.06,.02,.09,0,.04,.01,.08,.02,.13,0,.04,0,.08,.01,.13,0,.04,0,.09,0,.13,0,.04,0,.09,0,.13,0,.04,0,.09,0,.13,0,.04,0,.09,0,.13,0,0,0,0,0,0,0,.04,0,.09,0,.13,0,.04,0,.09,0,.13,0,.04,0,.09,0,.13,0,.04,0,.09-.01,.13,0,.04,0,.09-.01,.13,0,.04-.01,.09-.02,.13,0,.04-.01,.09-.02,.13,0,.04-.02,.09-.02,.13,0,.04-.02,.09-.03,.13,0,.03-.01,.06-.02,.09,0,.01,0,.03,0,.04-.01,.04-.02,.09-.03,.13-.01,.04-.02,.09-.04,.13-.01,.04-.02,.09-.04,.13-.01,.04-.03,.09-.04,.13-.01,.04-.03,.09-.04,.13-.01,.04-.03,.09-.04,.13-.01,.04-.03,.09-.04,.13-.01,.04-.03,.09-.04,.13-.01,.04-.03,.09-.04,.13-.01,.04-.03,.09-.04,.13-.01,.04-.03,.09-.04,.13-.01,.04-.03,.09-.04,.13-.02,.04-.03,.09-.05,.13,0,0,0,.01,0,.02-.01,.04-.03,.07-.04,.11-.02,.04-.03,.09-.05,.13-.02,.04-.03,.09-.05,.13-.02,.04-.03,.09-.05,.13-.02,.04-.03,.09-.05,.13-.02,.04-.03,.09-.05,.13-.02,.04-.03,.09-.05,.13-.02,.04-.04,.09-.05,.13-.02,.04-.04,.09-.06,.13-.02,.04-.04,.09-.06,.13-.02,.04-.04,.09-.06,.13-.02,.04-.05,.09-.07,.13-.02,.04-.05,.09-.07,.13,0,0,0,0,0,0-.02,.04-.05,.08-.08,.12-.03,.04-.06,.09-.09,.13-.03,.04-.06,.09-.09,.13-.03,.04-.07,.09-.1,.13-.04,.04-.07,.09-.11,.13-.04,.04-.08,.09-.11,.13-.04,.04-.08,.09-.12,.13-.04,.04-.09,.09-.13,.13-.05,.04-.09,.09-.14,.13-.02,.02-.04,.03-.05,.05-.03,.03-.06,.05-.09,.08-.05,.05-.1,.09-.16,.13-.06,.05-.11,.09-.17,.13-.06,.04-.13,.09-.2,.13-.07,.04-.15,.09-.24,.13-.09,.04-.18,.09-.28,.13-.01,0-.03,.01-.04,.02-.09,.04-.19,.08-.3,.11-.12,.04-.25,.09-.39,.13-.14,.04-.29,.09-.44,.13-.17,.05-.34,.09-.51,.13-.13,.03-.26,.06-.39,.09-.07,.02-.15,.03-.22,.04-.26,.05-.52,.09-.79,.13-.36,.05-.73,.09-1.12,.13-.1,0-.2,.02-.3,.03-.45,.04-.93,.08-1.41,.1-.48,.03-.94,.05-1.35,.06-.62,.01-1.11,0-1.59-.06-.14-.02-.29-.04-.44-.06-.12-.02-.24-.04-.37-.07-.19-.04-.37-.08-.56-.13-.15-.04-.3-.08-.45-.13-.13-.04-.25-.08-.37-.13-.04-.01-.08-.03-.11-.04-.07-.03-.13-.06-.19-.09-.09-.04-.17-.08-.25-.13-.07-.04-.14-.08-.2-.13-.06-.04-.11-.08-.17-.13-.05-.04-.1-.08-.14-.13-.04-.04-.08-.08-.12-.13-.03-.03-.05-.06-.08-.1,0-.01-.02-.02-.03-.03-.03-.04-.07-.09-.1-.13-.03-.04-.06-.09-.09-.13-.03-.04-.06-.09-.08-.13-.03-.04-.05-.09-.08-.13-.02-.04-.05-.09-.07-.13-.02-.04-.05-.09-.07-.13-.02-.04-.04-.09-.06-.13-.02-.04-.04-.09-.06-.13-.02-.04-.03-.09-.05-.13-.02-.04-.03-.09-.05-.13,0,0,0-.01,0-.02-.01-.04-.02-.07-.03-.11-.01-.04-.02-.09-.03-.13-.01-.04-.02-.09-.03-.13,0-.04-.01-.09-.02-.13,0-.04,0-.09-.01-.13,0-.04,0-.09,0-.13,0-.04,0-.09,0-.13,0-.04,.01-.09,.02-.13,.01-.04,.02-.09,.04-.13,.02-.04,.04-.09,.06-.13,0,0,0-.01,.01-.02,.02-.04,.05-.08,.08-.11,.04-.05,.08-.09,.12-.13,.05-.05,.11-.09,.17-.13,.07-.05,.15-.09,.24-.13,.14-.06,.29-.11,.44-.13,0,0,0,0,0,0,.22-.03,.43-.02,.65,0,.2,.02,.4,.05,.63,.07Z"/><path class="cls-1" d="M47.39,63.87s.02,.07,.03,.11c0,.04,.02,.09,.03,.13,0,.04,.01,.09,.02,.13,0,.04,.01,.09,.02,.13,0,.04,0,.09,.01,.13,0,.04,0,.09,0,.13,0,.04,0,.09,0,.13,0,.04,0,.09,0,.13,0,.04,0,.09,0,.13,0,.04,0,.07,0,.11,0,0,0,.01,0,.02,0,.04-.01,.09-.02,.13,0,.04-.01,.09-.02,.13,0,.04-.02,.09-.03,.13,0,.04-.02,.09-.03,.13-.01,.04-.02,.09-.04,.13-.01,.04-.03,.09-.04,.13-.01,.04-.03,.09-.05,.13-.02,.04-.03,.09-.05,.13-.02,.04-.04,.09-.06,.13-.02,.04-.04,.09-.07,.13,0,0,0,.01-.01,.02-.02,.04-.04,.07-.06,.11-.03,.04-.05,.09-.08,.13-.03,.04-.06,.09-.09,.13-.03,.04-.07,.09-.1,.13-.04,.04-.08,.09-.12,.13-.04,.04-.09,.09-.13,.13-.05,.04-.1,.09-.15,.13-.06,.04-.12,.09-.18,.13-.03,.02-.07,.04-.1,.07-.04,.02-.07,.04-.11,.06-.08,.04-.16,.09-.25,.13-.09,.04-.19,.09-.29,.13-.11,.04-.21,.09-.33,.13-.12,.04-.24,.09-.36,.13-.13,.04-.26,.09-.39,.13-.03,.01-.07,.02-.1,.03-.1,.03-.21,.07-.31,.1-.14,.04-.29,.09-.44,.13-.15,.04-.31,.09-.47,.13-.16,.04-.33,.09-.5,.13-.12,.03-.25,.06-.37,.09-.06,.01-.12,.03-.18,.04-.2,.04-.41,.09-.62,.13-.24,.05-.49,.09-.74,.13-.33,.05-.67,.09-1,.12-.06,0-.13,0-.19,.01-.48,.03-.95,.02-1.38,0-.27-.01-.53-.03-.78-.06-.23-.02-.45-.04-.66-.07-.23-.03-.44-.07-.65-.13-.14-.04-.27-.08-.41-.13-.01,0-.02,0-.04-.01-.09-.04-.18-.07-.27-.12-.09-.04-.18-.08-.26-.13-.08-.04-.16-.09-.24-.13-.07-.04-.15-.09-.23-.13-.07-.04-.14-.09-.22-.13-.07-.04-.14-.09-.21-.13-.07-.04-.14-.09-.21-.13,0,0,0,0,0,0-.07-.04-.14-.08-.2-.12-.07-.04-.14-.09-.21-.13-.07-.04-.14-.09-.21-.13-.07-.04-.14-.09-.2-.13-.07-.04-.13-.09-.2-.13-.06-.04-.13-.09-.19-.13-.06-.04-.12-.09-.18-.13-.06-.04-.12-.09-.18-.13-.06-.04-.11-.09-.17-.13,0,0,0,0,0,0-.05-.04-.11-.09-.16-.13-.05-.04-.1-.09-.16-.13-.05-.04-.1-.09-.15-.13-.05-.04-.1-.09-.14-.13-.05-.04-.09-.09-.14-.13s-.09-.09-.14-.13c-.04-.04-.09-.09-.13-.13-.04-.04-.09-.09-.13-.13-.04-.04-.08-.09-.12-.13-.04-.04-.08-.09-.12-.13-.04-.04-.08-.09-.11-.13,0,0,0,0,0,0-.04-.04-.07-.08-.1-.12-.04-.04-.07-.09-.1-.13-.03-.04-.07-.09-.09-.13-.03-.04-.06-.09-.09-.13-.03-.04-.06-.09-.08-.13-.03-.04-.05-.09-.08-.13-.02-.04-.05-.09-.07-.13-.02-.04-.04-.09-.07-.13,0-.02-.02-.03-.03-.05-.01-.03-.03-.05-.04-.08-.02-.04-.04-.09-.06-.13-.02-.04-.04-.09-.06-.13-.02-.04-.04-.09-.06-.13-.02-.04-.04-.09-.05-.13-.02-.04-.04-.09-.05-.13-.02-.04-.03-.09-.05-.13,0-.03-.02-.06-.03-.08,0-.02,0-.03-.01-.05-.01-.05-.02-.09-.03-.13,0-.05,0-.09,0-.13,0-.05,.01-.09,.03-.13,.02-.04,.04-.09,.07-.13,0-.01,.01-.02,.02-.03,.02-.03,.05-.07,.09-.1,.05-.05,.1-.09,.16-.13,.11-.07,.25-.12,.41-.13,.02,0,.04,0,.06,0,.01,0,.02,0,.03,0,.16,0,.33,.06,.51,.13,.09,.04,.18,.08,.27,.13,.07,.04,.15,.08,.22,.13,.05,.03,.09,.06,.14,.09,.02,.01,.03,.02,.05,.04,.06,.04,.12,.09,.17,.13,.05,.04,.11,.09,.16,.13,.05,.04,.1,.09,.15,.13,.05,.04,.1,.09,.15,.13,.05,.04,.1,.09,.15,.13,.05,.04,.1,.09,.15,.13,.05,.04,.1,.09,.15,.13,.02,.02,.05,.04,.07,.06,.02,.02,.05,.04,.08,.07,.05,.04,.1,.09,.15,.13,.05,.04,.11,.09,.16,.13,.05,.04,.11,.09,.17,.13,.06,.04,.12,.09,.18,.13,.06,.04,.12,.09,.19,.13,.07,.04,.13,.09,.2,.13,.07,.04,.15,.09,.22,.13,.07,.04,.14,.07,.21,.11,.01,0,.03,.01,.04,.02,.1,.05,.19,.09,.29,.13,.11,.05,.22,.09,.34,.13,.13,.05,.26,.09,.4,.13,.16,.05,.32,.09,.47,.13,.15,.04,.3,.07,.45,.1,.04,0,.08,.02,.12,.03,.26,.05,.51,.1,.75,.13,.3,.04,.58,.07,.85,.09,.51,.03,.95,.03,1.57-.08,.03,0,.05,0,.08-.01,.2-.04,.41-.08,.63-.13,.18-.04,.36-.08,.53-.13,.16-.04,.33-.09,.48-.13,.09-.03,.17-.05,.25-.07,.06-.02,.12-.04,.18-.06,.14-.04,.26-.09,.38-.13,.11-.04,.22-.08,.32-.13,.09-.04,.18-.08,.27-.13,.06-.03,.11-.06,.17-.09,.02-.01,.04-.02,.06-.04,.07-.04,.14-.08,.21-.13,.07-.04,.13-.09,.2-.13,.06-.04,.13-.09,.19-.13,.06-.04,.12-.09,.18-.13,.06-.04,.12-.09,.18-.13,.05-.04,.1-.07,.15-.11,0,0,.02-.01,.03-.02,.06-.04,.11-.09,.17-.13,.06-.04,.12-.09,.17-.13,.06-.05,.12-.09,.18-.13,.07-.05,.14-.09,.21-.13,.08-.05,.17-.09,.26-.13,.01,0,.02,0,.04-.01,.13-.05,.27-.09,.41-.12,.24-.05,.49-.06,.7-.07,.3,0,.55,0,.75,.07,.03,.01,.06,.02,.09,.04,.05,.03,.1,.06,.14,.09,.04,.04,.08,.08,.12,.13,.03,.04,.05,.08,.08,.13,.02,.04,.04,.08,.06,.13,.02,.04,.03,.08,.04,.13,0,0,0,.01,0,.02Z"/><ellipse class="cls-5" cx="59.92" cy="50.52" rx="5.59" ry="7.44" transform="translate(-9.1 13.38) rotate(-11.85)"/><ellipse class="cls-5" cx="40.37" cy="50.52" rx="5.59" ry="7.44" transform="translate(-9.51 9.37) rotate(-11.85)"/></g><g id="Hatch"><line class="cls-4" x1="31.64" y1="66.45" x2="47.09" y2="66.45"/><line class="cls-4" x1="31.5" y1="66.32" x2="47.15" y2="66.32"/><line class="cls-4" x1="31.36" y1="66.19" x2="47.21" y2="66.19"/><line class="cls-4" x1="31.22" y1="66.06" x2="47.27" y2="66.06"/><line class="cls-4" x1="31.09" y1="65.93" x2="47.31" y2="65.93"/><line class="cls-4" x1="30.96" y1="65.8" x2="37.08" y2="65.8"/><line class="cls-4" x1="39.58" y1="65.8" x2="47.36" y2="65.8"/><line class="cls-4" x1="30.84" y1="65.67" x2="36.34" y2="65.67"/><line class="cls-4" x1="31.79" y1="66.58" x2="47.01" y2="66.58"/><line class="cls-4" x1="31.94" y1="66.71" x2="46.93" y2="66.71"/><line class="cls-4" x1="32.11" y1="66.84" x2="46.84" y2="66.84"/><line class="cls-4" x1="32.28" y1="66.97" x2="46.74" y2="66.97"/><line class="cls-4" x1="32.45" y1="67.1" x2="46.62" y2="67.1"/><line class="cls-4" x1="32.64" y1="67.23" x2="46.49" y2="67.23"/><line class="cls-4" x1="32.83" y1="67.36" x2="46.33" y2="67.36"/><line class="cls-4" x1="33.03" y1="67.49" x2="46.15" y2="67.49"/><line class="cls-4" x1="40.21" y1="65.67" x2="47.39" y2="65.67"/><line class="cls-4" x1="30.72" y1="65.54" x2="35.77" y2="65.54"/><line class="cls-4" x1="40.74" y1="65.54" x2="47.42" y2="65.54"/><line class="cls-4" x1="30.61" y1="65.41" x2="35.3" y2="65.41"/><line class="cls-4" x1="41.22" y1="65.41" x2="47.45" y2="65.41"/><line class="cls-4" x1="30.5" y1="65.28" x2="34.9" y2="65.28"/><line class="cls-4" x1="41.65" y1="65.28" x2="47.47" y2="65.28"/><line class="cls-4" x1="30.4" y1="65.15" x2="34.56" y2="65.15"/><line class="cls-4" x1="42.03" y1="65.15" x2="47.49" y2="65.15"/><line class="cls-4" x1="30.31" y1="65.02" x2="34.27" y2="65.02"/><line class="cls-4" x1="42.35" y1="65.02" x2="47.5" y2="65.02"/><line class="cls-4" x1="33.23" y1="67.62" x2="45.94" y2="67.62"/><line class="cls-4" x1="33.44" y1="67.75" x2="45.69" y2="67.75"/><line class="cls-4" x1="33.65" y1="67.88" x2="45.4" y2="67.88"/><line class="cls-4" x1="33.86" y1="68.01" x2="45.08" y2="68.01"/><line class="cls-4" x1="34.08" y1="68.14" x2="44.72" y2="68.14"/><line class="cls-4" x1="34.29" y1="68.27" x2="44.32" y2="68.27"/><line class="cls-4" x1="34.51" y1="68.4" x2="43.91" y2="68.4"/><line class="cls-4" x1="34.73" y1="68.53" x2="43.48" y2="68.53"/><line class="cls-4" x1="34.97" y1="68.66" x2="43.01" y2="68.66"/><line class="cls-4" x1="35.24" y1="68.79" x2="42.51" y2="68.79"/><line class="cls-4" x1="35.54" y1="68.92" x2="41.96" y2="68.92"/><line class="cls-4" x1="35.95" y1="69.05" x2="41.34" y2="69.05"/><line class="cls-4" x1="36.6" y1="69.18" x2="40.6" y2="69.18"/><line class="cls-4" x1="38.03" y1="69.31" x2="39.41" y2="69.31"/><line class="cls-4" x1="69.34" y1="59.69" x2="69.56" y2="59.69"/><line class="cls-4" x1="69.09" y1="59.82" x2="69.63" y2="59.82"/><line class="cls-4" x1="68.92" y1="59.95" x2="69.66" y2="59.95"/><line class="cls-4" x1="68.78" y1="60.08" x2="69.67" y2="60.08"/><line class="cls-4" x1="68.66" y1="60.21" x2="69.68" y2="60.21"/><line class="cls-4" x1="68.55" y1="60.34" x2="69.69" y2="60.34"/><line class="cls-4" x1="30.22" y1="64.89" x2="34.01" y2="64.89"/><line class="cls-4" x1="68.45" y1="60.47" x2="69.7" y2="60.47"/><line class="cls-4" x1="42.62" y1="64.89" x2="47.5" y2="64.89"/><line class="cls-4" x1="30.14" y1="64.76" x2="33.79" y2="64.76"/><line class="cls-4" x1="42.85" y1="64.76" x2="47.51" y2="64.76"/><line class="cls-4" x1="30.06" y1="64.63" x2="33.59" y2="64.63"/><line class="cls-4" x1="43.06" y1="64.63" x2="47.5" y2="64.63"/><line class="cls-4" x1="29.99" y1="64.5" x2="33.4" y2="64.5"/><line class="cls-4" x1="43.26" y1="64.5" x2="47.5" y2="64.5"/><line class="cls-4" x1="29.92" y1="64.37" x2="33.22" y2="64.37"/><line class="cls-4" x1="43.45" y1="64.37" x2="47.49" y2="64.37"/><line class="cls-4" x1="29.86" y1="64.24" x2="33.05" y2="64.24"/><line class="cls-4" x1="43.63" y1="64.24" x2="47.47" y2="64.24"/><line class="cls-4" x1="29.8" y1="64.11" x2="32.89" y2="64.11"/><line class="cls-4" x1="43.8" y1="64.11" x2="47.45" y2="64.11"/><line class="cls-4" x1="29.74" y1="63.98" x2="32.74" y2="63.98"/><line class="cls-4" x1="43.98" y1="63.98" x2="47.42" y2="63.98"/><line class="cls-4" x1="29.68" y1="63.85" x2="32.59" y2="63.85"/><line class="cls-4" x1="44.15" y1="63.85" x2="47.39" y2="63.85"/><line class="cls-4" x1="29.63" y1="63.72" x2="32.44" y2="63.72"/><line class="cls-4" x1="44.32" y1="63.72" x2="47.35" y2="63.72"/><line class="cls-4" x1="29.58" y1="63.59" x2="32.3" y2="63.59"/><line class="cls-4" x1="44.5" y1="63.59" x2="47.29" y2="63.59"/><line class="cls-4" x1="29.53" y1="63.46" x2="32.15" y2="63.46"/><line class="cls-4" x1="44.71" y1="63.46" x2="47.21" y2="63.46"/><line class="cls-4" x1="29.49" y1="63.33" x2="32" y2="63.33"/><line class="cls-4" x1="44.97" y1="63.33" x2="47.1" y2="63.33"/><line class="cls-4" x1="29.47" y1="63.2" x2="31.85" y2="63.2"/><line class="cls-4" x1="45.41" y1="63.2" x2="46.87" y2="63.2"/><line class="cls-4" x1="29.46" y1="63.07" x2="31.69" y2="63.07"/><line class="cls-4" x1="29.49" y1="62.94" x2="31.51" y2="62.94"/><line class="cls-4" x1="29.55" y1="62.81" x2="31.32" y2="62.81"/><line class="cls-4" x1="29.66" y1="62.68" x2="31.1" y2="62.68"/><line class="cls-4" x1="29.82" y1="62.55" x2="30.83" y2="62.55"/><line class="cls-4" x1="57.28" y1="68.4" x2="60.21" y2="68.4"/><line class="cls-4" x1="56.47" y1="68.27" x2="61.91" y2="68.27"/><line class="cls-4" x1="55.92" y1="68.14" x2="63.04" y2="68.14"/><line class="cls-4" x1="55.47" y1="68.01" x2="63.83" y2="68.01"/><line class="cls-4" x1="55.1" y1="67.88" x2="64.44" y2="67.88"/><line class="cls-4" x1="54.8" y1="67.75" x2="64.96" y2="67.75"/><line class="cls-4" x1="54.55" y1="67.62" x2="65.4" y2="67.62"/><line class="cls-4" x1="54.35" y1="67.49" x2="65.79" y2="67.49"/><line class="cls-4" x1="54.18" y1="67.36" x2="66.12" y2="67.36"/><line class="cls-4" x1="54.04" y1="67.23" x2="66.41" y2="67.23"/><line class="cls-4" x1="53.92" y1="67.1" x2="66.64" y2="67.1"/><line class="cls-4" x1="53.81" y1="66.97" x2="66.84" y2="66.97"/><line class="cls-4" x1="53.71" y1="66.84" x2="67.01" y2="66.84"/><line class="cls-4" x1="53.62" y1="66.71" x2="67.17" y2="66.71"/><line class="cls-4" x1="53.54" y1="66.58" x2="67.31" y2="66.58"/><line class="cls-4" x1="53.46" y1="66.45" x2="67.45" y2="66.45"/><line class="cls-4" x1="53.39" y1="66.32" x2="67.58" y2="66.32"/><line class="cls-4" x1="53.32" y1="66.19" x2="67.7" y2="66.19"/><line class="cls-4" x1="53.26" y1="66.06" x2="67.82" y2="66.06"/><line class="cls-4" x1="53.21" y1="65.93" x2="67.92" y2="65.93"/><line class="cls-4" x1="53.15" y1="65.8" x2="68.03" y2="65.8"/><line class="cls-4" x1="53.11" y1="65.67" x2="68.12" y2="65.67"/><line class="cls-4" x1="53.07" y1="65.54" x2="68.21" y2="65.54"/><line class="cls-4" x1="53.04" y1="65.41" x2="68.29" y2="65.41"/><line class="cls-4" x1="53.01" y1="65.28" x2="68.36" y2="65.28"/><line class="cls-4" x1="52.99" y1="65.15" x2="68.43" y2="65.15"/><line class="cls-4" x1="52.98" y1="65.02" x2="68.49" y2="65.02"/><line class="cls-4" x1="52.98" y1="64.89" x2="60.62" y2="64.89"/><line class="cls-4" x1="62.52" y1="64.89" x2="68.55" y2="64.89"/><line class="cls-4" x1="52.99" y1="64.76" x2="59.81" y2="64.76"/><line class="cls-4" x1="63.2" y1="64.76" x2="68.61" y2="64.76"/><line class="cls-4" x1="53.01" y1="64.63" x2="59.25" y2="64.63"/><line class="cls-4" x1="63.67" y1="64.63" x2="68.67" y2="64.63"/><line class="cls-4" x1="53.05" y1="64.5" x2="58.81" y2="64.5"/><line class="cls-4" x1="64.08" y1="64.5" x2="68.72" y2="64.5"/><line class="cls-4" x1="53.11" y1="64.37" x2="58.4" y2="64.37"/><line class="cls-4" x1="64.44" y1="64.37" x2="68.77" y2="64.37"/><line class="cls-4" x1="53.19" y1="64.24" x2="57.99" y2="64.24"/><line class="cls-4" x1="64.76" y1="64.24" x2="68.82" y2="64.24"/><line class="cls-4" x1="53.31" y1="64.11" x2="57.57" y2="64.11"/><line class="cls-4" x1="65.04" y1="64.11" x2="68.86" y2="64.11"/><line class="cls-4" x1="53.48" y1="63.98" x2="57.06" y2="63.98"/><line class="cls-4" x1="65.3" y1="63.98" x2="68.91" y2="63.98"/><line class="cls-4" x1="53.72" y1="63.85" x2="56.15" y2="63.85"/><line class="cls-4" x1="65.53" y1="63.85" x2="68.96" y2="63.85"/><line class="cls-4" x1="54.16" y1="63.72" x2="54.81" y2="63.72"/><line class="cls-4" x1="65.73" y1="63.72" x2="69" y2="63.72"/><line class="cls-4" x1="65.92" y1="63.59" x2="69.05" y2="63.59"/><line class="cls-4" x1="66.09" y1="63.46" x2="69.09" y2="63.46"/><line class="cls-4" x1="66.24" y1="63.33" x2="69.14" y2="63.33"/><line class="cls-4" x1="66.39" y1="63.2" x2="69.18" y2="63.2"/><line class="cls-4" x1="66.52" y1="63.07" x2="69.22" y2="63.07"/><line class="cls-4" x1="66.65" y1="62.94" x2="69.27" y2="62.94"/><line class="cls-4" x1="66.77" y1="62.81" x2="69.31" y2="62.81"/><line class="cls-4" x1="66.88" y1="62.68" x2="69.35" y2="62.68"/><line class="cls-4" x1="66.99" y1="62.55" x2="69.39" y2="62.55"/><line class="cls-4" x1="67.1" y1="62.42" x2="69.43" y2="62.42"/><line class="cls-4" x1="67.2" y1="62.29" x2="69.47" y2="62.29"/><line class="cls-4" x1="67.3" y1="62.16" x2="69.5" y2="62.16"/><line class="cls-4" x1="67.39" y1="62.03" x2="69.53" y2="62.03"/><line class="cls-4" x1="67.49" y1="61.9" x2="69.56" y2="61.9"/><line class="cls-4" x1="67.58" y1="61.77" x2="69.59" y2="61.77"/><line class="cls-4" x1="67.67" y1="61.64" x2="69.62" y2="61.64"/><line class="cls-4" x1="67.75" y1="61.51" x2="69.64" y2="61.51"/><line class="cls-4" x1="67.84" y1="61.38" x2="69.66" y2="61.38"/><line class="cls-4" x1="67.93" y1="61.25" x2="69.67" y2="61.25"/><line class="cls-4" x1="68.01" y1="61.12" x2="69.68" y2="61.12"/><line class="cls-4" x1="68.1" y1="60.99" x2="69.69" y2="60.99"/><line class="cls-4" x1="68.18" y1="60.86" x2="69.7" y2="60.86"/><line class="cls-4" x1="68.27" y1="60.73" x2="69.7" y2="60.73"/><line class="cls-4" x1="68.36" y1="60.6" x2="69.7" y2="60.6"/><line class="cls-4" x1="30.23" y1="62.42" x2="30.32" y2="62.42"/></g><g id="Vector"><path class="cls-2" d="M28.72,30.41c-1.78-.93-3.59-1.78-5.46-2.53-.25-.12-.5-.2-.77-.24-.46-.13-.71,.08-.65,.56,.43,.77,.98,1.29,1.76,1.69,2.65,1.93,5.39,3.16,8.6,3.85,7.16,1.02,14.27,1.35,21.49,1.02,5.21-.2,10.25-.93,15.3-2.22,1.79-.57,3.29-1.43,4.69-2.69,.19-.2,.3-.4,.37-.67,.1-.25,.04-.4-.22-.48-.83-.01-1.52,.18-2.22,.62-1,.53-1.91,1.14-2.77,1.88"/><path class="cls-2" d="M28.73,29.87c-2.08-1.15-4.22-2.13-6.46-2.95-1.04-.4-1.7-.22-2.4,.66-.49,.5-.69,1-.7,1.7,.31,.99,.82,1.64,1.72,2.17,1.76,1.19,3.59,2.05,5.63,2.65,14.62,3.97,30.04,3.97,44.66,0,2.03-.36,3.58-1.17,5.04-2.64,.42-.41,.59-.82,.59-1.41-.05-.66-.3-1.05-.88-1.38-.75-.29-1.45-.37-2.25-.24-1.54,.13-2.82,.59-4.1,1.45-.33,.18-.63,.4-.91,.65"/><path class="cls-2" d="M29.04,32.8c-.44-1.73-.44-3.32,.01-5.05,12.97,1.49,25.73,1.59,38.72,.32,.06,.56,.17,1.11,.35,1.64,.8,.75,.99,1.96,.44,2.91"/><path class="cls-2" d="M37.29,69.96c.09,.59,.18,1.18,.28,1.77,4.85,12.31,22.28,12.31,27.13,0,.1-.86,.21-1.73,.31-2.59"/><ellipse class="cls-2" cx="40.37" cy="50.52" rx="5.59" ry="7.44" transform="translate(-9.51 9.37) rotate(-11.85)"/><path class="cls-2" d="M32.37,68.81c.76,4.54,.68,5.94,.72,7.24,.04,1.29,.2,2.48,.28,3.76s.06,2.68,.17,3.76c.11,1.08,.33,1.84,.84,2.42,.51,.58,1.32,.98,2.33,1.38,1,.4,2.2,.81,3.17,.99,.97,.18,1.7,.13,2.47,.14,.76,.01,1.55,.08,2.62,.32,1.07,.24,2.44,.65,3.4,.96,.96,.31,1.51,.53,2.03,.65,.52,.13,1,.16,1.52,.16,.52,0,1.08-.03,1.84-.27,.76-.24,1.73-.68,2.5-1.23,.76-.55,1.32-1.19,2.24-1.7,.92-.5,2.19-.87,3.23-1.09,1.04-.22,1.85-.31,2.49-.45s1.11-.32,1.65-.69c.55-.37,1.17-.93,1.63-1.93,.46-1,.76-2.44,.94-3.7,.19-1.26,.27-2.34,.23-3.27-.03-.93-.18-1.72-.27-2.85-.09-1.13-.11-2.61-.57-5.5"/><ellipse class="cls-2" cx="59.92" cy="50.52" rx="5.59" ry="7.44" transform="translate(-9.1 13.38) rotate(-11.85)"/><path class="cls-2" d="M47.39,63.87c.09,.33,.14,.8,.09,1.26-.05,.46-.19,.93-.41,1.34-.23,.42-.54,.78-1.03,1.09s-1.16,.54-1.83,.75c-.66,.21-1.31,.4-2.09,.58-.78,.18-1.68,.35-2.53,.42s-1.67,.02-2.34-.04c-.67-.06-1.21-.14-1.75-.35-.54-.21-1.08-.55-1.65-.9s-1.17-.71-1.75-1.16-1.14-1.01-1.5-1.44c-.37-.43-.54-.75-.7-1.08-.17-.33-.32-.69-.4-.94-.07-.26-.06-.42,.07-.6,.13-.18,.38-.37,.72-.36,.34,0,.77,.21,1.17,.49,.4,.28,.76,.63,1.2,1.01,.44,.38,.94,.78,1.56,1.08s1.35,.51,1.99,.65c.65,.14,1.21,.21,1.71,.24,.51,.03,.95,.03,1.57-.08,.62-.1,1.4-.31,1.97-.48,.57-.17,.93-.32,1.31-.54,.39-.22,.8-.52,1.16-.8s.69-.54,1.05-.68c.36-.14,.77-.17,1.11-.18s.63,0,.84,.1c.21,.1,.35,.3,.44,.63Z"/><path class="cls-2" d="M55.44,63.79c-.47-.05-.87-.14-1.28-.07-.41,.06-.84,.29-1.04,.63-.2,.35-.17,.81-.02,1.3s.43,.98,.74,1.36,.63,.62,1.15,.83c.51,.21,1.21,.4,1.85,.5,.64,.11,1.22,.14,2.03,.12,.81-.02,1.85-.08,2.75-.16s1.67-.17,2.43-.33,1.51-.37,2.03-.59c.53-.22,.83-.43,1.18-.75,.34-.31,.73-.72,1.02-1.21,.29-.49,.5-1.07,.71-1.68,.21-.61,.43-1.24,.55-1.75,.12-.51,.15-.9,.15-1.26s-.02-.69-.06-.87c-.04-.19-.11-.23-.28-.17-.17,.06-.45,.21-.76,.6-.31,.38-.67,1-1.11,1.62-.44,.63-.98,1.27-1.64,1.74-.66,.47-1.45,.77-2.06,.95-.61,.19-1.04,.27-1.45,.32-.42,.05-.82,.05-1.33,.01s-1.14-.13-1.82-.32c-.68-.19-1.43-.48-2.07-.62-.65-.14-1.19-.15-1.67-.19Z"/><path class="cls-2" d="M52.76,62.32c-.22,.28-.53,.5-.8,.67s-.49,.31-.8,.42c-.31,.11-.72,.21-1.07,.2-.35-.01-.64-.14-.97-.33-.32-.19-.68-.46-.94-.89s-.43-1.02-.48-1.61c-.05-.59,.02-1.19,.18-1.91,.17-.72,.43-1.57,.66-2.21,.23-.65,.41-1.1,.62-1.42s.42-.48,.55-.59,.18-.15,.4-.05c.22,.1,.62,.35,.93,.73,.32,.38,.55,.88,.85,1.51,.3,.63,.66,1.37,.88,2.14,.23,.77,.33,1.57,.32,2.15,0,.57-.12,.91-.33,1.19Z"/><path class="cls-3" d="M38.56,73.77c8.51,1.56,16.63,1.56,25.14,0"/><line class="cls-3" x1="46.35" y1="80.15" x2="46.35" y2="68.88"/><line class="cls-3" x1="38.56" y1="73.77" x2="38.56" y2="70.02"/><line class="cls-3" x1="41.86" y1="77.63" x2="41.86" y2="69.93"/><line class="cls-3" x1="63.16" y1="74.62" x2="63.16" y2="69.58"/><line class="cls-3" x1="55.06" y1="80.42" x2="55.06" y2="69.68"/><line class="cls-3" x1="59.13" y1="78.57" x2="59.13" y2="69.56"/><line class="cls-3" x1="50.62" y1="80.91" x2="50.62" y2="68.96"/><path class="cls-2" d="M68.26,48.11c.99-2.19,1.29-3.85,1.49-5.16,.26-1.67,.36-2.8,.4-3.82,.03-1.01-.01-1.91-.12-2.85-.07-.58-.16-1.18-.31-1.81"/><path class="cls-2" d="M29.71,34.89c-.03,.87,.06,1.32,.07,1.72,.02,.71-.22,1.28-.38,1.97-.16,.69-.24,1.49-.24,2.26s.08,1.52,.13,2.29c.05,.77,.07,1.56,.42,2.47,.3,.77,.84,1.63,1.25,2.39"/><path class="cls-2" d="M30.96,47.98c-.17,.49-.3,.8-.6,1.16-.37,.45-.99,.98-1.33,1.61-.34,.64-.41,1.38-.43,1.91-.02,.53,.02,.86-.09,1.31s-.35,1.01-.77,2.66c-.42,1.65-1.01,4.37-1.32,5.96-.31,1.59-.32,2.04-.21,2.46,.12,.42,.37,.8,.86,1.25s1.23,.95,2.19,1.38c.95,.43,2.11,.78,3.11,1.11,.99,.34,1.82,.66,2.82,.87,1,.21,2.18,.31,3.64,.34,1.46,.03,3.19-.03,4.53-.29s2.28-.74,3.38-.93c1.1-.19,2.35-.1,3.4,.07s1.9,.42,2.9,.58c1,.16,2.15,.23,3.16,.23s1.86-.07,2.73-.1c.87-.03,1.75-.03,2.65-.01,.9,.01,1.82,.04,2.64-.17,.82-.2,1.54-.64,2.27-.96,.73-.33,1.46-.55,2-.76,.54-.2,.89-.38,1.3-.7,.41-.32,.88-.79,1.28-1.4,.4-.62,.72-1.38,.91-2.17,.2-.78,.27-1.58,.24-2.47-.03-.89-.17-1.87-.51-2.92-.34-1.06-.89-2.2-1.33-3.25s-.78-2.03-1.12-3.13c-.34-1.1-.67-2.31-.92-3.21-.03-.11-.06-.21-.08-.31"/><path class="cls-2" d="M29.46,27.8c.1-5.15,.19-10.29,.29-15.44,10.87-9.27,26.86-9.27,37.73,0,.1,5.24,.2,10.48,.3,15.71"/></g></svg>